<svg xmlns="http://www.w3.org/2000/svg" xmlns:xlink="http://www.w3.org/1999/xlink" viewBox="0 0 136.12 41"><defs><style>.cls-1{isolation:isolate;}.cls-2{fill:url(#_2);}.cls-3{fill:#b11d51;}.cls-4{fill:#870a2c;}.cls-5{fill:url(#_19);}.cls-6{fill:url(#_893);}.cls-10,.cls-14,.cls-7{mix-blend-mode:multiply;}.cls-7{fill:url(#_191);}.cls-8{fill:#2e031e;}.cls-9{fill:#fff;}.cls-10{fill:#cf77b6;opacity:0.6;}.cls-11{fill:url(#_2-2);}.cls-12{fill:url(#_19-2);}.cls-13{fill:url(#_893-2);}.cls-14{fill:url(#_191-2);}</style><linearGradient id="_2" x1="115.61" y1="40.69" x2="115.61" y2="4.13" gradientUnits="userSpaceOnUse"><stop offset="0" stop-color="#ece0ff"/><stop offset="1" stop-color="#bbc7f9"/></linearGradient><linearGradient id="_19" x1="113.67" y1="11.4" x2="113.67" y2="31.79" gradientUnits="userSpaceOnUse"><stop offset="0" stop-color="#781813"/><stop offset="1" stop-color="#45000a"/></linearGradient><linearGradient id="_893" x1="113.67" y1="32.53" x2="113.67" y2="7.01" gradientUnits="userSpaceOnUse"><stop offset="0" stop-color="#70310c"/><stop offset="1" stop-color="#5e191c"/></linearGradient><linearGradient id="_191" x1="113.67" y1="28.05" x2="113.67" y2="11.49" gradientUnits="userSpaceOnUse"><stop offset="0" stop-color="#a598bb"/><stop offset="0.99" stop-color="#724a60"/></linearGradient><linearGradient id="_2-2" x1="-3141.69" y1="40.69" x2="-3141.69" y2="4.13" gradientTransform="matrix(-1, 0, 0, 1, -3121.17, 0)" xlink:href="#_2"/><linearGradient id="_19-2" x1="-3143.62" y1="11.4" x2="-3143.62" y2="31.79" gradientTransform="matrix(-1, 0, 0, 1, -3121.17, 0)" xlink:href="#_19"/><linearGradient id="_893-2" x1="-3143.62" y1="32.53" x2="-3143.62" y2="7.01" gradientTransform="matrix(-1, 0, 0, 1, -3121.17, 0)" xlink:href="#_893"/><linearGradient id="_191-2" x1="-3143.62" y1="28.05" x2="-3143.62" y2="11.49" gradientTransform="matrix(-1, 0, 0, 1, -3121.17, 0)" xlink:href="#_191"/></defs><g class="cls-1"><g id="Layer_2" data-name="Layer 2"><g id="Avatar_face" data-name="Avatar face"><path class="cls-2" d="M96.28,37.59c.87,3.45,23.16,5.44,32.37-1.88,9.83-7.82,10.65-27.72-2.52-31S89.91,12.39,96.28,37.59Z"/><path class="cls-3" d="M95.8,22.94S99.22,2.41,115.36.2c14.49-2,19,11.23,19,11.23S112.14-12.9,95.8,22.94Z"/><path class="cls-4" d="M95.43,34.23a44.63,44.63,0,0,0,4.69,5.48s-4.19-.35-4.69-1.55S95.43,34.23,95.43,34.23Z"/><path class="cls-4" d="M106.6,40.61s14.76,1.13,22.82-7.2c7-7.23,6.61-13.73,6.61-13.73s1.45,8.86-6.91,16.11S106.6,40.61,106.6,40.61Z"/><circle class="cls-5" cx="113.67" cy="19.77" r="13.56"/><circle class="cls-6" cx="113.67" cy="19.77" r="12.76"/><circle class="cls-7" cx="113.67" cy="19.77" r="8.28"/><path class="cls-8" d="M95.2,29.09s.34-17.38,18.13-22.37,22.21,8.08,22.21,8.08S136.8,3,122.71,2.15C105.32,1.17,95,17.48,95.2,29.09Z"/><path class="cls-9" d="M122.82,18c-.8.71,2.91.89,5.68-.2,2.48-1,3.68-2.57,3.44-2.85S126,15.17,122.82,18Z"/><path class="cls-9" d="M120.71,18.68c-1-.36-2.28.19-2.33.75s1.26,1.25,1.86,1S121.3,18.88,120.71,18.68Z"/><path class="cls-10" d="M95.3,31.85s3.56-17.91,20.08-21.38,20.33,5.13,20.33,5.13l-.17-.8S133.78,3.18,114.85,5,94.68,27.6,95.3,31.85Z"/><path class="cls-11" d="M39.84,37.59C39,41,16.69,43,7.47,35.71-2.36,27.89-3.18,8,10,4.7S46.21,12.39,39.84,37.59Z"/><path class="cls-3" d="M40.33,22.94S36.91,2.41,20.76.2c-14.48-2-19,11.23-19,11.23S24-12.9,40.33,22.94Z"/><path class="cls-4" d="M40.69,34.23A45.19,45.19,0,0,1,36,39.71s4.19-.35,4.68-1.55S40.69,34.23,40.69,34.23Z"/><path class="cls-4" d="M29.53,40.61S14.76,41.74,6.7,33.41C-.31,26.18.1,19.68.1,19.68S-1.36,28.54,7,35.79,29.53,40.61,29.53,40.61Z"/><circle class="cls-12" cx="22.45" cy="19.77" r="13.56"/><circle class="cls-13" cx="22.45" cy="19.77" r="12.76"/><circle class="cls-14" cx="22.45" cy="19.77" r="8.28"/><path class="cls-8" d="M40.93,29.09S40.59,11.71,22.8,6.72.59,14.8.59,14.8-.68,3,13.42,2.15C30.81,1.17,41.17,17.48,40.93,29.09Z"/><path class="cls-9" d="M13.3,18c.8.71-2.91.89-5.68-.2-2.48-1-3.67-2.57-3.44-2.85S10.15,15.17,13.3,18Z"/><path class="cls-9" d="M15.42,18.68c1-.36,2.28.19,2.32.75s-1.25,1.25-1.86,1S14.83,18.88,15.42,18.68Z"/><path class="cls-10" d="M40.82,31.85S37.27,13.94,20.75,10.47.42,15.6.42,15.6l.17-.8S2.35,3.18,21.27,5,41.45,27.6,40.82,31.85Z"/></g></g></g></svg>