<svg xmlns="http://www.w3.org/2000/svg" xmlns:xlink="http://www.w3.org/1999/xlink" viewBox="0 0 139.02 42.28"><defs><style>.cls-1{mask:url(#mask);filter:url(#luminosity-noclip-4);}.cls-10,.cls-16,.cls-19,.cls-2,.cls-23,.cls-28,.cls-4{mix-blend-mode:multiply;}.cls-2{fill:url(#linear-gradient);}.cls-3{mask:url(#mask-2);filter:url(#luminosity-noclip-6);}.cls-4{fill:url(#linear-gradient-2);}.cls-5{fill:url(#Áåçûìÿííûé_ãðàäèåíò_9);}.cls-6{fill:url(#Áåçûìÿííûé_ãðàäèåíò_9-2);}.cls-7{isolation:isolate;}.cls-8{mask:url(#mask-3);}.cls-9{fill:url(#linear-gradient-3);}.cls-10,.cls-23{opacity:0.4;}.cls-10{fill:url(#_285_2);}.cls-11{mask:url(#mask-4);}.cls-12{fill:#da6b7c;}.cls-13{clip-path:url(#clip-path);}.cls-14{fill:url(#linear-gradient-4);}.cls-15{fill:url(#linear-gradient-5);}.cls-16{fill:url(#_191);}.cls-17{fill:#fff;}.cls-18,.cls-29{mix-blend-mode:color-dodge;opacity:0.2;}.cls-18{fill:url(#_300);}.cls-19{fill:#bc7eb7;opacity:0.6;}.cls-20{fill:#912c47;}.cls-21{mask:url(#mask-5);}.cls-22{fill:url(#linear-gradient-6);}.cls-23{fill:url(#_285_2-2);}.cls-24{mask:url(#mask-6);}.cls-25{clip-path:url(#clip-path-2);}.cls-26{fill:url(#linear-gradient-7);}.cls-27{fill:url(#linear-gradient-8);}.cls-28{fill:url(#_191-2);}.cls-29{fill:url(#_300-2);}.cls-30{filter:url(#luminosity-noclip-5);}.cls-31{filter:url(#luminosity-noclip-3);}.cls-32{filter:url(#luminosity-noclip-2);}.cls-33{filter:url(#luminosity-noclip);}</style><filter id="luminosity-noclip" x="86.34" y="-8161.71" width="52.19" height="32766" filterUnits="userSpaceOnUse" color-interpolation-filters="sRGB"><feFlood flood-color="#fff" result="bg"/><feBlend in="SourceGraphic" in2="bg"/></filter><mask id="mask" x="86.34" y="-8161.71" width="52.19" height="32766" maskUnits="userSpaceOnUse"><g class="cls-33"/></mask><linearGradient id="linear-gradient" x1="86.34" y1="35.02" x2="138.53" y2="35.02" gradientUnits="userSpaceOnUse"><stop offset="0" stop-color="#fff"/><stop offset="0.24"/><stop offset="0.3" stop-color="#4a4a4a"/><stop offset="0.35" stop-color="#8a8a8a"/><stop offset="0.4" stop-color="#bdbdbd"/><stop offset="0.45" stop-color="#e1e1e1"/><stop offset="0.48" stop-color="#f7f7f7"/><stop offset="0.5" stop-color="#fff"/></linearGradient><filter id="luminosity-noclip-2" x="0.5" y="-8161.71" width="52.19" height="32766" filterUnits="userSpaceOnUse" color-interpolation-filters="sRGB"><feFlood flood-color="#fff" result="bg"/><feBlend in="SourceGraphic" in2="bg"/></filter><mask id="mask-2" x="0.5" y="-8161.71" width="52.19" height="32766" maskUnits="userSpaceOnUse"><g class="cls-32"/></mask><linearGradient id="linear-gradient-2" x1="1447.41" y1="35.02" x2="1499.6" y2="35.02" gradientTransform="matrix(-1, 0, 0, 1, 1500.1, 0)" xlink:href="#linear-gradient"/><linearGradient id="Áåçûìÿííûé_ãðàäèåíò_9" x1="112.57" y1="41.68" x2="112.57" y2="10.13" gradientUnits="userSpaceOnUse"><stop offset="0" stop-color="#fff"/><stop offset="1" stop-color="#afa4e1"/></linearGradient><linearGradient id="Áåçûìÿííûé_ãðàäèåíò_9-2" x1="26.45" y1="41.68" x2="26.45" y2="10.13" xlink:href="#Áåçûìÿííûé_ãðàäèåíò_9"/><filter id="luminosity-noclip-3" x="86.63" y="-8161.71" width="52.4" height="32766" filterUnits="userSpaceOnUse" color-interpolation-filters="sRGB"><feFlood flood-color="#fff" result="bg"/><feBlend in="SourceGraphic" in2="bg"/></filter><mask id="mask-3" x="86.63" y="-8161.71" width="52.4" height="32766" maskUnits="userSpaceOnUse"><g class="cls-31"/></mask><linearGradient id="linear-gradient-3" x1="86.63" y1="19.11" x2="139.02" y2="19.11" gradientUnits="userSpaceOnUse"><stop offset="0" stop-color="#ffa793"/><stop offset="0.43" stop-color="#f6a896"/><stop offset="0.52" stop-color="#f9a28f"/><stop offset="0.76" stop-color="#fd9783"/><stop offset="1" stop-color="#ff937f"/></linearGradient><linearGradient id="_285_2" x1="86.65" y1="17.81" x2="139.01" y2="17.81" gradientUnits="userSpaceOnUse"><stop offset="0" stop-color="#fff"/><stop offset="1" stop-color="#ce4c76"/></linearGradient><filter id="luminosity-noclip-4" x="86.34" y="26.59" width="52.19" height="16.85" filterUnits="userSpaceOnUse" color-interpolation-filters="sRGB"><feFlood flood-color="#fff" result="bg"/><feBlend in="SourceGraphic" in2="bg"/></filter><mask id="mask-4" x="86.34" y="26.59" width="52.19" height="16.85" maskUnits="userSpaceOnUse"><g class="cls-1"><path class="cls-2" d="M86.63,35.86S85.1,37.5,89,39.68s11.34,0,11.34,0,7.41,4.69,22.78,3.6,15.38-16.69,15.38-16.69C130.93,38,114.71,42,86.63,35.86Z"/></g></mask><clipPath id="clip-path"><path class="cls-5" d="M138.53,26.59a33.73,33.73,0,0,1-8.93,9.7c-10.78,7.67-25.43,6.81-43-.44l0-.06,0-.1a45.12,45.12,0,0,1,9.9-17.13,26.12,26.12,0,0,1,18.82-8.43,34.07,34.07,0,0,1,7.6.69C137.54,13.94,138.53,26.59,138.53,26.59Z"/></clipPath><linearGradient id="linear-gradient-4" x1="411.25" y1="41.59" x2="411.25" y2="5.36" gradientTransform="matrix(-0.71, -0.71, -0.71, 0.71, 419.67, 297.67)" gradientUnits="userSpaceOnUse"><stop offset="0" stop-color="#5ae2ea"/><stop offset="1" stop-color="#617cea"/></linearGradient><linearGradient id="linear-gradient-5" x1="411.25" y1="5.36" x2="411.25" y2="41.59" gradientTransform="matrix(-1, 0, 0, 1, 523.52, 0)" xlink:href="#linear-gradient-4"/><linearGradient id="_191" x1="411.25" y1="34.2" x2="411.25" y2="12.75" gradientTransform="matrix(-1, 0, 0, 1, 523.52, 0)" gradientUnits="userSpaceOnUse"><stop offset="0" stop-color="#a598bb"/><stop offset="0.99" stop-color="#724a60"/></linearGradient><linearGradient id="_300" x1="397.37" y1="34.2" x2="425.12" y2="34.2" gradientTransform="matrix(-1, 0, 0, 1, 523.52, 0)" gradientUnits="userSpaceOnUse"><stop offset="0" stop-color="#ebdfff"/><stop offset="1" stop-color="#bac6f8"/></linearGradient><filter id="luminosity-noclip-5" x="0" y="-8161.71" width="52.4" height="32766" filterUnits="userSpaceOnUse" color-interpolation-filters="sRGB"><feFlood flood-color="#fff" result="bg"/><feBlend in="SourceGraphic" in2="bg"/></filter><mask id="mask-5" x="0" y="-8161.71" width="52.4" height="32766" maskUnits="userSpaceOnUse"><g class="cls-30"/></mask><linearGradient id="linear-gradient-6" x1="1447.7" y1="19.11" x2="1500.1" y2="19.11" gradientTransform="matrix(-1, 0, 0, 1, 1500.1, 0)" xlink:href="#linear-gradient-3"/><linearGradient id="_285_2-2" x1="1447.72" y1="17.81" x2="1500.08" y2="17.81" gradientTransform="matrix(-1, 0, 0, 1, 1500.1, 0)" xlink:href="#_285_2"/><filter id="luminosity-noclip-6" x="0.5" y="26.59" width="52.19" height="16.85" filterUnits="userSpaceOnUse" color-interpolation-filters="sRGB"><feFlood flood-color="#fff" result="bg"/><feBlend in="SourceGraphic" in2="bg"/></filter><mask id="mask-6" x="0.5" y="26.59" width="52.19" height="16.85" maskUnits="userSpaceOnUse"><g class="cls-3"><path class="cls-4" d="M52.4,35.86s1.52,1.64-2.4,3.82-11.34,0-11.34,0-7.42,4.69-22.79,3.6S.5,26.59.5,26.59C8.09,38,24.32,42,52.4,35.86Z"/></g></mask><clipPath id="clip-path-2"><path class="cls-6" d="M.5,26.59a33.57,33.57,0,0,0,8.92,9.7c10.78,7.67,25.43,6.81,43-.44l0-.06,0-.1a45.18,45.18,0,0,0-9.89-17.13,26.17,26.17,0,0,0-18.83-8.43,34,34,0,0,0-7.59.69C1.48,13.94.5,26.59.5,26.59Z"/></clipPath><linearGradient id="linear-gradient-7" x1="-949.83" y1="41.59" x2="-949.83" y2="5.36" gradientTransform="translate(714.98 678.51) rotate(45)" xlink:href="#linear-gradient-4"/><linearGradient id="linear-gradient-8" x1="-949.83" y1="5.36" x2="-949.83" y2="41.59" gradientTransform="translate(976.58)" xlink:href="#linear-gradient-4"/><linearGradient id="_191-2" x1="-949.83" y1="34.2" x2="-949.83" y2="12.75" gradientTransform="translate(976.58)" xlink:href="#_191"/><linearGradient id="_300-2" x1="-963.71" y1="34.2" x2="-935.95" y2="34.2" gradientTransform="translate(976.58)" xlink:href="#_300"/></defs><g class="cls-7"><g id="Layer_2" data-name="Layer 2"><g id="Layer_1-2" data-name="Layer 1"><g class="cls-8"><path class="cls-9" d="M86.63,35.86S91.32,1.24,118.14,2.39c25.93,1.11,20.39,24.2,20.39,24.2Z"/></g><path class="cls-10" d="M139,20.77c-.22-6.93-3.42-17.63-20.88-18.38-25.53-1.09-31,30.23-31.47,33.24.45-3.2,5.89-36.8,31.47-35.6C136.78.91,139.14,13.32,139,20.77Z"/><g class="cls-11"><path class="cls-12" d="M86.63,35.86S85.1,37.5,89,39.68s11.34,0,11.34,0,5.36,3.48,20.73,2.39,17.43-15.48,17.43-15.48C130.93,38,114.71,42,86.63,35.86Z"/></g><path class="cls-5" d="M138.53,26.59a33.73,33.73,0,0,1-8.93,9.7c-10.78,7.67-25.43,6.81-43-.44l0-.06,0-.1a45.12,45.12,0,0,1,9.9-17.13,26.12,26.12,0,0,1,18.82-8.43,34.07,34.07,0,0,1,7.6.69C137.54,13.94,138.53,26.59,138.53,26.59Z"/><g class="cls-13"><circle class="cls-14" cx="112.27" cy="23.47" r="18.12" transform="translate(16.28 86.26) rotate(-45)"/><path class="cls-15" d="M94.16,23.47A18.12,18.12,0,1,0,112.27,5.36,18.11,18.11,0,0,0,94.16,23.47Zm1,0a17.09,17.09,0,1,1,17.08,17.09A17.08,17.08,0,0,1,95.19,23.47Z"/><circle class="cls-16" cx="112.27" cy="23.47" r="10.73"/><path class="cls-17" d="M120.54,20.63c.33-1.25,1.33-3.67,2.62-3.75,2.07-.13,5.17,5.75,3.57,7.61-1.2,1.39-5.28.83-6.25-1.19A3.84,3.84,0,0,1,120.54,20.63Z"/><path class="cls-18" d="M126.07,29.8c-.71-.47-6.16,5.79-14.1,5.6S99,28.69,98.46,29s4,10.48,14.16,10.35C122.1,39.26,126.85,30.31,126.07,29.8Z"/><path class="cls-17" d="M125.16,26.12a1.26,1.26,0,0,0-.63,1.65,1.13,1.13,0,0,0,.89.67,1.27,1.27,0,0,0,1.34-1.3A1.25,1.25,0,0,0,125.16,26.12Z"/></g><path class="cls-19" d="M138.53,26.59C114,.72,88.47,34.72,86.65,35.79a45.25,45.25,0,0,1,9.93-17.22,26.13,26.13,0,0,1,18.82-8.44,34.13,34.13,0,0,1,7.6.69C137.54,13.94,138.53,26.59,138.53,26.59Z"/><path class="cls-20" d="M138.53,26.59a33.73,33.73,0,0,1-8.93,9.7c1.82-1.85,4.82-5.1,6-7.55,1.73-3.64-.81-17.11-22.08-15.48C93.06,14.82,87.29,34.09,86.68,35.69a45.12,45.12,0,0,1,9.9-17.13,26.12,26.12,0,0,1,18.82-8.43,34.07,34.07,0,0,1,7.6.69C137.54,13.94,138.53,26.59,138.53,26.59Z"/><g class="cls-21"><path class="cls-22" d="M52.4,35.86S47.71,1.24,20.89,2.39C-5,3.5.5,26.59.5,26.59Z"/></g><path class="cls-23" d="M0,20.77C.25,13.84,3.44,3.14,20.9,2.39c25.54-1.09,31,30.23,31.48,33.24-.45-3.2-5.9-36.8-31.48-35.6C2.25.91-.12,13.32,0,20.77Z"/><g class="cls-24"><path class="cls-12" d="M52.4,35.86s1.52,1.64-2.4,3.82-11.34,0-11.34,0-5.37,3.48-20.74,2.39S.5,26.59.5,26.59C8.09,38,24.32,42,52.4,35.86Z"/></g><path class="cls-6" d="M.5,26.59a33.57,33.57,0,0,0,8.92,9.7c10.78,7.67,25.43,6.81,43-.44l0-.06,0-.1a45.18,45.18,0,0,0-9.89-17.13,26.17,26.17,0,0,0-18.83-8.43,34,34,0,0,0-7.59.69C1.48,13.94.5,26.59.5,26.59Z"/><g class="cls-25"><circle class="cls-26" cx="26.75" cy="23.47" r="18.12" transform="translate(-8.76 25.79) rotate(-45)"/><path class="cls-27" d="M26.75,5.36A18.12,18.12,0,1,0,44.87,23.47,18.11,18.11,0,0,0,26.75,5.36Zm0,35.2A17.09,17.09,0,1,1,43.84,23.47,17.09,17.09,0,0,1,26.75,40.56Z"/><circle class="cls-28" cx="26.75" cy="23.47" r="10.73"/><path class="cls-17" d="M33.71,20.63C34,19.38,35,17,36.33,16.88c2.07-.13,5.17,5.75,3.57,7.61-1.2,1.39-5.28.83-6.25-1.19A3.84,3.84,0,0,1,33.71,20.63Z"/><path class="cls-29" d="M13,29.8c.7-.47,6.16,5.79,14.09,5.6S40,28.69,40.57,29s-4,10.48-14.16,10.35C16.92,39.26,12.17,30.31,13,29.8Z"/><path class="cls-17" d="M38.32,26.12a1.26,1.26,0,0,0-.62,1.65,1.13,1.13,0,0,0,.89.67,1.27,1.27,0,0,0,1.34-1.3A1.25,1.25,0,0,0,38.32,26.12Z"/></g><path class="cls-19" d="M.5,26.59C28.59.84,52.1,35,52.37,35.79a45,45,0,0,0-9.92-17.22,26.17,26.17,0,0,0-18.83-8.44,34,34,0,0,0-7.59.69C1.48,13.94.5,26.59.5,26.59Z"/><path class="cls-20" d="M.5,26.59a33.57,33.57,0,0,0,8.92,9.7c-1.81-1.85-4.82-5.1-6-7.55-1.72-3.64.81-17.11,22.09-15.48C46,14.82,51.73,34.09,52.34,35.69a45.18,45.18,0,0,0-9.89-17.13,26.17,26.17,0,0,0-18.83-8.43,34,34,0,0,0-7.59.69C1.48,13.94.5,26.59.5,26.59Z"/></g></g></g></svg>