<svg xmlns="http://www.w3.org/2000/svg" xmlns:xlink="http://www.w3.org/1999/xlink" viewBox="0 0 137.27 42.44"><defs><style>.cls-1{fill:none;}.cls-2{isolation:isolate;}.cls-3{fill:url(#_2);}.cls-4{clip-path:url(#clip-path);}.cls-5{fill:url(#_19);}.cls-6{fill:url(#_908);}.cls-17,.cls-7,.cls-9{mix-blend-mode:multiply;}.cls-7{fill:url(#_7);}.cls-8{fill:#b11d51;}.cls-9{fill:#cf77b6;opacity:0.6;}.cls-10{fill:#2e031e;}.cls-11{fill:#870a2c;}.cls-12{fill:#fff;}.cls-13{fill:url(#_2-2);}.cls-14{clip-path:url(#clip-path-2);}.cls-15{fill:url(#_19-2);}.cls-16{fill:url(#_908-2);}.cls-17{fill:url(#_7-2);}</style><linearGradient id="_2" x1="22.11" y1="42.44" x2="22.11" y2="4.21" gradientUnits="userSpaceOnUse"><stop offset="0" stop-color="#ece0ff"/><stop offset="1" stop-color="#bbc7f9"/></linearGradient><clipPath id="clip-path"><path id="SVGID" class="cls-1" d="M44.23,36.31s-12.73,6.56-23.7,6.1C6.87,41.84.71,29.43,0,21S12.33.63,26.68,5.23,44,27,44.23,36.31Z"/></clipPath><linearGradient id="_19" x1="22.57" y1="34.85" x2="22.57" y2="11.16" gradientTransform="translate(13.49 -8.27) rotate(29.3)" gradientUnits="userSpaceOnUse"><stop offset="0" stop-color="#781813"/><stop offset="1" stop-color="#45000a"/></linearGradient><linearGradient id="_908" x1="22.57" y1="32.19" x2="22.57" y2="12.19" gradientUnits="userSpaceOnUse"><stop offset="0" stop-color="#9b3513"/><stop offset="1" stop-color="#84171b"/></linearGradient><linearGradient id="_7" x1="22.57" y1="29.11" x2="22.57" y2="14.24" gradientTransform="translate(40.36 -4.07) rotate(80.81)" gradientUnits="userSpaceOnUse"><stop offset="0" stop-color="#9886a3"/><stop offset="0.99" stop-color="#534180"/></linearGradient><linearGradient id="_2-2" x1="-12562.65" y1="42.44" x2="-12562.65" y2="4.21" gradientTransform="matrix(-1, 0, 0, 1, -12447.49, 0)" xlink:href="#_2"/><clipPath id="clip-path-2"><path id="SVGID-2" data-name="SVGID" class="cls-1" d="M93.05,36.31s12.72,6.56,23.69,6.1c13.66-.57,19.82-13,20.51-21.41S124.94.63,110.59,5.23,93.28,27,93.05,36.31Z"/></clipPath><linearGradient id="_19-2" x1="-12562.19" y1="34.85" x2="-12562.19" y2="11.16" gradientTransform="matrix(-0.71, -0.71, -0.71, 0.71, -8752.79, -8876.47)" xlink:href="#_19"/><linearGradient id="_908-2" x1="-12562.19" y1="32.19" x2="-12562.19" y2="12.19" gradientTransform="matrix(-1, 0, 0, 1, -12447.49, 0)" xlink:href="#_908"/><linearGradient id="_7-2" x1="-12562.19" y1="29.11" x2="-12562.19" y2="14.24" gradientTransform="matrix(-0.99, -0.16, -0.16, 0.99, -12282.93, -2005.16)" xlink:href="#_7"/></defs><g class="cls-2"><g id="Layer_2" data-name="Layer 2"><g id="Avatar_face" data-name="Avatar face"><path class="cls-3" d="M44.23,36.31s-12.84,6.56-23.7,6.1C6.87,41.84.71,29.43,0,21S12.33.63,26.68,5.23,44,27,44.23,36.31Z"/><g class="cls-4"><circle class="cls-5" cx="22.57" cy="21.67" r="12.98" transform="translate(-7.72 13.82) rotate(-29.3)"/><path class="cls-6" d="M22.57,33.61A11.94,11.94,0,1,1,34.51,21.67,11.95,11.95,0,0,1,22.57,33.61Z"/><circle class="cls-7" cx="22.57" cy="21.67" r="7.44" transform="translate(-2.43 40.49) rotate(-80.81)"/></g><path class="cls-8" d="M2.24,13.76C2.07,14,6,.35,19.77,0S39.32,14.22,39.32,14.22,22.11-8.51,2.24,13.76Z"/><path class="cls-9" d="M43.55,28.58s-7-11.47-19.77-13.94a42.33,42.33,0,0,0-23.1,2.1c2-4.63,5.9-11,19.85-11.51C41,4.48,43.55,28.58,43.55,28.58Z"/><path class="cls-10" d="M.76,16.62A21.23,21.23,0,0,1,8.61,7.11C23.33-3.21,42.78,3.84,43.55,28.58c0,0-5.08-28.8-29.94-21.2C5.68,9.81.76,16.62.76,16.62Z"/><path class="cls-11" d="M1.13,26.21s3.56,11.65,19.4,16.2C20.53,42.41,2.8,43.64,1.13,26.21Z"/><path class="cls-11" d="M43.55,30.31a13.12,13.12,0,0,1,1.31,4.87c0,1.54-1.31,2.56-5.54,3.29,0,0,3.2-2.3,4.11-4C43.76,33.8,43.55,30.31,43.55,30.31Z"/><path class="cls-12" d="M6.48,21.07s2.28-2.05,8.66,0C15.14,21.07,12.29,23,6.48,21.07Z"/><path class="cls-12" d="M18.07,20.16s-1.07,1.61,0,1.78,2.5-.57,2.46-.89S18.39,19.53,18.07,20.16Z"/><path class="cls-13" d="M93.05,36.31s12.83,6.56,23.69,6.1c13.66-.57,19.82-13,20.51-21.41S124.94.63,110.59,5.23,93.28,27,93.05,36.31Z"/><g class="cls-14"><circle class="cls-15" cx="114.7" cy="21.67" r="12.98" transform="translate(18.27 87.46) rotate(-45)"/><path class="cls-16" d="M114.7,33.61a11.94,11.94,0,1,0-11.93-11.94A12,12,0,0,0,114.7,33.61Z"/><circle class="cls-17" cx="114.7" cy="21.67" r="7.44" transform="translate(-1.99 18.59) rotate(-9.19)"/></g><path class="cls-8" d="M135,13.76C135.21,14,131.29.35,117.5,0S98,14.22,98,14.22,115.16-8.51,135,13.76Z"/><path class="cls-9" d="M93.72,28.58s7-11.47,19.78-13.94a42.35,42.35,0,0,1,23.1,2.1c-2-4.63-5.91-11-19.86-11.51C96.24,4.48,93.72,28.58,93.72,28.58Z"/><path class="cls-10" d="M136.52,16.62a21.23,21.23,0,0,0-7.85-9.51C113.94-3.21,94.49,3.84,93.72,28.58c0,0,5.08-28.8,29.94-21.2C131.6,9.81,136.52,16.62,136.52,16.62Z"/><path class="cls-11" d="M136.14,26.21s-3.56,11.65-19.4,16.2C116.74,42.41,134.48,43.64,136.14,26.21Z"/><path class="cls-11" d="M93.72,30.31a13.12,13.12,0,0,0-1.31,4.87c0,1.54,1.31,2.56,5.54,3.29,0,0-3.2-2.3-4.1-4C93.51,33.8,93.72,30.31,93.72,30.31Z"/><path class="cls-12" d="M130.79,21.07s-2.28-2.05-8.66,0C122.13,21.07,125,23,130.79,21.07Z"/><path class="cls-12" d="M119.21,20.16s1.06,1.61,0,1.78-2.5-.57-2.47-.89S118.88,19.53,119.21,20.16Z"/></g></g></g></svg>