<svg xmlns="http://www.w3.org/2000/svg" xmlns:xlink="http://www.w3.org/1999/xlink" viewBox="0 0 139.15 41.91"><defs><style>.cls-1{isolation:isolate;}.cls-2{fill:url(#Áåçûìÿííûé_ãðàäèåíò_300);}.cls-3{fill:#dd4c6a;}.cls-4{fill:#dd6b7c;}.cls-5{fill:url(#Áåçûìÿííûé_ãðàäèåíò_182);}.cls-6{fill:url(#Áåçûìÿííûé_ãðàäèåíò_205);}.cls-10,.cls-14,.cls-7{mix-blend-mode:multiply;}.cls-7{fill:url(#Áåçûìÿííûé_ãðàäèåíò_191);}.cls-8{fill:#4e1b3d;}.cls-9{fill:#fff;}.cls-10{fill:#d177b8;opacity:0.6;}.cls-11{fill:url(#Áåçûìÿííûé_ãðàäèåíò_300-2);}.cls-12{fill:url(#Áåçûìÿííûé_ãðàäèåíò_182-2);}.cls-13{fill:url(#Áåçûìÿííûé_ãðàäèåíò_205-2);}.cls-14{fill:url(#Áåçûìÿííûé_ãðàäèåíò_191-2);}</style><linearGradient id="Áåçûìÿííûé_ãðàäèåíò_300" x1="118.18" y1="41.59" x2="118.18" y2="4.22" gradientUnits="userSpaceOnUse"><stop offset="0" stop-color="#eee2ff"/><stop offset="1" stop-color="#bdc9fb"/></linearGradient><linearGradient id="Áåçûìÿííûé_ãðàäèåíò_182" x1="116.2" y1="34.07" x2="116.2" y2="6.35" gradientUnits="userSpaceOnUse"><stop offset="0" stop-color="#aca1db"/><stop offset="1" stop-color="#6a518a"/></linearGradient><linearGradient id="Áåçûìÿííûé_ãðàäèåíò_205" x1="116.2" y1="33.25" x2="116.2" y2="7.16" gradientUnits="userSpaceOnUse"><stop offset="0" stop-color="#baa9cc"/><stop offset="0.96" stop-color="#404577"/></linearGradient><linearGradient id="Áåçûìÿííûé_ãðàäèåíò_191" x1="116.2" y1="28.67" x2="116.2" y2="11.74" gradientUnits="userSpaceOnUse"><stop offset="0" stop-color="#a79abd"/><stop offset="0.99" stop-color="#724a60"/></linearGradient><linearGradient id="Áåçûìÿííûé_ãðàäèåíò_300-2" x1="513.68" y1="41.59" x2="513.68" y2="4.22" gradientTransform="matrix(-1, 0, 0, 1, 534.65, 0)" xlink:href="#Áåçûìÿííûé_ãðàäèåíò_300"/><linearGradient id="Áåçûìÿííûé_ãðàäèåíò_182-2" x1="511.71" y1="34.07" x2="511.71" y2="6.35" gradientTransform="matrix(-1, 0, 0, 1, 534.65, 0)" xlink:href="#Áåçûìÿííûé_ãðàäèåíò_182"/><linearGradient id="Áåçûìÿííûé_ãðàäèåíò_205-2" x1="511.71" y1="33.25" x2="511.71" y2="7.16" gradientTransform="matrix(-1, 0, 0, 1, 534.65, 0)" xlink:href="#Áåçûìÿííûé_ãðàäèåíò_205"/><linearGradient id="Áåçûìÿííûé_ãðàäèåíò_191-2" x1="511.71" y1="28.67" x2="511.71" y2="11.74" gradientTransform="matrix(-1, 0, 0, 1, 534.65, 0)" xlink:href="#Áåçûìÿííûé_ãðàäèåíò_191"/></defs><g class="cls-1"><g id="Layer_2" data-name="Layer 2"><g id="layer1"><path class="cls-2" d="M98.42,38.43C99.31,42,122.09,44,131.51,36.5c10.05-8,10.88-28.33-2.58-31.7S91.91,12.67,98.42,38.43Z"/><path class="cls-3" d="M97.93,23.45s3.49-21,20-23.24c14.81-2,19.38,11.47,19.38,11.47S114.63-13.18,97.93,23.45Z"/><path class="cls-4" d="M97.55,35a46.1,46.1,0,0,0,4.79,5.6s-4.28-.36-4.79-1.59S97.55,35,97.55,35Z"/><path class="cls-4" d="M109,41.51s15.09,1.15,23.33-7.36c7.17-7.39,6.76-14,6.76-14s1.48,9.06-7.06,16.48S109,41.51,109,41.51Z"/><circle class="cls-5" cx="116.2" cy="20.21" r="13.86"/><circle class="cls-6" cx="116.2" cy="20.21" r="13.05"/><circle class="cls-7" cx="116.2" cy="20.21" r="8.46"/><path class="cls-8" d="M97.31,29.74S97.66,12,115.84,6.87s22.71,8.26,22.71,8.26S139.84,3,125.43,2.2C107.65,1.2,97.07,17.87,97.31,29.74Z"/><path class="cls-9" d="M125.55,18.37c-.82.73,3,.9,5.8-.21,2.54-1,3.76-2.62,3.52-2.91S128.77,15.51,125.55,18.37Z"/><path class="cls-9" d="M123.39,19.09c-1.08-.36-2.33.19-2.38.77s1.28,1.28,1.9,1S124,19.3,123.39,19.09Z"/><path class="cls-10" d="M97.42,32.56s3.63-18.31,20.52-21.86S138.72,16,138.72,16l-.17-.82S136.75,3.25,117.4,5.06,96.78,28.21,97.42,32.56Z"/><path class="cls-11" d="M40.73,38.43C39.84,42,17.06,44,7.64,36.5c-10-8-10.89-28.33,2.58-31.7S47.24,12.67,40.73,38.43Z"/><path class="cls-3" d="M41.22,23.45s-3.5-21-20-23.24C6.42-1.82,1.85,11.68,1.85,11.68S24.51-13.18,41.22,23.45Z"/><path class="cls-4" d="M41.59,35a45.72,45.72,0,0,1-4.78,5.6s4.28-.36,4.78-1.59S41.59,35,41.59,35Z"/><path class="cls-4" d="M30.18,41.51S15.09,42.66,6.85,34.15C-.31,26.76.1,20.11.1,20.11s-1.49,9.06,7.06,16.48S30.18,41.51,30.18,41.51Z"/><circle class="cls-12" cx="22.95" cy="20.21" r="13.86"/><circle class="cls-13" cx="22.95" cy="20.21" r="13.05"/><circle class="cls-14" cx="22.95" cy="20.21" r="8.46"/><path class="cls-8" d="M41.84,29.74S41.49,12,23.3,6.87.6,15.13.6,15.13-.69,3,13.71,2.2C31.49,1.2,42.08,17.87,41.84,29.74Z"/><path class="cls-9" d="M13.6,18.37c.82.73-3,.9-5.81-.21-2.53-1-3.76-2.62-3.51-2.91S10.37,15.51,13.6,18.37Z"/><path class="cls-9" d="M15.76,19.09c1.07-.36,2.33.19,2.38.77s-1.29,1.28-1.91,1S15.16,19.3,15.76,19.09Z"/><path class="cls-10" d="M41.73,32.56S38.09,14.25,21.21,10.7.43,16,.43,16l.17-.82S2.4,3.25,21.74,5.06,42.37,28.21,41.73,32.56Z"/></g></g></g></svg>