<svg xmlns="http://www.w3.org/2000/svg" xmlns:xlink="http://www.w3.org/1999/xlink" viewBox="0 0 137.98 45.44"><defs><style>.cls-1{fill:none;}.cls-2{isolation:isolate;}.cls-3{fill:url(#_2);}.cls-4{clip-path:url(#clip-path);}.cls-5{fill:url(#_19);}.cls-6{fill:url(#_908);}.cls-17,.cls-7,.cls-9{mix-blend-mode:multiply;}.cls-7{fill:url(#_7);}.cls-8{fill:#b11d51;}.cls-9{fill:#cf77b6;opacity:0.6;}.cls-10{fill:#2e031e;}.cls-11{fill:#870a2c;}.cls-12{fill:#fff;}.cls-13{fill:url(#_2-2);}.cls-14{clip-path:url(#clip-path-2);}.cls-15{fill:url(#_19-2);}.cls-16{fill:url(#_908-2);}.cls-17{fill:url(#_7-2);}</style><linearGradient id="_2" x1="23.68" y1="45.44" x2="23.68" y2="4.51" gradientUnits="userSpaceOnUse"><stop offset="0" stop-color="#ece0ff"/><stop offset="1" stop-color="#bbc7f9"/></linearGradient><clipPath id="clip-path"><path id="SVGID" class="cls-1" d="M47.35,38.88S33.73,45.9,22,45.41C7.35,44.8.76,31.51,0,22.48S13.2.68,28.57,5.6,47.11,28.88,47.35,38.88Z"/></clipPath><linearGradient id="_19" x1="24.17" y1="37.32" x2="24.17" y2="11.95" gradientUnits="userSpaceOnUse"><stop offset="0" stop-color="#781813"/><stop offset="1" stop-color="#45000a"/></linearGradient><linearGradient id="_908" x1="24.17" y1="34.46" x2="24.17" y2="13.05" gradientUnits="userSpaceOnUse"><stop offset="0" stop-color="#9b3513"/><stop offset="1" stop-color="#84171b"/></linearGradient><linearGradient id="_7" x1="24.17" y1="31.17" x2="24.17" y2="15.24" gradientUnits="userSpaceOnUse"><stop offset="0" stop-color="#9886a3"/><stop offset="0.99" stop-color="#534180"/></linearGradient><linearGradient id="_2-2" x1="-10387.37" y1="45.44" x2="-10387.37" y2="4.51" gradientTransform="matrix(-1, 0, 0, 1, -10273.07, 0)" xlink:href="#_2"/><clipPath id="clip-path-2"><path id="SVGID-2" data-name="SVGID" class="cls-1" d="M90.62,38.88s13.63,7,25.37,6.53c14.63-.61,21.23-13.9,22-22.93S124.78.68,109.41,5.6,90.87,28.88,90.62,38.88Z"/></clipPath><linearGradient id="_19-2" x1="-10386.88" y1="37.32" x2="-10386.88" y2="11.95" gradientTransform="matrix(-1, 0, 0, 1, -10273.07, 0)" xlink:href="#_19"/><linearGradient id="_908-2" x1="-10386.88" y1="34.46" x2="-10386.88" y2="13.05" gradientTransform="matrix(-1, 0, 0, 1, -10273.07, 0)" xlink:href="#_908"/><linearGradient id="_7-2" x1="-10386.88" y1="31.17" x2="-10386.88" y2="15.24" gradientTransform="matrix(-1, 0, 0, 1, -10273.07, 0)" xlink:href="#_7"/></defs><g class="cls-2"><g id="Layer_2" data-name="Layer 2"><g id="Avatar_face" data-name="Avatar face"><path class="cls-3" d="M47.35,38.88S33.61,45.9,22,45.41C7.35,44.8.76,31.51,0,22.48S13.2.68,28.57,5.6,47.11,28.88,47.35,38.88Z"/><g class="cls-4"><circle class="cls-5" cx="24.17" cy="23.2" r="13.89"/><path class="cls-6" d="M24.17,36A12.78,12.78,0,1,1,37,23.2,12.79,12.79,0,0,1,24.17,36Z"/><path class="cls-7" d="M24.17,31.17a8,8,0,1,1,8-8A8,8,0,0,1,24.17,31.17Z"/></g><path class="cls-8" d="M2.4,14.73C2.21,15,6.41.37,21.17,0S42.1,15.23,42.1,15.23,23.68-9.11,2.4,14.73Z"/><path class="cls-9" d="M46.63,30.6S39.18,18.32,25.46,15.68A45.31,45.31,0,0,0,.73,17.92C2.87,13,7.05,6.15,22,5.6,43.94,4.8,46.63,30.6,46.63,30.6Z"/><path class="cls-10" d="M.81,17.79S2.67,12.2,9.21,7.61c15.77-11,36.59-3.5,37.42,23,0,0-5.44-30.84-32.06-22.69C6.08,10.5.81,17.79.81,17.79Z"/><path class="cls-11" d="M1.21,28.06S5,40.53,22,45.41C22,45.41,3,46.72,1.21,28.06Z"/><path class="cls-11" d="M46.63,32.45A14,14,0,0,1,48,37.66c0,1.65-1.4,2.75-5.93,3.53,0,0,3.42-2.47,4.4-4.32C46.85,36.19,46.63,32.45,46.63,32.45Z"/><path class="cls-12" d="M6.94,22.56s2.44-2.19,9.27,0C16.21,22.56,13.16,24.64,6.94,22.56Z"/><path class="cls-12" d="M19.34,21.59s-1.13,1.72,0,1.9S22,22.88,22,22.54,19.69,20.91,19.34,21.59Z"/><path class="cls-13" d="M90.62,38.88s13.75,7,25.37,6.53c14.63-.61,21.23-13.9,22-22.93S124.78.68,109.41,5.6,90.87,28.88,90.62,38.88Z"/><g class="cls-14"><circle class="cls-15" cx="113.81" cy="23.2" r="13.89"/><path class="cls-16" d="M113.81,36A12.78,12.78,0,1,0,101,23.2,12.79,12.79,0,0,0,113.81,36Z"/><path class="cls-17" d="M113.81,31.17a8,8,0,1,0-8-8A8,8,0,0,0,113.81,31.17Z"/></g><path class="cls-8" d="M135.57,14.73c.19.22-4-14.36-18.76-14.72S95.88,15.23,95.88,15.23,114.3-9.11,135.57,14.73Z"/><path class="cls-9" d="M91.35,30.6s7.45-12.28,21.17-14.92a45.31,45.31,0,0,1,24.73,2.24C135.1,13,130.93,6.15,116,5.6,94,4.8,91.35,30.6,91.35,30.6Z"/><path class="cls-10" d="M137.17,17.79s-1.87-5.59-8.41-10.18c-15.77-11-36.59-3.5-37.41,23,0,0,5.43-30.84,32.05-22.69C131.9,10.5,137.17,17.79,137.17,17.79Z"/><path class="cls-11" d="M136.77,28.06S133,40.53,116,45.41C116,45.41,135,46.72,136.77,28.06Z"/><path class="cls-11" d="M91.35,32.45a14,14,0,0,0-1.41,5.21c0,1.65,1.41,2.75,5.94,3.53,0,0-3.43-2.47-4.4-4.32C91.12,36.19,91.35,32.45,91.35,32.45Z"/><path class="cls-12" d="M131,22.56s-2.44-2.19-9.27,0C121.76,22.56,124.81,24.64,131,22.56Z"/><path class="cls-12" d="M118.63,21.59s1.14,1.72,0,1.9-2.67-.61-2.64-.95S118.28,20.91,118.63,21.59Z"/></g></g></g></svg>