<svg xmlns="http://www.w3.org/2000/svg" xmlns:xlink="http://www.w3.org/1999/xlink" viewBox="0 0 136.22 31.85"><defs><style>.cls-1{fill:none;}.cls-2{isolation:isolate;}.cls-3{fill:url(#_2);}.cls-4{clip-path:url(#clip-path);}.cls-5{fill:url(#_43);}.cls-6{fill:url(#_44);}.cls-17,.cls-7,.cls-8{mix-blend-mode:multiply;}.cls-7{fill:url(#_43-2);}.cls-8{fill:#cf77b6;opacity:0.6;}.cls-9{fill:#b11d51;}.cls-10{fill:#870a2c;}.cls-11{fill:#2e031e;}.cls-12{fill:#fff;}.cls-13{fill:url(#_2-2);}.cls-14{clip-path:url(#clip-path-2);}.cls-15{fill:url(#_43-3);}.cls-16{fill:url(#_44-2);}.cls-17{fill:url(#_43-4);}</style><linearGradient id="_2" x1="115.27" y1="30.89" x2="115.27" y2="6.52" gradientUnits="userSpaceOnUse"><stop offset="0" stop-color="#ece0ff"/><stop offset="1" stop-color="#bbc7f9"/></linearGradient><clipPath id="clip-path" transform="translate(0)"><path id="SVGID" class="cls-1" d="M94.31,28.85s2.13-17.46,19.25-21.63,22.66,11.56,22.66,11.56-3.29,6.94-13.66,9.86S101.07,31.65,94.31,28.85Z"/></clipPath><linearGradient id="_43" x1="-12595.31" y1="16.36" x2="-12566.24" y2="16.36" gradientTransform="matrix(-1, 0, 0, 1, -12468.42, 0)" gradientUnits="userSpaceOnUse"><stop offset="0" stop-color="#604300"/><stop offset="1" stop-color="#471400"/></linearGradient><linearGradient id="_44" x1="-12580.77" y1="25.89" x2="-12580.77" y2="5.18" gradientTransform="matrix(-1, 0, 0, 1, -12468.42, 0)" gradientUnits="userSpaceOnUse"><stop offset="0" stop-color="#925600"/><stop offset="1" stop-color="#2e0010"/></linearGradient><linearGradient id="_43-2" x1="-12580.77" y1="22.2" x2="-12580.77" y2="9.51" xlink:href="#_43"/><linearGradient id="_2-2" x1="-11918.69" y1="30.93" x2="-11918.69" y2="6.55" gradientTransform="matrix(-1, 0, 0, 1, -11897.73, 0)" xlink:href="#_2"/><clipPath id="clip-path-2" transform="translate(0)"><path id="SVGID-2" data-name="SVGID" class="cls-1" d="M41.91,28.89S39.78,11.42,22.66,7.25,0,18.81,0,18.81s3.29,6.94,13.66,9.86S35.15,31.68,41.91,28.89Z"/></clipPath><linearGradient id="_43-3" x1="-561.36" y1="16.4" x2="-532.29" y2="16.4" gradientTransform="translate(422.12 391.46) rotate(45)" xlink:href="#_43"/><linearGradient id="_44-2" x1="-546.82" y1="25.92" x2="-546.82" y2="5.21" gradientTransform="translate(534.57 212.51) rotate(22.72)" xlink:href="#_44"/><linearGradient id="_43-4" x1="-546.82" y1="22.23" x2="-546.82" y2="9.54" gradientTransform="translate(422.12 391.46) rotate(45)" xlink:href="#_43"/></defs><g class="cls-2"><g id="Layer_2" data-name="Layer 2"><g id="Avatar_face" data-name="Avatar face"><path class="cls-3" d="M136.22,18.78s-3.29,6.94-13.66,9.86-21.49,3-28.25.21a26.48,26.48,0,0,1,1.49-5.5h0c2.08-5.49,6.91-13.47,17.76-16.12,15.05-3.66,21.15,8,22.41,10.93C136.14,18.55,136.22,18.78,136.22,18.78Z" transform="translate(0)"/><g class="cls-4"><circle class="cls-5" cx="112.36" cy="16.36" r="14.53"/><circle class="cls-6" cx="112.36" cy="16.36" r="13.38"/><circle class="cls-7" cx="112.36" cy="16.36" r="8.2"/></g><path class="cls-8" d="M136,18.15c-3.76-2.9-10.4-5.78-19.66-5.78-11.45,0-20.12,10.07-20.51,11,2.08-5.49,6.91-13.47,17.76-16.12C128.61,3.56,134.71,15.26,136,18.15Z" transform="translate(0)"/><path class="cls-9" d="M97.19,20.22S98,6.42,110.37,1.27c15.45-6.44,23.83,13.65,23.83,13.65S115.51-6.06,97.19,20.22Z" transform="translate(0)"/><path class="cls-10" d="M100.79,30.51c1.25.15,21.77-3.2,33.59-9.08.32-.16-4.4,6.82-13.44,9C108.53,33.48,100.79,30.51,100.79,30.51Z" transform="translate(0)"/><path class="cls-10" d="M95.8,23.35s-3.69,5-3.28,6.33,5.31.28,5.31.28-2.7-1.4-2.67-2.28S95.8,23.35,95.8,23.35Z" transform="translate(0)"/><path class="cls-11" d="M135.55,17.25s-1.24-6.32-2.61-8.2S123,3.3,113.19,4.8,98.44,16.11,96.13,22.52c0,0,8.17-14.47,21.05-14.22S135.55,17.25,135.55,17.25Z" transform="translate(0)"/><path class="cls-12" d="M122.81,15.93c-.45.45,6.69,2.5,7.06,1.75S123.81,14.93,122.81,15.93Z" transform="translate(0)"/><path class="cls-12" d="M117.59,14.62c-.44.14-.53,1.44,0,1.31s1.53-.18,1.53-.65S118.19,14.43,117.59,14.62Z" transform="translate(0)"/><path class="cls-13" d="M0,18.81s3.29,7,13.66,9.86,21.49,3,28.25.22a26,26,0,0,0-1.48-5.51h0C38.34,17.88,33.51,9.9,22.66,7.25,7.61,3.59,1.51,15.3.25,18.18.08,18.58,0,18.81,0,18.81Z" transform="translate(0)"/><g class="cls-14"><circle class="cls-15" cx="23.86" cy="16.4" r="14.53" transform="translate(-4.61 21.67) rotate(-45)"/><circle class="cls-16" cx="23.86" cy="16.4" r="13.38" transform="translate(-4.48 10.49) rotate(-22.72)"/><circle class="cls-17" cx="23.86" cy="16.4" r="8.2" transform="translate(-4.61 21.67) rotate(-45)"/></g><path class="cls-8" d="M.25,18.18C4,15.28,10.65,12.4,19.91,12.4c11.45,0,20.12,10.07,20.51,11C38.34,17.88,33.51,9.9,22.66,7.25,7.61,3.59,1.51,15.3.25,18.18Z" transform="translate(0)"/><path class="cls-9" d="M39,20.25S38.21,6.46,25.85,1.31C10.4-5.13,2,15,2,15S20.71-6,39,20.25Z" transform="translate(0)"/><path class="cls-10" d="M35.43,30.54c-1.25.15-21.77-3.2-33.59-9.08-.32-.16,4.4,6.82,13.45,9C27.69,33.52,35.43,30.54,35.43,30.54Z" transform="translate(0)"/><path class="cls-10" d="M40.42,23.38s3.69,5,3.28,6.34-5.31.28-5.31.28,2.7-1.41,2.67-2.29S40.42,23.38,40.42,23.38Z" transform="translate(0)"/><path class="cls-11" d="M.68,17.28S1.91,11,3.28,9.09,13.27,3.34,23,4.84,37.78,16.14,40.1,22.55c0,0-8.17-14.46-21.06-14.21S.68,17.28.68,17.28Z" transform="translate(0)"/><path class="cls-12" d="M13.41,16c.45.44-6.69,2.49-7.06,1.74S12.41,15,13.41,16Z" transform="translate(0)"/><path class="cls-12" d="M18.63,14.65c.44.14.53,1.44,0,1.32s-1.53-.18-1.53-.66S18,14.46,18.63,14.65Z" transform="translate(0)"/></g></g></g></svg>