<svg xmlns="http://www.w3.org/2000/svg" xmlns:xlink="http://www.w3.org/1999/xlink" viewBox="0 0 140.11 27.79"><defs><style>.cls-1{isolation:isolate;}.cls-2{fill:url(#Áåçûìÿííûé_ãðàäèåíò_300);}.cls-3{fill:url(#Áåçûìÿííûé_ãðàäèåíò_69);}.cls-4{fill:url(#Áåçûìÿííûé_ãðàäèåíò_209);}.cls-14,.cls-5,.cls-9{mix-blend-mode:multiply;}.cls-5{fill:url(#Áåçûìÿííûé_ãðàäèåíò_191);}.cls-6{fill:#dd4c6a;}.cls-7{fill:#dd6b7c;}.cls-8{fill:#fff;}.cls-9{fill:#d177b8;opacity:0.6;}.cls-10{fill:#4e1b3d;}.cls-11{fill:url(#Áåçûìÿííûé_ãðàäèåíò_300-2);}.cls-12{fill:url(#Áåçûìÿííûé_ãðàäèåíò_69-2);}.cls-13{fill:url(#Áåçûìÿííûé_ãðàäèåíò_209-2);}.cls-14{fill:url(#Áåçûìÿííûé_ãðàäèåíò_191-2);}</style><linearGradient id="Áåçûìÿííûé_ãðàäèåíò_300" x1="160.13" y1="43.87" x2="160.13" y2="18.06" gradientTransform="translate(-38.72 -29.01) rotate(4.88)" gradientUnits="userSpaceOnUse"><stop offset="0" stop-color="#eee2ff"/><stop offset="1" stop-color="#bdc9fb"/></linearGradient><linearGradient id="Áåçûìÿííûé_ãðàäèåíò_69" x1="116.54" y1="27.02" x2="116.54" y2="3.58" gradientUnits="userSpaceOnUse"><stop offset="0" stop-color="#471f4b"/><stop offset="1" stop-color="#310a39"/></linearGradient><linearGradient id="Áåçûìÿííûé_ãðàäèåíò_209" x1="116.54" y1="26.34" x2="116.54" y2="4.26" gradientUnits="userSpaceOnUse"><stop offset="0" stop-color="#57335b"/><stop offset="1" stop-color="#310a39"/></linearGradient><linearGradient id="Áåçûìÿííûé_ãðàäèåíò_191" x1="116.54" y1="22.46" x2="116.54" y2="8.14" gradientUnits="userSpaceOnUse"><stop offset="0" stop-color="#a79abd"/><stop offset="0.99" stop-color="#724a60"/></linearGradient><linearGradient id="Áåçûìÿííûé_ãðàäèåíò_300-2" x1="488.51" y1="15.83" x2="488.51" y2="-9.99" gradientTransform="matrix(-1, 0.09, 0.09, 1, 508.41, -29.01)" xlink:href="#Áåçûìÿííûé_ãðàäèåíò_300"/><linearGradient id="Áåçûìÿííûé_ãðàäèåíò_69-2" x1="446.12" y1="27.02" x2="446.12" y2="3.58" gradientTransform="matrix(-1, 0, 0, 1, 469.69, 0)" xlink:href="#Áåçûìÿííûé_ãðàäèåíò_69"/><linearGradient id="Áåçûìÿííûé_ãðàäèåíò_209-2" x1="446.12" y1="26.34" x2="446.12" y2="4.26" gradientTransform="matrix(-1, 0, 0, 1, 469.69, 0)" xlink:href="#Áåçûìÿííûé_ãðàäèåíò_209"/><linearGradient id="Áåçûìÿííûé_ãðàäèåíò_191-2" x1="446.12" y1="22.46" x2="446.12" y2="8.14" gradientTransform="matrix(-1, 0, 0, 1, 469.69, 0)" xlink:href="#Áåçûìÿííûé_ãðàäèåíò_191"/></defs><g class="cls-1"><g id="Layer_2" data-name="Layer 2"><g id="layer1"><path class="cls-2" d="M95.49,26.14c-2.4-.68,7.7-19.43,22.64-22.54,18.06-3.77,22.06,12.28,22,15.54S107,29.43,95.49,26.14Z"/><circle class="cls-3" cx="116.54" cy="15.3" r="11.72"/><circle class="cls-4" cx="116.54" cy="15.3" r="11.04"/><circle class="cls-5" cx="116.54" cy="15.3" r="7.16"/><path class="cls-6" d="M96.11,22.34S103.51,2.55,120,.21s19.52,15.31,19.52,15.31S135.6,2.83,120,3.65,96.11,22.34,96.11,22.34Z"/><path class="cls-7" d="M95.65,23.4l2.65,3.29s-3.34.32-3.68-.6S95.65,23.4,95.65,23.4Z"/><path class="cls-7" d="M100.51,27s12.91,1.95,24.06-.25S139.48,20,139.48,20A127.45,127.45,0,0,1,100.51,27Z"/><path class="cls-8" d="M124.79,13.07c-.71.63,2.57.78,5-.18,2.19-.87,3.25-2.28,3-2.53S127.58,10.59,124.79,13.07Z"/><path class="cls-8" d="M122.92,13.69c-.93-.31-2,.17-2.07.66s1.12,1.12,1.65.91S123.44,13.87,122.92,13.69Z"/><path class="cls-9" d="M95.65,23.4s10-13.31,22.95-15.78,19.19,4.86,19.19,4.86S136,3,119,4.26,95.65,23.4,95.65,23.4Z"/><path class="cls-10" d="M95.65,23.4S103.46,5.84,121,4.57c15.65-1.14,18.88,12.57,18.88,12.57s1.63-12-9.12-14.82C120.52-.37,102.94,5.07,95.65,23.4Z"/><path class="cls-11" d="M44.62,26.14C47,25.46,36.92,6.71,22,3.6,3.92-.17-.09,15.88,0,19.14S33.08,29.43,44.62,26.14Z"/><circle class="cls-12" cx="23.57" cy="15.3" r="11.72"/><circle class="cls-13" cx="23.57" cy="15.3" r="11.04"/><circle class="cls-14" cx="23.57" cy="15.3" r="7.16"/><path class="cls-6" d="M44,22.34S36.6,2.55,20.15.21.63,15.52.63,15.52,4.51,2.83,20.1,3.65,44,22.34,44,22.34Z"/><path class="cls-7" d="M44.46,23.4l-2.65,3.29s3.34.32,3.68-.6S44.46,23.4,44.46,23.4Z"/><path class="cls-7" d="M39.6,27S26.68,29,15.53,26.75.63,20,.63,20A127.45,127.45,0,0,0,39.6,27Z"/><path class="cls-8" d="M15.32,13.07c.71.63-2.58.78-5-.18-2.2-.87-3.25-2.28-3-2.53S12.52,10.59,15.32,13.07Z"/><path class="cls-8" d="M17.19,13.69c.93-.31,2,.17,2.06.66s-1.11,1.12-1.65.91S16.67,13.87,17.19,13.69Z"/><path class="cls-9" d="M44.46,23.4s-10-13.31-22.95-15.78-19.2,4.86-19.2,4.86S4.11,3,21.06,4.26,44.46,23.4,44.46,23.4Z"/><path class="cls-10" d="M44.46,23.4S36.65,5.84,19.11,4.57C3.46,3.43.23,17.14.23,17.14S-1.4,5.14,9.35,2.32C19.58-.37,37.17,5.07,44.46,23.4Z"/></g></g></g></svg>