<svg xmlns="http://www.w3.org/2000/svg" xmlns:xlink="http://www.w3.org/1999/xlink" viewBox="0 0 140.53 42.49"><defs><style>.cls-1{fill:none;}.cls-2{isolation:isolate;}.cls-11,.cls-14,.cls-15,.cls-21,.cls-3{mix-blend-mode:multiply;}.cls-15,.cls-3{opacity:0.4;}.cls-3{fill:url(#_285_2);}.cls-4{fill:url(#_56);}.cls-5{fill:#da6b7c;}.cls-6{fill:#302;}.cls-7{fill:url(#_300);}.cls-8{clip-path:url(#clip-path);}.cls-9{fill:url(#linear-gradient);}.cls-10{fill:url(#linear-gradient-2);}.cls-11{fill:url(#_191);}.cls-12{fill:#fff;}.cls-13,.cls-22{mix-blend-mode:color-dodge;opacity:0.2;}.cls-13{fill:url(#_300-2);}.cls-14{fill:#bc7eb7;opacity:0.6;}.cls-15{fill:url(#_285_2-2);}.cls-16{fill:url(#_56-2);}.cls-17{fill:url(#_300-3);}.cls-18{clip-path:url(#clip-path-2);}.cls-19{fill:url(#linear-gradient-3);}.cls-20{fill:url(#linear-gradient-4);}.cls-21{fill:url(#_191-2);}.cls-22{fill:url(#_300-4);}</style><linearGradient id="_285_2" x1="89.47" y1="16.02" x2="139.95" y2="16.02" gradientUnits="userSpaceOnUse"><stop offset="0" stop-color="#fff"/><stop offset="1" stop-color="#ce4c76"/></linearGradient><linearGradient id="_56" x1="89.47" y1="16.9" x2="139.95" y2="16.9" gradientUnits="userSpaceOnUse"><stop offset="0" stop-color="#ffa793"/><stop offset="0.43" stop-color="#f6a896"/><stop offset="0.52" stop-color="#f9a28f"/><stop offset="0.76" stop-color="#fd9783"/><stop offset="1" stop-color="#ff937f"/></linearGradient><linearGradient id="_300" x1="51.17" y1="178.97" x2="51.17" y2="146.59" gradientTransform="translate(104.98 -145.06) rotate(14.15)" gradientUnits="userSpaceOnUse"><stop offset="0" stop-color="#ebdfff"/><stop offset="1" stop-color="#bac6f8"/></linearGradient><clipPath id="clip-path"><path class="cls-1" d="M140,18.7C137.68,36.75,118.74,46.31,93.64,36c-1.06-.43-2.11-.89-3.19-1.4a2,2,0,0,1-1-2.53c.55-1.25,1.15-2.48,1.78-3.65C100.83,10.75,119.22,3.11,140,18.7Z"/></clipPath><linearGradient id="linear-gradient" x1="-240.91" y1="99.8" x2="-240.91" y2="66.64" gradientTransform="matrix(0.01, 1, -1, 0.01, 197.47, 265)" gradientUnits="userSpaceOnUse"><stop offset="0.21" stop-color="#5a365d"/><stop offset="1" stop-color="#5f1945"/></linearGradient><linearGradient id="linear-gradient-2" x1="107.13" y1="79.51" x2="107.13" y2="112.67" gradientTransform="translate(15.76 -81.64) rotate(5.68)" xlink:href="#linear-gradient"/><linearGradient id="_191" x1="-240.91" y1="93.03" x2="-240.91" y2="73.4" gradientTransform="translate(364.02 -18.85) rotate(9.25)" gradientUnits="userSpaceOnUse"><stop offset="0" stop-color="#a598bb"/><stop offset="0.99" stop-color="#724a60"/></linearGradient><linearGradient id="_300-2" x1="-254.02" y1="93.03" x2="-227.8" y2="93.03" gradientTransform="translate(364.02 -18.85) rotate(9.25)" xlink:href="#_300"/><linearGradient id="_285_2-2" x1="1426.62" y1="16.02" x2="1477.1" y2="16.02" gradientTransform="matrix(-1, 0, 0, 1, 1477.68, 0)" xlink:href="#_285_2"/><linearGradient id="_56-2" x1="1426.62" y1="16.9" x2="1477.1" y2="16.9" gradientTransform="matrix(-1, 0, 0, 1, 1477.68, 0)" xlink:href="#_56"/><linearGradient id="_300-3" x1="1347.74" y1="-147.82" x2="1347.74" y2="-180.19" gradientTransform="matrix(-0.97, 0.24, 0.24, 0.97, 1372.7, -145.06)" xlink:href="#_300"/><clipPath id="clip-path-2"><path class="cls-1" d="M.58,18.7C2.85,36.75,21.79,46.31,46.89,36c1.06-.43,2.11-.89,3.19-1.4a2,2,0,0,0,1-2.53c-.55-1.25-1.15-2.48-1.78-3.65C39.7,10.75,21.31,3.11.58,18.7Z"/></clipPath><linearGradient id="linear-gradient-3" x1="1078.87" y1="-115.09" x2="1078.87" y2="-148.24" gradientTransform="matrix(-1, -0.01, -0.01, 1, 1105.75, 162.43)" xlink:href="#linear-gradient"/><linearGradient id="linear-gradient-4" x1="1437.73" y1="-52.73" x2="1437.73" y2="-19.57" gradientTransform="matrix(-1, 0.1, 0.1, 1, 1461.92, -81.64)" xlink:href="#linear-gradient"/><linearGradient id="_191-2" x1="1078.87" y1="-121.85" x2="1078.87" y2="-141.48" gradientTransform="matrix(-0.99, 0.16, 0.16, 0.99, 1113.66, -18.85)" xlink:href="#_191"/><linearGradient id="_300-4" x1="1065.76" y1="-121.85" x2="1091.98" y2="-121.85" gradientTransform="matrix(-0.99, 0.16, 0.16, 0.99, 1113.66, -18.85)" xlink:href="#_300"/></defs><g class="cls-2"><g id="Layer_2" data-name="Layer 2"><g id="Layer_1-2" data-name="Layer 1"><path class="cls-3" d="M89.47,32s7.26-29,23.64-31.59C137.49-3.41,140,18.69,140,18.69Z"/><path class="cls-4" d="M89.47,32s7.26-27.2,23.64-29.79C137.49-1.61,140,18.69,140,18.69Z"/><path class="cls-5" d="M140,18.7c5,19.35-23.18,32.22-46.31,17.27Z"/><path class="cls-6" d="M140,18.7C136.58,43.07,111.39,46.47,93.64,36Z"/><path class="cls-6" d="M91.25,28.39C101.42,3.74,131.3.62,140,18.7Z"/><path class="cls-7" d="M136.16,29.22C129.08,40,113.24,44.05,93.64,36c-1.06-.43-2.11-.89-3.18-1.4a1.93,1.93,0,0,1-1-2.53c.56-1.25,1.16-2.48,1.78-3.65.16-.31.34-.61.51-.91,9.71-17,27.82-24.11,48.19-8.79A24.58,24.58,0,0,1,136.16,29.22Z"/><g class="cls-8"><ellipse class="cls-9" cx="112.87" cy="24.58" rx="16.58" ry="17.11" transform="translate(69.86 131.78) rotate(-80.42)"/><path class="cls-10" d="M115.53,8.21A16.85,16.85,0,0,0,96,21.82a17.12,17.12,0,0,0,33.78,5.51A16.86,16.86,0,0,0,115.53,8.21ZM110.36,40A15.91,15.91,0,0,1,96.93,22a16.15,16.15,0,0,1,31.87,5.19A15.9,15.9,0,0,1,110.36,40Z"/><path class="cls-11" d="M122.87,26.21a10.14,10.14,0,0,1-20-3.26,10.14,10.14,0,0,1,20,3.26Z"/><path class="cls-12" d="M120,22.92c.48-1.07,1.77-3.11,3-3,2,.2,4,6,2.21,7.42-1.33,1.07-5-.06-5.65-2A3.39,3.39,0,0,1,120,22.92Z"/><path class="cls-13" d="M99.08,28.19c.73-.31,4.89,6.17,12.31,7.21s13.06-4.11,13.54-3.71-5.3,8.86-14.72,7.2C101.39,37.34,98.28,28.53,99.08,28.19Z"/><path class="cls-12" d="M123.52,28.59A1.13,1.13,0,0,0,122.7,30a1.07,1.07,0,0,0,.73.74,1.11,1.11,0,1,0,.09-2.13Z"/></g><path class="cls-14" d="M136.16,29.22A14.72,14.72,0,0,0,136.7,23c-20.34-8-35.4-7-44.94,4.47,9.71-17,27.82-24.11,48.19-8.79A24.58,24.58,0,0,1,136.16,29.22Z"/><path class="cls-5" d="M93.64,36c-1.06-.43-2.11-.89-3.19-1.4a2,2,0,0,1-1-2.53c.55-1.25,1.15-2.48,1.78-3.65C90.17,31.82,90.72,34.47,93.64,36Z"/><path class="cls-15" d="M51.06,32S43.8,3.05,27.42.45C3-3.41.58,18.69.58,18.69Z"/><path class="cls-16" d="M51.06,32S43.8,4.84,27.42,2.25C3-1.61.58,18.69.58,18.69Z"/><path class="cls-5" d="M.58,18.7C-4.4,38.05,23.76,50.92,46.89,36Z"/><path class="cls-6" d="M.58,18.7C4,43.07,29.14,46.47,46.89,36Z"/><path class="cls-6" d="M49.28,28.39C39.11,3.74,9.23.62.58,18.7Z"/><path class="cls-17" d="M4.37,29.22C11.45,40,27.29,44.05,46.89,36c1.06-.43,2.11-.89,3.18-1.4a1.93,1.93,0,0,0,1-2.53c-.56-1.25-1.16-2.48-1.78-3.65-.16-.31-.34-.61-.51-.91C39.06,10.49,21,3.37.58,18.69A24.58,24.58,0,0,0,4.37,29.22Z"/><g class="cls-18"><ellipse class="cls-19" cx="27.66" cy="24.58" rx="17.11" ry="16.58" transform="translate(-3.7 4.94) rotate(-9.58)"/><path class="cls-20" d="M10.77,27.33A16.85,16.85,0,0,0,30.32,40.94,16.85,16.85,0,0,0,44.55,21.82,16.85,16.85,0,0,0,25,8.21,16.86,16.86,0,0,0,10.77,27.33Zm1-.16a15.91,15.91,0,0,1,13.42-18A15.9,15.9,0,0,1,43.6,22,15.92,15.92,0,0,1,30.17,40,15.9,15.9,0,0,1,11.73,27.17Z"/><path class="cls-21" d="M17.66,26.21a10,10,0,0,0,11.57,8A10,10,0,0,0,37.66,23a10,10,0,0,0-11.58-8.06A10,10,0,0,0,17.66,26.21Z"/><path class="cls-12" d="M34.86,22.92c.49-1.07,1.77-3.11,3-3,1.95.2,4,6,2.21,7.42-1.33,1.07-5-.06-5.65-2A3.39,3.39,0,0,1,34.86,22.92Z"/><path class="cls-22" d="M41.45,28.19c-.73-.31-4.89,6.17-12.31,7.21S16.08,31.29,15.6,31.69s5.3,8.86,14.72,7.2C39.14,37.34,42.25,28.53,41.45,28.19Z"/><path class="cls-12" d="M38.35,28.59A1.13,1.13,0,0,0,37.53,30a1.07,1.07,0,0,0,.73.74,1.11,1.11,0,1,0,.09-2.13Z"/></g><path class="cls-14" d="M4.37,29.22A14.72,14.72,0,0,1,3.83,23c20.34-8,35.4-7,44.94,4.47C39.06,10.49,21,3.37.58,18.69A24.58,24.58,0,0,0,4.37,29.22Z"/><path class="cls-5" d="M46.89,36c1.06-.43,2.11-.89,3.19-1.4a2,2,0,0,0,1-2.53c-.55-1.25-1.15-2.48-1.78-3.65C50.35,31.82,49.81,34.47,46.89,36Z"/></g></g></g></svg>