<svg xmlns="http://www.w3.org/2000/svg" xmlns:xlink="http://www.w3.org/1999/xlink" viewBox="0 0 136.99 41.66"><defs><style>.cls-1{fill:none;}.cls-2{isolation:isolate;}.cls-3{fill:url(#_2);}.cls-4{clip-path:url(#clip-path);}.cls-5{fill:url(#_19);}.cls-6{fill:url(#_893);}.cls-18,.cls-7,.cls-8{mix-blend-mode:multiply;}.cls-7{fill:url(#_43);}.cls-8{fill:#cf77b6;opacity:0.6;}.cls-9{fill:#b11d51;}.cls-10{fill:#870a2c;}.cls-11{fill:#2e031e;}.cls-12{fill:url(#_2-2);}.cls-13{fill:url(#_2-3);}.cls-14{fill:url(#_2-4);}.cls-15{clip-path:url(#clip-path-2);}.cls-16{fill:url(#_19-2);}.cls-17{fill:url(#_893-2);}.cls-18{fill:url(#_43-2);}.cls-19{fill:url(#_2-5);}.cls-20{fill:url(#_2-6);}</style><linearGradient id="_2" x1="747.33" y1="-827.76" x2="747.33" y2="-864.11" gradientTransform="translate(-847.03 742.53) rotate(9.01)" gradientUnits="userSpaceOnUse"><stop offset="0" stop-color="#ece0ff"/><stop offset="1" stop-color="#bbc7f9"/></linearGradient><clipPath id="clip-path" transform="translate(0)"><path id="SVGID" class="cls-1" d="M.62,18.53C-2,22.15,4,39.33,14.47,41s31.38-5.15,31.38-5.15S47.62,16.46,37.3,9.16,5.36,12,.62,18.53Z"/></clipPath><linearGradient id="_19" x1="733.72" y1="-849.93" x2="764.53" y2="-849.93" gradientTransform="translate(-847.04 742.53) rotate(9.01)" gradientUnits="userSpaceOnUse"><stop offset="0" stop-color="#781813"/><stop offset="1" stop-color="#45000a"/></linearGradient><linearGradient id="_893" x1="25.98" y1="11.17" x2="25.98" y2="31.92" gradientTransform="translate(12.18 -9.62) rotate(27.2)" gradientUnits="userSpaceOnUse"><stop offset="0" stop-color="#70310c"/><stop offset="1" stop-color="#5e191c"/></linearGradient><linearGradient id="_43" x1="749.13" y1="-843.74" x2="749.13" y2="-857.2" gradientTransform="translate(-847.04 742.53) rotate(9.01)" gradientUnits="userSpaceOnUse"><stop offset="0" stop-color="#604300"/><stop offset="1" stop-color="#471400"/></linearGradient><linearGradient id="_2-2" x1="1938.07" y1="-3718.26" x2="1938.07" y2="-3721.38" gradientTransform="matrix(0.83, 0.56, -0.56, 0.83, -3671.22, 2028.54)" xlink:href="#_2"/><linearGradient id="_2-3" x1="744" y1="-844.07" x2="744" y2="-846.01" xlink:href="#_2"/><linearGradient id="_2-4" x1="-9532.33" y1="802.29" x2="-9532.33" y2="765.94" gradientTransform="matrix(-0.99, 0.16, 0.16, 0.99, -9424.46, 742.53)" xlink:href="#_2"/><clipPath id="clip-path-2" transform="translate(0)"><path id="SVGID-2" data-name="SVGID" class="cls-1" d="M136.38,18.74C139,22.36,133,39.53,122.53,41.19S91.15,36,91.15,36,89.37,16.67,99.7,9.36,131.64,12.2,136.38,18.74Z"/></clipPath><linearGradient id="_19-2" x1="-9545.94" y1="780.12" x2="-9515.13" y2="780.12" gradientTransform="matrix(-1, 0.02, 0.02, 1, -9431.17, -606.49)" xlink:href="#_19"/><linearGradient id="_893-2" x1="111.01" y1="10.42" x2="111.01" y2="34.21" gradientTransform="translate(18.68 -44.4) rotate(24.63)" xlink:href="#_893"/><linearGradient id="_43-2" x1="-9530.53" y1="786.31" x2="-9530.53" y2="772.85" gradientTransform="matrix(-0.99, 0.16, 0.16, 0.99, -9424.46, 742.53)" xlink:href="#_43"/><linearGradient id="_2-5" x1="-6699.36" y1="2090.24" x2="-6699.36" y2="2087.12" gradientTransform="matrix(-0.83, 0.56, 0.56, 0.83, -6600.28, 2028.54)" xlink:href="#_2"/><linearGradient id="_2-6" x1="-9535.67" y1="785.98" x2="-9535.67" y2="784.05" gradientTransform="matrix(-0.99, 0.16, 0.16, 0.99, -9424.46, 742.53)" xlink:href="#_2"/></defs><g class="cls-2"><g id="Layer_2" data-name="Layer 2"><g id="Avatar_face" data-name="Avatar face"><path class="cls-3" d="M45.85,35.84S25,42.65,14.47,41C5.67,39.59,0,27.27,0,21.2a4.51,4.51,0,0,1,.62-2.67C5.36,12,27,1.85,37.3,9.16c5.18,3.66,7.31,10.36,8.15,16.13A49.88,49.88,0,0,1,45.85,35.84Z" transform="translate(0)"/><g class="cls-4"><circle class="cls-5" cx="25.98" cy="20.37" r="15.41"/><circle class="cls-6" cx="25.98" cy="20.37" r="14.18" transform="translate(-6.44 14.13) rotate(-27.2)"/><circle class="cls-7" cx="25.98" cy="20.37" r="8.69"/></g><path class="cls-8" d="M45.45,25.29c-8-5.5-22.51-8.21-45.45-4.09a4.51,4.51,0,0,1,.62-2.67C5.36,12,27,1.85,37.3,9.16,42.48,12.82,44.61,19.52,45.45,25.29Z" transform="translate(0)"/><path class="cls-9" d="M21.09.32C9,2,1.31,17.68,1.31,17.68S13.88,5.44,29,10C41.9,13.8,44.87,22.14,44.86,22.12S45.16-3.09,21.09.32Z" transform="translate(0)"/><path class="cls-10" d="M1.74,28.56C7.32,34.67,12.16,41,24.08,40.85A22.38,22.38,0,0,1,10.4,39.79C3.27,36.81,1.74,28.56,1.74,28.56Z" transform="translate(0)"/><path class="cls-10" d="M45.88,29.65s3.11,3.69,1.46,6.14-8.54,2.08-8.54,2.08,5.25-1.46,6.27-3S45.88,29.65,45.88,29.65Z" transform="translate(0)"/><path class="cls-11" d="M.62,18.53S3.79,8.73,23.59,7c15.32-1.35,21.2,8.57,22,10.37s-.76,4.77-.76,4.77S37.12,10.41,22.8,10.48.62,18.53.62,18.53Z" transform="translate(0)"/><path class="cls-12" d="M8.67,22.2s1-1,8,1.88c.23.09-.06.48-.31.45C14.61,24.31,8.68,23.44,8.67,22.2Z" transform="translate(0)"/><path class="cls-13" d="M19.51,23.68c-1,.86-.17,1.62.92,1.74.81.1.93-1.17.61-1.5S20.15,23.13,19.51,23.68Z" transform="translate(0)"/><path class="cls-14" d="M91.15,36s20.9,6.82,31.38,5.15C131.32,39.8,137,27.47,137,21.41a4.59,4.59,0,0,0-.61-2.67C131.64,12.2,110,2.05,99.7,9.36,94.52,13,92.38,19.73,91.54,25.5A49.35,49.35,0,0,0,91.15,36Z" transform="translate(0)"/><g class="cls-15"><circle class="cls-16" cx="111.01" cy="20.57" r="15.41" transform="translate(-1.79 15.83) rotate(-8.09)"/><circle class="cls-17" cx="111.01" cy="20.57" r="14.18" transform="translate(1.53 48.15) rotate(-24.63)"/><path class="cls-18" d="M102.43,21.94a8.69,8.69,0,1,0,7.22-10A8.69,8.69,0,0,0,102.43,21.94Z" transform="translate(0)"/></g><path class="cls-8" d="M91.54,25.5c8-5.51,22.51-8.22,45.45-4.09a4.59,4.59,0,0,0-.61-2.67C131.64,12.2,110,2.05,99.7,9.36,94.52,13,92.38,19.73,91.54,25.5Z" transform="translate(0)"/><path class="cls-9" d="M115.9.52C128,2.23,135.68,17.89,135.68,17.89S123.12,5.65,108,10.15C95.09,14,92.13,22.34,92.13,22.33S91.84-2.88,115.9.52Z" transform="translate(0)"/><path class="cls-10" d="M135.25,28.76c-5.57,6.11-10.42,12.44-22.34,12.29A22.33,22.33,0,0,0,126.6,40C133.72,37,135.25,28.76,135.25,28.76Z" transform="translate(0)"/><path class="cls-10" d="M91.11,29.86S88,33.55,89.66,36s8.53,2.09,8.53,2.09S92.94,36.62,91.93,35,91.11,29.86,91.11,29.86Z" transform="translate(0)"/><path class="cls-11" d="M136.38,18.74s-3.18-9.81-23-11.55c-15.31-1.35-21.2,8.57-22,10.36s.76,4.78.76,4.78,7.75-11.71,22.06-11.65S136.38,18.74,136.38,18.74Z" transform="translate(0)"/><path class="cls-19" d="M128.33,22.41s-1-1-8,1.87c-.23.1.06.49.31.46C122.38,24.51,128.31,23.65,128.33,22.41Z" transform="translate(0)"/><path class="cls-20" d="M117.49,23.88c1,.87.16,1.62-.93,1.75-.8.09-.93-1.17-.61-1.5A1.06,1.06,0,0,1,117.49,23.88Z" transform="translate(0)"/></g></g></g></svg>