<svg xmlns="http://www.w3.org/2000/svg" xmlns:xlink="http://www.w3.org/1999/xlink" viewBox="0 0 138.75 45.24"><defs><style>.cls-1{fill:none;}.cls-2{isolation:isolate;}.cls-3{fill:url(#_2);}.cls-4{clip-path:url(#clip-path);}.cls-5{fill:url(#_41);}.cls-6{fill:url(#_40);}.cls-7{fill:#98424d;}.cls-7,.cls-9{mix-blend-mode:multiply;}.cls-8{fill:#b11d51;}.cls-9{fill:#cf77b6;opacity:0.6;}.cls-10{fill:#2e031e;}.cls-11{fill:#870a2c;}.cls-12{fill:#fff;}.cls-13{fill:url(#_2-2);}.cls-14{clip-path:url(#clip-path-2);}.cls-15{fill:url(#_41-2);}.cls-16{fill:url(#_40-2);}</style><linearGradient id="_2" x1="-10723.84" y1="0.57" x2="-10723.84" y2="41.49" gradientTransform="matrix(-1, 0, 0, 1, -10608.77, 0)" gradientUnits="userSpaceOnUse"><stop offset="0" stop-color="#ece0ff"/><stop offset="1" stop-color="#bbc7f9"/></linearGradient><clipPath id="clip-path"><path id="SVGID" class="cls-1" d="M91.39,37.25a58.59,58.59,0,0,0,25.37,6.54c20.26.49,21.23-13.91,22-22.93S125.55-.95,110.18,4,91.64,27.25,91.39,37.25Z"/></clipPath><linearGradient id="_41" x1="-10724.2" y1="37.17" x2="-10724.2" y2="7.75" gradientTransform="matrix(-0.71, -0.71, -0.71, 0.71, -7453.01, -7577.06)" gradientUnits="userSpaceOnUse"><stop offset="0" stop-color="#600825"/><stop offset="1" stop-color="#4a0013"/></linearGradient><linearGradient id="_40" x1="-10724.2" y1="5.9" x2="-10724.2" y2="35.9" gradientTransform="matrix(-0.39, -0.92, -0.92, 0.39, -4006.7, -9879.55)" gradientUnits="userSpaceOnUse"><stop offset="0" stop-color="#701c35"/><stop offset="1" stop-color="#4a0013"/></linearGradient><linearGradient id="_2-2" x1="-857.61" y1="1.12" x2="-857.61" y2="42.04" gradientTransform="translate(881.29)" xlink:href="#_2"/><clipPath id="clip-path-2"><path id="SVGID-2" data-name="SVGID" class="cls-1" d="M47.35,37.8A58.53,58.53,0,0,1,22,44.34C1.72,44.82.76,30.43,0,21.4S13.2-.4,28.57,4.53,47.11,27.8,47.35,37.8Z"/></clipPath><linearGradient id="_41-2" x1="-857.97" y1="37.71" x2="-857.97" y2="8.3" gradientTransform="translate(272.61 842.58) rotate(74.54)" xlink:href="#_41"/><linearGradient id="_40-2" x1="-857.97" y1="6.45" x2="-857.97" y2="36.45" gradientTransform="translate(369.91 806.49) rotate(67.61)" xlink:href="#_40"/></defs><g class="cls-2"><g id="Layer_2" data-name="Layer 2"><g id="Avatar_face" data-name="Avatar face"><path class="cls-3" d="M91.39,37.25a58.43,58.43,0,0,0,25.37,6.54c20.38.49,21.23-13.91,22-22.93S125.55-.95,110.18,4,91.64,27.25,91.39,37.25Z"/><g class="cls-4"><circle class="cls-5" cx="115.43" cy="20.8" r="16.11" transform="translate(19.1 87.72) rotate(-45)"/><circle class="cls-6" cx="115.43" cy="20.8" r="14.82" transform="translate(51.67 119.25) rotate(-67.28)"/><circle class="cls-7" cx="115.43" cy="20.8" r="9.23" transform="matrix(0.38, -0.92, 0.92, 0.38, 51.81, 119.34)"/></g><path class="cls-8" d="M136.34,13.11c.25.15-.21-13.11-18-13.11C101.65,0,97,15.74,97,15.74S111.53-1.64,136.34,13.11Z"/><path class="cls-9" d="M92.12,29s7.45-12.28,21.17-14.93S138.74,20,138.74,20s0-15.21-22-16S92.12,29,92.12,29Z"/><path class="cls-10" d="M137.94,16.17s.06-5.59-1.58-7.28C126-1.72,95.18-1.68,92.12,29c0,0,6.71-27.06,33.33-18.92C134,12.66,137.94,16.17,137.94,16.17Z"/><path class="cls-11" d="M91.79,31.51a10.37,10.37,0,0,0-1.63,5.8c0,1.42,3.36,2.62,6.82,2.49,0,0-4.29-1.93-4.73-2.91C91.39,35,91.79,31.51,91.79,31.51Z"/><path class="cls-12" d="M133.92,22s-2.44-2.19-9.27,0C124.65,22,127.7,24.05,133.92,22Z"/><path class="cls-12" d="M121.52,21s1.14,1.72,0,1.89-2.68-.61-2.64-.94S121.17,20.32,121.52,21Z"/><path class="cls-11" d="M100.48,41s18.59,3.88,29.39,0c0,0-5.53,4.78-15.9,3.44S100.48,41,100.48,41Z"/><path class="cls-13" d="M47.35,37.8A58.53,58.53,0,0,1,22,44.34C1.6,44.82.76,30.43,0,21.4S13.2-.4,28.57,4.53,47.11,27.8,47.35,37.8Z"/><g class="cls-14"><circle class="cls-15" cx="23.32" cy="21.35" r="16.11" transform="translate(-3.48 38.13) rotate(-74.54)"/><circle class="cls-16" cx="23.32" cy="21.35" r="14.82" transform="translate(-5.31 34.77) rotate(-67.61)"/><path class="cls-7" d="M23.32,30.58a9.23,9.23,0,1,1,9.23-9.23A9.24,9.24,0,0,1,23.32,30.58Z"/></g><path class="cls-8" d="M2.4,13.66C2.16,13.81,2.61.55,20.45.55,37.1.55,41.76,16.28,41.76,16.28S27.22-1.09,2.4,13.66Z"/><path class="cls-9" d="M46.63,29.52S39.18,17.24,25.46,14.6,0,20.54,0,20.54s0-15.21,22-16S46.63,29.52,46.63,29.52Z"/><path class="cls-10" d="M.81,16.71S.74,11.13,2.39,9.44C12.72-1.17,43.57-1.13,46.63,29.52c0,0-6.72-27-33.34-18.91C4.8,13.21.81,16.71.81,16.71Z"/><path class="cls-11" d="M47,32.06a10.37,10.37,0,0,1,1.63,5.8c0,1.42-3.36,2.61-6.83,2.48,0,0,4.3-1.92,4.74-2.9C47.35,35.52,47,32.06,47,32.06Z"/><path class="cls-12" d="M4.83,22.52s2.44-2.2,9.27,0C14.1,22.52,11.05,24.59,4.83,22.52Z"/><path class="cls-12" d="M17.23,21.54s-1.14,1.73,0,1.9,2.67-.61,2.64-1S17.58,20.87,17.23,21.54Z"/><path class="cls-11" d="M38.27,41.57s-18.59,3.87-29.4,0c0,0,5.54,4.78,15.91,3.43S38.27,41.57,38.27,41.57Z"/></g></g></g></svg>