<svg xmlns="http://www.w3.org/2000/svg" xmlns:xlink="http://www.w3.org/1999/xlink" viewBox="0 0 146.32 50.92"><defs><style>.cls-1{fill:none;}.cls-2{isolation:isolate;}.cls-3{fill:#ce77b5;opacity:0.4;}.cls-11,.cls-15,.cls-22,.cls-3{mix-blend-mode:multiply;}.cls-4{fill:#ffc4b0;}.cls-5{fill:url(#_56);}.cls-6{fill:#da6b7c;}.cls-7{fill:url(#_300);}.cls-8{clip-path:url(#clip-path);}.cls-9{fill:url(#_105);}.cls-10{fill:url(#_105-2);}.cls-11{fill:url(#_191);}.cls-12{fill:#fff;}.cls-13,.cls-16,.cls-23,.cls-24{mix-blend-mode:color-dodge;}.cls-13,.cls-23{opacity:0.2;}.cls-13{fill:url(#_300-2);}.cls-14{fill:#401331;}.cls-15{fill:#bc7eb7;opacity:0.6;}.cls-16,.cls-24{opacity:0.3;}.cls-16{fill:url(#_300-3);}.cls-17{fill:url(#_56-2);}.cls-18{fill:url(#_300-4);}.cls-19{clip-path:url(#clip-path-2);}.cls-20{fill:url(#_105-3);}.cls-21{fill:url(#_105-4);}.cls-22{fill:url(#_191-2);}.cls-23{fill:url(#_300-5);}.cls-24{fill:url(#_300-6);}</style><linearGradient id="_56" x1="93.02" y1="22.27" x2="146.02" y2="22.27" gradientUnits="userSpaceOnUse"><stop offset="0" stop-color="#ffa793"/><stop offset="0.43" stop-color="#f6a896"/><stop offset="0.52" stop-color="#f9a28f"/><stop offset="0.76" stop-color="#fd9783"/><stop offset="1" stop-color="#ff937f"/></linearGradient><linearGradient id="_300" x1="118.9" y1="49.04" x2="118.9" y2="9.93" gradientUnits="userSpaceOnUse"><stop offset="0" stop-color="#ebdfff"/><stop offset="1" stop-color="#bac6f8"/></linearGradient><clipPath id="clip-path"><path class="cls-1" d="M146,23c0,7.07-2,12.68-5.46,16.88h0a15.93,15.93,0,0,1-1.1,1.22c-8.39,8.75-24,10.26-41.75,4.61Q95.48,45,93.2,44.12a2.19,2.19,0,0,1-1.3-2.71c.49-1.58,1-3.09,1.6-4.55C105.39,6.15,129.7,2,146,23Z"/></clipPath><linearGradient id="_105" x1="1421.28" y1="45.2" x2="1421.28" y2="11.4" gradientTransform="matrix(-0.98, -0.22, -0.22, 0.98, 1509.8, 316.5)" gradientUnits="userSpaceOnUse"><stop offset="0" stop-color="#4995fc"/><stop offset="0.03" stop-color="#428aea"/><stop offset="0.09" stop-color="#3371c2"/><stop offset="0.16" stop-color="#265b9f"/><stop offset="0.23" stop-color="#1b4881"/><stop offset="0.32" stop-color="#123969"/><stop offset="0.41" stop-color="#0b2d57"/><stop offset="0.52" stop-color="#06254a"/><stop offset="0.66" stop-color="#032042"/><stop offset="0.96" stop-color="#021f40"/><stop offset="1" stop-color="#152c39"/></linearGradient><linearGradient id="_105-2" x1="1421.28" y1="11.4" x2="1421.28" y2="45.2" gradientTransform="matrix(-1, 0, 0, 1, 1539.04, 0)" xlink:href="#_105"/><linearGradient id="_191" x1="1421.28" y1="38.3" x2="1421.28" y2="18.29" gradientTransform="matrix(-1, 0, 0, 1, 1539.04, 0)" gradientUnits="userSpaceOnUse"><stop offset="0" stop-color="#a598bb"/><stop offset="0.99" stop-color="#724a60"/></linearGradient><linearGradient id="_300-2" x1="1408.33" y1="38.3" x2="1434.22" y2="38.3" gradientTransform="matrix(-1, 0, 0, 1, 1539.04, 0)" xlink:href="#_300"/><linearGradient id="_300-3" x1="111" y1="38.62" x2="140.39" y2="38.62" xlink:href="#_300"/><linearGradient id="_56-2" x1="1445.11" y1="22.27" x2="1498.11" y2="22.27" gradientTransform="matrix(-1, 0, 0, 1, 1498.41, 0)" xlink:href="#_56"/><linearGradient id="_300-4" x1="1470.99" y1="49.04" x2="1470.99" y2="9.93" gradientTransform="matrix(-1, 0, 0, 1, 1498.41, 0)" xlink:href="#_300"/><clipPath id="clip-path-2"><path class="cls-1" d="M.31,23c0,7.07,2,12.68,5.45,16.88h0a15.93,15.93,0,0,0,1.1,1.22c8.39,8.75,24,10.26,41.75,4.61,1.5-.47,3-1,4.52-1.58a2.19,2.19,0,0,0,1.3-2.71c-.5-1.58-1-3.09-1.61-4.55C40.94,6.15,16.62,2,.31,23Z"/></clipPath><linearGradient id="_105-3" x1="69.19" y1="46.06" x2="69.19" y2="10.53" gradientTransform="translate(40.34 -45.52) rotate(76.82)" xlink:href="#_105"/><linearGradient id="_105-4" x1="69.19" y1="10.53" x2="69.19" y2="46.06" gradientTransform="translate(-40.63)" xlink:href="#_105"/><linearGradient id="_191-2" x1="69.19" y1="38.81" x2="69.19" y2="17.78" gradientTransform="translate(41.16 -45.38) rotate(77.46)" xlink:href="#_191"/><linearGradient id="_300-5" x1="55.58" y1="38.81" x2="82.8" y2="38.81" gradientTransform="translate(-40.63)" xlink:href="#_300"/><linearGradient id="_300-6" x1="1463.1" y1="38.62" x2="1492.48" y2="38.62" gradientTransform="matrix(-1, 0, 0, 1, 1498.41, 0)" xlink:href="#_300"/></defs><g class="cls-2"><g id="Layer_2" data-name="Layer 2"><g id="Layer_1-2" data-name="Layer 1"><path class="cls-3" d="M93,42.74C99.1-4.87,146.21-14.52,146,23Z"/><path class="cls-4" d="M100.36,20.45S89.41,40,90.18,43.65c.51,2.44,20.46,5.71,20.46,5.71Z"/><path class="cls-5" d="M93,42.74C99.2-2.2,142.77-12.18,146,23Z"/><path class="cls-6" d="M104.29,47.49c24,8.27,44.79,2.15,41.73-24.51C140.91,41.39,127.19,49.79,104.29,47.49Z"/><path class="cls-7" d="M146,23c0,7.07-2,12.68-5.46,16.88h0a15.93,15.93,0,0,1-1.1,1.22c-8.39,8.75-24,10.26-41.75,4.61Q95.48,45,93.2,44.12a2.19,2.19,0,0,1-1.3-2.71c.49-1.58,1-3.09,1.6-4.55C105.39,6.15,129.7,2,146,23Z"/><path class="cls-6" d="M97.72,45.7c-1.49-.48-3-1-4.51-1.58A2.21,2.21,0,0,1,91.9,41.4c.5-1.57,1-3.09,1.61-4.54C92.7,41,93.83,44,97.72,45.7Z"/><g class="cls-8"><circle class="cls-9" cx="117.76" cy="28.3" r="16.9" transform="translate(-3.34 26.87) rotate(-12.84)"/><path class="cls-10" d="M100.86,28.3a16.9,16.9,0,1,0,16.9-16.9A16.9,16.9,0,0,0,100.86,28.3Zm1,0a15.95,15.95,0,1,1,15.94,15.94A15.94,15.94,0,0,1,101.82,28.3Z"/><circle class="cls-11" cx="117.76" cy="28.3" r="10.01"/><path class="cls-12" d="M130.62,25.64c-.3-1.16-1.24-3.42-2.44-3.5-1.93-.11-4.83,5.37-3.33,7.11,1.12,1.29,4.92.77,5.83-1.11A3.65,3.65,0,0,0,130.62,25.64Z"/><path class="cls-13" d="M130.63,34.19c-.66-.43-5.74,5.41-13.14,5.24s-12.08-6.27-12.62-6,3.77,9.78,13.22,9.66C126.93,43,131.36,34.67,130.63,34.19Z"/><path class="cls-12" d="M128.72,30.66a1.17,1.17,0,0,0-.58,1.54,1.08,1.08,0,0,0,.83.62,1.19,1.19,0,0,0,1.25-1.21A1.16,1.16,0,0,0,128.72,30.66Z"/></g><path class="cls-14" d="M140.57,39.85c2.53-5.2,3.76-10.09,2.39-14.36-13.76-21-40.22-12.31-49.45,11.37C105.39,6.15,129.71,2,146,23,146,30.05,144,35.66,140.57,39.85Z"/><path class="cls-15" d="M146,23c0,7.07-2,12.68-5.46,16.88h0a15.93,15.93,0,0,1-1.1,1.22,30.11,30.11,0,0,0,2.25-14.35c-10.5-13.16-37-13.23-48.21,10.12C105.39,6.15,129.7,2,146,23Z"/><path class="cls-16" d="M138.92,29.26c-1.79-1.07-5.93,7-17.41,12.71-6.57,3.28-10.6,3.34-10.5,4.23.18,1.68,17.35,4.42,25.6-3.37C141.93,37.82,140.58,30.25,138.92,29.26Z"/><path class="cls-3" d="M53.3,42.74C47.23-4.87.11-14.52.3,23Z"/><path class="cls-4" d="M46,20.45S56.91,40,56.15,43.65c-.52,2.44-20.47,5.71-20.47,5.71Z"/><path class="cls-17" d="M53.3,42.74C47.12-2.2,3.55-12.18.3,23Z"/><path class="cls-6" d="M42,47.49C18,55.76-2.76,49.64.3,23,5.42,41.39,19.13,49.79,42,47.49Z"/><path class="cls-18" d="M.31,23c0,7.07,2,12.68,5.45,16.88h0a15.93,15.93,0,0,0,1.1,1.22c8.39,8.75,24,10.26,41.75,4.61,1.5-.47,3-1,4.52-1.58a2.19,2.19,0,0,0,1.3-2.71c-.5-1.58-1-3.09-1.61-4.55C40.94,6.15,16.62,2,.31,23Z"/><path class="cls-6" d="M48.6,45.7c1.49-.48,3-1,4.51-1.58a2.19,2.19,0,0,0,1.31-2.72c-.5-1.57-1-3.09-1.6-4.54C53.63,41,52.5,44,48.6,45.7Z"/><g class="cls-19"><circle class="cls-20" cx="28.56" cy="28.3" r="17.76" transform="translate(-5.5 49.65) rotate(-76.82)"/><path class="cls-21" d="M28.56,10.53A17.77,17.77,0,1,0,46.32,28.3,17.76,17.76,0,0,0,28.56,10.53Zm0,34.52A16.76,16.76,0,1,1,45.31,28.3,16.75,16.75,0,0,1,28.56,45.05Z"/><circle class="cls-22" cx="28.56" cy="28.3" r="10.52" transform="translate(-5.26 50.03) rotate(-77.46)"/><path class="cls-12" d="M41.82,25.5c-.32-1.22-1.3-3.6-2.57-3.67-2-.12-5.07,5.64-3.5,7.46,1.18,1.37,5.18.81,6.13-1.16A3.78,3.78,0,0,0,41.82,25.5Z"/><path class="cls-23" d="M15,34.49c.7-.45,6,5.68,13.82,5.5s12.69-6.58,13.26-6.25S38.15,44,28.22,43.9C18.92,43.78,14.27,35,15,34.49Z"/><path class="cls-12" d="M39.83,30.78a1.21,1.21,0,0,0-.61,1.61,1.09,1.09,0,0,0,.87.66,1.24,1.24,0,0,0,1.31-1.27A1.22,1.22,0,0,0,39.83,30.78Z"/></g><path class="cls-14" d="M5.76,39.85C3.22,34.65,2,29.76,3.36,25.49c13.76-21,40.22-12.31,49.46,11.37C40.93,6.15,16.62,2,.3,23,.34,30.05,2.31,35.66,5.76,39.85Z"/><path class="cls-15" d="M.31,23c0,7.07,2,12.68,5.45,16.88h0a15.93,15.93,0,0,0,1.1,1.22A30.11,30.11,0,0,1,4.61,26.74c10.5-13.16,37-13.23,48.21,10.12C40.94,6.15,16.62,2,.31,23Z"/><path class="cls-24" d="M7.4,29.26c1.79-1.07,5.93,7,17.41,12.71,6.57,3.28,10.61,3.34,10.51,4.23C35.13,47.88,18,50.62,9.71,42.83,4.4,37.82,5.75,30.25,7.4,29.26Z"/></g></g></g></svg>