<svg xmlns="http://www.w3.org/2000/svg" xmlns:xlink="http://www.w3.org/1999/xlink" viewBox="0 0 135.89 34.58"><defs><style>.cls-1{fill:none;}.cls-2{isolation:isolate;}.cls-3{fill:url(#_2);}.cls-4{clip-path:url(#clip-path);}.cls-5{fill:url(#_43);}.cls-6{fill:url(#_44);}.cls-17,.cls-7,.cls-8{mix-blend-mode:multiply;}.cls-7{fill:url(#_43-2);}.cls-8{fill:#cf77b6;opacity:0.6;}.cls-9{fill:#b11d51;}.cls-10{fill:#870a2c;}.cls-11{fill:#2e031e;}.cls-12{fill:#fff;}.cls-13{fill:url(#_2-2);}.cls-14{clip-path:url(#clip-path-2);}.cls-15{fill:url(#_43-3);}.cls-16{fill:url(#_44-2);}.cls-17{fill:url(#_43-4);}</style><linearGradient id="_2" x1="113.14" y1="33.54" x2="113.14" y2="7.08" gradientUnits="userSpaceOnUse"><stop offset="0" stop-color="#ece0ff"/><stop offset="1" stop-color="#bbc7f9"/></linearGradient><clipPath id="clip-path" transform="translate(0)"><path id="SVGID" class="cls-1" d="M90.39,31.33s2.32-19,20.91-23.49,24.6,12.55,24.6,12.55-3.58,7.54-14.84,10.7S97.73,34.36,90.39,31.33Z"/></clipPath><linearGradient id="_43" x1="-10420.79" y1="17.77" x2="-10389.23" y2="17.77" gradientTransform="matrix(-1, 0, 0, 1, -10295.02, 0)" gradientUnits="userSpaceOnUse"><stop offset="0" stop-color="#604300"/><stop offset="1" stop-color="#471400"/></linearGradient><linearGradient id="_44" x1="-10405.01" y1="28.1" x2="-10405.01" y2="5.62" gradientTransform="matrix(-1, 0, 0, 1, -10295.02, 0)" gradientUnits="userSpaceOnUse"><stop offset="0" stop-color="#925600"/><stop offset="1" stop-color="#2e0010"/></linearGradient><linearGradient id="_43-2" x1="-10405.01" y1="24.1" x2="-10405.01" y2="10.32" gradientTransform="matrix(-0.97, -0.23, -0.23, 0.97, -10010.41, -2399.25)" xlink:href="#_43"/><linearGradient id="_2-2" x1="-9747.09" y1="33.58" x2="-9747.09" y2="7.11" gradientTransform="matrix(-1, 0, 0, 1, -9724.34, 0)" xlink:href="#_2"/><clipPath id="clip-path-2" transform="translate(0)"><path id="SVGID-2" data-name="SVGID" class="cls-1" d="M45.5,31.36s-2.31-19-20.9-23.48S0,20.43,0,20.43,3.57,28,14.84,31.13,38.16,34.4,45.5,31.36Z"/></clipPath><linearGradient id="_43-3" x1="-560.56" y1="17.8" x2="-529" y2="17.8" gradientTransform="translate(570.68)" xlink:href="#_43"/><linearGradient id="_44-2" x1="-544.78" y1="28.14" x2="-544.78" y2="5.66" gradientTransform="translate(570.68)" xlink:href="#_44"/><linearGradient id="_43-4" x1="-544.78" y1="24.14" x2="-544.78" y2="10.36" gradientTransform="translate(570.68)" xlink:href="#_43"/></defs><g class="cls-2"><g id="Layer_2" data-name="Layer 2"><g id="Avatar_face" data-name="Avatar face"><path class="cls-3" d="M135.89,20.39s-3.57,7.54-14.83,10.7-23.32,3.27-30.67.24a28.27,28.27,0,0,1,1.62-6h0c2.26-6,7.5-14.63,19.29-17.5,16.34-4,23,8.73,24.32,11.87C135.8,20.14,135.89,20.39,135.89,20.39Z" transform="translate(0)"/><g class="cls-4"><circle class="cls-5" cx="109.99" cy="17.77" r="15.78"/><circle class="cls-6" cx="109.99" cy="17.77" r="14.52"/><circle class="cls-7" cx="109.99" cy="17.77" r="8.9" transform="translate(-1.13 25.85) rotate(-13.33)"/></g><path class="cls-8" d="M135.62,19.71c-4.08-3.15-11.29-6.28-21.34-6.28-12.43,0-21.84,10.93-22.27,11.91,2.26-6,7.5-14.63,19.29-17.5C127.64,3.87,134.25,16.57,135.62,19.71Z" transform="translate(0)"/><path class="cls-9" d="M93.52,22s.89-15,14.31-20.57c16.78-7,25.87,14.82,25.87,14.82S113.41-6.58,93.52,22Z" transform="translate(0)"/><path class="cls-10" d="M97.42,33.12c1.37.16,23.64-3.47,36.48-9.85.34-.18-4.78,7.4-14.6,9.8C105.83,36.35,97.42,33.12,97.42,33.12Z" transform="translate(0)"/><path class="cls-10" d="M92,25.35s-4,5.38-3.56,6.88,5.76.3,5.76.3-2.92-1.53-2.9-2.48S92,25.35,92,25.35Z" transform="translate(0)"/><path class="cls-11" d="M135.16,18.73s-1.34-6.86-2.83-8.9S121.49,3.59,110.9,5.21s-16,12.28-18.54,19.24c0,0,8.87-15.71,22.86-15.43S135.16,18.73,135.16,18.73Z" transform="translate(0)"/><path class="cls-12" d="M121.34,17.3c-.49.48,7.26,2.71,7.66,1.9S122.42,16.21,121.34,17.3Z" transform="translate(0)"/><path class="cls-12" d="M115.67,15.87c-.48.15-.58,1.57,0,1.43s1.66-.2,1.66-.71S116.31,15.67,115.67,15.87Z" transform="translate(0)"/><path class="cls-13" d="M0,20.43S3.57,28,14.84,31.13s23.32,3.27,30.66.23a28.57,28.57,0,0,0-1.61-6v0c-2.26-6-7.51-14.62-19.29-17.49C8.26,3.9,1.64,16.61.27,19.74.09,20.18,0,20.43,0,20.43Z" transform="translate(0)"/><g class="cls-14"><circle class="cls-15" cx="25.9" cy="17.8" r="15.78"/><circle class="cls-16" cx="25.9" cy="17.8" r="14.52"/><path class="cls-17" d="M34.81,17.8a8.91,8.91,0,1,1-8.9-8.9A8.9,8.9,0,0,1,34.81,17.8Z" transform="translate(0)"/></g><path class="cls-8" d="M.27,19.74c4.09-3.15,11.29-6.28,21.35-6.28,12.43,0,21.84,10.94,22.27,11.91-2.26-6-7.51-14.62-19.29-17.49C8.26,3.9,1.64,16.61.27,19.74Z" transform="translate(0)"/><path class="cls-9" d="M42.38,22S41.49,7,28.07,1.42C11.29-5.57,2.2,16.24,2.2,16.24S22.48-6.54,42.38,22Z" transform="translate(0)"/><path class="cls-10" d="M38.47,33.16C37.11,33.32,14.84,29.68,2,23.3c-.35-.17,4.77,7.4,14.6,9.8C30.06,36.39,38.47,33.16,38.47,33.16Z" transform="translate(0)"/><path class="cls-10" d="M43.89,25.39s4,5.38,3.56,6.87-5.77.31-5.77.31,2.93-1.53,2.9-2.48S43.89,25.39,43.89,25.39Z" transform="translate(0)"/><path class="cls-11" d="M.73,18.77s1.34-6.87,2.84-8.9S14.4,3.62,25,5.25,41,17.52,43.53,24.49c0,0-8.87-15.71-22.85-15.44S.73,18.77.73,18.77Z" transform="translate(0)"/><path class="cls-12" d="M14.56,17.33c.49.49-7.26,2.72-7.67,1.9S13.47,16.25,14.56,17.33Z" transform="translate(0)"/><path class="cls-12" d="M20.23,15.91c.48.15.57,1.56,0,1.42s-1.67-.19-1.67-.7S19.58,15.7,20.23,15.91Z" transform="translate(0)"/></g></g></g></svg>