<svg xmlns="http://www.w3.org/2000/svg" xmlns:xlink="http://www.w3.org/1999/xlink" viewBox="0 0 138.02 45.05"><defs><style>.cls-1{fill:url(#_2);}.cls-2{fill:url(#_2-2);}.cls-3{isolation:isolate;}.cls-4{clip-path:url(#clip-path);}.cls-5{fill:url(#_209);}.cls-6{fill:url(#_76);}.cls-7{fill:#7936a2;}.cls-7,.cls-9{mix-blend-mode:multiply;}.cls-8{fill:#b11d51;}.cls-9{fill:#cf77b6;opacity:0.6;}.cls-10{fill:#2e031e;}.cls-11{fill:#870a2c;}.cls-12{fill:#fff;}.cls-13{clip-path:url(#clip-path-2);}.cls-14{fill:url(#_209-2);}.cls-15{fill:url(#_76-2);}</style><linearGradient id="_2" x1="22.14" y1="45.05" x2="22.14" y2="6.35" gradientUnits="userSpaceOnUse"><stop offset="0" stop-color="#ece0ff"/><stop offset="1" stop-color="#bbc7f9"/></linearGradient><linearGradient id="_2-2" x1="115.88" y1="45.05" x2="115.88" y2="6.35" xlink:href="#_2"/><clipPath id="clip-path"><path id="SVGID" class="cls-1" d="M44.27,38.49S34,47.1,20.55,44.59.71,31.59,0,23.16,12.34,2.77,26.71,7.37,44.05,29.13,44.27,38.49Z"/></clipPath><linearGradient id="_209" x1="25.3" y1="11.13" x2="25.3" y2="36.39" gradientTransform="translate(40.05 -8.36) rotate(76.72)" gradientUnits="userSpaceOnUse"><stop offset="0" stop-color="#57335b"/><stop offset="1" stop-color="#310a39"/></linearGradient><linearGradient id="_76" x1="25.3" y1="13.83" x2="25.3" y2="41.93" gradientTransform="translate(29.97 -11.51) rotate(58.28)" gradientUnits="userSpaceOnUse"><stop offset="0" stop-color="#5a365d"/><stop offset="1" stop-color="#5f1945"/></linearGradient><clipPath id="clip-path-2"><path id="SVGID-2" data-name="SVGID" class="cls-2" d="M93.74,38.49s10.27,8.61,23.72,6.1,19.85-13,20.53-21.43S125.67,2.77,111.31,7.37,94,29.13,93.74,38.49Z"/></clipPath><linearGradient id="_209-2" x1="112.71" y1="11.13" x2="112.71" y2="36.39" gradientTransform="translate(47.95 -73.51) rotate(45)" xlink:href="#_209"/><linearGradient id="_76-2" x1="112.71" y1="13.83" x2="112.71" y2="41.93" gradientTransform="translate(27.94 -56.1) rotate(31.72)" xlink:href="#_76"/></defs><g class="cls-3"><g id="Layer_2" data-name="Layer 2"><g id="Avatar_face" data-name="Avatar face"><path id="SVGID-3" data-name="SVGID" class="cls-1" d="M44.27,38.49S34,47.1,20.55,44.59.71,31.59,0,23.16,12.34,2.77,26.71,7.37,44.05,29.13,44.27,38.49Z"/><g class="cls-4"><circle class="cls-5" cx="25.3" cy="21.12" r="15.7" transform="matrix(0.23, -0.97, 0.97, 0.23, -1.07, 40.9)"/><circle class="cls-6" cx="25.3" cy="21.12" r="14.44" transform="translate(-5.97 31.54) rotate(-58.28)"/><circle class="cls-7" cx="25.3" cy="21.12" r="9"/></g><path class="cls-8" d="M2.25,15.91C2.07,16.11,3.68.35,17.47,0S39.36,16.37,39.36,16.37,22.14-6.38,2.25,15.91Z"/><path class="cls-9" d="M43.6,30.75s-7-11.48-19.8-14S0,22.35,0,22.35s0-14.22,20.55-15S43.6,30.75,43.6,30.75Z"/><path class="cls-10" d="M.76,18.77S1.08,14,6.41,9.24C15.88.8,40.74,2.09,43.6,30.75c0,0-5.09-28.83-30-21.22C5.68,12,.76,18.77.76,18.77Z"/><path class="cls-11" d="M1.13,28.37S4.69,40,20.55,44.59C20.55,44.59,6,45.68,1.13,28.37Z"/><path class="cls-11" d="M43.9,33.12A19.12,19.12,0,0,1,45.53,40c0,1.33-3.24,1.88-6.48,1.76,0,0,3.28-2,4.42-3.63S43.9,33.12,43.9,33.12Z"/><path class="cls-12" d="M7.21,22.24s2.28-2,8.67,0C15.88,22.24,13,24.18,7.21,22.24Z"/><path class="cls-12" d="M18.81,21.33s-1.07,1.61,0,1.77,2.5-.57,2.46-.88S19.13,20.7,18.81,21.33Z"/><path id="SVGID-4" data-name="SVGID" class="cls-2" d="M93.74,38.49s10.27,8.61,23.72,6.1,19.85-13,20.53-21.43S125.67,2.77,111.31,7.37,94,29.13,93.74,38.49Z"/><g class="cls-13"><circle class="cls-14" cx="112.71" cy="21.12" r="15.7" transform="translate(18.08 85.89) rotate(-45)"/><circle class="cls-15" cx="112.71" cy="21.12" r="14.44" transform="translate(5.73 62.41) rotate(-31.72)"/><circle class="cls-7" cx="112.71" cy="21.12" r="9" transform="translate(-1.84 26.46) rotate(-13.28)"/></g><path class="cls-8" d="M135.77,15.91c.18.2-1.43-15.56-15.23-15.9S98.66,16.37,98.66,16.37,115.88-6.38,135.77,15.91Z"/><path class="cls-9" d="M94.42,30.75s7-11.48,19.79-14S138,22.35,138,22.35s0-14.22-20.56-15S94.42,30.75,94.42,30.75Z"/><path class="cls-10" d="M137.26,18.77s-.32-4.77-5.66-9.53C122.14.8,97.28,2.09,94.42,30.75c0,0,5.08-28.83,30-21.22C132.33,12,137.26,18.77,137.26,18.77Z"/><path class="cls-11" d="M136.89,28.37S133.32,40,117.46,44.59C117.46,44.59,132,45.68,136.89,28.37Z"/><path class="cls-11" d="M94.11,33.12A19.22,19.22,0,0,0,92.49,40c0,1.33,3.24,1.88,6.48,1.76,0,0-3.29-2-4.43-3.63S94.11,33.12,94.11,33.12Z"/><path class="cls-12" d="M130.81,22.24s-2.28-2-8.67,0C122.14,22.24,125,24.18,130.81,22.24Z"/><path class="cls-12" d="M119.21,21.33s1.06,1.61,0,1.77-2.5-.57-2.47-.88S118.88,20.7,119.21,21.33Z"/></g></g></g></svg>