<svg xmlns="http://www.w3.org/2000/svg" xmlns:xlink="http://www.w3.org/1999/xlink" viewBox="0 0 139.34 40.2"><defs><style>.cls-1{isolation:isolate;}.cls-2{fill:url(#Áåçûìÿííûé_ãðàäèåíò_300);}.cls-3{fill:#dd6b7c;}.cls-4{fill:url(#Áåçûìÿííûé_ãðàäèåíò_156);}.cls-5{fill:url(#Áåçûìÿííûé_ãðàäèåíò_102);}.cls-14,.cls-6,.cls-8{mix-blend-mode:multiply;}.cls-6{fill:url(#Áåçûìÿííûé_ãðàäèåíò_191);}.cls-7{fill:#fff;}.cls-8{fill:#d177b8;opacity:0.6;}.cls-9{fill:#dd4c6a;}.cls-10{fill:#4e1b3d;}.cls-11{fill:url(#Áåçûìÿííûé_ãðàäèåíò_300-2);}.cls-12{fill:url(#Áåçûìÿííûé_ãðàäèåíò_156-2);}.cls-13{fill:url(#Áåçûìÿííûé_ãðàäèåíò_102-2);}.cls-14{fill:url(#Áåçûìÿííûé_ãðàäèåíò_191-2);}</style><linearGradient id="Áåçûìÿííûé_ãðàäèåíò_300" x1="187.17" y1="62.81" x2="187.17" y2="26.25" gradientTransform="translate(-61.71 -46.01) rotate(7.34)" gradientUnits="userSpaceOnUse"><stop offset="0" stop-color="#eee2ff"/><stop offset="1" stop-color="#bdc9fb"/></linearGradient><linearGradient id="Áåçûìÿííûé_ãðàäèåíò_156" x1="185.24" y1="55.45" x2="185.24" y2="28.34" gradientTransform="translate(-61.71 -46.01) rotate(7.34)" gradientUnits="userSpaceOnUse"><stop offset="0" stop-color="#3780a9"/><stop offset="1" stop-color="#153364"/></linearGradient><linearGradient id="Áåçûìÿííûé_ãðàäèåíò_102" x1="185.24" y1="54.66" x2="185.24" y2="29.13" gradientTransform="translate(-61.71 -46.01) rotate(7.34)" gradientUnits="userSpaceOnUse"><stop offset="0" stop-color="#4997fe"/><stop offset="1" stop-color="#021f5e"/></linearGradient><linearGradient id="Áåçûìÿííûé_ãðàäèåíò_191" x1="185.24" y1="50.18" x2="185.24" y2="33.61" gradientTransform="translate(-61.71 -46.01) rotate(7.34)" gradientUnits="userSpaceOnUse"><stop offset="0" stop-color="#a79abd"/><stop offset="0.99" stop-color="#724a60"/></linearGradient><linearGradient id="Áåçûìÿííûé_ãðàäèåíò_300-2" x1="523.88" y1="19.46" x2="523.88" y2="-17.1" gradientTransform="matrix(-0.99, 0.13, 0.13, 0.99, 540.53, -46.01)" xlink:href="#Áåçûìÿííûé_ãðàäèåíò_300"/><linearGradient id="Áåçûìÿííûé_ãðàäèåíò_156-2" x1="521.95" y1="12.1" x2="521.95" y2="-15.02" gradientTransform="matrix(-0.68, -0.73, -0.73, 0.68, 376.26, 403.12)" xlink:href="#Áåçûìÿííûé_ãðàäèåíò_156"/><linearGradient id="Áåçûìÿííûé_ãðàäèåíò_102-2" x1="521.95" y1="11.3" x2="521.95" y2="-14.22" gradientTransform="matrix(-0.99, 0.13, 0.13, 0.99, 540.53, -46.01)" xlink:href="#Áåçûìÿííûé_ãðàäèåíò_102"/><linearGradient id="Áåçûìÿííûé_ãðàäèåíò_191-2" x1="521.95" y1="6.82" x2="521.95" y2="-9.74" gradientTransform="matrix(-0.99, 0.13, 0.13, 0.99, 540.53, -46.01)" xlink:href="#Áåçûìÿííûé_ãðàäèåíò_191"/></defs><g class="cls-1"><g id="Layer_2" data-name="Layer 2"><g id="layer1"><path class="cls-2" d="M97.13,34.65c.42,3.53,22.27,8.35,32.35,2.26,10.75-6.49,14.1-26.13,1.46-31.07S94,8.84,97.13,34.65Z"/><path class="cls-3" d="M96.72,31.2a44.51,44.51,0,0,0,3.94,6s-4.11-.88-4.44-2.14S96.72,31.2,96.72,31.2Z"/><path class="cls-3" d="M107,39s14.5,3,23.55-4.22c7.88-6.29,8.31-12.78,8.31-12.78s1,8.68-8.22,14.81S107,39,107,39Z"/><path class="cls-4" d="M130.1,20.92A13.56,13.56,0,1,1,118.39,5.75,13.56,13.56,0,0,1,130.1,20.92Z"/><path class="cls-5" d="M129.32,20.82a12.76,12.76,0,1,1-11-14.29A12.77,12.77,0,0,1,129.32,20.82Z"/><path class="cls-6" d="M124.87,20.25A8.28,8.28,0,1,1,117.71,11,8.28,8.28,0,0,1,124.87,20.25Z"/><path class="cls-7" d="M126,18.58c-.89.6,2.78,1.25,5.66.52,2.59-.65,4-2.08,3.78-2.38S129.45,16.2,126,18.58Z"/><path class="cls-7" d="M123.77,19c-1-.49-2.28-.11-2.4.44s1.09,1.41,1.72,1.26S124.33,19.28,123.77,19Z"/><path class="cls-8" d="M96.89,28.83s5.82-17.31,22.65-18.64S139,17.87,139,17.87l-.06-.81S138.72,5.3,119.72,4.64,96.81,24.53,96.89,28.83Z"/><path class="cls-9" d="M98.52,20.06S104.54.13,120.83,0c14.62-.12,17.37,13.56,17.37,13.56S118.88-3.5,98.52,20.06Z"/><path class="cls-10" d="M97.14,26.08s2.93-14.31,21.22-17,20.62,8,20.62,8,3.36-8-10.52-10.59C111.34,3.27,98.39,14.53,97.14,26.08Z"/><path class="cls-11" d="M42.21,34.65C41.78,38.18,19.93,43,9.86,36.91-.89,30.42-4.24,10.78,8.4,5.84S45.31,8.84,42.21,34.65Z"/><path class="cls-3" d="M42.62,31.2a43.9,43.9,0,0,1-3.95,6s4.11-.88,4.45-2.14S42.62,31.2,42.62,31.2Z"/><path class="cls-3" d="M32.36,39S17.86,42,8.8,34.74C.93,28.45.49,22,.49,22s-1,8.62,8.23,14.75S32.36,39,32.36,39Z"/><circle class="cls-12" cx="22.68" cy="19.19" r="13.56" transform="matrix(0.58, -0.81, 0.81, 0.58, -6.11, 26.53)"/><path class="cls-13" d="M10,20.82a12.76,12.76,0,1,0,11-14.29A12.77,12.77,0,0,0,10,20.82Z"/><path class="cls-14" d="M14.46,20.25A8.28,8.28,0,1,0,21.62,11,8.29,8.29,0,0,0,14.46,20.25Z"/><path class="cls-7" d="M13.38,18.58c.88.6-2.78,1.25-5.67.52-2.58-.65-4-2.08-3.77-2.38S9.89,16.2,13.38,18.58Z"/><path class="cls-7" d="M15.56,19c1-.49,2.29-.11,2.41.44s-1.09,1.41-1.72,1.26S15,19.28,15.56,19Z"/><path class="cls-8" d="M42.44,28.83S36.63,11.52,19.8,10.19.29,17.87.29,17.87l.07-.81S.62,5.3,19.61,4.64,42.52,24.53,42.44,28.83Z"/><path class="cls-9" d="M40.81,20.06S34.8.13,18.5,0C3.88-.12,1.14,13.56,1.14,13.56S20.46-3.5,40.81,20.06Z"/><path class="cls-10" d="M42.2,26.08S39.26,11.77,21,9.09s-20.62,8-20.62,8S-3,9.05,10.87,6.47C28,3.27,41,14.53,42.2,26.08Z"/></g></g></g></svg>