<svg xmlns="http://www.w3.org/2000/svg" xmlns:xlink="http://www.w3.org/1999/xlink" viewBox="0 0 138.61 48.19"><defs><style>.cls-1{fill:url(#_2);}.cls-2{fill:url(#_2-2);}.cls-3{isolation:isolate;}.cls-4{clip-path:url(#clip-path);}.cls-5{fill:url(#_6);}.cls-6{fill:url(#_905);}.cls-7{fill:#7936a2;}.cls-7,.cls-9{mix-blend-mode:multiply;}.cls-8{fill:#b11d51;}.cls-9{fill:#cf77b6;opacity:0.6;}.cls-10{fill:#2e031e;}.cls-11{fill:#870a2c;}.cls-12{fill:#fff;}.cls-13{clip-path:url(#clip-path-2);}.cls-14{fill:url(#_6-2);}.cls-15{fill:url(#_905-2);}</style><linearGradient id="_2" x1="23.68" y1="48.19" x2="23.68" y2="6.79" gradientUnits="userSpaceOnUse"><stop offset="0" stop-color="#ece0ff"/><stop offset="1" stop-color="#bbc7f9"/></linearGradient><linearGradient id="_2-2" x1="114.94" y1="48.19" x2="114.94" y2="6.79" xlink:href="#_2"/><clipPath id="clip-path"><path id="SVGID" class="cls-1" d="M47.35,41.16S36.37,50.38,22,47.7.76,33.79,0,24.77,13.2,3,28.57,7.89,47.11,31.16,47.35,41.16Z"/></clipPath><linearGradient id="_6" x1="27.06" y1="39.65" x2="27.06" y2="8.99" gradientTransform="translate(17.47 -11.33) rotate(34.36)" gradientUnits="userSpaceOnUse"><stop offset="0" stop-color="#a73749"/><stop offset="1" stop-color="#751540"/></linearGradient><linearGradient id="_905" x1="27.06" y1="38.18" x2="27.06" y2="25.73" gradientTransform="translate(32.16 -12.29) rotate(58.46)" gradientUnits="userSpaceOnUse"><stop offset="0" stop-color="#b75a3f"/><stop offset="1" stop-color="#a21f3b"/></linearGradient><clipPath id="clip-path-2"><path id="SVGID-2" data-name="SVGID" class="cls-2" d="M91.26,41.16s11,9.22,25.37,6.54,21.22-13.91,22-22.93S125.41,3,110.05,7.89,91.51,31.16,91.26,41.16Z"/></clipPath><linearGradient id="_6-2" x1="-6933.33" y1="39.65" x2="-6933.33" y2="8.99" gradientTransform="matrix(-0.79, -0.62, -0.62, 0.79, -5318.47, -4288.61)" xlink:href="#_6"/><linearGradient id="_905-2" x1="-6933.33" y1="38.18" x2="-6933.33" y2="25.73" gradientTransform="matrix(-0.89, -0.46, -0.46, 0.89, -6024.54, -3205.4)" xlink:href="#_905"/></defs><g class="cls-3"><g id="Layer_2" data-name="Layer 2"><g id="Avatar_face" data-name="Avatar face"><path id="SVGID-3" data-name="SVGID" class="cls-1" d="M47.35,41.16S36.37,50.38,22,47.7.76,33.79,0,24.77,13.2,3,28.57,7.89,47.11,31.16,47.35,41.16Z"/><g class="cls-4"><circle class="cls-5" cx="27.06" cy="22.59" r="16.79" transform="translate(-8.03 19.21) rotate(-34.36)"/><circle class="cls-6" cx="27.06" cy="22.59" r="15.45" transform="translate(-6.35 33.84) rotate(-58.46)"/><path class="cls-7" d="M27.06,32.21a9.62,9.62,0,1,1,9.63-9.62A9.63,9.63,0,0,1,27.06,32.21Z"/></g><path class="cls-8" d="M2.4,17C2.21,17.23,3.93.37,18.69,0S42.1,17.51,42.1,17.51,23.68-6.82,2.4,17Z"/><path class="cls-9" d="M46.63,32.88S39.18,20.61,25.46,18,0,23.9,0,23.9s0-15.21,22-16S46.63,32.88,46.63,32.88Z"/><path class="cls-10" d="M.81,20.07S1.16,15,6.86,9.89c10.12-9,36.71-7.66,39.77,23,0,0-5.44-30.83-32.06-22.69C6.08,12.79.81,20.07.81,20.07Z"/><path class="cls-11" d="M1.21,30.35S5,42.82,22,47.7C22,47.7,6.42,48.86,1.21,30.35Z"/><path class="cls-11" d="M47,35.42a20.62,20.62,0,0,1,1.73,7.37c0,1.42-3.46,2-6.93,1.89,0,0,3.52-2.18,4.74-3.88S47,35.42,47,35.42Z"/><path class="cls-12" d="M7.71,23.79s2.44-2.2,9.27,0C17,23.79,13.93,25.86,7.71,23.79Z"/><path class="cls-12" d="M20.11,22.81s-1.13,1.72,0,1.9,2.68-.61,2.64-.95S20.47,22.14,20.11,22.81Z"/><path id="SVGID-4" data-name="SVGID" class="cls-2" d="M91.26,41.16s11,9.22,25.37,6.54,21.22-13.91,22-22.93S125.41,3,110.05,7.89,91.51,31.16,91.26,41.16Z"/><g class="cls-13"><circle class="cls-14" cx="111.55" cy="22.59" r="16.79" transform="translate(9.97 73.93) rotate(-38.26)"/><circle class="cls-15" cx="111.55" cy="22.59" r="15.45" transform="translate(2.21 54.18) rotate(-27.56)"/><path class="cls-7" d="M111.55,32.21a9.62,9.62,0,1,0-9.62-9.62A9.62,9.62,0,0,0,111.55,32.21Z"/></g><path class="cls-8" d="M136.21,17c.19.21-1.53-16.65-16.29-17s-23.4,17.5-23.4,17.5S114.94-6.82,136.21,17Z"/><path class="cls-9" d="M92,32.88S99.43,20.61,113.16,18s25.45,5.94,25.45,5.94,0-15.21-22-16S92,32.88,92,32.88Z"/><path class="cls-10" d="M137.8,20.07s-.34-5.1-6-10.18C121.63.86,95,2.23,92,32.88c0,0,5.44-30.83,32.06-22.69C132.54,12.79,137.8,20.07,137.8,20.07Z"/><path class="cls-11" d="M137.4,30.35s-3.81,12.47-20.77,17.35C116.63,47.7,132.2,48.86,137.4,30.35Z"/><path class="cls-11" d="M91.66,35.42a20.52,20.52,0,0,0-1.74,7.37c0,1.42,3.47,2,6.93,1.89,0,0-3.51-2.18-4.73-3.88S91.66,35.42,91.66,35.42Z"/><path class="cls-12" d="M130.9,23.79s-2.44-2.2-9.27,0C121.63,23.79,124.68,25.86,130.9,23.79Z"/><path class="cls-12" d="M118.5,22.81s1.14,1.72,0,1.9-2.68-.61-2.64-.95S118.15,22.14,118.5,22.81Z"/></g></g></g></svg>