<svg xmlns="http://www.w3.org/2000/svg" xmlns:xlink="http://www.w3.org/1999/xlink" viewBox="0 0 135.8 40.24"><defs><style>.cls-1{isolation:isolate;}.cls-2{fill:#870a2c;}.cls-3{fill:#b11d51;}.cls-4{fill:url(#_2);}.cls-5{fill:#2e031e;}.cls-6{fill:url(#_69);}.cls-7{fill:url(#_209);}.cls-14,.cls-8,.cls-9{mix-blend-mode:multiply;}.cls-8{fill:url(#_37);}.cls-9{fill:#cf77b6;opacity:0.6;}.cls-10{fill:#fff;}.cls-11{fill:url(#_2-2);}.cls-12{fill:url(#_69-2);}.cls-13{fill:url(#_209-2);}.cls-14{fill:url(#_37-2);}</style><linearGradient id="_2" x1="113.31" y1="40" x2="113.31" y2="3.07" gradientUnits="userSpaceOnUse"><stop offset="0" stop-color="#ece0ff"/><stop offset="1" stop-color="#bbc7f9"/></linearGradient><linearGradient id="_69" x1="110.38" y1="17.07" x2="110.38" y2="34.96" gradientTransform="translate(12.12 -31.89) rotate(17.38)" gradientUnits="userSpaceOnUse"><stop offset="0" stop-color="#471f4b"/><stop offset="1" stop-color="#310a39"/></linearGradient><linearGradient id="_209" x1="110.38" y1="35.71" x2="110.38" y2="11.72" gradientTransform="translate(12.12 -31.88) rotate(17.37)" gradientUnits="userSpaceOnUse"><stop offset="0" stop-color="#57335b"/><stop offset="1" stop-color="#310a39"/></linearGradient><linearGradient id="_37" x1="110.38" y1="31.5" x2="110.38" y2="15.93" gradientTransform="translate(113.2 -89.15) rotate(79.31)" gradientUnits="userSpaceOnUse"><stop offset="0" stop-color="#c8a5d9"/><stop offset="0.99" stop-color="#8260b6"/></linearGradient><linearGradient id="_2-2" x1="-2653.77" y1="40" x2="-2653.77" y2="3.07" gradientTransform="matrix(-1, 0, 0, 1, -2631.28, 0)" xlink:href="#_2"/><linearGradient id="_69-2" x1="-2656.7" y1="17.07" x2="-2656.7" y2="34.96" gradientTransform="matrix(-0.93, -0.38, -0.38, 0.93, -2423.82, -1005.76)" xlink:href="#_69"/><linearGradient id="_209-2" x1="-2656.7" y1="35.71" x2="-2656.7" y2="11.72" gradientTransform="matrix(-0.13, -0.99, -0.99, 0.13, -293.09, -2613.93)" xlink:href="#_209"/><linearGradient id="_37-2" x1="-2656.7" y1="31.5" x2="-2656.7" y2="15.93" gradientTransform="matrix(-0.99, -0.12, -0.12, 0.99, -2608.57, -323.72)" xlink:href="#_37"/></defs><g class="cls-1"><g id="Layer_2" data-name="Layer 2"><g id="Avatar_face" data-name="Avatar face"><path class="cls-2" d="M103.75,39.78s17,3.4,28.5-8.33l-.84-4.24S122.16,38,103.75,39.78Z"/><path class="cls-3" d="M94.21,20.12S97.15,3.59,111.36.46s21.77,10.63,21.77,10.63S109.8-7.57,94.21,20.12Z"/><path class="cls-4" d="M94.08,32.8c1.41,6.69,11.48,8.87,23.08,5.91,16.7-4.25,17.39-16.71,14.89-23.53s-9.78-15.11-23.76-11S92.19,23.76,94.08,32.8Z"/><path class="cls-5" d="M93.75,30.84S91.62,13.71,107,6.94c13.64-6,23.3,3.54,25.27,9.05,0,0,3.57-3.61,3.49-5.16-.31-6.09-9.36-11.17-22.61-9.14C100.11,3.7,92.24,14.39,93.75,30.84Z"/><path class="cls-2" d="M93.75,30.84s0,4.92.73,6.68,9.77,2.29,9.77,2.29S94.73,39.27,93.75,30.84Z"/><circle class="cls-6" cx="110.38" cy="23.71" r="12.74" transform="translate(-2.04 34.06) rotate(-17.38)"/><circle class="cls-7" cx="110.38" cy="23.71" r="12" transform="translate(-2.05 34.04) rotate(-17.37)"/><circle class="cls-8" cx="110.38" cy="23.71" r="7.79" transform="translate(66.6 127.78) rotate(-79.31)"/><path class="cls-9" d="M93.75,30.84s1.25-14.76,15-19.12C124.25,6.79,132.31,16,132.31,16S128.53,2.72,111.4,5.14,93.46,22.73,93.75,30.84Z"/><path class="cls-10" d="M120.8,21c-.77.68,2.8.85,5.47-.2,2.38-.94,3.53-2.47,3.31-2.74S123.84,18.34,120.8,21Z"/><path class="cls-10" d="M118.76,21.72c-1-.35-2.19.18-2.24.71s1.21,1.22,1.8,1S119.33,21.91,118.76,21.72Z"/><path class="cls-2" d="M32.05,39.78s-17,3.4-28.5-8.33l.85-4.24S13.65,38,32.05,39.78Z"/><path class="cls-3" d="M41.59,20.12S38.65,3.59,24.44.46,2.68,11.09,2.68,11.09,26-7.57,41.59,20.12Z"/><path class="cls-11" d="M41.72,32.8c-1.4,6.69-11.48,8.87-23.08,5.91C2,34.46,1.25,22,3.75,15.18S13.53.07,27.51,4.16,43.62,23.76,41.72,32.8Z"/><path class="cls-5" d="M42.05,30.84s2.13-17.13-13.29-23.9C15.13,1,5.46,10.48,3.49,16c0,0-3.57-3.61-3.49-5.16C.32,4.74,9.36-.34,22.61,1.69,35.69,3.7,43.56,14.39,42.05,30.84Z"/><path class="cls-2" d="M42.05,30.84s0,4.92-.73,6.68-9.77,2.29-9.77,2.29S41.08,39.27,42.05,30.84Z"/><circle class="cls-12" cx="25.42" cy="23.71" r="12.74" transform="translate(-7.09 11.41) rotate(-22.29)"/><circle class="cls-13" cx="25.42" cy="23.71" r="12" transform="translate(-1.37 45.87) rotate(-82.6)"/><circle class="cls-14" cx="25.42" cy="23.71" r="7.79" transform="translate(-2.7 3.28) rotate(-7)"/><path class="cls-9" d="M42.05,30.84s-1.24-14.76-15-19.12C11.55,6.79,3.49,16,3.49,16S7.28,2.72,24.4,5.14,42.35,22.73,42.05,30.84Z"/><path class="cls-10" d="M15,21c.77.68-2.81.85-5.47-.2C7.15,19.9,6,18.37,6.22,18.1S12,18.34,15,21Z"/><path class="cls-10" d="M17,21.72c1-.35,2.19.18,2.24.71s-1.21,1.22-1.79,1S16.47,21.91,17,21.72Z"/></g></g></g></svg>