<svg xmlns="http://www.w3.org/2000/svg" xmlns:xlink="http://www.w3.org/1999/xlink" viewBox="0 0 139.5 40.02"><defs><style>.cls-1{isolation:isolate;}.cls-2{fill:url(#Áåçûìÿííûé_ãðàäèåíò_300);}.cls-3{fill:#dd4c6a;}.cls-4{fill:#dd6b7c;}.cls-5{fill:url(#Áåçûìÿííûé_ãðàäèåíò_231);}.cls-6{fill:url(#Áåçûìÿííûé_ãðàäèåíò_241);}.cls-10,.cls-14,.cls-7{mix-blend-mode:multiply;}.cls-7{fill:url(#Áåçûìÿííûé_ãðàäèåíò_191);}.cls-8{fill:#4e1b3d;}.cls-9{fill:#fff;}.cls-10{fill:#d177b8;opacity:0.6;}.cls-11{fill:url(#Áåçûìÿííûé_ãðàäèåíò_300-2);}.cls-12{fill:url(#Áåçûìÿííûé_ãðàäèåíò_231-2);}.cls-13{fill:url(#Áåçûìÿííûé_ãðàäèåíò_241-2);}.cls-14{fill:url(#Áåçûìÿííûé_ãðàäèåíò_191-2);}</style><linearGradient id="Áåçûìÿííûé_ãðàäèåíò_300" x1="266.17" y1="82.73" x2="266.17" y2="46" gradientTransform="translate(-114.96 -123.69) rotate(18.45)" gradientUnits="userSpaceOnUse"><stop offset="0" stop-color="#eee2ff"/><stop offset="1" stop-color="#bdc9fb"/></linearGradient><linearGradient id="Áåçûìÿííûé_ãðàäèåíò_231" x1="264.23" y1="75.33" x2="264.23" y2="48.09" gradientTransform="matrix(-0.24, 0.97, -0.97, -0.24, 238.24, -223.87)" gradientUnits="userSpaceOnUse"><stop offset="0" stop-color="#72791a"/><stop offset="1" stop-color="#594a0b"/></linearGradient><linearGradient id="Áåçûìÿííûé_ãðàäèåíò_241" x1="264.23" y1="74.53" x2="264.23" y2="48.89" gradientTransform="matrix(0.43, 0.9, -0.9, 0.43, 57.07, -246.37)" gradientUnits="userSpaceOnUse"><stop offset="0" stop-color="#a68d18"/><stop offset="1" stop-color="#402f40"/></linearGradient><linearGradient id="Áåçûìÿííûé_ãðàäèåíò_191" x1="264.23" y1="70.03" x2="264.23" y2="53.39" gradientTransform="matrix(0.71, 0.7, -0.7, 0.71, -28.1, -211.36)" gradientUnits="userSpaceOnUse"><stop offset="0" stop-color="#a79abd"/><stop offset="0.99" stop-color="#724a60"/></linearGradient><linearGradient id="Áåçûìÿííûé_ãðàäèåíò_300-2" x1="526.57" y1="-4.13" x2="526.57" y2="-40.86" gradientTransform="matrix(-0.95, 0.32, 0.32, 0.95, 528.95, -123.69)" xlink:href="#Áåçûìÿííûé_ãðàäèåíò_300"/><linearGradient id="Áåçûìÿííûé_ãðàäèåíò_231-2" x1="524.63" y1="-11.52" x2="524.63" y2="-38.76" gradientTransform="matrix(-0.62, -0.78, -0.78, 0.62, 330.71, 444.32)" xlink:href="#Áåçûìÿííûé_ãðàäèåíò_231"/><linearGradient id="Áåçûìÿííûé_ãðàäèåíò_241-2" x1="524.63" y1="-12.32" x2="524.63" y2="-37.97" gradientTransform="matrix(-0.99, 0.16, 0.16, 0.99, 545.07, -41.96)" xlink:href="#Áåçûìÿííûé_ãðàäèåíò_241"/><linearGradient id="Áåçûìÿííûé_ãðàäèåíò_191-2" x1="524.63" y1="-16.82" x2="524.63" y2="-33.46" gradientTransform="matrix(-1, 0.08, 0.08, 1, 548.35, 3.89)" xlink:href="#Áåçûìÿííûé_ãðàäèåíò_191"/></defs><g class="cls-1"><g id="Layer_2" data-name="Layer 2"><g id="layer1"><path class="cls-2" d="M93.92,29.91c-.26,3.56,20.34,12.53,31.45,8.48,11.85-4.32,19-23,7.45-30.35S95.86,3.86,93.92,29.91Z"/><path class="cls-3" d="M98.12,15.79S107.9-2.69,124,.33c14.44,2.72,14.5,16.73,14.5,16.73S125.09-13.17,98.12,15.79Z"/><path class="cls-4" d="M94.18,26.43a44.06,44.06,0,0,0,2.73,6.71s-3.89-1.66-4-3S94.18,26.43,94.18,26.43Z"/><path class="cls-4" d="M102.8,36.06s12.24,2.31,23.31-1.3c9.37-3,11.39-9.3,11.39-9.3s-1.43,8.91-11.71,13.17S102.8,36.06,102.8,36.06Z"/><circle class="cls-5" cx="116.16" cy="18.45" r="13.62" transform="translate(87.95 132.63) rotate(-85.15)"/><circle class="cls-6" cx="116.16" cy="18.45" r="12.82" transform="translate(21.99 88.91) rotate(-45.83)"/><circle class="cls-7" cx="116.16" cy="18.45" r="8.32" transform="translate(3.85 53.36) rotate(-26.29)"/><path class="cls-8" d="M95.59,21.46S101.44,5,120,5.9s18.6,14.76,18.6,14.76,5-10.9-8.21-16.13C114.11-1.94,99.05,10.32,95.59,21.46Z"/><path class="cls-9" d="M125.45,19.64c-1,.42,2.5,1.77,5.48,1.61,2.67-.14,4.32-1.28,4.18-1.62S129.35,18,125.45,19.64Z"/><path class="cls-9" d="M123.21,19.64c-.88-.67-2.23-.54-2.45,0s.8,1.6,1.45,1.57S123.71,20,123.21,19.64Z"/><path class="cls-10" d="M94.81,24.12s9.08-15.94,25.93-14,17.74,11.35,17.74,11.35l.1-.82S140.6,9,122,4.69,95.57,19.87,94.81,24.12Z"/><path class="cls-11" d="M45.58,29.91c.26,3.56-20.34,12.53-31.45,8.48C2.28,34.07-4.83,15.37,6.68,8S43.64,3.86,45.58,29.91Z"/><path class="cls-3" d="M41.38,15.79S31.6-2.69,15.51.33C1.07,3.05,1,17.06,1,17.06S14.41-13.17,41.38,15.79Z"/><path class="cls-4" d="M45.32,26.43a44.06,44.06,0,0,1-2.73,6.71s3.89-1.66,4-3S45.32,26.43,45.32,26.43Z"/><path class="cls-4" d="M36.7,36.06a60.56,60.56,0,0,1-23.76-1.92C3.27,31.14,2,25.46,2,25.46s1.43,8.91,11.71,13.17S36.7,36.06,36.7,36.06Z"/><circle class="cls-12" cx="23.34" cy="18.45" r="13.62" transform="translate(-2.01 34.02) rotate(-69.88)"/><circle class="cls-13" cx="23.34" cy="18.45" r="12.82" transform="translate(-2.62 3.92) rotate(-9.1)"/><circle class="cls-14" cx="23.34" cy="18.45" r="8.32" transform="translate(-3.79 6.25) rotate(-14.11)"/><path class="cls-8" d="M43.91,21.46S38.06,5,19.52,5.9.92,20.66.92,20.66-4,9.76,9.13,4.53C25.39-1.94,40.45,10.32,43.91,21.46Z"/><path class="cls-9" d="M14.05,19.64c1,.42-2.5,1.77-5.48,1.61C5.89,21.11,4.25,20,4.38,19.63S10.15,18,14.05,19.64Z"/><path class="cls-9" d="M16.29,19.64c.88-.67,2.23-.54,2.45,0s-.8,1.6-1.45,1.57S15.79,20,16.29,19.64Z"/><path class="cls-10" d="M44.69,24.12s-9.08-15.94-25.93-14S1,21.48,1,21.48l-.09-.82S-1.1,9,17.5,4.69,43.93,19.87,44.69,24.12Z"/></g></g></g></svg>