<svg xmlns="http://www.w3.org/2000/svg" xmlns:xlink="http://www.w3.org/1999/xlink" viewBox="0 0 138.3 40.01"><defs><style>.cls-1{fill:none;}.cls-2{isolation:isolate;}.cls-3{fill:#ce77b5;opacity:0.4;}.cls-10,.cls-13,.cls-20,.cls-3{mix-blend-mode:multiply;}.cls-4{fill:url(#linear-gradient);}.cls-5{fill:#da6b7c;}.cls-6{fill:url(#_300);}.cls-7{clip-path:url(#clip-path);}.cls-8{fill:url(#_89);}.cls-9{fill:url(#_89-2);}.cls-10{fill:url(#_191);}.cls-11{fill:#fff;}.cls-12,.cls-21{mix-blend-mode:color-dodge;opacity:0.2;}.cls-12{fill:url(#_300-2);}.cls-13{fill:#bc7eb7;opacity:0.6;}.cls-14{fill:#401331;}.cls-15{fill:url(#linear-gradient-2);}.cls-16{fill:url(#_300-3);}.cls-17{clip-path:url(#clip-path-2);}.cls-18{fill:url(#_89-3);}.cls-19{fill:url(#_89-4);}.cls-20{fill:url(#_191-2);}.cls-21{fill:url(#_300-4);}</style><linearGradient id="linear-gradient" x1="848.24" y1="20.82" x2="900.07" y2="20.82" gradientTransform="translate(-761.97)" gradientUnits="userSpaceOnUse"><stop offset="0" stop-color="#ffa793"/><stop offset="0.43" stop-color="#f6a896"/><stop offset="0.52" stop-color="#f9a28f"/><stop offset="0.76" stop-color="#fd9783"/><stop offset="1" stop-color="#ff937f"/></linearGradient><linearGradient id="_300" x1="875.6" y1="38.4" x2="875.6" y2="2.74" gradientTransform="translate(-761.97)" gradientUnits="userSpaceOnUse"><stop offset="0" stop-color="#ebdfff"/><stop offset="1" stop-color="#bac6f8"/></linearGradient><clipPath id="clip-path"><path class="cls-1" d="M138.11,14.6c-1.42,8.69-4.47,14.67-8.84,18.47-7.7,6.69-19.53,6.57-33.86,2.46-1.49-.43-3-.9-4.56-1.42a2.5,2.5,0,0,1-1.65-2.83,48.24,48.24,0,0,1,1.34-5.36C98.91-.67,128.6-4.29,138.11,14.6Z"/></clipPath><linearGradient id="_89" x1="718.97" y1="36.52" x2="718.97" y2="1.55" gradientTransform="translate(-33.48 -685.33) rotate(76.82)" gradientUnits="userSpaceOnUse"><stop offset="0" stop-color="#b8a7ca"/><stop offset="0.03" stop-color="#b0a0c4"/><stop offset="0.19" stop-color="#8076a0"/><stop offset="0.36" stop-color="#595483"/><stop offset="0.52" stop-color="#3a396c"/><stop offset="0.67" stop-color="#25265c"/><stop offset="0.83" stop-color="#171b52"/><stop offset="0.96" stop-color="#13174f"/></linearGradient><linearGradient id="_89-2" x1="718.97" y1="1.55" x2="718.97" y2="36.52" gradientTransform="translate(-607.03)" xlink:href="#_89"/><linearGradient id="_191" x1="718.97" y1="29.39" x2="718.97" y2="8.68" gradientTransform="translate(-607.03)" gradientUnits="userSpaceOnUse"><stop offset="0" stop-color="#a598bb"/><stop offset="0.99" stop-color="#724a60"/></linearGradient><linearGradient id="_300-2" x1="705.58" y1="29.39" x2="732.36" y2="29.39" gradientTransform="translate(-607.03)" xlink:href="#_300"/><linearGradient id="linear-gradient-2" x1="1382.74" y1="20.82" x2="1434.57" y2="20.82" gradientTransform="matrix(-1, 0, 0, 1, 1434.77, 0)" xlink:href="#linear-gradient"/><linearGradient id="_300-3" x1="1410.1" y1="38.4" x2="1410.1" y2="2.74" gradientTransform="matrix(-1, 0, 0, 1, 1434.77, 0)" xlink:href="#_300"/><clipPath id="clip-path-2"><path class="cls-1" d="M.19,14.6C1.61,23.29,4.66,29.27,9,33.07c7.7,6.69,19.53,6.57,33.86,2.46,1.49-.43,3-.9,4.56-1.42a2.5,2.5,0,0,0,1.65-2.83,48.24,48.24,0,0,0-1.34-5.36C39.39-.67,9.7-4.29.19,14.6Z"/></clipPath><linearGradient id="_89-3" x1="1253.47" y1="36.52" x2="1253.47" y2="1.55" gradientTransform="matrix(-0.47, -0.88, -0.88, 0.47, 629.21, 1118.18)" xlink:href="#_89"/><linearGradient id="_89-4" x1="1253.47" y1="1.55" x2="1253.47" y2="36.52" gradientTransform="matrix(-1, 0, 0, 1, 1279.83, 0)" xlink:href="#_89"/><linearGradient id="_191-2" x1="1253.47" y1="29.39" x2="1253.47" y2="8.68" gradientTransform="matrix(-1, 0, 0, 1, 1279.83, 0)" xlink:href="#_191"/><linearGradient id="_300-4" x1="1240.08" y1="29.39" x2="1266.86" y2="29.39" gradientTransform="matrix(-1, 0, 0, 1, 1279.83, 0)" xlink:href="#_300"/></defs><g class="cls-2"><g id="Layer_2" data-name="Layer 2"><g id="Layer_1-2" data-name="Layer 1"><path class="cls-3" d="M90.54,20.57c10-30.27,36.05-21.81,45.84-8.33Z"/><path class="cls-4" d="M109.2,39.6c-9.53-1.33-17.65-2.93-22.93-5.08C92.38-.86,121.43-7.21,138.11,14.6L114.45,37.87A6.25,6.25,0,0,1,109.2,39.6Z"/><path class="cls-5" d="M138.11,14.6c2.23,20-15.07,32.07-40.67,21.49Z"/><path class="cls-6" d="M138.11,14.6c-1.11,6.78-3.2,11.9-6.15,15.63a19.65,19.65,0,0,1-2.69,2.84c-7.71,6.69-19.53,6.57-33.86,2.46-1.49-.43-3-.9-4.56-1.42a2.5,2.5,0,0,1-1.65-2.82,45.8,45.8,0,0,1,1.34-5.37C98.91-.67,128.6-4.29,138.11,14.6Z"/><g class="cls-7"><circle class="cls-8" cx="111.94" cy="19.04" r="17.48" transform="translate(67.88 123.69) rotate(-76.82)"/><path class="cls-9" d="M111.94,1.55A17.49,17.49,0,1,0,129.43,19,17.48,17.48,0,0,0,111.94,1.55Zm0,34A16.49,16.49,0,1,1,128.43,19,16.49,16.49,0,0,1,111.94,35.53Z"/><circle class="cls-10" cx="111.94" cy="19.04" r="10.35"/><path class="cls-11" d="M124.61,16.29c-.31-1.21-1.28-3.55-2.53-3.62-2-.12-5,5.55-3.44,7.35,1.16,1.34,5.09.8,6-1.15A3.7,3.7,0,0,0,124.61,16.29Z"/><path class="cls-12" d="M98.63,25.14c.68-.45,5.94,5.59,13.6,5.41s12.49-6.48,13-6.15-3.89,10.11-13.66,10C102.46,34.27,97.87,25.63,98.63,25.14Z"/><path class="cls-11" d="M123.1,21.59a1.21,1.21,0,0,1,.6,1.59,1.12,1.12,0,0,1-.86.65,1.23,1.23,0,0,1-1.29-1.25A1.2,1.2,0,0,1,123.1,21.59Z"/></g><path class="cls-5" d="M95.41,35.53c-1.49-.43-3-.9-4.56-1.42a2.5,2.5,0,0,1-1.65-2.83,48.24,48.24,0,0,1,1.34-5.36C90.46,31.46,92.3,34.36,95.41,35.53Z"/><path class="cls-13" d="M132,30.23c1.72-4.68,2.16-8.88.58-12.32-9-10.45-35.34-7.62-42,8C98.91-.67,128.6-4.29,138.11,14.6,137,21.38,134.91,26.5,132,30.23Z"/><path class="cls-14" d="M128.37,4.92l-.65-.31-.07,0C114.91-1,96.79,6.07,90.54,25.92c7.53-19.73,32.5-28.42,45-10.16.19,6-2.15,11.74-6.25,17.31,4.37-3.8,7.42-9.78,8.84-18.47C136,9.78,133.57,7.37,128.37,4.92Z"/><path class="cls-3" d="M47.76,20.57c-10-30.27-36-21.81-45.84-8.33Z"/><path class="cls-15" d="M29.1,39.6c9.53-1.33,17.65-2.93,22.93-5.08C45.92-.86,16.87-7.21.19,14.6L23.85,37.87A6.25,6.25,0,0,0,29.1,39.6Z"/><path class="cls-5" d="M.19,14.6C-2,34.61,15.27,46.67,40.86,36.09Z"/><path class="cls-16" d="M.2,14.6c1.1,6.78,3.19,11.9,6.14,15.63A20.21,20.21,0,0,0,9,33.07c7.71,6.69,19.53,6.57,33.86,2.46,1.49-.43,3-.9,4.56-1.42a2.5,2.5,0,0,0,1.65-2.82,45.8,45.8,0,0,0-1.34-5.37C39.39-.67,9.7-4.29.2,14.6Z"/><g class="cls-17"><circle class="cls-18" cx="26.36" cy="19.04" r="17.48" transform="translate(-2.79 33.44) rotate(-62.13)"/><path class="cls-19" d="M8.88,19A17.48,17.48,0,1,0,26.36,1.55,17.49,17.49,0,0,0,8.88,19Zm1,0A16.5,16.5,0,1,1,26.36,35.53,16.49,16.49,0,0,1,9.87,19Z"/><circle class="cls-20" cx="26.36" cy="19.04" r="10.35"/><path class="cls-11" d="M32,16.29c.32-1.21,1.28-3.55,2.53-3.62,2-.12,5,5.55,3.44,7.35-1.16,1.34-5.09.8-6-1.15A3.7,3.7,0,0,1,32,16.29Z"/><path class="cls-21" d="M39.67,25.14c-.68-.45-5.94,5.59-13.6,5.41S13.58,24.07,13,24.4s3.89,10.11,13.66,10C35.85,34.27,40.43,25.63,39.67,25.14Z"/><path class="cls-11" d="M36.48,21.59a1.22,1.22,0,0,0-.6,1.59,1.14,1.14,0,0,0,.86.65A1.22,1.22,0,0,0,38,22.58,1.2,1.2,0,0,0,36.48,21.59Z"/></g><path class="cls-5" d="M42.89,35.53c1.49-.43,3-.9,4.56-1.42a2.5,2.5,0,0,0,1.65-2.83,48.24,48.24,0,0,0-1.34-5.36C47.85,31.46,46,34.36,42.89,35.53Z"/><path class="cls-13" d="M6.34,30.23c-1.72-4.68-2.16-8.88-.58-12.32,9-10.45,35.34-7.62,42,8C39.39-.67,9.7-4.29.2,14.6,1.3,21.38,3.39,26.5,6.34,30.23Z"/><path class="cls-14" d="M9.93,4.92l.65-.31.07,0C23.39-1,41.51,6.07,47.76,25.92,40.23,6.19,15.26-2.5,2.78,15.76,2.59,21.75,4.93,27.5,9,33.07,4.66,29.27,1.61,23.29.19,14.6,2.32,9.78,4.73,7.37,9.93,4.92Z"/></g></g></g></svg>