<svg xmlns="http://www.w3.org/2000/svg" xmlns:xlink="http://www.w3.org/1999/xlink" viewBox="0 0 139.58 42.49"><defs><style>.cls-1{fill:none;}.cls-2{isolation:isolate;}.cls-10,.cls-13,.cls-15,.cls-21,.cls-3{mix-blend-mode:multiply;}.cls-15,.cls-3{opacity:0.4;}.cls-3{fill:url(#_285_2);}.cls-4{fill:url(#_56);}.cls-5{fill:#da6b7c;}.cls-6{fill:url(#_300);}.cls-7{clip-path:url(#clip-path);}.cls-8{fill:url(#linear-gradient);}.cls-9{fill:url(#linear-gradient-2);}.cls-10{fill:url(#_191);}.cls-11{fill:#fff;}.cls-12,.cls-22{mix-blend-mode:color-dodge;opacity:0.2;}.cls-12{fill:url(#_300-2);}.cls-13{fill:#bc7eb7;opacity:0.6;}.cls-14{fill:#912c47;}.cls-15{fill:url(#_285_2-2);}.cls-16{fill:url(#_56-2);}.cls-17{fill:url(#_300-3);}.cls-18{clip-path:url(#clip-path-2);}.cls-19{fill:url(#linear-gradient-3);}.cls-20{fill:url(#linear-gradient-4);}.cls-21{fill:url(#_191-2);}.cls-22{fill:url(#_300-4);}</style><linearGradient id="_285_2" x1="91.95" y1="15.55" x2="139.03" y2="15.55" gradientUnits="userSpaceOnUse"><stop offset="0" stop-color="#fff"/><stop offset="1" stop-color="#ce4c76"/></linearGradient><linearGradient id="_56" x1="91.95" y1="16.61" x2="139.03" y2="16.61" gradientUnits="userSpaceOnUse"><stop offset="0" stop-color="#ffa793"/><stop offset="0.43" stop-color="#f6a896"/><stop offset="0.52" stop-color="#f9a28f"/><stop offset="0.76" stop-color="#fd9783"/><stop offset="1" stop-color="#ff937f"/></linearGradient><linearGradient id="_300" x1="115.49" y1="42.42" x2="115.49" y2="4.23" gradientUnits="userSpaceOnUse"><stop offset="0" stop-color="#ebdfff"/><stop offset="1" stop-color="#bac6f8"/></linearGradient><clipPath id="clip-path"><path class="cls-1" d="M92,31.1S95.8,7.79,115.25,4.68,138.93,15.5,138.93,15.5C141.13,39,107,53.86,92,31.1Z"/></clipPath><linearGradient id="linear-gradient" x1="1413.76" y1="39.63" x2="1413.76" y2="4.26" gradientTransform="matrix(-1, 0, 0, 1, 1527.77, 0)" gradientUnits="userSpaceOnUse"><stop offset="0.21" stop-color="#5a365d"/><stop offset="1" stop-color="#5f1945"/></linearGradient><linearGradient id="linear-gradient-2" x1="1413.76" y1="4.26" x2="1413.76" y2="39.63" xlink:href="#linear-gradient"/><linearGradient id="_191" x1="1413.76" y1="32.42" x2="1413.76" y2="11.47" gradientTransform="matrix(-1, 0, 0, 1, 1527.77, 0)" gradientUnits="userSpaceOnUse"><stop offset="0" stop-color="#a598bb"/><stop offset="0.99" stop-color="#724a60"/></linearGradient><linearGradient id="_300-2" x1="1400.21" y1="32.42" x2="1427.31" y2="32.42" gradientTransform="matrix(-1, 0, 0, 1, 1527.77, 0)" xlink:href="#_300"/><linearGradient id="_285_2-2" x1="800.47" y1="15.55" x2="847.54" y2="15.55" gradientTransform="matrix(-1, 0, 0, 1, 848.1, 0)" xlink:href="#_285_2"/><linearGradient id="_56-2" x1="800.47" y1="16.61" x2="847.54" y2="16.61" gradientTransform="matrix(-1, 0, 0, 1, 848.1, 0)" xlink:href="#_56"/><linearGradient id="_300-3" x1="824.01" y1="42.42" x2="824.01" y2="4.23" gradientTransform="matrix(-1, 0, 0, 1, 848.1, 0)" xlink:href="#_300"/><clipPath id="clip-path-2"><path class="cls-1" d="M47.63,31.1S43.79,7.79,24.33,4.68.66,15.5.66,15.5C-1.55,39,32.59,53.86,47.63,31.1Z"/></clipPath><linearGradient id="linear-gradient-3" x1="705.24" y1="39.63" x2="705.24" y2="4.26" gradientTransform="translate(-679.67)" xlink:href="#linear-gradient"/><linearGradient id="linear-gradient-4" x1="705.24" y1="4.26" x2="705.24" y2="39.63" gradientTransform="translate(-679.67)" xlink:href="#linear-gradient"/><linearGradient id="_191-2" x1="705.24" y1="32.42" x2="705.24" y2="11.47" gradientTransform="translate(-679.67)" xlink:href="#_191"/><linearGradient id="_300-4" x1="691.69" y1="32.42" x2="718.79" y2="32.42" gradientTransform="translate(-679.67)" xlink:href="#_300"/></defs><g class="cls-2"><g id="Layer_2" data-name="Layer 2"><g id="Layer_1-2" data-name="Layer 1"><path class="cls-3" d="M136.19,28.56c1.34-3.83,1.7-7.36.28-10.31C117.37,4.65,100.33,12.07,92,31.1c0,0,1.69-27.63,21.14-30.74S138.93,15.5,138.93,15.5A22.36,22.36,0,0,1,136.19,28.56Z"/><path class="cls-4" d="M136.19,28.56c1.34-3.83,1.7-7.36.28-10.31C117.37,4.65,100.33,12.07,92,31.1c0,0,1.69-25.47,21.14-28.58s25.84,13,25.84,13A22.36,22.36,0,0,1,136.19,28.56Z"/><path class="cls-5" d="M138.93,15.5s3.76,16.15-6.7,22.94c-10.21,6.63-26.06,3.12-26.06,3.12Z"/><path class="cls-6" d="M136.19,28.56C128,43.5,103.93,49.22,92,31.1c0,0,3.85-23.31,23.3-26.42S138.93,15.5,138.93,15.5A22.36,22.36,0,0,1,136.19,28.56Z"/><g class="cls-7"><circle class="cls-8" cx="114.01" cy="21.94" r="17.68"/><path class="cls-9" d="M96.32,21.94A17.69,17.69,0,1,0,114,4.26,17.69,17.69,0,0,0,96.32,21.94Zm1,0A16.69,16.69,0,1,1,114,38.62,16.68,16.68,0,0,1,97.33,21.94Z"/><circle class="cls-10" cx="114.01" cy="21.94" r="10.47"/><path class="cls-11" d="M127.46,19.16c-.31-1.21-1.29-3.58-2.55-3.66-2-.12-5,5.62-3.49,7.44,1.18,1.36,5.15.8,6.1-1.16A3.7,3.7,0,0,0,127.46,19.16Z"/><path class="cls-12" d="M127.48,28.12c-.69-.46-6,5.65-13.76,5.47s-12.63-6.56-13.2-6.22,3.94,10.23,13.83,10.1C123.6,37.36,128.24,28.62,127.48,28.12Z"/><path class="cls-11" d="M125.48,24.41a1.23,1.23,0,0,0-.61,1.61,1.13,1.13,0,0,0,.87.66,1.24,1.24,0,0,0,1.31-1.27A1.23,1.23,0,0,0,125.48,24.41Z"/></g><path class="cls-13" d="M136.19,28.56c1.34-3.83,1.7-7.36.28-10.31C117.37,4.65,100.33,12.07,92,31.1c0,0,3.85-23.31,23.3-26.42S138.93,15.5,138.93,15.5A22.36,22.36,0,0,1,136.19,28.56Z"/><path class="cls-14" d="M138.93,15.5C123.82,1.37,100.57,6,92,31.1c0,0,3.85-23.31,23.3-26.42S138.93,15.5,138.93,15.5Z"/><path class="cls-15" d="M3.39,28.56c-1.34-3.83-1.7-7.36-.28-10.31,19.1-13.6,36.15-6.18,44.52,12.85,0,0-1.68-27.63-21.14-30.74S.66,15.5.66,15.5A22.28,22.28,0,0,0,3.39,28.56Z"/><path class="cls-16" d="M3.39,28.56c-1.34-3.83-1.7-7.36-.28-10.31,19.1-13.6,36.15-6.18,44.52,12.85,0,0-1.68-25.47-21.14-28.58S.66,15.5.66,15.5A22.28,22.28,0,0,0,3.39,28.56Z"/><path class="cls-5" d="M.66,15.5S-3.1,31.65,7.36,38.44c10.2,6.63,26.05,3.12,26.05,3.12Z"/><path class="cls-17" d="M3.39,28.56c8.2,14.94,32.27,20.66,44.24,2.54,0,0-3.85-23.31-23.3-26.42S.66,15.5.66,15.5A22.28,22.28,0,0,0,3.39,28.56Z"/><g class="cls-18"><circle class="cls-19" cx="25.57" cy="21.94" r="17.68"/><path class="cls-20" d="M25.57,4.26A17.69,17.69,0,1,0,43.26,21.94,17.68,17.68,0,0,0,25.57,4.26Zm0,34.36A16.68,16.68,0,1,1,42.25,21.94,16.68,16.68,0,0,1,25.57,38.62Z"/><circle class="cls-21" cx="25.57" cy="21.94" r="10.47"/><path class="cls-11" d="M38.32,19.16C38,18,37,15.58,35.76,15.5c-2-.12-5,5.62-3.48,7.44,1.17,1.36,5.15.8,6.1-1.16A3.81,3.81,0,0,0,38.32,19.16Z"/><path class="cls-22" d="M12.11,28.12c.69-.46,6,5.65,13.75,5.47S38.5,27,39.06,27.37,35.12,37.6,25.23,37.47C16,37.36,11.34,28.62,12.11,28.12Z"/><path class="cls-11" d="M36.33,24.41A1.23,1.23,0,0,0,35.72,26a1.13,1.13,0,0,0,.88.66,1.24,1.24,0,0,0,1.3-1.27A1.22,1.22,0,0,0,36.33,24.41Z"/></g><path class="cls-13" d="M3.39,28.56c-1.34-3.83-1.7-7.36-.28-10.31,19.1-13.6,36.15-6.18,44.52,12.85,0,0-3.85-23.31-23.3-26.42S.66,15.5.66,15.5A22.28,22.28,0,0,0,3.39,28.56Z"/><path class="cls-14" d="M.66,15.5C15.77,1.37,39,6,47.63,31.1c0,0-3.84-23.31-23.3-26.42S.66,15.5.66,15.5Z"/></g></g></g></svg>