<svg xmlns="http://www.w3.org/2000/svg" xmlns:xlink="http://www.w3.org/1999/xlink" viewBox="0 0 138.67 41.09"><defs><style>.cls-1{isolation:isolate;}.cls-2{fill:#dd6b7c;}.cls-3{fill:#dd4c6a;}.cls-4{fill:url(#Áåçûìÿííûé_ãðàäèåíò_300);}.cls-5{fill:#4e1b3d;}.cls-6{fill:url(#Áåçûìÿííûé_ãðàäèåíò_28);}.cls-7{fill:url(#Áåçûìÿííûé_ãðàäèåíò_34);}.cls-14,.cls-8,.cls-9{mix-blend-mode:multiply;}.cls-8{fill:url(#Áåçûìÿííûé_ãðàäèåíò_37);}.cls-9{fill:#d177b8;opacity:0.6;}.cls-10{fill:#fff;}.cls-11{fill:url(#Áåçûìÿííûé_ãðàäèåíò_300-2);}.cls-12{fill:url(#Áåçûìÿííûé_ãðàäèåíò_28-2);}.cls-13{fill:url(#Áåçûìÿííûé_ãðàäèåíò_34-2);}.cls-14{fill:url(#Áåçûìÿííûé_ãðàäèåíò_37-2);}</style><linearGradient id="Áåçûìÿííûé_ãðàäèåíò_300" x1="115.7" y1="40.85" x2="115.7" y2="3.14" gradientUnits="userSpaceOnUse"><stop offset="0" stop-color="#eee2ff"/><stop offset="1" stop-color="#bdc9fb"/></linearGradient><linearGradient id="Áåçûìÿííûé_ãðàäèåíò_28" x1="112.71" y1="37.23" x2="112.71" y2="11.2" gradientUnits="userSpaceOnUse"><stop offset="0" stop-color="#a93749"/><stop offset="1" stop-color="#751540"/></linearGradient><linearGradient id="Áåçûìÿííûé_ãðàäèåíò_34" x1="112.71" y1="36.47" x2="112.71" y2="11.96" gradientUnits="userSpaceOnUse"><stop offset="0" stop-color="#fe6e49"/><stop offset="1" stop-color="#751540"/></linearGradient><linearGradient id="Áåçûìÿííûé_ãðàäèåíò_37" x1="112.71" y1="32.16" x2="112.71" y2="16.26" gradientUnits="userSpaceOnUse"><stop offset="0" stop-color="#caa7db"/><stop offset="0.99" stop-color="#8460b8"/></linearGradient><linearGradient id="Áåçûìÿííûé_ãðàäèåíò_300-2" x1="1001.42" y1="40.85" x2="1001.42" y2="3.14" gradientTransform="matrix(-1, 0, 0, 1, 1024.39, 0)" xlink:href="#Áåçûìÿííûé_ãðàäèåíò_300"/><linearGradient id="Áåçûìÿííûé_ãðàäèåíò_28-2" x1="998.43" y1="37.23" x2="998.43" y2="11.2" gradientTransform="matrix(-1, 0, 0, 1, 1024.39, 0)" xlink:href="#Áåçûìÿííûé_ãðàäèåíò_28"/><linearGradient id="Áåçûìÿííûé_ãðàäèåíò_34-2" x1="998.43" y1="36.47" x2="998.43" y2="11.96" gradientTransform="matrix(-1, 0, 0, 1, 1024.39, 0)" xlink:href="#Áåçûìÿííûé_ãðàäèåíò_34"/><linearGradient id="Áåçûìÿííûé_ãðàäèåíò_37-2" x1="998.43" y1="32.16" x2="998.43" y2="16.26" gradientTransform="matrix(-1, 0, 0, 1, 1024.39, 0)" xlink:href="#Áåçûìÿííûé_ãðàäèåíò_37"/></defs><g class="cls-1"><g id="Layer_2" data-name="Layer 2"><g id="layer1"><path class="cls-2" d="M105.94,40.62s17.33,3.48,29.1-8.51l-.86-4.32S124.73,38.84,105.94,40.62Z"/><path class="cls-3" d="M96.2,20.54S99.2,3.66,113.71.47s22.22,10.86,22.22,10.86S112.12-7.73,96.2,20.54Z"/><path class="cls-4" d="M96.07,33.49c1.43,6.83,11.72,9.06,23.56,6,17.05-4.35,17.76-17.06,15.2-24S124.85.07,110.58,4.25,94.13,24.26,96.07,33.49Z"/><path class="cls-5" d="M95.73,31.49S93.55,14,109.3,7.09c13.92-6.11,23.79,3.61,25.8,9.24,0,0,3.65-3.69,3.56-5.28-.32-6.21-9.55-11.4-23.08-9.32C102.22,3.78,94.19,14.7,95.73,31.49Z"/><path class="cls-2" d="M95.73,31.49s0,5,.74,6.82,10,2.34,10,2.34S96.72,40.1,95.73,31.49Z"/><circle class="cls-6" cx="112.71" cy="24.21" r="13.01"/><circle class="cls-7" cx="112.71" cy="24.21" r="12.25"/><circle class="cls-8" cx="112.71" cy="24.21" r="7.95"/><path class="cls-9" d="M95.73,31.49S97,16.42,111,12c15.83-5,24.06,4.37,24.06,4.37S131.24,2.77,113.75,5.25,95.43,23.21,95.73,31.49Z"/><path class="cls-10" d="M123.34,21.48c-.78.7,2.87.87,5.59-.2,2.44-1,3.61-2.52,3.38-2.8S126.45,18.72,123.34,21.48Z"/><path class="cls-10" d="M121.27,22.18c-1-.36-2.24.18-2.29.73s1.24,1.23,1.83,1S121.85,22.37,121.27,22.18Z"/><path class="cls-2" d="M32.73,40.62S15.4,44.1,3.62,32.11l.87-4.32S13.93,38.84,32.73,40.62Z"/><path class="cls-3" d="M42.47,20.54S39.47,3.66,25,.47,2.73,11.33,2.73,11.33,26.55-7.73,42.47,20.54Z"/><path class="cls-11" d="M42.6,33.49c-1.43,6.83-11.72,9.06-23.56,6C2,35.18,1.28,22.47,3.83,15.5S13.81.07,28.09,4.25,44.53,24.26,42.6,33.49Z"/><path class="cls-5" d="M42.94,31.49S45.11,14,29.37,7.09C15.45,1,5.58,10.7,3.56,16.33c0,0-3.64-3.69-3.56-5.28C.32,4.84,9.56-.35,23.09,1.73,36.45,3.78,44.48,14.7,42.94,31.49Z"/><path class="cls-2" d="M42.94,31.49s0,5-.75,6.82-10,2.34-10,2.34S41.94,40.1,42.94,31.49Z"/><circle class="cls-12" cx="25.96" cy="24.21" r="13.01"/><circle class="cls-13" cx="25.96" cy="24.21" r="12.25"/><circle class="cls-14" cx="25.96" cy="24.21" r="7.95"/><path class="cls-9" d="M42.94,31.49S41.67,16.42,27.63,12c-15.84-5-24.07,4.37-24.07,4.37S7.43,2.77,24.92,5.25,43.24,23.21,42.94,31.49Z"/><path class="cls-10" d="M15.32,21.48c.79.7-2.86.87-5.58-.2-2.44-1-3.62-2.52-3.38-2.8S12.22,18.72,15.32,21.48Z"/><path class="cls-10" d="M17.4,22.18c1-.36,2.24.18,2.29.73s-1.24,1.23-1.84,1S16.82,22.37,17.4,22.18Z"/></g></g></g></svg>