<svg xmlns="http://www.w3.org/2000/svg" xmlns:xlink="http://www.w3.org/1999/xlink" viewBox="0 0 146.32 50.92"><defs><style>.cls-1{fill:none;}.cls-2{isolation:isolate;}.cls-3{fill:url(#_2);}.cls-4{clip-path:url(#clip-path);}.cls-5{fill:url(#_19);}.cls-6{fill:url(#_893);}.cls-18,.cls-7,.cls-8{mix-blend-mode:multiply;}.cls-7{fill:url(#_43);}.cls-8{fill:#cf77b6;opacity:0.6;}.cls-9{fill:#b11d51;}.cls-10{fill:#870a2c;}.cls-11{fill:#2e031e;}.cls-12{fill:url(#_2-2);}.cls-13{fill:url(#_2-3);}.cls-14{fill:url(#_2-4);}.cls-15{clip-path:url(#clip-path-2);}.cls-16{fill:url(#_19-2);}.cls-17{fill:url(#_893-2);}.cls-18{fill:url(#_43-2);}.cls-19{fill:url(#_2-5);}.cls-20{fill:url(#_2-6);}</style><linearGradient id="_2" x1="452.88" y1="-631.99" x2="452.88" y2="-668.17" gradientTransform="translate(-525.64 599.13) rotate(9.01)" gradientUnits="userSpaceOnUse"><stop offset="0" stop-color="#ece0ff"/><stop offset="1" stop-color="#bbc7f9"/></linearGradient><clipPath id="clip-path"><path id="SVGID" class="cls-1" d="M.61,22.49C-2,26.09,4,43.19,14.4,44.84s31.24-5.13,31.24-5.13,1.77-19.28-8.51-26.55S5.33,16,.61,22.49Z"/></clipPath><linearGradient id="_19" x1="439.33" y1="-654.06" x2="470" y2="-654.06" gradientTransform="translate(-525.64 599.13) rotate(9.01)" gradientUnits="userSpaceOnUse"><stop offset="0" stop-color="#781813"/><stop offset="1" stop-color="#45000a"/></linearGradient><linearGradient id="_893" x1="25.86" y1="15.16" x2="25.86" y2="35.81" gradientTransform="translate(13.97 -9.13) rotate(27.2)" gradientUnits="userSpaceOnUse"><stop offset="0" stop-color="#70310c"/><stop offset="1" stop-color="#5e191c"/></linearGradient><linearGradient id="_43" x1="454.67" y1="-647.9" x2="454.67" y2="-661.29" gradientTransform="translate(-525.64 599.13) rotate(9.01)" gradientUnits="userSpaceOnUse"><stop offset="0" stop-color="#604300"/><stop offset="1" stop-color="#471400"/></linearGradient><linearGradient id="_2-2" x1="1023.97" y1="-2782.8" x2="1023.97" y2="-2785.91" gradientTransform="matrix(0.83, 0.56, -0.56, 0.83, -2390.76, 1766.3)" xlink:href="#_2"/><linearGradient id="_2-3" x1="449.56" y1="-648.22" x2="449.56" y2="-650.15" xlink:href="#_2"/><linearGradient id="_2-4" x1="-7721.84" y1="664.32" x2="-7721.84" y2="628.14" gradientTransform="matrix(-0.99, 0.16, 0.16, 0.99, -7605.21, 599.13)" xlink:href="#_2"/><clipPath id="clip-path-2"><path id="SVGID-2" data-name="SVGID" class="cls-1" d="M145.71,22.69c2.61,3.61-3.36,20.7-13.79,22.36s-31.24-5.13-31.24-5.13-1.77-19.28,8.51-26.56S141,16.18,145.71,22.69Z"/></clipPath><linearGradient id="_19-2" x1="-7735.38" y1="642.25" x2="-7704.71" y2="642.25" gradientTransform="matrix(-1, 0.02, 0.02, 1, -7609.19, -493.75)" xlink:href="#_19"/><linearGradient id="_893-2" x1="120.46" y1="14.41" x2="120.46" y2="38.1" gradientTransform="translate(21.18 -47.98) rotate(24.63)" xlink:href="#_893"/><linearGradient id="_43-2" x1="-7720.05" y1="648.41" x2="-7720.05" y2="635.02" gradientTransform="matrix(-0.99, 0.16, 0.16, 0.99, -7605.21, 599.13)" xlink:href="#_43"/><linearGradient id="_2-5" x1="-5844.78" y1="1836.34" x2="-5844.78" y2="1833.24" gradientTransform="matrix(-0.83, 0.56, 0.56, 0.83, -5740.09, 1766.3)" xlink:href="#_2"/><linearGradient id="_2-6" x1="-7725.16" y1="648.09" x2="-7725.16" y2="646.16" gradientTransform="matrix(-0.99, 0.16, 0.16, 0.99, -7605.21, 599.13)" xlink:href="#_2"/></defs><g class="cls-2"><g id="Avatar_face" data-name="Avatar face"><path class="cls-3" d="M45.64,39.71S24.83,46.5,14.4,44.84C5.64,43.45,0,31.18,0,25.15a4.56,4.56,0,0,1,.61-2.66C5.33,16,26.85,5.88,37.13,13.16c5.15,3.64,7.28,10.31,8.12,16.06A49.67,49.67,0,0,1,45.64,39.71Z"/><g class="cls-4"><circle class="cls-5" cx="25.86" cy="24.32" r="15.34"/><circle class="cls-6" cx="25.86" cy="24.32" r="14.11" transform="translate(-8.25 14.51) rotate(-27.2)"/><circle class="cls-7" cx="25.86" cy="24.32" r="8.65"/></g><path class="cls-8" d="M45.25,29.22C37.31,23.74,22.84,21,0,25.15a4.56,4.56,0,0,1,.61-2.66C5.33,16,26.85,5.88,37.13,13.16,42.28,16.8,44.41,23.47,45.25,29.22Z"/><path class="cls-9" d="M21,4.36C9,6.06,1.3,21.64,1.3,21.64s12.51-12.18,27.55-7.7c12.86,3.84,15.81,12.14,15.81,12.12S45,1,21,4.36Z"/><path class="cls-10" d="M1.74,32.47C7.28,38.55,12.1,44.85,24,44.7a22.23,22.23,0,0,1-13.62-1.05C3.26,40.68,1.74,32.47,1.74,32.47Z"/><path class="cls-10" d="M45.67,33.56s3.1,3.67,1.45,6.11-8.5,2.07-8.5,2.07,5.23-1.45,6.24-3S45.67,33.56,45.67,33.56Z"/><path class="cls-11" d="M.61,22.49S3.77,12.73,23.48,11c15.25-1.34,21.11,8.53,21.93,10.32s-.75,4.75-.75,4.75S37,14.41,22.7,14.47.61,22.49.61,22.49Z"/><path class="cls-12" d="M8.63,26.14s1-1,7.92,1.87c.23.09-.07.48-.31.45C14.54,28.24,8.64,27.37,8.63,26.14Z"/><path class="cls-13" d="M19.42,27.61c-1,.86-.17,1.61.92,1.74.8.09.92-1.17.61-1.5S20.06,27.07,19.42,27.61Z"/><path class="cls-14" d="M100.68,39.92s20.81,6.78,31.24,5.13c8.76-1.39,14.37-13.66,14.4-19.7a4.58,4.58,0,0,0-.61-2.66c-4.72-6.51-26.24-16.6-36.52-9.33C104,17,101.91,23.68,101.07,29.42A49.77,49.77,0,0,0,100.68,39.92Z"/><g class="cls-15"><circle class="cls-16" cx="120.46" cy="24.52" r="15.34" transform="translate(-2.25 17.2) rotate(-8.09)"/><circle class="cls-17" cx="120.46" cy="24.52" r="14.11" transform="translate(0.74 52.44) rotate(-24.63)"/><path class="cls-18" d="M111.92,25.88A8.65,8.65,0,1,0,119.1,16,8.65,8.65,0,0,0,111.92,25.88Z"/></g><path class="cls-8" d="M101.07,29.42c7.94-5.48,22.41-8.17,45.25-4.07a4.58,4.58,0,0,0-.61-2.66c-4.72-6.51-26.24-16.6-36.52-9.33C104,17,101.91,23.68,101.07,29.42Z"/><path class="cls-9" d="M125.32,4.56c12,1.7,19.7,17.29,19.7,17.29s-12.51-12.19-27.55-7.7C104.61,18,101.66,26.28,101.66,26.27S101.37,1.17,125.32,4.56Z"/><path class="cls-10" d="M144.58,32.67c-5.54,6.09-10.36,12.39-22.23,12.24A22.28,22.28,0,0,0,136,43.85C143.06,40.88,144.58,32.67,144.58,32.67Z"/><path class="cls-10" d="M100.65,33.76s-3.1,3.67-1.45,6.11S107.7,42,107.7,42s-5.23-1.46-6.24-3.05S100.65,33.76,100.65,33.76Z"/><path class="cls-11" d="M145.71,22.69s-3.17-9.75-22.87-11.49c-15.25-1.35-21.11,8.53-21.93,10.32s.75,4.75.75,4.75,7.71-11.66,22-11.6S145.71,22.69,145.71,22.69Z"/><path class="cls-19" d="M137.69,26.35s-1-1-7.92,1.86c-.23.1.07.49.31.45C131.78,28.44,137.68,27.58,137.69,26.35Z"/><path class="cls-20" d="M126.9,27.82c1,.85.17,1.61-.92,1.73-.8.1-.92-1.16-.61-1.49S126.26,27.27,126.9,27.82Z"/></g></g></svg>