<svg xmlns="http://www.w3.org/2000/svg" xmlns:xlink="http://www.w3.org/1999/xlink" width="500" zoomAndPan="magnify" viewBox="0 0 375 374.999991" height="500" preserveAspectRatio="xMidYMid meet" version="1.0"><defs><filter x="0%" y="0%" width="100%" height="100%" id="3fe8d956fe"><feColorMatrix values="0 0 0 0 1 0 0 0 0 1 0 0 0 0 1 0 0 0 1 0" color-interpolation-filters="sRGB"/></filter><clipPath id="6e4f36a1e3"><path d="M 31.367188 53.902344 L 343.773438 53.902344 L 343.773438 367 L 31.367188 367 Z M 31.367188 53.902344 " clip-rule="nonzero"/></clipPath><clipPath id="653cf98091"><path d="M 287 53.902344 L 296 53.902344 L 296 72 L 287 72 Z M 287 53.902344 " clip-rule="nonzero"/></clipPath><clipPath id="e0930bcc62"><path d="M 96 357 L 106 357 L 106 374.527344 L 96 374.527344 Z M 96 357 " clip-rule="nonzero"/></clipPath><mask id="90b0965161"><g filter="url(#3fe8d956fe)"><rect x="-37.5" width="450" fill="#000000" y="-37.499999" height="449.999989" fill-opacity="0.3"/></g></mask><clipPath id="c8fa20c44d"><path d="M 0.839844 0.640625 L 164.039062 0.640625 L 164.039062 33.761719 L 0.839844 33.761719 Z M 0.839844 0.640625 " clip-rule="nonzero"/></clipPath><clipPath id="e30e60bc2c"><rect x="0" width="165" y="0" height="34"/></clipPath><mask id="aaf8f2250a"><g filter="url(#3fe8d956fe)"><rect x="-37.5" width="450" fill="#000000" y="-37.499999" height="449.999989" fill-opacity="0.3"/></g></mask><clipPath id="f508c6aa56"><path d="M 0.078125 1 L 139 1 L 139 34.320312 L 0.078125 34.320312 Z M 0.078125 1 " clip-rule="nonzero"/></clipPath><clipPath id="00e018913b"><rect x="0" width="140" y="0" height="35"/></clipPath><mask id="3f18c334a4"><g filter="url(#3fe8d956fe)"><rect x="-37.5" width="450" fill="#000000" y="-37.499999" height="449.999989" fill-opacity="0.3"/></g></mask><clipPath id="9e7ff97b8e"><path d="M 0.28125 0.078125 L 76.839844 0.078125 L 76.839844 33.199219 L 0.28125 33.199219 Z M 0.28125 0.078125 " clip-rule="nonzero"/></clipPath><clipPath id="04e9f86629"><rect x="0" width="77" y="0" height="34"/></clipPath><clipPath id="08dc11c6a3"><path d="M 131 4 L 218 4 L 218 82 L 131 82 Z M 131 4 " clip-rule="nonzero"/></clipPath><clipPath id="e79c9d4825"><path d="M 122.902344 0 L 260.191406 10.722656 L 252.03125 115.222656 L 114.742188 104.503906 Z M 122.902344 0 " clip-rule="nonzero"/></clipPath><clipPath id="09605adcaf"><path d="M 122.902344 0 L 260.191406 10.722656 L 252.03125 115.222656 L 114.742188 104.503906 Z M 122.902344 0 " clip-rule="nonzero"/></clipPath><clipPath id="1e49894a46"><path d="M 142 60 L 229 60 L 229 101 L 142 101 Z M 142 60 " clip-rule="nonzero"/></clipPath><clipPath id="8a0106f7ca"><path d="M 122.902344 0 L 260.191406 10.722656 L 252.03125 115.222656 L 114.742188 104.503906 Z M 122.902344 0 " clip-rule="nonzero"/></clipPath><clipPath id="d400c83f7b"><path d="M 122.902344 0 L 260.191406 10.722656 L 252.03125 115.222656 L 114.742188 104.503906 Z M 122.902344 0 " clip-rule="nonzero"/></clipPath><clipPath id="7dc75298c9"><path d="M 117 69 L 254 69 L 254 107 L 117 107 Z M 117 69 " clip-rule="nonzero"/></clipPath><clipPath id="b7cd583b07"><path d="M 122.902344 0 L 260.191406 10.722656 L 252.03125 115.222656 L 114.742188 104.503906 Z M 122.902344 0 " clip-rule="nonzero"/></clipPath><clipPath id="d7e6530a1c"><path d="M 122.902344 0 L 260.191406 10.722656 L 252.03125 115.222656 L 114.742188 104.503906 Z M 122.902344 0 " clip-rule="nonzero"/></clipPath><clipPath id="2643633a85"><path d="M 135 79 L 236 79 L 236 103 L 135 103 Z M 135 79 " clip-rule="nonzero"/></clipPath><clipPath id="f29063af36"><path d="M 122.902344 0 L 260.191406 10.722656 L 252.03125 115.222656 L 114.742188 104.503906 Z M 122.902344 0 " clip-rule="nonzero"/></clipPath><clipPath id="55c032e445"><path d="M 122.902344 0 L 260.191406 10.722656 L 252.03125 115.222656 L 114.742188 104.503906 Z M 122.902344 0 " clip-rule="nonzero"/></clipPath></defs><g clip-path="url(#6e4f36a1e3)"><path fill="#b8b8d1" d="M 343.609375 210.101562 C 343.609375 212.65625 343.546875 215.210938 343.421875 217.761719 C 343.296875 220.316406 343.109375 222.863281 342.859375 225.40625 C 342.609375 227.949219 342.296875 230.484375 341.921875 233.011719 C 341.546875 235.539062 341.109375 238.054688 340.609375 240.5625 C 340.113281 243.066406 339.554688 245.558594 338.933594 248.039062 C 338.3125 250.515625 337.628906 252.976562 336.886719 255.421875 C 336.148438 257.867188 335.34375 260.292969 334.484375 262.699219 C 333.625 265.105469 332.703125 267.488281 331.726562 269.847656 C 330.75 272.207031 329.714844 274.542969 328.621094 276.855469 C 327.527344 279.164062 326.378906 281.445312 325.175781 283.699219 C 323.972656 285.953125 322.710938 288.175781 321.398438 290.367188 C 320.085938 292.558594 318.71875 294.714844 317.300781 296.839844 C 315.878906 298.964844 314.410156 301.054688 312.886719 303.105469 C 311.363281 305.15625 309.792969 307.171875 308.171875 309.144531 C 306.550781 311.121094 304.882812 313.054688 303.167969 314.949219 C 301.453125 316.839844 299.691406 318.691406 297.882812 320.5 C 296.078125 322.304688 294.226562 324.066406 292.332031 325.78125 C 290.441406 327.496094 288.507812 329.167969 286.53125 330.789062 C 284.554688 332.410156 282.542969 333.980469 280.492188 335.5 C 278.4375 337.023438 276.351562 338.496094 274.226562 339.914062 C 272.101562 341.332031 269.941406 342.699219 267.75 344.015625 C 265.558594 345.328125 263.335938 346.585938 261.085938 347.789062 C 258.832031 348.996094 256.550781 350.144531 254.238281 351.234375 C 251.929688 352.328125 249.59375 353.363281 247.234375 354.339844 C 244.875 355.320312 242.488281 356.238281 240.085938 357.097656 C 237.679688 357.960938 235.253906 358.761719 232.808594 359.503906 C 230.363281 360.246094 227.902344 360.925781 225.421875 361.546875 C 222.945312 362.167969 220.453125 362.726562 217.945312 363.226562 C 215.441406 363.722656 212.921875 364.160156 210.394531 364.535156 C 207.867188 364.910156 205.332031 365.222656 202.792969 365.472656 C 200.25 365.722656 197.699219 365.910156 195.148438 366.039062 C 192.597656 366.164062 190.042969 366.226562 187.488281 366.226562 C 184.933594 366.226562 182.378906 366.164062 179.828125 366.039062 C 177.277344 365.910156 174.726562 365.722656 172.1875 365.472656 C 169.644531 365.222656 167.109375 364.910156 164.582031 364.535156 C 162.054688 364.160156 159.535156 363.722656 157.03125 363.226562 C 154.523438 362.726562 152.03125 362.167969 149.554688 361.546875 C 147.074219 360.925781 144.613281 360.246094 142.167969 359.503906 C 139.722656 358.761719 137.296875 357.960938 134.890625 357.097656 C 132.488281 356.238281 130.101562 355.320312 127.742188 354.339844 C 125.382812 353.363281 123.046875 352.328125 120.738281 351.234375 C 118.425781 350.144531 116.144531 348.996094 113.894531 347.789062 C 111.640625 346.585938 109.417969 345.328125 107.226562 344.015625 C 105.035156 342.699219 102.875 341.332031 100.75 339.914062 C 98.625 338.496094 96.539062 337.023438 94.484375 335.5 C 92.433594 333.980469 90.421875 332.40625 88.445312 330.789062 C 86.46875 329.167969 84.535156 327.496094 82.644531 325.78125 C 80.75 324.066406 78.898438 322.304688 77.09375 320.5 C 75.285156 318.691406 73.523438 316.839844 71.808594 314.949219 C 70.09375 313.054688 68.425781 311.121094 66.804688 309.144531 C 65.183594 307.171875 63.613281 305.15625 62.089844 303.105469 C 60.566406 301.050781 59.097656 298.964844 57.675781 296.839844 C 56.257812 294.714844 54.890625 292.558594 53.578125 290.367188 C 52.265625 288.175781 51.003906 285.953125 49.800781 283.699219 C 48.597656 281.445312 47.449219 279.164062 46.355469 276.855469 C 45.261719 274.542969 44.226562 272.207031 43.25 269.847656 C 42.273438 267.488281 41.351562 265.105469 40.492188 262.699219 C 39.632812 260.292969 38.832031 257.867188 38.089844 255.421875 C 37.347656 252.976562 36.664062 250.515625 36.042969 248.039062 C 35.421875 245.558594 34.863281 243.066406 34.367188 240.5625 C 33.867188 238.054688 33.429688 235.539062 33.054688 233.011719 C 32.679688 230.484375 32.367188 227.949219 32.117188 225.40625 C 31.867188 222.863281 31.679688 220.316406 31.554688 217.761719 C 31.429688 215.210938 31.367188 212.65625 31.367188 210.101562 C 31.367188 207.546875 31.429688 204.996094 31.554688 202.441406 C 31.679688 199.890625 31.867188 197.34375 32.117188 194.800781 C 32.367188 192.257812 32.679688 189.722656 33.054688 187.195312 C 33.429688 184.667969 33.867188 182.152344 34.367188 179.644531 C 34.863281 177.140625 35.421875 174.648438 36.042969 172.167969 C 36.664062 169.691406 37.347656 167.226562 38.089844 164.78125 C 38.832031 162.335938 39.632812 159.914062 40.492188 157.507812 C 41.351562 155.101562 42.273438 152.71875 43.25 150.355469 C 44.226562 147.996094 45.261719 145.660156 46.355469 143.351562 C 47.449219 141.042969 48.597656 138.761719 49.800781 136.507812 C 51.003906 134.253906 52.265625 132.03125 53.578125 129.839844 C 54.890625 127.648438 56.257812 125.492188 57.675781 123.367188 C 59.097656 121.242188 60.566406 119.152344 62.089844 117.101562 C 63.613281 115.046875 65.183594 113.035156 66.804688 111.058594 C 68.425781 109.085938 70.09375 107.152344 71.808594 105.257812 C 73.523438 103.363281 75.285156 101.515625 77.09375 99.707031 C 78.898438 97.902344 80.75 96.140625 82.644531 94.421875 C 84.535156 92.707031 86.46875 91.039062 88.445312 89.417969 C 90.421875 87.796875 92.433594 86.226562 94.484375 84.703125 C 96.539062 83.183594 98.625 81.710938 100.75 80.292969 C 102.875 78.871094 105.035156 77.503906 107.226562 76.191406 C 109.417969 74.878906 111.640625 73.621094 113.894531 72.414062 C 116.144531 71.210938 118.425781 70.0625 120.738281 68.96875 C 123.046875 67.878906 125.382812 66.84375 127.742188 65.863281 C 130.101562 64.886719 132.488281 63.96875 134.890625 63.105469 C 137.296875 62.246094 139.722656 61.445312 142.167969 60.703125 C 144.613281 59.960938 147.074219 59.28125 149.554688 58.660156 C 152.03125 58.039062 154.523438 57.480469 157.03125 56.980469 C 159.535156 56.480469 162.054688 56.046875 164.582031 55.671875 C 167.109375 55.296875 169.644531 54.984375 172.1875 54.730469 C 174.726562 54.480469 177.277344 54.292969 179.828125 54.167969 C 182.378906 54.042969 184.933594 53.980469 187.488281 53.980469 C 190.042969 53.980469 192.597656 54.042969 195.148438 54.167969 C 197.699219 54.292969 200.25 54.480469 202.792969 54.730469 C 205.332031 54.984375 207.867188 55.296875 210.394531 55.671875 C 212.921875 56.046875 215.441406 56.480469 217.945312 56.980469 C 220.453125 57.480469 222.945312 58.039062 225.421875 58.660156 C 227.902344 59.28125 230.363281 59.960938 232.808594 60.703125 C 235.253906 61.445312 237.679688 62.246094 240.085938 63.105469 C 242.488281 63.96875 244.875 64.886719 247.234375 65.863281 C 249.59375 66.84375 251.929688 67.878906 254.238281 68.96875 C 256.550781 70.0625 258.832031 71.210938 261.085938 72.414062 C 263.335938 73.621094 265.558594 74.878906 267.75 76.191406 C 269.941406 77.503906 272.101562 78.871094 274.226562 80.292969 C 276.351562 81.710938 278.4375 83.183594 280.492188 84.703125 C 282.542969 86.226562 284.554688 87.796875 286.53125 89.417969 C 288.507812 91.039062 290.441406 92.707031 292.332031 94.421875 C 294.226562 96.140625 296.078125 97.902344 297.882812 99.707031 C 299.691406 101.515625 301.453125 103.363281 303.167969 105.257812 C 304.882812 107.152344 306.550781 109.085938 308.171875 111.058594 C 309.792969 113.035156 311.363281 115.046875 312.886719 117.101562 C 314.410156 119.152344 315.878906 121.242188 317.300781 123.367188 C 318.71875 125.492188 320.085938 127.648438 321.398438 129.839844 C 322.710938 132.03125 323.972656 134.253906 325.175781 136.507812 C 326.378906 138.761719 327.527344 141.042969 328.621094 143.351562 C 329.714844 145.660156 330.75 147.996094 331.726562 150.355469 C 332.703125 152.71875 333.625 155.101562 334.484375 157.507812 C 335.34375 159.914062 336.148438 162.335938 336.886719 164.78125 C 337.628906 167.226562 338.3125 169.691406 338.933594 172.167969 C 339.554688 174.648438 340.113281 177.140625 340.609375 179.644531 C 341.109375 182.152344 341.546875 184.667969 341.921875 187.195312 C 342.296875 189.722656 342.609375 192.257812 342.859375 194.800781 C 343.109375 197.34375 343.296875 199.890625 343.421875 202.441406 C 343.546875 204.996094 343.609375 207.546875 343.609375 210.101562 Z M 343.609375 210.101562 " fill-opacity="1" fill-rule="nonzero"/></g><path fill="#ffc145" d="M 326.265625 71.328125 C 326.265625 72.464844 326.320312 73.59375 326.429688 74.710938 C 326.542969 75.828125 326.707031 76.914062 326.925781 77.964844 C 327.140625 79.019531 327.410156 80.019531 327.726562 80.964844 C 328.042969 81.910156 328.402344 82.789062 328.804688 83.59375 C 329.207031 84.398438 329.644531 85.117188 330.117188 85.75 C 330.59375 86.382812 331.09375 86.917969 331.617188 87.355469 C 332.144531 87.789062 332.6875 88.117188 333.246094 88.339844 C 333.804688 88.5625 334.367188 88.675781 334.9375 88.675781 C 334.367188 88.675781 333.804688 88.785156 333.246094 89.007812 C 332.6875 89.230469 332.144531 89.558594 331.617188 89.996094 C 331.09375 90.429688 330.59375 90.964844 330.117188 91.597656 C 329.644531 92.230469 329.207031 92.949219 328.804688 93.753906 C 328.402344 94.558594 328.042969 95.4375 327.726562 96.382812 C 327.410156 97.332031 327.140625 98.332031 326.925781 99.382812 C 326.707031 100.433594 326.542969 101.519531 326.429688 102.636719 C 326.320312 103.753906 326.265625 104.882812 326.265625 106.019531 C 326.265625 104.882812 326.207031 103.753906 326.097656 102.636719 C 325.984375 101.519531 325.820312 100.433594 325.605469 99.382812 C 325.386719 98.332031 325.117188 97.332031 324.800781 96.382812 C 324.484375 95.4375 324.125 94.558594 323.722656 93.753906 C 323.320312 92.949219 322.882812 92.230469 322.410156 91.597656 C 321.9375 90.964844 321.4375 90.429688 320.910156 89.996094 C 320.382812 89.558594 319.839844 89.230469 319.28125 89.007812 C 318.722656 88.785156 318.160156 88.675781 317.589844 88.675781 C 318.160156 88.675781 318.722656 88.5625 319.28125 88.339844 C 319.839844 88.117188 320.382812 87.789062 320.910156 87.355469 C 321.4375 86.917969 321.9375 86.382812 322.410156 85.75 C 322.882812 85.117188 323.320312 84.398438 323.722656 83.59375 C 324.125 82.789062 324.484375 81.910156 324.800781 80.964844 C 325.117188 80.019531 325.386719 79.019531 325.605469 77.964844 C 325.820312 76.914062 325.984375 75.828125 326.097656 74.710938 C 326.207031 73.59375 326.265625 72.464844 326.265625 71.328125 " fill-opacity="1" fill-rule="nonzero"/><g clip-path="url(#653cf98091)"><path fill="#ffc145" d="M 291.570312 53.980469 C 291.570312 54.550781 291.597656 55.113281 291.652344 55.671875 C 291.707031 56.230469 291.792969 56.773438 291.898438 57.300781 C 292.007812 57.824219 292.144531 58.324219 292.300781 58.800781 C 292.460938 59.273438 292.640625 59.710938 292.839844 60.113281 C 293.042969 60.515625 293.261719 60.875 293.496094 61.191406 C 293.734375 61.507812 293.984375 61.777344 294.246094 61.992188 C 294.511719 62.210938 294.78125 62.375 295.0625 62.488281 C 295.339844 62.597656 295.621094 62.652344 295.90625 62.652344 C 295.621094 62.652344 295.339844 62.710938 295.0625 62.820312 C 294.78125 62.929688 294.511719 63.097656 294.246094 63.3125 C 293.984375 63.53125 293.734375 63.800781 293.496094 64.117188 C 293.261719 64.433594 293.042969 64.792969 292.839844 65.195312 C 292.640625 65.597656 292.460938 66.035156 292.300781 66.507812 C 292.144531 66.980469 292.007812 67.480469 291.898438 68.007812 C 291.792969 68.535156 291.707031 69.078125 291.652344 69.636719 C 291.597656 70.195312 291.570312 70.757812 291.570312 71.328125 C 291.570312 70.757812 291.542969 70.195312 291.488281 69.636719 C 291.429688 69.078125 291.347656 68.535156 291.238281 68.007812 C 291.132812 67.480469 290.996094 66.980469 290.839844 66.507812 C 290.679688 66.035156 290.5 65.597656 290.300781 65.195312 C 290.097656 64.792969 289.878906 64.433594 289.644531 64.117188 C 289.40625 63.800781 289.15625 63.53125 288.894531 63.3125 C 288.628906 63.097656 288.359375 62.929688 288.078125 62.820312 C 287.800781 62.710938 287.519531 62.652344 287.234375 62.652344 C 287.519531 62.652344 287.800781 62.597656 288.078125 62.488281 C 288.359375 62.375 288.628906 62.210938 288.894531 61.992188 C 289.15625 61.777344 289.40625 61.507812 289.644531 61.191406 C 289.878906 60.875 290.097656 60.515625 290.300781 60.113281 C 290.5 59.710938 290.679688 59.273438 290.839844 58.800781 C 290.996094 58.324219 291.132812 57.824219 291.238281 57.300781 C 291.347656 56.773438 291.429688 56.230469 291.488281 55.671875 C 291.542969 55.113281 291.570312 54.550781 291.570312 53.980469 " fill-opacity="1" fill-rule="nonzero"/></g><path fill="#ffc145" d="M 300.242188 80 C 300.242188 80.910156 300.289062 81.8125 300.375 82.707031 C 300.464844 83.601562 300.597656 84.46875 300.773438 85.3125 C 300.945312 86.152344 301.160156 86.953125 301.414062 87.710938 C 301.667969 88.46875 301.953125 89.167969 302.277344 89.8125 C 302.597656 90.457031 302.949219 91.035156 303.328125 91.539062 C 303.707031 92.046875 304.105469 92.472656 304.527344 92.820312 C 304.949219 93.171875 305.382812 93.433594 305.828125 93.613281 C 306.277344 93.789062 306.726562 93.878906 307.183594 93.878906 C 306.726562 93.878906 306.277344 93.96875 305.828125 94.144531 C 305.382812 94.324219 304.949219 94.585938 304.527344 94.933594 C 304.105469 95.285156 303.707031 95.710938 303.328125 96.21875 C 302.949219 96.722656 302.597656 97.296875 302.277344 97.941406 C 301.953125 98.585938 301.667969 99.289062 301.414062 100.046875 C 301.160156 100.804688 300.945312 101.601562 300.773438 102.445312 C 300.597656 103.285156 300.464844 104.15625 300.375 105.046875 C 300.289062 105.941406 300.242188 106.84375 300.242188 107.757812 C 300.242188 106.84375 300.199219 105.941406 300.109375 105.046875 C 300.019531 104.15625 299.890625 103.285156 299.714844 102.445312 C 299.539062 101.601562 299.328125 100.804688 299.074219 100.046875 C 298.820312 99.289062 298.535156 98.585938 298.210938 97.941406 C 297.890625 97.296875 297.539062 96.722656 297.160156 96.21875 C 296.78125 95.710938 296.382812 95.285156 295.960938 94.933594 C 295.539062 94.585938 295.105469 94.324219 294.660156 94.144531 C 294.210938 93.96875 293.761719 93.878906 293.304688 93.878906 C 293.761719 93.878906 294.210938 93.789062 294.660156 93.613281 C 295.105469 93.433594 295.539062 93.171875 295.960938 92.820312 C 296.382812 92.472656 296.78125 92.046875 297.160156 91.539062 C 297.539062 91.035156 297.890625 90.457031 298.210938 89.8125 C 298.535156 89.167969 298.820312 88.46875 299.074219 87.710938 C 299.328125 86.953125 299.539062 86.152344 299.714844 85.3125 C 299.890625 84.46875 300.019531 83.601562 300.109375 82.707031 C 300.199219 81.8125 300.242188 80.910156 300.242188 80 " fill-opacity="1" fill-rule="nonzero"/><path fill="#ffc145" d="M 66.058594 331.53125 C 66.058594 332.671875 66.117188 333.796875 66.226562 334.914062 C 66.335938 336.03125 66.503906 337.117188 66.71875 338.171875 C 66.9375 339.222656 67.203125 340.222656 67.519531 341.167969 C 67.835938 342.117188 68.199219 342.992188 68.601562 343.796875 C 69.003906 344.601562 69.441406 345.320312 69.914062 345.953125 C 70.386719 346.585938 70.886719 347.121094 71.414062 347.558594 C 71.941406 347.992188 72.484375 348.324219 73.042969 348.546875 C 73.601562 348.765625 74.164062 348.878906 74.734375 348.878906 C 74.164062 348.878906 73.601562 348.988281 73.042969 349.210938 C 72.484375 349.433594 71.941406 349.761719 71.414062 350.199219 C 70.886719 350.636719 70.386719 351.167969 69.914062 351.800781 C 69.441406 352.433594 69.003906 353.152344 68.601562 353.960938 C 68.199219 354.765625 67.835938 355.640625 67.519531 356.589844 C 67.203125 357.535156 66.9375 358.535156 66.71875 359.585938 C 66.503906 360.640625 66.335938 361.722656 66.226562 362.839844 C 66.117188 363.957031 66.058594 365.085938 66.058594 366.226562 C 66.058594 365.085938 66.003906 363.957031 65.894531 362.839844 C 65.78125 361.722656 65.617188 360.640625 65.398438 359.585938 C 65.179688 358.535156 64.914062 357.535156 64.597656 356.589844 C 64.28125 355.640625 63.921875 354.765625 63.519531 353.960938 C 63.117188 353.152344 62.679688 352.433594 62.203125 351.800781 C 61.730469 351.167969 61.230469 350.636719 60.707031 350.199219 C 60.179688 349.761719 59.636719 349.433594 59.078125 349.210938 C 58.519531 348.988281 57.957031 348.878906 57.386719 348.878906 C 57.957031 348.878906 58.519531 348.765625 59.078125 348.546875 C 59.636719 348.324219 60.179688 347.992188 60.707031 347.558594 C 61.230469 347.121094 61.730469 346.585938 62.203125 345.953125 C 62.679688 345.320312 63.117188 344.601562 63.519531 343.796875 C 63.921875 342.992188 64.28125 342.117188 64.597656 341.167969 C 64.914062 340.222656 65.179688 339.222656 65.398438 338.171875 C 65.617188 337.117188 65.78125 336.03125 65.894531 334.914062 C 66.003906 333.796875 66.058594 332.671875 66.058594 331.53125 " fill-opacity="1" fill-rule="nonzero"/><g clip-path="url(#e0930bcc62)"><path fill="#ffc145" d="M 100.753906 357.550781 C 100.753906 358.121094 100.78125 358.683594 100.835938 359.242188 C 100.890625 359.800781 100.976562 360.34375 101.082031 360.871094 C 101.191406 361.398438 101.328125 361.898438 101.484375 362.371094 C 101.644531 362.84375 101.824219 363.28125 102.023438 363.683594 C 102.226562 364.085938 102.445312 364.449219 102.679688 364.765625 C 102.917969 365.082031 103.167969 365.347656 103.429688 365.566406 C 103.695312 365.78125 103.964844 365.949219 104.246094 366.058594 C 104.523438 366.167969 104.804688 366.226562 105.089844 366.226562 C 104.804688 366.226562 104.523438 366.28125 104.246094 366.390625 C 103.964844 366.503906 103.695312 366.667969 103.429688 366.886719 C 103.167969 367.105469 102.917969 367.371094 102.679688 367.6875 C 102.445312 368.003906 102.226562 368.363281 102.023438 368.765625 C 101.824219 369.167969 101.644531 369.605469 101.484375 370.082031 C 101.328125 370.554688 101.191406 371.054688 101.082031 371.578125 C 100.976562 372.105469 100.890625 372.648438 100.835938 373.207031 C 100.78125 373.765625 100.753906 374.328125 100.753906 374.898438 C 100.753906 374.328125 100.726562 373.765625 100.671875 373.207031 C 100.613281 372.648438 100.53125 372.105469 100.421875 371.578125 C 100.316406 371.054688 100.179688 370.554688 100.023438 370.082031 C 99.863281 369.605469 99.683594 369.167969 99.484375 368.765625 C 99.28125 368.363281 99.0625 368.003906 98.828125 367.6875 C 98.589844 367.371094 98.339844 367.105469 98.078125 366.886719 C 97.8125 366.667969 97.542969 366.503906 97.261719 366.390625 C 96.984375 366.28125 96.703125 366.226562 96.417969 366.226562 C 96.703125 366.226562 96.984375 366.167969 97.261719 366.058594 C 97.542969 365.949219 97.8125 365.78125 98.078125 365.566406 C 98.339844 365.347656 98.589844 365.082031 98.828125 364.765625 C 99.0625 364.449219 99.28125 364.085938 99.484375 363.683594 C 99.683594 363.28125 99.863281 362.84375 100.023438 362.371094 C 100.179688 361.898438 100.316406 361.398438 100.421875 360.871094 C 100.53125 360.34375 100.613281 359.800781 100.671875 359.242188 C 100.726562 358.683594 100.753906 358.121094 100.753906 357.550781 " fill-opacity="1" fill-rule="nonzero"/></g><path fill="#ffc145" d="M 92.082031 322.859375 C 92.082031 323.769531 92.125 324.671875 92.214844 325.566406 C 92.300781 326.460938 92.433594 327.328125 92.609375 328.167969 C 92.78125 329.011719 92.996094 329.808594 93.25 330.566406 C 93.503906 331.324219 93.789062 332.027344 94.113281 332.671875 C 94.433594 333.316406 94.785156 333.890625 95.164062 334.398438 C 95.542969 334.902344 95.941406 335.332031 96.363281 335.679688 C 96.785156 336.027344 97.21875 336.292969 97.664062 336.46875 C 98.113281 336.648438 98.5625 336.734375 99.019531 336.734375 C 98.5625 336.734375 98.113281 336.824219 97.664062 337.003906 C 97.21875 337.179688 96.785156 337.441406 96.363281 337.792969 C 95.941406 338.140625 95.542969 338.566406 95.164062 339.074219 C 94.785156 339.582031 94.433594 340.15625 94.113281 340.800781 C 93.789062 341.445312 93.503906 342.144531 93.25 342.902344 C 92.996094 343.660156 92.78125 344.460938 92.609375 345.300781 C 92.433594 346.144531 92.300781 347.011719 92.214844 347.90625 C 92.125 348.800781 92.082031 349.703125 92.082031 350.613281 C 92.082031 349.703125 92.035156 348.800781 91.945312 347.90625 C 91.859375 347.011719 91.726562 346.144531 91.550781 345.300781 C 91.378906 344.460938 91.164062 343.660156 90.910156 342.902344 C 90.65625 342.144531 90.371094 341.445312 90.046875 340.800781 C 89.726562 340.15625 89.375 339.582031 88.996094 339.074219 C 88.617188 338.566406 88.21875 338.140625 87.796875 337.792969 C 87.375 337.441406 86.941406 337.179688 86.496094 337.003906 C 86.046875 336.824219 85.597656 336.734375 85.140625 336.734375 C 85.597656 336.734375 86.046875 336.648438 86.496094 336.46875 C 86.941406 336.292969 87.375 336.027344 87.796875 335.679688 C 88.21875 335.332031 88.617188 334.902344 88.996094 334.398438 C 89.375 333.890625 89.726562 333.316406 90.046875 332.671875 C 90.371094 332.027344 90.65625 331.324219 90.910156 330.566406 C 91.164062 329.808594 91.378906 329.011719 91.550781 328.167969 C 91.726562 327.328125 91.859375 326.460938 91.945312 325.566406 C 92.035156 324.671875 92.082031 323.769531 92.082031 322.859375 " fill-opacity="1" fill-rule="nonzero"/><path fill="#ffc145" d="M 291.570312 331.53125 C 291.570312 332.101562 291.597656 332.664062 291.652344 333.222656 C 291.707031 333.78125 291.792969 334.324219 291.898438 334.851562 C 292.007812 335.375 292.144531 335.875 292.300781 336.351562 C 292.460938 336.824219 292.640625 337.261719 292.839844 337.664062 C 293.042969 338.066406 293.261719 338.425781 293.496094 338.742188 C 293.734375 339.058594 293.984375 339.328125 294.246094 339.542969 C 294.511719 339.761719 294.78125 339.925781 295.0625 340.039062 C 295.339844 340.148438 295.621094 340.203125 295.90625 340.203125 C 295.621094 340.207031 295.339844 340.261719 295.0625 340.371094 C 294.78125 340.484375 294.511719 340.648438 294.246094 340.867188 C 293.984375 341.082031 293.734375 341.351562 293.496094 341.667969 C 293.261719 341.984375 293.042969 342.34375 292.839844 342.746094 C 292.640625 343.148438 292.460938 343.585938 292.300781 344.058594 C 292.144531 344.535156 292.007812 345.03125 291.898438 345.558594 C 291.792969 346.085938 291.707031 346.628906 291.652344 347.1875 C 291.597656 347.746094 291.570312 348.308594 291.570312 348.878906 C 291.570312 348.308594 291.542969 347.746094 291.488281 347.1875 C 291.429688 346.628906 291.347656 346.085938 291.238281 345.558594 C 291.132812 345.03125 290.996094 344.535156 290.839844 344.058594 C 290.679688 343.585938 290.5 343.148438 290.300781 342.746094 C 290.097656 342.34375 289.878906 341.984375 289.644531 341.667969 C 289.40625 341.351562 289.15625 341.082031 288.894531 340.867188 C 288.628906 340.648438 288.359375 340.484375 288.078125 340.371094 C 287.800781 340.261719 287.519531 340.203125 287.234375 340.203125 C 287.519531 340.203125 287.800781 340.148438 288.078125 340.039062 C 288.359375 339.925781 288.628906 339.761719 288.894531 339.542969 C 289.15625 339.328125 289.40625 339.058594 289.644531 338.742188 C 289.878906 338.425781 290.097656 338.066406 290.300781 337.664062 C 290.5 337.261719 290.679688 336.824219 290.839844 336.351562 C 290.996094 335.875 291.132812 335.375 291.238281 334.851562 C 291.347656 334.324219 291.429688 333.78125 291.488281 333.222656 C 291.542969 332.664062 291.570312 332.101562 291.570312 331.53125 " fill-opacity="1" fill-rule="nonzero"/><path fill="#ffc145" d="M 74.734375 80 C 74.734375 80.570312 74.761719 81.132812 74.816406 81.691406 C 74.871094 82.25 74.953125 82.792969 75.0625 83.320312 C 75.171875 83.847656 75.304688 84.347656 75.464844 84.820312 C 75.621094 85.292969 75.800781 85.730469 76.003906 86.132812 C 76.203125 86.535156 76.421875 86.894531 76.660156 87.210938 C 76.898438 87.527344 77.148438 87.796875 77.410156 88.015625 C 77.671875 88.230469 77.945312 88.394531 78.222656 88.507812 C 78.503906 88.617188 78.785156 88.675781 79.070312 88.675781 C 78.785156 88.675781 78.503906 88.730469 78.222656 88.839844 C 77.945312 88.953125 77.671875 89.117188 77.410156 89.335938 C 77.148438 89.550781 76.898438 89.820312 76.660156 90.136719 C 76.421875 90.453125 76.203125 90.8125 76.003906 91.214844 C 75.800781 91.617188 75.621094 92.054688 75.464844 92.527344 C 75.304688 93.003906 75.171875 93.503906 75.0625 94.027344 C 74.953125 94.554688 74.871094 95.097656 74.816406 95.65625 C 74.761719 96.214844 74.734375 96.777344 74.734375 97.347656 C 74.734375 96.777344 74.707031 96.214844 74.648438 95.65625 C 74.59375 95.097656 74.511719 94.554688 74.402344 94.027344 C 74.292969 93.503906 74.160156 93.003906 74.003906 92.527344 C 73.84375 92.054688 73.664062 91.617188 73.464844 91.214844 C 73.261719 90.8125 73.042969 90.453125 72.804688 90.136719 C 72.570312 89.820312 72.320312 89.550781 72.054688 89.335938 C 71.792969 89.117188 71.523438 88.953125 71.242188 88.839844 C 70.964844 88.730469 70.679688 88.675781 70.394531 88.675781 C 70.679688 88.675781 70.964844 88.617188 71.242188 88.507812 C 71.523438 88.394531 71.792969 88.230469 72.054688 88.015625 C 72.320312 87.796875 72.570312 87.527344 72.804688 87.210938 C 73.042969 86.894531 73.261719 86.535156 73.464844 86.132812 C 73.664062 85.730469 73.84375 85.292969 74.003906 84.820312 C 74.160156 84.347656 74.292969 83.847656 74.402344 83.320312 C 74.511719 82.792969 74.59375 82.25 74.648438 81.691406 C 74.707031 81.132812 74.734375 80.570312 74.734375 80 " fill-opacity="1" fill-rule="nonzero"/><path fill="#5b287c" d="M 187.488281 140.714844 L 265.550781 140.714844 C 266.007812 140.714844 266.453125 140.804688 266.878906 140.980469 C 267.300781 141.15625 267.675781 141.40625 268.003906 141.730469 C 268.328125 142.054688 268.578125 142.433594 268.753906 142.855469 C 268.929688 143.28125 269.019531 143.722656 269.019531 144.183594 L 269.019531 170.203125 C 269.019531 170.664062 268.929688 171.109375 268.753906 171.53125 C 268.578125 171.957031 268.328125 172.332031 268.003906 172.65625 C 267.675781 172.984375 267.300781 173.234375 266.878906 173.410156 C 266.453125 173.585938 266.007812 173.675781 265.550781 173.675781 L 109.425781 173.675781 C 108.96875 173.675781 108.523438 173.585938 108.097656 173.410156 C 107.675781 173.234375 107.300781 172.984375 106.972656 172.65625 C 106.648438 172.332031 106.398438 171.957031 106.222656 171.53125 C 106.046875 171.109375 105.957031 170.664062 105.957031 170.203125 L 105.957031 144.183594 C 105.957031 143.722656 106.046875 143.28125 106.222656 142.855469 C 106.398438 142.433594 106.648438 142.054688 106.972656 141.730469 C 107.300781 141.40625 107.675781 141.15625 108.097656 140.980469 C 108.523438 140.804688 108.96875 140.714844 109.425781 140.714844 L 187.488281 140.714844 " fill-opacity="1" fill-rule="nonzero"/><path fill="#5b287c" d="M 187.488281 229.183594 L 253.40625 229.183594 C 253.867188 229.183594 254.308594 229.273438 254.734375 229.449219 C 255.160156 229.625 255.535156 229.875 255.859375 230.199219 C 256.183594 230.527344 256.4375 230.902344 256.613281 231.328125 C 256.789062 231.75 256.875 232.195312 256.875 232.652344 L 256.875 258.675781 C 256.875 259.132812 256.789062 259.578125 256.613281 260.003906 C 256.4375 260.425781 256.183594 260.800781 255.859375 261.128906 C 255.535156 261.453125 255.160156 261.703125 254.734375 261.878906 C 254.308594 262.054688 253.867188 262.144531 253.40625 262.144531 L 121.570312 262.144531 C 121.109375 262.144531 120.667969 262.054688 120.242188 261.878906 C 119.816406 261.703125 119.441406 261.453125 119.117188 261.128906 C 118.792969 260.800781 118.539062 260.425781 118.363281 260.003906 C 118.1875 259.578125 118.101562 259.132812 118.101562 258.675781 L 118.101562 232.652344 C 118.101562 232.195312 118.1875 231.75 118.363281 231.328125 C 118.539062 230.902344 118.792969 230.527344 119.117188 230.199219 C 119.441406 229.875 119.816406 229.625 120.242188 229.449219 C 120.667969 229.273438 121.109375 229.183594 121.570312 229.183594 L 187.488281 229.183594 " fill-opacity="1" fill-rule="nonzero"/><path fill="#5b287c" d="M 187.488281 184.082031 L 222.183594 184.082031 C 222.640625 184.082031 223.085938 184.171875 223.511719 184.347656 C 223.933594 184.523438 224.308594 184.773438 224.636719 185.097656 C 224.960938 185.425781 225.210938 185.800781 225.386719 186.222656 C 225.5625 186.648438 225.652344 187.089844 225.652344 187.550781 L 225.652344 213.574219 C 225.652344 214.03125 225.5625 214.476562 225.386719 214.898438 C 225.210938 215.324219 224.960938 215.699219 224.636719 216.027344 C 224.308594 216.351562 223.933594 216.601562 223.511719 216.777344 C 223.085938 216.953125 222.640625 217.042969 222.183594 217.042969 L 152.792969 217.042969 C 152.335938 217.042969 151.890625 216.953125 151.464844 216.777344 C 151.042969 216.601562 150.667969 216.351562 150.339844 216.027344 C 150.015625 215.699219 149.765625 215.324219 149.589844 214.898438 C 149.414062 214.476562 149.324219 214.03125 149.324219 213.574219 L 149.324219 187.550781 C 149.324219 187.09375 149.414062 186.648438 149.589844 186.222656 C 149.765625 185.800781 150.015625 185.425781 150.339844 185.097656 C 150.667969 184.773438 151.042969 184.523438 151.46875 184.347656 C 151.890625 184.171875 152.335938 184.082031 152.792969 184.082031 L 187.488281 184.082031 " fill-opacity="1" fill-rule="nonzero"/><g mask="url(#90b0965161)"><g transform="matrix(1, 0, 0, 1, 105, 140)"><g clip-path="url(#e30e60bc2c)"><g clip-path="url(#c8fa20c44d)"><path fill="#b8b8d1" d="M 82.488281 0.714844 L 160.550781 0.714844 C 161.007812 0.714844 161.453125 0.804688 161.878906 0.980469 C 162.300781 1.15625 162.675781 1.40625 163.003906 1.730469 C 163.328125 2.054688 163.578125 2.433594 163.753906 2.855469 C 163.929688 3.28125 164.019531 3.722656 164.019531 4.183594 L 164.019531 30.203125 C 164.019531 30.664062 163.929688 31.109375 163.753906 31.53125 C 163.578125 31.957031 163.328125 32.332031 163.003906 32.65625 C 162.675781 32.984375 162.300781 33.234375 161.878906 33.410156 C 161.453125 33.585938 161.007812 33.675781 160.550781 33.675781 L 4.425781 33.675781 C 3.96875 33.675781 3.523438 33.585938 3.097656 33.410156 C 2.675781 33.234375 2.300781 32.984375 1.972656 32.65625 C 1.648438 32.332031 1.398438 31.957031 1.222656 31.53125 C 1.046875 31.109375 0.957031 30.664062 0.957031 30.203125 L 0.957031 4.183594 C 0.957031 3.722656 1.046875 3.28125 1.222656 2.855469 C 1.398438 2.433594 1.648438 2.054688 1.972656 1.730469 C 2.300781 1.40625 2.675781 1.15625 3.097656 0.980469 C 3.523438 0.804688 3.96875 0.714844 4.425781 0.714844 L 82.488281 0.714844 " fill-opacity="1" fill-rule="nonzero"/></g></g></g></g><g mask="url(#aaf8f2250a)"><g transform="matrix(1, 0, 0, 1, 118, 228)"><g clip-path="url(#00e018913b)"><g clip-path="url(#f508c6aa56)"><path fill="#b8b8d1" d="M 69.488281 1.183594 L 135.40625 1.183594 C 135.867188 1.183594 136.308594 1.273438 136.734375 1.449219 C 137.160156 1.625 137.535156 1.875 137.859375 2.199219 C 138.183594 2.527344 138.4375 2.902344 138.613281 3.328125 C 138.789062 3.75 138.875 4.195312 138.875 4.652344 L 138.875 30.675781 C 138.875 31.132812 138.789062 31.578125 138.613281 32.003906 C 138.4375 32.425781 138.183594 32.800781 137.859375 33.128906 C 137.535156 33.453125 137.160156 33.703125 136.734375 33.878906 C 136.308594 34.054688 135.867188 34.144531 135.40625 34.144531 L 3.570312 34.144531 C 3.109375 34.144531 2.667969 34.054688 2.242188 33.878906 C 1.816406 33.703125 1.441406 33.453125 1.117188 33.128906 C 0.792969 32.800781 0.539062 32.425781 0.363281 32.003906 C 0.1875 31.578125 0.101562 31.132812 0.101562 30.675781 L 0.101562 4.652344 C 0.101562 4.195312 0.1875 3.75 0.363281 3.328125 C 0.539062 2.902344 0.792969 2.527344 1.117188 2.199219 C 1.441406 1.875 1.816406 1.625 2.242188 1.449219 C 2.667969 1.273438 3.109375 1.183594 3.570312 1.183594 L 69.488281 1.183594 " fill-opacity="1" fill-rule="nonzero"/></g></g></g></g><g mask="url(#3f18c334a4)"><g transform="matrix(1, 0, 0, 1, 149, 184)"><g clip-path="url(#04e9f86629)"><g clip-path="url(#9e7ff97b8e)"><path fill="#b8b8d1" d="M 38.488281 0.0820312 L 73.183594 0.0820312 C 73.640625 0.0820312 74.085938 0.171875 74.511719 0.347656 C 74.933594 0.523438 75.308594 0.773438 75.636719 1.097656 C 75.960938 1.425781 76.210938 1.800781 76.386719 2.222656 C 76.5625 2.648438 76.652344 3.089844 76.652344 3.550781 L 76.652344 29.574219 C 76.652344 30.03125 76.5625 30.476562 76.386719 30.898438 C 76.210938 31.324219 75.960938 31.699219 75.636719 32.027344 C 75.308594 32.351562 74.933594 32.601562 74.511719 32.777344 C 74.085938 32.953125 73.640625 33.042969 73.183594 33.042969 L 3.792969 33.042969 C 3.335938 33.042969 2.890625 32.953125 2.464844 32.777344 C 2.042969 32.601562 1.667969 32.351562 1.339844 32.027344 C 1.015625 31.699219 0.765625 31.324219 0.589844 30.898438 C 0.414062 30.476562 0.324219 30.03125 0.324219 29.574219 L 0.324219 3.550781 C 0.324219 3.09375 0.414062 2.648438 0.589844 2.222656 C 0.765625 1.800781 1.015625 1.425781 1.339844 1.097656 C 1.667969 0.773438 2.042969 0.523438 2.46875 0.347656 C 2.890625 0.171875 3.335938 0.0820312 3.792969 0.0820312 L 38.488281 0.0820312 " fill-opacity="1" fill-rule="nonzero"/></g></g></g></g><path fill="#5b287c" d="M 187.488281 97.347656 L 222.183594 97.347656 C 223.320312 97.347656 224.453125 97.402344 225.582031 97.515625 C 226.714844 97.625 227.835938 97.792969 228.949219 98.015625 C 230.066406 98.234375 231.167969 98.511719 232.253906 98.839844 C 233.339844 99.171875 234.410156 99.554688 235.460938 99.988281 C 236.507812 100.421875 237.535156 100.910156 238.535156 101.445312 C 239.539062 101.980469 240.511719 102.5625 241.457031 103.195312 C 242.402344 103.824219 243.3125 104.503906 244.191406 105.222656 C 245.070312 105.945312 245.910156 106.707031 246.714844 107.507812 C 247.519531 108.3125 248.28125 109.152344 249 110.03125 C 249.722656 110.910156 250.398438 111.820312 251.027344 112.765625 C 251.660156 113.710938 252.242188 114.683594 252.78125 115.6875 C 253.316406 116.6875 253.800781 117.714844 254.234375 118.765625 C 254.671875 119.816406 255.050781 120.882812 255.382812 121.96875 C 255.710938 123.058594 255.988281 124.160156 256.210938 125.273438 C 256.429688 126.386719 256.597656 127.511719 256.710938 128.640625 C 256.820312 129.773438 256.875 130.90625 256.875 132.042969 L 256.875 184.082031 C 256.875 184.652344 256.847656 185.21875 256.792969 185.78125 C 256.738281 186.347656 256.652344 186.910156 256.542969 187.464844 C 256.433594 188.023438 256.292969 188.574219 256.128906 189.117188 C 255.964844 189.660156 255.773438 190.195312 255.554688 190.722656 C 255.339844 191.246094 255.097656 191.757812 254.828125 192.257812 C 254.558594 192.761719 254.269531 193.246094 253.953125 193.71875 C 253.636719 194.191406 253.300781 194.648438 252.9375 195.085938 C 252.578125 195.527344 252.195312 195.945312 251.796875 196.347656 C 251.394531 196.75 250.972656 197.132812 250.535156 197.492188 C 250.09375 197.851562 249.640625 198.191406 249.167969 198.507812 C 248.695312 198.820312 248.207031 199.113281 247.707031 199.382812 C 247.207031 199.648438 246.691406 199.890625 246.167969 200.109375 C 245.644531 200.328125 245.109375 200.515625 244.566406 200.683594 C 244.019531 200.847656 243.46875 200.984375 242.914062 201.097656 C 242.355469 201.207031 241.796875 201.289062 241.230469 201.347656 C 240.664062 201.402344 240.097656 201.429688 239.527344 201.429688 L 135.449219 201.429688 C 134.878906 201.429688 134.3125 201.402344 133.746094 201.347656 C 133.183594 201.289062 132.621094 201.207031 132.0625 201.097656 C 131.507812 200.984375 130.957031 200.847656 130.410156 200.683594 C 129.867188 200.515625 129.335938 200.328125 128.808594 200.109375 C 128.285156 199.890625 127.769531 199.648438 127.269531 199.382812 C 126.769531 199.113281 126.28125 198.820312 125.808594 198.507812 C 125.335938 198.191406 124.882812 197.851562 124.441406 197.492188 C 124.003906 197.132812 123.582031 196.75 123.179688 196.347656 C 122.78125 195.945312 122.398438 195.527344 122.039062 195.085938 C 121.675781 194.648438 121.339844 194.191406 121.023438 193.71875 C 120.707031 193.246094 120.417969 192.761719 120.148438 192.257812 C 119.882812 191.757812 119.636719 191.246094 119.421875 190.722656 C 119.203125 190.195312 119.011719 189.660156 118.847656 189.117188 C 118.683594 188.574219 118.542969 188.023438 118.433594 187.464844 C 118.324219 186.910156 118.238281 186.347656 118.183594 185.78125 C 118.128906 185.21875 118.101562 184.652344 118.101562 184.082031 L 118.101562 132.042969 C 118.101562 130.90625 118.15625 129.773438 118.269531 128.640625 C 118.378906 127.511719 118.546875 126.386719 118.765625 125.273438 C 118.988281 124.160156 119.265625 123.058594 119.59375 121.96875 C 119.925781 120.882812 120.308594 119.816406 120.742188 118.765625 C 121.175781 117.714844 121.660156 116.6875 122.195312 115.6875 C 122.734375 114.683594 123.316406 113.710938 123.949219 112.765625 C 124.578125 111.820312 125.253906 110.910156 125.976562 110.03125 C 126.695312 109.152344 127.457031 108.3125 128.261719 107.507812 C 129.066406 106.707031 129.90625 105.945312 130.785156 105.222656 C 131.664062 104.503906 132.574219 103.824219 133.519531 103.195312 C 134.464844 102.5625 135.4375 101.980469 136.441406 101.445312 C 137.441406 100.910156 138.46875 100.421875 139.519531 99.988281 C 140.566406 99.554688 141.636719 99.171875 142.722656 98.839844 C 143.8125 98.511719 144.910156 98.234375 146.027344 98.015625 C 147.140625 97.792969 148.261719 97.625 149.394531 97.515625 C 150.523438 97.402344 151.65625 97.347656 152.792969 97.347656 L 187.488281 97.347656 " fill-opacity="1" fill-rule="nonzero"/><path fill="#b8b8d1" d="M 187.488281 132.042969 L 222.183594 132.042969 C 222.75 132.042969 223.316406 132.070312 223.882812 132.125 C 224.449219 132.179688 225.007812 132.265625 225.566406 132.375 C 226.125 132.484375 226.675781 132.625 227.21875 132.789062 C 227.761719 132.953125 228.296875 133.144531 228.820312 133.363281 C 229.34375 133.578125 229.859375 133.820312 230.359375 134.089844 C 230.859375 134.359375 231.347656 134.648438 231.820312 134.964844 C 232.292969 135.28125 232.746094 135.617188 233.1875 135.980469 C 233.625 136.339844 234.046875 136.71875 234.449219 137.121094 C 234.851562 137.523438 235.230469 137.945312 235.589844 138.382812 C 235.953125 138.824219 236.289062 139.277344 236.605469 139.75 C 236.921875 140.222656 237.214844 140.710938 237.480469 141.210938 C 237.75 141.710938 237.992188 142.226562 238.207031 142.75 C 238.425781 143.273438 238.617188 143.808594 238.78125 144.351562 C 238.945312 144.898438 239.085938 145.445312 239.195312 146.003906 C 239.308594 146.5625 239.390625 147.121094 239.445312 147.6875 C 239.5 148.253906 239.527344 148.820312 239.527344 149.386719 C 239.527344 149.957031 239.5 150.523438 239.445312 151.089844 C 239.390625 151.652344 239.308594 152.214844 239.195312 152.773438 C 239.085938 153.328125 238.945312 153.878906 238.78125 154.425781 C 238.617188 154.96875 238.425781 155.503906 238.207031 156.027344 C 237.992188 156.550781 237.75 157.066406 237.480469 157.566406 C 237.214844 158.066406 236.921875 158.554688 236.605469 159.027344 C 236.289062 159.5 235.953125 159.953125 235.589844 160.394531 C 235.230469 160.832031 234.851562 161.253906 234.449219 161.65625 C 234.046875 162.054688 233.625 162.4375 233.1875 162.796875 C 232.746094 163.160156 232.292969 163.496094 231.820312 163.8125 C 231.347656 164.128906 230.859375 164.417969 230.359375 164.6875 C 229.859375 164.953125 229.34375 165.199219 228.820312 165.414062 C 228.296875 165.632812 227.761719 165.824219 227.21875 165.988281 C 226.675781 166.152344 226.125 166.292969 225.566406 166.402344 C 225.007812 166.511719 224.449219 166.597656 223.882812 166.652344 C 223.316406 166.707031 222.75 166.734375 222.183594 166.734375 L 152.792969 166.734375 C 152.226562 166.734375 151.660156 166.707031 151.09375 166.652344 C 150.527344 166.597656 149.96875 166.511719 149.410156 166.402344 C 148.851562 166.292969 148.300781 166.152344 147.757812 165.988281 C 147.214844 165.824219 146.679688 165.632812 146.15625 165.414062 C 145.632812 165.199219 145.117188 164.953125 144.617188 164.6875 C 144.117188 164.417969 143.628906 164.128906 143.15625 163.8125 C 142.683594 163.496094 142.230469 163.160156 141.789062 162.796875 C 141.351562 162.4375 140.929688 162.054688 140.527344 161.65625 C 140.125 161.253906 139.746094 160.832031 139.386719 160.394531 C 139.023438 159.953125 138.6875 159.5 138.371094 159.027344 C 138.054688 158.554688 137.761719 158.066406 137.496094 157.566406 C 137.226562 157.066406 136.984375 156.550781 136.769531 156.027344 C 136.550781 155.503906 136.359375 154.96875 136.195312 154.425781 C 136.03125 153.878906 135.890625 153.328125 135.78125 152.773438 C 135.671875 152.214844 135.585938 151.652344 135.53125 151.089844 C 135.476562 150.523438 135.449219 149.957031 135.449219 149.386719 C 135.449219 148.820312 135.476562 148.253906 135.53125 147.6875 C 135.585938 147.121094 135.671875 146.5625 135.78125 146.003906 C 135.890625 145.445312 136.03125 144.898438 136.195312 144.351562 C 136.359375 143.808594 136.550781 143.273438 136.769531 142.75 C 136.984375 142.226562 137.226562 141.710938 137.496094 141.210938 C 137.761719 140.710938 138.054688 140.222656 138.371094 139.75 C 138.6875 139.277344 139.023438 138.824219 139.386719 138.382812 C 139.746094 137.945312 140.125 137.523438 140.527344 137.121094 C 140.929688 136.71875 141.351562 136.339844 141.789062 135.980469 C 142.230469 135.617188 142.683594 135.28125 143.15625 134.964844 C 143.628906 134.648438 144.117188 134.359375 144.617188 134.089844 C 145.117188 133.820312 145.632812 133.578125 146.15625 133.363281 C 146.679688 133.144531 147.214844 132.953125 147.757812 132.789062 C 148.300781 132.625 148.851562 132.484375 149.410156 132.375 C 149.96875 132.265625 150.527344 132.179688 151.09375 132.125 C 151.660156 132.070312 152.226562 132.042969 152.792969 132.042969 L 187.488281 132.042969 " fill-opacity="1" fill-rule="nonzero"/><path fill="#ffffff" d="M 161.46875 138.980469 C 162.152344 138.980469 162.828125 139.046875 163.5 139.179688 C 164.167969 139.3125 164.820312 139.511719 165.449219 139.773438 C 166.082031 140.035156 166.683594 140.355469 167.25 140.734375 C 167.820312 141.113281 168.34375 141.546875 168.828125 142.027344 C 169.3125 142.511719 169.742188 143.039062 170.121094 143.605469 C 170.5 144.175781 170.824219 144.773438 171.082031 145.40625 C 171.34375 146.035156 171.542969 146.6875 171.675781 147.359375 C 171.808594 148.027344 171.875 148.707031 171.875 149.386719 C 171.875 150.070312 171.808594 150.75 171.675781 151.417969 C 171.542969 152.089844 171.34375 152.738281 171.082031 153.371094 C 170.824219 154.003906 170.5 154.601562 170.121094 155.171875 C 169.742188 155.738281 169.3125 156.265625 168.828125 156.75 C 168.34375 157.230469 167.820312 157.664062 167.25 158.042969 C 166.683594 158.421875 166.082031 158.742188 165.449219 159.003906 C 164.820312 159.265625 164.167969 159.464844 163.5 159.597656 C 162.828125 159.730469 162.152344 159.796875 161.46875 159.796875 C 160.785156 159.796875 160.109375 159.730469 159.4375 159.597656 C 158.765625 159.464844 158.117188 159.265625 157.484375 159.003906 C 156.851562 158.742188 156.253906 158.421875 155.683594 158.042969 C 155.117188 157.664062 154.589844 157.230469 154.109375 156.75 C 153.625 156.265625 153.195312 155.738281 152.8125 155.171875 C 152.433594 154.601562 152.113281 154.003906 151.851562 153.371094 C 151.589844 152.738281 151.394531 152.089844 151.257812 151.417969 C 151.125 150.75 151.058594 150.070312 151.058594 149.386719 C 151.058594 148.707031 151.125 148.027344 151.257812 147.359375 C 151.394531 146.6875 151.589844 146.035156 151.851562 145.40625 C 152.113281 144.773438 152.433594 144.175781 152.8125 143.605469 C 153.195312 143.039062 153.625 142.511719 154.109375 142.027344 C 154.589844 141.546875 155.117188 141.113281 155.683594 140.734375 C 156.253906 140.355469 156.851562 140.035156 157.484375 139.773438 C 158.117188 139.511719 158.765625 139.3125 159.4375 139.179688 C 160.109375 139.046875 160.785156 138.980469 161.46875 138.980469 " fill-opacity="1" fill-rule="nonzero"/><path fill="#ffffff" d="M 213.507812 138.980469 C 214.191406 138.980469 214.867188 139.046875 215.539062 139.179688 C 216.210938 139.3125 216.859375 139.511719 217.492188 139.773438 C 218.125 140.035156 218.722656 140.355469 219.292969 140.734375 C 219.859375 141.113281 220.386719 141.546875 220.867188 142.027344 C 221.351562 142.511719 221.78125 143.039062 222.164062 143.605469 C 222.542969 144.175781 222.863281 144.773438 223.125 145.40625 C 223.386719 146.035156 223.582031 146.6875 223.71875 147.359375 C 223.851562 148.027344 223.917969 148.707031 223.917969 149.386719 C 223.917969 150.070312 223.851562 150.75 223.71875 151.417969 C 223.582031 152.089844 223.386719 152.738281 223.125 153.371094 C 222.863281 154.003906 222.542969 154.601562 222.164062 155.171875 C 221.78125 155.738281 221.351562 156.265625 220.867188 156.75 C 220.386719 157.230469 219.859375 157.664062 219.292969 158.042969 C 218.722656 158.421875 218.125 158.742188 217.492188 159.003906 C 216.859375 159.265625 216.210938 159.464844 215.539062 159.597656 C 214.867188 159.730469 214.191406 159.796875 213.507812 159.796875 C 212.824219 159.796875 212.148438 159.730469 211.476562 159.597656 C 210.808594 159.464844 210.15625 159.265625 209.527344 159.003906 C 208.894531 158.742188 208.292969 158.421875 207.726562 158.042969 C 207.15625 157.664062 206.632812 157.230469 206.148438 156.75 C 205.664062 156.265625 205.234375 155.738281 204.855469 155.171875 C 204.476562 154.601562 204.15625 154.003906 203.894531 153.371094 C 203.632812 152.738281 203.433594 152.089844 203.300781 151.417969 C 203.167969 150.75 203.101562 150.070312 203.101562 149.386719 C 203.101562 148.707031 203.167969 148.027344 203.300781 147.359375 C 203.433594 146.6875 203.632812 146.035156 203.894531 145.40625 C 204.15625 144.773438 204.476562 144.175781 204.855469 143.605469 C 205.234375 143.039062 205.664062 142.511719 206.148438 142.027344 C 206.632812 141.546875 207.15625 141.113281 207.726562 140.734375 C 208.292969 140.355469 208.894531 140.035156 209.527344 139.773438 C 210.15625 139.511719 210.808594 139.3125 211.476562 139.179688 C 212.148438 139.046875 212.824219 138.980469 213.507812 138.980469 " fill-opacity="1" fill-rule="nonzero"/><path fill="#5b287c" d="M 187.488281 177.144531 C 188.171875 177.144531 188.847656 177.210938 189.519531 177.34375 C 190.1875 177.476562 190.839844 177.675781 191.472656 177.9375 C 192.101562 178.199219 192.703125 178.519531 193.269531 178.898438 C 193.839844 179.277344 194.363281 179.707031 194.847656 180.191406 C 195.332031 180.675781 195.761719 181.199219 196.140625 181.769531 C 196.523438 182.335938 196.84375 182.9375 197.105469 183.570312 C 197.367188 184.199219 197.5625 184.851562 197.695312 185.519531 C 197.828125 186.191406 197.898438 186.867188 197.898438 187.550781 C 197.898438 188.234375 197.828125 188.914062 197.695312 189.582031 C 197.5625 190.253906 197.367188 190.902344 197.105469 191.535156 C 196.84375 192.167969 196.523438 192.765625 196.140625 193.335938 C 195.761719 193.902344 195.332031 194.429688 194.847656 194.910156 C 194.363281 195.394531 193.839844 195.828125 193.269531 196.207031 C 192.703125 196.585938 192.101562 196.90625 191.472656 197.167969 C 190.839844 197.429688 190.1875 197.625 189.519531 197.761719 C 188.847656 197.894531 188.171875 197.960938 187.488281 197.960938 C 186.804688 197.960938 186.128906 197.894531 185.457031 197.761719 C 184.789062 197.625 184.136719 197.429688 183.503906 197.167969 C 182.875 196.90625 182.273438 196.585938 181.707031 196.207031 C 181.136719 195.828125 180.613281 195.394531 180.128906 194.910156 C 179.644531 194.429688 179.214844 193.902344 178.835938 193.335938 C 178.453125 192.765625 178.132812 192.167969 177.871094 191.535156 C 177.609375 190.902344 177.414062 190.253906 177.28125 189.582031 C 177.148438 188.914062 177.082031 188.234375 177.082031 187.550781 C 177.082031 186.867188 177.148438 186.191406 177.28125 185.519531 C 177.414062 184.851562 177.609375 184.199219 177.871094 183.570312 C 178.132812 182.9375 178.453125 182.335938 178.835938 181.769531 C 179.214844 181.199219 179.644531 180.675781 180.128906 180.191406 C 180.613281 179.707031 181.136719 179.277344 181.707031 178.898438 C 182.273438 178.519531 182.875 178.199219 183.503906 177.9375 C 184.136719 177.675781 184.789062 177.476562 185.457031 177.34375 C 186.128906 177.210938 186.804688 177.144531 187.488281 177.144531 " fill-opacity="1" fill-rule="nonzero"/><path fill="#5b287c" d="M 187.488281 204.898438 L 222.183594 204.898438 C 223.035156 204.898438 223.882812 204.941406 224.734375 205.023438 C 225.582031 205.109375 226.421875 205.234375 227.257812 205.398438 C 228.09375 205.566406 228.921875 205.773438 229.734375 206.019531 C 230.550781 206.265625 231.351562 206.554688 232.140625 206.878906 C 232.925781 207.207031 233.695312 207.570312 234.449219 207.972656 C 235.199219 208.371094 235.929688 208.8125 236.636719 209.285156 C 237.347656 209.757812 238.03125 210.265625 238.691406 210.804688 C 239.347656 211.347656 239.980469 211.917969 240.582031 212.519531 C 241.183594 213.121094 241.753906 213.753906 242.296875 214.410156 C 242.835938 215.070312 243.34375 215.753906 243.816406 216.464844 C 244.289062 217.171875 244.726562 217.902344 245.128906 218.652344 C 245.53125 219.40625 245.894531 220.175781 246.222656 220.960938 C 246.546875 221.75 246.835938 222.550781 247.082031 223.367188 C 247.328125 224.179688 247.535156 225.007812 247.703125 225.84375 C 247.867188 226.679688 247.992188 227.519531 248.078125 228.367188 C 248.160156 229.21875 248.203125 230.066406 248.203125 230.917969 L 239.527344 300.308594 C 239.527344 301.441406 239.472656 302.578125 239.363281 303.707031 C 239.25 304.839844 239.085938 305.960938 238.863281 307.074219 C 238.640625 308.191406 238.363281 309.289062 238.035156 310.378906 C 237.707031 311.464844 237.324219 312.535156 236.886719 313.582031 C 236.453125 314.632812 235.96875 315.660156 235.433594 316.660156 C 234.898438 317.664062 234.3125 318.636719 233.683594 319.582031 C 233.050781 320.527344 232.375 321.4375 231.652344 322.316406 C 230.933594 323.195312 230.171875 324.035156 229.367188 324.839844 C 228.5625 325.644531 227.722656 326.40625 226.84375 327.125 C 225.964844 327.847656 225.054688 328.523438 224.109375 329.152344 C 223.164062 329.785156 222.191406 330.367188 221.191406 330.90625 C 220.1875 331.441406 219.160156 331.925781 218.113281 332.359375 C 217.0625 332.792969 215.992188 333.175781 214.90625 333.507812 C 213.820312 333.835938 212.71875 334.113281 211.605469 334.335938 C 210.488281 334.554688 209.367188 334.722656 208.234375 334.832031 C 207.105469 334.945312 205.972656 335 204.835938 335 L 170.140625 335 C 169.003906 335 167.871094 334.945312 166.742188 334.832031 C 165.609375 334.722656 164.488281 334.554688 163.371094 334.335938 C 162.257812 334.113281 161.15625 333.835938 160.070312 333.507812 C 158.984375 333.175781 157.914062 332.792969 156.863281 332.359375 C 155.816406 331.925781 154.789062 331.441406 153.785156 330.90625 C 152.785156 330.367188 151.8125 329.785156 150.867188 329.152344 C 149.921875 328.523438 149.011719 327.847656 148.132812 327.125 C 147.253906 326.40625 146.414062 325.644531 145.609375 324.839844 C 144.804688 324.035156 144.042969 323.195312 143.324219 322.316406 C 142.601562 321.4375 141.925781 320.527344 141.292969 319.582031 C 140.664062 318.636719 140.078125 317.664062 139.542969 316.660156 C 139.007812 315.660156 138.523438 314.632812 138.089844 313.582031 C 137.652344 312.535156 137.269531 311.464844 136.941406 310.378906 C 136.613281 309.289062 136.335938 308.191406 136.113281 307.074219 C 135.890625 305.960938 135.726562 304.839844 135.613281 303.707031 C 135.503906 302.578125 135.449219 301.441406 135.449219 300.308594 L 126.773438 230.917969 C 126.773438 230.066406 126.816406 229.21875 126.898438 228.367188 C 126.984375 227.519531 127.109375 226.679688 127.273438 225.84375 C 127.441406 225.007812 127.648438 224.179688 127.894531 223.367188 C 128.140625 222.550781 128.429688 221.75 128.753906 220.960938 C 129.082031 220.175781 129.445312 219.40625 129.847656 218.652344 C 130.25 217.902344 130.6875 217.171875 131.160156 216.464844 C 131.632812 215.753906 132.140625 215.070312 132.679688 214.410156 C 133.222656 213.753906 133.792969 213.121094 134.394531 212.519531 C 134.996094 211.917969 135.628906 211.347656 136.289062 210.804688 C 136.945312 210.265625 137.628906 209.757812 138.339844 209.285156 C 139.046875 208.8125 139.777344 208.371094 140.527344 207.972656 C 141.28125 207.570312 142.050781 207.207031 142.835938 206.878906 C 143.625 206.554688 144.425781 206.265625 145.242188 206.019531 C 146.058594 205.773438 146.882812 205.566406 147.71875 205.398438 C 148.554688 205.234375 149.394531 205.109375 150.242188 205.023438 C 151.09375 204.941406 151.941406 204.898438 152.792969 204.898438 L 187.488281 204.898438 " fill-opacity="1" fill-rule="nonzero"/><path fill="#5b287c" d="M 104.222656 244.796875 L 113.441406 296.425781 C 113.472656 296.996094 113.558594 297.554688 113.699219 298.105469 C 113.839844 298.660156 114.03125 299.191406 114.277344 299.707031 C 114.519531 300.21875 114.8125 300.707031 115.15625 301.160156 C 115.496094 301.617188 115.878906 302.035156 116.300781 302.417969 C 116.722656 302.796875 117.179688 303.132812 117.667969 303.425781 C 118.160156 303.71875 118.671875 303.957031 119.210938 304.148438 C 119.746094 304.339844 120.296875 304.472656 120.859375 304.554688 C 121.421875 304.636719 121.988281 304.664062 122.558594 304.632812 C 123.128906 304.605469 123.6875 304.519531 124.238281 304.378906 C 124.792969 304.238281 125.324219 304.046875 125.839844 303.800781 C 126.351562 303.554688 126.835938 303.261719 127.292969 302.921875 C 127.75 302.582031 128.167969 302.199219 128.550781 301.777344 C 128.929688 301.351562 129.265625 300.894531 129.558594 300.40625 C 129.847656 299.917969 130.089844 299.402344 130.28125 298.867188 C 130.46875 298.332031 130.605469 297.78125 130.6875 297.214844 C 130.769531 296.652344 130.796875 296.085938 130.765625 295.519531 L 121.9375 226.496094 C 121.339844 226.484375 120.746094 226.5 120.152344 226.550781 C 119.558594 226.597656 118.964844 226.675781 118.378906 226.785156 C 117.792969 226.894531 117.214844 227.03125 116.644531 227.199219 C 116.070312 227.367188 115.507812 227.566406 114.957031 227.792969 C 114.40625 228.019531 113.867188 228.273438 113.339844 228.554688 C 112.816406 228.835938 112.304688 229.144531 111.8125 229.480469 C 111.320312 229.8125 110.84375 230.171875 110.386719 230.554688 C 109.929688 230.941406 109.496094 231.347656 109.078125 231.773438 C 108.664062 232.203125 108.273438 232.652344 107.90625 233.121094 C 107.535156 233.589844 107.191406 234.074219 106.875 234.582031 C 106.554688 235.085938 106.265625 235.605469 106 236.136719 C 105.734375 236.671875 105.5 237.21875 105.289062 237.777344 C 105.082031 238.335938 104.902344 238.90625 104.753906 239.480469 C 104.601562 240.058594 104.484375 240.640625 104.394531 241.230469 C 104.304688 241.820312 104.246094 242.414062 104.214844 243.011719 C 104.1875 243.605469 104.191406 244.203125 104.222656 244.796875 Z M 104.222656 244.796875 " fill-opacity="1" fill-rule="nonzero"/><path fill="#5b287c" d="M 270.753906 244.796875 L 261.535156 296.425781 C 261.503906 296.996094 261.417969 297.554688 261.277344 298.105469 C 261.140625 298.660156 260.945312 299.191406 260.699219 299.707031 C 260.457031 300.21875 260.164062 300.707031 259.820312 301.160156 C 259.480469 301.617188 259.097656 302.035156 258.675781 302.417969 C 258.253906 302.796875 257.796875 303.132812 257.308594 303.425781 C 256.816406 303.71875 256.304688 303.957031 255.769531 304.148438 C 255.230469 304.339844 254.679688 304.472656 254.117188 304.554688 C 253.554688 304.636719 252.988281 304.664062 252.417969 304.632812 C 251.851562 304.605469 251.289062 304.519531 250.738281 304.378906 C 250.183594 304.238281 249.652344 304.046875 249.136719 303.800781 C 248.625 303.554688 248.140625 303.261719 247.683594 302.921875 C 247.226562 302.582031 246.808594 302.199219 246.425781 301.777344 C 246.046875 301.351562 245.710938 300.894531 245.417969 300.40625 C 245.128906 299.917969 244.886719 299.402344 244.695312 298.867188 C 244.507812 298.332031 244.371094 297.78125 244.289062 297.214844 C 244.207031 296.652344 244.179688 296.085938 244.210938 295.519531 L 253.039062 226.496094 C 253.636719 226.484375 254.230469 226.5 254.824219 226.550781 C 255.417969 226.597656 256.011719 226.675781 256.597656 226.785156 C 257.183594 226.894531 257.761719 227.03125 258.335938 227.199219 C 258.90625 227.367188 259.46875 227.566406 260.019531 227.792969 C 260.570312 228.019531 261.109375 228.273438 261.636719 228.554688 C 262.160156 228.835938 262.671875 229.144531 263.164062 229.480469 C 263.65625 229.8125 264.132812 230.171875 264.589844 230.554688 C 265.046875 230.941406 265.480469 231.347656 265.898438 231.773438 C 266.3125 232.203125 266.703125 232.652344 267.070312 233.121094 C 267.441406 233.589844 267.785156 234.074219 268.101562 234.582031 C 268.421875 235.085938 268.710938 235.605469 268.976562 236.136719 C 269.242188 236.671875 269.476562 237.21875 269.6875 237.777344 C 269.894531 238.335938 270.074219 238.90625 270.222656 239.480469 C 270.375 240.058594 270.492188 240.640625 270.582031 241.230469 C 270.671875 241.820312 270.730469 242.414062 270.761719 243.011719 C 270.789062 243.605469 270.785156 244.203125 270.753906 244.796875 Z M 270.753906 244.796875 " fill-opacity="1" fill-rule="nonzero"/><path fill="#b8b8d1" d="M 112.894531 173.675781 L 112.894531 180.613281 C 112.894531 181.183594 112.953125 181.746094 113.0625 182.304688 C 113.175781 182.863281 113.339844 183.40625 113.558594 183.933594 C 113.773438 184.457031 114.042969 184.957031 114.359375 185.433594 C 114.675781 185.90625 115.035156 186.34375 115.4375 186.746094 C 115.839844 187.148438 116.277344 187.507812 116.75 187.824219 C 117.226562 188.140625 117.722656 188.410156 118.25 188.625 C 118.777344 188.84375 119.320312 189.007812 119.878906 189.121094 C 120.4375 189.230469 121 189.285156 121.570312 189.285156 L 173.609375 189.285156 C 173.882812 189.671875 174.238281 190.03125 174.679688 190.375 C 175.121094 190.714844 175.636719 191.027344 176.222656 191.308594 C 176.8125 191.589844 177.457031 191.835938 178.15625 192.039062 C 178.859375 192.246094 179.597656 192.410156 180.378906 192.527344 C 181.15625 192.648438 181.949219 192.71875 182.761719 192.746094 C 183.574219 192.769531 184.382812 192.75 185.183594 192.679688 C 185.984375 192.613281 186.761719 192.496094 187.507812 192.339844 C 188.257812 192.179688 188.960938 191.976562 189.613281 191.734375 C 189.9375 191.613281 190.25 191.484375 190.546875 191.347656 C 190.839844 191.207031 191.121094 191.0625 191.382812 190.90625 C 191.644531 190.75 191.886719 190.589844 192.109375 190.417969 C 192.332031 190.25 192.535156 190.074219 192.71875 189.894531 C 192.898438 189.714844 193.0625 189.527344 193.199219 189.335938 C 193.339844 189.148438 193.457031 188.953125 193.550781 188.757812 C 193.644531 188.558594 193.714844 188.359375 193.761719 188.15625 C 193.808594 187.957031 193.832031 187.753906 193.832031 187.550781 C 193.832031 187.347656 193.808594 187.148438 193.761719 186.945312 C 193.714844 186.746094 193.644531 186.546875 193.550781 186.347656 C 193.457031 186.152344 193.339844 185.957031 193.199219 185.765625 C 193.0625 185.574219 192.898438 185.390625 192.71875 185.210938 C 192.535156 185.027344 192.332031 184.851562 192.109375 184.683594 C 191.886719 184.515625 191.644531 184.351562 191.382812 184.199219 C 191.121094 184.042969 190.839844 183.894531 190.546875 183.757812 C 190.25 183.617188 189.9375 183.488281 189.613281 183.367188 C 188.960938 183.125 188.257812 182.925781 187.507812 182.765625 C 186.761719 182.605469 185.984375 182.492188 185.183594 182.421875 C 184.382812 182.355469 183.574219 182.332031 182.761719 182.359375 C 181.949219 182.382812 181.15625 182.457031 180.378906 182.574219 C 179.597656 182.695312 178.859375 182.855469 178.15625 183.0625 C 177.457031 183.269531 176.8125 183.511719 176.222656 183.792969 C 175.636719 184.074219 175.121094 184.386719 174.679688 184.730469 C 174.238281 185.070312 173.882812 185.433594 173.609375 185.816406 L 121.570312 185.816406 C 121.226562 185.816406 120.890625 185.785156 120.554688 185.71875 C 120.21875 185.652344 119.894531 185.550781 119.578125 185.421875 C 119.261719 185.289062 118.960938 185.128906 118.679688 184.941406 C 118.394531 184.75 118.132812 184.535156 117.890625 184.292969 C 117.648438 184.050781 117.433594 183.789062 117.242188 183.503906 C 117.054688 183.21875 116.894531 182.921875 116.761719 182.605469 C 116.632812 182.289062 116.53125 181.964844 116.464844 181.628906 C 116.398438 181.292969 116.367188 180.953125 116.367188 180.613281 L 116.367188 173.675781 Z M 112.894531 173.675781 " fill-opacity="1" fill-rule="nonzero"/><g clip-path="url(#08dc11c6a3)"><g clip-path="url(#e79c9d4825)"><g clip-path="url(#09605adcaf)"><path fill="#5b287c" d="M 138.011719 13.140625 C 140.679688 11.3125 143.871094 10.070312 147.101562 9.042969 C 155.285156 6.425781 164.417969 3.253906 173.109375 4.1875 C 179.125 4.828125 184.703125 8.6875 189.5625 12.90625 C 194.761719 17.410156 197.886719 23.6875 200.914062 29.738281 C 207.324219 42.574219 211.675781 56.257812 215.390625 70.09375 C 216.226562 73.203125 216.964844 76.375 217.648438 79.527344 L 216.324219 80.882812 L 149.894531 81.652344 C 149.894531 81.652344 160.082031 19.949219 160.09375 19.878906 C 160.136719 19.605469 154.53125 18.910156 154.03125 18.890625 C 146.890625 18.5 139.0625 23.609375 142.320312 31.683594 C 143.554688 34.726562 147.582031 35.589844 149.9375 32.925781 C 151.246094 31.445312 150.777344 28.4375 149.882812 26.835938 L 147.035156 26.613281 C 147.605469 26.660156 149.375 25 150.078125 24.75 C 152.179688 24.019531 154.421875 25.941406 154.816406 27.765625 C 155.03125 28.765625 155.382812 29.773438 155.539062 30.78125 C 156.046875 34.042969 155.085938 37.496094 152.214844 39.320312 C 149.632812 40.960938 146.1875 41.074219 143.230469 40.902344 C 140.847656 40.765625 136.71875 39.015625 135.035156 37.5625 C 130.703125 33.84375 130.277344 26.988281 131.832031 21.519531 C 132.90625 17.738281 135.160156 15.097656 138.011719 13.140625 Z M 138.011719 13.140625 " fill-opacity="1" fill-rule="nonzero"/></g></g></g><g clip-path="url(#1e49894a46)"><g clip-path="url(#8a0106f7ca)"><g clip-path="url(#d400c83f7b)"><path fill="#ffc145" d="M 142.648438 84.253906 C 143.5625 95.078125 162.546875 102.316406 185.039062 100.398438 C 207.527344 98.492188 229.828125 89.980469 228.902344 79.148438 C 227.992188 68.324219 204.191406 59.28125 181.703125 61.1875 C 159.210938 63.109375 141.726562 73.4375 142.648438 84.253906 Z M 142.648438 84.253906 " fill-opacity="1" fill-rule="nonzero"/></g></g></g><g clip-path="url(#7dc75298c9)"><g clip-path="url(#b7cd583b07)"><g clip-path="url(#d7e6530a1c)"><path fill="#5b287c" d="M 117.027344 91.949219 C 117.484375 101.445312 150.824219 108.066406 186.140625 106.335938 C 221.460938 104.589844 253.554688 95.78125 253.082031 86.28125 C 252.621094 76.78125 219.496094 68.328125 184.175781 70.074219 C 148.863281 71.824219 116.558594 82.457031 117.027344 91.949219 Z M 117.027344 91.949219 " fill-opacity="1" fill-rule="nonzero"/></g></g></g><g clip-path="url(#2643633a85)"><g clip-path="url(#f29063af36)"><g clip-path="url(#55c032e445)"><path fill="#5b287c" d="M 135.398438 93.628906 C 135.707031 99.933594 158.339844 103.9375 185.957031 102.582031 C 213.574219 101.210938 235.710938 95.003906 235.390625 88.695312 C 235.089844 82.382812 212.453125 78.386719 184.824219 79.742188 C 157.210938 81.113281 135.09375 87.332031 135.398438 93.628906 Z M 135.398438 93.628906 " fill-opacity="1" fill-rule="nonzero"/></g></g></g></svg>