<svg width="34" height="50" viewBox="0 0 34 50" fill="none" xmlns="http://www.w3.org/2000/svg">
<g clip-path="url(#clip0_229_359)">
<path opacity="0.12" d="M16.9984 50.0001C24.8171 50.0001 31.1555 48.4888 31.1555 46.6244C31.1555 44.7601 24.8171 43.2488 16.9984 43.2488C9.17965 43.2488 2.84131 44.7601 2.84131 46.6244C2.84131 48.4888 9.17965 50.0001 16.9984 50.0001Z" fill="#4F236C"/>
<g opacity="0.61">
<path d="M19.851 11.3852V15.2263C19.8444 15.34 19.861 15.4539 19.8999 15.561C19.9388 15.668 19.9991 15.766 20.0772 15.8489C20.1552 15.9318 20.2494 15.9978 20.3539 16.0429C20.4584 16.088 20.5709 16.1113 20.6847 16.1113C20.7985 16.1113 20.9111 16.088 21.0156 16.0429C21.1201 15.9978 21.2143 15.9318 21.2923 15.8489C21.3704 15.766 21.4307 15.668 21.4696 15.561C21.5085 15.4539 21.5251 15.34 21.5184 15.2263V11.3852C21.5251 11.2715 21.5085 11.1576 21.4696 11.0506C21.4307 10.9435 21.3704 10.8456 21.2923 10.7627C21.2143 10.6798 21.1201 10.6138 21.0156 10.5687C20.9111 10.5235 20.7985 10.5002 20.6847 10.5002C20.5709 10.5002 20.4584 10.5235 20.3539 10.5687C20.2494 10.6138 20.1552 10.6798 20.0772 10.7627C19.9991 10.8456 19.9388 10.9435 19.8999 11.0506C19.861 11.1576 19.8444 11.2715 19.851 11.3852Z" fill="#F2DDFF"/>
</g>
<path opacity="0.2" d="M33.0525 31.3147C33.0527 34.2502 32.2498 37.1296 30.7309 39.6406C29.212 42.1516 27.0352 44.1981 24.4365 45.5582C21.8379 46.9182 18.9168 47.5398 15.9902 47.3554C13.0636 47.1711 10.2434 46.1879 7.83558 44.5124C5.42775 42.837 3.52429 40.5335 2.33179 37.8517C1.1393 35.1699 0.703316 32.2124 1.07115 29.3002C1.43899 26.3879 2.5966 23.6321 4.41835 21.3319C6.24011 19.0316 8.6564 17.2748 11.405 16.2521V9.84839C11.9086 10.0764 12.4322 10.2572 12.9691 10.3885C15.6215 11.009 18.3811 11.009 21.0335 10.3885C21.5702 10.2568 22.0938 10.076 22.5975 9.84839V16.2521C25.6655 17.3976 28.3108 19.4539 30.1793 22.1459C32.0477 24.8378 33.0502 28.0368 33.0525 31.3147Z" fill="#5B287C"/>
<path opacity="0.64" d="M17.0013 5.48145C13.038 5.48145 9.82666 6.68232 9.82666 8.16761C9.82666 8.80252 10.415 9.3886 11.4051 9.84826C11.9087 10.0763 12.4323 10.2571 12.9692 10.3884C15.6216 11.0089 18.3811 11.0089 21.0335 10.3884C21.5703 10.2567 22.0939 10.0759 22.5976 9.84826C23.5848 9.3886 24.176 8.80252 24.176 8.16761C24.176 6.68232 20.9618 5.48145 17.0013 5.48145ZM13.0754 7.9033C13.0059 7.80162 12.968 7.68171 12.9663 7.55856C12.9663 6.72542 14.7715 6.05028 17.0013 6.05028C19.2312 6.05028 21.0335 6.72542 21.0335 7.55856C21.0328 7.68144 20.9959 7.80137 20.9273 7.9033C20.5112 8.56981 18.9184 9.0697 17.0013 9.0697C15.0843 9.0697 13.4915 8.56981 13.0754 7.9033Z" fill="#5B287C"/>
<path d="M21.4842 1.32164C20.8681 1.57828 20.2435 1.81865 19.6102 2.04274C19.2269 2.18999 18.8284 2.29405 18.422 2.35301C17.808 2.37004 17.1938 2.32675 16.5882 2.22373C16.0745 2.17489 15.5522 2.18064 15.0356 2.14041C13.8995 2.05 12.7935 1.73045 11.784 1.20098C11.7773 1.0873 11.812 0.975031 11.8816 0.884957C11.9778 0.792803 12.0983 0.730016 12.2289 0.703963C14.6744 0.00808535 17.2371 -0.174809 19.7565 0.166732C20.3305 0.247173 20.9705 0.390816 21.2948 0.864845C21.3847 1.00453 21.4489 1.15925 21.4842 1.32164Z" fill="#C19133"/>
<path d="M21.1538 6.47546C21.0792 6.86331 20.9931 7.24828 20.8927 7.62463C20.8468 7.80562 20.798 7.98374 20.7463 8.16186C20.2412 8.68185 18.703 9.06395 16.8892 9.06395C15.1845 9.06395 13.7323 8.72782 13.1383 8.25379C13.0675 8.01438 12.9986 7.77594 12.9316 7.53844C12.8341 7.1822 12.7422 6.82309 12.6447 6.46398C12.2375 4.79155 11.9498 3.09225 11.7837 1.37894C11.7837 1.31861 11.7837 1.2554 11.7837 1.19507C12.7946 1.72691 13.9026 2.04843 15.041 2.14026C15.5576 2.18335 16.0799 2.17473 16.5936 2.22357C17.1992 2.32659 17.8134 2.36988 18.4274 2.35285C18.8338 2.29425 19.2324 2.19018 19.6156 2.04258C20.2469 1.81849 20.8726 1.57717 21.4867 1.32148C21.5304 1.53514 21.5525 1.75266 21.5527 1.97076C21.5822 3.48233 21.4485 4.99266 21.1538 6.47546Z" fill="#FFC145"/>
<path d="M25.1778 28.4618C25.1766 28.8718 25.0542 29.2723 24.8258 29.6126C24.5974 29.953 24.2734 30.218 23.8947 30.3741C23.516 30.5302 23.0995 30.5704 22.698 30.4898C22.2964 30.4091 21.9278 30.2111 21.6386 29.9207C21.3494 29.6304 21.1526 29.2608 21.0731 28.8586C20.9936 28.4564 21.035 28.0397 21.192 27.661C21.349 27.2823 21.6145 26.9587 21.9552 26.731C22.2958 26.5033 22.6962 26.3818 23.1057 26.3818C23.3783 26.3818 23.6482 26.4357 23.9 26.5403C24.1518 26.6449 24.3804 26.7982 24.5729 26.9914C24.7654 27.1846 24.9179 27.414 25.0217 27.6663C25.1255 27.9186 25.1785 28.1889 25.1778 28.4618Z" fill="#009082"/>
<path opacity="0.07" d="M25.1778 28.4618C25.1882 28.7405 25.1423 29.0184 25.0429 29.279C24.9435 29.5395 24.7927 29.7773 24.5994 29.9781C24.4061 30.179 24.1743 30.3387 23.9179 30.4478C23.6615 30.557 23.3858 30.6132 23.1072 30.6132C22.8286 30.6132 22.5529 30.557 22.2965 30.4478C22.0401 30.3387 21.8083 30.179 21.615 29.9781C21.4217 29.7773 21.2709 29.5395 21.1715 29.279C21.0721 29.0184 21.0262 28.7405 21.0366 28.4618C21.0355 28.2674 21.0626 28.0738 21.1169 27.8872C21.2419 28.3189 21.5035 28.6984 21.8624 28.9684C22.2214 29.2384 22.6582 29.3844 23.1072 29.3844C23.5562 29.3844 23.993 29.2384 24.352 28.9684C24.7109 28.6984 24.9726 28.3189 25.0975 27.8872C25.1504 28.0742 25.1774 28.2675 25.1778 28.4618Z" fill="#401D56"/>
<g opacity="0.3">
<path d="M24.282 27.4249C24.0802 27.2227 23.8269 27.0796 23.5497 27.0113C23.2724 26.9429 22.9818 26.9518 22.7093 27.037C22.6066 27.0694 22.5189 27.1377 22.4625 27.2295C22.4196 27.3011 22.3992 27.384 22.404 27.4673C22.4088 27.5507 22.4384 27.6307 22.4892 27.697C22.5399 27.7632 22.6093 27.8127 22.6885 27.839C22.7677 27.8653 22.8529 27.8671 22.9331 27.8443C22.9986 27.8223 23.0658 27.806 23.134 27.7955L23.0221 27.8098C23.125 27.7969 23.2291 27.7969 23.332 27.8098L23.223 27.7926C23.3218 27.8094 23.4182 27.8384 23.51 27.8788L23.4095 27.8357C23.4942 27.8719 23.5741 27.9182 23.6477 27.9736L23.5645 27.9104C23.6054 27.9418 23.6438 27.9764 23.6793 28.0138C23.7593 28.0837 23.8629 28.1206 23.969 28.117C24.0752 28.1134 24.176 28.0696 24.2511 27.9944C24.3262 27.9192 24.37 27.8183 24.3736 27.712C24.3772 27.6057 24.3403 27.5021 24.2705 27.422L24.282 27.4249Z" fill="#F2DDFF"/>
</g>
<path d="M15.5005 23.5522C15.1712 23.9499 14.9747 24.441 14.9386 24.9563C14.9026 25.4716 15.0288 25.9853 15.2996 26.4251C15.3713 26.54 15.8018 27.2352 16.2983 27.1433C16.7948 27.0514 16.9584 26.5026 17.2597 26.1292C17.8337 25.4081 19.0103 25.2098 19.2973 24.3336C19.5068 23.6929 18.8152 22.8196 18.1006 22.6099C17.584 22.4605 17.0933 22.6731 16.5078 22.9259C16.1299 23.0575 15.7859 23.2714 15.5005 23.5522Z" fill="#009082"/>
<g opacity="0.07">
<path d="M19.2971 24.4742C19.0102 25.3505 17.8335 25.5487 17.2567 26.2698C16.9697 26.6433 16.7717 27.1977 16.2981 27.2868C15.8246 27.3759 15.3712 26.6806 15.2994 26.5686C15.0321 26.1391 14.9038 25.6374 14.9321 25.1321C15.6726 25.4217 16.4843 25.4759 17.2567 25.2873C17.6861 25.1749 18.0804 24.9559 18.4029 24.6506C18.7254 24.3453 18.9659 23.9635 19.102 23.5405C19.2008 23.6724 19.2695 23.8243 19.3032 23.9857C19.3369 24.147 19.3349 24.3138 19.2971 24.4742Z" fill="#401D56"/>
</g>
<g opacity="0.27">
<path d="M18.2698 23.0465C18.0265 22.9607 17.7677 22.9281 17.5108 22.9509C17.2538 22.9737 17.0048 23.0514 16.7804 23.1786C16.7328 23.2065 16.6913 23.2435 16.658 23.2875C16.6248 23.3315 16.6006 23.3816 16.5867 23.4349C16.5729 23.4883 16.5697 23.5439 16.5773 23.5985C16.5849 23.6531 16.6032 23.7057 16.6311 23.7532C16.6884 23.8481 16.7805 23.9169 16.8877 23.9448C16.995 23.9727 17.1089 23.9576 17.2051 23.9026C17.251 23.8758 17.2969 23.8528 17.3428 23.8336L17.2453 23.8767C17.3571 23.8286 17.4748 23.7957 17.5954 23.7791L17.4835 23.7934C17.6112 23.7776 17.7403 23.7776 17.868 23.7934L17.7561 23.7791C17.854 23.7943 17.9502 23.8194 18.0431 23.8538C18.0968 23.869 18.153 23.873 18.2083 23.8656C18.2636 23.8582 18.3167 23.8395 18.3645 23.8107C18.4577 23.7558 18.5265 23.6674 18.5568 23.5636C18.5722 23.5099 18.5763 23.4536 18.5689 23.3982C18.5615 23.3428 18.5427 23.2896 18.5138 23.2418C18.4567 23.1506 18.3693 23.0824 18.2669 23.0493L18.2698 23.0465Z" fill="#F2DDFF"/>
</g>
<path d="M30.2345 31.0732C30.2345 34.5865 28.8403 37.9559 26.3587 40.4402C23.877 42.9245 20.5111 44.3202 17.0015 44.3202C13.4919 44.3202 10.1261 42.9245 7.64441 40.4402C5.16274 37.9559 3.76855 34.5865 3.76855 31.0732C3.76855 30.168 3.8599 29.2652 4.0412 28.3784C4.75866 28.7347 5.43595 29.18 6.21082 29.3638C7.5941 29.6913 9.22131 29.1685 10.3607 30.0188C11.3909 30.783 11.6808 32.4608 12.9177 32.7883C14.1116 33.1043 15.1046 31.9264 16.1664 31.2829C16.8218 30.9047 17.5706 30.7194 18.3266 30.7484C19.0826 30.7774 19.815 31.0194 20.4396 31.4467C21.3006 32.0557 21.9951 33.044 23.0426 33.1704C24.6096 33.3428 25.5509 31.5587 26.6874 30.4641C27.6127 29.6046 28.8287 29.1274 30.091 29.1282C30.1864 29.7722 30.2344 30.4222 30.2345 31.0732Z" fill="#009082"/>
<path opacity="0.07" d="M23.4186 42.6596C21.4039 43.777 19.1328 44.3487 16.8297 44.3182C14.5267 44.2878 12.2715 43.6563 10.2869 42.4861C8.30239 41.316 6.65722 39.6476 5.51403 37.646C4.37083 35.6444 3.76919 33.3789 3.76855 31.0732C3.76855 30.168 3.8599 29.2652 4.0412 28.3784C4.59961 28.6907 5.17442 28.9726 5.76312 29.2231C5.73729 29.5419 5.72581 29.8637 5.72581 30.1883C5.72722 32.3126 6.2386 34.4054 7.21689 36.2905C8.19517 38.1756 9.61169 39.7977 11.3471 41.0201C13.0825 42.2426 15.0861 43.0297 17.1889 43.315C19.2917 43.6003 21.4322 43.3755 23.4301 42.6596H23.4186Z" fill="#401D56"/>
<g opacity="0.56">
<path d="M21.2973 40.5626C21.9836 40.5626 22.54 40.0057 22.54 39.3187C22.54 38.6317 21.9836 38.0747 21.2973 38.0747C20.611 38.0747 20.0547 38.6317 20.0547 39.3187C20.0547 40.0057 20.611 40.5626 21.2973 40.5626Z" stroke="#F2DDFF" stroke-width="0.78" stroke-miterlimit="10"/>
<path d="M21.1196 35.9315C21.0341 36.0185 20.9247 36.0781 20.8053 36.1027C20.6859 36.1273 20.5618 36.1158 20.449 36.0696C20.3361 36.0233 20.2396 35.9445 20.1716 35.8432C20.1037 35.7419 20.0674 35.6226 20.0674 35.5005C20.0674 35.3785 20.1037 35.2592 20.1716 35.1579C20.2396 35.0565 20.3361 34.9777 20.449 34.9315C20.5618 34.8853 20.6859 34.8738 20.8053 34.8983C20.9247 34.9229 21.0341 34.9826 21.1196 35.0696C21.2324 35.1846 21.2957 35.3393 21.2957 35.5005C21.2957 35.6617 21.2324 35.8165 21.1196 35.9315Z" stroke="#F2DDFF" stroke-width="0.78" stroke-miterlimit="10"/>
<path d="M25.5936 37.0721C25.5936 37.3211 25.5198 37.5645 25.3815 37.7715C25.2433 37.9784 25.0468 38.1397 24.817 38.2349C24.5871 38.33 24.3342 38.3548 24.0903 38.306C23.8464 38.2572 23.6224 38.1371 23.4467 37.9608C23.2711 37.7845 23.1516 37.5601 23.1034 37.3158C23.0552 37.0715 23.0805 36.8184 23.1761 36.5885C23.2717 36.3586 23.4332 36.1623 23.6403 36.0244C23.8474 35.8865 24.0907 35.8132 24.3395 35.8137C24.6723 35.8145 24.9913 35.9474 25.2264 36.1833C25.4616 36.4192 25.5936 36.7388 25.5936 37.0721Z" stroke="#F2DDFF" stroke-width="0.78" stroke-miterlimit="10"/>
</g>
<g opacity="0.5">
<path d="M17.0499 32.188L17.0901 32.1708L17.1705 32.142C17.2308 32.1191 17.291 32.1018 17.3542 32.0846C17.4555 32.0558 17.5592 32.0366 17.6641 32.0271C17.7921 32.0171 17.9207 32.0171 18.0487 32.0271C18.084 32.0243 18.1195 32.0243 18.1548 32.0271C18.1548 32.0271 18.2582 32.0415 18.1922 32.0271L18.3816 32.0645C18.613 32.1106 18.8345 32.1971 19.0359 32.3202C19.0933 32.3518 19.1478 32.3862 19.1995 32.4207L19.2684 32.4724L19.3028 32.4983C19.4055 32.5867 19.5014 32.6828 19.5898 32.7856C19.6678 32.8636 19.7736 32.9075 19.8839 32.9075C19.9943 32.9075 20.1001 32.8636 20.1781 32.7856C20.2547 32.7067 20.2976 32.6011 20.2976 32.4911C20.2976 32.3811 20.2547 32.2755 20.1781 32.1966C19.7425 31.7114 19.1635 31.3781 18.5254 31.2453C17.8874 31.1125 17.2237 31.1871 16.6309 31.4583C16.5834 31.4862 16.5419 31.5232 16.5086 31.5672C16.4754 31.6111 16.4512 31.6612 16.4373 31.7146C16.4235 31.768 16.4202 31.8236 16.4279 31.8782C16.4355 31.9328 16.4538 31.9854 16.4817 32.0329C16.5395 32.1272 16.6316 32.1955 16.7386 32.2234C16.8456 32.2512 16.9593 32.2365 17.0557 32.1823L17.0499 32.188Z" fill="#F2DDFF"/>
</g>
<g opacity="0.4">
<path d="M29.003 30.1539C28.2654 30.0591 27.568 30.4958 27.063 30.9842C26.5579 31.4726 26.202 31.9868 25.6022 32.2712C25.5549 32.2988 25.5135 32.3354 25.4803 32.3789C25.4471 32.4225 25.4229 32.4722 25.4089 32.5251C25.3949 32.5781 25.3914 32.6333 25.3988 32.6876C25.4061 32.7419 25.424 32.7942 25.4515 32.8415C25.479 32.8889 25.5156 32.9303 25.5591 32.9635C25.6026 32.9967 25.6523 33.021 25.7051 33.035C25.758 33.049 25.8132 33.0525 25.8674 33.0452C25.9216 33.0378 25.9739 33.0199 26.0212 32.9923C26.621 32.7051 27.0486 32.1879 27.5049 31.7225C27.9612 31.2571 28.4147 30.9152 29.003 30.9871C29.1136 30.9871 29.2198 30.9433 29.2983 30.8652C29.3767 30.7872 29.4212 30.6812 29.422 30.5705C29.419 30.4604 29.3739 30.3557 29.2959 30.2782C29.2178 30.2006 29.1129 30.1561 29.003 30.1539Z" fill="#F2DDFF"/>
</g>
<g opacity="0.32">
<path d="M10.7679 30.9325C10.4937 30.6457 10.164 30.418 9.79878 30.2633C9.43358 30.1087 9.04066 30.0304 8.64415 30.0333C8.53425 30.0348 8.42927 30.0791 8.35155 30.1569C8.27383 30.2347 8.22951 30.3398 8.22803 30.4499C8.2302 30.5599 8.27465 30.6649 8.35215 30.743C8.42964 30.8211 8.53422 30.8664 8.64415 30.8693C8.72728 30.8636 8.8107 30.8636 8.89383 30.8693H8.95123C9.00863 30.8693 8.87088 30.8549 8.92828 30.8693L9.04307 30.8894C9.12382 30.9037 9.20342 30.9239 9.28127 30.9497L9.39319 30.9842L9.44772 31.0043C9.46207 31.0043 9.53955 31.0417 9.47929 31.0187C9.41902 30.9957 9.47929 31.0187 9.49651 31.0187L9.54816 31.0417L9.65435 31.0963C9.7261 31.1365 9.79497 31.1796 9.86385 31.2255C9.8935 31.251 9.92518 31.2741 9.95856 31.2945C9.93847 31.2945 9.90116 31.2485 9.94421 31.2945L9.98726 31.3318C10.0538 31.3885 10.1171 31.4489 10.1767 31.5128C10.2552 31.5911 10.3615 31.635 10.4723 31.635C10.5831 31.635 10.6893 31.5911 10.7679 31.5128C10.8438 31.4336 10.8862 31.3281 10.8862 31.2184C10.8862 31.1086 10.8438 31.0031 10.7679 30.9239V30.9325Z" fill="#F2DDFF"/>
</g>
<g opacity="0.56">
<path d="M13.104 35.7333C12.9245 35.7426 12.7463 35.6986 12.5919 35.6066C12.4374 35.5147 12.3136 35.3791 12.236 35.2168C12.1585 35.0545 12.1307 34.8729 12.1561 34.6949C12.1816 34.5168 12.2591 34.3502 12.379 34.2162C12.4989 34.0822 12.6557 33.9868 12.8297 33.9419C13.0037 33.897 13.1871 33.9047 13.3567 33.964C13.5264 34.0234 13.6747 34.1317 13.7829 34.2752C13.8911 34.4188 13.9545 34.5913 13.9649 34.7709C13.9719 34.8907 13.9551 35.0108 13.9156 35.1241C13.876 35.2375 13.8145 35.3419 13.7344 35.4314C13.6544 35.5208 13.5575 35.5935 13.4493 35.6453C13.3411 35.6972 13.2238 35.727 13.104 35.7333Z" stroke="#F2DDFF" stroke-width="0.57" stroke-miterlimit="10"/>
<path d="M15.8046 34.6588C16.0519 34.6588 16.2523 34.4581 16.2523 34.2106C16.2523 33.9631 16.0519 33.7625 15.8046 33.7625C15.5574 33.7625 15.3569 33.9631 15.3569 34.2106C15.3569 34.4581 15.5574 34.6588 15.8046 34.6588Z" stroke="#F2DDFF" stroke-width="0.57" stroke-miterlimit="10"/>
<path d="M14.8774 37.8736C14.6961 37.8846 14.5156 37.8416 14.3588 37.7499C14.2019 37.6583 14.0757 37.5222 13.9962 37.3587C13.9166 37.1953 13.8872 37.0119 13.9117 36.8318C13.9363 36.6517 14.0136 36.4828 14.134 36.3467C14.2543 36.2105 14.4123 36.1132 14.5879 36.0669C14.7635 36.0206 14.9489 36.0275 15.1207 36.0867C15.2924 36.1459 15.4427 36.2547 15.5526 36.3994C15.6626 36.5441 15.7272 36.7182 15.7383 36.8997C15.7525 37.1429 15.6699 37.3819 15.5085 37.5644C15.3472 37.7469 15.1203 37.8581 14.8774 37.8736Z" stroke="#F2DDFF" stroke-width="0.57" stroke-miterlimit="10"/>
</g>
<path opacity="0.2" d="M30.2343 31.2083C30.2484 33.5857 29.623 35.9232 28.4239 37.9753C27.2247 40.0275 25.496 41.7188 23.4189 42.8718C21.3419 44.0248 18.9932 44.5969 16.6192 44.5282C14.2452 44.4596 11.9335 43.7526 9.92644 42.4814C7.91941 41.2103 6.29111 39.4219 5.21236 37.3038C4.13361 35.1857 3.64418 32.816 3.79541 30.4433C3.94664 28.0707 4.73295 25.7825 6.07186 23.8188C7.41077 21.8551 9.25292 20.2884 11.4051 19.2829C11.9122 19.0451 12.4348 18.8416 12.9691 18.6738V10.397C15.6224 11.0098 18.3802 11.0098 21.0335 10.397V18.6738C21.5679 18.8416 22.0904 19.0451 22.5976 19.2829C24.8743 20.3342 26.8031 22.0157 28.1563 24.1287C29.5095 26.2418 30.2305 28.6983 30.2343 31.2083Z" fill="#5B287C"/>
<path opacity="0.09" d="M32.6363 35.2562C32.058 37.527 30.9905 39.6437 29.5088 41.4579C28.0271 43.2722 26.1669 44.7401 24.0587 45.7588C21.9506 46.7775 19.6453 47.3223 17.3046 47.3551C14.9639 47.3879 12.6443 46.9079 10.5085 45.9486C8.37262 44.9894 6.47217 43.5742 4.94032 41.8021C3.40846 40.0301 2.28226 37.9442 1.64065 35.6905C0.999034 33.4368 0.857536 31.0699 1.22606 28.7557C1.59459 26.4415 2.46422 24.236 3.77402 22.2937C2.83984 25.9615 3.22887 29.8416 4.87255 33.2504C6.51624 36.6592 9.30908 39.3778 12.7589 40.9272C16.2088 42.4766 20.0942 42.7573 23.7305 41.7198C27.3669 40.6824 30.5207 38.3934 32.6363 35.2562Z" fill="#401D56"/>
<path opacity="0.05" d="M22.5978 9.84839V12.3047C22.0858 12.4978 21.5637 12.6628 21.0337 12.7989C18.3887 13.4807 15.6143 13.4807 12.9694 12.7989C12.4394 12.6628 11.9172 12.4978 11.4053 12.3047V9.85126C11.9088 10.0793 12.4324 10.2601 12.9694 10.3914C15.6217 11.0119 18.3813 11.0119 21.0337 10.3914C21.5706 10.2587 22.0941 10.077 22.5978 9.84839Z" fill="#401D56"/>
<g opacity="0.09">
<path d="M19.768 8.70495C18.8518 8.96061 17.9037 9.08348 16.9527 9.0698C15.248 9.0698 13.7958 8.73081 13.1989 8.25965C13.1271 8.0212 13.0583 7.78275 12.9951 7.54717C12.8975 7.18806 12.8028 6.82894 12.7081 6.46983C12.2996 4.79769 12.0119 3.09828 11.8472 1.38479C11.8472 1.32446 11.8472 1.26126 11.8472 1.20093C12.3845 1.48378 12.9514 1.70635 13.5375 1.86457C13.7081 3.52209 14.4054 5.0811 15.5269 6.31239C16.6484 7.54369 18.135 8.38231 19.768 8.70495Z" fill="#401D56"/>
</g>
<g opacity="0.61">
<path d="M22.3163 21.1905C22.5746 21.2939 22.0494 21.0669 22.3019 21.1905L22.5143 21.2881C22.632 21.3427 22.7467 21.4002 22.8615 21.4605C23.1141 21.5927 23.358 21.7478 23.5962 21.8886C23.7282 21.9719 23.8574 22.0581 23.9808 22.15L24.1386 22.2649C24.3166 22.3971 24.1386 22.3023 24.1013 22.2333C24.1415 22.3281 24.374 22.4574 24.4572 22.5206C24.5404 22.5838 24.6696 22.7102 24.7729 22.8079C24.9766 23.0061 25.1747 23.2101 25.3469 23.4256C25.4416 23.5319 25.5334 23.641 25.6338 23.7502C25.476 23.5319 25.7859 23.937 25.6338 23.7502L25.7486 23.9054C26.0871 24.3785 26.382 24.8814 26.6297 25.4079C26.9167 26.0026 27.8092 26.2008 28.3516 25.8589C28.6338 25.6848 28.838 25.4085 28.922 25.0874C29.0059 24.7664 28.963 24.4254 28.8022 24.1352C27.6084 21.6816 25.5357 19.7677 22.9964 18.7743C22.6783 18.6857 22.3381 18.7266 22.0499 18.8881C21.7618 19.0495 21.5491 19.3184 21.4582 19.6362C21.4143 19.7973 21.4027 19.9655 21.4238 20.1312C21.445 20.2968 21.4986 20.4566 21.5816 20.6015C21.7614 20.8703 22.0246 21.0722 22.3306 21.1761L22.3163 21.1905Z" fill="#F2DDFF"/>
</g>
<g opacity="0.63">
<path d="M29.5857 29.137C29.8332 29.137 30.0751 29.0635 30.2809 28.9259C30.4867 28.7883 30.6471 28.5926 30.7418 28.3638C30.8365 28.1349 30.8612 27.883 30.813 27.6401C30.7647 27.3971 30.6455 27.1739 30.4705 26.9987C30.2955 26.8235 30.0726 26.7042 29.8298 26.6559C29.5871 26.6076 29.3355 26.6324 29.1069 26.7272C28.8783 26.822 28.6828 26.9825 28.5453 27.1885C28.4079 27.3945 28.3345 27.6367 28.3345 27.8844C28.3382 28.2155 28.4712 28.5319 28.7051 28.766C28.9389 29.0001 29.255 29.1333 29.5857 29.137Z" fill="#F2DDFF"/>
</g>
<g opacity="0.5">
<path d="M17.5752 1.90195C17.5895 2.88448 17.5752 3.86988 17.6211 4.84667C17.6281 5.23011 17.6909 5.61047 17.8077 5.97572C17.8918 6.30854 18.0898 6.60131 18.3673 6.80312C18.7059 6.96975 18.7949 6.51582 18.8408 6.29748C18.9359 5.84258 19.0011 5.38193 19.036 4.91849C19.0704 4.43454 19.0704 3.94876 19.036 3.46481C19.013 3.16028 18.97 2.78679 18.6744 2.62304C18.6179 2.58446 18.5532 2.55979 18.4854 2.55103C18.4177 2.54228 18.3488 2.54969 18.2844 2.57266C18.2201 2.59563 18.162 2.63351 18.1151 2.68321C18.0682 2.73291 18.0336 2.79301 18.0143 2.85862C17.9741 3.10464 17.9683 3.35507 17.9971 3.6027C17.9971 3.88999 18.0258 4.19739 18.0516 4.49618C18.0516 4.62833 18.2726 4.62833 18.2611 4.49618C18.2015 4.0285 18.1804 3.55672 18.198 3.08558C18.2152 2.91608 18.2324 2.74658 18.4362 2.76094C18.5205 2.76958 18.599 2.80833 18.6571 2.87011C18.795 3.08714 18.8575 3.34362 18.8351 3.59983C18.8881 4.50032 18.8195 5.40384 18.6313 6.28599C18.6026 6.41527 18.6112 6.63936 18.3845 6.55318C18.3185 6.53019 18.2554 6.40378 18.2181 6.34919C18.1045 6.17165 18.0184 5.97793 17.9626 5.77461C17.8729 5.4195 17.8257 5.05495 17.822 4.68866C17.7933 3.75784 17.7962 2.82415 17.7847 1.89333C17.7806 1.86849 17.7678 1.84593 17.7486 1.82965C17.7294 1.81337 17.7051 1.80444 17.68 1.80444C17.6548 1.80444 17.6305 1.81337 17.6113 1.82965C17.5921 1.84593 17.5793 1.86849 17.5752 1.89333V1.90195Z" fill="#C19133"/>
<path d="M19.386 1.4998C19.5214 2.15478 19.5897 2.82187 19.5898 3.49072L19.6644 5.34661L19.739 7.20251C19.779 7.46204 19.7653 7.72704 19.6989 7.98107C19.541 8.37466 19.1249 8.23676 18.9326 7.96383C18.8593 7.84777 18.7959 7.72571 18.7432 7.59897C18.6887 7.47543 18.5078 7.58173 18.5624 7.70526C18.7432 8.09885 19.1823 8.72228 19.6845 8.3488C19.7695 8.27243 19.8375 8.17897 19.884 8.07451C19.9305 7.97006 19.9544 7.85696 19.9543 7.74261C19.9696 7.3411 19.959 6.93902 19.9227 6.53887L19.8165 3.95325C19.8249 3.11067 19.748 2.2694 19.5869 1.44234C19.5554 1.31306 19.3545 1.36765 19.386 1.4998Z" fill="#C19133"/>
<path d="M14.7886 1.14352L15.0038 4.46172C15.0268 4.80935 15.0038 5.23166 15.2363 5.52469C15.3299 5.6475 15.4673 5.72925 15.6198 5.75282C15.7723 5.77639 15.928 5.73993 16.0542 5.6511C16.4101 5.42702 16.4962 4.97885 16.5593 4.59675C16.6424 4.08601 16.6741 3.56821 16.654 3.05113C16.6367 2.56666 16.5693 2.08528 16.4531 1.61468C16.3871 1.35324 16.1977 1.01998 15.8791 1.16075C15.5606 1.30153 15.5147 1.83014 15.5003 2.15191C15.4715 2.72833 15.5042 3.30618 15.5979 3.87565C15.6024 3.89078 15.6102 3.90471 15.6208 3.91644C15.6313 3.92816 15.6444 3.93739 15.6589 3.94344C15.6735 3.94949 15.6892 3.95222 15.705 3.95143C15.7207 3.95063 15.7361 3.94634 15.75 3.93885C15.8793 3.87964 15.9811 3.77312 16.0344 3.64117C16.0878 3.50923 16.0887 3.36184 16.037 3.22925C15.9853 3.10571 15.7844 3.1603 15.8361 3.28383C15.8561 3.32655 15.8674 3.37286 15.8693 3.42003C15.8712 3.46719 15.8636 3.51425 15.847 3.55844C15.8305 3.60262 15.8052 3.64304 15.7728 3.67729C15.7403 3.71154 15.7013 3.73893 15.6581 3.75786L15.8131 3.82106C15.7467 3.40781 15.7131 2.98992 15.7127 2.57135C15.6728 2.2134 15.714 1.85108 15.8332 1.51125C15.925 1.33313 16.0886 1.26993 16.2063 1.47103C16.2784 1.63714 16.3239 1.81359 16.3412 1.99389C16.4177 2.40045 16.46 2.81273 16.4675 3.22637C16.4733 3.61634 16.4503 4.00621 16.3986 4.39277C16.3469 4.74614 16.3067 5.25464 15.9824 5.46436C15.1617 6.01596 15.2162 4.26349 15.1932 3.89289C15.133 2.9793 15.0756 2.06285 15.0153 1.14927C15.0153 1.01711 14.7972 1.01424 14.8058 1.14927L14.7886 1.14352Z" fill="#C19133"/>
<path d="M12.7853 1.19229C13.3994 2.32134 13.5429 3.60265 13.6147 4.86672C13.6491 5.49876 13.6778 6.13081 13.7065 6.76572C13.7295 7.22538 13.7352 7.71378 14.0853 8.05852C14.1047 8.07795 14.131 8.08887 14.1585 8.08887C14.1859 8.08887 14.2123 8.07795 14.2317 8.05852C14.2511 8.03909 14.262 8.01274 14.262 7.98526C14.262 7.95779 14.2511 7.93143 14.2317 7.912C13.7983 7.48107 13.9103 6.61633 13.8816 6.05037C13.8529 5.48441 13.8299 4.86385 13.784 4.26916C13.7359 3.16688 13.4562 2.08713 12.9632 1.10035C12.9001 0.982564 12.7193 1.10035 12.7853 1.20665V1.19229Z" fill="#C19133"/>
<path d="M13.6262 1.58033C14.3351 3.3328 14.2002 5.2835 14.8516 7.03885C15.0496 7.5732 15.4572 8.6017 16.1804 8.02137C16.5047 7.76281 16.5793 7.29166 16.674 6.91244C16.806 6.38382 16.9179 5.84946 17.0155 5.31223C17.2291 4.12658 17.3614 2.9277 17.4116 1.72398C17.4116 1.58895 17.2078 1.58895 17.2021 1.72398C17.1538 2.93084 17.0205 4.13278 16.8031 5.32085C16.697 5.89543 16.5735 6.47001 16.4272 7.04459C16.3497 7.33188 16.278 7.72259 15.9996 7.90646C15.5949 8.15927 15.3883 7.75707 15.2477 7.46116C14.3666 5.59665 14.5991 3.43909 13.8127 1.52287C13.7639 1.39933 13.5602 1.45392 13.6118 1.57745L13.6262 1.58033Z" fill="#C19133"/>
<path d="M20.3531 0.899335C20.3273 1.81292 20.3216 2.72363 20.3531 3.63434C20.3531 4.08826 20.3789 4.54505 20.4019 4.99897C20.4019 5.26328 20.3818 5.66549 20.6229 5.86084C20.6557 5.89061 20.6959 5.91109 20.7393 5.92018C20.7827 5.92927 20.8277 5.92664 20.8697 5.91255C21.0046 5.86371 20.9902 5.72294 21.0132 5.59941C21.0878 5.18571 21.1452 4.77201 21.1854 4.35544C21.2705 3.46037 21.2753 2.55946 21.1997 1.66353C21.1997 1.53137 20.9816 1.5285 20.9902 1.66353C21.1069 3.03766 21.0316 4.42136 20.7664 5.77465L20.841 5.70283C20.5684 5.80051 20.5971 4.70594 20.5913 4.56804C20.5741 4.16296 20.5626 3.755 20.554 3.34992C20.5406 2.53785 20.5454 1.72386 20.5684 0.907953C20.5684 0.7758 20.3646 0.7758 20.3617 0.907953L20.3531 0.899335Z" fill="#C19133"/>
<path d="M12.1025 1.36749C12.4865 2.2379 12.699 3.1744 12.7281 4.12548C12.8056 5.10802 12.8773 6.09342 12.9519 7.07595C12.9519 7.21098 13.1701 7.21098 13.1586 7.07595C13.0811 6.02734 13.0122 4.97299 12.9204 3.91576C12.8785 2.99564 12.6623 2.09188 12.2833 1.25258C12.223 1.13192 12.0422 1.23821 12.1025 1.35888V1.36749Z" fill="#C19133"/>
</g>
<g opacity="0.69">
<g opacity="0.39">
<path d="M18.2381 10.219C19.5955 10.1156 21.1079 9.9317 21.9316 8.69923C22.1583 8.3631 21.6159 8.04995 21.392 8.3832C20.709 9.39734 19.3429 9.50651 18.2352 9.59269C18.1522 9.59269 18.0726 9.62568 18.014 9.68441C17.9553 9.74314 17.9224 9.82279 17.9224 9.90584C17.9224 9.98889 17.9553 10.0685 18.014 10.1273C18.0726 10.186 18.1522 10.219 18.2352 10.219H18.2381Z" fill="#F2DDFF"/>
</g>
<g opacity="0.39">
<path d="M16.9183 10.2938C17.0012 10.2938 17.0808 10.2608 17.1395 10.2021C17.1981 10.1433 17.2311 10.0637 17.2311 9.98063C17.2311 9.89757 17.1981 9.81792 17.1395 9.7592C17.0808 9.70047 17.0012 9.66748 16.9183 9.66748C16.8353 9.66748 16.7558 9.70047 16.6971 9.7592C16.6384 9.81792 16.6055 9.89757 16.6055 9.98063C16.6055 10.0637 16.6384 10.1433 16.6971 10.2021C16.7558 10.2608 16.8353 10.2938 16.9183 10.2938Z" fill="#F2DDFF"/>
</g>
<g opacity="0.39">
<path d="M11.1669 7.73106C11.032 8.32862 11.3993 8.84862 11.8815 9.16751C12.1219 9.31179 12.3745 9.43484 12.6362 9.53524C12.8967 9.64555 13.1631 9.74145 13.4341 9.82253C13.514 9.84379 13.599 9.83283 13.6709 9.792C13.7428 9.75118 13.7958 9.68375 13.8186 9.6042C13.8391 9.52425 13.8278 9.43946 13.7871 9.36767C13.7465 9.29588 13.6796 9.24267 13.6005 9.21923C13.1535 9.09691 12.7221 8.92338 12.3148 8.7021L12.1828 8.62166L12.1139 8.57569L12.0938 8.56133C12.0497 8.52534 12.0075 8.48698 11.9676 8.44642L11.9216 8.39757C11.8556 8.32575 11.9216 8.41481 11.8987 8.36884C11.8666 8.32405 11.8379 8.277 11.8126 8.22807C11.7896 8.17636 11.8327 8.28841 11.8126 8.1936C11.8046 8.17394 11.7979 8.15379 11.7925 8.13327C11.7925 8.10454 11.7781 8.07869 11.7724 8.05283C11.7667 8.02698 11.7724 8.11603 11.7724 8.02122C11.771 8.00018 11.771 7.97906 11.7724 7.95802C11.7724 7.86321 11.7581 8.00111 11.7724 7.91205C11.7945 7.83167 11.7838 7.7458 11.7426 7.67333C11.7014 7.60087 11.6332 7.54774 11.5529 7.52565C11.4726 7.50355 11.3868 7.51429 11.3144 7.55551C11.242 7.59673 11.1889 7.66504 11.1669 7.74543V7.73106Z" fill="#F2DDFF"/>
</g>
</g>
<g opacity="0.36">
<path d="M8.51518 26.5283C8.32459 26.5578 8.12956 26.53 7.95471 26.4486C7.77987 26.3671 7.63306 26.2356 7.53282 26.0707C7.43257 25.9058 7.38339 25.7148 7.39149 25.522C7.39958 25.3291 7.46459 25.1429 7.57831 24.987C7.69202 24.8311 7.84934 24.7124 8.03039 24.6459C8.21145 24.5794 8.40811 24.5682 8.59557 24.6135C8.78302 24.6588 8.95284 24.7588 9.0836 24.9007C9.21435 25.0426 9.30018 25.2201 9.33023 25.4108C9.35063 25.5378 9.34568 25.6676 9.31568 25.7927C9.28568 25.9178 9.23121 26.0357 9.15543 26.1396C9.07965 26.2436 8.98405 26.3314 8.87415 26.3981C8.76426 26.4648 8.64226 26.5091 8.51518 26.5283Z" stroke="#F2DDFF" stroke-width="0.61" stroke-miterlimit="10"/>
<path d="M10.9658 25.0115C10.9148 24.9738 10.8716 24.9264 10.8389 24.8719C10.8061 24.8175 10.7844 24.7572 10.7749 24.6944C10.7655 24.6315 10.7685 24.5675 10.7837 24.5058C10.799 24.4441 10.8263 24.3861 10.864 24.3349C10.9017 24.2838 10.949 24.2406 11.0034 24.2078C11.0577 24.1751 11.118 24.1533 11.1808 24.1438C11.2436 24.1344 11.3076 24.1374 11.3692 24.1526C11.4308 24.1679 11.4887 24.1952 11.5398 24.233C11.6429 24.3091 11.7116 24.4232 11.7307 24.5501C11.7498 24.677 11.7178 24.8063 11.6417 24.9095C11.5656 25.0128 11.4516 25.0815 11.3249 25.1006C11.1981 25.1198 11.069 25.0877 10.9658 25.0115Z" stroke="#F2DDFF" stroke-width="0.61" stroke-miterlimit="10"/>
<path d="M10.6273 28.6257C10.4344 28.6557 10.2369 28.6279 10.0598 28.5456C9.88273 28.4633 9.734 28.3303 9.63243 28.1634C9.53085 27.9964 9.48099 27.8031 9.48914 27.6079C9.4973 27.4126 9.56311 27.2242 9.67825 27.0663C9.79339 26.9085 9.95269 26.7884 10.136 26.7212C10.3193 26.654 10.5185 26.6427 10.7082 26.6887C10.8979 26.7348 11.0697 26.8361 11.2019 26.9799C11.3342 27.1237 11.4208 27.3036 11.4509 27.4967C11.4713 27.625 11.4662 27.7561 11.4358 27.8824C11.4054 28.0087 11.3503 28.1278 11.2738 28.2327C11.1972 28.3377 11.1007 28.4264 10.9897 28.4938C10.8788 28.5613 10.7556 28.6061 10.6273 28.6257Z" stroke="#F2DDFF" stroke-width="0.61" stroke-miterlimit="10"/>
</g>
</g>
<defs>
<clipPath id="clip0_229_359">
<rect width="32.1053" height="50" fill="white" transform="translate(0.947266)"/>
</clipPath>
</defs>
</svg>
