<svg width="86" height="120" viewBox="0 0 86 120" fill="none" xmlns="http://www.w3.org/2000/svg">
<g clip-path="url(#clip0_285_6223)">
<path d="M84.5544 96.0083C84.5582 95.9583 84.5582 95.9082 84.5544 95.8582C83.5863 90.7622 68.0806 89.4263 49.9181 92.8561C31.7556 96.286 17.7961 103.213 18.7567 108.302L18.8017 108.452C18.8017 108.504 18.8017 108.557 18.8017 108.602C18.8123 108.653 18.8273 108.703 18.8468 108.752C18.8431 108.805 18.8431 108.857 18.8468 108.91C18.8468 108.955 18.8468 109.007 18.8843 109.052C18.9218 109.097 18.8843 109.157 18.8843 109.21L18.9293 109.352C18.9293 109.405 18.9293 109.458 18.9293 109.51C18.9293 109.563 18.9293 109.608 18.9293 109.653C18.9293 109.698 18.9293 109.758 18.9293 109.81L18.9743 109.96C18.9743 110.005 18.9743 110.058 18.9743 110.111C18.9859 110.162 19.001 110.212 19.0194 110.261C19.0161 110.311 19.0161 110.361 19.0194 110.411C19.0194 110.463 19.0194 110.508 19.0569 110.561C19.0944 110.613 19.0569 110.658 19.0569 110.711C19.0685 110.762 19.0835 110.812 19.1019 110.861C19.0983 110.911 19.0983 110.961 19.1019 111.011C19.1019 111.064 19.1019 111.109 19.1019 111.161C19.1019 111.214 19.1019 111.259 19.1019 111.311L19.147 111.461C19.147 111.514 19.147 111.559 19.147 111.612C19.1585 111.663 19.1736 111.713 19.192 111.762C19.192 111.814 19.192 111.867 19.192 111.912C19.2104 111.961 19.2255 112.011 19.237 112.062C19.237 112.114 19.237 112.167 19.237 112.212C19.2486 112.263 19.2636 112.313 19.2821 112.362C19.278 112.412 19.278 112.462 19.2821 112.512C19.2821 112.565 19.2821 112.61 19.3196 112.662C19.3571 112.715 19.3196 112.767 19.3196 112.82L19.3646 112.962C19.3646 113.015 19.3646 113.068 19.3646 113.12C19.3646 113.173 19.3646 113.218 19.4021 113.263C19.4397 113.308 19.4021 113.368 19.4021 113.42L19.4472 113.563C19.4472 113.615 19.4472 113.668 19.4472 113.72C19.4588 113.769 19.4738 113.817 19.4922 113.863C19.4848 113.915 19.4848 113.968 19.4922 114.021C19.4922 114.073 19.4922 114.118 19.5297 114.171C19.5673 114.223 19.5297 114.268 19.5297 114.321C19.5402 114.37 19.5553 114.417 19.5748 114.464C19.5748 114.516 19.5748 114.569 19.5748 114.621C20.5354 119.71 36.0411 121.053 54.2111 117.623C72.3811 114.193 86.3182 107.274 85.3575 102.178C85.3459 102.129 85.3309 102.081 85.3125 102.035C85.3162 101.982 85.3162 101.93 85.3125 101.877C85.3125 101.832 85.3125 101.78 85.3125 101.735C85.3125 101.69 85.3125 101.63 85.3125 101.577L85.2674 101.435C85.2674 101.382 85.2674 101.329 85.2674 101.277C85.2559 101.226 85.2408 101.176 85.2224 101.127C85.2295 101.077 85.2295 101.027 85.2224 100.977C85.2135 100.926 85.2009 100.876 85.1849 100.827C85.1849 100.782 85.1849 100.729 85.1849 100.677C85.1733 100.626 85.1583 100.575 85.1398 100.526C85.1432 100.476 85.1432 100.426 85.1398 100.376C85.1398 100.324 85.1399 100.279 85.1023 100.226C85.0648 100.174 85.1023 100.129 85.1023 100.076C85.0908 100.025 85.0757 99.9749 85.0573 99.926C85.0573 99.8735 85.0573 99.8284 85.0573 99.7759C85.0573 99.7234 85.0573 99.6783 85.0198 99.6258C84.9822 99.5733 85.0198 99.5207 85.0198 99.4757L84.9747 99.3256C84.9747 99.273 84.9747 99.2205 84.9747 99.1755C84.9632 99.1245 84.9481 99.0743 84.9297 99.0254C84.9338 98.9754 84.9338 98.9252 84.9297 98.8753C84.9297 98.8227 84.9297 98.7702 84.8922 98.7252C84.8547 98.6802 84.8922 98.6201 84.8922 98.5676C84.8806 98.519 84.8656 98.4714 84.8472 98.425C84.8472 98.3724 84.8472 98.3199 84.8472 98.2674C84.8472 98.2148 84.8471 98.1698 84.8096 98.1248C84.7721 98.0797 84.8096 98.0197 84.8096 97.9672L84.7646 97.8246C84.7646 97.772 84.7646 97.7195 84.7646 97.667C84.753 97.6184 84.738 97.5707 84.7196 97.5244C84.7233 97.4719 84.7233 97.4192 84.7196 97.3667C84.7115 97.3181 84.699 97.2704 84.682 97.2242C84.682 97.1716 84.682 97.1191 84.682 97.0665C84.6705 97.0155 84.6554 96.9654 84.637 96.9164C84.6404 96.8665 84.6404 96.8163 84.637 96.7663C84.637 96.7138 84.637 96.6688 84.5995 96.6162C84.5619 96.5637 84.5995 96.5187 84.5995 96.4661L84.5544 96.316C84.5544 96.2635 84.5544 96.2185 84.5544 96.1659C84.5581 96.1134 84.5581 96.0608 84.5544 96.0083Z" fill="#FFE031"/>
<g style="mix-blend-mode:multiply">
<path d="M84.5544 96.0083C84.5582 95.9583 84.5582 95.9082 84.5544 95.8582C83.5863 90.7622 68.0806 89.4263 49.9181 92.8561C31.7556 96.286 17.7961 103.213 18.7567 108.302L18.8017 108.452C18.8017 108.504 18.8017 108.557 18.8017 108.602C18.8123 108.653 18.8273 108.703 18.8468 108.752C18.8431 108.805 18.8431 108.857 18.8468 108.91C18.8468 108.955 18.8468 109.007 18.8843 109.052C18.9218 109.097 18.8843 109.157 18.8843 109.21L18.9293 109.352C18.9293 109.405 18.9293 109.458 18.9293 109.51C18.9293 109.563 18.9293 109.608 18.9293 109.653C18.9293 109.698 18.9293 109.758 18.9293 109.81L18.9743 109.96C18.9743 110.005 18.9743 110.058 18.9743 110.111C18.9859 110.162 19.001 110.212 19.0194 110.261C19.0161 110.311 19.0161 110.361 19.0194 110.411C19.0194 110.463 19.0194 110.508 19.0569 110.561C19.0944 110.613 19.0569 110.658 19.0569 110.711C19.0685 110.762 19.0835 110.812 19.1019 110.861C19.0983 110.911 19.0983 110.961 19.1019 111.011C19.1019 111.064 19.1019 111.109 19.1019 111.161C19.1019 111.214 19.1019 111.259 19.1019 111.311L19.147 111.461C19.147 111.514 19.147 111.559 19.147 111.612C19.1585 111.663 19.1736 111.713 19.192 111.762C19.192 111.814 19.192 111.867 19.192 111.912C19.2104 111.961 19.2255 112.011 19.237 112.062C19.237 112.114 19.237 112.167 19.237 112.212C19.2486 112.263 19.2636 112.313 19.2821 112.362C19.278 112.412 19.278 112.462 19.2821 112.512C19.2821 112.565 19.2821 112.61 19.3196 112.662C19.3571 112.715 19.3196 112.767 19.3196 112.82L19.3646 112.962C19.3646 113.015 19.3646 113.068 19.3646 113.12C19.3646 113.173 19.3646 113.218 19.4021 113.263C19.4397 113.308 19.4021 113.368 19.4021 113.42L19.4472 113.563C19.4472 113.615 19.4472 113.668 19.4472 113.72C19.4588 113.769 19.4738 113.817 19.4922 113.863C19.4848 113.915 19.4848 113.968 19.4922 114.021C19.4922 114.073 19.4922 114.118 19.5297 114.171C19.5673 114.223 19.5297 114.268 19.5297 114.321C19.5402 114.37 19.5553 114.417 19.5748 114.464C19.5748 114.516 19.5748 114.569 19.5748 114.621C20.5354 119.71 36.0411 121.053 54.2111 117.623C72.3811 114.193 86.3182 107.274 85.3575 102.178C85.3459 102.129 85.3309 102.081 85.3125 102.035C85.3162 101.982 85.3162 101.93 85.3125 101.877C85.3125 101.832 85.3125 101.78 85.3125 101.735C85.3125 101.69 85.3125 101.63 85.3125 101.577L85.2674 101.435C85.2674 101.382 85.2674 101.329 85.2674 101.277C85.2559 101.226 85.2408 101.176 85.2224 101.127C85.2295 101.077 85.2295 101.027 85.2224 100.977C85.2135 100.926 85.2009 100.876 85.1849 100.827C85.1849 100.782 85.1849 100.729 85.1849 100.677C85.1733 100.626 85.1583 100.575 85.1398 100.526C85.1432 100.476 85.1432 100.426 85.1398 100.376C85.1398 100.324 85.1399 100.279 85.1023 100.226C85.0648 100.174 85.1023 100.129 85.1023 100.076C85.0908 100.025 85.0757 99.9749 85.0573 99.926C85.0573 99.8735 85.0573 99.8284 85.0573 99.7759C85.0573 99.7234 85.0573 99.6783 85.0198 99.6258C84.9822 99.5733 85.0198 99.5207 85.0198 99.4757L84.9747 99.3256C84.9747 99.273 84.9747 99.2205 84.9747 99.1755C84.9632 99.1245 84.9481 99.0743 84.9297 99.0254C84.9338 98.9754 84.9338 98.9252 84.9297 98.8753C84.9297 98.8227 84.9297 98.7702 84.8922 98.7252C84.8547 98.6802 84.8922 98.6201 84.8922 98.5676C84.8806 98.519 84.8656 98.4714 84.8472 98.425C84.8472 98.3724 84.8472 98.3199 84.8472 98.2674C84.8472 98.2148 84.8471 98.1698 84.8096 98.1248C84.7721 98.0797 84.8096 98.0197 84.8096 97.9672L84.7646 97.8246C84.7646 97.772 84.7646 97.7195 84.7646 97.667C84.753 97.6184 84.738 97.5707 84.7196 97.5244C84.7233 97.4719 84.7233 97.4192 84.7196 97.3667C84.7115 97.3181 84.699 97.2704 84.682 97.2242C84.682 97.1716 84.682 97.1191 84.682 97.0665C84.6705 97.0155 84.6554 96.9654 84.637 96.9164C84.6404 96.8665 84.6404 96.8163 84.637 96.7663C84.637 96.7138 84.637 96.6688 84.5995 96.6162C84.5619 96.5637 84.5995 96.5187 84.5995 96.4661L84.5544 96.316C84.5544 96.2635 84.5544 96.2185 84.5544 96.1659C84.5581 96.1134 84.5581 96.0608 84.5544 96.0083Z" fill="#FFE031"/>
</g>
<path d="M67.3679 113.818C67.3679 113.818 64.8087 102.463 64.3133 102.56C63.818 102.658 65.5817 114.156 65.5817 114.156C65.5817 114.156 65.6417 114.448 65.7543 114.906L67.458 114.381C67.4054 114.036 67.3679 113.818 67.3679 113.818Z" fill="#FF8C31"/>
<path d="M80.7569 95.6028C80.2616 95.6929 81.7551 105.795 81.7551 105.795C81.7551 105.795 81.9277 106.545 82.1904 107.626C82.7164 107.245 83.2177 106.832 83.6914 106.388C83.6089 105.81 83.5564 105.457 83.5564 105.457C83.5564 105.457 81.2523 95.5428 80.7569 95.6028Z" fill="#FF8C31"/>
<path d="M76.2761 109.803C76.2761 109.803 74.1297 100.684 73.6419 100.797C73.154 100.91 74.4524 110.156 74.4524 110.156C74.4524 110.156 74.595 110.771 74.8127 111.657C75.3605 111.424 75.8934 111.184 76.4037 110.944C76.3362 110.268 76.2761 109.803 76.2761 109.803Z" fill="#FF8C31"/>
<path d="M55.5018 105.42C55.0065 105.51 56.7927 117.143 56.7927 117.143L58.579 116.76C58.4964 116.4 55.9897 105.3 55.5018 105.42Z" fill="#FF8C31"/>
<path d="M24.1076 116.67C24.1076 116.67 23.9425 116.1 23.6873 115.244C23.4321 114.389 23.1619 113.24 22.8542 112.092C22.3364 109.781 22.1788 107.401 21.9161 107.401C21.6534 107.401 21.3832 109.856 21.5783 112.295C21.7284 113.503 21.8486 114.726 22.0437 115.612C22.2388 116.498 22.3364 117.113 22.3364 117.113L22.4114 117.346C23.0693 117.682 23.7548 117.96 24.4603 118.179C24.2427 117.308 24.1076 116.67 24.1076 116.67Z" fill="#FF8C31"/>
<path d="M46.5406 118.854C47.126 118.787 47.7264 118.712 48.3194 118.629C47.8841 116.7 45.8126 107.784 45.3698 107.867C44.927 107.949 46.2179 116.685 46.5406 118.854Z" fill="#FF8C31"/>
<path d="M27.5983 106.988C27.1555 107.07 28.664 117.082 28.9793 119.116C29.5797 119.191 30.2026 119.266 30.8555 119.319C30.8555 119.206 30.8555 119.139 30.8555 119.139C30.8555 119.139 28.0937 106.89 27.5983 106.988Z" fill="#FF8C31"/>
<path d="M39.5464 118.283C39.5464 118.283 36.8596 106.275 36.3642 106.388C35.8689 106.5 37.7527 118.621 37.7527 118.621L37.9478 119.492L39.719 119.424C39.614 118.718 39.5464 118.283 39.5464 118.283Z" fill="#FF8C31"/>
<path d="M84.5467 95.8582C85.5074 100.947 71.5628 107.866 53.3928 111.296C35.2228 114.726 19.7246 113.398 18.7565 108.294C17.7883 103.191 31.7404 96.286 49.9104 92.8561C68.0804 89.4263 83.5786 90.7622 84.5467 95.8582Z" fill="#FFE031"/>
<g style="mix-blend-mode:multiply">
<path d="M78.7078 96.1954C79.4583 100.271 67.9229 105.87 52.905 108.714C37.8872 111.558 25.0909 110.56 24.3179 106.462C23.5448 102.365 35.1028 96.7883 50.1206 93.9439C65.1384 91.0994 77.9347 92.1276 78.7078 96.1954Z" fill="#FFE031"/>
</g>
<g style="mix-blend-mode:screen">
<path d="M55.0897 108.722C36.9272 112.159 21.414 110.823 20.4533 105.72C20.3766 105.261 20.4074 104.791 20.5434 104.346C19.1775 105.72 18.5245 107.063 18.7572 108.294C19.7253 113.39 35.231 114.726 53.3935 111.296C69.9724 108.159 83.0314 102.132 84.4573 97.2314C80.1869 101.547 68.8541 106.118 55.0897 108.722Z" fill="#FFE031"/>
</g>
<path d="M81.3502 108.617C80.9741 108.959 80.5522 109.247 80.0968 109.473L78.5958 110.366C78.2956 110.539 77.9879 110.726 77.6501 110.906L76.5619 111.424C72.8108 113.231 68.9144 114.72 64.9139 115.875C60.8911 117.024 56.8068 117.946 52.6804 118.637C50.9993 118.937 49.5883 119.139 48.5976 119.267L47.0366 119.477C47.0366 119.477 46.4737 119.545 45.483 119.62C44.4923 119.695 43.0813 119.852 41.3777 119.905C39.674 119.957 37.6926 120.01 35.5837 119.995C33.4747 119.98 31.2307 119.95 28.9716 119.71C26.7573 119.566 24.6044 118.922 22.6748 117.826C21.195 116.836 20.08 115.389 19.5001 113.706C19.2812 113.073 19.118 112.423 19.0123 111.762C18.9186 111.267 18.8634 110.765 18.8472 110.261C18.7821 109.816 18.7974 109.364 18.8922 108.925C19.0799 108.925 19.1174 110.869 20.1681 113.496C20.8104 115.001 21.9039 116.27 23.2977 117.128C25.1258 118.052 27.1343 118.565 29.1818 118.629C31.3508 118.787 33.5723 118.734 35.6813 118.712C37.7902 118.689 39.6965 118.629 41.3627 118.479C43.0288 118.329 44.4173 118.209 45.3854 118.111L46.8865 117.946L48.3875 117.766C49.3632 117.661 50.7516 117.488 52.4178 117.233C56.4977 116.651 60.5437 115.852 64.5386 114.839C68.515 113.811 72.4127 112.499 76.2016 110.914L77.3124 110.456C77.6651 110.298 77.9803 110.133 78.288 109.983L79.8717 109.233C80.3352 108.963 80.8323 108.756 81.3502 108.617Z" fill="#FF8C31"/>
<g style="mix-blend-mode:multiply">
<path d="M69.5373 112.955C66.4752 113.998 63.5331 113.758 63.0303 112.429C62.5274 111.101 64.5313 109.187 67.6234 108.144C70.7156 107.101 73.6276 107.341 74.1379 108.669C74.6483 109.998 72.6069 111.919 69.5373 112.955ZM80.9601 103.693C80.2096 103.07 78.3933 103.633 76.8998 104.954C75.4063 106.275 74.7834 107.851 75.5339 108.482C76.2844 109.112 78.0931 108.534 79.5942 107.213C81.0952 105.892 81.7031 104.316 80.9601 103.693Z" fill="#FFE031"/>
</g>
<path d="M27.38 106.8C27.2021 107.054 26.99 107.281 26.7496 107.476C26.0872 107.918 25.3143 108.165 24.5184 108.191C23.7225 108.216 22.9355 108.018 22.2465 107.618C20.858 106.628 20.9255 103.978 20.6403 102.455L15.0565 72.9596L8.70714 39.389C7.70645 34.0553 6.70577 28.7192 5.70508 23.3805L12.7224 22.0596C12.85 22.8101 12.9851 23.4931 13.1277 24.206C14.7638 32.882 16.4049 41.558 18.0511 50.2339L24.8733 86.2587C25.7589 90.9369 26.642 95.6126 27.5226 100.286C27.8453 102.297 28.6709 104.992 27.38 106.8Z" fill="#FFE031"/>
<g style="mix-blend-mode:multiply">
<path d="M17.9908 50.2115C16.3497 41.5355 14.7085 32.8596 13.0674 24.1836L12.6847 22.1572L7.94141 23.0578C8.94209 28.3965 9.94278 33.7327 10.9435 39.0664L17.2928 72.6294L22.8767 102.132C23.1694 103.633 23.0943 106.298 24.4828 107.288C24.9497 107.597 25.4861 107.786 26.0438 107.836C26.2856 107.74 26.5129 107.611 26.7193 107.453C26.9597 107.259 27.1719 107.031 27.3497 106.778C28.6031 104.992 27.8151 102.275 27.4323 100.293C26.5567 95.6152 25.6736 90.9395 24.783 86.2663L17.9908 50.2115Z" fill="#FFE031"/>
</g>
<path d="M80.9517 96.8484C79.3681 98.5146 75.2403 99.5278 74.4297 96.7884C74.0695 95.5726 73.9944 94.1091 73.7543 92.8482C71.903 83.0415 70.0467 73.2322 68.1854 63.4205C66.049 52.1227 63.9125 40.8299 61.776 29.5422C60.7503 24.1285 59.7221 18.7222 58.6914 13.3235L65.7012 11.9951C65.7012 11.9951 66.9696 18.7498 67.0447 19.08L72.5159 48.0124L78.7527 80.975C79.4882 84.8677 80.2262 88.7629 80.9667 92.6606C81.1994 93.9214 81.8974 95.6626 81.1243 96.6233L80.9517 96.8484Z" fill="#FFE031"/>
<g style="mix-blend-mode:multiply">
<path d="M76.2087 81.9813L69.9494 49.0111L64.4782 20.0787L63.1948 12.9863L58.8418 13.8119C59.8425 19.0505 60.8432 24.2891 61.8439 29.5277C63.9803 40.8205 66.1168 52.1132 68.2533 63.406C70.1095 73.2177 71.9658 83.027 73.8221 92.8337C74.0623 94.0946 74.1373 95.5581 74.4976 96.7739C74.9328 98.275 76.3363 98.6277 77.7848 98.4101C78.0293 98.244 78.2556 98.0528 78.4603 97.8397C78.5292 97.7707 78.5944 97.6981 78.6554 97.622C79.4059 96.6313 78.7305 94.9126 78.4903 93.6518C77.7098 89.7691 76.9492 85.8789 76.2087 81.9813Z" fill="#FFE031"/>
</g>
<path d="M33.4147 74.1903C30.9048 76.16 28.7694 78.5649 27.1104 81.2902C23.7542 86.8092 22.5491 93.3714 23.7256 99.7228C25.2266 107.641 33.6999 108.804 40.7473 108.489C49.1946 108.147 57.533 106.457 65.4467 103.483C71.9612 100.946 77.6952 97.734 76.1941 89.7935C76.044 89.043 75.8639 88.2324 75.6462 87.4669C74.5811 83.8046 72.7355 80.4163 70.2363 77.5349C67.7372 74.6536 64.6438 72.3476 61.1688 70.7754C58.3018 69.4846 54.6393 69.3945 52.1176 67.4882C51.8877 67.315 51.6672 67.1296 51.4571 66.9328C48.6127 64.3285 47.8997 60.3132 47.8171 56.5757C47.7346 53.0257 51.6222 51.262 53.9563 49.4458C56.4846 47.475 58.64 45.068 60.3207 42.3384C63.7113 36.8075 64.9307 30.2159 63.7431 23.8382C61.0337 9.57836 47.0966 0.196911 32.5967 2.93629C18.0967 5.67568 8.58015 19.4476 11.252 33.7675C12.4283 39.914 15.7671 45.4359 20.6634 49.3332C23.0654 51.2352 25.7733 52.7148 28.6715 53.7087C32.5441 55.0296 37.1823 54.8345 38.248 59.5627C38.8109 62.1145 40.1093 65.3567 39.4339 67.8935C38.5557 71.0381 35.7788 72.329 33.4147 74.1903Z" fill="white"/>
<path opacity="0.2" d="M36.2443 74.9267C34.3608 76.675 32.6051 78.5561 30.9907 80.5556C27.5608 85.2012 24.1685 96.9393 28.7392 101.705C33.5124 106.659 42.5562 104.505 48.4627 103.716C52.9208 103.124 57.3863 101.502 61.7093 100.429C68.3664 98.7706 74.0178 96.0237 71.8938 88.1808C70.4603 82.9272 67.8185 77.6736 63.1878 74.5815C58.9924 71.7895 53.949 70.6713 49.4534 68.4723C44.2523 65.9355 43.8921 59.8939 45.8209 55.1881C47.9524 49.987 53.0709 47.1201 56.6508 43.0523C61.1539 37.9037 61.1539 31.044 59.9531 24.5671C57.2438 10.3073 45.0028 0.603093 32.5968 2.95221C20.1908 5.30132 12.3329 18.7806 15.0422 33.0629C16.2431 39.4198 19.4177 46.3095 25.3543 49.2891C30.9231 52.0885 37.4526 52.6889 40.7474 58.5579C44.485 65.215 41.1302 70.0633 36.2443 74.9267Z" fill="#6F4AF0"/>
<path d="M72.0955 88.1357C71.8703 87.1 71.465 86.2744 70.8121 86.0718C70.0616 85.8316 69.0559 86.8749 68.1853 86.7473C66.9469 86.5746 66.249 85.0286 64.868 85.2988C63.2469 85.6065 62.5489 87.4753 60.8452 85.674C59.4493 84.173 59.1341 81.6062 56.7549 81.1709C55.2539 80.8932 53.7153 82.1091 52.1618 81.7789C50.6082 81.4486 49.9102 79.9251 49.3849 78.5216C47.9203 74.2307 46.7936 69.8317 46.015 65.3651C44.9306 63.4291 44.5163 61.189 44.8367 58.9932C44.4915 56.9293 43.6509 54.385 44.6491 52.4262C46.3903 48.9738 50.9234 48.3434 53.7454 46.0093C59.3742 41.3636 61.2505 34.7965 60.425 27.7192C58.3685 26.5559 55.4415 29.663 53.6328 30.5636C51.8241 31.4643 46.728 29.9182 43.4483 29.1602C41.1067 28.6273 40.7164 30.2634 39.1478 31.4117C37.1064 32.9128 36.7537 31.0215 34.5322 30.8263C32.3106 30.6312 32.2806 31.9296 30.6145 32.9503C28.0552 34.5414 25.1357 32.605 22.4639 32.5825C21.0229 32.5825 15.3114 34.7215 15.9869 36.8755C17.0813 40.6836 19.1358 44.1467 21.9535 46.9324C23.0174 47.8203 24.1547 48.6162 25.3533 49.3115C26.2314 49.7543 27.1396 50.1446 28.0552 50.5048C32.6183 52.0734 37.902 52.201 39.8158 54.6027C42.1349 57.4997 45.5873 81.974 45.5873 81.974C45.5873 81.974 44.4765 83.3624 40.0635 85.9592C35.6504 88.556 36.9563 93.4194 36.9563 93.4194C36.9563 93.4194 32.6934 92.6688 30.2917 94.4851C28.5656 95.7985 27.8225 98.5304 27.5373 99.9714C27.8458 100.615 28.2508 101.207 28.7382 101.728C33.5114 106.681 42.5552 104.527 48.4617 103.739C52.9198 103.146 57.3854 101.525 61.7083 100.452C65.7536 99.4385 71.0072 97.7874 72.133 93.1942C72.4328 91.5202 72.42 89.8051 72.0955 88.1357Z" fill="#2F267F"/>
<g style="mix-blend-mode:multiply" opacity="0.5">
<path d="M61.6935 100.429C57.3705 101.502 52.9049 103.123 48.4469 103.716C42.5403 104.504 33.4966 106.658 28.7233 101.705C28.2359 101.184 27.831 100.591 27.5225 99.9483C27.725 98.9499 28.0345 97.9761 28.4456 97.0438C30.2318 99.1303 33.8418 102.403 38.1423 101.247C44.229 99.6106 34.4347 93.9067 34.1871 93.2913C35.1124 93.2421 36.0403 93.2874 36.9565 93.4264C36.7824 92.6562 36.7318 91.8633 36.8064 91.0773C38.42 94.402 41.8798 98.1021 49.2349 96.6011C61.7985 94.0268 58.774 86.8443 56.3648 85.5309C54.2934 84.4052 46.0602 83.7147 43.5235 83.7222C44.2747 83.2212 44.9671 82.6371 45.5874 81.981C45.5874 81.981 42.135 57.5067 39.8159 54.6097C37.9021 52.208 32.6185 52.0804 28.0553 50.5119C27.1397 50.1516 26.2316 49.7613 25.3535 49.3185C24.1549 48.6232 23.0175 47.8273 21.9536 46.9394C21.1593 46.1954 20.4334 45.3816 19.7847 44.5077C23.7699 47.3222 29.1286 50.2117 34.0445 50.0165C43.2008 49.6638 52.3871 42.7215 53.3477 39.0064C54.3084 35.2914 48.7095 32.6196 45.0921 33.1149C41.4746 33.6102 40.2663 35.1038 34.0295 35.3064C27.7927 35.509 22.3289 34.676 20.3701 35.7267C18.9939 36.3556 17.5001 36.6856 15.9871 36.6949C15.6944 34.6084 21.0906 32.5895 22.4865 32.597C25.1584 32.597 28.0779 34.5559 30.6371 32.9648C32.2732 31.9441 32.3633 30.6382 34.5548 30.8408C36.7463 31.0435 37.1291 32.8897 39.1705 31.4262C40.7391 30.3005 41.1293 28.6643 43.4709 29.1747C46.7507 29.9252 51.7792 31.5088 53.6555 30.5782C55.5317 29.6475 58.3912 26.5704 60.4476 27.7337C61.2582 34.8111 59.3969 41.3781 53.768 46.0238C50.9461 48.3579 46.413 49.0258 44.6718 52.4407C43.6736 54.3995 44.5142 56.9438 44.8594 59.0077C44.539 61.2035 44.9532 63.4436 46.0377 65.3796C46.8163 69.8462 47.943 74.2452 49.4075 78.5361C49.9329 79.9396 50.5483 81.4406 52.1844 81.7934C53.8205 82.1461 55.2541 80.9078 56.7776 81.1854C59.1567 81.6207 59.4719 84.1875 60.8679 85.6885C62.5716 87.4898 63.2696 85.621 64.8907 85.3133C66.2716 85.0431 66.9696 86.5892 68.2079 86.7618C69.0785 86.8894 70.0467 85.8461 70.8347 86.0863C71.4877 86.289 71.893 87.1145 72.1181 88.1502C72.4399 89.8123 72.4526 91.5195 72.1557 93.1862C71.0074 97.7944 65.7538 99.4155 61.6935 100.429Z" fill="#2F267F"/>
</g>
<g style="mix-blend-mode:screen" opacity="0.4">
<path d="M21.0909 42.4815C22.9597 44.7331 27.3127 46.6994 30.0971 47.525C32.1784 48.2531 34.3366 48.7391 36.5291 48.9735C42.3155 49.3187 49.1077 47.1347 53.2956 43.0519C55.9224 40.5002 61.3561 34.1058 56.2977 31.4114C55.1193 30.781 53.3781 31.1863 52.1623 31.4114C49.543 31.9443 47.1338 33.1526 44.6571 34.1433C40.7395 35.7194 37.3096 37.2279 32.9716 36.5374C29.2941 35.952 25.8192 34.496 22.1492 35.3291C18.1639 36.2523 19.0721 40.0048 21.0909 42.4815Z" fill="#6F4AF0"/>
<g style="mix-blend-mode:screen" opacity="0.5">
<path d="M29.1511 42.7973C29.2636 41.709 31.0574 41.1686 33.1513 41.5739C35.2452 41.9792 36.8589 43.195 36.7463 44.2758C36.6337 45.3565 34.84 45.8894 32.746 45.4841C30.6521 45.0788 29.0385 43.8705 29.1511 42.7973Z" fill="white"/>
<path d="M23.5074 40.7107C23.8001 40.1028 25.0084 40.1553 26.2693 40.8383C27.5301 41.5213 28.2657 42.5795 27.973 43.1874C27.6803 43.7953 26.4719 43.7503 25.2111 43.0598C23.9502 42.3694 23.2147 41.3262 23.5074 40.7107Z" fill="white"/>
</g>
</g>
<g style="mix-blend-mode:screen" opacity="0.5">
<path d="M65.7993 79.7291C63.7279 77.425 59.1798 75.6538 56.2828 74.9559C54.1289 74.3187 51.9067 73.9408 49.6632 73.8301C43.7942 73.8301 37.0921 76.5619 33.1519 81.1401C30.7052 84.0071 25.6992 91.1145 31.0579 93.6512C32.2963 94.2366 34.0225 93.6962 35.2308 93.3585C37.8426 92.608 40.1842 91.197 42.5934 89.9962C46.436 88.0824 49.7908 86.2436 54.2264 86.7314C57.9789 87.1217 61.619 88.4426 65.2665 87.3319C69.2667 86.116 68.0359 82.2208 65.7993 79.7291Z" fill="#6F4AF0"/>
<path d="M57.5359 79.459C57.5359 80.6148 55.7421 81.2978 53.5882 80.9976C51.4342 80.6974 49.7155 79.4965 49.7455 78.3708C49.7755 77.245 51.5468 76.5395 53.6932 76.8697C55.8397 77.2 57.5659 78.3182 57.5359 79.459Z" fill="white"/>
<path d="M63.4056 81.2828C63.158 81.9507 61.9046 81.9733 60.6062 81.3278C59.3078 80.6824 58.4522 79.6091 58.6999 78.9412C58.9476 78.2732 60.2009 78.2582 61.5068 78.9412C62.8127 79.6242 63.6608 80.6449 63.4056 81.2828Z" fill="white"/>
</g>
<path opacity="0.2" d="M48.4627 103.716C52.9208 103.124 57.3864 101.502 61.7093 100.429C68.3664 98.7706 74.0178 96.0237 71.8938 88.1808C70.4604 82.9272 67.8185 77.6736 63.1879 74.5815C58.9925 71.7895 53.949 70.6713 49.4534 68.4723C44.2523 65.9355 43.8921 59.8939 45.8209 55.1881C47.9524 49.987 53.0709 47.1201 56.6509 43.0523C61.154 37.9037 61.1539 31.044 59.9531 24.5671C57.2438 10.3073 45.0029 0.603093 32.5968 2.95221C20.1908 5.30132 12.3329 18.713 15.0272 32.9728C22.6525 33.5883 30.4128 32.455 37.933 31.3517C42.5787 30.6688 49.2583 27.5316 53.6338 30.5337C57.2513 33.0179 55.6827 38.339 53.4161 41.3861C50.7818 44.9286 45.4832 48.441 41.2278 49.5743C38.3008 50.3248 35.4338 51.0753 32.4617 51.8258C33.2122 53.1167 35.8991 53.627 37.1299 54.5127C38.6142 55.5589 39.8494 56.9196 40.7474 58.4979C44.4174 65.0349 41.2428 69.8382 36.492 74.6115C41.7982 73.4107 49.4159 72.1273 54.5044 73.208C62.9627 75.0093 78.4534 93.2768 48.5003 98.1552C36.1768 100.167 29.8274 97.2395 26.6227 93.0892C26.345 96.474 26.8629 99.6637 28.7692 101.645C33.5125 106.659 42.5562 104.505 48.4627 103.716Z" fill="#6F4AF0"/>
<g style="mix-blend-mode:screen">
<path d="M44.244 91.9177C44.3116 91.2197 45.4824 90.867 46.8408 91.1672C48.1993 91.4674 49.2575 92.2179 49.1824 92.9234C49.1074 93.6289 47.9441 93.9741 46.5781 93.6739C45.2122 93.3737 44.169 92.6232 44.244 91.9177Z" fill="#2F267F"/>
<path d="M40.567 90.5672C40.7547 90.1694 41.5652 90.1995 42.3683 90.6498C43.1713 91.1001 43.6592 91.7831 43.4715 92.1508C43.2839 92.5186 42.4808 92.5111 41.6778 92.0682C40.8747 91.6254 40.3794 90.965 40.567 90.5672Z" fill="#2F267F"/>
</g>
<g style="mix-blend-mode:multiply" opacity="0.5">
<path d="M64.433 96.5558C64.0052 95.9854 64.6281 94.9347 65.8064 94.2067C66.9848 93.4787 68.2981 93.3511 68.7184 93.914C69.1387 94.4769 68.5233 95.5276 67.3375 96.2631C66.1517 96.9986 64.8533 97.1187 64.433 96.5558Z" fill="#2F267F"/>
<path d="M60.8078 98.0417C60.6802 97.6215 61.2956 97.1036 62.1812 96.8935C63.0668 96.6833 63.9074 96.8409 64.035 97.2612C64.1626 97.6815 63.5546 98.2069 62.6615 98.417C61.7684 98.6272 60.9429 98.4695 60.8078 98.0417Z" fill="#2F267F"/>
</g>
<g style="mix-blend-mode:multiply" opacity="0.5">
<path d="M48.7396 44.0422C48.3118 43.4718 48.9348 42.4286 50.1131 41.7006C51.2914 40.9726 52.6048 40.8375 53.0251 41.4004C53.4454 41.9633 52.8299 43.0065 51.6441 43.757C50.4583 44.5075 49.1524 44.6051 48.7396 44.0422Z" fill="#2F267F"/>
<path d="M45.1144 45.5354C44.9868 45.1151 45.6022 44.5897 46.4953 44.3796C47.3885 44.1694 48.214 44.3271 48.3416 44.7548C48.4692 45.1826 47.8613 45.693 46.9682 45.9106C46.0751 46.1283 45.242 45.9557 45.1144 45.5354Z" fill="#2F267F"/>
</g>
<g style="mix-blend-mode:screen" opacity="0.4">
<path d="M53.3402 94.1612C53.4001 94.4748 53.3655 94.7992 53.2409 95.0932C53.1163 95.3871 52.9073 95.6376 52.6403 95.8127C52.3734 95.9878 52.0604 96.0798 51.7411 96.0771C51.4218 96.0743 51.1106 95.9768 50.8467 95.7971C50.5828 95.6173 50.3782 95.3633 50.2588 95.0672C50.1393 94.771 50.1104 94.4462 50.1757 94.1336C50.241 93.8211 50.3975 93.5349 50.6255 93.3114C50.8535 93.0878 51.1427 92.9369 51.4564 92.8778C51.6645 92.8376 51.8784 92.839 52.0859 92.8818C52.2934 92.9246 52.4904 93.0081 52.6655 93.1274C52.8406 93.2467 52.9903 93.3994 53.1062 93.5769C53.222 93.7543 53.3015 93.9529 53.3402 94.1612Z" fill="#2F267F"/>
<path d="M56.132 91.5803C56.1675 91.7641 56.1475 91.9543 56.0747 92.1268C56.0019 92.2993 55.8796 92.4463 55.7232 92.5492C55.5668 92.6521 55.3834 92.7062 55.1961 92.7047C55.0089 92.7033 54.8264 92.6463 54.6716 92.541C54.5168 92.4357 54.3967 92.2868 54.3266 92.1132C54.2565 91.9397 54.2395 91.7492 54.2778 91.5659C54.316 91.3826 54.4078 91.2149 54.5415 91.0838C54.6752 90.9528 54.8448 90.8643 55.0288 90.8298C55.2745 90.7836 55.5286 90.8366 55.7354 90.9772C55.9421 91.1179 56.0847 91.3347 56.132 91.5803Z" fill="#2F267F"/>
<path d="M57.6475 95.2571C57.6626 95.3922 57.6261 95.5281 57.5454 95.6376C57.4647 95.7471 57.3457 95.8222 57.2121 95.8477C57.0785 95.8733 56.9402 95.8476 56.8247 95.7756C56.7093 95.7037 56.6252 95.5909 56.5893 95.4597C56.5742 95.3245 56.6106 95.1886 56.6913 95.0791C56.772 94.9696 56.8911 94.8946 57.0247 94.869C57.1583 94.8434 57.2966 94.8692 57.4121 94.9411C57.5275 95.013 57.6116 95.1259 57.6475 95.2571Z" fill="#2F267F"/>
<path d="M65.0478 92.4882C65.0777 92.6443 65.0606 92.8057 64.9988 92.9521C64.9369 93.0984 64.8329 93.2231 64.7002 93.3104C64.5674 93.3977 64.4117 93.4436 64.2528 93.4423C64.0939 93.4411 63.9389 93.3927 63.8075 93.3034C63.6761 93.214 63.5742 93.0877 63.5146 92.9404C63.4551 92.7931 63.4405 92.6314 63.4729 92.4758C63.5052 92.3203 63.583 92.1778 63.6963 92.0664C63.8097 91.9551 63.9535 91.8799 64.1097 91.8503C64.2132 91.8297 64.3199 91.8299 64.4234 91.8509C64.5269 91.8719 64.6251 91.9133 64.7124 91.9726C64.7998 92.032 64.8744 92.1082 64.932 92.1967C64.9895 92.2852 65.0289 92.3843 65.0478 92.4882Z" fill="#2F267F"/>
<path d="M39.2374 94.7921C39.2713 94.9744 39.2504 95.1627 39.1774 95.3332C39.1043 95.5036 38.9823 95.6486 38.8269 95.7498C38.6715 95.851 38.4895 95.9038 38.3041 95.9016C38.1186 95.8994 37.938 95.8423 37.785 95.7375C37.6319 95.6327 37.5134 95.4849 37.4444 95.3128C37.3754 95.1407 37.3589 94.9519 37.397 94.7704C37.4352 94.589 37.5263 94.4228 37.6589 94.2931C37.7914 94.1634 37.9594 94.0758 38.1417 94.0416C38.2629 94.0188 38.3875 94.0201 38.5082 94.0455C38.6289 94.0709 38.7434 94.1198 38.8452 94.1895C38.947 94.2593 39.034 94.3484 39.1013 94.4517C39.1686 94.5551 39.2149 94.6708 39.2374 94.7921Z" fill="#2F267F"/>
<path d="M44.1085 90.1614C44.1481 90.3724 44.1023 90.5904 43.9813 90.7677C43.8603 90.9449 43.6739 91.067 43.4631 91.107C43.3073 91.1351 43.1467 91.1165 43.0015 91.0536C42.8562 90.9907 42.7329 90.8863 42.6468 90.7535C42.5607 90.6207 42.5158 90.4654 42.5176 90.3072C42.5195 90.1489 42.5681 89.9947 42.6573 89.864C42.7466 89.7333 42.8724 89.6318 43.0191 89.5724C43.1658 89.513 43.3268 89.4982 43.4818 89.53C43.6369 89.5618 43.7791 89.6387 43.8906 89.751C44.0021 89.8633 44.0779 90.0061 44.1085 90.1614Z" fill="#2F267F"/>
<path d="M51.2914 90.5814C51.3088 90.6682 51.3087 90.7576 51.2913 90.8444C51.2739 90.9311 51.2394 91.0136 51.1898 91.0869C51.1402 91.1602 51.0765 91.223 51.0025 91.2715C50.9285 91.32 50.8455 91.3533 50.7585 91.3695C50.5826 91.4003 50.4015 91.361 50.2542 91.26C50.1069 91.159 50.0051 91.0043 49.9705 90.8291C49.9463 90.6584 49.989 90.4851 50.0897 90.3452C50.1905 90.2053 50.3413 90.1098 50.5108 90.0786C50.6809 90.0428 50.8583 90.0756 51.0044 90.1697C51.1505 90.2638 51.2536 90.4118 51.2914 90.5814Z" fill="#2F267F"/>
<path d="M33.5338 42.9542C33.5619 43.11 33.5433 43.2706 33.4804 43.4158C33.4175 43.5611 33.3131 43.6845 33.1803 43.7706C33.0475 43.8566 32.8922 43.9016 32.7339 43.8997C32.5757 43.8978 32.4215 43.8492 32.2908 43.76C32.16 43.6707 32.0586 43.5449 31.9992 43.3982C31.9398 43.2515 31.925 43.0905 31.9568 42.9355C31.9886 42.7804 32.0654 42.6382 32.1778 42.5267C32.2901 42.4152 32.4329 42.3394 32.5881 42.3088C32.7991 42.2693 33.0171 42.315 33.1944 42.436C33.3717 42.557 33.4938 42.7434 33.5338 42.9542Z" fill="#2F267F"/>
<path d="M38.2546 41.9259C38.2785 42.0472 38.2779 42.1721 38.253 42.2932C38.228 42.4143 38.1791 42.5292 38.1093 42.6312C38.0394 42.7332 37.9499 42.8203 37.846 42.8873C37.7421 42.9544 37.6259 43 37.5041 43.0216C37.3218 43.0555 37.1335 43.0346 36.963 42.9615C36.7926 42.8885 36.6476 42.7665 36.5464 42.6111C36.4452 42.4556 36.3924 42.2737 36.3946 42.0883C36.3968 41.9028 36.4539 41.7222 36.5587 41.5691C36.6635 41.4161 36.8113 41.2976 36.9834 41.2286C37.1555 41.1595 37.3443 41.143 37.5258 41.1812C37.7073 41.2194 37.8734 41.3105 38.0031 41.443C38.1328 41.5756 38.2204 41.7436 38.2546 41.9259Z" fill="#2F267F"/>
<path d="M40.1985 47.8395C40.2244 47.9708 40.2108 48.1069 40.1592 48.2304C40.1077 48.3539 40.0207 48.4593 39.9092 48.5333C39.7976 48.6073 39.6666 48.6464 39.5328 48.6458C39.399 48.6452 39.2683 48.6049 39.1575 48.5299C39.0466 48.455 38.9605 48.3488 38.9101 48.2248C38.8597 48.1008 38.8472 47.9646 38.8744 47.8336C38.9015 47.7025 38.9669 47.5825 39.0623 47.4887C39.1578 47.3948 39.2789 47.3315 39.4104 47.3067C39.5855 47.2736 39.7666 47.311 39.9142 47.4108C40.0618 47.5106 40.164 47.6647 40.1985 47.8395Z" fill="#2F267F"/>
<path d="M44.1014 39.5839C44.1221 39.6879 44.122 39.795 44.1011 39.899C44.0801 40.0029 44.0388 40.1017 43.9795 40.1897C43.9202 40.2776 43.8441 40.3529 43.7555 40.4112C43.6669 40.4695 43.5677 40.5098 43.4635 40.5295C43.3077 40.5591 43.1467 40.5419 43.0007 40.4801C42.8548 40.4183 42.7303 40.3147 42.6431 40.1823C42.5559 40.0499 42.5099 39.8946 42.5108 39.7361C42.5116 39.5776 42.5594 39.4229 42.6481 39.2914C42.7367 39.16 42.8623 39.0578 43.0089 38.9976C43.1556 38.9374 43.3168 38.922 43.4722 38.9533C43.6276 38.9846 43.7703 39.0611 43.8823 39.1733C43.9942 39.2856 44.0705 39.4284 44.1014 39.5839Z" fill="#2F267F"/>
<path d="M46.525 35.0285C46.5531 35.1842 46.5345 35.3448 46.4716 35.49C46.4087 35.6353 46.3043 35.7587 46.1715 35.8448C46.0387 35.9309 45.8834 35.9758 45.7251 35.9739C45.5669 35.972 45.4127 35.9234 45.282 35.8342C45.1513 35.745 45.0498 35.6191 44.9904 35.4724C44.931 35.3257 44.9162 35.1647 44.948 35.0097C44.9798 34.8546 45.0566 34.7124 45.169 34.6009C45.2813 34.4894 45.4241 34.4136 45.5794 34.383C45.7903 34.3435 46.0083 34.3892 46.1856 34.5102C46.3629 34.6312 46.485 34.8176 46.525 35.0285Z" fill="#2F267F"/>
<path d="M54.894 35.9064C54.9239 36.064 54.9064 36.2269 54.8437 36.3745C54.781 36.5221 54.6759 36.6479 54.5417 36.7357C54.4075 36.8236 54.2503 36.8697 54.0899 36.8682C53.9295 36.8666 53.7732 36.8175 53.6407 36.7271C53.5082 36.6367 53.4056 36.509 53.3457 36.3602C53.2858 36.2114 53.2715 36.0482 53.3044 35.8912C53.3373 35.7342 53.4161 35.5905 53.5307 35.4783C53.6454 35.3662 53.7907 35.2905 53.9483 35.2609C54.1593 35.2214 54.3773 35.2672 54.5546 35.3882C54.7319 35.5092 54.8539 35.6955 54.894 35.9064Z" fill="#2F267F"/>
<path d="M33.5265 38.5784C33.566 38.7893 33.5203 39.0074 33.3993 39.1847C33.2783 39.3619 33.0919 39.484 32.881 39.524C32.7253 39.5521 32.5647 39.5335 32.4195 39.4706C32.2742 39.4077 32.1508 39.3033 32.0647 39.1705C31.9786 39.0377 31.9337 38.8824 31.9356 38.7242C31.9375 38.5659 31.9861 38.4117 32.0753 38.281C32.1645 38.1503 32.2904 38.0488 32.4371 37.9894C32.5838 37.93 32.7448 37.9152 32.8998 37.947C33.0549 37.9788 33.1971 38.0557 33.3086 38.168C33.4201 38.2803 33.4959 38.4231 33.5265 38.5784Z" fill="#2F267F"/>
<path d="M38.4872 37.3702C38.5266 37.5788 38.5032 37.7944 38.4201 37.9898C38.3369 38.1851 38.1977 38.3513 38.0201 38.4675C37.8424 38.5837 37.6343 38.6446 37.422 38.6425C37.2097 38.6404 37.0029 38.5754 36.8275 38.4557C36.6522 38.3361 36.5163 38.1671 36.437 37.9701C36.3578 37.7732 36.3386 37.5572 36.3821 37.3494C36.4256 37.1417 36.5298 36.9514 36.6814 36.8029C36.833 36.6543 37.0253 36.554 37.2339 36.5147C37.5135 36.462 37.8027 36.5225 38.0377 36.6829C38.2727 36.8434 38.4344 37.0906 38.4872 37.3702Z" fill="#2F267F"/>
</g>
<path d="M39.1784 64.509C38.9363 63.2292 38.6231 61.9638 38.2403 60.7189C37.8433 59.4834 37.1709 58.3543 36.2739 57.4166L35.8762 57.1014C35.726 57.0188 35.5985 56.9212 35.4334 56.8387C35.0956 56.6886 34.7729 56.501 34.4201 56.3659C33.7121 56.0743 32.9879 55.8237 32.2511 55.6154C30.7501 55.165 29.2491 54.7898 27.7856 54.2719C27.0351 54.0168 26.4196 53.694 25.7817 53.4313C25.1438 53.1687 24.5734 52.8535 24.033 52.5833C22.8366 51.9775 21.6831 51.2904 20.5806 50.5268L19.695 49.8514L19.2297 49.4986L18.7119 49.0408L17.4885 47.9301L16.1601 46.4891C15.7023 45.9637 15.2895 45.3483 14.8242 44.7479C13.9623 43.433 13.2093 42.05 12.5726 40.6125C11.2881 37.9652 10.456 35.1215 10.1109 32.1992C10.0131 31.2287 10.0842 30.2485 10.3211 29.3023C10.3949 28.9369 10.5459 28.5914 10.7639 28.2891C10.7393 28.6489 10.6815 29.0056 10.5913 29.3548C10.4689 30.2826 10.4841 31.2234 10.6363 32.1467C11.1508 34.9588 12.095 37.6749 13.4357 40.1998C14.107 41.5592 14.8876 42.8619 15.7698 44.0949C16.2276 44.6503 16.6329 45.2207 17.0757 45.701L18.3816 47.0294L19.5749 48.0577L20.0778 48.4779L20.5281 48.8082L21.3912 49.4236C22.4309 50.1816 23.519 50.871 24.6484 51.4875C25.1588 51.7652 25.7066 52.0804 26.3146 52.3581C26.9225 52.6358 27.5529 52.9735 28.2134 53.2212C29.5493 53.7616 31.0654 54.1894 32.5739 54.7222C33.339 54.979 34.0905 55.2746 34.8254 55.6078C35.1932 55.773 35.5309 55.9831 35.8762 56.1632C36.0488 56.2608 36.2214 56.3884 36.394 56.501C36.5666 56.6135 36.7017 56.7711 36.8518 56.9062C37.7836 57.9625 38.45 59.2258 38.7956 60.5913C39.0557 61.5227 39.2192 62.4784 39.2835 63.4432C39.3195 63.8019 39.2838 64.1642 39.1784 64.509Z" fill="#6148EC"/>
<path d="M36.1766 71.8945C36.1766 71.8945 36.0715 72.1722 35.7938 72.6075C35.4086 73.2039 34.9796 73.7708 34.5104 74.3037L32.5291 76.5552C31.7786 77.3658 30.9755 78.1913 30.2325 79.0694C28.8327 80.6203 27.6024 82.316 26.5625 84.1279C26.2022 84.8784 25.812 85.5014 25.6769 85.9592C25.5418 86.417 25.4142 86.7097 25.4142 86.7097L25.1215 87.4602C24.8982 88.0999 24.7103 88.7513 24.5586 89.4116C24.1178 91.45 23.9188 93.5333 23.9657 95.6183C23.978 97.7173 24.2965 99.8032 24.9113 101.81C25.1341 102.459 25.4286 103.081 25.7894 103.664C26.0596 104.077 26.2473 104.309 26.2097 104.347C26.1722 104.384 25.932 104.212 25.5718 103.829C25.1012 103.281 24.7142 102.666 24.4235 102.005C23.6102 99.9851 23.1335 97.8452 23.0125 95.6709C22.8475 93.4941 22.9585 91.3053 23.3428 89.1564C23.4785 88.4417 23.6539 87.7351 23.8681 87.0399L24.1533 86.2894L24.4685 85.5389C24.6637 85.0511 25.0614 84.4056 25.4817 83.6176C26.6342 81.7724 27.9939 80.0651 29.5345 78.5291C30.3376 77.6735 31.2082 76.9005 31.9812 76.1349L34.1277 74.071C34.7431 73.4631 35.2535 72.9527 35.5762 72.57C35.8989 72.1872 36.124 71.8645 36.1766 71.8945Z" fill="#6148EC"/>
<path d="M66.8574 102.717C68.2218 102.11 69.5155 101.355 70.7151 100.466C71.9089 99.5341 72.9453 98.4166 73.7847 97.1561C74.2497 96.4562 74.623 95.6995 74.8955 94.9046C75.1593 94.088 75.3133 93.24 75.3533 92.3828C75.4065 90.6654 75.1524 88.9523 74.6028 87.3244C74.1305 85.8792 73.5613 84.4675 72.8991 83.099C72.4331 82.1509 71.891 81.2423 71.278 80.3821L70.565 79.4139L70.3849 79.1587L69.792 78.4908L68.8688 77.4476L67.5404 76.2242C65.0305 74.1055 62.2766 72.294 59.3373 70.828C57.7687 69.9424 56.1251 69.2444 54.5715 68.5014C53.1233 67.8628 51.7837 67.0018 50.6013 65.9497C49.7865 65.1721 49.1335 64.2412 48.6799 63.2103C48.486 62.8322 48.359 62.4234 48.3047 62.002C48.5463 62.3415 48.7548 62.7034 48.9276 63.0827C49.4532 64.0203 50.1391 64.8585 50.954 65.5594C52.1451 66.5021 53.4707 67.261 54.8867 67.811C56.4328 68.4789 58.159 69.1319 59.7801 69.9799C62.8396 71.3866 65.7134 73.1663 68.336 75.2786C68.8613 75.7364 69.3341 76.1642 69.7619 76.5319L70.7676 77.6127L71.4131 78.3107L71.6157 78.5808L72.3662 79.6316C72.9963 80.5719 73.5509 81.5607 74.0249 82.5886C74.674 84.0224 75.2232 85.4995 75.6685 87.0092C76.2098 88.7666 76.4285 90.6075 76.3139 92.4429C76.2689 92.9157 76.1788 93.381 76.1113 93.8464C76.02 94.3103 75.8869 94.7649 75.7135 95.2048C75.3853 96.0506 74.9488 96.8503 74.4151 97.5839C73.4825 98.8689 72.3379 99.9856 71.0303 100.886C70.1227 101.53 69.1333 102.05 68.0883 102.432C67.6996 102.604 67.282 102.701 66.8574 102.717Z" fill="#6148EC"/>
<path d="M64.4184 31.0811C64.6655 31.8354 64.7423 32.6351 64.6435 33.4227C64.5187 35.1738 64.1001 36.8914 63.4052 38.5037C62.7303 40.0916 61.8847 41.6015 60.8835 43.0068C60.4361 43.6665 59.9551 44.3027 59.4425 44.9131L58.9997 45.3934L58.4818 45.9338C58.2566 46.1289 58.0165 46.3841 57.7313 46.6092C56.613 47.5474 55.0369 48.5381 53.5134 49.6113C52.1009 50.4842 50.8133 51.5446 49.6857 52.7635C49.4606 53.0186 49.318 53.2888 49.1529 53.514C48.9878 53.7391 48.9277 53.9643 48.8452 54.1444C48.7326 54.5197 48.65 54.7448 48.605 54.7373C48.56 54.7298 48.5525 54.5047 48.605 54.0769C48.6599 53.8227 48.7301 53.5721 48.8151 53.3263C48.9485 53.0226 49.104 52.7291 49.2805 52.4482C50.3033 51.0393 51.5448 49.8028 52.958 48.7857C54.459 47.6299 55.9601 46.5342 56.9282 45.6486C57.1495 45.4499 57.36 45.2394 57.5587 45.0181L58.0315 44.4853L58.4368 44.0049C58.4368 44.0049 59.0597 43.352 59.8928 42.2712C60.9113 40.9562 61.801 39.5462 62.5496 38.0609C63.2982 36.5735 63.829 34.9861 64.1257 33.3476C64.3508 32.0192 64.3058 31.0886 64.4184 31.0811Z" fill="#6148EC"/>
<g style="mix-blend-mode:screen">
<path d="M39.1784 64.509C38.9363 63.2292 38.6231 61.9638 38.2403 60.7189C37.8433 59.4834 37.1709 58.3543 36.2739 57.4166L35.8762 57.1014C35.726 57.0188 35.5985 56.9212 35.4334 56.8387C35.0956 56.6886 34.7729 56.501 34.4201 56.3659C33.7121 56.0743 32.9879 55.8237 32.2511 55.6154C30.7501 55.165 29.2491 54.7898 27.7856 54.2719C27.0351 54.0168 26.4196 53.694 25.7817 53.4313C25.1438 53.1687 24.5734 52.8535 24.033 52.5833C22.8366 51.9775 21.6831 51.2904 20.5806 50.5268L19.695 49.8514L19.2297 49.4986L18.7119 49.0408L17.4885 47.9301L16.1601 46.4891C15.7023 45.9637 15.2895 45.3483 14.8242 44.7479C13.9623 43.433 13.2093 42.05 12.5726 40.6125C11.2881 37.9652 10.456 35.1215 10.1109 32.1992C10.0131 31.2287 10.0842 30.2485 10.3211 29.3023C10.3949 28.9369 10.5459 28.5914 10.7639 28.2891C10.7393 28.6489 10.6815 29.0056 10.5913 29.3548C10.4689 30.2826 10.4841 31.2234 10.6363 32.1467C11.1508 34.9588 12.095 37.6749 13.4357 40.1998C14.107 41.5592 14.8876 42.8619 15.7698 44.0949C16.2276 44.6503 16.6329 45.2207 17.0757 45.701L18.3816 47.0294L19.5749 48.0577L20.0778 48.4779L20.5281 48.8082L21.3912 49.4236C22.4309 50.1816 23.519 50.871 24.6484 51.4875C25.1588 51.7652 25.7066 52.0804 26.3146 52.3581C26.9225 52.6358 27.5529 52.9735 28.2134 53.2212C29.5493 53.7616 31.0654 54.1894 32.5739 54.7222C33.339 54.979 34.0905 55.2746 34.8254 55.6078C35.1932 55.773 35.5309 55.9831 35.8762 56.1632C36.0488 56.2608 36.2214 56.3884 36.394 56.501C36.5666 56.6135 36.7017 56.7711 36.8518 56.9062C37.7836 57.9625 38.45 59.2258 38.7956 60.5913C39.0557 61.5227 39.2192 62.4784 39.2835 63.4432C39.3195 63.8019 39.2838 64.1642 39.1784 64.509Z" fill="#6148EC"/>
<path d="M36.1766 71.8945C36.1766 71.8945 36.0715 72.1722 35.7938 72.6075C35.4086 73.2039 34.9796 73.7708 34.5104 74.3037L32.5291 76.5552C31.7786 77.3658 30.9755 78.1913 30.2325 79.0694C28.8327 80.6203 27.6024 82.316 26.5625 84.1279C26.2022 84.8784 25.812 85.5014 25.6769 85.9592C25.5418 86.417 25.4142 86.7097 25.4142 86.7097L25.1215 87.4602C24.8982 88.0999 24.7103 88.7513 24.5586 89.4116C24.1178 91.45 23.9188 93.5333 23.9657 95.6183C23.978 97.7173 24.2965 99.8032 24.9113 101.81C25.1341 102.459 25.4286 103.081 25.7894 103.664C26.0596 104.077 26.2473 104.309 26.2097 104.347C26.1722 104.384 25.932 104.212 25.5718 103.829C25.1012 103.281 24.7142 102.666 24.4235 102.005C23.6102 99.9851 23.1335 97.8452 23.0125 95.6709C22.8475 93.4941 22.9585 91.3053 23.3428 89.1564C23.4785 88.4417 23.6539 87.7351 23.8681 87.0399L24.1533 86.2894L24.4685 85.5389C24.6637 85.0511 25.0614 84.4056 25.4817 83.6176C26.6342 81.7724 27.9939 80.0651 29.5345 78.5291C30.3376 77.6735 31.2082 76.9005 31.9812 76.1349L34.1277 74.071C34.7431 73.4631 35.2535 72.9527 35.5762 72.57C35.8989 72.1872 36.124 71.8645 36.1766 71.8945Z" fill="#6148EC"/>
<path d="M66.8574 102.717C68.2218 102.11 69.5155 101.355 70.7151 100.466C71.9089 99.5341 72.9453 98.4166 73.7847 97.1561C74.2497 96.4562 74.623 95.6995 74.8955 94.9046C75.1593 94.088 75.3133 93.24 75.3533 92.3828C75.4065 90.6654 75.1524 88.9523 74.6028 87.3244C74.1305 85.8792 73.5613 84.4675 72.8991 83.099C72.4331 82.1509 71.891 81.2423 71.278 80.3821L70.565 79.4139L70.3849 79.1587L69.792 78.4908L68.8688 77.4476L67.5404 76.2242C65.0305 74.1055 62.2766 72.294 59.3373 70.828C57.7687 69.9424 56.1251 69.2444 54.5715 68.5014C53.1233 67.8628 51.7837 67.0018 50.6013 65.9497C49.7865 65.1721 49.1335 64.2412 48.6799 63.2103C48.486 62.8322 48.359 62.4234 48.3047 62.002C48.5463 62.3415 48.7548 62.7034 48.9276 63.0827C49.4532 64.0203 50.1391 64.8585 50.954 65.5594C52.1451 66.5021 53.4707 67.261 54.8867 67.811C56.4328 68.4789 58.159 69.1319 59.7801 69.9799C62.8396 71.3866 65.7134 73.1663 68.336 75.2786C68.8613 75.7364 69.3341 76.1642 69.7619 76.5319L70.7676 77.6127L71.4131 78.3107L71.6157 78.5808L72.3662 79.6316C72.9963 80.5719 73.5509 81.5607 74.0249 82.5886C74.674 84.0224 75.2232 85.4995 75.6685 87.0092C76.2098 88.7666 76.4285 90.6075 76.3139 92.4429C76.2689 92.9157 76.1788 93.381 76.1113 93.8464C76.02 94.3103 75.8869 94.7649 75.7135 95.2048C75.3853 96.0506 74.9488 96.8503 74.4151 97.5839C73.4825 98.8689 72.3379 99.9856 71.0303 100.886C70.1227 101.53 69.1333 102.05 68.0883 102.432C67.6996 102.604 67.282 102.701 66.8574 102.717Z" fill="#6148EC"/>
<path d="M64.4184 31.0811C64.6655 31.8354 64.7423 32.6351 64.6435 33.4227C64.5187 35.1738 64.1001 36.8914 63.4052 38.5037C62.7303 40.0916 61.8847 41.6015 60.8835 43.0068C60.4361 43.6665 59.9551 44.3027 59.4425 44.9131L58.9997 45.3934L58.4818 45.9338C58.2566 46.1289 58.0165 46.3841 57.7313 46.6092C56.613 47.5474 55.0369 48.5381 53.5134 49.6113C52.1009 50.4842 50.8133 51.5446 49.6857 52.7635C49.4606 53.0186 49.318 53.2888 49.1529 53.514C48.9878 53.7391 48.9277 53.9643 48.8452 54.1444C48.7326 54.5197 48.65 54.7448 48.605 54.7373C48.56 54.7298 48.5525 54.5047 48.605 54.0769C48.6599 53.8227 48.7301 53.5721 48.8151 53.3263C48.9485 53.0226 49.104 52.7291 49.2805 52.4482C50.3033 51.0393 51.5448 49.8028 52.958 48.7857C54.459 47.6299 55.9601 46.5342 56.9282 45.6486C57.1495 45.4499 57.36 45.2394 57.5587 45.0181L58.0315 44.4853L58.4368 44.0049C58.4368 44.0049 59.0597 43.352 59.8928 42.2712C60.9113 40.9562 61.801 39.5462 62.5496 38.0609C63.2982 36.5735 63.829 34.9861 64.1257 33.3476C64.3508 32.0192 64.3058 31.0886 64.4184 31.0811Z" fill="#6148EC"/>
</g>
<path d="M67.3455 5.05323C67.3496 5.00328 67.3496 4.95308 67.3455 4.90313C66.3848 -0.192875 50.8792 -1.52879 32.7092 1.90106C14.5392 5.33092 0.587093 12.2357 1.54775 17.3467C1.55931 17.3977 1.57437 17.4478 1.59281 17.4968C1.58873 17.5467 1.58873 17.5969 1.59281 17.6469C1.59281 17.6994 1.5928 17.7445 1.63032 17.797C1.66785 17.8495 1.63032 17.9021 1.63032 17.9471L1.67535 18.0972C1.67535 18.1497 1.67535 18.2023 1.67535 18.2473C1.67535 18.2923 1.67534 18.3524 1.71287 18.3974C1.75039 18.4424 1.71287 18.5025 1.71287 18.555C1.73127 18.6014 1.74634 18.6491 1.75792 18.6976C1.75792 18.7501 1.75792 18.8027 1.75792 18.8552C1.7695 18.9038 1.78455 18.9514 1.80295 18.9978C1.79924 19.0503 1.79924 19.103 1.80295 19.1554C1.80295 19.2005 1.80294 19.253 1.84047 19.298C1.87799 19.3431 1.84047 19.4031 1.84047 19.4556L1.8855 19.5982C1.8855 19.6508 1.8855 19.7033 1.8855 19.7558C1.8855 19.8084 1.8855 19.8534 1.8855 19.9059C1.8855 19.9585 1.8855 20.0035 1.8855 20.056L1.93052 20.2061C1.93052 20.2512 1.93052 20.3037 1.93052 20.3563C1.93052 20.4088 1.93054 20.4538 1.96806 20.5064C1.96443 20.5563 1.96443 20.6065 1.96806 20.6565C1.96806 20.709 1.96805 20.754 2.00558 20.8066C2.04311 20.8591 2.00558 20.9041 2.00558 20.9567C2.01713 21.0077 2.03218 21.0578 2.05061 21.1068C2.04693 21.1567 2.04693 21.2069 2.05061 21.2569C2.05061 21.3094 2.05061 21.3544 2.05061 21.407C2.05061 21.4595 2.05061 21.512 2.05061 21.5571L2.09564 21.7072C2.09564 21.7597 2.09564 21.8123 2.09564 21.8573C2.10719 21.9083 2.12223 21.9584 2.14067 22.0074C2.13328 22.0597 2.13328 22.1127 2.14067 22.165C2.15057 22.2132 2.16311 22.2608 2.17821 22.3076C2.17821 22.3601 2.17821 22.4127 2.17821 22.4577C2.18871 22.509 2.20378 22.5592 2.22324 22.6078C2.21953 22.6603 2.21953 22.7129 2.22324 22.7654C2.22324 22.8104 2.22324 22.863 2.22324 22.908C2.22324 22.953 2.22324 23.0131 2.22324 23.0656L2.26827 23.2082C2.26827 23.2607 2.26827 23.3133 2.26827 23.3658C2.26827 23.4184 2.26826 23.4634 2.30578 23.5084C2.34331 23.5534 2.30578 23.6135 2.30578 23.666C3.27395 28.7545 18.7796 30.0979 36.9421 26.6681C55.1046 23.2382 69.0567 16.3185 68.0885 11.2225C68.0885 11.1699 68.0885 11.1249 68.051 11.0724C68.0135 11.0198 68.051 10.9748 68.051 10.9223C68.0405 10.8734 68.0254 10.8257 68.006 10.7797C68.0097 10.7272 68.0097 10.6745 68.006 10.6221C67.997 10.5712 67.9845 10.521 67.9684 10.472C67.9684 10.4269 67.9684 10.3744 67.9684 10.3219C67.9569 10.2708 67.9418 10.2207 67.9234 10.1718C67.9267 10.1218 67.9267 10.0716 67.9234 10.0216C67.9118 9.97064 67.8968 9.92049 67.8784 9.87154C67.8821 9.82158 67.8821 9.77141 67.8784 9.72144L67.8333 9.57134C67.8333 9.5188 67.8333 9.47377 67.8333 9.42123C67.8218 9.37023 67.8067 9.32007 67.7883 9.27113C67.7924 9.22118 67.7924 9.17098 67.7883 9.12103C67.7883 9.06849 67.7883 9.02346 67.7508 8.97093C67.7133 8.91839 67.7508 8.86585 67.7508 8.82082C67.7392 8.76981 67.7242 8.71966 67.7058 8.67072C67.7098 8.62077 67.7098 8.57057 67.7058 8.52061C67.7058 8.46808 67.7057 8.41554 67.6682 8.37051C67.6307 8.32548 67.6682 8.26544 67.6682 8.2129L67.6232 8.07031C67.6269 8.01784 67.6269 7.96517 67.6232 7.9127C67.6116 7.86415 67.5966 7.81649 67.5782 7.7701C67.5855 7.71782 67.5855 7.66477 67.5782 7.61249C67.5692 7.5641 67.5566 7.51644 67.5406 7.46989C67.5406 7.41736 67.5406 7.36482 67.5406 7.31228C67.5291 7.26373 67.514 7.21608 67.4956 7.16969C67.4993 7.11722 67.4993 7.06455 67.4956 7.01208C67.4956 6.95954 67.4956 6.91451 67.4581 6.86197C67.4205 6.80944 67.4581 6.76441 67.4581 6.71187C67.4465 6.66086 67.4315 6.61071 67.413 6.56177C67.413 6.51674 67.413 6.4642 67.413 6.41167C67.413 6.35913 67.4131 6.3141 67.3755 6.26156C67.338 6.20903 67.3755 6.16399 67.3755 6.11146L67.3305 5.96136C67.3305 5.91632 67.3305 5.86379 67.3305 5.81125C67.3189 5.76024 67.3039 5.71009 67.2855 5.66115C67.2855 5.60861 67.2855 5.56358 67.2855 5.51105C67.267 5.4621 67.252 5.41195 67.2404 5.36094C67.2404 5.30841 67.2404 5.25587 67.2404 5.21084C67.2798 5.16131 67.3149 5.10859 67.3455 5.05323Z" fill="#FFE031"/>
<g style="mix-blend-mode:multiply">
<path d="M67.3455 5.05323C67.3496 5.00328 67.3496 4.95308 67.3455 4.90313C66.3848 -0.192875 50.8792 -1.52879 32.7092 1.90106C14.5392 5.33092 0.587093 12.2357 1.54775 17.3467C1.55931 17.3977 1.57437 17.4478 1.59281 17.4968C1.58873 17.5467 1.58873 17.5969 1.59281 17.6469C1.59281 17.6994 1.5928 17.7445 1.63032 17.797C1.66785 17.8495 1.63032 17.9021 1.63032 17.9471L1.67535 18.0972C1.67535 18.1497 1.67535 18.2023 1.67535 18.2473C1.67535 18.2923 1.67534 18.3524 1.71287 18.3974C1.75039 18.4424 1.71287 18.5025 1.71287 18.555C1.73127 18.6014 1.74634 18.6491 1.75792 18.6976C1.75792 18.7501 1.75792 18.8027 1.75792 18.8552C1.7695 18.9038 1.78455 18.9514 1.80295 18.9978C1.79924 19.0503 1.79924 19.103 1.80295 19.1554C1.80295 19.2005 1.80294 19.253 1.84047 19.298C1.87799 19.3431 1.84047 19.4031 1.84047 19.4556L1.8855 19.5982C1.8855 19.6508 1.8855 19.7033 1.8855 19.7558C1.8855 19.8084 1.8855 19.8534 1.8855 19.9059C1.8855 19.9585 1.8855 20.0035 1.8855 20.056L1.93052 20.2061C1.93052 20.2512 1.93052 20.3037 1.93052 20.3563C1.93052 20.4088 1.93054 20.4538 1.96806 20.5064C1.96443 20.5563 1.96443 20.6065 1.96806 20.6565C1.96806 20.709 1.96805 20.754 2.00558 20.8066C2.04311 20.8591 2.00558 20.9041 2.00558 20.9567C2.01713 21.0077 2.03218 21.0578 2.05061 21.1068C2.04693 21.1567 2.04693 21.2069 2.05061 21.2569C2.05061 21.3094 2.05061 21.3544 2.05061 21.407C2.05061 21.4595 2.05061 21.512 2.05061 21.5571L2.09564 21.7072C2.09564 21.7597 2.09564 21.8123 2.09564 21.8573C2.10719 21.9083 2.12223 21.9584 2.14067 22.0074C2.13328 22.0597 2.13328 22.1127 2.14067 22.165C2.15057 22.2132 2.16311 22.2608 2.17821 22.3076C2.17821 22.3601 2.17821 22.4127 2.17821 22.4577C2.18871 22.509 2.20378 22.5592 2.22324 22.6078C2.21953 22.6603 2.21953 22.7129 2.22324 22.7654C2.22324 22.8104 2.22324 22.863 2.22324 22.908C2.22324 22.953 2.22324 23.0131 2.22324 23.0656L2.26827 23.2082C2.26827 23.2607 2.26827 23.3133 2.26827 23.3658C2.26827 23.4184 2.26826 23.4634 2.30578 23.5084C2.34331 23.5534 2.30578 23.6135 2.30578 23.666C3.27395 28.7545 18.7796 30.0979 36.9421 26.6681C55.1046 23.2382 69.0567 16.3185 68.0885 11.2225C68.0885 11.1699 68.0885 11.1249 68.051 11.0724C68.0135 11.0198 68.051 10.9748 68.051 10.9223C68.0405 10.8734 68.0254 10.8257 68.006 10.7797C68.0097 10.7272 68.0097 10.6745 68.006 10.6221C67.997 10.5712 67.9845 10.521 67.9684 10.472C67.9684 10.4269 67.9684 10.3744 67.9684 10.3219C67.9569 10.2708 67.9418 10.2207 67.9234 10.1718C67.9267 10.1218 67.9267 10.0716 67.9234 10.0216C67.9118 9.97064 67.8968 9.92049 67.8784 9.87154C67.8821 9.82158 67.8821 9.77141 67.8784 9.72144L67.8333 9.57134C67.8333 9.5188 67.8333 9.47377 67.8333 9.42123C67.8218 9.37023 67.8067 9.32007 67.7883 9.27113C67.7924 9.22118 67.7924 9.17098 67.7883 9.12103C67.7883 9.06849 67.7883 9.02346 67.7508 8.97093C67.7133 8.91839 67.7508 8.86585 67.7508 8.82082C67.7392 8.76981 67.7242 8.71966 67.7058 8.67072C67.7098 8.62077 67.7098 8.57057 67.7058 8.52061C67.7058 8.46808 67.7057 8.41554 67.6682 8.37051C67.6307 8.32548 67.6682 8.26544 67.6682 8.2129L67.6232 8.07031C67.6269 8.01784 67.6269 7.96517 67.6232 7.9127C67.6116 7.86415 67.5966 7.81649 67.5782 7.7701C67.5855 7.71782 67.5855 7.66477 67.5782 7.61249C67.5692 7.5641 67.5566 7.51644 67.5406 7.46989C67.5406 7.41736 67.5406 7.36482 67.5406 7.31228C67.5291 7.26373 67.514 7.21608 67.4956 7.16969C67.4993 7.11722 67.4993 7.06455 67.4956 7.01208C67.4956 6.95954 67.4956 6.91451 67.4581 6.86197C67.4205 6.80944 67.4581 6.76441 67.4581 6.71187C67.4465 6.66086 67.4315 6.61071 67.413 6.56177C67.413 6.51674 67.413 6.4642 67.413 6.41167C67.413 6.35913 67.4131 6.3141 67.3755 6.26156C67.338 6.20903 67.3755 6.16399 67.3755 6.11146L67.3305 5.96136C67.3305 5.91632 67.3305 5.86379 67.3305 5.81125C67.3189 5.76024 67.3039 5.71009 67.2855 5.66115C67.2855 5.60861 67.2855 5.56358 67.2855 5.51105C67.267 5.4621 67.252 5.41195 67.2404 5.36094C67.2404 5.30841 67.2404 5.25587 67.2404 5.21084C67.2798 5.16131 67.3149 5.10859 67.3455 5.05323Z" fill="#FFE031"/>
</g>
<path d="M50.1581 22.8629C50.1581 22.8629 47.5913 11.5076 47.1035 11.6051C46.6157 11.7027 48.3644 23.2006 48.3644 23.2006L48.5445 23.9511L50.2482 23.4257C50.1956 23.0805 50.1581 22.8629 50.1581 22.8629Z" fill="#FF8C31"/>
<path d="M63.5479 4.64817C63.0526 4.73824 64.5461 14.8402 64.5461 14.8402C64.5461 14.8402 64.7187 15.5907 64.9814 16.6714C65.5023 16.2842 66.0033 15.8709 66.4825 15.4331L66.3399 14.4874C66.3399 14.4874 64.0433 4.55061 63.5479 4.64817Z" fill="#FF8C31"/>
<path d="M59.0594 18.8627C59.0594 18.8627 56.9204 9.74393 56.4251 9.8565C55.9297 9.96908 57.2732 19.2154 57.2732 19.2154C57.2732 19.2154 57.4158 19.8234 57.6334 20.7165C58.1813 20.4838 58.7066 20.2436 59.2245 20.0035C59.1269 19.313 59.0594 18.8627 59.0594 18.8627Z" fill="#FF8C31"/>
<path d="M38.2929 14.4873C37.7975 14.5774 39.5837 26.2104 39.5837 26.2104L41.3625 25.8201C41.2874 25.4448 38.7807 14.3672 38.2929 14.4873Z" fill="#FF8C31"/>
<path d="M6.90612 25.7445L6.49334 24.3185C6.20814 23.4704 5.96046 22.3146 5.66026 21.1663C5.1424 18.8547 4.98478 16.4681 4.7146 16.4756C4.44441 16.4831 4.18175 18.9298 4.38439 21.369C4.52699 22.5773 4.65457 23.7931 4.84971 24.6862C5.04484 25.5794 5.1424 26.1873 5.1424 26.1873L5.20994 26.4199C5.86926 26.7563 6.55753 27.0326 7.26637 27.2455C7.03371 26.3149 6.90612 25.7445 6.90612 25.7445Z" fill="#FF8C31"/>
<path d="M29.3316 27.8993L31.1104 27.6741C30.6751 25.7453 28.6037 16.8291 28.1608 16.9117C27.718 16.9943 29.0089 25.7453 29.3316 27.8993Z" fill="#FF8C31"/>
<path d="M10.3883 16.0259C9.94555 16.1159 11.4541 26.1203 11.7693 28.1617C12.3697 28.2368 12.9926 28.3043 13.6456 28.3644C13.6456 28.2518 13.6456 28.1842 13.6456 28.1842C13.6456 28.1842 10.8837 15.9358 10.3883 16.0259Z" fill="#FF8C31"/>
<path d="M22.3365 27.3281C22.3365 27.3281 19.6496 15.3198 19.1543 15.4324C18.6589 15.545 20.5427 27.6658 20.5427 27.6658L20.7379 28.5364L22.5091 28.4689C22.404 27.7634 22.3365 27.3281 22.3365 27.3281Z" fill="#FF8C31"/>
<path d="M67.3302 4.90313C68.2984 9.99163 54.3538 16.9114 36.1838 20.3412C18.0138 23.7711 2.51566 22.4427 1.54749 17.3392C0.579324 12.2357 14.5314 5.33092 32.6939 1.90106C50.8564 -1.52879 66.3696 -0.192875 67.3302 4.90313Z" fill="#FFE031"/>
<g style="mix-blend-mode:screen">
<path d="M1.54778 17.3469C1.54778 17.4295 1.59283 17.512 1.61534 17.5946C9.10284 17.8714 16.5969 17.2669 23.9432 15.7934C42.1057 12.356 56.0503 5.43623 55.0896 0.347733C55.0896 0.265177 55.037 0.182621 55.022 0.100065C47.5343 -0.173879 40.0402 0.4332 32.6942 1.90881C14.5317 5.34617 0.587117 12.2359 1.54778 17.3469Z" fill="#FFE031"/>
</g>
<g style="mix-blend-mode:screen">
<path d="M37.8797 17.7668C19.7172 21.2041 4.20405 19.8682 3.24339 14.7647C3.16174 14.3063 3.19265 13.835 3.33345 13.3913C1.96751 14.7647 1.31456 16.1081 1.54722 17.339C2.51538 22.435 18.0211 23.7709 36.1835 20.341C52.7624 17.2039 65.8214 11.1772 67.2399 6.27637C62.9695 10.5618 51.6442 15.1625 37.8797 17.7668Z" fill="#FFE031"/>
</g>
<path d="M64.141 17.6621C63.7588 17.9997 63.335 18.2872 62.8801 18.5177L61.3791 19.4108C61.0864 19.5834 60.7787 19.7711 60.441 19.9512L59.3452 20.469C55.5948 22.2719 51.7013 23.7605 47.7047 24.9196C43.6671 26.0685 39.5677 26.9881 35.4263 27.674C33.7376 27.9817 32.3266 28.1768 31.3359 28.3044L29.7824 28.5221C29.7824 28.5221 29.2195 28.5821 28.2288 28.6647C27.2381 28.7472 25.8272 28.8973 24.1235 28.9499C22.4198 29.0024 20.4384 29.0549 18.322 29.0399C16.2055 29.0249 13.969 28.9949 11.7099 28.7547C9.49818 28.6097 7.34796 27.9656 5.42062 26.8709C3.93872 25.88 2.82334 24.4297 2.24595 22.7431C2.02276 22.1145 1.85942 21.4661 1.75812 20.8068C1.66219 20.3116 1.60448 19.8098 1.58549 19.3057C1.52418 18.8608 1.54197 18.4086 1.63804 17.9698C1.82566 17.9698 1.85567 19.9137 2.9139 22.5405C3.55147 24.0489 4.64606 25.3193 6.04356 26.173C7.86759 27.101 9.87446 27.6136 11.9201 27.674C14.0966 27.8391 16.3181 27.7866 18.4271 27.7641C20.536 27.7415 22.4423 27.6815 24.1085 27.5314C25.7746 27.3813 27.1556 27.2537 28.1237 27.1636C29.0919 27.0736 29.6248 26.991 29.6248 26.991L31.1258 26.8184C32.109 26.7133 33.4974 26.5407 35.1636 26.2855C39.2423 25.696 43.2879 24.8969 47.2844 23.8914C51.26 22.8656 55.1555 21.5512 58.9399 19.9587L60.0582 19.5084C60.4109 19.3508 60.7262 19.1857 61.0339 19.0356L62.6175 18.285C63.094 18.0077 63.6067 17.7981 64.141 17.6621Z" fill="#FF8C31"/>
<g style="mix-blend-mode:multiply">
<path d="M52.3279 21.9927C49.2583 23.0284 46.3237 22.7957 45.8134 21.4673C45.303 20.1389 47.3144 18.2251 50.4141 17.1819C53.5137 16.1387 56.4182 16.3788 56.9285 17.7072C57.4389 19.0357 55.3975 20.9645 52.3279 21.9927ZM63.7432 12.7313C62.9927 12.1084 61.184 12.6713 59.6829 13.9922C58.1819 15.3131 57.574 16.8892 58.3245 17.5121C59.075 18.135 60.8838 17.5722 62.3848 16.2512C63.8858 14.9303 64.4937 13.3618 63.7432 12.7388V12.7313Z" fill="#FFE031"/>
</g>
<g style="mix-blend-mode:multiply">
<path d="M24.5437 6.51686C27.7109 5.83389 30.5479 6.39678 30.9532 7.77773C31.3584 9.15867 29.0618 10.8248 25.8947 11.5303C22.7275 12.2358 19.853 11.6429 19.4853 10.2694C19.1175 8.89599 21.3766 7.19232 24.5437 6.51686ZM12.1602 14.4048C12.8282 15.1103 14.697 14.7575 16.3331 13.6543C17.9692 12.551 18.7648 11.02 18.0893 10.3145C17.4138 9.60898 15.5526 9.96172 13.9164 11.065C12.2803 12.1682 11.4698 13.7368 12.1602 14.4048Z" fill="#FFE031"/>
</g>
</g>
<defs>
<clipPath id="clip0_285_6223">
<rect width="84.283" height="120" fill="white" transform="translate(0.858398)"/>
</clipPath>
</defs>
</svg>
