<svg width="269" height="481" viewBox="0 0 269 481" fill="none" xmlns="http://www.w3.org/2000/svg">
<g clip-path="url(#clip0_111_6916)">
<path d="M240.208 384.252C258.381 389.489 263.052 389.839 267.024 386.57C267.109 386.502 267.175 386.413 267.215 386.311C267.256 386.209 267.269 386.099 267.254 385.991C267.303 384.741 266.196 382.663 264.389 380.154C260.687 375.017 254.15 368.09 248.551 362.703C250.288 370.599 247.353 378.215 240.208 384.252Z" fill="url(#paint0_linear_111_6916)"/>
<path d="M264.669 377.615C265.132 373.869 264.158 370.086 261.944 367.031C258.321 362.187 252.947 358.958 246.974 358.036C247.164 358.455 247.323 358.875 247.483 359.285C249.339 360.994 258.91 370.089 264.669 377.615Z" fill="url(#paint1_linear_111_6916)"/>
<path d="M238.821 217.56C240.028 211.394 238.411 204.107 234.829 199.85C230.437 194.543 224.849 190.954 221.006 189.705C221.006 189.705 221.006 189.755 221.006 189.775C222.495 193.438 223.736 197.198 224.719 201.029C224.819 201.329 224.889 201.649 224.978 201.979C225.996 206.055 226.759 210.191 227.264 214.362C227.314 214.782 227.354 215.172 227.404 215.591C227.894 219.972 228.157 224.376 228.192 228.784V230.383C228.192 232.652 228.142 234.941 228.002 237.28C228.002 238.479 227.843 239.638 227.703 240.778C231.894 236.56 236.884 227.415 238.821 217.56Z" fill="url(#paint2_linear_111_6916)"/>
<path d="M217.094 394.716C224.489 401.222 231.455 403.981 234.359 401.572C237.783 398.774 237.763 392.797 235.677 386.36C235.644 386.28 235.621 386.196 235.607 386.11C234.189 381.923 232.208 377.949 229.719 374.297C227.563 371.108 223.431 369.299 218.322 369.299H217.923C212.633 369.419 207.703 371.498 205.947 374.367C203.252 378.634 209.509 388.049 217.094 394.716Z" fill="url(#paint3_linear_111_6916)"/>
<g style="mix-blend-mode:soft-light" opacity="0.6">
<path d="M218.531 376.615C216.306 391.358 231.356 393.836 234.868 391.467C238.381 389.099 221.246 358.645 218.531 376.615Z" fill="#B8B8D1"/>
</g>
<path d="M188.641 468.077C184.13 470.186 179.51 472.364 174.889 474.073C182.005 476.852 206.745 484.888 229.719 472.754C225.278 466.457 215.457 461.11 208.102 461.11C203.342 461.13 196.196 464.509 188.641 468.077Z" fill="url(#paint4_linear_111_6916)"/>
<path d="M244.769 357.406C238.681 345.812 203.99 298.607 198.192 297.837C193.262 297.198 184.939 301.316 176.456 308.632C177.085 310.851 177.703 313.099 178.262 315.388C178.447 318.067 178.108 320.755 177.264 323.304C184.799 336.477 192.873 369.649 193.512 372.378C194.07 373.377 198.022 380.533 203.202 390.968C206.026 391.456 208.875 391.79 211.735 391.967C205.747 385.421 201.755 377.875 204.45 373.547C206.575 370.139 211.965 367.78 217.883 367.66C223.801 367.54 228.631 369.659 231.196 373.407C233.563 376.921 235.487 380.714 236.924 384.701C247.004 377.395 249.968 367.31 244.769 357.406Z" fill="url(#paint5_linear_111_6916)"/>
<path d="M167.763 281.726L169.021 285.504C169.3 286.314 169.57 287.093 169.829 287.883C169.969 288.303 170.109 288.693 170.218 289.092C171.126 291.751 171.975 294.3 172.783 296.778C172.923 297.188 173.063 297.588 173.182 297.978C174.18 300.976 175.049 303.855 175.907 306.753C181.825 301.756 187.514 298.367 192.254 296.868L187.394 291.631L186.446 290.632C186.146 290.302 185.847 289.982 185.448 289.632C183.741 287.783 181.985 285.884 180.208 283.895L179.33 282.896C178.562 282.046 177.803 281.187 177.015 280.287C173.921 280.867 170.797 281.337 167.763 281.726Z" fill="url(#paint6_linear_111_6916)"/>
<path d="M190.627 368.03C188.013 357.776 181.526 333.948 175.717 323.954C175.611 323.851 175.532 323.724 175.488 323.584C174.761 322.244 173.805 321.043 172.663 320.036C171.199 319.093 169.515 318.549 167.776 318.46C166.038 318.371 164.306 318.738 162.753 319.526C158.941 321.385 156.506 325.293 156.117 330.15V376.636C159.111 366.501 164.53 360.114 171.606 358.765C178.262 357.496 185.238 361.014 190.627 368.03Z" fill="url(#paint7_linear_111_6916)"/>
<path d="M156.047 384.811C156.047 386.55 155.697 447.827 158.472 472.314C163.068 472.839 167.688 473.126 172.314 473.174C177.474 471.365 182.743 468.886 187.853 466.508C195.597 462.849 202.903 459.401 208.032 459.401C215.338 459.401 224.559 464.099 229.739 470.096C225.647 433.635 192.204 373.697 191.815 373.077C187.164 364.972 180.577 360.244 174.2 360.244C173.4 360.254 172.602 360.334 171.815 360.484C163.931 362.003 158.172 370.878 156.047 384.811Z" fill="url(#paint8_linear_111_6916)"/>
<g style="mix-blend-mode:multiply" opacity="0.4">
<path d="M162.753 319.526C163.37 319.237 164.012 319.003 164.669 318.827C162.414 321.255 160.887 341.165 161.346 365.692C158.972 368.998 157.201 372.7 156.117 376.626V330.151C156.506 325.293 158.941 321.425 162.753 319.526Z" fill="#5B287C"/>
</g>
<g style="mix-blend-mode:multiply" opacity="0.3">
<path d="M161.416 368.63C162.414 409.188 168.811 460.691 185.987 467.397C181.476 469.496 176.885 471.595 172.364 473.174C167.738 473.126 163.118 472.839 158.522 472.315C155.747 447.828 156.097 386.55 156.097 384.811C157.045 378.185 158.911 372.718 161.416 368.63Z" fill="#5B287C"/>
</g>
<path d="M223.222 201.789C222.215 197.888 220.941 194.061 219.41 190.335C219.41 190.195 219.29 190.035 219.22 189.865C217.767 186.388 216.045 183.029 214.07 179.82C213.931 179.571 213.771 179.341 213.631 179.081C211.957 176.457 210.103 173.952 208.082 171.585C196.652 166.967 184.295 165.111 172.015 166.168C137.524 168.846 111.636 192.094 111.776 220.219C111.845 235.891 115.698 247.045 123.562 254.291C135.378 265.175 154.5 266.104 179.619 264.136C198.521 262.007 212.394 258.489 222.034 253.411C223.319 251.013 224.324 248.474 225.028 245.845C225.056 245.77 225.079 245.693 225.098 245.615C225.398 244.456 225.637 243.257 225.837 242.027C225.893 241.79 225.933 241.55 225.956 241.308C226.166 239.968 226.306 238.599 226.396 237.19C226.515 234.891 226.555 232.652 226.555 230.423V228.854C226.54 224.513 226.287 220.175 225.797 215.861C225.747 215.491 225.727 215.142 225.677 214.802C225.169 210.621 224.406 206.476 223.392 202.388C223.312 202.189 223.272 201.999 223.222 201.789Z" fill="url(#paint9_linear_111_6916)"/>
<path d="M136.536 348.051C142.739 348.053 148.854 346.584 154.38 343.763V330.08C154.849 324.533 157.624 320.086 161.985 317.977C164.283 316.554 167.05 316.104 169.68 316.724C172.309 317.344 174.585 318.985 176.007 321.285C176.46 319.425 176.649 317.511 176.566 315.598C174.16 306.033 171.156 297.218 167.384 286.054L165.977 281.936C160.757 282.556 155.807 282.935 151.506 283.345L149.51 283.505C144.939 283.905 140.618 284.085 136.536 284.085C132.236 284.097 127.938 283.874 123.662 283.415C120.538 289.992 111.546 309.132 110.408 315.548C109.56 320.336 112.953 331.01 119.221 338.606C122.674 342.844 128.492 347.911 136.536 348.051Z" fill="url(#paint10_linear_111_6916)"/>
<path d="M109.909 310.821C112.594 302.905 118.552 290.042 121.795 283.235L120.358 283.025C117.843 285.564 115.069 288.952 112.105 292.54C108.782 296.538 105.009 301.126 100.897 305.433C103.602 308.862 106.656 310.691 109.909 310.821Z" fill="url(#paint11_linear_111_6916)"/>
<path d="M92.5542 362.703C93.976 361.205 95.9217 360.317 97.9833 360.224H98.3526C106.237 360.224 115.618 370.669 121.237 381.963C121.237 376.476 121.396 371.498 121.536 366.971C121.536 366.371 121.586 365.761 121.606 365.182C121.795 360.484 122.025 356.346 122.275 352.798C122.324 352.289 122.344 351.799 122.394 351.319C122.574 348.8 122.783 346.572 122.973 344.673C121.077 343.21 119.355 341.533 117.843 339.675C116.817 338.428 115.867 337.12 114.999 335.757C114.687 335.326 114.397 334.879 114.131 334.418C111.324 329.808 109.462 324.684 108.652 319.346C106.506 324.044 104.49 328.811 102.664 333.469C102.504 333.908 102.315 334.328 102.155 334.738C100.977 337.736 99.8695 340.735 98.8516 343.633C98.6919 344.053 98.5522 344.463 98.4124 344.863C97.2747 348.011 96.2667 351.019 95.3586 353.858C95.2188 354.228 95.1091 354.627 94.9893 354.997C94.0811 357.776 93.2628 360.404 92.5542 362.703Z" fill="url(#paint12_linear_111_6916)"/>
<path d="M98.8416 476.133C111.616 476.602 122.045 474.353 127.574 469.926C135.728 463.379 136.286 431.826 121.287 386.18C116.297 374.187 105.728 361.634 98.0532 361.963C94.68 362.103 92.1151 364.762 90.4485 369.879C89.7499 372.378 89.3806 373.877 89.3606 373.877C81.6259 400.631 76.5383 428.082 74.1711 455.833C81.0673 456.713 92.8935 467.827 98.8416 476.133Z" fill="url(#paint13_linear_111_6916)"/>
<path d="M84.71 391.318C86.4806 392.973 88.8143 393.892 91.2368 393.886C92.1312 393.875 93.0215 393.765 93.8915 393.556C100.498 391.897 108.173 383.932 111.207 370.089C110.738 369.529 110.209 369.019 109.75 368.51C107.135 381.823 99.8995 390.228 93.4524 391.867C91.9826 392.29 90.4225 392.281 88.9577 391.842C87.4928 391.402 86.1847 390.551 85.189 389.389C85.0393 389.998 84.8796 390.648 84.71 391.318Z" fill="#5B287C"/>
<path d="M205.537 168.756C199.366 162.279 191.879 157.204 183.582 153.874C160.308 144.429 122.165 144.06 91.3067 174.104C83.0735 181.965 76.6268 191.51 72.4046 202.089C72.5643 202.089 72.7041 201.999 72.8638 201.979C77.0653 201.169 81.666 203.978 85.7878 209.914C89.7797 215.631 92.8835 223.647 94.5402 232.442C97.9933 250.563 94.4105 266.054 86.3666 268.533C97.1649 276.449 116.426 284.595 149.34 281.796L151.336 281.606C158.941 280.967 167.953 280.197 177.065 278.608C177.205 278.556 177.354 278.532 177.504 278.538C194.52 275.539 211.735 269.543 220.497 256.09C210.807 260.647 197.474 263.866 179.769 265.875C173.711 266.344 167.474 266.734 161.296 266.734C146.416 266.734 132.015 264.465 122.374 255.58C114.131 247.974 110.139 236.47 110.049 220.219C109.909 191.184 136.496 167.247 171.925 164.429C183.308 163.5 194.759 164.974 205.537 168.756Z" fill="url(#paint14_linear_111_6916)"/>
<path d="M62.2351 473.544C66.227 474.633 82.3946 478.661 96.7058 476.182C90.1889 467.477 78.9515 457.712 73.5424 457.572C68.754 462.093 64.9104 467.522 62.2351 473.544Z" fill="url(#paint15_linear_111_6916)"/>
<path d="M58.4826 359.405C59.9097 365.871 57.9237 374.737 54.2711 379.134C54.7102 380.084 55.1693 380.983 55.6383 381.843C58.1133 375.686 62.2051 370.199 67.8438 367.95C67.8438 367.95 67.8438 367.95 67.9336 367.95C69.4804 367.504 71.1204 367.497 72.6711 367.929C74.2217 368.361 75.622 369.216 76.716 370.399C80.6281 374.197 82.4245 380.953 80.9675 386.47C80.5663 387.987 80.0491 389.471 79.4205 390.908C80.7235 390.659 82.0128 390.342 83.2828 389.958C85.7579 379.824 87.654 373.647 87.694 373.507C87.7339 373.367 88.0931 371.978 88.7817 369.449C91.3965 360.214 98.4224 336.717 108.742 315.208C108.893 314.337 109.11 313.478 109.39 312.64C105.778 312.31 102.404 310.211 99.4903 306.483C97.7837 306.063 96.5562 306.803 94.7298 307.912L93.9913 308.352C91.6061 309.791 58.9915 342.614 52.4746 351.329C55.4985 352.588 57.5744 355.407 58.4826 359.405Z" fill="url(#paint16_linear_111_6916)"/>
<path d="M56.2471 384.991C54.7189 389.597 54.1981 394.478 54.7201 399.304C55.0594 401.642 56.1074 405.6 59.271 405.85C68.6123 406.66 77.0054 394.606 79.231 385.991C79.8481 383.462 79.8225 380.819 79.1565 378.303C78.4905 375.787 77.2054 373.479 75.4186 371.588C74.0747 370.163 72.2253 369.323 70.2689 369.25C69.6274 369.259 68.9899 369.353 68.3728 369.529C62.7341 371.798 58.802 377.615 56.5864 383.932C56.5626 384.069 56.5153 384.201 56.4467 384.321C56.4084 384.406 56.3751 384.493 56.3469 384.581C56.3524 384.725 56.3178 384.867 56.2471 384.991Z" fill="url(#paint17_linear_111_6916)"/>
<g style="mix-blend-mode:soft-light" opacity="0.35">
<path d="M69.3708 372.448C79.73 381.983 63.4925 398.014 58.1532 396.525C52.8139 395.036 63.7021 367.241 69.3708 372.448Z" fill="#B8B8D1"/>
</g>
<path d="M73.213 203.688C67.8538 204.687 58.4227 212.683 52.9437 222.807C49.5904 229.064 50.1194 237.909 54.2411 244.316C63.2231 258.418 79.5303 268.163 85.2588 267.074C92.654 265.665 96.147 249.943 92.8636 232.762C91.2468 224.197 88.2229 216.421 84.3806 210.914C81.0772 206.146 77.5343 203.578 74.3308 203.578C73.9555 203.578 73.5812 203.615 73.213 203.688Z" fill="url(#paint18_linear_111_6916)"/>
<path d="M36.5666 385.091C35.6087 385.092 34.6518 385.028 33.7023 384.901C33.9435 385.529 34.3186 386.096 34.8012 386.564C35.2838 387.032 35.8624 387.389 36.4967 387.61C38.7123 388.309 48.8419 387.8 54.8499 383.932C54.2012 382.842 53.5824 381.643 52.9736 380.394C49.5106 383.262 42.2751 385.091 36.5666 385.091Z" fill="url(#paint19_linear_111_6916)"/>
<path d="M30.7682 382.242C34.7602 384.791 47.7342 382.752 52.0955 378.884C55.5386 375.806 58.3429 366.781 56.796 359.764C56.2172 357.196 54.8 353.928 51.2871 352.658C39.381 363.263 31.7563 372.867 29.7902 379.764C29.606 380.224 29.6047 380.737 29.7866 381.198C29.9685 381.659 30.3197 382.033 30.7682 382.242Z" fill="url(#paint20_linear_111_6916)"/>
<path d="M134.203 227.4C128.746 215.114 131.038 202.163 139.323 198.473C147.607 194.782 158.746 201.75 164.203 214.036C169.66 226.322 167.368 239.273 159.084 242.964C150.799 246.654 139.66 239.686 134.203 227.4Z" fill="#2B4858"/>
<path d="M202.685 235.656C196.839 235.121 193.061 224.183 194.245 211.227C195.429 198.271 201.128 188.202 206.973 188.738C212.819 189.274 216.598 200.211 215.414 213.167C214.229 226.124 208.531 236.192 202.685 235.656Z" fill="#2B4858"/>
<path d="M202.404 219.449C199.394 219.449 196.955 213.444 196.955 206.036C196.955 198.629 199.394 192.624 202.404 192.624C205.413 192.624 207.853 198.629 207.853 206.036C207.853 213.444 205.413 219.449 202.404 219.449Z" fill="#E9FCFF"/>
<path d="M160.139 211.824C163.472 219.32 162.703 226.936 158.432 228.815C154.161 230.694 148.003 226.186 144.67 218.7C141.336 211.214 142.105 203.588 146.376 201.709C150.648 199.83 156.815 204.328 160.139 211.824Z" fill="#E9FCFF"/>
<path d="M169.849 287.883C169.989 288.303 170.128 288.693 170.238 289.092C173.238 286.759 176.641 285.001 180.278 283.905L179.4 282.906C175.953 284 172.721 285.684 169.849 287.883Z" fill="#5B287C"/>
<path d="M172.803 296.778C172.943 297.188 173.083 297.588 173.202 297.978C176.276 295.129 181.057 291.801 186.466 290.642C186.166 290.312 185.867 289.992 185.468 289.642C180.739 290.977 176.397 293.424 172.803 296.778Z" fill="#5B287C"/>
<path d="M113.442 290.921C114.847 291.304 116.21 291.823 117.514 292.47C117.654 292.121 117.813 291.751 117.973 291.421C116.763 290.83 115.504 290.345 114.211 289.972C113.981 290.272 113.702 290.591 113.442 290.921Z" fill="#5B287C"/>
<path d="M107.784 297.718C109.939 298.378 112.022 299.255 114.001 300.336L114.49 299.247C112.607 298.244 110.64 297.408 108.612 296.748C108.342 297.078 108.063 297.438 107.784 297.718Z" fill="#5B287C"/>
<g style="mix-blend-mode:multiply" opacity="0.4">
<path d="M178.262 315.338C177.703 313.05 177.085 310.801 176.456 308.582C177.653 307.583 178.841 306.583 180.019 305.704C180.208 306.063 227.563 394.996 247.244 367.88C247.171 369.439 246.896 370.981 246.425 372.468C246.199 373.168 245.936 373.855 245.637 374.527L245.517 374.787C245.201 375.472 244.848 376.139 244.459 376.786C244.447 376.818 244.43 376.848 244.409 376.876C243.981 377.567 243.514 378.235 243.012 378.875C243.012 378.935 242.902 378.995 242.852 379.065C242.413 379.611 241.944 380.151 241.445 380.684C241.286 380.854 241.116 381.013 240.946 381.183C240.517 381.623 240.058 382.053 239.579 382.473L239.02 382.962C238.362 383.522 237.663 384.062 236.924 384.592C235.487 380.605 233.563 376.811 231.196 373.298C228.631 369.55 223.771 367.461 217.883 367.551C211.994 367.641 206.575 370.029 204.45 373.438C201.765 377.765 205.697 385.311 211.735 391.858C208.875 391.68 206.026 391.347 203.202 390.858C198.022 380.424 194.07 373.248 193.512 372.268C192.873 369.54 184.799 336.367 177.264 323.194C178.1 320.665 178.439 317.997 178.262 315.338Z" fill="#5B287C"/>
</g>
<g style="mix-blend-mode:multiply" opacity="0.4">
<path d="M87.694 373.447C87.694 373.587 85.7579 379.764 83.2828 389.898C82.0128 390.282 80.7236 390.599 79.4205 390.848C80.0491 389.411 80.5664 387.927 80.9675 386.41C82.4246 380.893 80.6282 374.137 76.716 370.339C75.622 369.156 74.2217 368.301 72.6711 367.869C71.1204 367.437 69.4804 367.444 67.9336 367.89C67.8837 367.89 67.8638 367.89 67.8438 367.89C62.2051 370.139 58.1133 375.626 55.6383 381.783C55.1693 380.923 54.7102 380.024 54.2711 379.074C57.9237 374.676 59.9097 365.811 58.4826 359.345C57.5744 355.347 55.4886 352.568 52.4946 351.249C52.9138 350.689 53.4327 350.03 54.0515 349.25C65.269 346.422 88.5024 337.256 101.496 308.532C103.59 310.745 106.388 312.159 109.41 312.53C109.13 313.368 108.913 314.227 108.762 315.098C98.4723 336.607 91.4464 360.074 88.8017 369.339C88.0932 371.918 87.694 373.397 87.694 373.447Z" fill="#5B287C"/>
</g>
<path d="M175.617 311.95C175.947 313.16 176.266 314.369 176.615 315.598C176.699 317.511 176.51 319.426 176.057 321.285C175.352 320.145 174.431 319.155 173.345 318.371C172.258 317.588 171.028 317.027 169.725 316.719C168.422 316.412 167.071 316.365 165.75 316.581C164.429 316.797 163.163 317.271 162.025 317.977C157.664 320.106 154.889 324.534 154.42 330.081V343.763C152.89 344.528 151.313 345.196 149.7 345.762C139.211 315.159 163.771 299.297 175.617 311.95Z" fill="url(#paint21_linear_111_6916)"/>
<g style="mix-blend-mode:soft-light" opacity="0.35">
<path d="M49.1912 354.558C53.7421 369.04 43.2033 380.414 32.0556 382.803C31.6061 382.667 31.1739 382.479 30.7682 382.243C30.3161 382.037 29.9605 381.665 29.7747 381.203C29.589 380.742 29.5873 380.227 29.7702 379.764C31.6364 373.278 38.4927 364.402 49.1912 354.558Z" fill="#B8B8D1"/>
</g>
<path d="M194.779 239.688C190.577 248.244 181.955 247.045 177.194 242.067C185.298 244.566 191.056 243.277 194.779 239.688Z" fill="#2B4858"/>
<g style="mix-blend-mode:multiply" opacity="0.4">
<path d="M84.3806 461.191C80.6481 458.302 76.9954 456.193 74.1711 455.903C76.5383 428.152 81.6259 400.701 89.3606 373.947C89.3606 373.877 89.7498 372.418 90.4484 369.949C92.1151 364.832 94.6799 362.173 98.0532 362.033C98.4735 362.022 98.8941 362.046 99.3107 362.103C96.666 368.74 94.3207 377.505 92.5542 388.749C87.684 419.083 85.2688 448.637 84.3806 461.191Z" fill="#5B287C"/>
</g>
<g style="mix-blend-mode:multiply" opacity="0.4">
<path d="M110.249 317.427C118.542 332.349 137.763 339.196 154.809 327.492C154.603 328.336 154.46 329.195 154.38 330.061V343.743C148.854 346.564 142.739 348.033 136.536 348.031C128.492 347.891 122.674 342.824 119.181 338.586C113.642 331.89 110.348 322.784 110.249 317.427Z" fill="#5B287C"/>
</g>
<g style="mix-blend-mode:multiply" opacity="0.4">
<path d="M210.168 409.718C218.871 429.037 227.813 452.345 229.809 470.096C224.629 464.099 215.408 459.401 208.102 459.401C207.608 459.41 207.115 459.446 206.625 459.511C213.771 454.024 223.222 440.421 210.168 409.718Z" fill="#5B287C"/>
</g>
<g style="mix-blend-mode:soft-light" opacity="0.6">
<path d="M210.867 462.6C221.525 465.298 225.567 468.786 213.432 470.006C201.296 471.225 199.959 459.841 210.867 462.6Z" fill="#B8B8D1"/>
</g>
<path d="M221.076 189.775C221.076 189.775 221.076 189.775 221.076 189.705C224.958 190.954 230.507 194.543 234.898 199.85C237.693 203.198 239.27 208.405 239.24 213.482C235.009 206.477 229.552 200.291 223.132 195.222C222.48 193.363 221.795 191.547 221.076 189.775Z" fill="#ECF5FC"/>
<path d="M77.9535 207.196C87.9335 217.461 90.4384 227.265 82.1151 224.947C73.7918 222.628 71.4066 200.49 77.9535 207.196Z" fill="#F9F9F9"/>
<path d="M198.192 297.788C200.458 298.088 207.174 305.514 214.839 315.128C206.256 306.863 193.292 298.747 192.883 298.497C194.584 297.894 196.392 297.652 198.192 297.788Z" fill="white"/>
<path d="M157.534 377.945C157.763 377.125 158.003 376.316 158.262 375.546C165.388 390.129 173.322 397.115 180.218 394.786C187.114 392.457 191.416 381.673 190.418 370.799C190.917 371.538 191.416 372.288 191.885 373.108L192.274 373.817C192.274 384.332 187.643 394.146 180.767 396.465C179.722 396.818 178.626 396.996 177.524 396.995C172.663 396.965 165.438 393.387 157.534 377.945Z" fill="#5B287C"/>
<path d="M156.117 330.9V332.219C161.506 328.951 170.338 326.752 178.073 328.791L177.494 327.492C169.969 325.823 161.596 327.842 156.117 330.9Z" fill="#5B287C"/>
<path d="M156.117 342.744C162.244 338.746 173.272 336.007 182.264 339.505L182.743 340.945C173.611 336.867 161.985 339.945 156.117 344.113V342.744Z" fill="#5B287C"/>
<path d="M156.117 354.737V356.157C162.474 351.479 176.077 347.771 186.376 352.569L186.266 352.219L185.937 351.129C175.767 346.942 162.823 350.3 156.117 354.737Z" fill="#5B287C"/>
<path d="M102.155 334.688C105.418 333.928 110.199 334.248 114.989 335.777C114.68 335.339 114.393 334.885 114.131 334.418C110.416 333.308 106.511 332.985 102.664 333.468C102.514 333.858 102.325 334.278 102.155 334.688Z" fill="#5B287C"/>
<path d="M98.4224 344.813C104.69 343.653 115.618 346.062 122.275 352.808C122.324 352.299 122.344 351.809 122.394 351.329C115.648 345.032 105.289 342.694 98.8616 343.553C98.7019 344.003 98.5622 344.413 98.4224 344.813Z" fill="#5B287C"/>
<path d="M94.9993 354.927C102.933 354.577 115.338 358.285 121.536 367.011C121.536 366.411 121.586 365.801 121.606 365.222C115.109 357.146 103.303 353.608 95.3686 353.788C95.2288 354.158 95.1191 354.557 94.9993 354.927Z" fill="#5B287C"/>
<g style="mix-blend-mode:multiply" opacity="0.4">
<path d="M95.5682 251.632C102.784 263.186 134.41 288.613 200.627 271.882C193.218 275.012 185.462 277.243 177.524 278.528C177.374 278.522 177.225 278.546 177.085 278.598C167.973 280.197 158.961 280.967 151.356 281.596L149.36 281.786C116.426 284.585 97.145 276.419 86.4265 268.523C91.3466 267.014 94.5901 260.568 95.5682 251.632Z" fill="#5B287C"/>
</g>
<g style="mix-blend-mode:multiply" opacity="0.4">
<path d="M52.9537 222.807C55.0608 218.957 57.661 215.399 60.6882 212.223C50.4188 235.391 74.1013 262.067 94.0113 248.684C93.4424 258.678 90.2488 266.124 85.2688 267.074C79.5403 268.163 63.3129 258.419 54.2511 244.316C50.1294 237.909 49.6004 229.064 52.9537 222.807Z" fill="#5B287C"/>
</g>
<g style="mix-blend-mode:multiply" opacity="0.4">
<path d="M237.743 221.918C235.397 230.034 231.316 237.19 227.763 240.778C227.902 239.639 228.022 238.479 228.062 237.28C228.202 234.941 228.252 232.652 228.252 230.384V228.784C228.217 224.376 227.954 219.972 227.463 215.591C227.413 215.172 227.374 214.782 227.324 214.362C227.324 214.202 227.324 214.052 227.254 213.902C229.978 218.72 233.521 222.568 237.743 221.918Z" fill="#5B287C"/>
</g>
<path d="M28.1235 379.294C30.1993 372.018 38.1034 362.013 50.4287 351.099C55.4187 343.633 90.1091 308.552 93.0731 306.773L93.7916 306.333C95.598 305.224 97.1948 304.274 99.3205 304.574C103.522 300.196 107.364 295.579 110.768 291.421C113.412 288.223 115.917 285.204 118.233 282.736C101.816 280.167 90.9174 274.33 83.9813 268.863C76.2169 268.623 61.3169 258.549 52.784 245.256C48.2731 238.259 47.7241 228.874 51.4367 221.988C55.9476 213.593 64.0214 205.547 70.2988 202.818C74.5776 191.457 81.3591 181.208 90.139 172.834C121.606 142.201 160.518 142.59 184.27 152.235C193.914 156.129 202.474 162.301 209.22 170.226C209.271 170.257 209.318 170.294 209.36 170.336C210.118 171.225 210.847 172.145 211.565 173.084C211.805 173.394 212.034 173.714 212.274 174.084C213.162 175.283 214 176.522 214.819 177.792L215.627 179.091C217.331 181.882 218.854 184.78 220.188 187.766C224.988 188.766 231.625 193.313 236.156 198.76C240.078 203.478 241.815 211.174 240.487 217.92C238.202 229.534 232.044 239.908 227.284 243.497C227.134 244.306 226.944 245.086 226.755 245.855C226.675 246.135 226.605 246.425 226.525 246.705C225.817 249.261 224.836 251.734 223.601 254.081C223.521 254.211 223.471 254.361 223.401 254.491C223.332 254.621 223.342 254.551 223.312 254.581C214.909 269.793 196.725 276.569 179.031 279.957C182.304 283.715 185.527 287.153 188.641 290.472C190.517 292.47 192.344 294.469 194.12 296.378C195.517 296.04 196.961 295.938 198.392 296.079C205.697 297.078 240.308 345.532 246.046 356.187C253.032 356.996 259.629 360.744 263.331 366.071C264.716 367.994 265.673 370.191 266.138 372.515C266.603 374.839 266.564 377.236 266.026 379.544C267.842 382.173 269.02 384.491 268.97 386.061C268.971 386.417 268.894 386.769 268.744 387.092C268.594 387.415 268.374 387.701 268.102 387.93C266.01 389.67 263.343 390.561 260.627 390.428C256.096 390.428 249.509 388.789 238.501 385.601C238.162 385.861 237.829 386.111 237.503 386.35C239.599 393.207 239.499 399.643 235.507 402.932C234.413 403.797 233.048 404.246 231.655 404.201C227.054 404.201 220.936 400.383 215.996 396.035C215.128 395.286 214.29 394.486 213.481 393.677C210.363 393.601 207.253 393.324 204.17 392.847C214.968 414.835 230.268 449.577 231.864 473.044C231.869 473.091 231.869 473.138 231.864 473.184C231.864 473.184 231.864 473.274 231.864 473.314C231.846 473.374 231.819 473.432 231.785 473.484C231.765 473.529 231.742 473.573 231.715 473.614C231.666 473.659 231.612 473.699 231.555 473.734L231.465 473.824C222.55 478.635 212.56 481.098 202.434 480.98C192.125 480.926 181.927 478.852 172.414 474.873C167.495 474.84 162.582 474.506 157.703 473.874C157.519 473.843 157.349 473.753 157.22 473.618C157.091 473.483 157.008 473.31 156.985 473.124C154.101 448.767 154.48 385.311 154.48 384.681V345.702C149.062 348.357 143.116 349.751 137.085 349.78H136.526C132.264 349.672 128.125 348.329 124.61 345.912C123.821 354.038 122.963 367.191 122.973 385.721C138.352 432.566 137.484 464.209 128.662 471.275C123.282 475.593 113.692 477.962 101.915 477.962C100.388 477.962 98.8116 477.962 97.2148 477.842C93.7962 478.427 90.3336 478.714 86.8656 478.701C78.0696 478.583 69.3266 477.316 60.8578 474.933C60.7442 474.9 60.6391 474.842 60.5496 474.765C60.4601 474.687 60.3882 474.591 60.3388 474.483C60.2918 474.375 60.2676 474.257 60.2676 474.139C60.2676 474.02 60.2918 473.903 60.3388 473.794C63.087 467.193 67.199 461.249 72.4046 456.353C74.2091 434.629 77.6858 413.076 82.8037 391.887C81.388 392.294 79.9523 392.628 78.5023 392.887C74.7199 400.413 67.9136 407.709 60.1791 407.709C59.8398 407.709 59.5005 407.709 59.1811 407.709C55.9676 407.439 53.7919 404.591 53.0734 399.713C52.5387 395.247 52.8949 390.718 54.1213 386.39C49.4578 388.502 44.399 389.596 39.2811 389.599C38.1669 389.637 37.0526 389.526 35.9677 389.269C34.9155 388.912 33.9754 388.285 33.2415 387.45C32.5076 386.615 32.0057 385.602 31.7861 384.511C31.0883 384.339 30.4169 384.074 29.7901 383.722C29.0408 383.294 28.4642 382.617 28.1599 381.809C27.8556 381.001 27.8428 380.111 28.1235 379.294ZM112.135 292.53C108.802 296.528 105.049 301.116 100.937 305.434C103.622 308.852 106.686 310.681 109.919 310.831C112.604 302.915 118.572 290.032 121.815 283.225L120.368 283.026C117.853 285.584 115.059 288.952 112.135 292.53ZM52.9935 222.808C49.6303 229.064 50.1493 237.91 54.271 244.316C63.3228 258.419 79.5602 268.153 85.3087 267.064C92.7038 265.655 96.1868 249.953 92.9134 232.772C91.2867 224.197 88.2727 216.431 84.4304 210.904C81.1171 206.136 77.5842 203.578 74.3607 203.578C73.9888 203.579 73.6178 203.616 73.2529 203.688C67.8537 204.707 58.4326 212.643 52.9636 222.808H52.9935ZM225.038 245.795L225.098 245.565C225.397 244.396 225.637 243.197 225.847 241.967L225.966 241.268C226.166 239.918 226.316 238.549 226.385 237.14C226.505 234.851 226.545 232.602 226.555 230.384C226.555 229.854 226.555 229.334 226.555 228.804C226.529 224.463 226.276 220.126 225.797 215.811C225.797 215.462 225.717 215.112 225.667 214.812C225.162 210.631 224.402 206.486 223.391 202.398L223.242 201.829C222.249 197.926 220.981 194.099 219.449 190.375L219.25 189.895C217.793 186.417 216.071 183.055 214.1 179.84L213.651 179.111C211.978 176.485 210.127 173.978 208.112 171.605C196.673 166.98 184.306 165.118 172.015 166.168C137.534 168.856 111.636 192.094 111.776 220.209C111.845 235.901 115.708 247.045 123.572 254.301C135.368 265.175 154.51 266.095 179.609 264.136C198.511 261.997 212.394 258.489 222.024 253.411C223.304 251.011 224.305 248.473 225.008 245.845L225.038 245.795ZM238.85 217.51C240.058 211.354 238.431 204.068 234.858 199.8C230.447 194.503 224.879 190.915 221.036 189.655V189.735C222.534 193.395 223.784 197.151 224.779 200.979L225.018 201.919C226.03 206 226.793 210.138 227.304 214.312L227.453 215.531C227.94 219.916 228.2 224.323 228.232 228.734V230.344C228.232 232.612 228.172 234.901 228.052 237.23C227.992 238.429 227.883 239.589 227.743 240.728C231.894 236.56 236.884 227.415 238.821 217.56L238.85 217.51ZM220.537 256.02C210.857 260.587 197.533 263.806 179.809 265.815C173.821 266.284 167.514 266.674 161.346 266.674C146.456 266.674 132.075 264.405 122.424 255.52C114.191 247.924 110.149 236.36 110.069 220.169C109.929 191.134 136.516 167.147 171.945 164.379C183.338 163.433 194.802 164.908 205.587 168.706C199.415 162.229 191.928 157.151 183.631 153.814C160.358 144.369 122.225 144 91.3665 174.054C83.1271 181.912 76.6764 191.457 72.4545 202.039C72.6042 202.039 72.7539 201.949 72.9036 201.919C77.1151 201.119 81.7159 203.918 85.8775 209.854C89.8695 215.571 92.9633 223.577 94.6399 232.392C98.083 250.513 94.4903 265.995 86.4564 268.463C97.1749 276.359 116.486 284.545 149.39 281.726L151.386 281.556C158.981 280.907 168.003 280.147 177.104 278.558C177.242 278.495 177.394 278.471 177.544 278.488C194.539 275.51 211.755 269.543 220.507 256.07L220.537 256.02ZM187.434 291.591C184.09 288.033 180.647 284.345 177.114 280.267C173.951 280.827 170.827 281.266 167.783 281.666L169.021 285.504C171.685 293.37 173.951 300.066 175.907 306.763C181.815 301.766 187.504 298.367 192.244 296.878C190.687 295.149 189.07 293.44 187.404 291.641L187.434 291.591ZM261.934 367.041C258.322 362.185 252.942 358.952 246.964 358.046C247.144 358.465 247.313 358.875 247.473 359.285C249.289 360.984 258.87 370.069 264.619 377.605C265.101 373.87 264.141 370.091 261.934 367.041ZM267.034 386.57C267.115 386.497 267.178 386.405 267.218 386.303C267.258 386.2 267.273 386.09 267.263 385.981C267.263 384.731 266.186 382.652 264.399 380.154C260.717 375.016 254.17 368.1 248.581 362.703C250.317 370.609 247.383 378.245 240.228 384.282C258.371 389.479 263.042 389.839 267.034 386.57ZM217.134 394.716C224.529 401.223 231.475 403.971 234.399 401.572C237.823 398.764 237.783 392.807 235.717 386.36C235.677 386.279 235.65 386.191 235.637 386.101C234.22 381.918 232.243 377.947 229.759 374.297C227.603 371.109 223.461 369.3 218.352 369.3H217.922C212.653 369.399 207.723 371.478 205.947 374.357C203.262 378.625 209.519 388.06 217.104 394.716H217.134ZM211.735 391.868C205.747 385.311 201.755 377.775 204.46 373.447C206.575 370.049 211.974 367.69 217.893 367.57C223.811 367.451 228.641 369.569 231.196 373.317C233.575 376.827 235.506 380.621 236.944 384.611C247.004 377.395 249.958 367.311 244.759 357.406C238.691 345.782 203.99 298.597 198.192 297.828C193.272 297.178 184.959 301.306 176.456 308.612C177.094 310.851 177.703 313.089 178.272 315.388C178.445 318.06 178.107 320.74 177.274 323.284C184.829 336.457 192.883 369.639 193.541 372.378C194.08 373.377 198.042 380.524 203.232 390.968C206.038 391.421 208.866 391.722 211.705 391.868H211.735ZM156.137 376.636C159.131 366.501 164.57 360.114 171.635 358.775C178.282 357.506 185.268 361.014 190.667 368.03C188.032 357.776 181.555 333.948 175.747 323.954C175.649 323.851 175.574 323.728 175.528 323.594C174.799 322.25 173.835 321.049 172.683 320.046C171.22 319.104 169.537 318.562 167.801 318.473C166.064 318.383 164.335 318.75 162.783 319.536C158.971 321.395 156.546 325.293 156.137 330.15V376.636ZM229.749 472.764C225.318 466.488 215.477 461.141 208.122 461.141C203.372 461.141 196.226 464.509 188.661 468.067C184.16 470.186 179.53 472.365 174.929 474.064C181.995 476.882 206.735 484.898 229.719 472.764H229.749ZM158.552 472.325C163.148 472.845 167.768 473.125 172.394 473.164C177.68 471.208 182.863 468.983 187.923 466.498C195.667 462.85 202.992 459.411 208.122 459.411C215.437 459.411 224.669 464.089 229.849 470.086C225.747 433.635 192.304 373.697 191.925 373.088C186.695 363.972 179.031 359.145 171.965 360.494C163.981 362.013 158.212 370.879 156.146 384.821C156.047 386.53 155.757 447.828 158.522 472.345L158.552 472.325ZM136.596 348.041C142.794 348.056 148.908 346.593 154.43 343.773V330.08C154.899 324.523 157.683 320.086 162.055 317.967C163.886 317.047 165.925 316.623 167.971 316.739C170.016 316.855 171.995 317.506 173.711 318.627C174.637 319.386 175.439 320.287 176.086 321.295C176.533 319.431 176.715 317.513 176.625 315.598C174.22 306.033 171.236 297.218 167.454 286.064L166.057 281.936C160.827 282.556 155.887 282.936 151.566 283.345L149.57 283.515C144.979 283.915 140.658 284.095 136.596 284.095C132.296 284.097 127.998 283.873 123.722 283.425C120.588 289.992 111.616 309.142 110.478 315.538C109.62 320.346 113.023 331 119.271 338.596C122.664 342.844 128.502 347.921 136.536 348.041H136.596ZM123.033 344.713C121.14 343.243 119.416 341.567 117.893 339.715C112.644 333.339 109.4 325.093 108.722 319.296C102.41 333.401 97.0263 347.905 92.604 362.713C94.0299 361.217 95.9795 360.332 98.0431 360.244H98.4124C106.297 360.244 115.678 370.699 121.296 381.983C121.346 364.562 122.215 352.249 122.973 344.713H123.033ZM127.624 469.926C135.787 463.389 136.346 431.816 121.336 386.171C116.346 374.177 105.778 361.644 98.113 361.973C94.7398 362.113 92.1749 364.772 90.5083 369.879C89.8097 372.378 89.4304 373.877 89.4204 373.877C81.6767 400.657 76.5823 428.135 74.211 455.913C81.0872 456.713 92.9234 467.827 98.8715 476.143C111.616 476.582 122.035 474.344 127.564 469.926H127.624ZM62.235 473.544C66.227 474.643 82.3945 478.661 96.6859 476.183C90.1689 467.477 78.9515 457.712 73.5423 457.572C68.7428 462.084 64.8975 467.515 62.235 473.544ZM83.1929 389.909C85.668 379.754 87.5641 373.567 87.604 373.437C87.644 373.307 88.0033 371.908 88.7019 369.439C91.2967 360.174 98.3325 336.707 108.612 315.188C108.781 314.321 108.998 313.463 109.261 312.62C105.668 312.3 102.275 310.191 99.3605 306.453C97.6539 306.053 96.4264 306.773 94.61 307.892L93.8715 308.342C91.4863 309.771 58.8718 342.594 52.3449 351.319C55.4087 352.648 57.4945 355.417 58.3828 359.425C59.8199 365.881 57.8438 374.747 54.1911 379.134C54.6203 380.134 55.0694 381.003 55.5484 381.853C58.0234 375.686 62.1053 370.199 67.754 367.95H67.8337C69.3816 367.509 71.0213 367.505 72.5713 367.939C74.1213 368.373 75.5212 369.228 76.6161 370.409C80.5282 374.217 82.3247 380.973 80.8876 386.49C80.4718 388.008 79.9481 389.495 79.3207 390.938C80.688 390.608 81.9754 390.298 83.2728 389.909H83.1929ZM54.6802 399.314C55.0294 401.642 56.0773 405.59 59.221 405.86C68.5623 406.66 76.9654 394.596 79.181 385.981C79.7921 383.454 79.7645 380.815 79.1006 378.302C78.4366 375.789 77.1573 373.481 75.3786 371.588C74.0269 370.163 72.1704 369.327 70.209 369.26C69.574 369.261 68.9424 369.352 68.3327 369.529C62.6741 371.788 58.742 377.605 56.5265 383.942C56.51 384.074 56.4621 384.201 56.3867 384.312L56.2969 384.581C56.2907 384.73 56.246 384.875 56.1672 385.001C54.6744 389.615 54.1944 394.497 54.76 399.314H54.6802ZM36.4068 387.61C38.6324 388.319 48.7621 387.8 54.77 383.942C54.0713 382.801 53.4415 381.62 52.8838 380.404C49.4307 383.282 42.2451 385.111 36.4867 385.111C35.5288 385.112 34.5719 385.048 33.6225 384.921C33.8699 385.555 34.2554 386.125 34.7509 386.59C35.2465 387.055 35.8395 387.403 36.4867 387.61H36.4068ZM30.6684 382.243C34.7302 384.791 47.6942 382.752 52.0155 378.884C55.4686 375.806 58.263 366.771 56.7061 359.755C56.1373 357.196 54.7101 353.938 51.2071 352.668C39.311 363.253 31.6863 372.868 29.7103 379.774C29.5475 380.241 29.5636 380.752 29.7553 381.208C29.947 381.664 30.3008 382.033 30.7482 382.243H30.6684Z" fill="#0F3759"/>
<g style="mix-blend-mode:multiply" opacity="0.4">
<path d="M119.71 291.791C121.287 288.353 122.704 285.344 123.622 283.415C127.898 283.874 132.196 284.097 136.496 284.085C140.588 284.085 144.909 283.905 149.47 283.505L151.466 283.345C155.767 282.975 160.717 282.556 165.937 281.936C152.554 294.19 133.342 295.639 119.71 291.791Z" fill="#5B287C"/>
</g>
</g>
<g clip-path="url(#clip1_111_6916)">
<path d="M196.067 137.921C196.018 135.253 194.467 131.609 192.05 130.371C190.605 129.629 189.009 129.813 187.437 130.905L187.743 131.349C189.163 130.363 190.527 130.196 191.805 130.85C194.044 131.997 195.48 135.42 195.528 137.929L196.067 137.921Z" fill="#FFC145"/>
<path d="M177.408 198.761C189.813 195.054 201.06 188.784 210.969 180.041C214.867 176.601 220.277 170.947 223.91 163.539C227.402 156.424 228.347 149.516 226.722 143.009C226.275 141.221 224.421 140.426 222.819 140.564C213.975 141.329 204.593 141.511 195.907 137.678L195.689 138.172C204.487 142.053 213.949 141.875 222.865 141.103C224.238 140.983 225.824 141.645 226.199 143.14C230.517 160.433 215.36 175.447 210.612 179.635C200.764 188.324 189.58 194.558 177.252 198.245C173.391 199.397 169.469 200.292 165.491 200.931C154.766 202.664 143.958 202.935 133.369 201.737C125.043 200.794 118.457 199.349 109.34 197.35L108.163 197.091C98.3128 194.93 86.9091 192.992 76.2382 197.358C74.0523 198.255 72.2375 199.036 70.8456 199.687C67.1847 201.396 54.6787 206.645 47.4742 202.377C46.7026 201.919 46.1319 201.435 45.777 200.938C44.8289 199.608 44.4818 198.283 44.7504 196.997C45.306 194.326 48.3186 192.222 50.8805 190.688C53.7279 188.983 56.1267 187.582 58.0124 186.52C63.9143 183.208 69.2763 179.18 74.1017 174.431C78.1297 170.462 81.452 165.97 84.0713 160.955L83.5933 160.705C81.001 165.669 77.7111 170.116 73.7236 174.046C68.9322 178.762 63.6078 182.762 57.7467 186.049C55.8577 187.114 53.455 188.516 50.6044 190.225C47.9469 191.817 44.8212 194.011 44.2224 196.887C43.9223 198.327 44.2972 199.795 45.3376 201.252C45.7356 201.809 46.3635 202.345 47.2011 202.842C54.6314 207.243 67.3515 201.914 71.0728 200.175C72.4582 199.531 74.2647 198.75 76.4435 197.858C86.9687 193.549 98.2766 195.475 108.047 197.619L109.225 197.878C118.356 199.881 124.955 201.327 133.307 202.274C143.946 203.477 154.804 203.206 165.576 201.464C169.579 200.822 173.522 199.921 177.408 198.761Z" fill="#693A87"/>
<path d="M83.576 160.913L84.0886 160.747C83.4837 158.879 83.3944 157.052 83.8237 155.31C84.206 153.754 85.0965 151.954 87.1592 152.229L87.2293 151.693C85.3123 151.438 83.9163 152.677 83.2982 155.181C82.8461 157.021 82.9386 158.95 83.576 160.913Z" fill="#FFC145"/>
<path d="M187.438 131.35L187.741 130.902C175.45 122.557 167.338 111.078 158.75 98.9223C158.122 98.0365 157.496 97.1501 156.866 96.263C154.311 92.6638 151.04 88.4608 147.142 83.7756C134.661 68.7769 122.544 56.4694 110.096 46.1504C104.071 41.1574 94.9676 33.6112 84.7732 34.0815C79.1267 34.3386 76.8556 38.2151 75.2392 42.3668C74.0762 45.3554 72.9017 48.3893 71.7479 51.3877C69.4217 57.434 66.282 62.9032 59.1347 61.9811C56.7385 61.6743 55.1416 60.7896 52.9805 59.4771C52.6561 59.2791 52.3589 59.2424 52.1413 59.3744C51.9979 59.4612 51.8347 59.6565 51.8665 60.0927C51.9116 60.6924 52.6464 61.7554 53.0472 62.1817C56.0675 65.3947 60.2922 66.8727 64.4054 67.9906C68.8087 69.1913 72.7392 69.8366 76.2498 65.5622C77.3907 64.1747 78.8166 62.3694 80.4878 60.1956C81.8809 58.3853 83.6879 57.3679 85.7155 57.2513C87.9036 57.1264 90.1804 58.105 91.9602 59.9395C96.0166 64.1191 98.7632 69.0211 100.126 74.5041C101.423 79.7078 102.091 85.2982 102.113 91.1213C102.193 110.353 97.0908 130.784 86.9522 151.843L87.4382 152.078C97.6128 130.943 102.733 110.435 102.654 91.1188C102.631 85.2519 101.956 79.6174 100.65 74.3747C99.2644 68.7959 96.471 63.8138 92.3471 59.5623C90.4568 57.6164 88.0305 56.5779 85.6844 56.7123C83.4963 56.8372 81.5526 57.929 80.0612 59.8649C78.3926 62.0337 76.97 63.836 75.8343 65.2198C72.8106 68.8987 69.6621 68.865 64.5472 67.4711C60.5088 66.3727 56.3667 64.9265 53.4403 61.811C53.0063 61.3507 52.4324 60.4278 52.4043 60.0533C52.3907 59.8816 52.4259 59.8313 52.4278 59.8307C52.4347 59.8329 52.529 59.8339 52.698 59.9383C54.9206 61.2888 56.5643 62.1973 59.0652 62.5188C60.7276 62.7331 62.1884 62.6081 63.4777 62.2226C68.0327 60.8626 70.4665 56.2217 72.2511 51.5825C73.4029 48.5847 74.5774 45.5508 75.7423 42.5616C77.2907 38.581 79.461 34.8643 84.7985 34.6222C94.0199 34.1959 101.864 40.0281 109.752 46.5671C122.175 56.8644 134.268 69.1476 146.727 84.1215C150.618 88.7964 153.881 92.9871 156.427 96.5764C157.057 97.4636 157.683 98.35 158.308 99.2344C166.925 111.431 175.065 122.949 187.438 131.35Z" fill="#693A87"/>
<path d="M149.029 148.739C162.695 144.654 175.596 138.859 187.733 131.356L187.45 130.897C171.523 140.736 154.143 147.684 135.788 151.549C123.539 154.132 112.884 155.364 103.212 155.318C96.5538 155.285 92.0346 154.326 90.489 152.619C90.4174 152.54 90.3304 152.486 90.2261 152.459L87.2608 151.701L87.1283 152.224L90.0893 152.981C92.2023 155.316 98.3912 155.834 103.21 155.858C112.919 155.903 123.61 154.667 135.898 152.079C140.333 151.144 144.711 150.032 149.029 148.739Z" fill="#A9655A"/>
<path d="M150.667 165.776C151.82 165.431 152.964 165.068 154.095 164.69C161.312 162.273 168.661 158.972 175.938 154.879C181.123 151.965 186.288 148.363 192.195 143.546L192.65 143.18C194.665 141.55 195.88 140.567 196.068 137.943L195.53 137.905C195.358 140.294 194.276 141.17 192.311 142.758L191.854 143.127C185.971 147.924 180.832 151.508 175.675 154.408C168.426 158.486 161.108 161.773 153.925 164.178C141.042 168.491 126.678 170.603 112.389 170.287C106.257 170.149 100.22 169.32 94.2781 167.801C92.1227 167.251 88.9658 166.299 86.4262 164.396C85.2757 163.537 84.4914 162.315 84.0932 160.762L83.5714 160.897C84.0013 162.571 84.8533 163.894 86.1015 164.828C88.7191 166.789 91.945 167.762 94.1437 168.325C100.126 169.853 106.205 170.688 112.377 170.826C125.472 171.117 138.631 169.375 150.667 165.776Z" fill="#A9655A"/>
<path d="M148.989 146.999C160.64 143.515 171.81 138.756 182.254 132.821C182.302 132.794 182.347 132.76 182.385 132.719C182.433 132.665 182.47 132.605 182.494 132.54C182.518 132.472 182.528 132.402 182.526 132.331C182.523 132.259 182.508 132.192 182.475 132.127C182.446 132.062 182.406 132.005 182.354 131.958C177.58 127.545 173.136 122.82 169.021 117.787C167.412 115.818 165.727 113.683 163.944 111.425C159.951 106.366 155.425 100.632 150.273 94.9301C144.416 88.4472 138.418 81.7993 132.449 75.17C132.398 75.1119 132.339 75.0688 132.269 75.0374C132.134 74.9773 131.997 74.9724 131.858 75.0244C131.717 75.077 131.618 75.1716 131.556 75.3073C131.164 76.1735 130.664 76.9716 130.059 77.703C129.432 78.4577 128.693 79.0763 127.839 79.5555C126.164 80.5042 124.29 81.0456 122.272 81.1677C122.271 81.1682 122.271 81.1682 122.271 81.1682C122.27 81.1663 122.272 81.1657 122.272 81.1657C123.184 79.9576 123.87 78.635 124.33 77.1917C125.224 74.4363 125.58 71.6138 125.395 68.7227C125.39 68.6217 125.358 68.5287 125.3 68.4457C118.2 58.3353 110.897 50.73 102.971 45.1985C102.85 45.1134 90.7359 36.8896 88.2809 40.275C87.5026 41.351 87.2448 42.5539 87.5143 43.8503C87.542 43.978 87.6064 44.0822 87.7078 44.1628C87.8888 44.3074 88.0714 44.4433 88.254 44.5791C88.827 45.0083 89.3679 45.4137 89.7643 46.0004C92.2946 49.7428 94.1903 53.7043 96.102 59.2472C96.2732 59.7442 96.525 60.1963 96.8593 60.6027C101.328 66.1155 104.037 73.184 105.386 82.844C106.085 87.8683 106.507 93.3482 106.639 99.1303C106.795 105.989 106.523 114.414 102.996 118.71C102.43 119.398 102.096 119.833 101.822 120.72C100.476 125.094 99.0567 129.528 97.6836 133.816C95.8031 139.69 93.8593 145.764 92.0745 151.776C91.9944 152.047 92.0106 152.276 92.1233 152.458C92.2374 152.637 92.4371 152.753 92.7137 152.798C96.9372 153.494 100.525 153.79 104.349 153.762C117.825 153.66 131.375 151.801 144.62 148.238C146.082 147.845 147.541 147.432 148.989 146.999ZM132.048 75.5284C138.018 82.1596 144.014 88.8081 149.874 95.2924C155.013 100.981 159.533 106.707 163.519 111.759C165.305 114.021 166.991 116.157 168.605 118.129C172.736 123.182 177.196 127.924 181.987 132.352C158.32 145.799 131.472 153.015 104.345 153.221C100.552 153.25 96.9916 152.955 92.8015 152.266C92.6874 152.248 92.6081 152.213 92.5809 152.171C92.5537 152.129 92.559 152.041 92.591 151.931C94.375 145.923 96.318 139.854 98.1985 133.98C99.5716 129.692 100.991 125.256 102.337 120.88C102.583 120.085 102.858 119.726 103.414 119.051C107.053 114.619 107.337 106.07 107.179 99.1195C107.047 93.3164 106.623 87.8142 105.919 82.7702C104.557 73.0076 101.811 65.8561 97.278 60.262C96.9833 59.9044 96.7627 59.5079 96.6118 59.0717C94.6839 53.4814 92.7704 49.4812 90.2109 45.6973C89.7649 45.0355 89.1603 44.5843 88.5767 44.1478C88.3991 44.0147 88.2215 43.8815 88.0436 43.7401C87.8032 42.5836 88.0226 41.5534 88.7181 40.5921C90.4387 38.2194 99.5412 43.464 102.663 45.6423C110.536 51.1373 117.797 58.6987 124.857 68.7558C125.037 71.5795 124.691 74.3363 123.819 77.0265C123.376 78.4081 122.719 79.6783 121.844 80.8375C121.773 80.9298 121.558 81.2117 121.699 81.473C121.838 81.735 122.189 81.7138 122.306 81.706C124.406 81.5803 126.358 81.0153 128.105 80.0264C129.017 79.5129 129.807 78.854 130.475 78.0473C131.112 77.2795 131.637 76.4403 132.048 75.5284Z" fill="#5B287B"/>
<path d="M69.2026 64.499C69.7093 64.3412 70.1834 64.1095 70.6193 63.8054C74.0522 61.4711 76.3642 56.1551 77.1293 51.9232C77.1968 51.5536 77.7472 48.2836 76.4721 47.6793C76.341 47.6181 76.207 47.61 76.0686 47.6577C75.9317 47.7028 75.8301 47.7897 75.762 47.9188C74.5024 50.3378 73.2871 52.7373 72.1511 55.0524C71.0247 57.3437 69.0324 59.3938 67.1037 61.3767C66.5472 61.9491 66.0208 62.4894 65.5204 63.0325C65.4994 63.0534 65.4835 63.077 65.4675 63.1006C65.427 63.1608 65.4002 63.2253 65.386 63.2966C65.373 63.3653 65.3733 63.4364 65.3876 63.5053C65.4006 63.5768 65.4283 63.6418 65.4689 63.7008C65.5075 63.7604 65.5579 63.8102 65.6175 63.8488C66.8024 64.6413 68.0035 64.8576 69.2026 64.499ZM76.24 48.1693C76.8886 48.4734 76.8407 50.4924 76.5996 51.8284C75.8759 55.8136 73.602 61.1244 70.3173 63.36C68.8278 64.3704 67.3901 64.3839 65.9161 63.3996C66.4119 62.8621 66.935 62.3249 67.4896 61.7531C69.4471 59.7406 71.4715 57.6579 72.6339 55.291C73.7691 52.9803 74.9811 50.5839 76.24 48.1693Z" fill="#5B287B"/>
<path d="M139.316 107.755C139.456 107.713 139.593 107.67 139.732 107.624C139.849 107.588 140.206 107.468 140.229 107.166C140.254 106.864 139.92 106.69 139.809 106.633C139.769 106.613 139.73 106.594 139.688 106.579C136.511 105.384 133.693 103.726 130.97 102.121C128.704 100.786 126.36 99.4065 123.839 98.3148C121.777 97.4204 116.47 95.4229 111.736 96.1897L111.709 96.1958C111.64 96.2101 111.575 96.2379 111.516 96.2785C111.459 96.3186 111.409 96.3671 111.37 96.4268C111.331 96.4865 111.305 96.551 111.292 96.6216C111.277 96.691 111.28 96.7614 111.292 96.831C111.687 98.7574 114.013 101.031 115.887 102.396C121.921 106.796 131.826 109.995 139.316 107.755ZM139.563 107.112C132.2 109.538 122.24 106.36 116.203 101.958C114.759 100.906 112.21 98.6198 111.822 96.7228C116.416 95.9788 121.607 97.934 123.625 98.8099C126.116 99.8898 128.445 101.261 130.695 102.586C133.44 104.203 136.279 105.874 139.496 107.084C139.517 107.092 139.539 107.101 139.558 107.111C139.558 107.111 139.561 107.113 139.563 107.112Z" fill="#5B287B"/>
<path d="M152.707 138.8C157.104 137.485 160.751 135.189 163.723 131.883C164.546 130.966 165.36 130.017 166.142 129.057C166.196 128.993 166.23 128.92 166.249 128.837C166.283 128.69 166.262 128.555 166.182 128.428C166.103 128.303 165.991 128.223 165.846 128.191C165.123 128.024 164.394 127.966 163.655 128.018C160.899 128.193 158.153 128.937 155.499 129.655C154.085 130.038 152.622 130.436 151.196 130.733C141.146 132.832 131.398 132.555 120.611 132.019C118.967 131.937 117.212 132.03 115.396 132.295C115.103 132.341 114.815 132.45 114.536 132.558C114.354 132.632 114.168 132.696 113.977 132.751C113.859 132.782 113.5 132.879 113.457 133.178C113.415 133.478 113.732 133.672 113.836 133.735C114.917 134.397 116.052 134.951 117.241 135.393C124.994 138.291 133.006 139.861 141.276 140.106C145.548 140.235 149.347 139.804 152.707 138.8ZM115.201 132.893C115.291 132.866 115.383 132.845 115.474 132.83C117.254 132.57 118.974 132.479 120.583 132.558C131.409 133.098 141.193 133.372 151.307 131.26C152.747 130.961 154.218 130.561 155.641 130.176C158.269 129.465 160.987 128.728 163.688 128.556C164.375 128.508 165.054 128.562 165.725 128.717C164.949 129.667 164.14 130.612 163.322 131.522C158.191 137.229 150.986 139.861 141.293 139.568C133.081 139.324 125.126 137.764 117.429 134.887C116.272 134.456 115.169 133.918 114.117 133.274L114.116 133.272C114.324 133.214 114.529 133.144 114.73 133.061C114.892 133 115.049 132.939 115.201 132.893Z" fill="#5B287B"/>
<path d="M174.706 195.83C182.658 193.452 190.166 190.125 197.148 185.874C204.685 181.284 211.387 175.436 216.02 169.403C221.953 161.678 224.557 153.814 223.76 146.031C223.538 143.886 219.343 143.397 217.841 143.461C216.185 143.534 214.502 143.673 212.876 143.805C210.8 143.974 208.652 144.15 206.547 144.191C204.117 144.238 202.377 144.27 200.272 143.517C199.047 143.079 197.629 142.528 196.06 141.878C195.954 141.836 195.844 141.827 195.733 141.852C195.622 141.879 195.527 141.935 195.452 142.018C186.389 152.171 173.657 159.697 155.384 165.707C138.701 171.194 121.929 173.026 105.54 171.149C99.8762 170.501 94.767 169.189 89.9194 167.135C88.4953 166.536 87.1598 165.778 85.9141 164.866L85.8825 164.844C85.8234 164.807 85.7571 164.781 85.6866 164.768C85.6166 164.758 85.5456 164.758 85.4773 164.775C85.4066 164.789 85.3442 164.819 85.2853 164.859C85.2263 164.9 85.1791 164.952 85.1405 165.011C79.1055 174.506 70.6347 182.482 59.965 188.717C57.2527 190.3 54.5121 191.915 51.8219 193.517C51.0214 193.992 50.2548 194.519 49.5228 195.091C49.3045 195.263 49.2115 195.442 49.2437 195.627C49.2772 195.809 49.4268 195.947 49.6896 196.029C51.5894 196.648 53.5354 197.049 55.5236 197.235C57.5125 197.423 59.4981 197.39 61.4793 197.139C67.4578 196.397 72.5747 194.273 77.9914 192.026C78.9471 191.629 79.9099 191.228 80.8852 190.834C81.6065 190.541 82.3531 190.368 83.1277 190.31C83.1315 190.33 83.139 190.355 83.089 190.411C82.3088 191.27 81.3943 191.946 80.3437 192.438C80.1142 192.544 79.9941 192.758 80.0604 192.945C80.0936 193.035 80.2115 193.235 80.6055 193.134C86.1075 191.754 91.5668 191.388 96.8322 192.046C100.215 192.468 103.57 193.285 107.565 194.382C111.97 195.59 116.463 196.693 120.926 197.658C133.999 200.485 147.205 200.95 160.175 199.04C165.095 198.321 169.939 197.251 174.706 195.83ZM195.852 142.379C197.432 143.031 198.857 143.584 200.089 144.025C202.288 144.812 204.069 144.779 206.535 144.732C208.679 144.69 210.835 144.514 212.92 144.343C214.542 144.211 216.218 144.074 217.864 144.002C219.321 143.939 223.055 144.466 223.223 146.087C225.308 166.419 203.578 181.327 196.868 185.411C175.213 198.595 147.574 202.867 121.038 197.131C116.587 196.169 112.103 195.067 107.708 193.862C103.691 192.757 100.314 191.936 96.8985 191.511C91.9435 190.892 86.8209 191.168 81.6513 192.331C82.331 191.891 82.9434 191.374 83.488 190.775C83.6528 190.592 83.7085 190.373 83.6444 190.157C83.6077 190.034 83.5373 189.938 83.4344 189.867C83.329 189.793 83.2134 189.763 83.0864 189.772C82.2565 189.834 81.4557 190.021 80.6838 190.333C79.7065 190.728 78.7418 191.129 77.7841 191.527C72.4028 193.759 67.3173 195.87 61.4132 196.602C59.4708 196.85 57.5245 196.882 55.5748 196.699C53.6251 196.516 51.7188 196.121 49.8565 195.517C50.571 194.956 51.3175 194.446 52.098 193.98C54.7868 192.381 57.5255 190.767 60.2373 189.182C70.9824 182.905 79.5147 174.869 85.595 165.302C86.8754 166.24 88.2476 167.016 89.7105 167.633C94.6056 169.706 99.7632 171.033 105.478 171.686C121.946 173.571 138.791 171.734 155.551 166.22C173.918 160.18 186.725 152.604 195.852 142.379Z" fill="#5B287B"/>
<path d="M96.0031 188.01C96.0491 187.997 96.0879 187.972 96.1238 187.939L96.2255 187.845L96.2146 187.69C96.2011 187.595 96.1592 187.518 96.0878 187.453C93.3251 184.992 87.8143 180.666 81.9532 179.376C80.7348 179.102 79.5001 179.004 78.2529 179.082C77.9902 179.098 77.815 179.19 77.7369 179.356C77.6588 179.521 77.6958 179.715 77.8479 179.931C79.6341 182.467 81.8156 184.437 84.3289 185.788C86.8977 187.171 89.3709 187.323 91.9896 187.486C92.4132 187.512 92.8412 187.539 93.2791 187.571C93.343 187.575 93.6752 187.645 93.9653 187.707C95.3742 188.004 95.8055 188.069 96.0031 188.01ZM78.2898 179.619C79.4862 179.546 80.6678 179.641 81.837 179.904C87.2371 181.091 92.3609 184.933 95.217 187.406C94.8309 187.338 94.3671 187.24 94.077 187.178C93.6466 187.087 93.4175 187.04 93.3209 187.032C92.8791 187 92.4486 186.972 92.0231 186.947C89.3538 186.782 87.05 186.638 84.584 185.312C82.1454 184.001 80.0262 182.086 78.2898 179.619Z" fill="#5B287B"/>
<path d="M137.042 189.926C137.253 189.863 137.318 189.739 137.336 189.644C137.353 189.54 137.331 189.388 137.118 189.251C137.06 189.209 136.995 189.181 136.925 189.164C136.864 189.149 136.804 189.129 136.746 189.102C136.388 188.875 136.023 188.647 135.661 188.42C133.112 186.824 130.706 185.315 128.556 183.261C128.48 183.187 128.391 183.141 128.285 183.124C121.76 181.8 115.416 179.69 109.28 177.647C108.081 177.248 106.881 176.852 105.676 176.454C104.696 176.134 103.694 175.925 102.667 175.833C102.481 175.815 102.087 175.778 101.977 176.066C101.866 176.353 102.181 176.589 102.331 176.703C102.747 177.016 103.164 177.329 103.58 177.64C105.036 178.717 106.411 180.014 107.739 181.266C108.263 181.76 108.806 182.271 109.342 182.76C117.208 189.912 126.511 192.326 136.995 189.938C137.011 189.936 137.026 189.931 137.042 189.926ZM102.813 176.39C103.732 176.487 104.629 176.68 105.509 176.967C106.713 177.362 107.914 177.76 109.11 178.161C115.261 180.207 121.621 182.323 128.184 183.654C130.372 185.743 132.803 187.266 135.375 188.878C135.714 189.091 136.054 189.305 136.394 189.519C126.29 191.683 117.313 189.276 109.704 182.361C109.17 181.876 108.632 181.365 108.109 180.873C106.769 179.61 105.383 178.304 103.902 177.205C103.537 176.935 103.174 176.663 102.813 176.39Z" fill="#5B287B"/>
<path d="M178.021 181.559C179.569 181.094 181.059 180.487 182.493 179.738C183.207 179.365 183.922 178.995 184.631 178.624C184.821 178.527 185.172 178.343 185.104 178.039C185.038 177.734 184.643 177.718 184.431 177.708C180.853 177.539 177.339 176.979 173.885 176.032C172.276 175.591 169.442 174.858 165.456 173.853C160.594 172.628 153.635 172.233 150.034 175.158L150.032 175.159C149.948 175.228 149.888 175.315 149.857 175.42C149.826 175.526 149.826 175.63 149.857 175.736C151.219 180.121 155.898 181.392 158.567 181.759C165.761 182.755 171.984 183.364 178.021 181.559ZM184.206 178.238C183.555 178.577 182.9 178.917 182.243 179.258C174.9 183.088 167.523 182.453 158.64 181.225C156.099 180.874 151.644 179.676 150.372 175.578C153.821 172.778 160.582 173.182 165.324 174.378C169.305 175.382 172.137 176.113 173.741 176.552C177.169 177.494 180.656 178.055 184.206 178.238Z" fill="#5B287B"/>
<path d="M87.1943 151.961L90.1552 152.718C90.2093 152.731 90.2533 152.76 90.2901 152.799C92.5193 155.265 99.5683 155.57 103.211 155.588C114.065 155.64 125.24 154.048 135.844 151.813C154.315 147.924 171.564 141.027 187.591 131.127C174.341 122.132 165.739 109.231 156.648 96.4206C154.085 92.8072 150.846 88.6509 146.934 83.9487C135.707 70.4545 123.449 57.5716 109.924 46.3589C102.897 40.5355 94.4719 33.904 84.7868 34.3517C79.5711 34.5888 77.2424 37.9637 75.4914 42.4631C74.321 45.4686 73.1574 48.4762 72.0002 51.484C69.7279 57.3887 66.4968 63.2033 59.0997 62.2491C56.6013 61.929 54.9609 60.9965 52.8403 59.7076C52.4513 59.4682 52.0913 59.4942 52.1364 60.0729C52.1722 60.5644 52.8263 61.5532 53.2431 61.9978C56.2357 65.1814 60.3789 66.6168 64.4763 67.7311C69.1616 69.0086 72.7551 69.3926 76.0423 65.3921C77.1873 63.9972 78.598 62.211 80.2757 60.0311C83.5078 55.8316 88.6719 56.1644 92.1524 59.7504C96.2634 63.9869 99.0082 68.8831 100.389 74.4403C101.696 79.6868 102.362 85.2486 102.385 91.12C102.471 112.281 96.4081 132.825 87.1943 151.961ZM88.4995 40.4338C90.5399 37.6201 100.826 44.032 102.818 45.4203C111.634 51.5751 118.929 59.8418 125.079 68.6019C125.108 68.6435 125.123 68.689 125.124 68.7391C125.309 71.5966 124.961 74.3876 124.073 77.1096C123.623 78.5227 122.951 79.8203 122.058 81.0019C121.819 81.3159 121.896 81.4605 122.288 81.4374C124.357 81.3125 126.252 80.7648 127.971 79.7902C128.856 79.2955 129.621 78.6567 130.265 77.8759C130.888 77.1268 131.4 76.3062 131.802 75.4181C131.821 75.3768 131.848 75.3415 131.884 75.3141C131.921 75.2861 131.962 75.2696 132.006 75.2628C132.052 75.2554 132.095 75.2593 132.14 75.2752C132.181 75.2899 132.219 75.3165 132.249 75.3491C138.245 82.0103 144.187 88.5975 150.074 95.1112C157.5 103.331 163.565 111.543 168.813 117.959C172.933 123.002 177.386 127.735 182.17 132.155C182.225 132.204 182.254 132.266 182.257 132.341C182.259 132.416 182.236 132.481 182.186 132.536C182.167 132.556 182.145 132.573 182.121 132.586C158.578 145.963 131.4 153.286 104.346 153.493C100.306 153.523 96.6729 153.176 92.7576 152.532C92.3599 152.467 92.2176 152.242 92.3318 151.854C95.4192 141.458 98.8897 131.169 102.079 120.8C102.342 119.95 102.655 119.548 103.206 118.879C107.003 114.251 107.042 104.97 106.909 99.1251C106.776 93.3055 106.358 87.8664 105.652 82.8063C104.52 74.6928 102.281 66.8666 97.0674 60.4319C96.7551 60.0502 96.5176 59.6253 96.3556 59.159C94.6698 54.2684 92.7958 50.0012 89.9863 45.8484C89.4362 45.0335 88.6366 44.5591 87.8766 43.9514C87.8253 43.9123 87.7928 43.8593 87.7796 43.7942C87.5256 42.5706 87.7642 41.4509 88.4995 40.4338ZM72.3937 55.1727C73.5332 52.8483 74.7369 50.4731 76 48.0447C76.035 47.9799 76.087 47.9371 76.155 47.9126C76.2234 47.89 76.2911 47.8928 76.3567 47.9234C77.3203 48.3802 77.0227 51.0054 76.8642 51.8752C76.147 55.8333 73.9054 61.2454 70.4673 63.5834C68.893 64.6526 67.326 64.6671 65.7658 63.6249C65.6976 63.5783 65.6578 63.5149 65.6477 63.4321C65.6377 63.3493 65.6621 63.2771 65.7172 63.2167C67.9668 60.7821 70.9208 58.1661 72.3937 55.1727Z" fill="#693A87"/>
<path d="M102.818 45.4204C100.826 44.0321 90.54 37.6202 88.4995 40.4338C87.7643 41.4509 87.5256 42.5707 87.7796 43.7942C87.7928 43.8593 87.8253 43.9124 87.8766 43.9514C88.6366 44.5591 89.4363 45.0336 89.9869 45.8503C92.7958 50.0012 94.6698 54.2684 96.3556 59.159C96.5177 59.6253 96.7551 60.0503 97.0674 60.4319C102.281 66.8666 104.52 74.6929 105.652 82.8064C106.358 87.8664 106.776 93.3056 106.909 99.1252C107.042 104.97 107.004 114.253 103.204 118.88C102.655 119.55 102.342 119.95 102.079 120.8C98.8897 131.169 95.4192 141.458 92.3318 151.854C92.2176 152.242 92.358 152.468 92.7576 152.532C96.673 153.176 100.306 153.523 104.346 153.493C131.398 153.287 158.578 145.963 182.121 132.586C182.186 132.55 182.228 132.496 182.247 132.425C182.267 132.353 182.258 132.286 182.222 132.222C182.208 132.197 182.191 132.174 182.17 132.155C177.386 127.735 172.933 123.002 168.813 117.959C163.565 111.543 157.5 103.331 150.074 95.1112C144.187 88.5975 138.245 82.0104 132.249 75.3492C132.219 75.3165 132.182 75.2919 132.14 75.2753C132.096 75.2612 132.052 75.2554 132.006 75.2628C131.962 75.2697 131.921 75.2862 131.884 75.3141C131.848 75.3416 131.821 75.3769 131.802 75.4181C131.401 76.3082 130.888 77.1268 130.265 77.876C129.621 78.6568 128.856 79.2955 127.971 79.7903C126.254 80.7642 124.357 81.3126 122.288 81.4374C121.896 81.4605 121.819 81.316 122.058 81.0019C122.951 79.8204 123.623 78.5228 124.074 77.1097C124.961 74.3877 125.309 71.5966 125.124 68.7392C125.123 68.689 125.108 68.6435 125.079 68.602C118.929 59.8418 111.634 51.5751 102.818 45.4204ZM123.733 98.5621C129.256 100.955 133.739 104.631 139.591 106.83C139.625 106.843 139.656 106.856 139.686 106.873C140.064 107.069 140.053 107.234 139.648 107.369C132.195 109.83 122.16 106.637 116.045 102.177C114.443 101.009 111.958 98.735 111.556 96.7772C111.542 96.7038 111.556 96.637 111.596 96.5749C111.638 96.5121 111.695 96.474 111.768 96.4585C111.772 96.4574 111.776 96.4581 111.78 96.457C115.631 95.8328 120.21 97.0334 123.733 98.5621ZM163.523 131.703C157.702 138.175 149.723 140.092 141.283 139.836C133.042 139.599 125.058 138.034 117.335 135.141C116.163 134.705 115.043 134.159 113.976 133.504C113.617 133.286 113.639 133.122 114.047 133.012C114.508 132.891 114.98 132.631 115.435 132.564C117.243 132.3 118.962 132.208 120.597 132.288C131.147 132.815 141.003 133.136 151.251 130.997C155.337 130.145 159.468 128.554 163.67 128.287C164.384 128.237 165.09 128.292 165.786 128.454C165.858 128.47 165.914 128.51 165.954 128.574C165.994 128.637 166.003 128.705 165.987 128.777C165.976 128.818 165.96 128.854 165.932 128.887C165.15 129.845 164.348 130.784 163.523 131.703Z" fill="#5B287B"/>
<path d="M72.3937 55.1726C70.9208 58.1659 67.9668 60.7819 65.7172 63.2165C65.6621 63.277 65.6377 63.3491 65.6477 63.4319C65.6578 63.5147 65.6976 63.5781 65.7658 63.6247C67.326 64.6669 68.893 64.6524 70.4673 63.5832C73.9054 61.2452 76.147 55.8331 76.8642 51.8751C77.0227 51.0053 77.3203 48.3801 76.3567 47.9232C76.2912 47.8926 76.2235 47.8899 76.155 47.9124C76.087 47.9369 76.035 47.9797 76 48.0445C74.7369 50.473 73.5332 52.8481 72.3937 55.1726Z" fill="#5B287B"/>
<path d="M139.591 106.83C133.739 104.631 129.256 100.955 123.733 98.5621C120.21 97.0334 115.631 95.8328 111.78 96.457C111.706 96.4686 111.648 96.5048 111.603 96.5643C111.559 96.6257 111.543 96.6912 111.554 96.7651C111.556 96.769 111.557 96.7728 111.556 96.7772C111.958 98.735 114.443 101.009 116.045 102.177C122.16 106.637 132.195 109.832 139.648 107.369C140.053 107.234 140.064 107.069 139.686 106.873C139.656 106.856 139.625 106.843 139.591 106.83Z" fill="#693A87"/>
<path d="M141.283 139.836C149.724 140.094 157.702 138.175 163.523 131.703C164.348 130.784 165.15 129.845 165.932 128.888C165.98 128.829 166 128.765 165.992 128.69C165.985 128.616 165.954 128.555 165.896 128.507C165.863 128.481 165.827 128.463 165.786 128.454C165.09 128.292 164.384 128.237 163.672 128.287C159.468 128.554 155.337 130.145 151.251 130.997C141.004 133.138 131.147 132.815 120.597 132.288C118.962 132.208 117.243 132.3 115.435 132.564C114.981 132.633 114.508 132.891 114.047 133.012C113.641 133.121 113.617 133.286 113.976 133.504C115.043 134.159 116.163 134.705 117.335 135.141C125.058 138.034 133.042 139.599 141.283 139.836Z" fill="#693A87"/>
<path d="M83.8332 160.83C84.2496 162.45 85.058 163.711 86.2629 164.613C88.5897 166.355 91.4189 167.35 94.2096 168.062C100.173 169.59 106.23 170.421 112.384 170.557C126.441 170.869 140.834 168.844 154.01 164.435C161.243 162.013 168.508 158.748 175.808 154.644C181.596 151.388 186.884 147.53 192.026 143.337C194.305 141.48 195.606 140.616 195.799 137.925C195.724 134.016 192.343 127.828 187.591 131.126C171.564 141.027 154.315 147.924 135.842 151.813C125.24 154.048 114.065 155.64 103.211 155.588C99.5683 155.57 92.5193 155.265 90.2901 152.799C90.2533 152.76 90.2093 152.731 90.1552 152.718L87.1943 151.961C85.0583 151.679 84.0062 153.441 83.5622 155.246C83.1184 157.045 83.2092 158.905 83.8332 160.83Z" fill="#FFC145"/>
<path d="M83.8332 160.83C81.2305 165.823 77.9241 170.291 73.9127 174.238C69.1548 178.934 63.8097 182.949 57.8798 186.285C55.9832 187.353 53.6037 188.742 50.7428 190.458C47.1504 192.607 42.0789 196.223 45.558 201.094C45.9353 201.624 46.5288 202.128 47.3384 202.608C53.8227 206.451 64.8028 202.806 70.9601 199.931C72.3527 199.282 74.1464 198.507 76.3418 197.608C86.6623 193.384 97.5894 195.048 108.104 197.355C117.657 199.448 124.638 201.02 133.338 202.005C144.003 203.213 154.734 202.942 165.535 201.198C182.489 198.459 197.918 191.197 210.79 179.838C220.739 171.06 229.959 157.089 226.46 143.075C226.05 141.435 224.34 140.704 222.841 140.834C213.781 141.618 204.422 141.73 195.799 137.926C195.606 140.616 194.305 141.48 192.026 143.337C186.884 147.53 181.596 151.388 175.808 154.645C168.508 158.748 161.245 162.013 154.01 164.433C140.834 168.844 126.441 170.869 112.384 170.557C106.23 170.421 100.173 169.59 94.2096 168.062C91.4189 167.35 88.5897 166.355 86.2629 164.613C85.058 163.711 84.2496 162.451 83.8332 160.83ZM80.7855 190.583C74.3458 193.191 68.4496 196.002 61.4472 196.87C57.4541 197.367 53.5629 197.001 49.7718 195.772C49.4507 195.669 49.4233 195.514 49.689 195.305C50.412 194.738 51.1701 194.218 51.9603 193.749C54.6698 192.136 57.3839 190.537 60.1015 188.95C70.3265 182.976 78.9842 175.199 85.3677 165.157C85.4077 165.095 85.4628 165.055 85.5349 165.038C85.6076 165.022 85.6757 165.033 85.7378 165.073C85.7427 165.076 85.7483 165.081 85.7533 165.083C87.0176 166.009 88.3705 166.776 89.814 167.385C94.8816 169.531 100.053 170.793 105.509 171.417C122.476 173.36 139.143 171.331 155.468 165.962C170.5 161.02 185.17 153.942 195.65 142.199C195.737 142.104 195.838 142.08 195.957 142.128C197.538 142.784 198.946 143.329 200.18 143.77C202.34 144.543 204.099 144.507 206.553 144.461C210.313 144.388 214.085 143.898 217.852 143.732C219.264 143.672 223.293 144.151 223.49 146.06C225.234 163.053 210.082 177.682 197.008 185.643C174.356 199.435 146.677 202.951 120.981 197.395C116.503 196.426 112.055 195.335 107.637 194.122C103.7 193.041 100.305 192.207 96.8653 191.779C91.5438 191.114 86.1004 191.478 80.5384 192.873C80.212 192.956 80.2879 192.762 80.4588 192.684C81.5422 192.175 82.4859 191.479 83.2892 190.592C83.3916 190.48 83.4226 190.36 83.3854 190.235C83.367 190.173 83.3337 190.125 83.2811 190.088C83.2284 190.052 83.1718 190.037 83.1083 190.041C82.3045 190.1 81.5311 190.281 80.7855 190.583Z" fill="#693A87"/>
<path d="M80.7854 190.583C81.5311 190.281 82.3045 190.1 83.1083 190.041C83.1718 190.037 83.2284 190.051 83.281 190.088C83.3337 190.124 83.367 190.173 83.3854 190.235C83.4226 190.359 83.3916 190.48 83.2892 190.592C82.4859 191.479 81.5422 192.175 80.4582 192.681C80.2878 192.762 80.212 192.956 80.5383 192.873C86.1004 191.478 91.5438 191.114 96.8653 191.778C100.305 192.206 103.7 193.041 107.637 194.122C112.055 195.335 116.503 196.426 120.981 197.395C146.677 202.949 174.355 199.433 197.008 185.643C210.082 177.682 225.234 163.053 223.49 146.059C223.293 144.151 219.264 143.672 217.853 143.732C214.085 143.898 210.313 144.387 206.553 144.461C204.099 144.507 202.34 144.543 200.18 143.77C198.946 143.329 197.538 142.783 195.957 142.128C195.838 142.08 195.737 142.104 195.65 142.199C185.17 153.942 170.5 161.02 155.468 165.962C139.143 171.331 122.476 173.358 105.509 171.417C100.053 170.793 94.8816 169.531 89.8139 167.384C88.3705 166.776 87.0176 166.009 85.7533 165.083C85.6945 165.04 85.6285 165.022 85.5547 165.034C85.4808 165.045 85.4227 165.082 85.3796 165.14C85.375 165.146 85.3723 165.151 85.3677 165.157C78.9842 175.199 70.3265 182.976 60.1015 188.95C57.3839 190.537 54.6698 192.135 51.9602 193.749C51.1701 194.218 50.4119 194.737 49.689 195.305C49.4233 195.514 49.4507 195.669 49.7718 195.772C53.5629 197.001 57.454 197.367 61.4472 196.87C68.4496 196.002 74.3458 193.191 80.7854 190.583ZM84.4568 185.551C81.9683 184.213 79.8374 182.287 78.0689 179.775C77.8839 179.513 77.9505 179.371 78.2723 179.35C79.4928 179.274 80.7016 179.369 81.896 179.64C86.9275 180.747 92.1138 184.272 95.9078 187.656C95.93 187.674 95.9413 187.698 95.9468 187.724C95.9708 187.909 93.5727 187.322 93.299 187.302C90.1498 187.069 87.3806 187.123 84.4568 185.551ZM136.857 189.425C136.9 189.435 136.936 189.452 136.97 189.477C137.115 189.57 137.103 189.636 136.934 189.676C126.495 192.053 117.357 189.681 109.523 182.559C107.634 180.843 105.79 178.94 103.741 177.422C103.325 177.113 102.908 176.801 102.495 176.487C102.091 176.183 102.14 176.055 102.643 176.102C103.65 176.192 104.632 176.396 105.591 176.71C113.109 179.177 120.44 181.808 128.237 183.389C128.29 183.399 128.334 183.421 128.37 183.456C130.851 185.826 133.714 187.504 136.608 189.334C136.687 189.373 136.771 189.405 136.857 189.425ZM150.203 175.367C153.911 172.358 161.063 173.023 165.39 174.115C169.396 175.125 172.203 175.851 173.812 176.293C177.286 177.248 180.821 177.809 184.419 177.978C184.953 178.002 184.983 178.138 184.507 178.385C183.797 178.756 183.084 179.126 182.367 179.497C174.735 183.481 166.851 182.632 158.602 181.491C154.996 180.994 151.257 179.339 150.114 175.659C150.079 175.542 150.109 175.445 150.203 175.367Z" fill="#5B287B"/>
<path d="M84.4568 185.551C87.3806 187.123 90.1498 187.069 93.299 187.301C93.5726 187.322 95.9708 187.909 95.9468 187.723C95.9413 187.698 95.93 187.674 95.9097 187.655C92.1138 184.272 86.9275 180.746 81.896 179.639C80.7016 179.369 79.4928 179.274 78.2723 179.35C77.9505 179.371 77.8839 179.512 78.0688 179.775C79.8393 182.286 81.9683 184.213 84.4568 185.551Z" fill="#693A87"/>
<path d="M136.608 189.334C133.714 187.504 130.851 185.826 128.37 183.456C128.334 183.421 128.29 183.399 128.239 183.389C120.442 181.809 113.111 179.176 105.592 176.712C104.632 176.396 103.65 176.192 102.643 176.102C102.14 176.055 102.091 176.183 102.495 176.487C102.908 176.801 103.325 177.113 103.741 177.422C105.79 178.94 107.634 180.843 109.523 182.559C117.357 189.681 126.495 192.055 136.936 189.676C137.104 189.638 137.115 189.57 136.97 189.477C136.936 189.452 136.9 189.435 136.857 189.427C136.771 189.405 136.687 189.373 136.608 189.334Z" fill="#693A87"/>
<path d="M150.203 175.367C150.109 175.445 150.079 175.542 150.114 175.659C151.257 179.339 154.996 180.994 158.602 181.491C166.851 182.632 174.735 183.481 182.367 179.497C183.084 179.126 183.797 178.756 184.507 178.385C184.983 178.138 184.953 178.002 184.419 177.978C180.821 177.809 177.286 177.248 173.812 176.293C172.203 175.851 169.396 175.125 165.39 174.115C161.063 173.023 153.911 172.358 150.203 175.367Z" fill="#693A87"/>
</g>
<defs>
<linearGradient id="paint0_linear_111_6916" x1="267.254" y1="375.676" x2="240.208" y2="375.676" gradientUnits="userSpaceOnUse">
<stop stop-color="#9567B3"/>
<stop offset="1" stop-color="#5B287C"/>
</linearGradient>
<linearGradient id="paint1_linear_111_6916" x1="279.768" y1="379.564" x2="249.75" y2="364.058" gradientUnits="userSpaceOnUse">
<stop stop-color="#935EEA"/>
<stop offset="1" stop-color="#5B287C"/>
</linearGradient>
<linearGradient id="paint2_linear_111_6916" x1="247.862" y1="183.828" x2="207.567" y2="237.942" gradientUnits="userSpaceOnUse">
<stop stop-color="#FEEDFF"/>
<stop offset="0.51" stop-color="#C2EFFF"/>
<stop offset="1" stop-color="#58A4FF"/>
</linearGradient>
<linearGradient id="paint3_linear_111_6916" x1="237.114" y1="385.87" x2="205.288" y2="385.87" gradientUnits="userSpaceOnUse">
<stop stop-color="#935EEA"/>
<stop offset="1" stop-color="#5B287C"/>
</linearGradient>
<linearGradient id="paint4_linear_111_6916" x1="202.304" y1="463.469" x2="202.304" y2="480.04" gradientUnits="userSpaceOnUse">
<stop stop-color="#935EEA"/>
<stop offset="1" stop-color="#5B287C"/>
</linearGradient>
<linearGradient id="paint5_linear_111_6916" x1="223.861" y1="325.483" x2="200.395" y2="355.703" gradientUnits="userSpaceOnUse">
<stop stop-color="#FEEDFF"/>
<stop offset="0.51" stop-color="#C2EFFF"/>
<stop offset="1" stop-color="#58A4FF"/>
</linearGradient>
<linearGradient id="paint6_linear_111_6916" x1="192.274" y1="293.53" x2="167.763" y2="293.53" gradientUnits="userSpaceOnUse">
<stop stop-color="#935EEA"/>
<stop offset="1" stop-color="#5B287C"/>
</linearGradient>
<linearGradient id="paint7_linear_111_6916" x1="191.206" y1="323.494" x2="145.812" y2="383.618" gradientUnits="userSpaceOnUse">
<stop stop-color="#935EEA"/>
<stop offset="1" stop-color="#5B287C"/>
</linearGradient>
<linearGradient id="paint8_linear_111_6916" x1="217.404" y1="395.925" x2="168.216" y2="447.795" gradientUnits="userSpaceOnUse">
<stop stop-color="#FEEDFF"/>
<stop offset="0.51" stop-color="#C2EFFF"/>
<stop offset="1" stop-color="#58A4FF"/>
</linearGradient>
<linearGradient id="paint9_linear_111_6916" x1="169.15" y1="262.826" x2="169.15" y2="176.982" gradientUnits="userSpaceOnUse">
<stop stop-color="#B8B8D1"/>
<stop offset="1" stop-color="#9090A2"/>
</linearGradient>
<linearGradient id="paint10_linear_111_6916" x1="176.586" y1="314.988" x2="110.239" y2="314.988" gradientUnits="userSpaceOnUse">
<stop stop-color="#FEEDFF"/>
<stop offset="0.51" stop-color="#C2EFFF"/>
<stop offset="1" stop-color="#58A4FF"/>
</linearGradient>
<linearGradient id="paint11_linear_111_6916" x1="97.3745" y1="288.882" x2="115.418" y2="297.198" gradientUnits="userSpaceOnUse">
<stop stop-color="#935EEA"/>
<stop offset="1" stop-color="#5B287C"/>
</linearGradient>
<linearGradient id="paint12_linear_111_6916" x1="132.823" y1="361.034" x2="93.0336" y2="337.937" gradientUnits="userSpaceOnUse">
<stop stop-color="#935EEA"/>
<stop offset="1" stop-color="#5B287C"/>
</linearGradient>
<linearGradient id="paint13_linear_111_6916" x1="139.23" y1="409.238" x2="84.5983" y2="424.668" gradientUnits="userSpaceOnUse">
<stop stop-color="#FEEDFF"/>
<stop offset="0.51" stop-color="#C2EFFF"/>
<stop offset="1" stop-color="#58A4FF"/>
</linearGradient>
<linearGradient id="paint14_linear_111_6916" x1="194.09" y1="153.305" x2="94.0221" y2="309.348" gradientUnits="userSpaceOnUse">
<stop stop-color="#FEEDFF"/>
<stop offset="0.51" stop-color="#C2EFFF"/>
<stop offset="1" stop-color="#58A4FF"/>
</linearGradient>
<linearGradient id="paint15_linear_111_6916" x1="131.306" y1="467.267" x2="59.281" y2="467.267" gradientUnits="userSpaceOnUse">
<stop stop-color="#935EEA"/>
<stop offset="1" stop-color="#5B287C"/>
</linearGradient>
<linearGradient id="paint16_linear_111_6916" x1="139.749" y1="325.253" x2="71.7506" y2="356.66" gradientUnits="userSpaceOnUse">
<stop stop-color="#FEEDFF"/>
<stop offset="0.51" stop-color="#C2EFFF"/>
<stop offset="1" stop-color="#58A4FF"/>
</linearGradient>
<linearGradient id="paint17_linear_111_6916" x1="60.4886" y1="375.116" x2="69.0622" y2="393.627" gradientUnits="userSpaceOnUse">
<stop stop-color="#935EEA"/>
<stop offset="1" stop-color="#5B287C"/>
</linearGradient>
<linearGradient id="paint18_linear_111_6916" x1="88.6021" y1="202.438" x2="66.351" y2="255.657" gradientUnits="userSpaceOnUse">
<stop stop-color="#FEEDFF"/>
<stop offset="0.51" stop-color="#C2EFFF"/>
<stop offset="1" stop-color="#58A4FF"/>
</linearGradient>
<linearGradient id="paint19_linear_111_6916" x1="26.3271" y1="391.438" x2="45.9849" y2="384.001" gradientUnits="userSpaceOnUse">
<stop stop-color="#935EEA"/>
<stop offset="1" stop-color="#5B287C"/>
</linearGradient>
<linearGradient id="paint20_linear_111_6916" x1="24.5707" y1="373.087" x2="59.1268" y2="364.825" gradientUnits="userSpaceOnUse">
<stop stop-color="#935EEA"/>
<stop offset="1" stop-color="#5B287C"/>
</linearGradient>
<linearGradient id="paint21_linear_111_6916" x1="181.775" y1="307.862" x2="155.681" y2="327.026" gradientUnits="userSpaceOnUse">
<stop stop-color="#935EEA"/>
<stop offset="1" stop-color="#5B287C"/>
</linearGradient>
<clipPath id="clip0_111_6916">
<rect width="241.056" height="334.552" fill="white" transform="matrix(-1 0 0 1 269 146.448)"/>
</clipPath>
<clipPath id="clip1_111_6916">
<rect width="192.23" height="192.467" fill="white" transform="matrix(-0.958084 0.286488 0.285714 0.958315 184.173 0)"/>
</clipPath>
</defs>
</svg>
