<svg width="414" height="400" viewBox="0 0 414 400" fill="none" xmlns="http://www.w3.org/2000/svg">
<path d="M322.642 296.278C322.642 296.278 325.996 282.524 336.731 280.846C347.466 279.169 354.511 276.15 354.511 276.15C354.511 276.15 352.163 292.923 345.453 298.626C338.744 304.329 322.977 302.987 322.977 302.987L322.642 296.278Z" fill="#01737C"/>
<path d="M316.604 299.297C316.604 299.297 311.907 290.91 312.578 285.207C313.249 279.504 320.294 272.124 320.294 272.124C320.294 272.124 327.003 291.245 322.642 296.277C318.281 301.309 316.604 299.297 316.604 299.297Z" fill="#01737C"/>
<path d="M210.231 308.125C210.231 308.125 199.526 297.955 184.43 301.31C169.335 304.664 166.986 305.671 164.638 306.006C162.29 306.342 176.715 315.064 190.469 315.399C204.223 315.735 210.231 308.125 210.231 308.125Z" fill="#01737C"/>
<path d="M314.032 291.133C314.032 291.133 313.584 284.648 313.697 283.642C313.809 282.636 320.181 273.353 319.958 274.137C319.735 274.92 316.491 292.029 316.491 292.029C316.491 292.029 318.839 284.313 319.064 283.082C319.289 281.851 320.07 276.373 320.741 277.268C321.412 278.164 323.313 292.252 323.09 293.817C322.867 295.382 322.754 295.719 322.754 295.719C322.754 295.719 331.587 285.766 335.054 284.872C338.521 283.978 347.579 281.294 348.92 280.511C350.262 279.727 352.163 277.491 351.827 278.61C351.492 279.729 349.814 290.351 348.249 292.81C346.685 295.269 343.218 298.626 343.218 298.626L345.341 291.916C345.341 291.916 340.98 299.855 338.856 300.415C336.733 300.976 325.996 303.322 325.996 303.322L322.306 301.086L311.124 296.5L314.032 291.133Z" fill="#005E60"/>
<path d="M208.584 303.321C208.584 303.321 207.703 303.605 206.288 303.942C203.743 304.561 201.142 304.923 198.525 305.022C196.105 305.088 193.604 304.844 191.48 303.992C190.252 303.501 189.06 302.437 187.928 301.027C182.871 294.728 179.063 281.516 179.063 281.516C179.063 281.516 185.772 282.858 196.172 286.884C206.571 290.909 208.584 303.321 208.584 303.321Z" fill="#01737C"/>
<path d="M206.794 308.132C206.794 308.132 185.772 304.552 184.207 304.552C182.642 304.552 170.564 306.342 170.564 307.461C170.564 308.58 185.995 314.393 185.995 314.393L206.794 308.132Z" fill="#005E60"/>
<path d="M210.374 308.801C208.121 308.392 203.2 306.716 198.525 305.022C193.511 303.204 188.78 301.362 187.923 301.027C182.871 294.728 179.063 281.516 179.063 281.516L192.705 292.699L189.127 288.002C189.127 288.002 192.929 290.686 195.836 292.699C197.612 293.928 202.643 299.663 206.288 303.937C208.612 306.676 210.374 308.801 210.374 308.801Z" fill="#005E60"/>
<path d="M136.124 339.888C136.124 339.888 148.2 347.268 151.219 348.61C154.239 349.952 158.935 350.958 159.942 349.952L160.948 348.946C160.948 348.946 171.347 354.984 177.721 359.681C184.095 364.377 186.108 368.067 186.108 368.067C186.108 368.067 193.152 363.371 193.152 364.712C193.152 366.054 193.488 375.783 195.836 375.783C198.184 375.783 230.389 392.221 230.389 392.221C230.389 392.221 251.523 394.569 254.207 395.575C256.891 396.582 269.303 399.936 269.303 399.936L288.76 387.524L293.569 388.418L296.476 386.518C296.476 386.518 303.856 386.518 305.869 386.182C307.881 385.847 310.117 384.84 310.117 384.84C310.117 384.84 390.406 344.249 391.747 342.907C393.089 341.565 389.399 340.224 389.399 340.224C389.399 340.224 394.431 340.559 396.108 340.224C397.786 339.888 413.888 328.93 413.888 328.93L380.677 332.172L136.124 339.888Z" fill="#3C1966"/>
<path d="M413.888 328.93C412.994 330.718 397.786 336.981 395.996 338.323C394.206 339.665 383.025 337.875 383.025 337.875C383.025 337.875 389.735 342.349 387.945 342.795C386.155 343.241 381.236 346.374 381.236 346.374C381.236 346.374 380.342 351.742 370.949 358.003C361.556 364.264 311.907 384.392 310.117 384.84C308.327 385.288 305.198 383.946 302.962 383.946C300.726 383.946 296.699 384.84 294.911 383.498C293.123 382.156 288.201 379.025 288.201 379.025C288.201 379.025 294.911 387.076 293.569 388.418C292.227 389.76 271.316 400.942 269.303 399.936C267.29 398.93 251.859 392.22 247.162 392.556C242.466 392.891 232.402 393.562 228.376 392.556C224.351 391.549 197.849 378.131 195.836 375.783C194.719 374.479 194.739 371.422 195.033 368.669C195.271 366.46 195.687 364.452 195.836 363.706C196.172 362.029 206.236 352.636 201.875 355.319C197.514 358.003 186.108 368.067 186.108 368.067C185.25 366.948 184.571 365.704 184.095 364.377C183.424 362.364 167.322 348.61 159.271 344.92C151.219 341.23 157.929 347.939 155.58 348.61C155.102 348.746 154.292 348.675 153.267 348.451C149.254 347.577 141.946 344.375 138.472 342.236C134.111 339.552 135.117 335.191 132.769 333.85C130.421 332.508 128.743 331.501 131.092 330.495C132.799 329.764 163.42 317.974 189.548 310.521C199.35 307.725 208.52 305.54 215.293 304.776C215.293 304.776 223.737 290.44 224.686 288.226C226.699 283.53 242.771 250.319 250.629 234.329C257.114 221.133 264.1 203.317 268.763 193.585C270.034 190.933 271.061 188.966 271.747 188.016C271.852 187.864 271.97 187.72 272.099 187.587C273.597 186.089 276.487 184.736 279.37 183.897C281.655 183.238 283.936 182.911 285.518 183.109C289.095 183.556 294.911 182.662 294.015 185.792C293.119 188.922 287.753 193.843 287.753 193.843C287.753 193.843 302.066 245.287 307.433 261.389C312.801 277.491 321.3 306.118 321.748 307.906C322.196 309.694 414.782 327.14 413.888 328.93Z" fill="#5B287C"/>
<path d="M240.619 223.284C242.28 220.181 241.111 216.318 238.008 214.657C234.904 212.996 231.042 214.165 229.38 217.268C227.719 220.372 228.888 224.234 231.992 225.896C235.095 227.557 238.958 226.388 240.619 223.284Z" fill="#FFFEF5"/>
<path d="M215.293 307.348L224.518 312.789C218.842 310.593 215.461 307.502 215.293 307.348Z" fill="#FFC145"/>
<path d="M413.888 328.929C412.994 330.717 397.786 336.98 395.996 338.322C394.206 339.664 383.025 337.874 383.025 337.874C383.025 337.874 389.735 342.347 387.945 342.794C386.155 343.24 381.236 346.373 381.236 346.373C381.236 346.373 380.342 351.74 370.949 358.002C361.556 364.263 311.907 384.391 310.117 384.839C310.117 384.839 332.706 360.35 303.52 342.235C274.335 324.12 260.581 327.475 260.581 327.475L243.137 323.784L224.518 312.793C233.187 316.148 247.204 317.441 263.265 302.986C290.102 278.832 285.405 227.171 285.07 225.829C284.734 224.487 282.386 230.19 282.386 230.19C282.386 230.19 288.089 195.86 287.753 193.847C287.562 192.702 289.989 183.113 279.367 183.901C281.651 183.242 283.933 182.915 285.514 183.113C289.092 183.56 294.907 182.666 294.012 185.796C293.116 188.926 287.75 193.847 287.75 193.847C287.75 193.847 302.066 245.286 307.434 261.388C312.801 277.49 321.3 306.117 321.748 307.905C322.196 309.693 414.782 327.139 413.888 328.929Z" fill="#5B287C"/>
<path d="M159.383 341.452L215.293 304.776L213.057 302.092C213.057 302.092 177.721 322.22 159.383 341.452Z" fill="#471E87"/>
<path d="M220.661 303.657C220.661 303.657 241.795 320.766 271.987 317.747C302.178 314.728 314.255 302.315 314.255 302.315L311.907 312.715L289.095 324.121L247.498 326.133L227.034 316.74L220.661 303.657Z" fill="#01737C"/>
<path d="M212.609 312.38C212.609 312.38 205.564 314.297 205.9 315.015C206.235 315.733 216.299 315.735 216.299 315.735L212.609 312.38Z" fill="#01A8B1"/>
<path d="M235.693 322.276C235.693 322.276 234.519 329.488 235.304 329.473C236.089 329.458 240.277 320.313 240.277 320.313L235.693 322.276Z" fill="#01A8B1"/>
<path d="M222.673 300.264C222.673 300.264 227.068 294.436 226.364 294.072C225.659 293.708 217.702 299.872 217.702 299.872L222.673 300.264Z" fill="#01A8B1"/>
<path d="M252.899 326.702C252.899 326.702 256.678 332.95 257.277 332.43C257.875 331.91 255.111 322.234 255.111 322.234L252.899 326.702Z" fill="#01A8B1"/>
<path d="M267.134 318.792C267.134 318.792 263.691 312.353 263.065 312.841C262.439 313.329 264.689 323.138 264.689 323.138L267.134 318.792Z" fill="#01737C"/>
<path d="M289.332 316.053C289.332 316.053 283.461 311.711 283.105 312.42C282.75 313.13 288.986 321.028 288.986 321.028L289.332 316.053Z" fill="#01737C"/>
<path d="M304.577 310.969C304.577 310.969 303.878 303.703 303.113 303.911C302.348 304.119 300.647 314.04 300.647 314.04L304.577 310.969Z" fill="#01737C"/>
<path d="M312.219 303.311C312.219 303.311 305.27 305.551 305.639 306.254C306.008 306.957 316.06 306.489 316.06 306.489L312.219 303.311Z" fill="#01A8B1"/>
<path d="M299.567 322.178C299.567 322.178 297.554 329.198 298.344 329.283C299.134 329.369 304.347 320.761 304.347 320.761L299.567 322.178Z" fill="#01A8B1"/>
<path d="M324.639 310.332C324.639 310.332 330.294 314.951 330.678 314.26C331.062 313.569 325.218 305.38 325.218 305.38L324.639 310.332Z" fill="#01A8B1"/>
<path d="M329.894 304.391C329.894 304.391 336.179 300.678 335.666 300.072C335.153 299.467 327.841 301.981 327.841 301.981L329.894 304.391Z" fill="#01A8B1"/>
<path d="M323.581 296.394C323.581 296.394 330.045 293.001 329.562 292.368C329.079 291.736 321.652 293.878 321.652 293.878L323.581 296.394Z" fill="#01A8B1"/>
<path d="M280.038 327.374C280.038 327.374 286.714 330.33 286.906 329.555C287.099 328.78 281.044 324.456 281.044 324.456L280.038 327.374Z" fill="#01A8B1"/>
<path d="M210.375 304.407C210.375 304.407 203.522 301.624 203.236 302.49C202.951 303.355 210.679 309.801 210.679 309.801L210.375 304.407Z" fill="#01A8B1"/>
<path d="M219.102 293.309C219.102 293.309 218.995 286.005 218.208 286.147C217.422 286.29 214.894 296.032 214.894 296.032L219.102 293.309Z" fill="#01A8B1"/>
<path d="M216.234 296.487C216.234 296.487 211.35 291.052 210.85 291.678C210.35 292.304 214.852 301.304 214.852 301.304L216.234 296.487Z" fill="#01A8B1"/>
<path d="M240.341 317.411C240.341 317.411 259.797 323.337 276.012 321.772C292.227 320.207 301.843 312.602 301.843 312.602L292.673 319.647L306.987 310.254L302.962 319.424L282.386 325.685L255.213 325.014L240.341 317.411Z" fill="#005E60"/>
<path d="M311.571 319.424C311.571 319.424 311.907 331.501 325.325 333.514C338.744 335.526 345.789 330.159 345.789 330.159C345.789 330.159 342.099 320.766 333.041 317.076C323.984 313.386 311.571 319.424 311.571 319.424Z" fill="#01A8B1"/>
<path d="M281.715 364.376C281.715 364.376 271.651 361.692 267.626 351.628C264.556 343.953 268.509 334.52 270.561 330.477C271.197 329.219 271.651 328.481 271.651 328.481C271.651 328.481 283.728 334.52 285.405 344.584C286.509 351.202 281.715 364.376 281.715 364.376Z" fill="#01A8B1"/>
<path d="M226.699 322.779C226.699 322.779 213.28 322.108 207.578 327.14C201.875 332.172 198.52 339.887 196.172 340.558C194.802 340.934 193.539 341.623 192.482 342.571C192.482 342.571 206.907 344.248 218.312 338.881C229.718 333.514 226.699 322.779 226.699 322.779Z" fill="#01A8B1"/>
<path d="M237.098 316.405C237.098 316.405 230.053 309.696 228.712 304.328C227.37 298.961 229.718 290.574 229.718 290.574C229.718 290.574 238.44 297.619 239.782 302.651C241.124 307.683 237.098 316.405 237.098 316.405Z" fill="#01A8B1"/>
<path d="M239.782 317.747C239.782 317.747 240.788 306.677 243.808 304.329C246.827 301.98 260.245 298.626 259.91 300.303C259.574 301.98 254.878 312.044 252.194 314.057C249.511 316.07 239.782 317.747 239.782 317.747Z" fill="#01A8B1"/>
<path d="M318.027 304.255C318.027 304.255 308.683 304.243 304.449 299.758C300.216 295.273 295.727 287.294 295.727 287.294C295.727 287.294 303.46 286.846 308.586 289.912C313.712 292.978 318.027 304.255 318.027 304.255Z" fill="#01A8B1"/>
<path d="M282.218 347.1L278.864 340.559C278.864 340.559 281.547 348.945 281.547 352.3C281.547 355.655 280.709 361.022 281.715 364.377C281.715 364.377 271.651 361.693 267.626 351.629C264.556 343.954 268.509 334.52 270.561 330.478C271.252 330.02 271.931 329.695 272.154 329.991C272.658 330.662 278.025 334.185 280.205 338.546C281.52 341.206 282.209 344.132 282.218 347.1Z" fill="#009093"/>
<path d="M239.447 260.941C239.447 260.941 256.443 224.264 258.681 221.133C260.918 218.001 266.284 204.583 266.284 204.583C266.284 204.583 259.575 229.632 256.891 233.209C254.207 236.787 234.973 274.807 234.973 274.807L239.447 260.941Z" fill="#5B287C"/>
<path d="M256.891 233.209C256.891 233.209 260.469 228.289 261.139 232.315C261.81 236.341 254.207 252.889 249.958 252.889C245.71 252.889 252.194 237.458 252.194 237.458L256.891 233.209Z" fill="#5B287C"/>
<path d="M247.162 392.556C242.466 392.891 232.402 393.562 228.376 392.556C224.351 391.549 197.849 378.131 195.836 375.782C194.719 374.479 194.739 371.421 195.033 368.669C195.4 370.933 195.923 373.414 196.507 373.882C197.626 374.776 216.412 380.814 216.412 380.814C216.412 380.814 207.019 379.249 208.136 380.367C209.253 381.484 226.251 389.089 228.712 390.207C231.172 391.326 247.162 392.556 247.162 392.556Z" fill="#5B287C"/>
<path d="M139.926 341.678C141.02 342.225 149.99 346.784 153.267 348.451C149.254 347.577 141.946 344.375 138.472 342.237C134.111 339.553 135.117 335.192 132.769 333.85C130.421 332.508 128.743 331.502 131.092 330.496C132.799 329.764 163.42 317.974 189.548 310.522C170.143 317.545 136.434 329.83 135.005 330.943C132.992 332.508 135.676 332.508 136.794 333.402C137.913 334.296 138.584 341.007 139.926 341.678Z" fill="#5B287C"/>
<path d="M308.552 271.452C312.072 271.452 314.926 268.599 314.926 265.078C314.926 261.558 312.072 258.705 308.552 258.705C305.032 258.705 302.178 261.558 302.178 265.078C302.178 268.599 305.032 271.452 308.552 271.452Z" fill="#FFFEF5"/>
<path d="M226.028 323.45C226.028 323.45 211.045 326.917 208.807 328.705C206.569 330.493 198.52 338.098 200.756 338.993C202.992 339.889 215.516 337.204 219.542 334.968C223.567 332.732 226.028 323.45 226.028 323.45Z" fill="#009082"/>
<path d="M315.485 319.537C315.485 319.537 322.865 329.601 331.587 330.272C340.309 330.943 344.224 329.041 344.224 329.041C344.224 329.041 342.657 324.68 339.303 322.332C335.948 319.983 333.377 318.866 333.377 318.866L337.625 323.45C337.625 323.45 332.147 317.412 327.561 317.189C322.976 316.966 315.485 319.537 315.485 319.537Z" fill="#009082"/>
<path d="M317.777 293.594C317.777 293.594 320.293 289.904 322.306 291.581C325.773 294.471 325.325 302.316 325.325 302.316C325.325 302.316 327.674 299.632 329.351 299.632C331.028 299.632 333.712 307.683 318.616 316.741C302.536 326.389 288.424 325.799 288.424 325.799C288.424 325.799 270.153 333.011 239.111 326.805C208.919 320.767 208.584 306.006 208.584 303.322C208.584 300.639 214.287 291.917 215.293 291.581C216.299 291.246 222.002 292.252 222.002 292.252C222.002 292.252 222.673 301.645 234.079 312.045C245.485 322.444 268.283 324.457 272.322 324.457C278.025 324.457 286.747 323.45 286.747 323.45C286.747 323.45 296.811 320.431 307.881 308.69C318.952 296.949 317.777 293.594 317.777 293.594Z" fill="#01A8B1"/>
<path d="M251.728 321.566C251.728 321.566 256.149 315.756 255.445 315.388C254.74 315.021 246.758 321.152 246.758 321.152L251.728 321.566Z" fill="#01A8B1"/>
<path d="M270.849 327.101C270.849 327.101 275.271 321.29 274.566 320.923C273.862 320.556 265.879 326.686 265.879 326.686L270.849 327.101Z" fill="#01A8B1"/>
<path d="M300.124 316.602C300.124 316.602 292.938 315.314 292.931 316.099C292.925 316.884 302.019 321.208 302.019 321.208L300.124 316.602Z" fill="#01A8B1"/>
<path opacity="0.5" d="M216.187 294.041C216.187 294.041 211.715 297.619 210.82 301.644C209.924 305.67 212.832 311.821 219.767 317.299C226.701 322.777 249.734 325.798 249.734 325.798L243.137 323.785C243.137 323.785 255.997 326.692 264.048 326.692C272.099 326.692 277.913 324.904 277.913 324.904C277.913 324.904 268.632 325.575 257.785 323.897C246.938 322.22 237.098 315.957 236.65 316.292C236.203 316.628 239.559 319.201 239.559 319.201C239.559 319.201 234.415 316.628 232.179 314.504C229.943 312.381 226.699 308.018 226.699 308.018C226.699 308.018 231.58 310.942 230.725 310.031C220.437 299.073 220.884 293.37 220.437 293.145C219.991 292.921 219.431 300.079 219.431 300.079L216.187 294.041Z" fill="#009082"/>
<path d="M291.331 324.121C291.331 324.121 298.777 319.379 303.072 316.182C312.69 309.025 318.952 296.278 319.064 295.494C319.176 294.711 321.077 291.917 321.412 291.917C321.748 291.917 323.76 294.6 323.871 295.942C323.982 297.284 324.096 302.204 324.096 302.204C324.096 302.204 316.603 311.821 316.939 311.932C317.274 312.043 325.548 303.881 325.996 303.322C326.444 302.764 328.009 300.862 328.345 300.751C328.68 300.64 329.351 305.783 328.568 306.677C327.784 307.571 322.865 314.057 314.591 317.86C306.316 321.662 291.331 324.121 291.331 324.121Z" fill="#009082"/>
<path d="M241.236 316.517C241.236 316.517 244.814 308.241 247.275 306.789C249.735 305.336 259.239 299.519 258.791 300.75C258.343 301.982 253.088 312.379 251.746 313.721C250.404 315.063 241.236 316.517 241.236 316.517Z" fill="#009093"/>
<path d="M237.211 314.169C237.211 314.169 236.986 305.222 235.644 302.763C234.302 300.304 230.166 291.58 230.166 291.58C230.166 291.58 238.888 299.073 239.334 302.986C239.78 306.899 237.211 314.169 237.211 314.169Z" fill="#009093"/>
<path d="M296.475 287.667C296.475 287.667 305.421 291.358 306.987 292.587C308.554 293.817 313.697 301.757 313.697 301.757C313.697 301.757 310.453 302.428 309.559 302.316C308.665 302.203 304.527 299.296 303.856 298.178C303.185 297.059 296.475 287.667 296.475 287.667Z" fill="#009093"/>
<path d="M165.898 119.911C165.898 119.911 172.738 115.125 176.519 115.751C180.299 116.376 189.382 116.804 189.727 117.821C190.073 118.837 179.863 129.83 177.325 130.996C174.788 132.162 161.084 128.378 159.942 127.053C158.799 125.727 165.898 119.911 165.898 119.911Z" fill="#01737C"/>
<path d="M164.638 127.372C164.638 127.372 172.521 132.404 174.367 136.094C176.212 139.784 174.031 148.338 173.36 148.17C172.689 148.003 163.296 141.126 162.458 139.616C161.619 138.106 164.638 127.372 164.638 127.372Z" fill="#01737C"/>
<path d="M165.812 123.009C165.812 123.009 172.857 118.313 175.037 118.145C177.218 117.977 185.437 118.816 185.437 118.816L175.876 123.345C175.876 123.345 185.437 120.829 184.598 121.5C183.759 122.171 178.057 129.383 175.205 129.383C172.354 129.383 165.309 128.88 165.309 128.88C165.309 128.88 169.67 134.751 171.18 137.77C172.689 140.789 173.696 145.989 173.192 145.989C172.689 145.989 161.116 138.441 161.116 138.441L159.606 124.855L165.812 123.009Z" fill="#02595B"/>
<path d="M175.037 121.165C174.702 121.836 161.451 136.428 160.612 137.099C159.774 137.77 141.155 141.46 141.155 141.46L128.072 128.377L131.437 118.285L133.272 112.778C133.272 112.778 134.587 110.988 136.469 108.436C141.053 102.213 149.007 91.451 149.527 90.9914L149.542 90.9797C150.045 90.6442 165.79 81.6236 166.79 81.4189H166.818C167.489 81.4189 171.85 84.9413 171.85 84.9413C171.85 84.9413 167.489 107.753 167.154 108.927C166.818 110.101 158.264 120.165 158.264 120.165C158.264 120.165 175.373 120.494 175.037 121.165Z" fill="#FFC145"/>
<path d="M116.499 147.667C116.499 147.667 112.473 154.377 111.802 157.06C111.131 159.744 116.331 168.802 118.176 168.969C120.021 169.137 124.214 158.905 124.214 157.563C124.214 156.222 119.35 146.829 119.35 146.829L116.499 147.667Z" fill="#01A8B1"/>
<path d="M155.077 147.498C155.077 147.498 154.91 153.033 156.084 154.207C157.258 155.382 163.296 157.73 163.967 157.394C164.638 157.059 162.122 152.53 161.619 151.691C161.116 150.853 156.755 146.492 156.755 146.492L155.077 147.498Z" fill="#01A8B1"/>
<path d="M116.834 149.68C116.834 149.68 112.976 156.221 112.976 158.066C112.976 159.911 118.008 167.627 118.008 167.627C118.008 167.627 119.015 159.744 119.015 158.737C119.015 157.731 119.183 154.544 119.183 154.544C119.183 154.544 120.524 158.737 120.357 160.079C120.189 161.421 119.35 165.782 119.35 165.782C119.35 165.782 122.705 159.073 122.705 157.731C122.705 156.389 120.357 150.686 120.357 150.686L116.834 149.68Z" fill="#19DDDD"/>
<path d="M156.587 147.498C156.587 147.498 156.251 153.201 157.258 153.872C158.264 154.543 162.625 157.394 161.954 155.885C161.283 154.375 157.426 146.492 157.426 146.492L156.587 147.498Z" fill="#19DDDD"/>
<path d="M55.6121 111.771C55.6121 111.771 49.5737 110.597 47.7287 110.094C45.8836 109.591 43.7031 108.249 42.529 108.752C41.3549 109.255 44.2063 125.525 46.89 127.874C49.5737 130.222 63.831 130.557 63.831 130.557L69.5339 127.538L60.3086 116.3L55.6121 111.771Z" fill="#01737C"/>
<path d="M60.8117 140.958C60.8117 140.958 50.0768 140.958 45.8835 142.803C41.6902 144.648 38.5033 149.68 37.8324 150.518C37.1615 151.357 34.31 152.363 34.8132 153.034C35.3164 153.705 47.2254 155.382 51.4187 154.712C55.612 154.041 63.4954 145.151 63.4954 145.151L60.8117 140.958Z" fill="#01737C"/>
<path d="M71.0435 147.164C71.0435 147.164 63.4955 153.37 63.3278 155.718C63.1601 158.067 61.315 163.602 61.6505 164.44C61.9859 165.279 72.7208 158.57 73.0563 157.228C73.3917 155.886 72.7208 146.829 72.7208 146.829L71.0435 147.164Z" fill="#01A8B1"/>
<path d="M122.569 53.4897L122.817 55.9738L126.62 56.0845L126.172 51.6128L122.569 53.4897Z" fill="#FFC145"/>
<path d="M55.1088 113.114C55.1088 113.114 50.4123 111.772 49.5736 111.604C48.735 111.436 44.7094 109.927 44.7094 109.927C44.7094 109.927 49.9091 119.152 52.0896 121.333C54.2701 123.513 66.0114 130.39 66.0114 130.39L65.8437 122.171L55.1088 113.114Z" fill="#02595B"/>
<path d="M69.366 147.499C69.366 147.499 68.8628 154.712 68.5273 155.886C68.1919 157.06 62.8244 162.763 63.6631 162.763C64.5018 162.763 71.7143 158.234 71.882 156.892C72.0497 155.55 72.5529 146.157 72.5529 146.157L69.366 147.499Z" fill="#19DDDD"/>
<path d="M60.9795 143.305C60.9795 143.305 47.8964 143.641 46.2191 144.815C44.5417 145.989 39.342 149.847 39.8452 150.35C40.3484 150.853 48.9028 153.034 51.7542 152.698C54.6057 152.363 62.1536 144.982 62.1536 144.982L60.9795 143.305Z" fill="#02595B"/>
<path d="M146.355 69.6573V69.6708C146.137 70.1069 139.634 96.7411 135.095 115.391C132.638 125.485 130.756 133.241 130.756 133.241L118.344 129.216L113.832 91.6554L111.635 73.3609C111.635 73.3609 113.398 70.1152 115.732 65.8532C117.653 62.3476 119.963 58.1543 121.995 54.5145L125.556 53.7362L122.569 53.488C124.949 49.2393 126.836 45.9685 127.066 45.8528C127.737 45.5173 142.665 36.292 142.833 36.7952C143.001 37.2984 146.65 68.6644 146.355 69.6573Z" fill="#FDD992"/>
<path d="M83.6233 118.313L78.2559 135.422C78.2559 135.422 75.3759 133.644 71.6825 131.333C65.2952 127.336 56.4792 121.742 55.9475 120.997C55.1089 119.823 48.3996 92.1473 48.5673 91.6441C48.735 91.1409 52.9283 89.799 53.5993 89.6313C54.2702 89.4636 59.8054 92.9859 59.8054 92.9859L73.0562 102.882L83.6233 118.313Z" fill="#F2D293"/>
<path d="M77.4173 131.006L71.6825 131.341C65.2953 127.344 56.4793 121.75 55.9476 121.006L63.3278 118.825L77.4173 131.006Z" fill="#F9D07E"/>
<g style="mix-blend-mode:multiply" opacity="0.32">
<path d="M63.3278 118.817L68.92 114.792L72.3854 108.641L77.4173 118.146L80.772 132.459L63.3278 118.817Z" fill="#FFC145"/>
</g>
<path d="M146.355 69.6714C146.137 70.1075 139.634 96.7417 135.095 115.392L126.953 124.52L137.801 73.8647L146.355 69.6714Z" fill="#F8C869"/>
<path d="M128.743 62.7949L115.883 94.3286L113.832 91.6566L111.635 73.3621C111.635 73.3621 113.398 70.1164 115.732 65.8544L128.743 62.7949Z" fill="#FFC145"/>
<path d="M114.431 92.9854V137.49L77.0818 135.477C77.0818 135.477 65.3875 72.0189 64.1866 61.7235C64.1866 61.7235 64.1866 61.7134 64.1866 61.7084C64.091 60.8932 64.0642 60.4152 64.1128 60.333C64.7217 59.3182 76.0335 31.5468 78.7709 26.129C79.0477 25.5822 79.2372 25.2635 79.3194 25.2216C80.1899 24.7872 87.815 15.6961 89.0663 15.7967C89.1001 15.7976 89.1329 15.8087 89.1602 15.8286C89.8664 16.3586 102.03 35.1933 107.651 44.1753C109.142 46.5555 110.167 48.2428 110.407 48.7041C111.078 50.046 112.403 65.8396 113.349 78.1847C113.971 86.3348 114.431 92.9854 114.431 92.9854Z" fill="#FFC145"/>
<g style="mix-blend-mode:multiply" opacity="0.32">
<path d="M76.4109 129.215C76.4109 129.215 69.3661 82.418 69.5338 80.573C69.7016 78.7279 75.2367 71.3477 75.9077 72.1864C76.5786 73.025 79.5978 82.9212 79.5978 82.9212C79.5978 82.9212 80.4364 71.5154 80.9396 71.3477C81.4428 71.18 91.1713 59.9419 91.0036 60.4451C90.8358 60.9483 93.1841 77.8893 93.1841 77.8893L94.5259 128.712L76.4109 129.215Z" fill="#FFC145"/>
</g>
<path d="M152.674 126.644L148.313 133.13L164.527 130.111L175.037 121.166L159.718 123.737L152.674 126.644Z" fill="#F9D07E"/>
<path d="M126.731 132.907L105.261 138.442L97.5452 133.242L93.0298 124.891C87.4024 114.478 78.4858 97.9731 78.256 97.5152C77.9205 96.8443 86.8103 80.9097 86.8103 80.9097L88.6554 83.9289L87.3135 79.4001C87.3135 79.4001 93.3519 69.5039 93.8551 69.5039C94.3314 69.5039 115.041 76.8489 117.306 78.5011C117.437 78.5984 117.505 78.6688 117.505 78.7292C117.505 79.4471 122.202 106.767 124.899 122.329C125.976 128.561 126.731 132.907 126.731 132.907Z" fill="#F2D498"/>
<path d="M157.706 131.565L175.037 121.166L162.961 134.808L157.706 131.565Z" fill="#FFC145"/>
<path d="M153.568 113.001L143.056 128.322L130.868 126.085L131.437 118.285L133.272 112.778C133.272 112.778 148.794 91.6441 149.527 90.9849L149.542 90.9731L153.568 113.001Z" fill="#F2D498"/>
<path d="M106.938 125.302L93.0297 124.889C87.4023 114.477 78.4857 97.9718 78.2559 97.5138L93.3518 88.2886L101.067 95.1656L106.938 125.302Z" fill="#F9D07E"/>
<path d="M124.899 122.329L123.824 131.229L109.399 129.104L101.068 95.1663L117.505 78.7285C117.505 79.2066 119.594 91.4929 121.782 104.242C122.873 110.631 124.002 117.139 124.899 122.329Z" fill="#FFC145"/>
<path d="M122.202 128.335C122.202 128.335 114.263 122.862 113.746 121.612C113.23 120.362 109.509 105.555 110.346 104.804C111.183 104.052 123.465 110.766 124.879 112.118C126.293 113.47 128.842 123.38 128.842 123.38L122.202 128.335Z" fill="#01737C"/>
<path d="M126.6 123.473C126.6 123.473 129.161 116.333 130.439 115.286C131.717 114.24 139.052 111.18 139.391 111.784C139.73 112.388 139.342 116.667 138.916 117.655C138.49 118.643 137.481 120.657 137.481 120.657L126.6 123.473Z" fill="#01737C"/>
<path d="M113.347 78.1852L112.976 78.784L95.6447 78.6733L91.8422 46.3564C91.8422 46.3564 97.6574 40.5411 97.9929 40.6535C98.1975 40.7222 103.528 42.6663 107.649 44.1758C109.14 46.556 110.165 48.2433 110.405 48.7046C111.078 50.0465 112.401 65.8401 113.347 78.1852Z" fill="#F9D07E"/>
<path d="M110.405 48.7041L91.8423 46.3559L89.1586 15.8286C90.0526 16.4995 109.286 46.4683 110.405 48.7041Z" fill="#F2D498"/>
<path d="M102.745 47.5304C102.745 47.5304 103.416 52.3947 103.583 53.2333L104.254 56.588C104.254 56.588 104.087 48.3691 104.087 47.5304C104.087 46.6918 103.583 43.8403 103.583 43.8403L102.745 47.5304Z" fill="#F2D498"/>
<path d="M59.8053 92.9859L58.4635 96.3406L55.612 97.1792L48.5673 91.6441C48.735 91.1409 52.9283 89.799 53.5992 89.6313C54.2702 89.4636 59.8053 92.9859 59.8053 92.9859Z" fill="#FFC145"/>
<path d="M142.833 36.7952C142.833 36.7952 129.414 62.4583 128.743 62.7937C128.173 63.0805 118.746 65.1839 115.94 65.8129L115.868 65.8297L115.752 65.8548H115.732C117.653 62.3492 119.963 58.1559 121.995 54.5161L125.556 53.7362L122.569 53.4879C124.949 49.2393 126.836 45.9685 127.066 45.8528L127.133 45.8159C128.408 45.1013 142.665 36.3038 142.833 36.7952Z" fill="#FFC145"/>
<path d="M146.355 69.6575V69.6709C146.355 69.6709 138.695 73.9766 137.801 73.8642C136.907 73.7518 128.743 62.7939 128.743 62.7939L142.833 36.7954C143.001 37.2986 146.65 68.6645 146.355 69.6575Z" fill="#FFC145"/>
<path d="M171.851 84.935L165.644 87.6187L166.819 81.4126C167.489 81.4126 171.851 84.935 171.851 84.935Z" fill="#FFC145"/>
<path d="M63.3277 118.816L55.9475 120.997C55.1089 119.823 48.3996 92.1468 48.5673 91.6436L55.6121 97.1787L63.3277 118.816Z" fill="#FFC145"/>
<path d="M58.4635 96.3405L72.3853 108.642L59.4145 96.1174L59.8054 92.9858L58.4635 96.3405Z" fill="#FFC145"/>
<path d="M171.851 84.9346C171.851 84.9346 167.489 107.746 167.154 108.92C166.949 108.984 153.789 113.114 153.568 113.001C153.346 112.889 165.644 87.6183 165.644 87.6183L171.851 84.9346Z" fill="#FFC145"/>
<path d="M158.264 120.16L152.674 126.644L175.037 121.166L158.264 120.16Z" fill="#FFC145"/>
<path d="M121.195 125.19C121.195 125.19 116.883 122.048 115.828 120.325C114.773 118.603 110.796 106.236 112.138 107.41C113.48 108.584 123.04 121.332 123.04 121.332C123.04 121.332 118.512 111.939 117.673 110.932C116.994 110.16 116.265 109.431 115.493 108.752C115.493 108.752 124.215 112.106 124.718 114.119C125.221 116.132 126.6 123.472 126.6 123.472C126.6 123.472 130.253 117.306 131.763 116.635C133.272 115.964 137.465 114.287 137.13 114.958C136.794 115.629 135.956 119.151 135.285 119.487C134.614 119.822 131.595 122.841 131.595 122.841L121.195 125.19Z" fill="#02595B"/>
<path d="M91.8422 46.3561C91.6745 46.8593 78.0881 57.7619 77.0817 58.2651C76.0754 58.7683 78.2559 67.6581 78.4236 68.329C78.5913 68.9999 79.43 78.8961 79.43 78.8961C79.43 78.8961 78.4236 72.1868 77.9204 71.5159C77.4172 70.845 74.7335 61.7874 74.7335 61.2842C74.7335 60.781 74.5658 59.6069 74.0626 59.6069C73.9601 59.615 73.8582 59.629 73.7573 59.6488H73.7456C72.1974 59.9206 65.7682 61.353 64.1848 61.7069C64.0892 60.8917 64.0624 60.4137 64.111 60.3315C64.7199 59.3167 76.0318 31.5453 78.7691 26.1276C79.0459 25.5808 79.2354 25.2621 79.3176 25.2201C80.1881 24.7857 87.8132 15.6946 89.0645 15.7953L89.1585 15.8271C89.1585 15.8271 92.0099 45.8529 91.8422 46.3561Z" fill="#FFC145"/>
<path d="M89.1586 15.8286C89.1586 15.8286 90.3327 45.014 90.3327 46.3559C90.3327 47.6977 95.0292 75.3735 95.0292 75.3735C95.0292 75.3735 92.6809 48.0332 92.5132 46.3559C92.3455 44.6786 89.1586 15.8286 89.1586 15.8286Z" fill="#F3F0FF"/>
<path d="M117.505 78.7292L101.068 95.1669L93.3519 88.2899L93.8551 69.5039C93.8875 69.5075 93.9195 69.5142 93.9507 69.524C95.6079 69.9568 115.112 76.9043 117.306 78.5011C117.309 78.5027 117.505 78.7292 117.505 78.7292Z" fill="#FFC145"/>
<path d="M73.7574 59.6493L74.0425 59.6108L64.1866 61.7242C64.1866 61.7242 64.1866 61.7141 64.1866 61.7091C64.091 60.8939 64.0642 60.4159 64.1128 60.3337C64.7217 59.3189 76.0335 31.5475 78.7709 26.1297L79.316 25.229C79.0695 25.7959 63.8444 60.6205 65.3423 60.6205C66.6623 60.6205 72.3384 59.8523 73.7473 59.6577L73.7574 59.6493Z" fill="white"/>
<path d="M142.833 36.7952C142.833 36.7952 129.414 62.4583 128.743 62.7937C127.816 63.1024 117.54 65.4422 115.94 65.8129L115.868 65.8297L115.752 65.8548C116.271 65.7039 126.923 62.621 127.905 62.1295C128.886 61.6381 140.111 39.229 140.966 38.4944C140.156 38.9372 128.138 45.2925 127.133 45.8226C128.408 45.1013 142.665 36.3038 142.833 36.7952Z" fill="white"/>
<path d="M93.3519 88.2893C93.3519 88.2893 100.229 93.9921 101.068 93.8244C101.906 93.6567 117.505 78.7285 117.505 78.7285C117.505 78.7285 102.242 95.8372 101.571 95.8372C100.9 95.8372 93.3519 88.2893 93.3519 88.2893Z" fill="white"/>
<path d="M119.182 86.7806C119.182 86.7806 128.575 66.3173 129.079 66.3173C129.582 66.3173 135.62 73.1943 135.117 74.5362C134.614 75.878 128.911 114.456 128.911 114.456C128.911 114.456 138.472 75.0394 139.143 74.5362C139.814 74.033 146.355 69.6585 146.355 69.6585C146.355 69.6585 137.969 73.1943 137.298 73.1943C136.627 73.1943 128.743 62.7949 128.743 62.7949L119.182 86.7806Z" fill="#FCD079"/>
<path d="M116.834 81.4123C117.17 79.9245 109.509 87.2376 109.286 87.4506C109.35 87.3684 110.15 86.362 111.157 85.0772C112.906 82.8397 115.278 79.7601 115.487 79.2368C115.823 78.3981 94.1854 69.6458 93.8499 69.5083L93.9422 69.5268C95.5994 69.9595 115.103 76.907 117.297 78.5038L117.497 78.7319C117.497 79.2099 119.585 91.4963 121.774 104.246C119.832 96.1727 116.599 82.4723 116.834 81.4123Z" fill="#F3F0FF"/>
<path d="M150.716 91.8127C150.716 92.3008 152.29 105.538 152.394 106.365C152.276 105.516 150.344 91.6802 149.039 92.8191C147.707 93.9932 136.469 108.524 136.291 108.754L136.459 108.44C141.043 102.217 148.997 91.4554 149.517 90.9958L149.532 90.9841C150.035 90.6486 165.78 81.628 166.78 81.4233H166.809C166.809 81.4233 150.716 91.3095 150.716 91.8127Z" fill="#F3F0FF"/>
<path d="M78.3883 141.292C78.3375 142.247 78.2373 143.199 78.0881 144.143C77.0817 150.517 62.9922 151.523 59.1343 145.317C55.3268 139.192 59.3625 135.191 59.4698 135.086C59.4698 135.086 59.3021 128.041 65.8436 127.035C72.3852 126.028 77.5849 132.737 77.5849 132.737C77.5849 132.737 77.6201 132.855 77.6755 133.073C77.8957 133.974 78.0637 134.888 78.1787 135.809C78.4175 137.626 78.4877 139.461 78.3883 141.292Z" fill="#B248B5"/>
<path d="M60.867 132.347C60.867 132.347 61.8734 137.379 65.4528 140.173C69.0322 142.967 75.0689 142.298 75.0689 142.298C75.0689 142.298 64.1109 140.285 60.867 132.347Z" fill="#9D2BAA"/>
<path d="M73.2792 129.775C73.2792 129.775 75.1813 134.584 73.1686 137.603C71.1558 140.622 68.6951 141.181 68.6951 141.181C68.6951 141.181 73.8395 139.057 73.2792 129.775Z" fill="#9D2BAA"/>
<path d="M63.1046 136.596C63.1046 136.596 65.005 130.334 68.8075 130.334C72.61 130.334 73.7271 132.793 73.7271 132.793C73.7271 132.793 71.7143 130.334 68.1366 131.564C64.5589 132.793 63.1046 136.596 63.1046 136.596Z" fill="#9D2BAA"/>
<path d="M66.2345 138.832C66.2345 138.832 66.3469 135.142 69.2537 135.254C72.1605 135.366 72.0498 138.05 72.0498 138.05C72.0498 138.05 69.0306 134.919 66.2345 138.832Z" fill="#9D2BAA"/>
<g style="mix-blend-mode:multiply" opacity="0.29">
<path d="M78.3883 141.293C78.3375 142.248 78.2373 143.2 78.0881 144.145C77.0817 150.518 62.9922 151.525 59.1343 145.319C55.3268 139.193 59.3625 135.193 59.4698 135.087C59.4195 135.255 57.7925 140.995 61.4289 143.641C62.5253 144.441 63.8582 144.851 65.2146 144.804C64.9278 143.23 65.0469 141.27 65.9007 138.832C68.8209 130.461 75.8958 132.428 77.6771 133.079C77.9422 133.175 78.0898 133.247 78.0898 133.247L78.1854 135.82L78.3883 141.293Z" fill="#9D2BAA"/>
</g>
<path d="M161.283 144.48C161.283 144.48 161.116 146.996 158.096 148.17C155.077 149.344 155.245 148.17 155.245 148.17C155.245 148.17 146.187 148.841 144.678 143.641C143.168 138.441 146.858 134.583 146.858 134.583C146.858 134.583 146.89 134.501 146.959 134.359C147.542 133.174 148.391 132.141 149.44 131.34C150.409 130.607 151.535 130.11 152.729 129.887C157.09 129.048 164.638 130.893 165.309 136.932C165.98 142.97 161.283 144.48 161.283 144.48Z" fill="#B248B5"/>
<g style="mix-blend-mode:multiply" opacity="0.29">
<path d="M161.283 144.48C161.283 144.48 161.116 146.996 158.096 148.17C155.077 149.344 155.245 148.17 155.245 148.17C155.245 148.17 146.187 148.841 144.678 143.641C143.168 138.441 146.858 134.583 146.858 134.583C146.858 134.583 146.89 134.501 146.959 134.359L147.194 134.248C147.194 134.248 146.635 139.168 148.871 142.747C150.439 145.263 153.001 145.401 154.388 145.263L152.784 145.541C152.784 145.541 153.903 146.773 157.145 145.877C160.388 144.981 160.612 141.18 160.612 141.18L159.049 142.97C159.116 142.821 161.062 138.366 157.593 133.803C155.275 130.749 151.647 130.893 149.44 131.348C150.408 130.613 151.534 130.113 152.729 129.887C157.09 129.048 164.638 130.893 165.309 136.932C165.98 142.97 161.283 144.48 161.283 144.48Z" fill="#9D2BAA"/>
</g>
<path d="M142.833 144.648C140.485 145.822 139.143 144.48 139.143 144.48C139.143 144.48 138.304 151.692 127.066 152.531C115.828 153.37 110.125 146.996 110.125 146.996L111.43 133.948L111.97 128.545C111.97 128.545 120.692 117.978 136.123 122.339C143.385 124.391 145.817 129.19 146.114 133.819C146.449 139.03 144.076 144.025 142.833 144.648Z" fill="#AD32B7"/>
<g style="mix-blend-mode:multiply" opacity="0.29">
<path d="M142.833 144.648C140.485 145.822 139.143 144.48 139.143 144.48C139.143 144.48 138.304 151.693 127.066 152.531C115.828 153.37 110.125 146.996 110.125 146.996L111.43 133.948L111.858 132.571C111.858 132.571 119.35 124.632 129.637 131.677C139.847 138.668 135.521 148.519 135.453 148.673C135.535 148.598 138.136 146.157 138.582 142.86C138.931 140.24 138.052 136.868 137.652 135.518C138.096 136.788 139.362 139.606 141.712 139.17C144.2 138.71 145.626 136.654 146.112 133.821C146.449 139.031 144.076 144.026 142.833 144.648Z" fill="#9D2BAA"/>
</g>
<path d="M115.996 146.325C111.97 154.879 96.7065 159.073 88.9908 156.557C81.2751 154.041 80.6042 150.854 80.6042 150.854C80.6042 150.854 76.4109 150.35 75.7399 145.151C75.3206 141.907 75.9479 140.099 76.478 139.198C76.6322 138.912 76.8368 138.655 77.0818 138.441C77.0818 138.441 73.7272 132.403 78.2559 126.532C82.7847 120.662 88.8231 123.681 88.8231 123.681C88.8231 123.681 92.01 117.139 103.416 119.152C103.946 119.246 104.47 119.367 104.987 119.515C114.932 122.374 115.996 134.08 115.996 134.08C115.996 134.08 120.021 137.771 115.996 146.325Z" fill="#CC60D8"/>
<path d="M88.823 123.68C88.823 123.68 98.3284 124.967 103.025 129.438C107.721 133.91 99.2224 142.857 99.2224 142.857C99.2224 142.857 106.155 128.657 88.823 123.68Z" fill="#B248B5"/>
<path d="M77.4172 131.901C77.4172 131.901 77.9758 140.735 91.8422 143.084C105.709 145.432 115.66 134.585 115.66 134.585C115.66 134.585 105.373 143.865 90.5003 141.406C80.5136 139.754 77.4172 131.901 77.4172 131.901Z" fill="#B248B5"/>
<path d="M97.6574 127.315C97.6574 127.315 92.4007 125.638 87.4811 128.097C82.5615 130.556 83.5679 139.392 83.5679 139.392C83.5679 139.392 84.1265 126.98 97.6574 127.315Z" fill="#B248B5"/>
<path d="M90.5003 141.404C90.5003 141.404 94.749 139.167 95.6447 135.031C96.5404 130.894 89.2709 129.215 89.2709 129.215C89.2709 129.215 93.4071 130.893 93.4071 133.912C93.4071 136.931 90.5003 141.404 90.5003 141.404Z" fill="#B248B5"/>
<path d="M84.6851 134.135C84.6851 134.135 88.6 130.67 90.7235 133.689C92.847 136.708 90.5004 140.957 90.5004 140.957C90.5004 140.957 91.7299 130.781 84.6851 134.135Z" fill="#B248B5"/>
<g style="mix-blend-mode:multiply" opacity="0.35">
<path d="M115.996 146.324C111.97 154.879 96.7065 159.072 88.9908 156.556C81.2751 154.04 80.6042 150.853 80.6042 150.853C80.6042 150.853 76.4109 150.35 75.7399 145.15C75.3206 141.906 75.9479 140.098 76.478 139.198L77.0801 138.443C77.0801 138.443 74.7319 143.193 80.7702 147.333C83.4087 149.139 88.1504 148.339 88.1504 148.339L84.5727 150.464C84.5727 150.464 90.6111 156.278 103.134 150.016C115.657 143.755 114.654 136.373 114.654 136.373L115.66 138.496C115.66 138.496 114.587 124.799 104.987 119.514C114.932 122.374 115.996 134.08 115.996 134.08C115.996 134.08 120.021 137.77 115.996 146.324Z" fill="#5B287C"/>
</g>
<g style="mix-blend-mode:multiply" opacity="0.29">
<path d="M137.465 134.93C137.482 134.979 137.553 135.188 137.65 135.516C137.543 135.202 137.482 134.984 137.465 134.93Z" fill="#9D2BAA"/>
</g>
<path d="M121.028 124.07C121.028 124.07 117.286 130.858 121.251 139.056C124.605 145.988 139.143 144.478 139.143 144.478C139.143 144.478 116.108 143.64 121.028 124.07Z" fill="#5B287C"/>
<path d="M132.546 126.868C132.546 126.868 138.584 128.21 138.695 134.583C138.806 140.957 133.327 143.641 133.327 143.641C133.327 143.641 142.72 134.136 132.546 126.868Z" fill="#5B287C"/>
<path d="M122.705 138.273C122.705 138.273 124.27 131.452 130.533 131.229C136.796 131.006 138.136 134.471 138.136 134.471C138.136 134.471 131.091 128.209 122.705 138.273Z" fill="#5B287C"/>
<path d="M132.546 143.083C132.546 143.083 133.552 140.175 132.546 137.38C131.539 134.586 126.953 133.913 126.953 133.913C126.953 133.913 133.104 137.38 132.546 143.083Z" fill="#5B287C"/>
<path d="M126.172 141.74C126.172 141.74 126.172 139.167 128.408 138.721C129.701 138.443 131.052 138.641 132.21 139.279C132.21 139.279 127.066 139.279 126.172 141.74Z" fill="#5B287C"/>
<g style="mix-blend-mode:multiply" opacity="0.29">
<path d="M155.349 145.097C155.034 145.179 154.712 145.235 154.388 145.264L155.349 145.097Z" fill="#9D2BAA"/>
</g>
<path d="M152.338 134.248C152.338 134.248 147.865 135.812 148.648 140.063C149.431 144.313 154.239 143.976 154.239 143.976C154.239 143.976 147.529 140.509 152.338 134.248Z" fill="#9D2BAA"/>
<path d="M156.364 135.925C156.364 135.925 158.935 137.38 159.158 140.063C159.381 142.747 157.035 143.306 157.035 143.306C157.035 143.306 159.606 138.721 156.364 135.925Z" fill="#9D2BAA"/>
<path d="M149.655 140.622C150.073 140.089 150.623 139.675 151.251 139.42C151.878 139.165 152.561 139.078 153.232 139.167C155.245 139.392 155.468 141.292 155.468 141.292C155.468 141.292 152.338 138.721 149.655 140.622Z" fill="#9D2BAA"/>
<g style="mix-blend-mode:screen" opacity="0.35">
<path d="M71.9851 263.244C83.9499 251.279 83.9499 231.88 71.9851 219.916C60.0204 207.951 40.6217 207.951 28.657 219.916C16.6923 231.88 16.6923 251.279 28.657 263.244C40.6217 275.208 60.0204 275.208 71.9851 263.244Z" fill="#EADCF4"/>
</g>
<path d="M105.135 369.633C100.171 371.76 91.009 370.387 90.7739 370.351C90.8852 370.414 93.3535 371.848 91.2478 374.659C89.0937 377.531 74.4938 380.404 71.3828 376.334C68.7493 372.891 73.3108 371.846 74.7792 371.608C72.9985 371.848 66.0889 372.744 61.33 372.744C57.2461 372.744 51.8428 371.69 49.3278 371.146C50.0566 371.412 50.798 371.893 50.798 372.744C50.798 374.419 46.7284 377.052 42.4201 376.573C38.1118 376.094 35.9576 373.701 35.9576 373.701C35.9576 373.701 32.3673 374.898 24.948 376.095C17.5287 377.293 -1.14072 377.052 0.0548449 373.223C1.25041 369.394 21.119 363.17 22.7938 360.537C24.2533 358.243 25.1688 326.885 25.3806 318.843C25.4111 317.653 25.4273 316.974 25.4273 316.974L26.8634 294.955L38.5946 280.115H78.0877L80.4806 288.013L80.2418 352.638C80.3334 353.63 80.5599 354.604 80.915 355.534C81.5064 357.187 82.5105 358.662 83.8321 359.819C87.1836 362.691 92.21 364.127 95.5598 364.366C98.9095 364.605 110.161 367.479 105.135 369.633Z" fill="#EADCF4"/>
<path d="M51.9989 265.274C51.9989 265.274 51.7583 268.387 48.6474 266.71C45.5364 265.034 38.3558 258.334 42.1849 251.631C46.0139 244.928 47.2113 243.494 46.732 239.904C46.2527 236.313 45.7751 235.356 45.7751 235.356C45.7751 235.356 50.3222 238.706 52.4764 243.255C54.6306 247.804 54.153 250.436 54.153 250.436C54.153 250.436 56.546 249.718 55.5891 246.366C54.6323 243.015 53.6737 243.973 53.6737 243.973C53.6737 243.973 61.3336 242.296 62.0516 250.674C62.7697 259.052 56.0667 268.387 51.9989 265.274Z" fill="#EA801F"/>
<path d="M51.9989 265.274C51.9989 265.274 55.828 264.079 57.5028 260.009C59.1777 255.94 57.0253 251.154 57.0253 251.154C57.0253 251.154 57.264 253.786 56.3072 255.462L55.3487 257.137C55.3487 257.137 54.1531 252.59 51.7584 250.436C49.3637 248.282 49.1267 244.691 49.1267 244.691C49.1267 244.691 43.621 251.631 44.3391 258.094C45.0571 264.556 51.9989 265.274 51.9989 265.274Z" fill="#BA5102"/>
<path d="M51.9989 265.275C51.9989 265.275 48.168 264.079 48.4086 260.248C48.6491 256.418 49.6042 251.632 49.6042 251.632C49.6042 251.632 52.2376 254.504 53.1944 258.094C54.1512 261.685 51.9989 265.275 51.9989 265.275Z" fill="#EADCF4"/>
<path d="M64.4447 324.456C64.4447 324.456 62.111 337.92 67.3169 338.099C72.5228 338.279 71.2662 323.738 68.394 321.404C65.5217 319.071 64.4447 324.456 64.4447 324.456Z" fill="#2B4858"/>
<path d="M105.135 369.634C100.171 371.761 91.009 370.388 90.7739 370.352C90.8852 370.415 93.3535 371.849 91.2478 374.66C89.0937 377.533 74.4938 380.405 71.3828 376.335C68.7493 372.892 73.3108 371.847 74.7792 371.609C72.9985 371.849 66.0889 372.745 61.33 372.745C57.2461 372.745 51.8428 371.691 49.3278 371.147C50.0566 371.413 50.798 371.894 50.798 372.745C50.798 374.42 46.7284 377.053 42.4201 376.574C38.1118 376.095 35.9576 373.702 35.9576 373.702C35.9576 373.702 32.3673 374.899 24.948 376.096C17.5287 377.294 -1.14072 377.053 0.0548449 373.224C1.25041 369.395 21.119 363.171 22.7938 360.538C24.2533 358.244 25.1688 326.886 25.3806 318.844L25.6697 318.532C25.6697 318.532 22.6179 341.869 37.8766 353.537C52.9324 365.051 65.7174 362.407 66.0602 362.333C65.8807 362.4 62.7338 363.651 65.5217 365.923C68.3939 368.257 75.0359 369.514 80.0623 367.359C85.0887 365.205 80.2418 360.897 80.2418 360.897C80.2418 360.897 82.396 361.256 81.6779 358.563C81.4105 357.563 81.1394 356.49 80.915 355.535C81.5064 357.188 82.5105 358.663 83.8321 359.82C87.1836 362.692 92.21 364.128 95.5598 364.367C98.9095 364.606 110.161 367.48 105.135 369.634Z" fill="#CBBCD8"/>
<path d="M23.0362 285.142C23.0362 285.142 19.4459 283.227 23.9947 279.877C28.5436 276.527 55.5892 273.174 72.1044 275.328C88.6197 277.482 83.5933 282.749 83.5933 282.749C83.5933 282.749 83.3528 292.084 80.2418 291.605C77.1308 291.125 76.8903 285.381 76.8903 285.381C76.8903 285.381 77.3696 317.934 67.3168 315.78C57.264 313.626 58.7001 283.227 58.7001 283.227C56.8508 283.893 54.9171 284.296 52.9557 284.424C49.6042 284.663 45.7752 283.945 45.7752 283.945C45.7752 283.945 47.6906 300.701 41.2281 302.376C34.7656 304.05 34.0475 297.11 34.0475 297.11C34.0475 297.11 32.6114 298.067 31.6528 298.067H30.696C30.696 298.067 31.414 327.746 24.7128 322.481C18.0116 317.216 24.2335 295.913 24.2335 295.913C24.2335 295.913 22.3181 293.52 22.3181 290.407C22.3181 287.295 23.0362 285.142 23.0362 285.142Z" fill="#2B4858"/>
<path d="M89.5034 350.053C93.4292 346.127 93.4292 339.762 89.5034 335.836C85.5775 331.911 79.2125 331.911 75.2866 335.836C71.3608 339.762 71.3608 346.127 75.2866 350.053C79.2125 353.979 85.5775 353.979 89.5034 350.053Z" fill="#FFFEF5"/>
<path d="M41.4668 330.738C45.2343 330.738 48.2884 327.684 48.2884 323.916C48.2884 320.149 45.2343 317.095 41.4668 317.095C37.6994 317.095 34.6453 320.149 34.6453 323.916C34.6453 327.684 37.6994 330.738 41.4668 330.738Z" fill="#FFFEF5"/>
<path d="M24.9517 280.833C22.1494 282.49 27.8239 284.424 27.8239 284.424C27.8239 284.424 25.4309 290.407 28.3032 293.758C31.1754 297.11 34.5251 289.45 34.5251 287.057C34.5251 284.664 34.0476 283.944 34.0476 283.944L37.8766 284.424C37.8766 284.424 37.6379 290.647 40.7489 291.604C43.8598 292.561 42.185 282.031 42.185 282.031C45.5389 282.953 48.9983 283.436 52.4765 283.467C57.9822 283.467 61.0932 281.551 61.0932 281.551C61.0932 281.551 60.6157 302.136 68.753 303.811C76.8904 305.486 75.4543 281.551 75.4543 281.551H77.6084C77.6084 281.551 76.6516 285.621 79.2851 285.86C81.9185 286.099 83.0818 279.263 78.567 277.004C76.1723 275.807 35.4837 274.61 24.9517 280.833Z" fill="#2B4858"/>
<path d="M51.9989 278.021C51.9989 278.021 48.9472 269.763 51.6399 268.686C54.3326 267.609 53.794 276.405 53.2555 278.021C52.717 279.637 51.9989 278.021 51.9989 278.021Z" fill="#932121"/>
<g style="mix-blend-mode:screen" opacity="0.21">
<path d="M67.1897 260.6C75.9759 251.814 75.9759 237.569 67.1897 228.783C58.4035 219.996 44.1582 219.996 35.372 228.783C26.5859 237.569 26.5859 251.814 35.372 260.6C44.1582 269.386 58.4035 269.386 67.1897 260.6Z" fill="#EADCF4"/>
</g>
<path d="M294.461 135.068C286.024 137.193 278.685 136.872 273.133 135.371C267.426 133.827 263.601 131.036 262.389 128.37C259.994 123.103 265.261 117.838 265.261 117.838H303.557C303.557 117.838 313.312 130.321 294.461 135.068Z" fill="#2B4858"/>
<path d="M294.461 135.068C286.024 137.193 278.685 136.872 273.133 135.371C276.764 135.371 281.211 134.723 284.887 132.196C292.547 126.93 279.622 121.664 279.622 121.664L300.162 117.834H303.557C303.557 117.834 313.312 130.321 294.461 135.068Z" fill="#2B4858"/>
<path d="M269.09 133.633C269.09 133.633 262.269 129.683 255.806 132.197C249.344 134.71 247.19 146.199 247.19 146.199C247.19 146.199 251.498 150.866 246.472 153.379C241.445 155.892 230.315 156.251 229.238 152.302C229.005 151.446 229.565 150.687 230.586 150.031C233.258 148.312 239.086 147.26 242.088 146.811C243.226 146.64 243.958 146.558 243.958 146.558L243.975 146.41C244.107 145.278 245.21 137.794 251.498 131.838C253.312 130.095 255.67 129.03 258.176 128.822C263.326 128.342 268.013 131.119 268.013 131.119L269.09 133.633Z" fill="#2B4858"/>
<path d="M299.914 131.119C299.914 131.119 309.608 125.375 316.43 131.837C323.251 138.3 323.969 146.557 323.969 146.557C323.969 146.557 339.767 148.352 338.689 152.302C337.612 156.251 326.483 155.892 321.456 153.379C316.43 150.866 320.738 146.198 320.738 146.198C320.738 146.198 318.584 134.709 312.121 132.196C305.659 129.683 298.837 133.632 298.837 133.632L299.914 131.119Z" fill="#2B4858"/>
<path d="M281.656 135.068C281.656 135.068 282.015 151.225 282.015 152.661C282.015 154.097 274.835 156.61 275.912 159.123C276.989 161.636 289.196 161.995 291.709 160.2C294.222 158.405 286.324 154.097 286.324 154.097C286.324 154.097 283.81 140.574 283.451 136.984C283.092 133.394 281.656 135.068 281.656 135.068Z" fill="#2B4858"/>
<path d="M244.434 150.388C244.278 150.501 238.379 154.674 232.945 153.26C230.698 152.675 230.285 151.37 230.583 150.029C233.254 148.309 239.083 147.257 242.084 146.808C246.547 148.253 240.365 151.581 240.365 151.581L244.434 150.388Z" fill="#2B4858"/>
<path d="M258.176 128.821C256.104 129.462 252.683 130.9 250.182 133.871C246.351 138.419 243.958 146.557 243.958 146.557L243.974 146.41C244.107 145.277 245.209 137.793 251.498 131.837C253.311 130.094 255.67 129.029 258.176 128.821Z" fill="#5D38A5"/>
<path d="M281.777 155.413C281.777 155.413 275.792 157.807 278.425 159.243C281.058 160.68 290.153 160.68 289.675 158.764C289.198 156.849 284.408 155.653 284.408 155.653C284.408 155.653 287.998 157.567 285.606 158.046C283.213 158.525 279.382 155.892 281.777 155.413Z" fill="#2B4858"/>
<path d="M282.015 152.66L281.776 136.983C281.776 136.983 283.451 148.472 282.015 152.66Z" fill="#2B4858"/>
<path d="M344.247 62.3056C344.25 66.9143 343.743 71.5092 342.734 76.0061C341.238 82.6619 338.651 89.0243 335.078 94.8353C324.127 112.654 304.462 124.536 282.015 124.536C269.697 124.543 257.653 120.896 247.407 114.057C237.162 107.217 229.175 97.4926 224.458 86.113C219.741 74.7335 218.505 62.2104 220.906 50.1282C223.308 38.046 229.239 26.9477 237.95 18.2372C246.661 9.52682 257.759 3.59579 269.841 1.19452C281.924 -1.20675 294.447 0.0296418 305.826 4.74728C317.206 9.46492 326.93 17.4518 333.769 27.6974C340.608 37.9431 344.255 49.9871 344.247 62.3056Z" fill="#3ED9F2"/>
<path d="M341.614 24.1289C345.381 24.1289 348.435 21.0748 348.435 17.3074C348.435 13.5399 345.381 10.4858 341.614 10.4858C337.846 10.4858 334.792 13.5399 334.792 17.3074C334.792 21.0748 337.846 24.1289 341.614 24.1289Z" fill="#FFFEF5"/>
<g style="mix-blend-mode:multiply" opacity="0.54">
<path d="M283.929 121.663C315.654 121.663 341.373 95.9445 341.373 64.2188C341.373 32.4931 315.654 6.77441 283.929 6.77441C252.203 6.77441 226.484 32.4931 226.484 64.2188C226.484 95.9445 252.203 121.663 283.929 121.663Z" fill="#3ED9F2"/>
</g>
<path d="M344.247 62.3048C344.267 73.7886 341.092 85.0515 335.078 94.8345L311.694 93.8992L314.089 65.6545C314.089 65.6545 306.908 57.0378 311.217 49.8573C315.471 42.7665 323.926 45.0104 324.142 45.0697C323.905 44.8399 313.629 34.8877 315.049 23.528C315.665 18.6111 318.999 16.2362 322.609 15.1304C329.405 20.9669 334.858 28.2051 338.594 36.3481C342.329 44.4911 344.257 53.346 344.247 62.3048Z" fill="#77A6E8"/>
<path opacity="0.43" d="M293.504 64.2198L275.792 88.1562L229.777 96.1284C223.743 86.7976 220.315 76.023 219.847 64.9214C219.38 53.8198 221.889 42.7951 227.116 32.9898C230.701 32.2014 234.417 32.2407 237.984 33.1047C249.951 35.9769 252.823 54.6463 252.823 54.6463C252.823 54.6463 255.695 49.8587 259.526 51.2948C263.357 52.7309 263.346 58.9547 263.346 58.9547C263.346 58.9547 270.526 50.8173 280.1 52.7309C289.673 54.6445 293.504 64.2198 293.504 64.2198Z" fill="#8CB1F4"/>
<path opacity="0.72" d="M245.156 33.1042C245.156 33.1042 248.028 23.5307 253.293 19.6999C258.558 15.869 282.495 13.9554 295.42 16.3501C308.345 18.7449 327.971 52.2529 328.45 57.0387C328.929 61.8246 332.758 96.7723 292.068 102.517C251.378 108.261 241.325 76.1875 240.368 66.614C239.411 57.0405 256.165 40.764 259.994 39.3279C263.823 37.8918 295.897 39.8054 299.249 41.2415C302.6 42.6776 313.13 65.6554 312.174 69.9637C311.217 74.272 293.983 89.1124 282.495 88.6331C271.006 88.1538 254.25 67.0915 254.25 62.7832C254.25 58.4748 265.261 48.4221 270.526 47.9446C275.792 47.4671 289.196 54.6458 289.675 58.4748C290.154 62.3039 283.931 73.7945 282.972 72.3584C282.013 70.9223 282.015 58.9541 282.015 58.9541C282.015 58.9541 273.878 52.7304 271.962 54.1665C270.047 55.6026 264.303 61.8264 265.261 64.2193C266.22 66.6122 281.058 80.9751 285.367 80.4958C289.675 80.0165 301.164 68.0501 301.642 66.1347C302.119 64.2193 292.547 48.4221 288.717 46.5085C284.886 44.5948 267.175 45.0723 262.389 47.4653C257.603 49.8582 246.592 63.7418 248.028 69.0069C249.464 74.272 269.09 93.9001 277.228 95.8137C285.365 97.7273 311.217 88.6332 315.046 85.2816C318.875 81.9301 325.099 61.8264 321.27 54.6458C317.44 47.4653 297.812 24.4875 290.632 23.0514C283.451 21.6153 265.261 21.136 262.389 22.0946C259.517 23.0532 245.156 33.1042 245.156 33.1042Z" fill="#2B4858"/>
<path opacity="0.49" d="M339.639 85.8452C330.356 108.543 308.054 124.536 282.015 124.536C257.637 124.536 236.532 110.519 226.321 90.1032C227.206 84.4037 229.875 76.9179 237.496 72.8358C250.9 65.6552 261.43 76.1873 261.43 76.1873C261.43 76.1873 261.91 70.9222 267.175 70.4429C272.44 69.9636 273.878 71.879 273.878 71.879C273.878 71.879 286.803 49.858 308.822 57.9972C330.841 66.1363 318.397 87.1969 318.397 87.1969C318.397 87.1969 326.055 78.5802 334.672 80.0163C337.578 80.4956 339.014 82.8904 339.639 85.8452Z" fill="#AEC7FF"/>
<path d="M233.188 52.2523C231.751 44.5925 225.528 45.0718 224.571 60.869C223.614 76.6662 237.496 101.558 242.284 102.037C247.071 102.516 242.802 92.6286 241.804 88.6326C238.453 75.2301 234.624 59.9104 233.188 52.2523Z" fill="white"/>
<g style="mix-blend-mode:multiply" opacity="0.84">
<path d="M342.734 76.0073C341.238 82.6631 338.651 89.0255 335.078 94.8365C324.127 112.655 304.462 124.537 282.015 124.537C272.292 124.551 262.702 122.275 254.022 117.895C247.739 106.428 237.979 79.8687 267.175 59.431C305.472 32.6224 330.364 77.6211 330.364 77.6211C330.364 77.6211 329.407 66.1323 322.705 55.6002C316.004 45.0681 299.248 41.2391 299.248 41.2391C299.248 41.2391 322.705 38.3669 334.194 55.6002C338.662 62.305 341.51 68.2882 342.734 76.0073Z" fill="#3AC7D6"/>
</g>
<path d="M248.505 108.261C248.505 108.261 254.729 115.441 260.474 115.919C266.218 116.396 260.474 108.738 256.645 107.781C252.816 106.825 248.505 103.952 246.592 104.909C244.678 105.866 248.505 108.261 248.505 108.261Z" fill="white"/>
<g style="mix-blend-mode:screen" opacity="0.49">
<path d="M214.997 61.8267C214.997 61.8267 204.945 69.964 205.901 77.1446C206.858 84.3251 213.082 84.8045 213.082 84.8045C213.082 84.8045 205.901 77.1446 211.646 79.5393C217.39 81.934 226.486 98.6862 221.219 98.6862C215.952 98.6862 213.561 96.2933 213.561 96.2933C213.561 96.2933 217.39 106.825 227.922 107.782C238.454 108.739 249.942 102.517 249.942 102.517C249.942 102.517 257.601 118.314 296.856 112.57C336.11 106.825 343.768 91.0282 343.768 91.0282C343.768 91.0282 337.544 95.814 332.279 94.3779C327.014 92.9418 346.161 68.0504 352.864 67.0918C359.567 66.1332 355.257 78.5807 355.257 78.5807C355.257 78.5807 365.31 68.0504 362.437 56.5616C359.565 45.0727 349.992 37.4128 349.992 37.4128C349.992 37.4128 357.65 34.0613 367.225 44.1141C376.8 54.1668 371.054 59.4338 371.054 59.4338C371.054 59.4338 392.116 77.1446 366.266 102.038C340.416 126.931 285.367 119.75 280.1 118.792C274.833 117.833 256.645 127.888 221.219 114.006C185.794 100.124 203.509 65.6557 214.997 61.8267Z" fill="#EADCF4"/>
</g>
<path d="M340.515 41.0347C335.376 30.9083 325.396 17.8128 306.429 9.64672C290.061 2.60081 275.529 1.59912 264.782 2.49131C279.94 -1.86548 296.186 -0.310191 310.242 6.84331C324.299 13.9968 335.118 26.2159 340.517 41.0347H340.515Z" fill="#96E9ED"/>
</svg>
