<svg width="130" height="142" viewBox="0 0 130 142" fill="none" xmlns="http://www.w3.org/2000/svg">
<path d="M109.982 73.2616C110.186 70.3366 110.388 67.409 110.59 64.4789C113.223 61.9692 115.903 59.4323 118.629 56.8685C119.055 54.2633 119.483 51.6581 119.914 49.053C120.08 48.9524 62.7411 48.2792 53.5753 47.4125C50.9792 42.3247 44.9048 41.4155 42.3551 43.3964C39.0393 45.8378 11.9327 70.4566 4.4384 79.336C-3.0985 87.8479 6.164 105.916 10.5167 109.724C13.8247 112.904 19.7134 112.045 19.7289 112.045C39.1567 118.916 57.4083 126.333 74.4837 134.296C86.4003 117.446 100.515 99.6756 116.854 80.6515C116.923 78.1315 116.989 75.6127 117.051 73.0952L109.982 73.2616Z" fill="url(#paint0_linear_285_6012)"/>
<g style="mix-blend-mode:soft-light" opacity="0.57">
<path d="M84.6406 50.3689C80.0635 51.3478 85.2248 74.4576 87.3799 75.2043C89.5349 75.9511 111.368 54.0329 111.875 52.2918C112.382 50.5508 85.7046 50.1445 84.6406 50.3689Z" fill="#A33DD4"/>
</g>
<g style="mix-blend-mode:soft-light" opacity="0.57">
<path d="M54.2028 49.2548C52.8602 50.8256 26.9917 81.4491 26.3843 83.1515C25.7769 84.8539 68.8239 91.8143 71.7102 90.8199C74.5965 89.8256 107.472 53.8202 107.638 53.0542C107.805 52.2881 55.0656 48.2333 54.2028 49.2548Z" fill="#6952DE"/>
</g>
<path style="mix-blend-mode:multiply" opacity="0.5" d="M2.78644 81.8329C7.59954 75.7392 15.4963 80.6181 16.5138 85.76C27.3472 73.7389 39.2638 61.0678 53.1498 47.499C51.3623 42.0243 44.4793 41.502 41.9296 43.4829C38.6138 45.9243 11.5034 70.5431 4.01293 79.4225C2.94894 80.6181 2.28346 83.1987 2.29507 83.2026C2.43099 82.7365 2.59508 82.2791 2.78644 81.8329Z" fill="url(#paint1_linear_285_6012)"/>
<g style="mix-blend-mode:soft-light" opacity="0.57">
<path d="M9.72754 78.4161C12.049 78.2498 15.2061 82.912 15.7594 82.7147C16.3127 82.5173 51.5674 45.9819 50.8207 45.2081C50.074 44.4343 47.4198 43.0492 47.0871 43.1885C46.7543 43.3278 46.4293 44.6548 43.1058 48.195C39.7823 51.7352 19.6362 69.0414 18.3633 70.4614C17.0903 71.8813 9.72754 78.4161 9.72754 78.4161Z" fill="#A33DD4"/>
</g>
<path style="mix-blend-mode:multiply" opacity="0.9" d="M118.63 56.9161C119.056 54.3161 119.484 51.7109 119.914 49.1006C98.9133 69.2196 86.5439 81.7128 73.0061 96.2295C67.1871 95.0146 61.3035 93.8332 55.3555 92.6854C56.9264 90.8515 54.0865 91.6485 53.1463 92.2598L49.9002 91.6408L52.8832 88.5455L46.5728 91.0295C36.7145 89.1929 26.6936 87.4403 16.5103 85.7714C15.4927 80.6178 7.5341 76.0021 2.72488 82.0958C-1.2409 91.3815 6.29988 106.753 10.521 109.771C15.3689 113.064 19.7177 112.093 19.7332 112.093C39.161 118.961 57.4126 126.377 74.488 134.34C86.4046 117.49 100.519 99.7193 116.858 80.6952C116.899 79.1296 116.94 77.5639 116.982 75.9982C116.425 75.4643 115.821 75.0193 115.434 75.1393C114.606 75.414 73.424 126.176 72.8746 127.004C72.3252 127.832 33.8281 113.048 34.1841 112.394C34.7915 111.234 37.0627 110.344 37.0627 110.344L60.4627 118.179L73.0409 122.38L109.994 73.2976L110.598 64.511C113.226 62.0142 115.904 59.4825 118.63 56.9161Z" fill="url(#paint2_linear_285_6012)"/>
<g style="mix-blend-mode:soft-light" opacity="0.57">
<path d="M97.2071 103.851C97.5476 101.649 97.9151 99.2658 98.2169 97.25L73.041 128.202C73.041 128.202 74.1553 131.986 73.9116 132.756L97.2071 103.851Z" fill="#A33DD4"/>
<path d="M115.063 76.5352L100.805 94.0658C100.515 96.0622 100.171 98.4146 99.8535 100.562C108.365 90.011 115.686 80.9072 115.779 80.7872C115.999 80.4971 115.063 76.5352 115.063 76.5352Z" fill="#A33DD4"/>
</g>
<path d="M68.0726 95.0064C73.4893 96.3799 118.641 49.5992 118.486 49.0111C118.963 48.9829 119.44 48.9972 119.914 49.0537L119.546 51.3248C119.546 51.3248 75.3271 93.2111 74.7931 94.9793C72.7696 97.2078 73.3152 99.6724 73.0404 100.028C73.0404 100.028 71.9803 96.1593 69.7788 95.6293C67.972 95.4203 67.6973 95.1727 68.0726 95.0064Z" fill="url(#paint3_linear_285_6012)"/>
<path d="M74.4842 134.454C74.4626 134.46 74.4399 134.46 74.4184 134.454C57.2011 126.453 38.7922 118.978 19.7023 112.219C18.9014 112.324 13.5119 112.827 10.4166 109.847C7.20531 107.042 1.99757 97.4084 1.47525 89.295C1.20829 85.0738 2.16781 81.6923 4.33061 79.2354C11.8598 70.3018 38.8541 45.7837 42.2473 43.2765C43.4815 42.3209 45.4392 42.0229 47.486 42.4795C48.8046 42.7795 50.0419 43.364 51.1112 44.192C52.1804 45.02 53.0559 46.0716 53.6764 47.2732C60.5053 47.8923 92.2122 48.4146 109.279 48.6971L116.986 48.8286C120.027 48.8828 120.027 48.8828 120.062 49.0182C120.067 49.0384 120.067 49.0599 120.062 49.0801C119.633 51.6878 119.206 54.293 118.781 56.8956C118.774 56.9291 118.758 56.96 118.734 56.9845C116.026 59.5265 113.318 62.0723 110.737 64.5524C110.544 67.4052 110.346 70.2567 110.145 73.1069L117.044 72.9482C117.065 72.9467 117.087 72.9501 117.107 72.9581C117.127 72.9662 117.145 72.9787 117.16 72.9947C117.188 73.0253 117.203 73.0654 117.202 73.1069C117.14 75.6269 117.075 78.1457 117.005 80.6631C117.004 80.6989 116.99 80.7332 116.966 80.7598C100.086 100.415 86.2306 117.961 74.608 134.373C74.5961 134.396 74.5784 134.416 74.5567 134.43C74.535 134.444 74.5101 134.453 74.4842 134.454ZM19.7488 111.894H19.8029C38.8657 118.638 57.2514 126.105 74.4494 134.099C86.0565 117.702 99.8806 100.194 116.719 80.5857C116.788 78.1405 116.853 75.6901 116.912 73.2345L110.006 73.397C109.963 73.3952 109.923 73.3772 109.894 73.3468C109.879 73.3317 109.867 73.3135 109.86 73.2934C109.852 73.2734 109.849 73.252 109.851 73.2307C110.052 70.3031 110.255 67.3742 110.459 64.4441C110.459 64.4251 110.464 64.4064 110.472 64.3891C110.48 64.3718 110.491 64.3563 110.505 64.3435C113.105 61.8634 115.798 59.3137 118.506 56.7679C118.919 54.2375 119.334 51.7059 119.752 49.1729C118.909 49.1381 114.796 49.0723 109.306 48.9795C92.1657 48.697 60.2577 48.1709 53.5913 47.5441C53.5652 47.5416 53.5401 47.5324 53.5184 47.5176C53.4967 47.5027 53.4792 47.4825 53.4675 47.459C52.8739 46.2799 52.0265 45.2468 50.9863 44.434C49.9461 43.6213 48.7388 43.0489 47.4511 42.7581C45.5166 42.3247 43.6169 42.6072 42.4678 43.497C39.063 46.0042 12.1113 70.4837 4.58984 79.4134C2.47734 81.7929 1.5449 85.097 1.80799 89.2369C2.32257 97.2729 7.47228 106.806 10.6488 109.584C13.8988 112.703 19.6095 111.906 19.7294 111.875L19.7488 111.894Z" fill="#622483"/>
<path style="mix-blend-mode:multiply" opacity="0.9" d="M26.3799 57.4021C28.3995 55.3864 30.6358 54.7828 33.6382 55.3902C35.0796 55.688 36.3958 56.4183 37.4113 57.4835C38.4269 58.5488 39.0933 59.8985 39.3218 61.3524C43.0942 62.5519 49.9385 64.0608 51.2656 63.6739C52.5927 63.287 59.5995 58.8763 59.5995 58.8763C59.5995 58.8763 33.4796 42.9164 26.3799 57.4021Z" fill="url(#paint4_linear_285_6012)"/>
<path style="mix-blend-mode:multiply" opacity="0.9" d="M8.60938 74.4342C12.6603 70.9521 18.3903 72.3062 20.1314 73.7571C21.8725 75.208 23.0487 78.7172 23.0487 78.7172C23.0487 78.7172 32.2531 83.1628 33.7466 82.714C35.24 82.2652 43.1058 76.9878 43.1058 76.9878L14.0376 69.0137L8.60938 74.4342Z" fill="url(#paint5_linear_285_6012)"/>
<path d="M112.668 62.5527C109.719 68.0932 111.932 72.1905 113.093 73.4635C109.538 77.3325 98.0426 89.4658 89.1902 100.779C80.1482 112.185 73.1646 122.105 73.0408 122.395C64.9661 119.153 17.6554 103.421 17.0402 103.719C17.0827 103.719 12.0375 98.1248 14.3319 90.7349C35.7161 95.9349 73.2691 103.89 73.1143 103.948C84.9768 91.3384 97.9768 77.4021 112.668 62.5527Z" fill="url(#paint6_linear_285_6012)"/>
<path style="mix-blend-mode:multiply" d="M61.2012 107.763C61.2012 107.763 59.4446 115.431 60.3035 117.822C60.4467 118.232 54.0898 115.71 54.0898 115.71L61.2012 107.763Z" fill="url(#paint7_linear_285_6012)"/>
<path style="mix-blend-mode:multiply" d="M73.3466 103.948C73.4975 103.874 35.9445 95.9349 14.5603 90.7349C13.594 93.8642 13.8074 97.2391 15.16 100.222C14.2005 97.1768 16.1621 95.6834 19.4972 95.7956C22.8324 95.9078 60.4279 101.773 70.3752 110.351C81.3826 96.8867 106.121 71.587 111.747 70.4611C111.198 68.4917 111.17 65.764 112.881 62.5527C98.1898 77.4021 85.1898 91.3384 73.3466 103.948Z" fill="url(#paint8_linear_285_6012)"/>
<g style="mix-blend-mode:multiply" opacity="0.59">
<path d="M91.9834 89.3455C93.2292 87.4923 106.972 73.2387 108.233 72.5307C109.495 71.8226 102.852 80.0134 101.853 80.6827C100.855 81.3521 91.9834 89.3455 91.9834 89.3455Z" fill="#C730C7"/>
</g>
<path d="M73.0373 122.546C73.0194 122.55 73.001 122.55 72.9831 122.546C64.2894 119.064 18.3908 103.897 17.0792 103.878C17.0558 103.883 17.0314 103.883 17.008 103.878C16.9845 103.873 16.9626 103.862 16.9438 103.847C16.9288 103.832 16.9158 103.815 16.9051 103.797L16.8432 103.719C15.4039 101.874 12.2584 96.9135 14.2007 90.696C14.2123 90.6589 14.2375 90.6276 14.2712 90.6083C14.3049 90.5889 14.3446 90.5829 14.3825 90.5915C29.2126 94.1975 51.9935 99.1576 64.2313 101.812C70.6888 103.22 72.5304 103.622 73.0644 103.789L76.7322 99.885C87.3489 88.5719 99.3855 75.7537 112.56 62.4403C112.585 62.4135 112.62 62.3968 112.657 62.3933C112.694 62.3897 112.73 62.3996 112.761 62.421C112.791 62.4428 112.812 62.4751 112.82 62.5115C112.828 62.5479 112.822 62.586 112.803 62.6183C109.383 69.0487 113.051 73.1808 113.21 73.3549C113.236 73.3835 113.25 73.4207 113.25 73.4594C113.25 73.4981 113.236 73.5353 113.21 73.5639L111.496 75.4133C106.802 80.4701 97.037 90.9939 89.3144 100.872C80.2105 112.351 73.3352 122.151 73.1843 122.453C73.1707 122.481 73.1498 122.504 73.1239 122.52C73.0979 122.537 73.068 122.546 73.0373 122.546ZM17.1373 103.588C20.3022 104.048 65.926 119.412 72.9792 122.206C73.7917 120.944 80.609 111.372 89.0706 100.686C96.8087 90.8005 106.574 80.2728 111.267 75.2121C111.906 74.5234 112.451 73.9392 112.885 73.4633C111.499 71.8576 109.96 68.1046 112.111 63.338C99.1998 76.4115 87.3953 88.9859 76.9566 100.094L73.2462 104.048C73.2256 104.071 73.1987 104.086 73.169 104.093C73.1393 104.1 73.1082 104.098 73.0798 104.087C72.7974 103.998 69.1721 103.208 64.181 102.121C51.9781 99.4671 29.3016 94.5264 14.4676 90.9243C12.6608 96.9368 15.7019 101.731 17.1025 103.522C17.1063 103.545 17.1257 103.564 17.1373 103.584V103.588Z" fill="#622483"/>
<path style="mix-blend-mode:multiply" d="M37.7051 105.217C37.2369 106.424 37.0705 110.351 37.0705 110.351L31 108.029C31 108.029 34.5711 104.783 37.7051 105.217Z" fill="url(#paint9_linear_285_6012)"/>
<path d="M21.9576 100.567C20.0231 100.389 18.3633 100.223 18.3633 100.223L21.6288 101.167L21.9576 100.567Z" fill="#622483"/>
<path d="M21.629 101.321H21.5865L18.3171 100.381C18.2804 100.369 18.2492 100.345 18.2296 100.312C18.21 100.279 18.2034 100.239 18.2112 100.202C18.2189 100.164 18.2404 100.131 18.2714 100.108C18.3024 100.085 18.3408 100.075 18.379 100.079C18.379 100.079 20.0389 100.241 21.9734 100.419C21.9992 100.422 22.024 100.43 22.0456 100.444C22.0673 100.459 22.085 100.478 22.0972 100.501C22.1097 100.523 22.1163 100.548 22.1163 100.574C22.1163 100.6 22.1097 100.625 22.0972 100.648L21.7683 101.247C21.7532 101.27 21.7326 101.289 21.7082 101.302C21.6838 101.315 21.6566 101.322 21.629 101.321ZM20.0195 100.547L21.5671 100.988L21.7258 100.706L20.0195 100.547Z" fill="#622483"/>
<path d="M8.65588 74.8759C8.49725 73.9783 8.57076 70.3182 9.74308 68.8557C10.5169 68.0393 18.433 61.1601 19.5975 60.4985C20.7621 59.8369 25.7416 58.5872 29.0612 61.2453C30.019 61.9887 30.7886 62.9467 31.3081 64.0422C31.8276 65.1376 32.0824 66.3398 32.052 67.5518C32.052 67.5518 39.3297 67.8459 40.3279 68.345C40.9856 68.6738 42.7228 70.5039 43.8797 72.5506C44.0654 73.7113 44.3749 75.5066 43.8797 76.4816C42.1464 77.7197 35.4142 81.3063 34.4199 81.3063C33.4255 81.3063 23.0487 78.7179 23.0487 78.7179C23.0487 78.7179 22.7508 71.4557 16.0303 70.8869C14.6637 70.7291 13.2795 70.925 12.0103 71.4557C10.8109 72.4268 10.0758 73.4366 8.65588 74.8759Z" fill="url(#paint10_linear_285_6012)"/>
<g style="mix-blend-mode:overlay" opacity="0.56">
<path d="M18.2432 66.6006C22.3753 67.6723 24.3949 71.5529 24.5033 71.6651C24.6116 71.7773 23.5089 68.7517 24.2827 67.7729C25.0566 66.794 28.5387 62.9753 29.3125 63.0294C30.0863 63.0836 31.0497 63.4396 31.3205 64.0934C30.0863 61.536 26.6777 60.0077 26.6274 59.9961C26.7302 60.2344 26.7586 60.4983 26.7089 60.753C26.6591 61.0078 26.5337 61.2416 26.3488 61.4238C25.6679 62.0892 20.1699 66.1285 18.2432 66.6006Z" fill="#FFFFB5"/>
</g>
<path style="mix-blend-mode:multiply" d="M8.65592 74.876C10.0565 73.4367 10.811 72.4269 12.022 71.4558C13.2876 70.9271 14.6676 70.7313 16.0303 70.887C22.7509 71.4558 23.0488 78.718 23.0488 78.718C23.0488 78.718 33.4217 81.3064 34.4199 81.3064C35.4181 81.3064 42.158 77.7198 43.8797 76.4817C44.375 75.5067 44.1467 73.7192 43.8797 72.5507C43.8101 72.4269 35.3678 76.8686 34.6405 76.8067C33.7003 76.7487 31.0538 76.087 25.7416 74.5356C25.4631 72.9879 23.8071 69.1653 20.8163 67.6177C17.3845 65.8457 13.233 65.1841 9.74312 68.8364L9.52259 69.1614C8.56307 70.7981 8.52824 74.0403 8.65592 74.876Z" fill="url(#paint11_linear_285_6012)"/>
<path d="M34.4196 81.4616C33.4137 81.4616 23.4354 78.9739 23.0098 78.8694C22.9782 78.8601 22.9503 78.8414 22.9295 78.8159C22.9088 78.7903 22.8963 78.759 22.8937 78.7262C22.8937 78.6527 22.5068 71.5917 16.0184 71.0423C14.6882 70.8939 13.342 71.0815 12.103 71.5878C11.355 72.2183 10.6577 72.9065 10.0176 73.6462C9.65386 74.0331 9.24375 74.4935 8.76785 74.9849C8.74758 75.0054 8.72219 75.0202 8.69431 75.0277C8.66643 75.0351 8.63706 75.0351 8.60922 75.0274C8.58207 75.0184 8.55794 75.0021 8.5395 74.9803C8.52106 74.9584 8.50903 74.9319 8.50476 74.9036C8.32678 73.9054 8.43898 70.2337 9.62291 68.7596C10.3967 67.9084 18.3592 61.0215 19.5199 60.3637C20.5917 59.7486 25.7298 58.3828 29.1577 61.1375C30.1081 61.8863 30.8765 62.8406 31.4052 63.9288C31.9339 65.0171 32.2092 66.211 32.2104 67.4209C33.3015 67.4673 39.4533 67.7497 40.3973 68.2218C41.0821 68.5661 42.8309 70.4 44.0149 72.4777C44.0236 72.4949 44.0301 72.5131 44.0342 72.5319V72.6441C44.2199 73.8048 44.5024 75.5691 43.9994 76.5557C43.9894 76.5778 43.9733 76.5966 43.953 76.6099C42.3821 77.7396 35.4991 81.4616 34.4196 81.4616ZM23.1994 78.5947C26.8131 79.4962 33.6458 81.1521 34.4196 81.1521C35.3598 81.1521 41.9952 77.6236 43.7595 76.3777C44.1928 75.4724 43.9259 73.8009 43.7595 72.6905V72.6015C42.622 70.6012 40.9196 68.7983 40.2774 68.4849C39.5036 68.098 34.5705 67.8116 32.0634 67.7111C32.0425 67.7106 32.022 67.7059 32.003 67.6971C31.9841 67.6883 31.9672 67.6757 31.9534 67.6601C31.9396 67.6445 31.9291 67.6261 31.9228 67.6063C31.9164 67.5864 31.9142 67.5654 31.9164 67.5447C31.9435 66.3557 31.6925 65.1768 31.1834 64.102C30.6742 63.0272 29.9209 62.0863 28.9836 61.3542C25.6795 58.7116 20.7271 60.031 19.6979 60.6191C18.5372 61.2768 10.6559 68.1134 9.88214 68.9491C8.88006 70.1988 8.69821 73.2747 8.79494 74.5244C9.18184 74.1375 9.51071 73.7506 9.8125 73.4256C10.4675 72.6686 11.1817 71.9648 11.9482 71.3209C11.9578 71.3113 11.9699 71.3046 11.983 71.3015C13.2727 70.766 14.6771 70.5663 16.0649 70.7212C22.3482 71.2667 23.1182 77.6468 23.1955 78.5947H23.1994Z" fill="#622483"/>
<path d="M26.3798 57.4026C26.2328 56.5631 26.728 53.0538 27.8268 51.6803C28.5349 50.9065 36.0099 44.6928 37.1125 44.0699C38.2152 43.447 42.6453 42.1895 45.5161 44.627C48.5533 47.2077 48.4604 51.6532 48.4604 51.6532C48.4604 51.6532 54.914 51.5178 55.8465 51.986C56.4616 52.2955 58.5084 53.2744 59.5917 55.1934C59.7658 56.2806 60.056 57.9637 59.5917 58.8767C57.9667 60.0375 51.4667 62.5523 50.5343 62.5523C49.6018 62.5523 39.8789 61.0047 39.8789 61.0047C39.8789 61.0047 39.6003 54.1991 33.3015 53.6535C32.0494 53.5374 30.7891 53.7606 29.653 54.2997C28.497 55.2633 27.4037 56.2997 26.3798 57.4026Z" fill="url(#paint12_linear_285_6012)"/>
<g style="mix-blend-mode:overlay" opacity="0.56">
<path d="M35.8086 49.7619C39.9756 50.7988 41.2794 54.6253 41.2794 54.6253C41.2794 54.6253 40.8925 52.1607 41.3336 51.325C42.2506 49.642 45.7869 47.3205 46.4446 47.2277C46.8488 47.1818 47.2554 47.291 47.5821 47.5333C47.5821 47.5333 45.9958 44.1827 44.1657 43.7881C44.541 45.4827 37.3949 50.1759 35.8086 49.7619Z" fill="#FFFFB5"/>
</g>
<path style="mix-blend-mode:multiply" d="M26.3795 57.4032C27.3694 56.332 28.4292 55.3277 29.5521 54.3969C30.7112 53.8265 32.001 53.5741 33.2896 53.6657C39.5884 54.1957 39.867 61.0169 39.867 61.0169C39.867 61.0169 49.5899 62.5645 50.5223 62.5645C51.4548 62.5645 57.9548 60.0496 59.5798 58.8889C60.0441 57.9758 59.8313 56.3005 59.5798 55.2056C59.514 55.0856 56.6548 57.38 51.6753 58.9314C48.4908 58.8774 45.3283 58.3933 42.2735 57.4922C42.0143 56.0374 40.5827 52.0755 37.7738 50.6285C34.5586 48.9686 31.092 48.2722 27.8265 51.6925L27.6176 51.9981C26.7122 53.5109 26.2441 56.6061 26.3795 57.4032Z" fill="url(#paint13_linear_285_6012)"/>
<path d="M50.5231 62.7081C49.5868 62.7081 40.243 61.2185 39.8445 61.1605C39.8092 61.1545 39.777 61.1366 39.7531 61.1099C39.7292 61.0832 39.7151 61.0492 39.713 61.0135C39.713 60.7388 39.3647 54.3355 33.2787 53.8248C32.0592 53.7124 30.8318 53.9274 29.7231 54.4477C28.5806 55.3991 27.5014 56.424 26.4924 57.5159C26.472 57.5361 26.4464 57.5504 26.4185 57.5572C26.3905 57.564 26.3613 57.5631 26.3338 57.5546C26.3067 57.5467 26.2825 57.5312 26.2639 57.5099C26.2454 57.4887 26.2334 57.4625 26.2293 57.4346C26.0707 56.5331 26.5853 52.9891 27.7034 51.5885C28.4772 50.7489 35.9716 44.543 37.024 43.9433C38.235 43.2507 42.6999 42.0474 45.6055 44.512C48.3138 46.8334 48.5808 50.6715 48.6002 51.4995C49.6177 51.4995 55.0189 51.4105 55.9049 51.8516L55.9591 51.8787C56.6207 52.2075 58.6403 53.2135 59.7159 55.1209C59.7181 55.1389 59.7181 55.1571 59.7159 55.1751V55.2796C59.89 56.3745 60.157 58.0227 59.685 58.9513C59.675 58.9734 59.6589 58.9922 59.6385 59.0055C58.0948 60.1313 51.5329 62.7081 50.5231 62.7081ZM40.0147 60.8626C41.1368 61.0406 49.6874 62.3909 50.5231 62.3909C51.3588 62.3909 57.7737 59.9418 59.4606 58.7656C59.8475 57.9183 59.6115 56.3552 59.4606 55.3182V55.237C58.4275 53.4302 56.4853 52.4629 55.8469 52.1418L55.7927 52.1147C55.0576 51.7278 50.2638 51.7626 48.4763 51.7974C48.4351 51.7966 48.3955 51.7816 48.3641 51.7549C48.3496 51.7393 48.3384 51.7211 48.3311 51.7011C48.3238 51.6812 48.3205 51.66 48.3216 51.6388C48.3216 51.5962 48.3757 47.2358 45.4314 44.7325C42.6263 42.3492 38.204 43.6221 37.2058 44.1947C36.2076 44.7674 28.7326 50.9501 27.9665 51.7781C27.007 52.9736 26.5311 55.8831 26.5388 57.0361C27.4869 56.0195 28.5002 55.0657 29.5722 54.1807L29.607 54.1575C30.7558 53.6196 32.027 53.3966 33.2903 53.5114C39.1829 54.0066 39.9335 59.9224 40.0147 60.8626Z" fill="#622483"/>
<path d="M36.3856 105.043C38.3201 105.271 39.8677 105.592 41.5972 105.871C40.982 105.611 37.4495 105.027 35.9948 103.7C35.1359 104.281 36.3856 105.043 36.3856 105.043Z" fill="#622483"/>
<path d="M41.6126 106.024H41.5893C41.009 105.932 40.4557 105.835 39.8986 105.738C38.8075 105.549 37.6777 105.351 36.3816 105.2C36.3598 105.196 36.3389 105.188 36.3197 105.177C36.2423 105.131 35.5459 104.705 35.5459 104.183C35.5507 104.056 35.589 103.932 35.6569 103.825C35.7249 103.718 35.8201 103.63 35.9328 103.571C35.9602 103.551 35.9934 103.54 36.0276 103.54C36.0618 103.54 36.095 103.551 36.1224 103.571C37.1902 104.55 39.4227 105.119 40.7652 105.452C41.0783 105.522 41.387 105.609 41.6899 105.715C41.7241 105.729 41.752 105.756 41.7683 105.789C41.7846 105.823 41.7884 105.861 41.7789 105.897C41.7715 105.935 41.7505 105.969 41.7199 105.992C41.6892 106.016 41.6511 106.027 41.6126 106.024ZM36.4513 104.891C37.256 104.988 37.9989 105.096 38.6992 105.216C37.7239 104.944 36.8062 104.497 35.9908 103.896C35.9475 103.929 35.9118 103.97 35.8864 104.017C35.861 104.065 35.8464 104.117 35.8438 104.171C35.8632 104.457 36.2655 104.771 36.4513 104.891Z" fill="#622483"/>
<path d="M14.3623 115.765C14.3623 115.765 17.295 113.555 17.4072 112.824C17.7206 110.804 16.9816 108.638 16.9468 107.257C16.912 105.875 17.3763 103.388 21.9766 100.223C21.9766 100.223 25.0718 100.223 35.468 103.186C35.94 103.391 36.5474 104.014 37.2322 104.471C37.12 104.858 36.1953 105.871 35.5647 106.46C35.2203 106.8 33.1659 108.568 32.4694 109.621C31.1075 111.725 31.0766 114.867 30.6549 116.066C29.5483 119.204 26.1203 121.247 25.6251 121.259C25.1299 121.27 15.8325 118.26 15.8325 118.26C15.8325 118.26 14.6177 116.531 14.3623 115.765Z" fill="url(#paint14_linear_285_6012)"/>
<path style="mix-blend-mode:multiply" opacity="0.57" d="M35.4486 103.185C35.4486 103.185 25.3891 100.222 21.9572 100.222C21.7212 100.098 18.3629 102.93 17.6433 104.52C17.1635 105.35 16.9225 106.297 16.9468 107.256C16.9816 108.637 17.7206 110.804 17.4072 112.823C17.295 113.554 14.3623 115.764 14.3623 115.764C14.6177 116.537 28.8055 119.018 30.1441 117.075C30.1441 117.075 28.7087 115.988 28.434 114.835C29.1691 113.051 29.0686 110.343 29.2427 109.418C29.7611 106.637 34.3498 103.708 34.3498 103.708C35.3549 103.917 36.321 104.283 37.2129 104.791L35.4486 103.185Z" fill="url(#paint15_linear_285_6012)"/>
<g style="mix-blend-mode:soft-light" opacity="0.78">
<path d="M18.4869 103.286C17.7131 104.869 20.7696 105.449 24.2556 106.281C27.7416 107.113 31.6068 105.871 31.6068 105.871C31.6068 105.871 29.9393 107.418 29.591 108.413C29.2428 109.407 29.0223 112.135 29.0223 112.135C29.0223 112.135 27.8268 109.581 26.3759 109.012C24.925 108.444 18.9473 107.465 18.3631 107.708C17.7788 107.952 17.1791 109.012 17.1791 109.012C17.1791 109.012 16.0339 105.604 18.4869 103.286Z" fill="#FFFFB5"/>
</g>
<path d="M25.6296 121.412C25.0918 121.412 16.7308 118.704 15.7906 118.41C15.7586 118.398 15.7313 118.376 15.7133 118.348C15.663 118.278 14.4752 116.591 14.2159 115.81C14.2057 115.779 14.2054 115.746 14.2151 115.716C14.2249 115.685 14.2441 115.658 14.2701 115.639C15.3844 114.8 17.1796 113.287 17.257 112.799C17.4543 111.523 17.2222 110.192 17.021 109.016C16.9043 108.436 16.8281 107.849 16.7927 107.259C16.7308 104.833 18.3945 102.488 21.8728 100.097C21.8968 100.078 21.9268 100.067 21.9579 100.066C22.0894 100.066 25.2118 100.101 35.4996 103.034C35.8557 103.219 36.1871 103.447 36.4862 103.715C36.7493 103.928 37.0201 104.148 37.3103 104.342C37.3376 104.36 37.3584 104.386 37.3696 104.417C37.3808 104.447 37.3817 104.481 37.3722 104.512C37.2329 104.988 36.1612 106.102 35.6621 106.57L35.2752 106.911C34.5787 107.549 33.1278 108.872 32.59 109.704C31.6847 111.097 31.4293 112.799 31.2243 114.188C31.1599 114.743 31.0513 115.292 30.8993 115.829C29.7656 119.044 26.1829 121.396 25.6258 121.412H25.6296ZM15.957 118.131C19.6635 119.33 25.2659 121.099 25.6296 121.102C25.9933 121.106 29.4987 118.874 30.6168 115.724C30.7644 115.208 30.8692 114.68 30.9302 114.146C31.1391 112.738 31.4022 110.985 32.3424 109.534C32.9034 108.671 34.3737 107.329 35.0778 106.682C35.2481 106.528 35.3757 106.412 35.4415 106.346C36.043 105.807 36.5758 105.196 37.0278 104.527C36.7686 104.346 36.5249 104.141 36.2888 103.959C36.0147 103.714 35.7136 103.501 35.3912 103.324C25.8502 100.616 22.4377 100.395 22.0082 100.38C17.021 103.827 17.0829 106.404 17.1061 107.251C17.143 107.827 17.218 108.399 17.3305 108.965C17.5356 110.165 17.7716 111.523 17.5665 112.834C17.4543 113.554 15.1135 115.376 14.5525 115.806C14.9509 116.614 15.4141 117.389 15.9377 118.123L15.957 118.131Z" fill="#622483"/>
<path d="M68.5682 60.3816C81.3361 54.4968 94.9822 58.3117 83.1081 69.5822C69.5471 82.4507 49.3081 80.6593 50.9099 73.3275C52.3298 66.8275 75.2268 59.9754 77.8036 62.7185C80.57 65.6629 67.8795 72.7781 63.8983 73.1379C57.348 73.076 63.0123 68.4331 65.7941 67.9998C67.0051 70.2593 75.6292 65.9415 75.3971 64.2081C75.1649 62.4748 57.6188 67.5239 54.7867 71.8418C51.7688 76.4459 60.4587 79.4096 71.8879 73.5325C82.9688 67.8334 87.1938 60.637 80.7248 58.7257C76.3837 57.4373 68.5682 60.3816 68.5682 60.3816Z" fill="url(#paint16_linear_285_6012)"/>
<g style="mix-blend-mode:color-dodge">
<path d="M85.9708 61.5386C85.2666 60.877 83.5643 60.877 83.5643 60.877V60.9002C83.6431 61.0982 83.6989 61.3046 83.7306 61.5153C84.0401 62.7689 84.4038 64.3475 84.1639 65.0284C83.8312 65.9686 82.45 69.1799 74.0348 74.2716C65.6196 79.3633 56.214 77.8659 55.4285 77.2585C54.6431 76.6511 52.9601 75.2234 54.2098 73.2076C54.2098 73.2076 51.7878 73.3276 50.8398 74.5076C51.5556 80.8142 70.3011 81.7311 83.1 69.5823C85.1544 67.6478 86.4428 65.9067 87.1044 64.4133C87.6113 62.7689 86.439 61.9796 85.9708 61.5386Z" fill="#B0FFA8"/>
</g>
<path d="M61.2018 106.904L52.1792 104.745C49.1923 107.067 44.0813 110.97 44.3018 111.411L44.5959 113.52C44.8203 113.961 54.3381 117.06 54.7831 117.06C55.228 117.06 61.2018 107.747 61.2018 107.747V106.904Z" fill="url(#paint17_linear_285_6012)"/>
<path d="M54.7828 117.23C54.4964 117.23 51.5637 116.293 49.5557 115.616C44.6381 113.96 44.5259 113.701 44.4601 113.604C44.4562 113.588 44.4562 113.571 44.4601 113.554L44.1661 111.461C44.0616 111.012 45.5822 109.693 51.2078 105.332L52.1015 104.64C52.119 104.625 52.1397 104.615 52.162 104.61C52.1842 104.606 52.2073 104.607 52.2292 104.613L61.2518 106.772C61.2856 106.779 61.3159 106.797 61.3378 106.824C61.3596 106.851 61.3716 106.884 61.3717 106.919V107.762C61.3724 107.792 61.3644 107.822 61.3485 107.847C58.5822 112.126 55.2161 117.23 54.7828 117.23ZM44.7464 113.481C45.2649 113.945 54.0322 116.824 54.7557 116.928C55.2664 116.564 58.8569 111.124 61.0467 107.727V107.05L52.2176 104.938L51.3819 105.584C48.8438 107.553 44.6033 110.842 44.4524 111.387L44.7464 113.481Z" fill="#622483"/>
<path d="M15.9177 113.152C18.626 112.947 30.1558 117.145 30.4034 117.477C30.651 117.81 30.0707 120.217 29.9082 120.635C29.7457 121.052 23.9305 125.78 23.9305 125.78C23.9305 125.78 14.9659 125.835 13.132 125.51C11.9713 125.304 10.3966 120.193 10.563 118.89C10.7293 117.586 15.9177 113.152 15.9177 113.152Z" fill="url(#paint18_radial_285_6012)"/>
<g style="mix-blend-mode:color-dodge">
<path d="M10.9736 118.673C11.14 118.716 25.7882 116.085 25.7882 116.085L29.5992 117.497C29.5992 117.497 13.3492 120.565 12.912 120.654C12.75 120.692 12.5986 120.766 12.4692 120.87C12.3399 120.975 12.236 121.107 12.1653 121.258C12.1653 121.258 11.0162 119.006 10.9736 118.673Z" fill="#FFEE01"/>
</g>
<path style="mix-blend-mode:multiply" opacity="0.6" d="M23.5129 122.205C23.5129 122.205 14.3355 122.546 12.7957 122.035C12.0218 121.772 11.1397 120.251 10.5826 118.804C10.5808 118.833 10.5808 118.861 10.5826 118.889C10.4162 120.193 11.9793 125.304 13.1516 125.509C14.9855 125.834 23.9501 125.78 23.9501 125.78C23.9501 125.78 29.7537 121.048 29.9278 120.634C30.1019 120.22 30.7287 117.686 30.2064 117.35C30.2218 117.737 23.5129 122.205 23.5129 122.205Z" fill="url(#paint19_linear_285_6012)"/>
<path d="M22.4572 125.939C19.8262 125.939 14.4908 125.908 13.1018 125.664C11.7979 125.436 10.2387 120.186 10.3935 118.87C10.5482 117.555 15.2685 113.492 15.8101 113.036C15.8353 113.014 15.8663 113.001 15.8991 112.997C18.6887 112.784 30.2456 117.017 30.5203 117.385C30.8491 117.822 30.1721 120.371 30.0444 120.689C29.8703 121.122 25.0146 125.107 24.0203 125.9C23.9933 125.923 23.9589 125.936 23.9235 125.935L22.4572 125.939ZM15.9765 113.303C14.5179 114.552 10.8423 117.895 10.7107 118.909C10.5482 120.182 12.1307 125.181 13.156 125.359C14.8816 125.66 23.1149 125.629 23.8694 125.626C26.0747 123.83 29.5878 120.898 29.7619 120.573C29.9786 120.027 30.4429 117.826 30.2765 117.57C29.7078 117.098 18.6655 113.156 15.9804 113.303H15.9765Z" fill="#622483"/>
<path d="M73.0412 122.549C73.0184 122.548 72.9959 122.542 72.9753 122.532C72.9547 122.522 72.9363 122.508 72.9213 122.491C69.474 118.158 69.6365 107.522 71.6871 103.564C71.6965 103.546 71.7093 103.53 71.7249 103.517C71.7405 103.504 71.7585 103.494 71.7779 103.488C71.7973 103.482 71.8177 103.479 71.838 103.481C71.8582 103.483 71.8779 103.489 71.896 103.498C71.914 103.507 71.93 103.52 71.9431 103.536C71.9562 103.551 71.966 103.569 71.9721 103.589C71.9782 103.608 71.9805 103.629 71.9787 103.649C71.9769 103.669 71.9712 103.689 71.9618 103.707C69.946 107.599 69.7796 118.046 73.165 122.298C73.1891 122.33 73.1997 122.371 73.1947 122.411C73.1897 122.452 73.1693 122.489 73.1379 122.514C73.1109 122.537 73.0766 122.55 73.0412 122.549Z" fill="#622483"/>
<path style="mix-blend-mode:multiply" d="M33.9941 73.757C36.8595 73.757 39.1824 72.9204 39.1824 71.8883C39.1824 70.8562 36.8595 70.0195 33.9941 70.0195C31.1286 70.0195 28.8057 70.8562 28.8057 71.8883C28.8057 72.9204 31.1286 73.757 33.9941 73.757Z" fill="url(#paint20_linear_285_6012)"/>
<path d="M31.1117 70.7634C28.8212 73.3286 36.687 74.114 39.0317 71.9628C41.3763 69.8116 33.6769 67.908 31.1117 70.7634Z" fill="url(#paint21_linear_285_6012)"/>
<g style="mix-blend-mode:screen">
<path d="M33.2437 69.5591C37.3217 68.7621 38.1613 71.1067 37.3758 71.6677C36.3467 72.3874 33.9982 72.1591 33.2437 72.1978C33.0038 72.5847 39.5967 73.2695 39.4574 71.2654C39.3181 69.2612 35.7238 69.2767 33.2437 69.5591Z" fill="#00FFAC"/>
</g>
<path d="M31.6726 70.2676C31.6378 70.3024 31.1425 70.728 31.1116 70.7628C29.3047 72.7863 33.8199 73.7033 36.9577 72.9411C37.5187 72.7128 38.1184 72.442 38.7375 72.1209C36.4702 73.0378 30.5815 72.4691 31.6726 70.2676Z" fill="#FFEE01"/>
<path d="M34.5937 73.3635C33.0151 73.3635 31.5294 73.0269 30.8871 72.3924C30.6008 72.1138 30.2371 71.5141 30.9955 70.6629C32.3922 69.096 35.2205 68.9141 37.2556 69.4094C38.5517 69.7266 39.4261 70.2954 39.577 70.9299C39.6226 71.1464 39.6041 71.3716 39.5237 71.5777C39.4433 71.7839 39.3045 71.9621 39.1243 72.0906C38.1764 72.9534 36.3309 73.3635 34.5937 73.3635ZM31.2276 70.868C30.7711 71.3787 30.7324 71.8043 31.1038 72.1719C32.3458 73.3945 37.2285 73.4061 38.927 71.8469C39.0599 71.7548 39.1644 71.6273 39.2287 71.479C39.2929 71.3306 39.3144 71.1672 39.2907 71.0073C39.1553 70.4927 38.3466 69.9936 37.1821 69.7111C35.1702 69.2236 32.4812 69.4635 31.2276 70.8719V70.868Z" fill="#622483"/>
<path style="mix-blend-mode:multiply" d="M55.2854 55.1812C55.3048 55.955 53.3238 56.6437 50.8592 56.7288C48.3946 56.8139 46.3789 56.2181 46.3595 55.4365C46.3402 54.655 48.3211 53.974 50.7857 53.8889C53.2503 53.8038 55.2622 54.4035 55.2854 55.1812Z" fill="url(#paint22_linear_285_6012)"/>
<path d="M48.1201 54.2183C46.1856 56.2921 52.821 56.9267 54.798 55.1856C56.7751 53.4445 50.2713 51.9124 48.1201 54.2183Z" fill="url(#paint23_linear_285_6012)"/>
<path d="M55.1501 54.6328C53.5174 55.9598 47.0251 55.4994 48.4606 53.917C48.3383 54.0073 48.2244 54.1083 48.1201 54.2188C46.1856 56.2926 52.821 56.9271 54.798 55.186C54.9765 55.0485 55.1011 54.8527 55.1501 54.6328Z" fill="#FFEE01"/>
<path d="M51.0651 56.3468C49.6877 56.3468 48.3955 56.0566 47.877 55.5227C47.6526 55.2906 47.3702 54.7992 48.0047 54.1144C49.1963 52.8376 51.6725 52.6596 53.4987 53.1471C54.524 53.4179 55.1779 53.8629 55.2978 54.3697C55.3297 54.5459 55.3101 54.7275 55.2415 54.8928C55.1729 55.0582 55.0581 55.2003 54.9109 55.3022C54.0907 56.0179 52.5315 56.3468 51.0651 56.3468ZM51.5642 53.2129C50.2681 53.2129 48.9642 53.5417 48.233 54.3272C47.699 54.8959 48.0008 55.2054 48.1014 55.306C49.0764 56.312 53.2511 56.3391 54.6788 55.07C54.9264 54.8534 55.027 54.6406 54.9806 54.4394C54.8916 54.0525 54.288 53.6656 53.4059 53.445C52.8043 53.2901 52.1854 53.2121 51.5642 53.2129Z" fill="#622483"/>
<path d="M19.3115 66.96C22.5422 67.9814 25.0725 72.7635 25.2815 74.876C26.7324 75.3713 32.8338 76.9498 33.4568 77.3251C34.0797 77.7004 34.1222 79.5228 34.2886 79.6891C34.455 79.8555 34.4124 77.6966 35.577 76.9808C36.7416 76.265 41.0827 73.8856 41.3303 73.7463C41.5779 73.607 35.3681 75.7117 33.9984 75.8704C32.6288 76.029 25.6954 74.3228 25.6954 74.3228C25.6954 74.3228 25.0996 68.4457 19.3115 66.96Z" fill="#FFEE01"/>
<path d="M5.27441 79.9278C10.5557 78.0823 14.5988 84.118 14.8735 86.4511C14.9459 87.5719 14.9459 88.6963 14.8735 89.8171C14.8735 89.8171 15.7673 86.7954 17.195 86.4511C18.6226 86.1067 41.833 90.1383 42.2432 90.2118C42.6533 90.2853 16.4018 85.2362 16.2664 84.9189C16.131 84.6016 11.3952 76.2368 5.27441 79.9278Z" fill="#A33DD4"/>
<path d="M46.3945 90.9823C46.3945 90.9823 47.6945 94.6347 47.6558 94.4258C47.6172 94.2168 48.2362 91.3305 48.5264 90.9823C49.2605 90.395 50.0264 89.8486 50.8207 89.3457L46.3945 90.9823Z" fill="#A33DD4"/>
<path d="M55.4363 91.555C54.2756 92.1973 53.583 93.7487 53.583 93.7487C53.583 93.7487 52.5655 92.588 53.1497 92.263C53.7339 91.938 55.2041 91.497 55.4363 91.555Z" fill="#A33DD4"/>
<path d="M61.2012 106.904C62.7421 107.486 64.3125 107.985 65.9059 108.402L61.2012 107.748V106.904Z" fill="#622483"/>
<path d="M65.9064 108.571H65.8832L61.1823 107.921C61.145 107.916 61.1109 107.897 61.0861 107.869C61.0613 107.84 61.0474 107.804 61.0469 107.766V106.904C61.0475 106.878 61.0541 106.853 61.0662 106.831C61.0783 106.809 61.0956 106.79 61.1165 106.776C61.1387 106.765 61.1632 106.759 61.1881 106.759C61.213 106.759 61.2375 106.765 61.2597 106.776C62.7943 107.354 64.3583 107.851 65.9451 108.265C65.9826 108.274 66.0156 108.296 66.0377 108.328C66.0598 108.359 66.0694 108.398 66.0645 108.436C66.0597 108.474 66.0408 108.509 66.0116 108.534C65.9824 108.559 65.9449 108.572 65.9064 108.571ZM61.3564 107.631L63.7397 107.96C62.9659 107.72 62.0876 107.437 61.3564 107.147V107.631Z" fill="#622483"/>
<path d="M62.9307 123.876C63.2247 123.985 72.317 128.906 73.0405 129.223C73.764 129.541 84.8914 112.134 84.8914 112.134C84.8914 112.134 72.8973 127.01 71.8836 126.569C70.8699 126.128 62.9307 123.876 62.9307 123.876Z" fill="#A33DD4"/>
<path d="M115.539 73.9859C114.765 74.4811 111.352 79.8475 111.422 79.7624C111.492 79.6772 115.806 75.2356 116.715 75.9746C116.862 74.6436 116.8 73.5835 116.688 73.3629C116.576 73.1424 115.539 73.9859 115.539 73.9859Z" fill="#6AA5FF"/>
<path d="M117.779 49.8933C117.562 50.1641 111.798 57.2715 111.879 57.9022C111.96 58.5329 118.681 52.1218 118.766 51.4602C118.851 50.7986 118.379 49.162 117.779 49.8933Z" fill="#6AA5FF"/>
<path d="M38.0723 50.8027C41.1211 52.7566 41.2913 57.7902 41.6976 58.0688C42.1038 58.3474 50.1321 59.2295 50.6312 59.6358C51.1303 60.042 50.9059 61.0557 51.1264 61.2762C51.347 61.4968 51.4592 60.0149 52.8443 59.0632C53.8115 58.3977 57.9979 56.1498 58.1681 56.0492C58.3383 55.9486 53.5252 58.1771 51.1845 58.5099C48.8437 58.8426 42.4443 58.0379 42.2857 57.5001C42.127 56.9623 41.6008 52.1608 38.0723 50.8027Z" fill="#FFEE01"/>
<g style="mix-blend-mode:screen">
<path d="M46.4951 112.32C48.2091 112.993 53.0725 113.136 54.0901 113.152C55.1076 113.167 59.0037 108.509 59.0579 108.424C59.1121 108.339 54.8368 114.316 54.3377 114.568C53.8386 114.819 47.327 112.823 46.4951 112.32Z" fill="#FF8407"/>
</g>
<path style="mix-blend-mode:multiply" d="M52.485 104.834L59.8749 107.364L59.0585 108.417C59.1127 108.347 54.8373 114.309 54.3382 114.561C53.8391 114.812 47.3275 112.824 46.4957 112.313C46.7568 112.409 47.0244 112.487 47.2966 112.545C46.2055 112.243 45.3621 111.953 45.0951 111.736C44.8746 112.235 45.0951 113.822 45.0951 113.822L54.7677 117.076L61.1865 107.763V106.904L52.485 104.834Z" fill="url(#paint24_linear_285_6012)"/>
<path style="mix-blend-mode:multiply" d="M64.2197 113.602C64.2197 113.602 71.2072 119.835 71.7102 119.993C72.2132 120.152 76.5272 110.955 76.5272 110.955C76.5272 110.955 73.2114 117.401 64.2197 113.602Z" fill="url(#paint25_linear_285_6012)"/>
<path d="M64.2197 113.6C64.5486 113.643 69.3269 115.001 70.5572 115.001C71.7876 115.001 78.2489 108.083 78.2489 108.083C78.2489 108.083 73.5287 116.049 72.6581 117.075C71.3852 117.125 64.2197 113.6 64.2197 113.6Z" fill="#FFC0A8"/>
<path d="M72.6344 117.234C71.2686 117.234 64.4397 113.883 64.1495 113.752C64.1162 113.737 64.0896 113.71 64.0746 113.676C64.0597 113.643 64.0574 113.605 64.0683 113.57C64.0797 113.535 64.1029 113.505 64.134 113.485C64.165 113.466 64.202 113.457 64.2385 113.462C64.3314 113.462 64.6254 113.555 65.2832 113.721C66.8308 114.108 69.6668 114.862 70.5567 114.862C71.3847 114.862 75.5439 110.753 78.1361 107.991C78.1627 107.965 78.1978 107.949 78.235 107.947C78.2722 107.944 78.309 107.955 78.3386 107.978C78.3682 108.001 78.3887 108.033 78.3963 108.07C78.4039 108.106 78.3981 108.144 78.3799 108.177C78.1864 108.502 73.6287 116.166 72.7775 117.191C72.7641 117.208 72.747 117.222 72.7276 117.231C72.7082 117.241 72.6869 117.246 72.6653 117.246L72.6344 117.234ZM65.6701 114.139C68.1966 115.338 71.6632 116.886 72.5957 116.936C73.3153 116.019 76.0778 111.419 77.4165 109.198C75.5207 111.167 71.551 115.16 70.5683 115.16C69.7132 115.156 67.2564 114.537 65.6585 114.123L65.6701 114.139Z" fill="#622483"/>
<path d="M78.2485 108.239C78.2152 108.238 78.1828 108.227 78.1557 108.208C78.1228 108.183 78.1011 108.146 78.0953 108.106C78.0895 108.065 78.1001 108.024 78.1247 107.991C79.4595 106.227 81.4095 103.797 83.9283 100.764C83.9558 100.737 83.992 100.722 84.0301 100.721C84.0682 100.72 84.1054 100.732 84.1346 100.757C84.1638 100.781 84.183 100.816 84.1885 100.853C84.194 100.891 84.1853 100.929 84.1643 100.961C81.6533 103.99 79.7033 106.416 78.3607 108.177C78.3472 108.194 78.3303 108.209 78.311 108.219C78.2917 108.23 78.2704 108.237 78.2485 108.239Z" fill="#622483"/>
<path d="M28.8833 113.145C28.9607 111.26 28.7943 109.028 29.5139 107.763C30.2336 106.498 34.0523 103.638 34.3502 103.7C34.6482 103.762 30.6746 107.422 29.9589 109.012C29.2431 110.603 28.8678 113.698 28.8833 113.145Z" fill="#00FFAC"/>
<path d="M16.5483 53.124C16.2349 51.2282 17.8328 48.721 19.6436 48.7945C21.4543 48.8681 22.9516 50.3422 21.6013 51.4526C18.0186 54.3853 16.7302 54.2344 16.5483 53.124Z" fill="#00FFFF"/>
<path d="M26.0126 38.5024C26.1016 37.2837 25.1266 36.7265 23.784 36.7497C22.4414 36.7729 22.0313 37.2875 23.1224 38.0188C26.0242 39.9688 25.9623 39.2182 26.0126 38.5024Z" fill="#00FFFF"/>
<path d="M70.3246 16.1936C67.9336 16.7005 65.9642 19.7841 66.6452 20.7165C67.3261 21.649 71.4157 21.6915 71.7987 20.2716C72.1818 18.8517 71.0597 16.0389 70.3246 16.1936Z" fill="#00FFFF"/>
<path d="M126.983 54.8913C125.501 56.3925 128.29 57.8434 128.623 57.352C128.956 56.8606 128.917 52.922 126.983 54.8913Z" fill="#00FFFF"/>
<path d="M97.3387 121.436C97.4239 122.655 96.4527 123.216 95.1102 123.189C93.7676 123.162 93.3575 122.655 94.4486 121.923C97.3465 119.985 97.2846 120.724 97.3387 121.436Z" fill="#00FFFF"/>
<defs>
<linearGradient id="paint0_linear_285_6012" x1="102.035" y1="80.5819" x2="36.3658" y2="92.6649" gradientUnits="userSpaceOnUse">
<stop stop-color="#6952FF"/>
<stop offset="0.74" stop-color="#5E31B4"/>
<stop offset="1" stop-color="#5A2599"/>
</linearGradient>
<linearGradient id="paint1_linear_285_6012" x1="31.901" y1="70.2722" x2="23.9114" y2="60.1663" gradientUnits="userSpaceOnUse">
<stop offset="0.01" stop-color="#8D1DC4"/>
<stop offset="1" stop-color="#FFC2E3"/>
</linearGradient>
<linearGradient id="paint2_linear_285_6012" x1="60.7567" y1="125.383" x2="60.7567" y2="26.4318" gradientUnits="userSpaceOnUse">
<stop offset="0.01" stop-color="#8D1DC4"/>
<stop offset="1" stop-color="#FFC2E3"/>
</linearGradient>
<linearGradient id="paint3_linear_285_6012" x1="123.655" y1="69.3894" x2="65.1669" y2="80.1492" gradientUnits="userSpaceOnUse">
<stop stop-color="#6952DE"/>
<stop offset="1" stop-color="#A33DD4"/>
</linearGradient>
<linearGradient id="paint4_linear_285_6012" x1="42.982" y1="62.428" x2="42.982" y2="48.0274" gradientUnits="userSpaceOnUse">
<stop offset="0.01" stop-color="#8D1DC4"/>
<stop offset="1" stop-color="#FFC2E3"/>
</linearGradient>
<linearGradient id="paint5_linear_285_6012" x1="25.8576" y1="81.3018" x2="25.8576" y2="65.3652" gradientUnits="userSpaceOnUse">
<stop offset="0.01" stop-color="#8D1DC4"/>
<stop offset="1" stop-color="#FFC2E3"/>
</linearGradient>
<linearGradient id="paint6_linear_285_6012" x1="98.2283" y1="91.4855" x2="43.4155" y2="101.568" gradientUnits="userSpaceOnUse">
<stop stop-color="#FFF9BF"/>
<stop offset="0.69" stop-color="#FFAEA1"/>
<stop offset="1" stop-color="#FF8A92"/>
</linearGradient>
<linearGradient id="paint7_linear_285_6012" x1="57.9009" y1="106.231" x2="57.069" y2="124.245" gradientUnits="userSpaceOnUse">
<stop offset="0.01" stop-color="#AE44E3"/>
<stop offset="1" stop-color="#FFB8E0"/>
</linearGradient>
<linearGradient id="paint8_linear_285_6012" x1="12.9044" y1="80.9191" x2="82.2029" y2="85.7902" gradientUnits="userSpaceOnUse">
<stop offset="0.01" stop-color="#AE44E3"/>
<stop offset="1" stop-color="#FFB8E0"/>
</linearGradient>
<linearGradient id="paint9_linear_285_6012" x1="34.4202" y1="105.147" x2="33.5884" y2="123.165" gradientUnits="userSpaceOnUse">
<stop offset="0.01" stop-color="#AE44E3"/>
<stop offset="1" stop-color="#FFB8E0"/>
</linearGradient>
<linearGradient id="paint10_linear_285_6012" x1="40.8734" y1="66.7857" x2="18.874" y2="73.2625" gradientUnits="userSpaceOnUse">
<stop stop-color="#FFFF00"/>
<stop offset="0.71" stop-color="#FFB406"/>
<stop offset="1" stop-color="#FF9408"/>
</linearGradient>
<linearGradient id="paint11_linear_285_6012" x1="6.00176" y1="81.0007" x2="44.3595" y2="65.8921" gradientUnits="userSpaceOnUse">
<stop offset="0.01" stop-color="#AE44E3"/>
<stop offset="1" stop-color="#FFB8E0"/>
</linearGradient>
<linearGradient id="paint12_linear_285_6012" x1="61.6152" y1="50.922" x2="32.8875" y2="54.408" gradientUnits="userSpaceOnUse">
<stop stop-color="#FFFF00"/>
<stop offset="0.71" stop-color="#FFB406"/>
<stop offset="1" stop-color="#FF9408"/>
</linearGradient>
<linearGradient id="paint13_linear_285_6012" x1="25.9887" y1="55.6041" x2="57.3744" y2="56.1844" gradientUnits="userSpaceOnUse">
<stop offset="0.01" stop-color="#AE44E3"/>
<stop offset="1" stop-color="#FFB8E0"/>
</linearGradient>
<linearGradient id="paint14_linear_285_6012" x1="45.0206" y1="116.171" x2="20.6108" y2="109.528" gradientUnits="userSpaceOnUse">
<stop stop-color="#00FF80"/>
<stop offset="0.25" stop-color="#00E598"/>
<stop offset="1" stop-color="#009ADD"/>
</linearGradient>
<linearGradient id="paint15_linear_285_6012" x1="25.7876" y1="116.688" x2="25.7876" y2="104.443" gradientUnits="userSpaceOnUse">
<stop offset="0.01" stop-color="#AE44E3"/>
<stop offset="1" stop-color="#FFB8E0"/>
</linearGradient>
<linearGradient id="paint16_linear_285_6012" x1="69.2414" y1="87.3876" x2="69.2414" y2="59.4879" gradientUnits="userSpaceOnUse">
<stop stop-color="#00FF80"/>
<stop offset="0.25" stop-color="#00E598"/>
<stop offset="1" stop-color="#009ADD"/>
</linearGradient>
<linearGradient id="paint17_linear_285_6012" x1="49.289" y1="115.323" x2="56.2146" y2="103.782" gradientUnits="userSpaceOnUse">
<stop stop-color="#FF7700"/>
<stop offset="0.33" stop-color="#F65106"/>
<stop offset="1" stop-color="#E30613"/>
</linearGradient>
<radialGradient id="paint18_radial_285_6012" cx="0" cy="0" r="1" gradientUnits="userSpaceOnUse" gradientTransform="translate(25.4897 117.636) scale(14.4741 14.4741)">
<stop stop-color="#FFFF00"/>
<stop offset="0.71" stop-color="#FFB406"/>
<stop offset="1" stop-color="#FF9408"/>
</radialGradient>
<linearGradient id="paint19_linear_285_6012" x1="20.468" y1="126.585" x2="20.468" y2="115.663" gradientUnits="userSpaceOnUse">
<stop offset="0.01" stop-color="#D61773"/>
<stop offset="1" stop-color="#FFFFC2"/>
</linearGradient>
<linearGradient id="paint20_linear_285_6012" x1="47.3693" y1="69.0484" x2="26.5036" y2="73.4746" gradientUnits="userSpaceOnUse">
<stop offset="0.01" stop-color="#AE44E3"/>
<stop offset="1" stop-color="#FFB8E0"/>
</linearGradient>
<linearGradient id="paint21_linear_285_6012" x1="37.6078" y1="68.7321" x2="33.5647" y2="72.93" gradientUnits="userSpaceOnUse">
<stop stop-color="#FFFF00"/>
<stop offset="0.71" stop-color="#FFB406"/>
<stop offset="1" stop-color="#FF9408"/>
</linearGradient>
<linearGradient id="paint22_linear_285_6012" x1="62.253" y1="52.5678" x2="44.4195" y2="56.8495" gradientUnits="userSpaceOnUse">
<stop offset="0.01" stop-color="#AE44E3"/>
<stop offset="1" stop-color="#FFB8E0"/>
</linearGradient>
<linearGradient id="paint23_linear_285_6012" x1="53.5832" y1="52.5043" x2="50.1978" y2="56.0136" gradientUnits="userSpaceOnUse">
<stop stop-color="#FFFF00"/>
<stop offset="0.71" stop-color="#FFB406"/>
<stop offset="1" stop-color="#FF9408"/>
</linearGradient>
<linearGradient id="paint24_linear_285_6012" x1="53.1001" y1="117.602" x2="53.1001" y2="102.745" gradientUnits="userSpaceOnUse">
<stop offset="0.01" stop-color="#A81580"/>
<stop offset="1" stop-color="#FFB8E0"/>
</linearGradient>
<linearGradient id="paint25_linear_285_6012" x1="70.623" y1="106.815" x2="69.795" y2="124.833" gradientUnits="userSpaceOnUse">
<stop offset="0.01" stop-color="#AE44E3"/>
<stop offset="1" stop-color="#FFB8E0"/>
</linearGradient>
</defs>
</svg>
