<svg width="31" height="41" viewBox="0 0 31 41" fill="none" xmlns="http://www.w3.org/2000/svg">
<g clip-path="url(#clip0_264_2653)">
<path d="M1.57818 4.47461L0.897461 13.851C0.897461 13.851 10.1201 36.8725 9.24177 36.8725L11.3981 37.8782L3.61156 13.851L1.57818 4.47461Z" fill="#FFC145"/>
<path d="M14.4547 37.1799L15.7283 34.2858L8.54343 9.1606L1.57812 4.47461L6.74282 14.5229L14.4547 37.1799Z" fill="#DBA231"/>
<path d="M6.25972 12.1075L1.57812 4.47461L3.60272 13.8466L11.5781 38.9498L14.4547 37.1799L6.25972 12.1075Z" fill="#EEC778"/>
<path d="M11.4331 9.74462L19.7423 0.5L18.2798 12.103L11.4331 9.74462Z" fill="#FBC966"/>
<path d="M12.6672 33.4376C13.1064 33.5518 17.2697 36.3581 17.2697 36.3581L18.1481 11.5448L11.4375 9.74414L12.6672 33.4376Z" fill="#FCB72E"/>
<path d="M13.695 31.6107C13.695 31.6107 13.2953 13.2883 14.4547 13.4552C15.6142 13.6221 16.33 33.0995 16.33 33.0995L13.695 31.6107Z" fill="#EEC778"/>
<path d="M20.0807 36.3583L22.9969 12.1027L18.1572 11.5449L17.27 36.3583H20.0807Z" fill="#E8AE38"/>
<path d="M21.9383 34.2551L20.0806 36.3588L22.9967 12.1032L25.2453 10.8076L21.9383 34.2551Z" fill="#FCB72E"/>
<path d="M22.9964 12.103L19.7422 0.5L18.1567 11.5452L22.9964 12.103Z" fill="#FCB72E"/>
<path d="M25.2455 10.8074L19.7427 0.5L22.997 12.103L25.2455 10.8074Z" fill="#DBA231"/>
<path d="M23.603 22.8544L30.094 19.6836L26.1766 25.7793L23.603 22.8544Z" fill="#FCB72E"/>
<path d="M26.2728 25.4276L18.9474 38.998C18.9474 38.998 17.7704 36.4552 17.5903 36.2883L23.6026 22.8408L26.2728 25.4276Z" fill="#E5C075"/>
<path d="M26.273 25.4274L18.9476 38.9979C18.5875 38.2337 18.0693 37.0567 17.9639 36.9513L24.1123 23.3369L26.273 25.4274Z" fill="#E8AE38"/>
<path d="M20.2741 39.6697L28.3988 26.8941L26.2732 25.4404L18.9478 39.0065L20.2741 39.6697Z" fill="#E5C075"/>
<path d="M21.7364 38.9449L20.2739 39.6695L28.3987 26.8939L29.8172 26.7051L21.7364 38.9449Z" fill="#FCB72E"/>
<path d="M28.3986 26.8948L30.0938 19.6836L26.2729 25.4412L28.3986 26.8948Z" fill="#FFC145"/>
<path d="M29.817 26.706L30.0937 19.6836L28.3984 26.8948L29.817 26.706Z" fill="#EEC778"/>
<path d="M1.43774 30.7545L1.04688 24L4.95992 29.213L1.43774 30.7545Z" fill="#DBA231"/>
<path d="M10.6294 39.0108C10.8446 38.8922 13.9144 39.3753 13.9144 39.3753L4.69178 29.0371L1.43311 30.7543L10.6294 39.0108Z" fill="#FFC145"/>
<path d="M14.9861 38.3525L6.76041 27.4961L4.69629 29.0332L13.919 39.3758L14.9861 38.3525Z" fill="#E5C075"/>
<path d="M14.8894 36.8282L14.986 38.3521L6.76025 27.4957L7.11599 26.1562L14.8894 36.8282Z" fill="#DBA231"/>
<path d="M6.75614 27.5007C3.39207 25.5376 4.69202 26.3281 1.04688 23.9873L4.95992 29.2003L6.75614 27.5007Z" fill="#FCB72E"/>
<path d="M7.11627 26.1563L1.04688 24L6.76053 27.4958L7.11627 26.1563Z" fill="#FFC145"/>
<path d="M11.6573 25.6953L11.0601 34.1933H14.0508L16.3302 31.611V28.0185L14.0948 26.7274L11.6573 25.6953Z" fill="#FFC145"/>
<path d="M9.60205 30.0387L11.6574 25.6953L11.0601 34.1933L9.60205 30.0387Z" fill="#E5C075"/>
<path d="M13.4184 39.2965L11.0601 34.1933L11.6573 25.6953L14.3714 34.1933L15.2059 40.4999L13.4184 39.2965Z" fill="#FCB72E"/>
<path d="M17.9635 38.5722L16.3298 31.6113L14.2788 33.9346L15.2055 40.5002L17.9635 38.5722Z" fill="#E5C075"/>
<path d="M18.3371 36.6352L17.9638 38.5719L16.3301 31.611V28.0186L18.3371 36.6352Z" fill="#E8AE38"/>
<path d="M8.54343 9.1606L6.25972 12.1075L1.57812 4.47461L8.54343 9.1606Z" fill="#FFC145"/>
<path d="M3.47998 13.2892L8.31968 26.6049L4.96 12.6611L3.47998 13.2892Z" fill="#FBC966"/>
<path d="M20.9238 28.8485L23.6731 11.7119L22.9967 12.1028L20.9238 28.8485Z" fill="#FBC966"/>
<path d="M11.0601 34.1931L11.385 29.2129L11.4334 34.1931L12.2107 36.6876L11.0601 34.1931Z" fill="#FBC966"/>
<path d="M1.4375 30.7549L12.7638 39.2046L10.6294 39.007L1.4375 30.7549Z" fill="#FBC966"/>
<path d="M28.3987 26.8945L24.9907 32.2568L29.2463 26.7803L28.3987 26.8945Z" fill="#FFC145"/>
<path d="M0.90625 13.8466L3.47981 13.2888L1.57819 4.47461L0.90625 13.8466Z" fill="#E5C075"/>
<path d="M19.2198 11.5452C18.2756 11.6111 18.2229 11.6638 18.157 12.608C18.0912 11.6638 18.0385 11.6111 17.0942 11.5452C18.0385 11.4793 18.0912 11.4266 18.157 10.4824C18.2229 11.4266 18.2756 11.4793 19.2198 11.5452Z" fill="#FFDFA0"/>
<path d="M7.20812 9.74444C6.2639 9.81032 6.2112 9.86302 6.14532 10.8116C6.07944 9.86302 6.02674 9.81032 5.08252 9.74444C6.02674 9.68296 6.07944 9.63026 6.14532 8.68164C6.2112 9.61708 6.2639 9.68296 7.20812 9.74444Z" fill="#FFDFA0"/>
<path d="M15.3902 34.2107C14.4152 34.281 14.3582 34.3337 14.2923 35.3087C14.2264 34.3337 14.1693 34.281 13.1987 34.2107C14.1693 34.1449 14.2264 34.0922 14.2923 33.1172C14.3362 34.0746 14.3933 34.1273 15.3902 34.2107Z" fill="#FFDFA0"/>
<path d="M5.68025 29.2137C4.70528 29.2839 4.65258 29.3366 4.58671 30.3116C4.51644 29.3366 4.46374 29.2839 3.48877 29.2137C4.46374 29.1478 4.51644 29.0951 4.58671 28.1201C4.65258 29.0951 4.70528 29.1478 5.68025 29.2137Z" fill="#FFDFA0"/>
<path style="mix-blend-mode:color-dodge" d="M16.2644 39.1909C21.5738 39.1909 25.8779 34.8868 25.8779 29.5774C25.8779 24.268 21.5738 19.9639 16.2644 19.9639C10.955 19.9639 6.65088 24.268 6.65088 29.5774C6.65088 34.8868 10.955 39.1909 16.2644 39.1909Z" fill="url(#paint0_radial_264_2653)"/>
<path style="mix-blend-mode:color-dodge" d="M22.4167 14.4477C21.3495 19.6476 18.3588 23.4289 15.7325 22.8931C13.1062 22.3573 11.8414 17.702 12.9086 12.5022C13.9758 7.30238 16.9622 3.5167 19.5885 4.05249C22.2147 4.58828 23.4576 9.22596 22.4167 14.4477Z" fill="url(#paint1_radial_264_2653)"/>
</g>
<defs>
<radialGradient id="paint0_radial_264_2653" cx="0" cy="0" r="1" gradientUnits="userSpaceOnUse" gradientTransform="translate(16.2644 29.5774) scale(9.61353)">
<stop stop-color="#025663"/>
<stop offset="1"/>
</radialGradient>
<radialGradient id="paint1_radial_264_2653" cx="0" cy="0" r="1" gradientUnits="userSpaceOnUse" gradientTransform="translate(17.7607 13.5055) rotate(11.5346) scale(4.80772 9.61545)">
<stop stop-color="#025663"/>
<stop offset="1"/>
</radialGradient>
<clipPath id="clip0_264_2653">
<rect width="29.1875" height="40" fill="white" transform="translate(0.90625 0.5)"/>
</clipPath>
</defs>
</svg>
