<svg width="336" height="240" viewBox="0 0 336 240" fill="none" xmlns="http://www.w3.org/2000/svg">
<g clip-path="url(#clip0_242_379)">
<path d="M159.729 240V234.008L335.695 132.468V138.46L159.729 240Z" fill="#402055"/>
<path d="M159.876 234.008L20.0497 153.381C15.8254 150.631 12.3096 146.924 9.78765 142.56C7.26572 138.197 5.8088 133.3 5.53519 128.268V118.605C5.3404 116.805 5.63306 114.985 6.38253 113.337C7.132 111.689 8.31078 110.272 9.79555 109.235L185.732 7.66602C184.233 8.72413 183.046 10.166 182.297 11.8405C181.547 13.5149 181.262 15.3601 181.472 17.1826V26.8754C181.766 31.9026 183.232 36.7914 185.752 41.1517C188.272 45.5119 191.776 49.223 195.986 51.9886L335.695 132.615L159.876 234.008Z" fill="#190623"/>
<path d="M154.206 230.836C151.24 223.11 149.707 214.908 149.682 206.633C149.682 191.947 154.236 187.864 154.236 187.864L330.29 86.3247C330.29 86.3247 325.736 90.5543 325.736 105.064C325.757 113.343 327.301 121.546 330.29 129.267L154.206 230.836Z" fill="#F3DBB6"/>
<path d="M154.206 187.864L17.9346 109.206L193.9 7.66602L330.142 86.3247L154.206 187.864Z" fill="#F3DBB6"/>
<path d="M154.206 230.836L17.9639 152.295V109.206L154.235 187.864C151.708 190.214 150.239 197.175 149.945 200.994C149.143 211.133 150.598 221.325 154.206 230.836Z" fill="#ECC995"/>
<path d="M151.062 194.238C151.062 194.737 150.798 195.266 150.68 195.824C-16.2068 104.271 -25.6089 99.777 151.062 194.238Z" fill="#E8C085"/>
<path d="M149.74 209.13C-19.6148 116.284 -22.8761 115.139 149.74 207.309C149.711 207.925 149.711 208.513 149.74 209.13Z" fill="#E8C085"/>
<path d="M150.092 199.613C150.092 200.054 150.092 200.524 149.945 200.994C16.9353 128.033 7.85643 123.598 150.092 199.613Z" fill="#E8C085"/>
<path d="M151.062 219.439C13.7035 144.1 10.7947 143.072 150.768 217.795C150.739 218.382 150.856 218.911 151.062 219.439Z" fill="#E8C085"/>
<path d="M159.876 184.869L20.0498 104.242C14.6143 101.099 9.67821 100.805 6.12305 102.861L182.059 1.32183C185.615 -0.734222 190.551 -0.440503 195.986 2.67295L335.695 83.3289L159.876 184.869Z" fill="#5B287C"/>
<path d="M45.2891 93.5503L179.092 15.4497C180.914 15.4497 174.92 12.5125 305.433 87.7346L171.013 166.1L45.2891 93.5503Z" fill="#431561"/>
<path d="M171.012 167.803L42.3506 93.5505L178.74 13.9519C180.261 14.03 181.732 14.5171 183 15.3618L308.283 87.6761L171.012 167.803ZM48.2269 93.5505L171.1 164.455L302.406 87.6761C173.627 13.3351 180.708 17.1828 179.268 16.9185L48.2269 93.5505Z" fill="#FFC145"/>
<path d="M159.876 240L20.0499 159.373C14.3137 155.639 9.53907 150.604 6.11362 144.679C2.68816 138.754 0.708393 132.105 0.334961 125.272V115.609C0.334961 103.067 9.14938 97.9855 20.0499 104.242L159.876 184.868V190.743L20.0499 110.234C12.0582 105.622 5.53545 109.352 5.53545 118.605V128.268C5.80906 133.3 7.26598 138.197 9.78792 142.56C12.3098 146.924 15.8257 150.631 20.0499 153.381L159.876 234.008V240Z" fill="#431561"/>
<path d="M159.729 190.86V184.868L335.695 83.3289V89.3208L159.729 190.86Z" fill="#402055"/>
<path d="M170.894 134.73C194.261 134.73 213.204 115.794 213.204 92.4341C213.204 69.0747 194.261 50.1382 170.894 50.1382C147.527 50.1382 128.585 69.0747 128.585 92.4341C128.585 115.794 147.527 134.73 170.894 134.73Z" fill="#5B287C"/>
<path d="M204.801 21.6179C204.801 28.5497 195.252 35.4815 189.199 41.7965C187.997 42.9643 187.301 44.5566 187.26 46.2317C187.26 54.3091 204.154 62.4452 204.154 62.4452C172.98 69.1714 161.198 54.1329 160.816 46.9367C160.052 32.2506 190.198 24.3788 183.029 19.1212C175.86 13.8636 156.409 15.0091 156.409 15.0091C156.409 15.0091 181.09 2.23222 197.543 12.0719C202.832 15.3028 204.801 18.4457 204.801 21.6179Z" fill="#FFC145"/>
<path d="M135.784 102.362C135.648 105.416 134.628 108.366 132.846 110.851C132.846 110.851 113.043 97.1631 97.118 102.215C81.1933 107.267 62.918 116.666 45.7885 107.091C40.9406 104.418 39.207 101.216 39.207 98.2793C39.207 90.5838 50.6658 83.2407 50.6658 83.2407C50.5409 84.0965 50.482 84.9606 50.4895 85.8255C50.3119 88.4392 50.9118 91.0469 52.2137 93.3205C53.5155 95.5941 55.4612 97.4318 57.8056 98.6024C66.9138 102.744 80.6644 85.3261 105.991 85.7667C116.275 86.0017 135.784 90.6131 135.784 102.362Z" fill="#F9BC61"/>
<path d="M309.722 82.1833C309.722 89.8788 298.293 97.2512 298.293 97.2512C298.418 96.3954 298.477 95.5313 298.469 94.6665C298.67 92.0447 298.087 89.4224 296.795 87.132C295.503 84.8416 293.56 82.9864 291.212 81.8015C282.104 77.66 268.324 95.0777 243.026 94.6371C232.713 94.4315 213.204 89.7907 213.204 78.0712C213.335 75.025 214.357 72.084 216.142 69.612C216.142 69.612 235.975 83.2995 251.9 78.2181C267.824 73.1367 286.011 63.7963 303.229 73.3423C308.048 76.1327 309.722 79.1874 309.722 82.1833Z" fill="#F9BC61"/>
<path d="M191.167 166.129C191.167 166.129 166.487 178.877 150.033 169.066C144.862 165.953 142.894 162.781 142.894 159.638C142.894 152.677 152.443 145.745 158.466 139.43C159.07 138.857 159.555 138.17 159.893 137.409C160.231 136.648 160.415 135.827 160.434 134.995C160.434 126.947 143.54 118.811 143.54 118.811C174.714 112.055 186.496 127.093 186.878 134.319C187.642 149.005 157.496 156.877 164.636 162.134C171.776 167.392 191.167 166.129 191.167 166.129Z" fill="#F9BC61"/>
<path d="M194.988 81.9482H153.148V98.0442H194.988V81.9482Z" fill="#F2DDFF"/>
<path d="M194.988 57.8044H153.148V81.9484H194.988V57.8044Z" fill="#886D35"/>
<path d="M194.958 68.3784H162.315V81.9484H194.958V68.3784Z" fill="#FCDFA3"/>
<path d="M207.827 89.3796H140.279V105.476H207.827V89.3796Z" fill="#BE943F"/>
<path d="M140.279 89.3795H207.857V50.3733H140.279V89.3795ZM194.958 57.8045V81.9484H153.148V57.8045H194.958Z" fill="#F9BC61"/>
<path d="M163.344 65.5293C163.344 65.8895 163.237 66.2416 163.036 66.5411C162.836 66.8405 162.552 67.074 162.219 67.2118C161.886 67.3496 161.52 67.3857 161.167 67.3154C160.813 67.2451 160.489 67.0717 160.234 66.817C159.979 66.5623 159.805 66.2379 159.735 65.8846C159.665 65.5313 159.701 65.1652 159.839 64.8324C159.977 64.4997 160.21 64.2153 160.51 64.0152C160.809 63.8151 161.162 63.7083 161.522 63.7083C161.762 63.7043 162.001 63.7487 162.224 63.8388C162.446 63.9289 162.649 64.0629 162.819 64.2328C162.989 64.4027 163.123 64.605 163.213 64.8278C163.303 65.0505 163.347 65.2891 163.344 65.5293Z" fill="white"/>
<path d="M235.006 202.227C237.944 200.553 240.617 157.729 238.414 152.001C234.594 142.044 203.567 131.088 203.567 131.088L237.503 111.497C237.503 111.497 268.53 122.453 272.349 132.41C274.553 138.137 271.85 180.962 268.941 182.636L235.006 202.227Z" fill="#834B41"/>
<path d="M235.005 202.228C232.052 202.498 229.073 202.28 226.191 201.581L229.54 199.672L234.359 195.736C235.299 191.066 237.738 164.602 234.359 153.881C230.98 143.16 202.656 133.673 202.656 133.673L203.596 131.088C203.596 131.088 234.623 142.044 238.443 152.001C240.617 157.817 237.914 200.641 235.005 202.228Z" fill="#AD5442"/>
<path d="M227.748 151.619C227.748 151.619 223.076 150.767 225.368 134.73C227.66 118.693 249.49 114.786 256.16 117.518C259.711 118.716 262.747 121.089 264.769 124.244C260.518 122.793 255.982 122.374 251.537 123.023C247.092 123.671 242.865 125.369 239.207 127.974C226.426 136.786 231.274 148.535 231.832 149.269L227.748 151.619Z" fill="#F9BC61"/>
<path d="M235.534 121.777C235.534 121.777 242.086 129.531 242.439 129.59C244.399 129.62 246.337 129.166 248.08 128.268C249.49 127.123 248.344 124.714 248.344 124.714L240.147 118.047C240.147 118.047 237.15 117.195 235.534 121.777Z" fill="#FFCE6B"/>
<path d="M116.01 133.732C109.693 138.108 102.436 138.607 99.8206 134.848C99.6146 134.568 99.4467 134.261 99.3211 133.937C97.6758 130.089 100.673 124.127 106.49 120.074C112.807 115.668 120.064 115.168 122.679 118.928C124.736 121.865 123.355 126.565 119.741 130.677C118.609 131.824 117.358 132.848 116.01 133.732Z" fill="#4B2D5F"/>
<path d="M116.01 133.731C109.693 138.108 102.436 138.607 99.8207 134.848C99.6147 134.567 99.4468 134.261 99.3213 133.937C100.228 130.192 102.571 126.954 105.844 124.92C114.923 118.605 123.767 122.364 119.653 130.559C118.555 131.743 117.333 132.806 116.01 133.731Z" fill="#F3DBB6"/>
<path d="M114.188 120.426C113.101 120.632 112.161 120.426 112.043 119.78C111.926 119.134 112.69 118.575 113.747 118.341C114.805 118.106 115.775 118.341 115.892 118.987C116.01 119.633 115.246 120.191 114.188 120.426Z" fill="#F3DBB6"/>
<path d="M109.135 133.643C106.608 135.406 103.905 135.905 103.112 134.76C102.318 133.614 103.729 131.264 106.255 129.502C108.782 127.74 111.485 127.24 112.279 128.386C113.072 129.531 111.662 131.881 109.135 133.643Z" fill="#FFC145"/>
<path d="M68.236 96.8106C61.919 101.216 54.6617 101.716 52.0467 97.9561C51.8407 97.676 51.6728 97.3698 51.5473 97.0456C49.8726 93.1978 52.8695 87.2353 58.7164 83.1819C65.0334 78.7761 72.2906 78.2768 74.9055 82.0364C76.9622 84.9736 75.5813 89.6732 71.9674 93.7853C70.8354 94.9243 69.5845 95.9385 68.236 96.8106Z" fill="#4B2D5F"/>
<path d="M68.2355 96.8108C61.9185 101.217 54.6613 101.716 52.0463 97.9563C51.8403 97.6761 51.6724 97.37 51.5469 97.0457C52.4537 93.301 54.7963 90.0625 58.0696 88.0285C67.1485 81.7135 75.9922 85.4731 71.8788 93.6679C70.7805 94.843 69.5591 95.8967 68.2355 96.8108Z" fill="#F3DBB6"/>
<path d="M66.3843 83.5343C65.3265 83.74 64.357 83.5343 64.2395 82.8882C64.1219 82.242 64.8858 81.6545 65.9436 81.4489C67.0013 81.2433 67.9709 81.4489 68.0884 82.0657C68.206 82.6826 67.442 83.2994 66.3843 83.5343Z" fill="#F3DBB6"/>
<path d="M61.3604 96.752C58.8336 98.5144 56.1305 99.0137 55.3372 97.8682C54.5439 96.7227 55.9542 94.3729 58.481 92.6106C61.0078 90.8482 63.7109 90.3489 64.5042 91.4944C65.2975 92.6399 63.8872 94.9897 61.3604 96.752Z" fill="#FFC145"/>
<path d="M181.442 162.164C175.125 166.569 167.868 167.069 165.253 163.309C165.058 163.022 164.891 162.717 164.754 162.399C163.108 158.551 166.105 152.588 171.923 148.506C178.24 144.129 185.497 143.6 188.112 147.389C190.169 150.327 188.788 154.997 185.174 159.138C184.041 160.276 182.79 161.29 181.442 162.164Z" fill="#4B2D5F"/>
<path d="M181.443 162.164C175.126 166.57 167.868 167.069 165.253 163.309C165.058 163.022 164.891 162.717 164.754 162.399C165.661 158.654 168.003 155.416 171.277 153.382C180.355 147.066 189.229 150.826 185.086 159.021C183.986 160.195 182.765 161.248 181.443 162.164Z" fill="#F3DBB6"/>
<path d="M179.621 148.858C178.563 149.093 177.593 148.858 177.476 148.241C177.358 147.625 178.122 147.008 179.18 146.802C180.238 146.597 181.207 146.802 181.325 147.419C181.442 148.036 180.678 148.653 179.621 148.858Z" fill="#F3DBB6"/>
<path d="M174.567 162.076C172.041 163.838 169.338 164.367 168.544 163.221C167.751 162.076 169.161 159.726 171.688 157.963C174.215 156.201 176.918 155.702 177.711 156.818C178.505 157.934 177.124 160.313 174.567 162.076Z" fill="#FFC145"/>
<path d="M179.239 27.3454C172.922 31.7218 165.665 32.2505 163.05 28.4615C162.844 28.1917 162.676 27.8952 162.55 27.5803C160.875 23.7032 163.872 17.7407 169.719 13.6873C176.036 9.28149 183.294 8.78215 185.908 12.5418C187.965 15.479 186.584 20.1786 182.97 24.2907C181.832 25.431 180.582 26.4543 179.239 27.3454Z" fill="#4B2D5F"/>
<path d="M179.238 27.3454C172.921 31.7219 165.664 32.2506 163.049 28.4616C162.844 28.1917 162.676 27.8953 162.55 27.5804C163.45 23.8248 165.793 20.5747 169.073 18.5338C178.151 12.2187 186.995 16.0078 182.882 24.1732C181.777 25.3498 180.556 26.4126 179.238 27.3454Z" fill="#F3DBB6"/>
<path d="M177.505 14.04C176.448 14.2749 175.478 14.04 175.361 13.3938C175.243 12.7476 176.007 12.1895 177.065 11.9545C178.122 11.7196 179.092 11.9545 179.21 12.6007C179.327 13.2469 178.446 13.805 177.505 14.04Z" fill="#F3DBB6"/>
<path d="M172.363 27.2574C169.837 29.0197 167.133 29.5191 166.34 28.3736C165.547 27.228 166.957 24.8783 169.484 23.1159C172.011 21.3536 174.714 20.8543 175.507 21.9998C176.3 23.1453 174.89 25.4951 172.363 27.2574Z" fill="#FFC145"/>
<path d="M292.445 92.6986C286.128 97.0751 278.871 97.5744 276.256 93.8148C276.061 93.5277 275.894 93.2228 275.757 92.9042C274.111 89.0565 277.108 83.0939 282.926 79.0406C289.243 74.6348 296.5 74.1354 299.115 77.8951C301.172 80.8323 299.791 85.5318 296.177 89.6439C295.045 90.7913 293.794 91.8153 292.445 92.6986Z" fill="#4B2D5F"/>
<path d="M292.446 92.6985C286.128 97.075 278.871 97.5743 276.256 93.8147C276.061 93.5276 275.894 93.2227 275.757 92.9041C276.664 89.1594 279.006 85.9209 282.28 83.8869C291.358 77.5719 300.232 81.3315 296.089 89.5263C294.99 90.7099 293.769 91.7733 292.446 92.6985Z" fill="#F3DBB6"/>
<path d="M290.625 79.393C289.567 79.5986 288.597 79.393 288.48 78.7468C288.362 78.1006 289.126 77.5425 290.184 77.3076C291.242 77.0726 292.211 77.3076 292.329 77.9537C292.446 78.5999 291.682 79.158 290.625 79.393Z" fill="#F3DBB6"/>
<path d="M285.571 92.6104C283.044 94.3728 280.341 94.8721 279.695 93.7266C279.048 92.5811 280.312 90.2313 282.839 88.469C285.365 86.7066 288.068 86.2073 288.862 87.3528C289.655 88.4983 288.127 90.8481 285.571 92.6104Z" fill="#FFC145"/>
<path d="M103.846 178.289C103.846 178.289 85.8939 185.28 83.9253 193.592C81.9568 201.904 76.9325 213.947 71.8789 215.915C68.8505 217.094 65.9055 218.478 63.0645 220.056L80.0176 222.7L78.196 235.183C78.196 235.183 95.0022 225.549 99.2919 216.59C103.582 207.632 102.994 201.229 109.957 196.97C114.746 194.229 119.9 192.182 125.265 190.89L103.846 178.289Z" fill="#FFC145"/>
<path d="M83.0145 220.497L71.8496 218.764L72.8486 218.353C79.9883 215.562 85.13 199.966 86.4815 194.209C87.6274 189.45 99.4682 182.254 105.961 179.523L122.209 189.069C117.544 190.601 113.005 192.496 108.635 194.737C100.673 199.584 101.172 206.486 96.8826 215.298C94.5027 220.321 87.0692 226.107 81.5749 229.778L83.0145 220.497Z" fill="#5B287C"/>
</g>
<defs>
<clipPath id="clip0_242_379">
<rect width="335.331" height="240" fill="white" transform="translate(0.334961)"/>
</clipPath>
</defs>
</svg>
