<svg width="161" height="132" viewBox="0 0 161 132" fill="none" xmlns="http://www.w3.org/2000/svg">
<path d="M147.44 83.4741C146.613 83.471 145.791 83.3618 144.992 83.1492C144.945 83.1363 144.906 83.1055 144.882 83.0635C144.858 83.0215 144.851 82.9717 144.864 82.9249C144.877 82.8781 144.907 82.8381 144.949 82.8133C144.991 82.7886 145.041 82.781 145.088 82.7922C146.881 83.3075 148.795 83.201 150.52 82.4902C150.542 82.4804 150.566 82.4751 150.59 82.4746C150.614 82.4742 150.639 82.4785 150.661 82.4875C150.684 82.4964 150.704 82.5098 150.722 82.5267C150.739 82.5437 150.753 82.5639 150.762 82.5863C150.772 82.6082 150.777 82.6318 150.778 82.6557C150.778 82.6797 150.774 82.7035 150.765 82.7257C150.756 82.7479 150.742 82.768 150.725 82.785C150.709 82.8019 150.688 82.8153 150.666 82.8243C149.648 83.2625 148.549 83.4838 147.44 83.4741Z" fill="#622483"/>
<path d="M0.424805 73.991C0.424805 76.334 2.19115 81.5964 4.25038 83.5229C7.36667 85.6096 18.5688 94.6748 28.8192 104.696C39.2389 114.805 48.8394 125.49 54.6373 131.274C60.8744 128.295 75.2524 109.387 93.0761 107.849C94.696 109.259 96.2473 111.084 97.945 112.462C98.3712 112.81 98.8839 113.037 99.4286 113.118C99.9733 113.198 100.53 113.13 101.038 112.919C105.926 110.938 113.851 107.584 114.423 106.65C114.844 105.694 114.684 103.173 114.684 103.177C114.757 103.095 130.732 96.9628 155.503 98.9396C159.937 94.9814 160.953 92.9405 160.582 92.3135C160.907 91.5539 133.304 74.229 132.888 74.3663C99.8029 69.6712 74.3509 66.5412 36.8639 61.9697C37.1339 61.9743 12.3454 65.237 0.424805 73.991Z" fill="url(#paint0_linear_285_6124)"/>
<path style="mix-blend-mode:multiply" d="M59.1724 113.752C69.409 104.769 86.8712 97.5386 99.3135 103.881C88.276 91.9741 76.4561 90.3908 59.1724 113.752Z" fill="url(#paint1_linear_285_6124)"/>
<path style="mix-blend-mode:multiply" opacity="0.9" d="M111.266 100.885C117.727 90.5794 141.862 92.0437 142.113 91.9659C142.072 91.9659 130.069 87.4768 122.372 88.3051C110.868 90.8494 111.284 100.848 111.266 100.885Z" fill="url(#paint2_linear_285_6124)"/>
<g style="mix-blend-mode:multiply" opacity="0.58">
<path d="M4.25038 83.5316C7.36667 85.6183 18.5688 94.6834 28.8192 104.705C39.2389 114.813 48.4962 125.631 54.6373 131.283C60.8744 128.304 75.2524 109.395 93.0761 107.858C94.6869 109.258 96.229 111.061 97.913 112.434C98.3461 112.796 98.87 113.034 99.4281 113.12C99.9862 113.206 100.557 113.138 101.08 112.924C105.971 110.938 113.829 107.602 114.423 106.673C114.844 105.716 114.684 103.195 114.684 103.199C114.753 103.117 131.099 97.0447 155.503 98.9621C159.932 95.0038 160.953 92.9628 160.582 92.3359C153.805 94.5965 133.405 93.9284 123.118 95.5712C112.135 97.2735 109.82 102.042 109.792 102.046C106.791 103.09 103.798 104.167 100.814 105.277C100.787 105.309 92.9389 102.408 81.2196 105.959C69.5735 109.35 57.1404 122.35 56.8567 123.179C56.9207 123.531 19.182 85.632 0.424805 73.9951C0.424805 76.3426 2.19115 81.6051 4.25038 83.5316Z" fill="#0297CA"/>
</g>
<path d="M100.439 104.938C100.924 106.512 101.867 107.226 103.477 106.718C105.088 106.21 111.211 103.648 112.245 102.6C112.739 101.799 108.982 100.696 108.987 100.696C106.109 102.065 103.267 103.479 100.439 104.938Z" fill="#622483"/>
<path d="M102.516 107.058C101.427 107.058 100.686 106.367 100.228 104.99C100.216 104.949 100.219 104.905 100.235 104.866C100.252 104.827 100.282 104.794 100.32 104.775C103.184 103.306 106.063 101.878 108.868 100.528C108.89 100.518 108.914 100.513 108.939 100.513C108.963 100.513 108.988 100.518 109.01 100.528C110.19 100.894 112.144 101.59 112.405 102.276C112.434 102.345 112.445 102.42 112.437 102.494C112.43 102.568 112.405 102.64 112.364 102.702C111.284 103.809 105.134 106.363 103.496 106.903C103.179 107.002 102.849 107.055 102.516 107.058ZM100.64 105.031C101.13 106.486 102.013 106.967 103.386 106.546C104.951 106.052 111.074 103.489 112.08 102.469C112.083 102.444 112.083 102.42 112.08 102.395C111.938 102.02 110.708 101.43 108.982 100.89C106.237 102.208 103.436 103.599 100.64 105.031Z" fill="#622483"/>
<path d="M2.46162 80.6079C1.88504 77.8622 1.54641 76.4116 3.93053 77.8851C16.7709 85.9573 45.5726 110.229 54.322 122.47C54.4501 123.504 54.5691 125.536 54.6515 127.215C54.6515 127.567 55.0542 127.54 55.1366 127.183C55.5575 125.298 56.4453 122.827 58.3123 121.074C61.7352 117.825 72.1686 110.682 78.3875 107.78C80.8736 106.566 83.4575 105.564 86.1118 104.783C70.2375 108.041 57.4246 121.051 56.0518 120.667C14.0161 80.3974 -0.412151 73.6019 0.448147 73.9909C0.42069 73.9909 0.892035 78.4388 2.46162 80.6079Z" fill="#59C58B"/>
<path d="M54.6375 131.467C54.6135 131.467 54.5897 131.462 54.5677 131.453C54.5456 131.443 54.5258 131.429 54.5093 131.412C52.3311 129.211 49.8097 126.547 46.8902 123.468C41.7788 118.073 35.4135 111.359 28.6912 104.839C18.6239 95.0047 7.36684 85.8388 4.14988 83.6835C2.01744 81.6975 0.223633 76.3298 0.223633 73.9914C0.224303 73.9631 0.231211 73.9353 0.243868 73.91C0.256525 73.8847 0.274619 73.8625 0.296851 73.845C11.2153 65.8232 32.5626 62.4049 36.7314 61.8237H36.8092C36.8225 61.8192 36.837 61.8192 36.8503 61.8237C75.0512 66.4776 100.128 69.571 132.87 74.2157C134.572 74.7007 159.2 90.5156 160.578 92.0302C160.653 92.0971 160.705 92.1872 160.724 92.2865C161.09 93.1422 159.548 95.9107 155.576 99.0956C155.539 99.1233 155.494 99.1379 155.448 99.1368C130.737 97.3751 116.195 102.77 114.831 103.31C114.867 104.052 114.913 105.919 114.552 106.738C113.852 107.84 104.832 111.579 100.984 113.144C100.488 113.351 99.9463 113.423 99.4138 113.351C98.8814 113.28 98.3777 113.068 97.9544 112.737C96.9332 111.895 95.9629 110.994 95.0486 110.037C94.3713 109.36 93.6758 108.664 92.9756 108.042C80.5517 109.154 69.592 118.924 62.3161 125.394C59.09 128.273 56.5411 130.547 54.6558 131.444C54.6504 131.452 54.6443 131.46 54.6375 131.467ZM0.60802 74.0967C0.65378 76.3847 2.36065 81.5145 4.37412 83.3998C7.57735 85.5414 18.8756 94.7301 28.9475 104.578C35.6743 111.103 42.0396 117.821 47.1556 123.216C50.034 126.255 52.5233 128.881 54.6741 131.059C56.5045 130.144 58.9939 127.925 62.133 125.111C69.4547 118.594 80.4876 108.747 93.0626 107.662C93.0874 107.66 93.1122 107.663 93.1358 107.671C93.1594 107.679 93.1811 107.691 93.1999 107.708C93.9229 108.339 94.6459 109.081 95.3506 109.772C96.2548 110.717 97.2128 111.609 98.2198 112.444C98.5947 112.733 99.0393 112.918 99.5086 112.98C99.9779 113.042 100.455 112.978 100.892 112.796C108.594 109.675 113.847 107.232 114.268 106.564C114.538 105.955 114.565 104.436 114.501 103.223C114.502 103.189 114.509 103.155 114.523 103.123C114.537 103.091 114.558 103.063 114.584 103.04H114.62C115.568 102.633 129.978 96.9907 155.43 98.7936C159.521 95.4943 160.669 92.8859 160.408 92.4466C160.394 92.4199 160.386 92.3901 160.385 92.3597C160.042 91.7969 154.729 88.1909 146.785 83.1298C139.391 78.4119 133.373 74.7556 132.865 74.5909C100.128 69.9462 75.0558 66.8574 36.8687 62.2035H36.8046C32.6587 62.7893 11.4761 66.1618 0.60802 74.0967Z" fill="#622483"/>
<path d="M93.0762 107.854C95.5198 107.996 96.5586 108.019 97.9543 108.729C97.5561 109.776 98.4897 112.417 100.192 113.14C98.8237 113.131 95.4054 110.106 93.0762 107.854Z" fill="#622483"/>
<path d="M100.192 113.346C98.6775 113.346 95.0075 109.996 92.9575 108.006C92.9301 107.981 92.9113 107.948 92.9039 107.912C92.8965 107.876 92.9008 107.838 92.9163 107.804C92.9312 107.77 92.9563 107.741 92.9882 107.721C93.0202 107.702 93.0573 107.692 93.0947 107.695L93.47 107.718C95.6802 107.841 96.6732 107.901 98.046 108.587C98.0869 108.607 98.1187 108.642 98.1349 108.684C98.1511 108.727 98.1504 108.774 98.133 108.816C97.7532 109.827 98.6867 112.321 100.27 112.994C100.309 113.01 100.341 113.039 100.362 113.076C100.382 113.113 100.388 113.156 100.38 113.198C100.372 113.24 100.35 113.277 100.317 113.304C100.285 113.331 100.244 113.346 100.201 113.346H100.192ZM93.5752 108.07C95.8632 110.266 97.7943 111.827 99.0665 112.532C98.0552 111.461 97.5381 109.786 97.7669 108.825C96.5359 108.248 95.5612 108.184 93.5752 108.07Z" fill="#622483"/>
<path d="M99.9815 104.573C94.1241 97.7778 74.7583 94.2039 74.7583 94.1719C74.7583 94.1398 98.5721 90.0809 99.9815 104.573Z" fill="url(#paint3_linear_285_6124)"/>
<path d="M99.9816 104.757C99.9555 104.756 99.9299 104.75 99.9062 104.739C99.8826 104.728 99.8615 104.712 99.8443 104.693C94.8107 98.8628 79.545 95.3484 74.9826 94.4103C74.6257 94.3371 74.5845 94.328 74.5754 94.1861C74.5734 94.1413 74.5876 94.0973 74.6153 94.062C74.643 94.0268 74.6824 94.0026 74.7264 93.9939C74.8637 93.9665 88.7657 91.5549 96.0188 97.0095C97.2131 97.894 98.2019 99.0263 98.9175 100.329C99.6331 101.631 100.059 103.073 100.165 104.555C100.169 104.594 100.16 104.634 100.141 104.667C100.121 104.701 100.091 104.728 100.055 104.743C100.031 104.752 100.007 104.757 99.9816 104.757ZM75.7972 94.2044C80.9773 95.3164 94.559 98.6478 99.7345 104.029C99.5711 102.709 99.1423 101.435 98.4739 100.284C97.8054 99.1338 96.9112 98.1304 95.8449 97.3344C89.864 92.8041 79.1148 93.7743 75.7835 94.2044H75.7972Z" fill="#622483"/>
<path d="M8.9458 72.2383C27.7076 88.0578 58.3671 114.837 57.4108 115.656C57.2964 115.592 70.8506 100.495 84.0525 97.2419C96.0006 94.1576 98.5403 102.198 99.968 104.564C101.396 106.929 107.921 103.992 109.793 102.042C111.555 100.061 112.795 95.7776 121.668 93.4163C129.319 91.38 139.972 93.1601 154.711 90.9544C153.659 88.3277 150.543 82.626 150.593 82.6489C140.393 78.5304 134.069 74.8696 124.898 68.669C101.588 46.1274 64.0781 60.0615 29.7165 59.7778C29.6845 59.7778 24.9711 61.6722 16.7434 60.7616C13.896 64.4125 11.2912 68.2463 8.9458 72.2383Z" fill="url(#paint4_linear_285_6124)"/>
<path style="mix-blend-mode:multiply" d="M150.593 82.6592C150.593 82.6592 146.099 84.4667 138.068 81.1262C136.327 80.3795 134.497 79.8611 132.623 79.5841C117.567 77.5477 108.626 90.4385 108.964 90.681C108.507 90.6353 92.4906 76.3122 71.9853 71.1642C51.6585 66.2357 30.3432 59.9391 29.73 59.7881C29.7026 59.7881 29.1901 61.0968 23.2137 60.9596C34.7134 76.0605 64.3982 91.9257 69.4319 93.4907C63.7621 96.2363 63.1032 96.6939 63.1398 96.6939H63.2222C63.2222 96.6939 63.1489 96.7214 63.1398 96.6939C62.8469 96.7992 61.8219 97.3987 60.5314 101.815C60.3761 103.227 60.033 104.612 59.511 105.933C59.8679 104.276 60.2065 102.931 60.5314 101.815C60.774 99.5265 59.0763 95.6003 56.898 93.6829C47.3112 85.3179 20.7015 65.3114 17.2878 63.8333C15.3658 63.2018 11.9155 67.6772 9.70524 70.9308C9.20187 71.7545 8.92273 72.2441 8.9273 72.2395C27.6891 88.0589 58.3487 114.838 57.3923 115.657C57.2733 115.593 70.8367 100.497 84.0341 97.2431C95.9821 94.1588 98.5173 102.199 99.9496 104.565C101.382 106.931 107.903 103.993 109.774 102.043C111.536 100.062 113.339 95.8931 121.649 93.4175C129.364 91.1295 140.1 93.8019 154.693 90.9556C153.663 88.3381 150.542 82.6363 150.593 82.6592Z" fill="url(#paint5_linear_285_6124)"/>
<path d="M57.4243 115.848H57.3556C57.3214 115.835 57.2919 115.812 57.2707 115.781C57.2495 115.751 57.2377 115.716 57.2367 115.679C56.5503 114.228 27.6617 88.2455 8.83578 72.3894L8.79916 72.3483C8.75798 72.2842 8.68018 72.1652 11.0872 68.4632C12.3731 66.4726 14.3819 63.5028 16.6334 60.6839C16.6524 60.659 16.6776 60.6396 16.7065 60.6275C16.7355 60.6155 16.767 60.6112 16.7981 60.6153C23.9642 61.4115 28.4396 60.0844 29.6431 59.6589C29.6805 59.6425 29.7212 59.6347 29.7621 59.636C39.5045 59.7046 49.613 58.6384 59.3874 57.5951C84.5557 54.9135 108.301 52.3784 125.049 68.5776C133.831 74.5265 140.219 78.3109 150.675 82.5208C150.701 82.5306 150.725 82.5465 150.744 82.5671C150.763 82.5878 150.777 82.6127 150.785 82.6398C150.817 82.7176 151.014 83.0974 151.243 83.555C152.158 85.3168 154.093 88.9731 154.903 90.9408C154.915 90.9651 154.921 90.9917 154.921 91.0186C154.921 91.0454 154.915 91.072 154.903 91.0963C154.89 91.1204 154.872 91.1411 154.85 91.157C154.828 91.1729 154.802 91.1834 154.775 91.1879C147.573 92.5927 142.818 92.5241 138.224 92.4509C133.35 92.3776 128.747 92.3044 121.42 93.8237C114.895 95.1965 112.561 98.5599 111.014 100.788C110.691 101.279 110.339 101.751 109.962 102.202C108.479 103.745 104.141 105.886 101.569 105.625C101.23 105.619 100.897 105.533 100.597 105.374C100.297 105.215 100.04 104.988 99.8443 104.71C99.6841 104.449 99.5194 104.124 99.3272 103.754C97.808 100.83 94.6459 94.7435 84.1301 97.4571C70.8275 100.747 57.6988 115.656 57.589 115.798C57.5689 115.821 57.5428 115.837 57.5138 115.846C57.4847 115.855 57.4537 115.856 57.4243 115.848ZM9.17898 72.1973C17.7316 79.4045 29.6797 89.8334 40.406 99.4476C53.8458 111.501 56.802 114.549 57.4289 115.363C59.0625 113.51 71.4591 100.162 84.0066 97.0589C94.8061 94.2721 98.0596 100.532 99.6201 103.539C99.8077 103.905 99.9724 104.22 100.123 104.454C100.29 104.684 100.507 104.873 100.759 105.005C101.011 105.137 101.29 105.208 101.574 105.213C104.045 105.465 108.232 103.383 109.66 101.905C110.028 101.468 110.37 101.009 110.685 100.532C112.259 98.2441 114.643 94.8167 121.315 93.421C128.678 91.8743 133.519 91.9475 138.201 92.0207C142.726 92.0893 147.408 92.1626 154.455 90.8081C153.631 88.8129 151.81 85.358 150.918 83.6648C150.671 83.2072 150.538 82.9372 150.46 82.7862C139.995 78.5763 133.602 74.7736 124.788 68.811C108.141 52.717 84.4596 55.243 59.392 57.9154C49.6221 58.9542 39.5045 60.0295 29.7529 59.9563C28.467 60.4139 23.9688 61.7181 16.8256 60.9447C14.0408 64.5297 11.4867 68.2881 9.17898 72.1973Z" fill="#622483"/>
<path d="M57.5252 115.633C57.5011 115.632 57.4776 115.626 57.4558 115.616C57.434 115.605 57.4145 115.591 57.3984 115.573C57.3822 115.555 57.3698 115.534 57.3617 115.511C57.3536 115.489 57.3501 115.465 57.3513 115.441C57.452 113.77 59.7995 103.085 61.186 98.7015C61.2007 98.6555 61.2331 98.6172 61.2759 98.5949C61.3188 98.5726 61.3687 98.5681 61.4148 98.5825C61.4612 98.5982 61.4996 98.6314 61.5218 98.675C61.544 98.7186 61.5483 98.7692 61.5338 98.8159C60.0695 103.424 57.8089 113.972 57.7174 115.459C57.7162 115.483 57.7103 115.507 57.7 115.528C57.6897 115.55 57.6752 115.57 57.6574 115.586C57.6395 115.602 57.6187 115.614 57.596 115.623C57.5733 115.631 57.5492 115.634 57.5252 115.633Z" fill="#622483"/>
<path d="M56.4402 92.8261C56.4005 92.8268 56.3618 92.8139 56.3304 92.7895L52.8526 90.1766C45.5309 84.6853 34.4203 76.3523 25.5244 68.8842C25.4906 68.8492 25.4717 68.8025 25.4717 68.7538C25.4717 68.7051 25.4906 68.6584 25.5244 68.6234C25.5555 68.5866 25.5999 68.5636 25.6478 68.5593C25.6958 68.555 25.7435 68.5698 25.7807 68.6005C34.6674 76.0686 45.7552 84.3833 53.0906 89.8837L56.5684 92.4966C56.5991 92.5197 56.6218 92.5518 56.6332 92.5885C56.6447 92.6252 56.6443 92.6645 56.6322 92.701C56.62 92.7374 56.5967 92.7691 56.5656 92.7916C56.5344 92.814 56.497 92.8261 56.4585 92.8261H56.4402Z" fill="#622483"/>
<path d="M105.871 101.063C105.832 101.061 105.794 101.048 105.761 101.025C105.729 101.002 105.704 100.971 105.688 100.935C105.686 100.903 105.686 100.871 105.688 100.838C105.404 99.0355 103.569 89.856 95.0214 85.5865C88.5005 82.3833 80.4146 87.1973 72.5987 91.842C68.8326 94.0797 65.2771 96.1938 62.0372 97.3332C61.9911 97.349 61.9406 97.3458 61.8968 97.3244C61.8531 97.3029 61.8196 97.265 61.8038 97.2188C61.7881 97.1727 61.7912 97.1222 61.8127 97.0784C61.8342 97.0347 61.8721 97.0012 61.9182 96.9854C65.1215 95.8735 68.6633 93.7822 72.4111 91.5445C80.314 86.8449 88.4868 81.9897 95.1907 85.2753C103.885 89.6089 105.766 98.9623 106.054 100.793V100.843C106.062 100.865 106.065 100.888 106.064 100.911C106.063 100.934 106.057 100.956 106.047 100.976C106.036 100.997 106.022 101.015 106.004 101.03C105.987 101.045 105.966 101.056 105.944 101.063C105.921 101.07 105.895 101.07 105.871 101.063Z" fill="#622483"/>
<path d="M105.802 100.871C105.885 100.807 106.891 90.6844 113.906 83.4267C116.628 80.5377 120.22 78.6188 124.134 77.9629C135.08 76.2561 145.101 75.1349 156.967 66.7516C157.076 65.9588 157.042 65.1529 156.866 64.3721C139.898 65.7083 130.929 62.0246 119.713 56.0116C113.27 52.543 104.699 61.2832 98.2061 64.0929C100.769 75.6566 103.148 87.4216 105.802 100.871Z" fill="url(#paint6_linear_285_6124)"/>
<path opacity="0.56" d="M114.625 74.9478C115.65 75.4466 104.841 86.2919 109.184 85.6878C116.62 76.7416 120.862 75.4237 130.769 74.5726C148.438 73.1449 154.171 65.7591 154.039 65.75C153.906 65.7408 141.354 65.599 135.277 62.501C130.641 68.2988 114.497 74.9067 114.625 74.9478Z" fill="#FFFFB5"/>
<path d="M149.138 69.5984C152.717 67.5895 154.03 65.7546 154.021 65.75C153.943 65.75 141.336 65.599 135.259 62.501C134.789 63.1036 134.265 63.6626 133.694 64.1712C133.662 64.1712 141.395 64.8622 143.281 67.2875C145.02 69.6991 130.605 74.5406 130.733 74.5726C134.267 74.3089 137.767 73.7067 141.185 72.7742C143.907 71.9031 146.565 70.8419 149.138 69.5984Z" fill="#FFFFDD"/>
<path d="M105.802 101.053H105.738C105.709 101.042 105.683 101.024 105.663 101C105.643 100.975 105.63 100.947 105.624 100.916C102.906 87.142 100.567 75.615 98.0049 64.1428C97.9939 64.1009 97.9985 64.0565 98.0179 64.0177C98.0372 63.979 98.07 63.9486 98.1101 63.9323C100.037 63.104 102.132 61.7587 104.352 60.3309C109.678 56.9126 115.183 53.3753 119.801 55.8601C130.522 61.6077 139.45 65.5705 156.867 64.1977C156.903 64.1934 156.94 64.2009 156.972 64.219C157.004 64.2371 157.03 64.2649 157.045 64.2984C157.377 65.0981 157.417 65.9887 157.159 66.8152C157.146 66.8533 157.123 66.8867 157.091 66.9113C145.902 74.8141 136.302 76.2876 126.143 77.8481L124.175 78.1501C120.299 78.7968 116.743 80.6988 114.053 83.5636C110.008 87.7461 107.166 93.7956 106.054 100.6C105.995 100.966 105.995 100.975 105.931 101.026C105.892 101.049 105.847 101.059 105.802 101.053ZM98.3938 64.2023C100.888 75.3633 103.167 86.5792 105.793 99.8955C106.988 93.2877 109.811 87.4212 113.774 83.3165C116.521 80.3947 120.151 78.4558 124.107 77.7977L126.074 77.4957C136.174 75.9444 145.715 74.4801 156.812 66.6596C157.009 65.9779 156.988 65.2514 156.752 64.5821C139.363 65.932 130.376 61.9554 119.631 56.1942C115.202 53.8101 109.784 57.2879 104.53 60.6513C102.572 61.98 100.522 63.1667 98.3938 64.2023Z" fill="#622483"/>
<path d="M105.862 100.866C105.894 99.2777 107.125 84.4696 114.556 77.7337C122.093 70.8696 125.827 71.5926 131.606 67.1675C140.136 60.6879 147.206 45.0561 147.677 43.4499C140.305 32.9753 111.806 24.0749 95.4419 19.0732C93.4101 21.0318 93.433 21.0226 93.4238 21.0272C93.4925 20.9128 97.4141 25.9739 96.0551 41.0749C95.5151 48.6803 98.2836 63.4243 100.736 76.1641C103.29 88.8718 105.83 100.847 105.862 100.866Z" fill="url(#paint7_linear_285_6124)"/>
<path d="M105.862 101.05C105.824 101.05 105.788 101.039 105.757 101.018C105.732 100.968 105.714 100.916 105.702 100.862C105.702 100.862 105.702 100.83 105.702 100.784C105.098 98.4643 101.249 79.5058 100.59 76.2018C98.3756 64.7068 95.3417 48.9652 95.9045 41.0623C97.2133 26.4922 93.6165 21.4768 93.3785 21.1886C93.3519 21.1798 93.3292 21.162 93.3145 21.1382C93.2866 21.1017 93.2734 21.056 93.2776 21.0102C93.2819 20.9644 93.3032 20.9219 93.3373 20.8911C93.438 20.795 93.795 20.4335 95.3462 18.9417C95.3707 18.9198 95.4004 18.9045 95.4324 18.8973C95.4645 18.8901 95.4978 18.8912 95.5293 18.9005C110.049 23.3393 140.251 32.5738 147.843 43.3321C147.858 43.3553 147.869 43.3816 147.874 43.4092C147.878 43.4368 147.877 43.4651 147.87 43.4922C147.513 44.6957 140.516 60.625 131.73 67.2877C129.676 68.8239 127.441 70.104 125.077 71.0996C121.247 72.7192 117.732 75.0009 114.694 77.8401C106.846 84.9741 106.045 100.716 106.045 100.871C106.044 100.904 106.033 100.937 106.016 100.965C105.998 100.993 105.974 101.016 105.944 101.032C105.919 101.044 105.891 101.05 105.862 101.05ZM93.6989 21.033C94.5637 22.0992 97.4375 27.9337 96.2523 41.0944C95.694 48.9423 98.7188 64.6565 100.934 76.1332C103.025 86.6124 105.052 96.3182 105.771 99.6221C106.141 95.7187 107.798 83.6059 114.465 77.5975C117.524 74.7315 121.063 72.4265 124.921 70.7884C127.262 69.8008 129.475 68.5331 131.511 67.0131C140.059 60.5151 146.905 45.1762 147.49 43.4739C139.912 32.8575 109.999 23.7008 95.5064 19.2712C94.3441 20.3969 93.8819 20.8499 93.6989 21.033Z" fill="#622483"/>
<path style="mix-blend-mode:multiply" d="M111.815 79.2814C116.849 71.6943 120.51 72.6782 129.108 66.1573C137.515 59.8606 143.317 48.9559 143.564 44.0092C135.217 34.6374 115.673 25.9429 93.438 21.0283C93.5066 20.9139 97.4283 25.975 96.0692 41.0759C95.9555 43.0691 95.9846 45.0678 96.1562 47.0568C97.0348 54.1177 97.9866 60.817 99.094 67.3882C99.634 70.3306 100.201 73.2822 100.751 76.1651C103.125 88.0628 105.491 99.2467 105.825 100.716C105.825 100.766 105.848 100.816 105.862 100.867C106.154 96.6797 106.945 92.5427 108.219 88.5433C109.363 84.5164 109.93 82.2741 111.815 79.2814Z" fill="url(#paint8_linear_285_6124)"/>
<path style="mix-blend-mode:multiply" opacity="0.2" d="M112.268 71.5338C110.364 70.8886 110.387 53.0878 100.416 60.8442L105.907 99.9694C106.241 96.0826 107.008 92.2454 108.195 88.5293C109.344 84.5161 109.911 82.2601 111.797 79.2674C114.208 75.6294 116.309 73.9591 118.789 72.4902C117.141 72.3575 113.709 72.0143 112.268 71.5338Z" fill="url(#paint9_linear_285_6124)"/>
<path d="M40.978 21.4709C43.4262 21.3245 61.8631 36.2973 68.9789 60.2621C72.1821 70.183 77.0785 70.2882 83.9151 72.6449C90.7243 75.1754 98.9062 79.3168 105.926 99.4148C106.063 99.52 106.795 89.2743 107.788 77.285C108.553 65.2317 109.802 50.9132 105.638 39.6149C83.7595 19.9928 39.6784 17.4623 40.4655 17.9016C40.4974 19.1072 40.6694 20.305 40.978 21.4709Z" fill="url(#paint10_linear_285_6124)"/>
<path d="M105.93 99.6161C105.887 99.6158 105.845 99.6013 105.811 99.5749C105.784 99.5536 105.764 99.5251 105.752 99.4925C98.8878 79.8613 90.8523 75.4362 83.8509 72.837C82.9357 72.5121 82.0205 72.233 81.1556 71.963C75.6048 70.2333 71.5962 68.984 68.8003 60.3398C64.993 47.5269 58.1518 37.8302 53.0861 31.9683C47.1372 25.1042 42.0441 21.6035 40.9824 21.6768C40.9368 21.6796 40.8917 21.6651 40.8561 21.6363C40.8205 21.6075 40.797 21.5664 40.7903 21.5212C40.7033 20.9629 40.6163 20.5053 40.5386 20.1026C40.3791 19.4026 40.2917 18.688 40.2777 17.9702C40.2733 17.9475 40.2733 17.9242 40.2777 17.9015C40.2825 17.8658 40.2964 17.8319 40.318 17.803C40.3396 17.7742 40.3683 17.7514 40.4013 17.7368C40.8589 17.5492 51.9421 18.1944 65.3362 21.2375C77.5954 24.0151 94.5589 29.4423 105.761 39.5005C105.783 39.5206 105.801 39.5457 105.811 39.5737C109.742 50.2222 108.877 63.4424 108.099 75.1022L107.958 77.3216C107.61 81.4949 107.299 85.4532 107.042 88.8395C106.196 99.52 106.182 99.5246 106.004 99.6024C105.981 99.6132 105.956 99.6179 105.93 99.6161ZM41.1335 21.297C42.7214 21.5075 47.9014 25.3788 53.3698 31.7075C58.4584 37.6014 65.3316 47.3301 69.1526 60.2117C71.8983 68.6728 75.8199 69.8992 81.2609 71.5969C82.1349 71.8669 83.0318 72.146 83.9745 72.4709C90.9758 75.0747 98.9976 79.4677 105.857 98.6688C106.013 97.1679 106.315 93.3606 106.676 88.7891C106.946 85.4029 107.257 81.44 107.591 77.2712L107.733 75.0564C108.493 63.447 109.349 50.2908 105.445 39.7201C84.9263 21.3336 43.5954 17.8008 40.6118 18.0388C40.6348 18.7028 40.7206 19.3632 40.868 20.0111C40.9733 20.3817 41.0557 20.7982 41.1335 21.297Z" fill="#622483"/>
<path style="mix-blend-mode:multiply" d="M68.4068 58.5878C72.2141 62.7795 76.1861 67.1267 80.2313 71.4786C81.3845 71.8446 82.6109 72.2107 83.8922 72.6455C90.4863 75.0845 98.4394 79.116 105.276 97.7039C106.388 77.4778 107.418 55.38 102.796 42.201C86.0383 27.5576 53.0267 20.4556 40.9551 21.4715C43.3392 21.3205 61.0485 35.6252 68.4068 58.5878Z" fill="url(#paint11_linear_285_6124)"/>
<g style="mix-blend-mode:multiply" opacity="0.59">
<path d="M106.072 62.9532C105.455 67.2958 103.267 72.2014 101.377 72.6544C99.4875 73.1074 69.9583 59.2374 66.0869 52.3047C66.9472 54.3182 67.7297 56.4109 68.4344 58.583C72.2417 62.7747 76.2137 67.1219 80.259 71.4738C81.4121 71.8399 82.6385 72.2059 83.9198 72.6407C90.5139 75.0797 98.4671 79.1112 105.304 97.6991C105.931 86.0531 106.553 73.7847 106.072 62.9532Z" fill="#C730C7"/>
</g>
<path d="M103.643 44.9154C103.602 44.9149 103.563 44.9013 103.53 44.8765C103.498 44.8518 103.475 44.8172 103.464 44.7781C103.222 43.9087 102.952 43.0804 102.672 42.3071C97.2361 37.6761 90.0425 33.5302 81.2199 29.9837C81.1973 29.9752 81.1767 29.9622 81.1593 29.9454C81.1419 29.9287 81.128 29.9086 81.1186 29.8863C81.1092 29.8641 81.1044 29.8402 81.1045 29.816C81.1046 29.7918 81.1096 29.768 81.1192 29.7458C81.1375 29.7009 81.1728 29.6652 81.2174 29.6463C81.262 29.6274 81.3123 29.627 81.3572 29.6451C90.2164 33.2144 97.4695 37.3924 102.92 42.0599C102.942 42.0817 102.959 42.1083 102.97 42.1377C103.263 42.9294 103.537 43.7851 103.789 44.682C103.802 44.7281 103.796 44.7774 103.773 44.8193C103.75 44.8612 103.711 44.8924 103.665 44.9063L103.643 44.9154Z" fill="#622483"/>
<path d="M106.218 68.5363C106.195 68.5369 106.171 68.5328 106.149 68.5241C106.127 68.5154 106.106 68.5023 106.089 68.4857C106.072 68.4691 106.059 68.4492 106.049 68.4272C106.04 68.4053 106.035 68.3817 106.035 68.3579C105.935 61.2238 105.5 55.403 104.708 50.5616C104.703 50.514 104.715 50.466 104.743 50.4271C104.771 50.3881 104.812 50.361 104.859 50.3511C104.883 50.3472 104.907 50.348 104.931 50.3534C104.954 50.3589 104.976 50.3689 104.996 50.3829C105.015 50.397 105.032 50.4147 105.045 50.4352C105.057 50.4556 105.066 50.4783 105.07 50.5021C105.866 55.3619 106.301 61.2009 106.401 68.3487C106.401 68.3972 106.382 68.4438 106.348 68.4781C106.314 68.5125 106.267 68.5317 106.218 68.5317V68.5363Z" fill="#622483"/>
<path d="M98.7872 74.4117C92.3304 69.7624 69.9077 57.2743 64.1922 54.7346C52.7521 50.2135 47.5583 64.6921 19.5437 52.291C19.5437 52.8035 19.3973 55.1282 19.8915 56.5696C38.8638 75.2765 62.4259 86.8128 64.4073 87.9247C65.5056 88.4327 73.6281 88.3457 88.276 80.0127C101.089 84.5613 103.835 96.1708 105.862 100.866C102.814 84.4058 102.105 79.8755 98.7872 74.4117Z" fill="url(#paint12_linear_285_6124)"/>
<path d="M98.7872 74.4117C92.3304 69.7624 69.9077 57.2743 64.1922 54.7346C52.7521 50.2135 47.5583 64.6921 19.5437 52.291C19.5437 52.8035 19.3973 55.1282 19.8915 56.5696C38.8638 75.2765 62.4259 86.8128 64.4073 87.9247C65.5056 88.4327 73.6281 88.3457 88.276 80.0127C101.089 84.5613 103.835 96.1708 105.862 100.866C102.814 84.4058 102.105 79.8755 98.7872 74.4117Z" fill="url(#paint13_linear_285_6124)"/>
<path opacity="0.56" d="M92.9299 74.7777C94.9571 73.3042 97.0025 73.5468 98.8055 74.4437C98.8064 74.433 98.8064 74.4223 98.8055 74.4117C92.3487 69.767 69.926 57.2743 64.2106 54.7346C52.7704 50.2135 47.5766 64.6921 19.562 52.291C20.0608 53.0095 49.9104 79.0792 65.6429 85.9342C75.2709 85.4994 87.1961 78.8687 92.9299 74.7777Z" fill="#FFFFB5"/>
<path d="M105.862 101.049C105.826 101.05 105.79 101.04 105.76 101.02C105.73 101.001 105.706 100.972 105.692 100.939C105.422 100.321 105.148 99.5938 104.832 98.7564C102.759 93.2926 99.2949 84.1496 88.2941 80.2142C73.097 88.8447 65.2491 88.5152 64.3339 88.0942C64.1508 87.9935 63.8259 87.8196 63.3592 87.5771C41.687 76.2148 27.666 64.5138 19.7631 56.6979C19.7414 56.68 19.7255 56.6562 19.7174 56.6292C19.3101 55.4303 19.3376 53.6914 19.3559 52.7579C19.3559 52.552 19.3559 52.3918 19.3559 52.3003C19.3541 52.2692 19.3604 52.2382 19.374 52.2101C19.3876 52.1821 19.4081 52.158 19.4337 52.1401C19.4612 52.1257 19.4918 52.1182 19.5229 52.1182C19.554 52.1182 19.5846 52.1257 19.6121 52.1401C36.8638 59.7776 45.3341 57.215 52.1433 55.1558C56.2617 53.9111 59.831 52.8311 64.2561 54.5837C69.9075 57.096 92.4949 69.6847 98.8876 74.2608C98.9089 74.2744 98.9262 74.2933 98.938 74.3157C102.1 79.5232 102.905 83.8842 105.573 98.3262L106.031 100.834C106.039 100.878 106.031 100.924 106.007 100.962C105.983 101 105.946 101.028 105.903 101.04C105.89 101.046 105.876 101.049 105.862 101.049ZM88.2758 79.8298C88.2969 79.8251 88.3187 79.8251 88.3398 79.8298C99.5603 83.811 103.075 93.1004 105.175 98.6191C105.23 98.7716 105.285 98.9242 105.34 99.0767L105.216 98.404C102.562 84.0398 101.757 79.6834 98.6497 74.5491C92.2432 69.9364 69.7473 57.4118 64.1188 54.9087C59.8173 53.2109 56.4814 54.2177 52.2531 55.499C45.4211 57.5628 36.9325 60.1299 19.7265 52.5794C19.7265 52.6389 19.7265 52.703 19.7265 52.7716C19.7265 53.6868 19.6808 55.3434 20.056 56.4782C27.968 64.2575 41.9295 75.9356 63.5285 87.2613C63.9861 87.5084 64.3247 87.6823 64.494 87.7784C65.3223 88.1582 73.2663 88.3504 88.1842 79.8619C88.2106 79.8417 88.2426 79.8305 88.2758 79.8298Z" fill="#622483"/>
<path style="mix-blend-mode:multiply" opacity="0.6" d="M105.862 100.866C102.004 79.7754 95.9819 77.826 95.2223 77.2632C94.6274 76.8376 92.0832 77.5744 88.2759 80.0088C101.103 84.562 103.825 96.1714 105.862 100.866Z" fill="url(#paint14_linear_285_6124)"/>
<g style="mix-blend-mode:multiply" opacity="0.59">
<path d="M105.862 100.866C102.004 79.7754 95.9819 77.826 95.2223 77.2632C94.6274 76.8376 92.0832 77.5744 88.2759 80.0088C101.103 84.562 103.825 96.1714 105.862 100.866Z" fill="#C730C7"/>
</g>
<g style="mix-blend-mode:soft-light" opacity="0.78">
<path d="M94.49 77.6247C91.2867 78.7779 89.7309 79.1531 92.3163 81.0659C94.9018 82.9787 98.4437 83.0977 98.8876 82.576C99.3314 82.0544 96.1648 77.0253 94.49 77.6247Z" fill="#E85DAC"/>
</g>
<path d="M105.862 101.049C105.826 101.049 105.791 101.039 105.761 101.019C105.731 101 105.707 100.972 105.693 100.939C105.423 100.321 105.148 99.5937 104.832 98.7563C102.755 93.265 99.2816 84.1129 88.2167 80.1821C88.1849 80.1703 88.157 80.15 88.1361 80.1233C88.1152 80.0966 88.1021 80.0646 88.0983 80.0309C88.0945 79.9972 88.1002 79.9631 88.1146 79.9325C88.129 79.9018 88.1517 79.8757 88.1801 79.8572C91.5893 77.6698 94.5317 76.5441 95.3279 77.1116C95.4059 77.1649 95.4869 77.2137 95.5704 77.258C96.515 77.7925 97.359 78.4878 98.0644 79.3126C98.0971 79.3491 98.1141 79.397 98.1115 79.4459C98.1089 79.4948 98.0871 79.5407 98.0506 79.5735C98.0142 79.6063 97.9663 79.6232 97.9174 79.6206C97.8684 79.6181 97.8226 79.5962 97.7898 79.5598C97.1109 78.7627 96.2979 78.0906 95.3874 77.5737C95.2654 77.5066 95.1738 77.4517 95.1128 77.409C94.6552 77.075 92.3672 77.6561 88.7063 79.9624C99.6477 84.0077 103.112 93.1415 105.18 98.6236C105.496 99.4564 105.766 100.175 106.031 100.788C106.041 100.81 106.047 100.834 106.048 100.858C106.048 100.882 106.044 100.906 106.036 100.928C106.027 100.951 106.014 100.971 105.998 100.989C105.981 101.007 105.962 101.021 105.94 101.031L105.862 101.049Z" fill="#622483"/>
<path d="M65.6242 86.1183H65.5555C64.1232 85.5188 52.3857 79.1215 46.1577 74.0329C46.1364 74.0188 46.1183 74.0005 46.1046 73.979C46.0908 73.9576 46.0817 73.9335 46.0778 73.9083C46.0739 73.8831 46.0754 73.8574 46.082 73.8328C46.0886 73.8082 46.1002 73.7852 46.1162 73.7654C46.1322 73.7456 46.1522 73.7293 46.1749 73.7176C46.1975 73.7059 46.2223 73.6991 46.2478 73.6976C46.2732 73.6961 46.2987 73.6999 46.3226 73.7088C46.3464 73.7176 46.3682 73.7314 46.3865 73.7492C52.5275 78.7829 64.0454 85.0566 65.6516 85.7613C76.5564 84.3153 83.3335 80.8695 87.095 78.2337C87.1145 78.2195 87.1366 78.2094 87.1601 78.2037C87.1836 78.1981 87.2079 78.1972 87.2317 78.201C87.2555 78.2049 87.2783 78.2134 87.2989 78.226C87.3194 78.2387 87.3372 78.2553 87.3513 78.2749C87.3652 78.2947 87.3751 78.3171 87.3804 78.3407C87.3856 78.3643 87.3862 78.3888 87.3819 78.4126C87.3776 78.4364 87.3687 78.4592 87.3556 78.4795C87.3425 78.4999 87.3254 78.5175 87.3055 78.5312C83.5074 81.1807 76.6433 84.6631 65.6608 86.1137L65.6242 86.1183Z" fill="#622483"/>
<path d="M114.685 103.387C114.639 103.387 114.594 103.37 114.56 103.338C114.526 103.307 114.505 103.264 114.502 103.218C114.346 101.515 113.911 100.861 113.893 100.838C113.879 100.819 113.87 100.797 113.866 100.774C113.857 100.733 113.863 100.69 113.882 100.652C113.902 100.615 113.934 100.585 113.972 100.569C114.011 100.552 114.055 100.549 114.095 100.561C114.136 100.572 114.171 100.598 114.195 100.632C114.287 100.765 114.708 101.47 114.868 103.186C114.87 103.21 114.868 103.234 114.861 103.257C114.854 103.279 114.843 103.301 114.827 103.319C114.812 103.337 114.793 103.352 114.772 103.363C114.75 103.374 114.727 103.381 114.703 103.382L114.685 103.387Z" fill="#622483"/>
<g style="mix-blend-mode:color-dodge">
<path d="M141.587 94.258C141.417 94.5737 154.921 94.6836 156.344 94.5417C157.767 94.3998 159.314 93.4251 159.602 92.6289C154.619 93.2924 143.655 94.2214 143.046 94.2214C142.559 94.208 142.072 94.2202 141.587 94.258Z" fill="#59C58B"/>
</g>
<path d="M30.9928 63.0445H30.9608C30.925 63.0389 30.8917 63.023 30.8647 62.9988L30.7595 62.9072C29.135 61.5344 24.774 57.7912 19.4154 52.4235C19.3981 52.4065 19.3844 52.3862 19.375 52.3638C19.3657 52.3414 19.3608 52.3174 19.3608 52.2931C19.3608 52.2688 19.3657 52.2448 19.375 52.2224C19.3844 52.2 19.3981 52.1797 19.4154 52.1627C19.4497 52.1291 19.4957 52.1104 19.5436 52.1104C19.5915 52.1104 19.6375 52.1291 19.6717 52.1627C25.0257 57.5212 29.3729 61.2644 30.9928 62.6281C31.1576 62.7654 31.1896 62.7928 31.1713 62.8981C31.1629 62.9393 31.1406 62.9763 31.1081 63.003C31.0756 63.0297 31.0349 63.0443 30.9928 63.0445Z" fill="#622483"/>
<path d="M64.9565 87.362C64.9189 87.3627 64.882 87.3515 64.8512 87.33C64.8312 87.3162 64.8142 87.2987 64.8011 87.2783C64.788 87.258 64.7791 87.2352 64.7748 87.2114C64.7706 87.1876 64.7711 87.1631 64.7763 87.1395C64.7816 87.1159 64.7915 87.0935 64.8054 87.0737C65.0337 86.7375 65.2327 86.3823 65.4003 86.0121C65.4093 85.9893 65.4228 85.9686 65.44 85.9511C65.4572 85.9337 65.4777 85.9199 65.5003 85.9105C65.5229 85.9011 65.5472 85.8963 65.5717 85.8965C65.5962 85.8966 65.6204 85.9017 65.6429 85.9114C65.6651 85.9204 65.6852 85.9337 65.7021 85.9507C65.7191 85.9676 65.7324 85.9878 65.7414 86.01C65.7503 86.0322 65.7547 86.056 65.7543 86.0799C65.7539 86.1039 65.7487 86.1275 65.7389 86.1494C65.5606 86.5447 65.3494 86.9243 65.1074 87.2842C65.0899 87.3079 65.0672 87.3272 65.041 87.3407C65.0148 87.3542 64.9859 87.3615 64.9565 87.362Z" fill="#622483"/>
<g style="mix-blend-mode:multiply" opacity="0.74">
<path d="M40.4565 90.4639C40.4565 90.4639 56.8068 110.832 57.5252 111.097C58.2437 111.363 68.5535 99.4009 68.5535 99.4009L59.5295 105.922L40.4565 90.4639Z" fill="#C730C7"/>
</g>
<path d="M59.9727 103.781C60.1695 104.028 66.0772 99.9188 71.811 96.6424C61.9542 105.108 58.8424 107.122 58.1148 106.874C56.44 106.312 38.8954 89.2612 39.353 89.641C52.3078 99.7358 59.7805 103.534 59.9727 103.781Z" fill="url(#paint15_linear_285_6124)"/>
<path style="mix-blend-mode:multiply" d="M59.9727 103.781C60.1695 104.028 66.0772 99.9188 71.811 96.6424C61.9542 105.108 58.8424 107.122 58.1148 106.874C56.44 106.312 38.8954 89.2612 39.353 89.641C52.3078 99.7358 59.7805 103.534 59.9727 103.781Z" fill="url(#paint16_linear_285_6124)"/>
<path d="M58.2432 107.076C58.1796 107.078 58.1162 107.068 58.0556 107.048C57.3326 106.806 53.9372 103.845 47.9883 98.2121C47.906 98.1389 40.5019 91.1238 39.3259 89.8425L39.2526 89.783C39.2164 89.7481 39.1856 89.708 39.1611 89.664V89.5451L39.3716 89.4307L39.4769 89.5085C49.9743 97.6996 56.9116 101.768 59.1905 103.104C59.7167 103.415 59.9318 103.562 60.0325 103.612C60.3986 103.493 62.0368 102.454 63.7665 101.356C65.9173 99.983 68.8643 98.1252 71.7106 96.4961L71.9211 96.7935C61.7668 105.529 59.1264 107.076 58.2432 107.076ZM41.7054 91.6684C46.3638 96.1803 56.9162 106.275 58.1792 106.701C58.9251 106.952 62.952 103.955 70.1593 97.8186C67.9262 99.1456 65.7754 100.509 63.9725 101.653C60.211 104.037 60.0188 104.124 59.854 103.905C59.79 103.85 59.4559 103.653 59.0349 103.406C56.9116 102.175 50.8529 98.624 41.7054 91.6684Z" fill="#622483"/>
<path d="M71.8115 96.8253C71.7832 96.8246 71.7554 96.8177 71.7301 96.805C71.7047 96.7924 71.6825 96.7743 71.665 96.752C71.6359 96.7132 71.6234 96.6644 71.6303 96.6163C71.6371 96.5683 71.6628 96.5249 71.7016 96.4958C77.3027 92.2721 81.7232 90.7849 81.769 90.7711C81.8157 90.7566 81.8662 90.7609 81.9098 90.7832C81.9534 90.8054 81.9866 90.8438 82.0023 90.8901C82.0167 90.9362 82.0123 90.9862 81.99 91.029C81.9677 91.0719 81.9294 91.1042 81.8834 91.1189C81.8422 91.1189 77.472 92.6016 71.9213 96.7887C71.8895 96.8121 71.851 96.8249 71.8115 96.8253Z" fill="#622483"/>
<g style="mix-blend-mode:multiply" opacity="0.59">
<path d="M108.131 101.969C109.985 90.2269 127.03 89.2888 133.034 90.4786C123.191 89.0097 114.908 90.1034 112.268 92.1443C109.628 94.1852 108.058 100.66 108.131 101.969Z" fill="#C730C7"/>
</g>
<path d="M108.131 102.152H108.081C108.035 102.137 107.996 102.105 107.973 102.063C107.95 102.02 107.945 101.97 107.958 101.923C111.01 91.5448 119.819 89.8059 134 90.3047C134.048 90.3081 134.094 90.3299 134.127 90.3656C134.16 90.4013 134.178 90.4482 134.178 90.4969C134.178 90.5211 134.172 90.545 134.162 90.5671C134.152 90.5891 134.138 90.6089 134.12 90.6252C134.102 90.6414 134.08 90.6539 134.058 90.6617C134.035 90.6695 134.01 90.6726 133.986 90.6708C119.983 90.1765 111.293 91.8788 108.31 102.029C108.297 102.065 108.272 102.097 108.24 102.119C108.208 102.141 108.17 102.153 108.131 102.152Z" fill="#622483"/>
<path d="M39.3718 89.8235C39.326 89.8217 39.2824 89.8038 39.2483 89.7732C39.1751 89.7046 31.5102 82.8313 25.5476 79.0424C25.5248 79.0307 25.5047 79.0145 25.4886 78.9946C25.4725 78.9748 25.4608 78.9518 25.4541 78.9271C25.4474 78.9024 25.446 78.8766 25.4499 78.8514C25.4538 78.8261 25.4629 78.802 25.4768 78.7805C25.4906 78.759 25.5087 78.7406 25.53 78.7265C25.5514 78.7124 25.5754 78.703 25.6006 78.6988C25.6258 78.6946 25.6516 78.6957 25.6764 78.7021C25.7011 78.7084 25.7243 78.7199 25.7443 78.7358C31.7298 82.5385 39.4176 89.4346 39.4954 89.5032C39.5289 89.5374 39.5477 89.5834 39.5477 89.6313C39.5477 89.6792 39.5289 89.7252 39.4954 89.7595C39.4639 89.7959 39.4197 89.8188 39.3718 89.8235Z" fill="#622483"/>
<path d="M102.572 105.109C102.528 105.108 102.486 105.092 102.454 105.064C102.421 105.036 102.4 104.996 102.393 104.953C101.858 101.75 98.5629 96.5244 94.4216 95.3666C94.3749 95.3538 94.3352 95.323 94.3112 95.281C94.2872 95.2389 94.2808 95.1891 94.2935 95.1424C94.2993 95.119 94.3098 95.097 94.3243 95.0777C94.3389 95.0584 94.3572 95.0423 94.3781 95.0304C94.3991 95.0184 94.4223 95.0108 94.4463 95.008C94.4702 95.0052 94.4945 95.0074 94.5177 95.0143C98.8009 96.2086 102.201 101.576 102.755 104.894C102.758 104.918 102.758 104.942 102.752 104.965C102.747 104.989 102.737 105.011 102.723 105.031C102.709 105.05 102.691 105.067 102.67 105.079C102.65 105.092 102.627 105.101 102.604 105.104L102.572 105.109Z" fill="#622483"/>
<path style="mix-blend-mode:multiply" opacity="0.25" d="M53.91 27.2782C56.2896 29.8865 61.5932 38.0182 63.7531 38.2333C65.913 38.4483 66.0823 29.2001 62.6961 27.2782C59.3098 25.3562 50.7205 23.7958 53.91 27.2782Z" fill="url(#paint17_linear_285_6124)"/>
<path style="mix-blend-mode:multiply" opacity="0.25" d="M66.7364 38.2334C65.5512 41.4367 66.6357 42.0453 68.5668 39.8854C70.4979 37.7255 67.9216 35.0165 66.7364 38.2334Z" fill="url(#paint18_linear_285_6124)"/>
<path style="mix-blend-mode:multiply" opacity="0.2" d="M128.545 43.4556C127.428 48.0957 122.811 50.9282 124.614 53.6922C126.417 56.4561 137.67 53.1202 139.377 47.3269C141.083 41.5336 129.483 39.5568 128.545 43.4556Z" fill="url(#paint19_linear_285_6124)"/>
<path style="mix-blend-mode:multiply" opacity="0.2" d="M123.777 36.7516C122.496 40.0875 123.9 44.302 125.401 42.2154C126.902 40.1287 124.463 34.9577 123.777 36.7516Z" fill="url(#paint20_linear_285_6124)"/>
<path style="mix-blend-mode:multiply" opacity="0.25" d="M75.7282 77.9686C76.4695 76.4631 75.1379 72.4774 70.182 72.5872C69.0563 72.5872 69.999 74.4817 71.6281 76.2114C68.5466 75.3936 65.329 75.2237 62.1785 75.7126C53.8547 77.0855 56.3761 78.9708 58.3118 79.6252C61.7667 80.7875 74.694 83.0572 76.8081 80.6685C77.5037 79.854 77.0049 78.8655 75.7282 77.9686Z" fill="url(#paint21_linear_285_6124)"/>
<path style="mix-blend-mode:multiply" opacity="0.25" d="M34.0861 59.539C32.5577 60.8477 39.2478 63.7077 41.8882 61.9963C44.5286 60.2849 35.5412 58.308 34.0861 59.539Z" fill="url(#paint22_linear_285_6124)"/>
<path style="mix-blend-mode:multiply" opacity="0.2" d="M118.501 65.1545C117.128 68.0465 123.443 67.0444 125.333 64.3445C127.223 61.6446 119.773 62.4546 118.501 65.1545Z" fill="url(#paint23_linear_285_6124)"/>
<path d="M140.479 128.496C140.585 129.938 139.436 130.597 137.844 130.569C136.251 130.542 135.771 129.933 137.061 129.068C140.493 126.776 140.42 127.65 140.479 128.496Z" fill="#00FFFF"/>
<path d="M132.517 120.1C131.387 117.441 127.355 115.853 126.431 116.86C125.507 117.867 126.385 122.617 128.119 122.74C129.854 122.864 132.865 120.919 132.517 120.1Z" fill="#00FFFF"/>
<path d="M145.788 22.9542C143.839 23.1006 143.638 25.59 144.219 25.4527C144.8 25.3154 148.337 22.7391 145.788 22.9542Z" fill="#00FFFF"/>
<path d="M38.6309 51.3983C38.7361 49.9568 37.5875 49.2933 35.9951 49.3253C34.4026 49.3574 33.9221 49.9568 35.2126 50.8217C38.6629 53.1143 38.5714 52.2403 38.6309 51.3983Z" fill="#00FFFF"/>
<path d="M124.51 3.65755C124.679 1.30088 123.416 0.143142 122.263 0.651084C121.11 1.15903 124.427 4.77411 124.51 3.65755Z" fill="#00FFFF"/>
<defs>
<linearGradient id="paint0_linear_285_6124" x1="162.289" y1="87.9342" x2="20.8798" y2="98.5004" gradientUnits="userSpaceOnUse">
<stop stop-color="#82F296"/>
<stop offset="0.47" stop-color="#44AD85"/>
<stop offset="1" stop-color="#006272"/>
</linearGradient>
<linearGradient id="paint1_linear_285_6124" x1="65.9907" y1="101.538" x2="93.7765" y2="113.509" gradientUnits="userSpaceOnUse">
<stop offset="0.01" stop-color="#AE44E3"/>
<stop offset="1" stop-color="#FFB8E0"/>
</linearGradient>
<linearGradient id="paint2_linear_285_6124" x1="144.955" y1="93.984" x2="103.885" y2="94.826" gradientUnits="userSpaceOnUse">
<stop offset="0.01" stop-color="#E9408F"/>
<stop offset="1" stop-color="#FFACFF"/>
</linearGradient>
<linearGradient id="paint3_linear_285_6124" x1="95.8905" y1="113.291" x2="88.2256" y2="99.8873" gradientUnits="userSpaceOnUse">
<stop stop-color="#5C24FF"/>
<stop offset="0.65" stop-color="#7B1BB4"/>
<stop offset="1" stop-color="#8C168A"/>
</linearGradient>
<linearGradient id="paint4_linear_285_6124" x1="147.495" y1="69.543" x2="54.0336" y2="85.3487" gradientUnits="userSpaceOnUse">
<stop stop-color="#FEFFB0"/>
<stop offset="0.65" stop-color="#FFB49D"/>
<stop offset="1" stop-color="#FF8A92"/>
</linearGradient>
<linearGradient id="paint5_linear_285_6124" x1="44.1034" y1="74.0699" x2="124.084" y2="107.567" gradientUnits="userSpaceOnUse">
<stop offset="0.01" stop-color="#AE44E3"/>
<stop offset="1" stop-color="#FFB8E0"/>
</linearGradient>
<linearGradient id="paint6_linear_285_6124" x1="133.542" y1="56.2679" x2="121.068" y2="75.4095" gradientUnits="userSpaceOnUse">
<stop stop-color="#FEFFB0"/>
<stop offset="0.65" stop-color="#FFB49D"/>
<stop offset="1" stop-color="#FF8A92"/>
</linearGradient>
<linearGradient id="paint7_linear_285_6124" x1="126.449" y1="24.743" x2="102.846" y2="60.2577" gradientUnits="userSpaceOnUse">
<stop stop-color="#FEFFB0"/>
<stop offset="0.65" stop-color="#FFB49D"/>
<stop offset="1" stop-color="#FF8A92"/>
</linearGradient>
<linearGradient id="paint8_linear_285_6124" x1="107.052" y1="91.9113" x2="119.901" y2="25.5357" gradientUnits="userSpaceOnUse">
<stop offset="0.01" stop-color="#AE44E3"/>
<stop offset="1" stop-color="#FFB8E0"/>
</linearGradient>
<linearGradient id="paint9_linear_285_6124" x1="100.416" y1="79.4321" x2="118.807" y2="79.4321" gradientUnits="userSpaceOnUse">
<stop offset="0.01" stop-color="#8D1DC4"/>
<stop offset="1" stop-color="#FFC2E3"/>
</linearGradient>
<linearGradient id="paint10_linear_285_6124" x1="104.91" y1="33.7118" x2="76.8176" y2="55.805" gradientUnits="userSpaceOnUse">
<stop stop-color="#FEFFB0"/>
<stop offset="0.65" stop-color="#FFB49D"/>
<stop offset="1" stop-color="#FF8A92"/>
</linearGradient>
<linearGradient id="paint11_linear_285_6124" x1="73.6144" y1="89.252" x2="73.6144" y2="30.3078" gradientUnits="userSpaceOnUse">
<stop offset="0.01" stop-color="#AE44E3"/>
<stop offset="1" stop-color="#FFB8E0"/>
</linearGradient>
<linearGradient id="paint12_linear_285_6124" x1="61.7807" y1="80.5985" x2="67.7936" y2="54.364" gradientUnits="userSpaceOnUse">
<stop stop-color="#FFF9BF"/>
<stop offset="0.69" stop-color="#FFAEA1"/>
<stop offset="1" stop-color="#FF8A92"/>
</linearGradient>
<linearGradient id="paint13_linear_285_6124" x1="-10.9602" y1="70.6593" x2="80.0345" y2="77.139" gradientUnits="userSpaceOnUse">
<stop stop-color="#FEFFB0"/>
<stop offset="0.65" stop-color="#FFB49D"/>
<stop offset="1" stop-color="#FF8A92"/>
</linearGradient>
<linearGradient id="paint14_linear_285_6124" x1="93.4834" y1="101.114" x2="100.892" y2="79.0662" gradientUnits="userSpaceOnUse">
<stop stop-color="#FFC2E3"/>
<stop offset="0.99" stop-color="#8D1DC4"/>
</linearGradient>
<linearGradient id="paint15_linear_285_6124" x1="81.3246" y1="74.2884" x2="47.1827" y2="99.7724" gradientUnits="userSpaceOnUse">
<stop stop-color="#FEFFB0"/>
<stop offset="0.65" stop-color="#FFB49D"/>
<stop offset="1" stop-color="#FF8A92"/>
</linearGradient>
<linearGradient id="paint16_linear_285_6124" x1="46.1302" y1="98.4682" x2="77.4624" y2="96.0704" gradientUnits="userSpaceOnUse">
<stop offset="0.01" stop-color="#AE44E3"/>
<stop offset="1" stop-color="#FFB8E0"/>
</linearGradient>
<linearGradient id="paint17_linear_285_6124" x1="61.9319" y1="5.52363" x2="54.2487" y2="77.1846" gradientUnits="userSpaceOnUse">
<stop offset="0.01" stop-color="#8D1DC4"/>
<stop offset="1" stop-color="#FFC2E3"/>
</linearGradient>
<linearGradient id="paint18_linear_285_6124" x1="71.2575" y1="6.52141" x2="63.5743" y2="78.187" gradientUnits="userSpaceOnUse">
<stop offset="0.01" stop-color="#8D1DC4"/>
<stop offset="1" stop-color="#FFC2E3"/>
</linearGradient>
<linearGradient id="paint19_linear_285_6124" x1="135.72" y1="13.4321" x2="128.037" y2="85.0976" gradientUnits="userSpaceOnUse">
<stop offset="0.01" stop-color="#8D1DC4"/>
<stop offset="1" stop-color="#FFC2E3"/>
</linearGradient>
<linearGradient id="paint20_linear_285_6124" x1="127.502" y1="12.5534" x2="119.819" y2="84.2189" gradientUnits="userSpaceOnUse">
<stop offset="0.01" stop-color="#8D1DC4"/>
<stop offset="1" stop-color="#FFC2E3"/>
</linearGradient>
<linearGradient id="paint21_linear_285_6124" x1="6.5063" y1="52.9422" x2="105.061" y2="91.953" gradientUnits="userSpaceOnUse">
<stop offset="0.01" stop-color="#8D1DC4"/>
<stop offset="1" stop-color="#FFC2E3"/>
</linearGradient>
<linearGradient id="paint22_linear_285_6124" x1="8.10324" y1="48.9088" x2="106.658" y2="87.9242" gradientUnits="userSpaceOnUse">
<stop offset="0.01" stop-color="#8D1DC4"/>
<stop offset="1" stop-color="#FFC2E3"/>
</linearGradient>
<linearGradient id="paint23_linear_285_6124" x1="118.314" y1="64.7884" x2="125.64" y2="64.7884" gradientUnits="userSpaceOnUse">
<stop offset="0.01" stop-color="#8D1DC4"/>
<stop offset="1" stop-color="#FFC2E3"/>
</linearGradient>
</defs>
</svg>
