<svg width="34" height="50" viewBox="0 0 34 50" fill="none" xmlns="http://www.w3.org/2000/svg">
<g clip-path="url(#clip0_237_469)">
<path opacity="0.12" d="M16.9979 49.9999C24.766 49.9999 31.0632 48.5008 31.0632 46.6516C31.0632 44.8023 24.766 43.3032 16.9979 43.3032C9.22987 43.3032 2.93262 44.8023 2.93262 46.6516C2.93262 48.5008 9.22987 49.9999 16.9979 49.9999Z" fill="#401D56"/>
<g opacity="0.61">
<path d="M27.7715 13.1343L26.2287 16.783C26.1208 16.9867 26.0889 17.2222 26.1386 17.4474C26.1973 17.6698 26.3399 17.8609 26.5365 17.9804C26.9119 18.1718 27.5275 18.1118 27.7152 17.6688C28.2307 16.4526 28.7462 15.2364 29.2617 14.0202C29.3703 13.8166 29.4009 13.5804 29.348 13.3558C29.2868 13.1394 29.1442 12.9551 28.9501 12.8415C28.5748 12.6463 27.9592 12.7064 27.7715 13.1493V13.1343Z" fill="#F2DDFF"/>
</g>
<path opacity="0.2" d="M32.2682 37.4999C31.0876 40.2881 29.1659 42.6999 26.7117 44.4734C24.2575 46.247 21.3645 47.3146 18.3465 47.5604C15.3285 47.8063 12.3009 47.221 9.59196 45.8681C6.88306 44.5151 4.59637 42.4462 2.97998 39.8858C1.36358 37.3253 0.479209 34.3712 0.4228 31.3437C0.366391 28.3163 1.1401 25.3312 2.65999 22.7123C4.17988 20.0935 6.38791 17.9408 9.04453 16.4879C11.7012 15.035 14.7049 14.3373 17.7299 14.4706L20.305 8.38574C20.692 8.80675 21.1181 9.1901 21.5775 9.53064C23.8513 11.1863 26.4751 12.2973 29.2465 12.7776C29.8111 12.8676 30.3828 12.9053 30.9544 12.8902L28.3643 18.9638C30.8306 21.2847 32.5268 24.3054 33.2248 27.6193C33.9227 30.9332 33.5889 34.3814 32.2682 37.4999Z" fill="#5B287C"/>
<path opacity="0.64" d="M27.3847 6.47532C23.6309 4.87998 20.0761 4.72983 19.4792 6.13749C19.224 6.74559 19.5506 7.53764 20.3051 8.37097C20.6921 8.79198 21.1182 9.17533 21.5776 9.51586C23.8513 11.1716 26.4752 12.2825 29.2465 12.7629C29.8112 12.8528 30.3829 12.8905 30.9545 12.8755C32.0806 12.8379 32.8726 12.5001 33.1317 11.9145C33.7285 10.5069 31.1534 8.07067 27.3847 6.47532ZM22.6774 7.19604C22.6535 7.07022 22.6652 6.9402 22.7112 6.82067C23.0491 6.02863 25.0386 6.11496 27.1557 7.01211C29.2728 7.90926 30.7217 9.26436 30.3877 10.0714C30.3363 10.1874 30.2529 10.2863 30.1474 10.3567C29.483 10.8222 27.76 10.6495 25.9432 9.87998C24.1264 9.11046 22.8051 7.99935 22.6774 7.19604Z" fill="#5B287C"/>
<path d="M33.3234 4.3243C32.6327 4.3243 31.9421 4.30177 31.2514 4.25673C30.8277 4.24475 30.4069 4.18302 29.9976 4.0728C29.4059 3.84385 28.8387 3.55586 28.3047 3.21319C27.8317 2.95793 27.3362 2.75523 26.8595 2.51123C25.8163 1.96601 24.8934 1.21668 24.1455 0.307779C24.1853 0.196407 24.264 0.10312 24.367 0.0450173C24.4953 -0.0027561 24.6346 -0.0131692 24.7686 0.0149866C27.3735 0.337324 29.8835 1.19487 32.141 2.53376C32.6628 2.84156 33.2108 3.23571 33.3272 3.81754C33.356 3.98535 33.3547 4.15693 33.3234 4.3243Z" fill="#C19133"/>
<path d="M30.9361 9.09167C30.7108 9.42951 30.4706 9.75984 30.2228 10.0864C30.1065 10.2366 29.9901 10.3867 29.87 10.5331C29.1793 10.8259 27.5652 10.5707 25.8385 9.83867C24.2168 9.15549 22.9631 8.24708 22.5952 7.56014C22.6215 7.30489 22.6515 7.04963 22.6853 6.80939C22.7379 6.43402 22.7904 6.05864 22.8542 5.68327C23.1394 3.93106 23.5483 2.20125 24.0779 0.50684C24.1005 0.44678 24.1192 0.38672 24.1455 0.32666C24.8963 1.22919 25.8204 1.97205 26.8632 2.51134C27.34 2.75909 27.8355 2.96179 28.3084 3.2133C28.8405 3.56224 29.4064 3.85653 29.9976 4.09167C30.4069 4.2019 30.8277 4.26363 31.2514 4.27561C31.9421 4.31565 32.6327 4.33817 33.3234 4.34318C33.277 4.56324 33.2091 4.77822 33.1207 4.98507C32.5448 6.42968 31.8122 7.80678 30.9361 9.09167Z" fill="#FFC145"/>
<path d="M29.6857 36.1224C28.2161 39.3719 25.5349 41.9184 22.2141 43.2188C18.8932 44.5191 15.1958 44.4703 11.9104 43.0828C8.62506 41.6953 6.01194 39.0789 4.62855 35.7918C3.24516 32.5048 3.20102 28.8072 4.50553 25.488C4.86638 24.6217 5.31412 23.7941 5.84187 23.0181C6.38241 23.6449 6.84788 24.3431 7.51229 24.8274C8.69473 25.6945 10.4515 25.8559 11.1985 27.1209C11.8666 28.247 11.4687 29.97 12.516 30.7808C13.5633 31.5916 14.9447 30.8334 16.2097 30.6607C16.9852 30.5653 17.7719 30.6908 18.4792 31.0229C19.1864 31.3549 19.7855 31.88 20.2075 32.5376C20.7818 33.4648 21.0446 34.681 21.9943 35.214C23.4169 36.0098 25.0311 34.6922 26.5513 34.1104C27.7778 33.6665 29.1267 33.7027 30.3276 34.2118C30.1592 34.863 29.9447 35.5015 29.6857 36.1224Z" fill="#FF6B6C"/>
<path opacity="0.07" d="M18.5446 44.3882C16.1787 44.639 13.7884 44.2682 11.6096 43.3124C9.43094 42.3567 7.53926 40.8491 6.12151 38.9385C4.70376 37.028 3.809 34.7806 3.52559 32.4184C3.24219 30.0562 3.57997 27.661 4.50556 25.4693C4.86755 24.6094 5.31525 23.7882 5.84189 23.0181C6.27358 23.5173 6.65646 24.0616 7.12943 24.5196C6.97928 24.8124 6.83664 25.1164 6.70901 25.4242C5.85596 27.4434 5.50078 29.638 5.67341 31.8231C5.84603 34.0082 6.5414 36.1199 7.70091 37.98C8.86042 39.8402 10.4501 41.3943 12.336 42.5115C14.2218 43.6287 16.3486 44.2762 18.5371 44.3995L18.5446 44.3882Z" fill="#4F236C"/>
<g opacity="0.56">
<path d="M19.0515 40.8781C18.9528 41.1121 18.7869 41.3115 18.5749 41.4512C18.3628 41.5908 18.1141 41.6645 17.8601 41.6628C17.6062 41.6611 17.3585 41.5841 17.1483 41.4416C16.9381 41.2991 16.7749 41.0974 16.6794 40.8622C16.5838 40.6269 16.5601 40.3686 16.6114 40.1199C16.6626 39.8712 16.7865 39.6433 16.9673 39.465C17.1481 39.2867 17.3777 39.166 17.6271 39.1182C17.8765 39.0704 18.1344 39.0976 18.3684 39.1964C18.6812 39.3297 18.9287 39.5813 19.0567 39.8964C19.1847 40.2115 19.1828 40.5644 19.0515 40.8781Z" stroke="#F2DDFF" stroke-width="0.61" stroke-miterlimit="10"/>
<path d="M19.0588 37.0683C18.9426 37.1155 18.8149 37.1272 18.692 37.1019C18.569 37.0766 18.4564 37.0154 18.3683 36.926C18.2801 36.8367 18.2205 36.7232 18.1969 36.5999C18.1733 36.4767 18.1867 36.3492 18.2356 36.2336C18.2845 36.118 18.3665 36.0195 18.4714 35.9505C18.5763 35.8816 18.6992 35.8453 18.8247 35.8462C18.9502 35.8472 19.0726 35.8853 19.1764 35.9558C19.2803 36.0264 19.3608 36.1261 19.4079 36.2424C19.471 36.3982 19.4697 36.5727 19.4043 36.7276C19.3388 36.8824 19.2146 37.005 19.0588 37.0683Z" stroke="#F2DDFF" stroke-width="0.61" stroke-miterlimit="10"/>
<path d="M22.8576 39.9548C22.7567 40.1899 22.5885 40.3898 22.3741 40.5293C22.1598 40.6689 21.9089 40.7418 21.6531 40.7389C21.3974 40.7361 21.1482 40.6576 20.937 40.5133C20.7258 40.369 20.5621 40.1654 20.4665 39.9281C20.3708 39.6909 20.3476 39.4307 20.3997 39.1803C20.4518 38.9298 20.5769 38.7005 20.7591 38.521C20.9414 38.3416 21.1727 38.2202 21.424 38.1721C21.6752 38.1239 21.935 38.1513 22.1707 38.2506C22.3284 38.3166 22.4714 38.4132 22.5915 38.5348C22.7116 38.6564 22.8063 38.8007 22.8702 38.9592C22.9341 39.1177 22.9659 39.2874 22.9637 39.4583C22.9616 39.6292 22.9255 39.798 22.8576 39.9548Z" stroke="#F2DDFF" stroke-width="0.61" stroke-miterlimit="10"/>
</g>
<g opacity="0.5">
<path d="M16.6339 31.8695H16.9304C16.9304 31.8695 17.0656 31.8695 16.968 31.8695C17.1026 31.8915 17.2356 31.9228 17.3659 31.9634L17.5423 32.0235C17.6587 32.0685 17.4672 31.9859 17.5761 32.0235L17.6624 32.061C17.7847 32.1242 17.9026 32.1957 18.0153 32.275L18.0941 32.3275C18.019 32.275 18.1166 32.35 18.1241 32.3538L18.263 32.4814C18.3134 32.5274 18.361 32.5763 18.4057 32.6278L18.4695 32.6991L18.492 32.7292C18.5749 32.8395 18.6489 32.9563 18.7135 33.0783C18.7435 33.1314 18.7698 33.1866 18.7923 33.2434C18.7548 33.1571 18.7923 33.2734 18.7923 33.281L18.8261 33.3898C18.8584 33.4985 18.9316 33.5905 19.0303 33.6465C19.1289 33.7025 19.2454 33.7181 19.3554 33.6901C19.4646 33.6586 19.5572 33.5855 19.6133 33.4866C19.6694 33.3877 19.6846 33.2708 19.6556 33.1608C19.4473 32.5216 19.0404 31.9654 18.4943 31.5732C17.9482 31.181 17.2912 30.9731 16.6189 30.9799C16.559 30.9743 16.4987 30.9813 16.4417 31.0003C16.3848 31.0194 16.3324 31.0501 16.288 31.0906C16.2436 31.131 16.2081 31.1803 16.1838 31.2353C16.1595 31.2902 16.147 31.3496 16.147 31.4097C16.147 31.4698 16.1595 31.5292 16.1838 31.5842C16.2081 31.6391 16.2436 31.6884 16.288 31.7289C16.3324 31.7693 16.3848 31.8 16.4417 31.8191C16.4987 31.8382 16.559 31.8451 16.6189 31.8395L16.6339 31.8695Z" fill="#F2DDFF"/>
</g>
<g opacity="0.4">
<path d="M28.9349 34.7785C28.6131 34.6179 28.2604 34.5284 27.901 34.5161C27.5415 34.5038 27.1836 34.569 26.8516 34.7072C26.1946 34.9362 25.564 35.3566 24.8508 35.3941C24.791 35.3885 24.7307 35.3955 24.6737 35.4146C24.6167 35.4336 24.5643 35.4643 24.5199 35.5048C24.4755 35.5453 24.44 35.5945 24.4157 35.6495C24.3914 35.7044 24.3789 35.7639 24.3789 35.824C24.3789 35.884 24.3914 35.9434 24.4157 35.9984C24.44 36.0534 24.4755 36.1026 24.5199 36.1431C24.5643 36.1836 24.6167 36.2143 24.6737 36.2333C24.7307 36.2524 24.791 36.2593 24.8508 36.2538C25.5531 36.1625 26.234 35.949 26.8628 35.6231C27.3696 35.4167 27.9889 35.2252 28.5145 35.518C28.614 35.5758 28.7324 35.5916 28.8437 35.562C28.9549 35.5325 29.0498 35.4599 29.1076 35.3604C29.1653 35.2608 29.1811 35.1424 29.1516 35.0312C29.122 34.9199 29.0495 34.825 28.9499 34.7673L28.9349 34.7785Z" fill="#F2DDFF"/>
</g>
<g opacity="0.32">
<path d="M11.2399 28.198C11.0934 27.7971 10.8645 27.4313 10.568 27.1244C10.2699 26.8194 9.91034 26.5814 9.51315 26.4262C9.45754 26.4103 9.3993 26.4058 9.34191 26.4129C9.28452 26.42 9.22915 26.4386 9.17907 26.4675C9.08318 26.5264 9.01234 26.6186 8.98011 26.7265C8.95153 26.8383 8.9677 26.9568 9.02517 27.0568C9.08631 27.1507 9.17769 27.2209 9.28418 27.2558C9.363 27.2896 9.18281 27.2107 9.26164 27.2558L9.3217 27.282L9.43057 27.3384C9.50564 27.3796 9.57697 27.4247 9.64829 27.4697L9.74964 27.5411C9.79093 27.5748 9.66705 27.4772 9.72336 27.5411L9.77216 27.5823C9.83973 27.6387 9.89979 27.6987 9.95985 27.7588C10.0176 27.8165 10.0715 27.8779 10.1213 27.9427C10.0837 27.8902 10.1813 28.014 10.1213 27.9427C10.1326 27.9568 10.1426 27.9719 10.1513 27.9878C10.1776 28.0253 10.2038 28.0628 10.2264 28.1004C10.2714 28.1675 10.3115 28.2377 10.3465 28.3106L10.4065 28.4307C10.369 28.3331 10.4366 28.502 10.4065 28.4307C10.4137 28.4514 10.4225 28.4715 10.4328 28.4908C10.4471 28.5457 10.4723 28.5971 10.5068 28.6422C10.5414 28.6872 10.5846 28.7248 10.634 28.7528C10.6833 28.7808 10.7378 28.7986 10.7942 28.8052C10.8505 28.8117 10.9076 28.8069 10.9621 28.7911C11.0714 28.7595 11.1639 28.6865 11.22 28.5876C11.2762 28.4887 11.2914 28.3717 11.2624 28.2618L11.2399 28.198Z" fill="#F2DDFF"/>
</g>
<g opacity="0.56">
<path d="M11.5141 33.6564C11.3395 33.5938 11.1873 33.481 11.0768 33.3321C10.9664 33.1831 10.9025 33.0048 10.8933 32.8196C10.884 32.6344 10.9299 32.4506 11.025 32.2914C11.1202 32.1322 11.2604 32.0048 11.4279 31.9252C11.5954 31.8457 11.7827 31.8175 11.9662 31.8443C12.1497 31.8711 12.3212 31.9517 12.4589 32.0759C12.5966 32.2001 12.6945 32.3623 12.7401 32.542C12.7857 32.7217 12.7771 32.911 12.7153 33.0858C12.6741 33.2023 12.6103 33.3095 12.5275 33.4013C12.4448 33.493 12.3448 33.5676 12.2332 33.6206C12.1216 33.6736 12.0006 33.704 11.8772 33.7102C11.7538 33.7163 11.6304 33.698 11.5141 33.6564Z" stroke="#F2DDFF" stroke-width="0.45" stroke-miterlimit="10"/>
<path d="M14.2804 33.4951C14.2411 33.4127 14.227 33.3205 14.2401 33.2301C14.2532 33.1397 14.2927 33.0553 14.3538 32.9874C14.4149 32.9195 14.4947 32.8712 14.5832 32.8487C14.6717 32.8262 14.7649 32.8304 14.851 32.8609C14.9371 32.8913 15.0122 32.9466 15.0669 33.0198C15.1216 33.0929 15.1533 33.1806 15.1581 33.2718C15.1629 33.363 15.1406 33.4536 15.094 33.5321C15.0473 33.6106 14.9784 33.6735 14.896 33.7128C14.8414 33.7395 14.782 33.755 14.7213 33.7584C14.6607 33.7619 14.5999 33.7532 14.5426 33.733C14.4853 33.7127 14.4326 33.6812 14.3876 33.6404C14.3426 33.5996 14.3061 33.5502 14.2804 33.4951Z" stroke="#F2DDFF" stroke-width="0.45" stroke-miterlimit="10"/>
<path d="M12.3438 36.3929C12.1663 36.3307 12.0113 36.2173 11.8984 36.067C11.7855 35.9166 11.7197 35.7362 11.7094 35.5484C11.6992 35.3607 11.7449 35.1741 11.8407 35.0123C11.9366 34.8506 12.0783 34.7209 12.248 34.6398C12.4176 34.5587 12.6075 34.5297 12.7936 34.5566C12.9797 34.5835 13.1536 34.6651 13.2933 34.7909C13.433 34.9167 13.5322 35.0812 13.5784 35.2635C13.6245 35.4458 13.6155 35.6377 13.5525 35.8148C13.4684 36.0514 13.294 36.245 13.0675 36.3533C12.841 36.4617 12.5808 36.4759 12.3438 36.3929Z" stroke="#F2DDFF" stroke-width="0.45" stroke-miterlimit="10"/>
</g>
<path opacity="0.2" d="M29.6297 36.2499C28.687 38.5143 27.1522 40.4833 25.1865 41.9503C23.2207 43.4173 20.8964 44.3283 18.4573 44.5876C16.0182 44.847 13.5543 44.4452 11.324 43.4243C9.09366 42.4035 7.17916 40.8013 5.78133 38.7857C4.38349 36.7702 3.55382 34.4156 3.37935 31.969C3.20488 29.5224 3.69205 27.0739 4.78973 24.8804C5.88742 22.6869 7.55518 20.8292 9.61806 19.5022C11.6809 18.1752 14.0629 17.4279 16.5141 17.3385C17.0914 17.3173 17.6694 17.3336 18.2446 17.3873L21.5742 9.50439C22.7001 10.3493 23.9255 11.0528 25.2228 11.599C26.5115 12.1549 27.8627 12.5532 29.2469 12.7852L25.9173 20.6493C26.3578 21.0242 26.7729 21.428 27.1598 21.858C28.9002 23.7721 30.0573 26.1437 30.4949 28.6935C30.9325 31.2433 30.6323 33.865 29.6297 36.2499Z" fill="#5B287C"/>
<path opacity="0.09" d="M30.2903 41.0624C28.8277 42.9891 26.9612 44.5725 24.8219 45.7016C22.6825 46.8307 20.322 47.4781 17.906 47.5985C15.49 47.7188 13.0769 47.3091 10.8359 46.3981C8.59497 45.4872 6.58044 44.097 4.9336 42.3251C3.28676 40.5532 2.04749 38.4425 1.30269 36.141C0.557898 33.8395 0.325617 31.4029 0.622131 29.0021C0.918645 26.6013 1.73678 24.2944 3.01916 22.2433C4.30154 20.1922 6.01711 18.4464 8.04557 17.1284C5.67906 20.2374 4.48653 24.0822 4.67832 27.9847C4.87011 31.8872 6.43391 35.5965 9.09386 38.4585C11.7538 41.3204 15.339 43.151 19.217 43.6274C23.0951 44.1038 27.0168 43.1954 30.2903 41.0624Z" fill="#4F236C"/>
<path opacity="0.05" d="M30.9545 12.8756L29.9673 15.2104C29.403 15.1862 28.8404 15.1323 28.2818 15.049C26.8922 14.8451 25.5339 14.4668 24.239 13.9229C22.4216 13.1545 20.7553 12.069 19.3179 10.7172L20.3051 8.38232C20.6921 8.80333 21.1182 9.18668 21.5776 9.52722C23.8522 11.1838 26.4775 12.2948 29.2503 12.7742C29.814 12.8605 30.3845 12.8945 30.9545 12.8756Z" fill="#4F236C"/>
<g opacity="0.09">
<path d="M28.7397 10.6533C27.766 10.5266 26.8155 10.2611 25.9169 9.86504C24.2953 9.1781 23.0415 8.26969 22.6699 7.58651C22.7 7.33126 22.73 7.076 22.7638 6.83576C22.8138 6.45538 22.8701 6.08 22.9327 5.70963C23.2169 3.95723 23.6258 2.22736 24.1564 0.533207L24.2202 0.353027C24.6173 0.837698 25.0668 1.27705 25.5603 1.66309C25.0618 3.30476 25.1014 5.06287 25.6734 6.68041C26.2455 8.29794 27.3199 9.69009 28.7397 10.6533Z" fill="#4F236C"/>
</g>
<g opacity="0.61">
<path d="M26.0148 23.4423C26.2175 23.645 26.4089 23.8515 26.5929 24.0692L26.728 24.2344C26.9457 24.4971 26.6417 24.1068 26.7543 24.2682C26.8669 24.4296 26.9232 24.4971 27.002 24.6135C27.3301 25.1015 27.6164 25.6164 27.8579 26.1526C27.8917 26.2426 27.9142 26.2764 27.8579 26.1526L27.9367 26.3515C27.9893 26.4829 28.0343 26.618 28.0793 26.7532C28.1694 27.0234 28.2483 27.2974 28.3158 27.5715C28.3484 27.7091 28.3784 27.848 28.4059 27.9881C28.4247 28.0782 28.4397 28.1646 28.4547 28.2509C28.4697 28.3372 28.496 28.5137 28.4547 28.3447C28.4134 28.1758 28.4547 28.4048 28.4547 28.4348C28.4547 28.4649 28.4547 28.5775 28.4547 28.6488C28.4547 28.8065 28.4772 28.9679 28.4848 29.1293C28.5026 29.4602 28.6466 29.7717 28.8872 29.9996C29.1277 30.2276 29.4465 30.3546 29.7779 30.3546C30.1093 30.3546 30.4281 30.2276 30.6687 29.9996C30.9092 29.7717 31.0532 29.4602 31.0711 29.1293C30.9597 26.3064 29.7945 23.6278 27.8053 21.6218C27.5629 21.3794 27.2341 21.2432 26.8913 21.2432C26.5485 21.2432 26.2197 21.3794 25.9773 21.6218C25.7348 21.8642 25.5986 22.193 25.5986 22.5358C25.5986 22.8786 25.7348 23.2074 25.9773 23.4498L26.0148 23.4423Z" fill="#F2DDFF"/>
</g>
<g opacity="0.63">
<path d="M30.3504 34.1216C30.6058 34.1216 30.8554 34.0459 31.0678 33.904C31.2801 33.7621 31.4456 33.5605 31.5434 33.3245C31.6411 33.0886 31.6667 32.8289 31.6169 32.5784C31.567 32.3279 31.444 32.0979 31.2635 31.9173C31.0829 31.7367 30.8528 31.6137 30.6023 31.5639C30.3518 31.5141 30.0922 31.5396 29.8562 31.6374C29.6203 31.7351 29.4186 31.9006 29.2767 32.113C29.1348 32.3253 29.0591 32.575 29.0591 32.8304C29.0639 33.1713 29.2015 33.497 29.4427 33.7381C29.6838 33.9792 30.0094 34.1168 30.3504 34.1216Z" fill="#F2DDFF"/>
</g>
<g opacity="0.5">
<path d="M29.3665 3.31827C28.9911 4.2492 28.582 5.17263 28.2404 6.11482C28.069 6.53135 27.9725 6.97482 27.9551 7.42488C27.9551 7.68389 27.9776 8.27698 28.2929 8.37458C28.6082 8.47218 28.8335 7.97293 28.9573 7.78149C29.455 7.0287 29.8537 6.21495 30.1435 5.36032C30.2524 5.03749 30.3575 4.60956 30.0722 4.36557C30.0223 4.31225 29.9598 4.27223 29.8906 4.24912C29.8213 4.22601 29.7473 4.22054 29.6754 4.23321C29.6035 4.24589 29.5358 4.2763 29.4786 4.32169C29.4214 4.36709 29.3764 4.42603 29.3477 4.4932C29.1193 4.97748 28.931 5.47966 28.7847 5.9947C28.7434 6.12608 28.9498 6.18239 28.9949 6.05101C29.1354 5.58944 29.3008 5.13582 29.4904 4.69215C29.5467 4.56827 29.5992 4.41437 29.7794 4.44064C29.8269 4.45228 29.8713 4.47408 29.9095 4.50454C29.9477 4.535 29.9789 4.57339 30.0009 4.61707C30.1285 4.86107 29.9783 5.1914 29.8958 5.42413C29.6066 6.22992 29.2182 6.99657 28.7396 7.70641C28.6495 7.84155 28.3642 8.35581 28.2404 7.98043C28.1685 7.74482 28.143 7.49752 28.1653 7.25221C28.2163 6.82291 28.3288 6.40319 28.4994 6.00596C28.8447 5.12383 29.2126 4.25296 29.5729 3.37833C29.6217 3.24695 29.4153 3.1944 29.3627 3.31827H29.3665Z" fill="#C19133"/>
<path d="M31.2588 3.6373C31.1355 4.28046 30.9468 4.90935 30.6957 5.51417L29.9938 7.39105L29.2881 9.26793C29.1942 9.51943 29.0929 9.92484 28.8301 10.06C28.3008 10.334 28.2033 9.5457 28.192 9.23039C28.1873 9.20545 28.174 9.18293 28.1545 9.16673C28.135 9.15053 28.1104 9.14166 28.085 9.14166C28.0596 9.14166 28.035 9.15053 28.0155 9.16673C27.996 9.18293 27.9827 9.20545 27.978 9.23039C27.978 9.68084 28.1432 10.4316 28.7701 10.3115C29.3969 10.1914 29.5208 9.22664 29.701 8.78369L30.6545 6.24991C31.0095 5.43578 31.2824 4.58823 31.469 3.71988C31.4878 3.58474 31.2813 3.52468 31.2588 3.66357V3.6373Z" fill="#C19133"/>
<path d="M27.0205 1.46407L25.8943 4.66977C25.7667 5.04515 25.5565 5.47683 25.6991 5.86347C25.7574 6.01167 25.8692 6.13254 26.0125 6.20208C26.1558 6.27162 26.3199 6.28474 26.4724 6.23884C26.8891 6.13749 27.1443 5.72458 27.3545 5.38299C27.6124 4.96227 27.8311 4.51871 28.0077 4.05791C28.1961 3.58409 28.3357 3.09231 28.4244 2.59019C28.4619 2.32368 28.4244 1.9483 28.0978 1.91452C27.6548 1.86947 27.4108 2.46257 27.2644 2.77413C27.0256 3.28684 26.8358 3.821 26.6976 4.36947C26.6937 4.38567 26.6935 4.40253 26.6969 4.41884C26.7003 4.43515 26.7073 4.4505 26.7173 4.46379C26.7274 4.47707 26.7402 4.48796 26.755 4.49567C26.7698 4.50338 26.7861 4.50771 26.8027 4.50836C26.9528 4.50252 27.0946 4.43853 27.1983 4.32993C27.302 4.22134 27.3594 4.07667 27.3583 3.92653C27.3536 3.90159 27.3403 3.87907 27.3208 3.86287C27.3013 3.84666 27.2767 3.8378 27.2513 3.8378C27.2259 3.8378 27.2013 3.84666 27.1818 3.86287C27.1623 3.87907 27.149 3.90159 27.1443 3.92653C27.1447 4.0205 27.1098 4.11119 27.0466 4.1807C26.9833 4.2502 26.8963 4.29345 26.8027 4.30191L26.9078 4.44079C26.9923 4.06696 27.1027 3.69945 27.2382 3.34094C27.3536 2.96163 27.5353 2.60578 27.7749 2.28989C27.835 2.216 27.9162 2.16228 28.0077 2.13599C28.1691 2.10971 28.2141 2.25235 28.2179 2.37998C28.2067 2.57842 28.1727 2.77492 28.1165 2.96557C27.9454 3.71876 27.6606 4.44151 27.2719 5.10896C27.1166 5.47511 26.8551 5.78629 26.5212 6.00236C26.4317 6.04989 26.3292 6.06717 26.2291 6.05161C26.1289 6.03604 26.0365 5.98848 25.9656 5.91602C25.9125 5.83051 25.8795 5.73404 25.8691 5.63389C25.8587 5.53375 25.8711 5.43255 25.9056 5.33794C26.0098 4.96451 26.1351 4.5973 26.281 4.23809C26.5938 3.33719 26.9078 2.43754 27.2231 1.53914C27.2682 1.40776 27.058 1.35145 27.0129 1.47908L27.0205 1.46407Z" fill="#C19133"/>
<path d="M25.0984 0.686779C25.226 1.98558 24.8694 3.23933 24.4378 4.44053C24.2313 5.02236 24.0136 5.60044 23.7996 6.18227C23.6194 6.67402 23.3604 7.20705 23.5707 7.72882C23.6232 7.85645 23.8297 7.80014 23.7771 7.67251C23.5481 7.09819 23.9498 6.39999 24.1525 5.8632C24.3552 5.32642 24.5842 4.7108 24.7794 4.12522C25.2021 3.02671 25.3851 1.85053 25.3161 0.675518C25.3161 0.540383 25.0872 0.536629 25.1022 0.675518L25.0984 0.686779Z" fill="#C19133"/>
<path d="M25.7368 1.42238C25.703 3.46818 24.7008 5.36007 24.697 7.40586C24.697 7.73619 24.6595 8.21667 24.9372 8.45691C25.055 8.54099 25.1945 8.58925 25.339 8.59591C25.4835 8.60257 25.6269 8.56734 25.7518 8.49445C26.0984 8.24472 26.3887 7.92502 26.6039 7.55601C26.9192 7.12809 27.2195 6.6964 27.5086 6.24971C28.1659 5.2383 28.7541 4.18359 29.2691 3.0928C29.3291 2.96893 29.1415 2.85631 29.0814 2.98394C28.5935 4.01886 28.0406 5.02186 27.426 5.98694C27.1082 6.48744 26.7728 6.97543 26.42 7.45091C26.2515 7.70845 26.0579 7.94862 25.8419 8.16788C25.5153 8.46067 25.0611 8.49821 24.9448 7.99145C24.8595 7.40775 24.8837 6.81329 25.0161 6.23845C25.1062 5.69791 25.2413 5.16487 25.3914 4.63184C25.7082 3.58972 25.8998 2.51357 25.962 1.42613C25.9573 1.40119 25.9441 1.37867 25.9245 1.36247C25.905 1.34627 25.8804 1.3374 25.855 1.3374C25.8297 1.3374 25.8051 1.34627 25.7855 1.36247C25.766 1.37867 25.7528 1.40119 25.7481 1.42613L25.7368 1.42238Z" fill="#C19133"/>
<path d="M32.4221 3.45694C32.0217 4.33782 31.6463 5.22746 31.2959 6.12585C31.127 6.55754 30.9619 6.98922 30.8004 7.42465C30.7104 7.67616 30.5227 8.05153 30.7029 8.31054C30.7276 8.35131 30.7631 8.38444 30.8055 8.4063C30.8479 8.42816 30.8955 8.43789 30.9431 8.43441C31.0782 8.40814 31.1571 8.20168 31.2246 8.09282C31.4574 7.71745 31.6751 7.36459 31.8778 6.98546C32.2975 6.1926 32.6479 5.36495 32.9251 4.51174C32.9701 4.38036 32.7637 4.32405 32.7186 4.45544C32.2727 5.8087 31.6411 7.0935 30.8417 8.273L30.9356 8.2167C30.6616 8.2167 31.0932 7.24072 31.1308 7.13562C31.2772 6.76024 31.4273 6.35483 31.5812 5.9682C31.9041 5.16114 32.2494 4.36159 32.6098 3.56579C32.6698 3.44192 32.4821 3.33306 32.4258 3.45694H32.4221Z" fill="#C19133"/>
<path d="M24.3779 0.581706C24.3993 1.58346 24.2233 2.57962 23.8599 3.51339C23.5446 4.46684 23.218 5.42029 22.899 6.37375C22.8539 6.50513 23.0604 6.56519 23.1054 6.43381C23.4395 5.44282 23.7773 4.45558 24.1039 3.46459C24.4564 2.54508 24.6284 1.56629 24.6107 0.581706C24.6107 0.442817 24.3855 0.442817 24.393 0.581706H24.3779Z" fill="#C19133"/>
</g>
<g opacity="0.69">
<g opacity="0.39">
<path d="M26.6978 11.4903C27.9928 11.9258 29.5056 12.3499 30.7518 11.5391C31.1009 11.3139 30.7781 10.7508 30.4252 10.9798C29.3329 11.6893 27.9966 11.2426 26.8704 10.8672C26.4951 10.7321 26.3036 11.3552 26.6978 11.4903Z" fill="#F2DDFF"/>
</g>
<g opacity="0.39">
<path d="M25.4966 11.0436C25.5823 11.0436 25.6644 11.0096 25.7249 10.949C25.7855 10.8885 25.8195 10.8064 25.8195 10.7208C25.8195 10.6352 25.7855 10.553 25.7249 10.4925C25.6644 10.432 25.5823 10.3979 25.4966 10.3979C25.411 10.3979 25.3289 10.432 25.2684 10.4925C25.2078 10.553 25.1738 10.6352 25.1738 10.7208C25.1738 10.8064 25.2078 10.8885 25.2684 10.949C25.3289 11.0096 25.411 11.0436 25.4966 11.0436Z" fill="#F2DDFF"/>
</g>
<g opacity="0.39">
<path d="M20.9056 6.3025C20.7629 6.5459 20.6973 6.82682 20.7174 7.10825C20.7375 7.38968 20.8424 7.65843 21.0183 7.87907C21.3587 8.34957 21.7645 8.76919 22.2232 9.12532C22.2856 9.18283 22.3673 9.21475 22.4522 9.21475C22.537 9.21475 22.6188 9.18283 22.6812 9.12532C22.7403 9.06378 22.7734 8.98172 22.7734 8.89634C22.7734 8.81096 22.7403 8.7289 22.6812 8.66736C22.2944 8.36501 21.9441 8.01857 21.6376 7.63508C21.5068 7.47974 21.4142 7.29589 21.3673 7.09829C21.3473 7.01777 21.3456 6.93377 21.3625 6.85253C21.3794 6.77129 21.4144 6.69491 21.4649 6.62907C21.5075 6.55473 21.5192 6.46664 21.4974 6.38379C21.4757 6.30093 21.4222 6.22994 21.3486 6.18613C21.2738 6.14545 21.1864 6.13485 21.104 6.15647C21.0217 6.1781 20.9508 6.23033 20.9056 6.3025Z" fill="#F2DDFF"/>
</g>
</g>
<g opacity="0.36">
<path d="M10.8493 23.0632C10.6558 23.0158 10.4807 22.9121 10.3459 22.7653C10.2112 22.6185 10.1229 22.4352 10.0922 22.2383C10.0614 22.0414 10.0896 21.8399 10.1732 21.659C10.2568 21.4781 10.392 21.326 10.5618 21.2218C10.7316 21.1176 10.9285 21.066 11.1276 21.0735C11.3267 21.0809 11.5192 21.1471 11.6808 21.2637C11.8423 21.3803 11.9658 21.5421 12.0356 21.7287C12.1054 21.9153 12.1184 22.1184 12.0731 22.3125C12.0427 22.4425 11.9868 22.5652 11.9086 22.6734C11.8305 22.7817 11.7317 22.8734 11.6179 22.9432C11.5041 23.013 11.3775 23.0596 11.2456 23.0802C11.1137 23.1008 10.979 23.095 10.8493 23.0632Z" stroke="#F2DDFF" stroke-width="0.48" stroke-miterlimit="10"/>
<path d="M13.7924 22.6053C13.7515 22.5493 13.7229 22.4853 13.7083 22.4174C13.6937 22.3496 13.6936 22.2794 13.7078 22.2115C13.7221 22.1436 13.7505 22.0795 13.7911 22.0232C13.8317 21.967 13.8837 21.9199 13.9437 21.885C14.0037 21.8501 14.0703 21.8283 14.1393 21.8208C14.2083 21.8133 14.278 21.8204 14.3441 21.8416C14.4102 21.8627 14.4711 21.8976 14.5228 21.9438C14.5746 21.99 14.616 22.0466 14.6445 22.1098C14.7122 22.2228 14.7323 22.3581 14.7002 22.4859C14.6682 22.6136 14.5867 22.7235 14.4737 22.7912C14.3607 22.8588 14.2255 22.8789 14.0977 22.8469C13.9699 22.8148 13.8601 22.7334 13.7924 22.6204V22.6053Z" stroke="#F2DDFF" stroke-width="0.48" stroke-miterlimit="10"/>
<path d="M12.017 25.9048C11.8209 25.8568 11.6435 25.7518 11.5071 25.603C11.3707 25.4542 11.2815 25.2683 11.2507 25.0688C11.2199 24.8693 11.249 24.6651 11.3342 24.4821C11.4194 24.2991 11.5569 24.1455 11.7294 24.0406C11.9019 23.9358 12.1016 23.8844 12.3033 23.893C12.505 23.9016 12.6996 23.9698 12.8625 24.089C13.0254 24.2081 13.1494 24.3729 13.2187 24.5625C13.288 24.7521 13.2996 24.9579 13.252 25.1541C13.2207 25.2848 13.1639 25.408 13.0848 25.5166C13.0057 25.6252 12.9058 25.7171 12.791 25.7869C12.6762 25.8567 12.5486 25.9031 12.4158 25.9233C12.2829 25.9436 12.1474 25.9373 12.017 25.9048Z" stroke="#F2DDFF" stroke-width="0.48" stroke-miterlimit="10"/>
</g>
</g>
<defs>
<clipPath id="clip0_237_469">
<rect width="33.1719" height="50" fill="white" transform="translate(0.414062)"/>
</clipPath>
</defs>
</svg>
