<svg xmlns="http://www.w3.org/2000/svg" viewBox="0 0 307 293.86"><defs><style>.cls-1{fill:#661060;}.cls-2{fill:#782672;}.cls-3{fill:#520b4d;}.cls-4{fill:#457300;}.cls-5{fill:#579100;}.cls-6{fill:#f7941e;}.cls-7{fill:#ed771d;}.cls-8{fill:#f9ed32;}.cls-9{fill:none;}</style></defs><g id="Layer_2" data-name="Layer 2"><g id="OBJECTS"><path class="cls-1" d="M11.37,230.7l73.37-39L136.47,89l-9.23-19,2.93-17.43-15.29-17,27.88,12V70l25.65,13.66,69.47,115.78,53.92,19.07a12.29,12.29,0,0,1,4,20.86l-21.3,18.56L239,246.35l.63,10.08a12.94,12.94,0,0,1-11.88,13.69L120,278.82a13.78,13.78,0,0,1-14.88-14.06l.13-5.95-9.12,8.66a16.51,16.51,0,0,1-14.31,4.26l-38.66-7.06L57,249.46,8.3,262.81,5,258.23A18.75,18.75,0,0,1,11.37,230.7Z"/><path class="cls-2" d="M237.88,199.42,168.41,83.64,142.76,70V47.53l-27.88-12,7.79,8.66,7.73,3.32V70l25.65,13.66L176.65,118c-6,.89-11.62,2.3-17.83,2-1-.05-1,1.51,0,1.57,6,.39,13,.23,18.56-2.39l4.88,8.14c-3.48.61-7,1.29-10.48,1.6a140.64,140.64,0,0,1-18.59.15c-1.24-.06-1.17,1.74,0,1.89a93.52,93.52,0,0,0,20.14.17,89.58,89.58,0,0,0,10.37-1.42l41.82,69.7,49.88,17.64c-7.49,3.62-14.69,7.62-22.46,10.69a183.84,183.84,0,0,1-23.62,7.44c-1.12.28-.64,2,.47,1.73,16.13-3.49,33.65-9.48,47.08-19.34l2.56.91a12.29,12.29,0,0,1,4,20.86L265.48,255l9,2.93,21.3-18.56a12.29,12.29,0,0,0-4-20.86Z"/><path class="cls-3" d="M167.61,101.61c-2.81-.3-5.64.61-8.45.82a49.94,49.94,0,0,1-8.56-.11,39,39,0,0,1-5.26-.89L148.5,92,134.14,68.13l1-14.89L114.88,35.55l12.37,17.69V70l7.36,15.14L84.74,191.66l-74.8,39.8a18.74,18.74,0,0,0-7.19,26.31l2.52,4.14L57,249.46c-4.12,4.54-7.21,10.37-12.53,13.48,11.28,3,21.08-3.81,30.37-9.16,8-4.59,20.89-.39,30-.56a215.31,215.31,0,0,0,24.94-2.46c5.84-.94,11.87-2.15,17.12-4.61,1.06-.5.24-1.87-.73-1.73-7.09,1-14,3.34-21.11,4.44a151.21,151.21,0,0,1-21.14,1.76,158.13,158.13,0,0,1-23.17-1.51c1.27.17,9-14,10.06-15.63,3.38-5.26,6.43-11.87,10.61-16.5,6.39-7.08,25.06-5.47,34.37-5.3,9.85.19,19.69,1.27,29.52.79s19.89-2.66,27.92-8.36c-19.41,3.09-39.28,6.18-58.61,2.64-6.82-1.25-13.76-3.47-18.76-8.29-5.72-5.52-6.27-11.88-4.11-18.91,2.46-8,4.1-16.08,7.61-23.79a101.93,101.93,0,0,1,13.17-21c1.63-2.06,2.86-6.19,4.32-7.76,2.38-2.55,3.87-1.27,8-1.73a.59.59,0,0,0,.14-1.16,42.75,42.75,0,0,0-6.9-.94l2.54-7.61c6.51,1.07,13.85,1.25,19.13-1.57a.67.67,0,0,0-.34-1.23c-3.94-.19-7.88,1-11.86,1a54.36,54.36,0,0,1-6.25-.28l3.12-9.31c1.84.39,3.68.69,5.48.91,5.26.61,13.51,1.25,18.19-1.78A.94.94,0,0,0,167.61,101.61Z"/><path class="cls-3" d="M130.81,234.81c-8.93,0-17.8,1.35-26.78,1.08a177.79,177.79,0,0,1-28-3.14c-1-.18-1.38,1.25-.41,1.48a147.66,147.66,0,0,0,27.6,3.82c9,.37,19.05.69,27.77-1.74A.77.77,0,0,0,130.81,234.81Z"/><path class="cls-3" d="M113.56,225c-7.08-1.56-14.83-1-22-.22-.86.09-.87,1.44,0,1.36,7.34-.68,14.52-.06,21.86-.2A.48.48,0,0,0,113.56,225Z"/><polygon class="cls-1" points="131 160.25 131 171.72 142.26 171.72 144.85 162.01 131 160.25"/><polygon class="cls-1" points="151.13 162.01 151.13 173.48 162.39 173.48 164.99 163.77 151.13 162.01"/><polygon class="cls-1" points="151.78 188.82 151.78 177.35 140.52 177.35 137.93 187.06 151.78 188.82"/><polygon class="cls-1" points="177.57 188.82 177.57 177.35 166.31 177.35 163.71 187.06 177.57 188.82"/><polygon class="cls-1" points="173.89 160.4 176.71 171.52 187.62 168.75 187.75 158.69 173.89 160.4"/><path class="cls-3" d="M235.39,187.85c-1.36-1-7.12-3.74-7.59-1.62s3.92,4.33,3.43,7.37a5.56,5.56,0,0,1-.18.76c-1,3.21-4.68,6.2-7.46,7.48-5.93,2.73-12.67,1.9-18.87.67-2.08-1.46-3.48-3.45-3.05-6.28a5.66,5.66,0,0,1,8-4.11c2,.94,3.66,3.21,1.79,5.13-1.51,1.54-2.36.78-3.81-.44a.91.91,0,0,0-1.52.63c-.16,4.18,5.92,4,7.76,1.27,2.87-4.26-1.21-9.12-5.64-9.58-5.08-.53-9.81,3.71-9.06,9a8.81,8.81,0,0,0,1.28,3.51c-5.7-1.26-11.51-2.6-17.15-2.42-7.77.26-16.52,4.28-19.4,11.65-3.79-4.49-10.19-7.3-15.45-5.25-8.79,3.41-5,18.9,3.68,14.58,1.74-.87,3.37-3.7.81-4.62a14.92,14.92,0,0,1-2.94-.87c-.88-.54-1.23-2.07-.29-2.5,3.79-.55,8.65-.47,9.9,3.92,1.06,3.77-1.48,6.4-4.85,7.29a42.4,42.4,0,0,1-6.42,1.08,55.1,55.1,0,0,1-15.12-.64,45.48,45.48,0,0,1-21.92-11,9,9,0,0,0,3.81-1.69,9.19,9.19,0,0,0,2.86-10.45c-1.33-3.3-5.31-6.62-9.08-5.63-2.8.73-4,6-.36,5.7.58-.05,1.23-.61,1-1.28-1.16-3,3.69-.62,4.43.07a6.22,6.22,0,0,1,1.8,5.94c-1,4-4,4.93-7.2,4.63-.16-.17-.33-.32-.49-.5-5.28-5.79-12.25-15.38-20.29-17.66.19-.82.37-1.64.56-2.46a30.59,30.59,0,0,1,1.56-3.6,1.41,1.41,0,0,0-.9-2.06,1.36,1.36,0,0,0-1.52-.49c-3.14,1-8,5.11-8,8.67-5.46,2.75-4.55,10.26-.15,13.67,7.42,5.74,18.76.22,25.38,7.24a.88.88,0,0,0,.17.12c.24.26.47.54.71.8a54.69,54.69,0,0,0,18.13,12.31c10.63,4.54,32.18,9.34,41.14-1.22.21-.25.41-.51.59-.77,2.69,4,7.39,6.57,12.25,5.42,3.86-.91,7.92-5.23,6.19-9.54-.87-2.15-3.88-3.32-5.69-1.87-1.61,1.3-1.55,3.73-1.34,5.79A5.47,5.47,0,0,1,169.6,218a13,13,0,0,1,5.59-8.88c3.76-2.36,8.23-2.61,12.53-2.22,7.14.64,13.92,3.37,21.06,4-5.55,3.06-9.34,7.22-3.79,11.91,2.9,2.44,8.45,3.62,10.78-.23a3.88,3.88,0,0,0-4.39-5.84,1.31,1.31,0,0,0,.7,2.52l-.12,2.93a5.27,5.27,0,0,1-3.59-.61c-1.74-.81-2.13-1.25-2.45-3.21-.36-2.2.27-2.68,2-3.82.81-.54,1.67-1,2.52-1.46,1.44-.79,2.92-1.53,4.4-2.23,3.81-1.82,8-1.46,11.5-4.46,2.93-2.49,4.85-5.39,8.1-7.76,1.5-1.1,3.08-2.3,3.68-4C239,192.15,237.51,189.36,235.39,187.85Zm-141,17.87c-3.58-.27-7.27,0-10.66-1.41s-6.67-5.86-3.87-8.58a.93.93,0,0,0,1.13.18,5.17,5.17,0,0,0,1.05.87c2.32,1.43,4.71.3,7.12,1,2,.58,3.85,2.38,5.37,3.75a54.06,54.06,0,0,1,4.75,5.06A23.24,23.24,0,0,0,94.39,205.72Z"/><path class="cls-4" d="M235.39,184.49c-1.36-1-7.12-3.75-7.59-1.62s3.92,4.33,3.43,7.37a5.11,5.11,0,0,1-.18.75c-1,3.22-4.68,6.21-7.46,7.48-5.93,2.74-12.67,1.91-18.87.67-2.08-1.45-3.48-3.45-3.05-6.27a5.67,5.67,0,0,1,8-4.12c2,.95,3.66,3.22,1.79,5.13-1.51,1.55-2.36.79-3.81-.43a.9.9,0,0,0-1.52.63c-.16,4.17,5.92,4,7.76,1.27,2.87-4.26-1.21-9.12-5.64-9.58-5.08-.53-9.81,3.7-9.06,8.95a8.87,8.87,0,0,0,1.28,3.51c-5.7-1.26-11.51-2.6-17.15-2.42-7.77.25-16.52,4.28-19.4,11.64-3.79-4.48-10.19-7.29-15.45-5.25-8.79,3.42-5,18.91,3.68,14.59,1.74-.87,3.37-3.71.81-4.63a14.25,14.25,0,0,1-2.94-.86c-.88-.54-1.23-2.07-.29-2.5,3.79-.56,8.65-.47,9.9,3.92,1.06,3.76-1.48,6.39-4.85,7.28a40,40,0,0,1-6.42,1.08,54.71,54.71,0,0,1-15.12-.63,45.5,45.5,0,0,1-21.92-11,9,9,0,0,0,3.81-1.68,9.19,9.19,0,0,0,2.86-10.45c-1.33-3.3-5.31-6.62-9.08-5.64-2.8.74-4,6.06-.36,5.71.58-.06,1.23-.61,1-1.28-1.16-3,3.69-.63,4.43.07a6.22,6.22,0,0,1,1.8,5.94c-1,3.95-4,4.93-7.2,4.63l-.49-.5c-5.28-5.79-12.25-15.38-20.29-17.66.19-.82.37-1.64.56-2.46a29.21,29.21,0,0,1,1.56-3.6,1.4,1.4,0,0,0-.9-2.06,1.34,1.34,0,0,0-1.52-.49c-3.14,1-8,5.1-8,8.67-5.46,2.75-4.55,10.26-.15,13.67,7.42,5.74,18.76.22,25.38,7.24a.88.88,0,0,0,.17.12c.24.26.47.54.71.79a54.57,54.57,0,0,0,18.13,12.32c10.63,4.53,32.18,9.33,41.14-1.22.21-.26.41-.52.59-.78,2.69,4,7.39,6.58,12.25,5.43,3.86-.91,7.92-5.23,6.19-9.54-.87-2.15-3.88-3.33-5.69-1.87-1.61,1.3-1.55,3.73-1.34,5.79a5.47,5.47,0,0,1-7.19-5.93,13,13,0,0,1,5.59-8.89c3.76-2.35,8.23-2.6,12.53-2.22,7.14.64,13.92,3.38,21.06,4-5.55,3.07-9.34,7.23-3.79,11.91,2.9,2.45,8.45,3.62,10.78-.23a3.87,3.87,0,0,0-4.39-5.83,1.31,1.31,0,0,0,.7,2.52l-.12,2.93a5.33,5.33,0,0,1-3.59-.61c-1.74-.82-2.13-1.26-2.45-3.22-.36-2.2.27-2.67,2-3.81.81-.54,1.67-1,2.52-1.46,1.44-.8,2.92-1.53,4.4-2.24,3.81-1.81,8-1.45,11.5-4.45,2.93-2.5,4.85-5.4,8.1-7.77,1.5-1.09,3.08-2.29,3.68-4C239,188.78,237.51,186,235.39,184.49Zm-141,17.87c-3.58-.27-7.27,0-10.66-1.41s-6.67-5.86-3.87-8.59a.92.92,0,0,0,1.13.19,5.13,5.13,0,0,0,1.05.86c2.32,1.44,4.71.31,7.12,1,2,.58,3.85,2.38,5.37,3.75a52.85,52.85,0,0,1,4.75,5.06A23.24,23.24,0,0,0,94.39,202.36Z"/><path class="cls-4" d="M267.88,168.66,261.4,181a66.54,66.54,0,0,1,17.14,2.13L264,189.55l10.2,7.69a47.11,47.11,0,0,1-17.16-1.47q.69,4.72,1.37,9.43l-18.51-18.12A63.69,63.69,0,0,0,246,168.77q1.57,5.7,3.14,11.38A39.32,39.32,0,0,1,267.88,168.66Z"/><path class="cls-4" d="M83.81,246.57q.66-6.91,1.31-13.84a66.4,66.4,0,0,1-16.66,4.56L79.4,225.8,67,222.58a46.86,46.86,0,0,1,16.42-5.2L78.6,209.2l24,9.69A63.43,63.43,0,0,0,104,238.12l-7.24-9.32A39.28,39.28,0,0,1,83.81,246.57Z"/><path class="cls-5" d="M104.73,217c1.62-3.83,2-10.1-2.09-12.54-.9-.55-1.65.49-1.3,1.3,1.87,4.41,3,7.88.34,12.4a15.79,15.79,0,0,1-2.77,3.42c-1-.38-2.15-.64-3.19-1q-3.75-1.2-7.55-2.26c-.86-.24-1.16,1-.36,1.3,2.31.9,4.62,1.76,7,2.57.76.27,1.56.6,2.37.9-.92.74-1.89,1.43-2.85,2.12a.88.88,0,0,0-.75-.6,45.51,45.51,0,0,1-12-3.16c-.63-.25-1,.77-.46,1.08a33.81,33.81,0,0,0,11.78,3.69c-.53.38-1,.75-1.56,1.14a.64.64,0,0,0,.64,1.1,33.54,33.54,0,0,0,7.56-4.68,6.73,6.73,0,0,0,1.61.09c.42,0,.74-.57.37-.9a4.44,4.44,0,0,0-.59-.46A17.26,17.26,0,0,0,104.73,217Z"/><path class="cls-2" d="M252.82,218.7c-8.38,1.82-16.63,4.39-24.93,6.55s-17,3.44-24.94,6.44c-.83.31-.81,1.75.22,1.67,8.22-.61,16.66-3.42,24.59-5.56,8.52-2.3,17.2-4.62,25.37-8A.6.6,0,0,0,252.82,218.7Z"/><path class="cls-2" d="M197.46,251.29c-13,1.36-25.93,4.25-38.81,6.55-.73.13-.42,1.24.31,1.11,12.84-2.22,25.94-3.89,38.59-7C197.88,251.82,197.82,251.25,197.46,251.29Z"/><path class="cls-5" d="M207,200.64c-9.2-1.06-18.6-2.6-27.86-2.8-5.2-.12-11.65,1.8-12.06,7.89,0,.61.93.91,1.18.32,3.3-7.64,12.12-5.59,18.72-4.75s13.34,1.61,20,2.34C208.88,203.86,208.86,200.85,207,200.64Z"/><path class="cls-5" d="M227.39,197.84c-2.06.51-3.8,1.86-5.89,2.41a17,17,0,0,1-7.57.2.89.89,0,0,0-.47,1.71c4.34,1.35,12.1,1.22,14.71-3.31A.7.7,0,0,0,227.39,197.84Z"/><path class="cls-5" d="M154.28,203.58a12.75,12.75,0,0,0-7.55.6.8.8,0,0,0,.43,1.55,13.56,13.56,0,0,1,6.9.06c1.66.46,3.25,2.07,4.95,1.91a.62.62,0,0,0,.58-.77C159.24,204.86,156.08,204,154.28,203.58Z"/><path class="cls-5" d="M146.05,220.75c-6.54.21-12.62.45-19-1.58a44.72,44.72,0,0,1-17.23-10.44.64.64,0,0,0-.9.9c8.68,9.91,24.1,16.85,37.41,13.42A1.18,1.18,0,0,0,146.05,220.75Z"/><path class="cls-5" d="M93.83,194.17a6.56,6.56,0,0,0-2.17-.78,10.83,10.83,0,0,1-3-1.44,12,12,0,0,1-4.13-5.22.57.57,0,0,0-1.1.3,10.71,10.71,0,0,0,4.06,6.16c1.59,1.2,4.29,2.79,6.3,1.93C94.25,194.94,94.12,194.38,93.83,194.17Z"/><path class="cls-5" d="M262.84,187.44c-1.31-1.28-3.29-1.61-5-2.17-2.17-.7-4.34-1.37-6.54-2h-.12a25.45,25.45,0,0,0,6.15-4.61c.22-.25,0-.71-.34-.59a26.72,26.72,0,0,0-7,4.15,1,1,0,0,0-1.22-1,30,30,0,0,0-11.33,5.8c-2.71,2.1-6.49,5-7.42,8.4a1.2,1.2,0,0,0,1.74,1.34c2.92-1.72,4.93-5.09,7.59-7.27a46.48,46.48,0,0,1,5.95-4,.76.76,0,0,0,.39.79q3.07,1.8,6.19,3.51c1.86,1,3.72,2.32,5.81,2.72a.64.64,0,0,0,.62-1.06c-1.49-1.53-3.58-2.36-5.44-3.35-2.1-1.12-4.22-2.19-6.35-3.24a.32.32,0,0,0-.09,0l1.21-.7a.65.65,0,0,0,1,.76c.61-.39,1.24-.78,1.88-1.16a.77.77,0,0,0,.45,1c2,.82,4,1.56,6,2.27,1.73.62,3.66,1.65,5.51,1.42A.57.57,0,0,0,262.84,187.44Z"/><path class="cls-4" d="M105.26,9.6a15.62,15.62,0,0,1,.4-5.75,5.36,5.36,0,0,1,4-3.81c3-.44,5.32,2.51,6.91,5.11a6,6,0,0,1-6.76,0v15a7.63,7.63,0,0,1-3.68-4.59A22.52,22.52,0,0,1,105.26,9.6Z"/><path class="cls-6" d="M105.4,13.21c5.23-2.73,12.54,0,14.67,5.52A12.37,12.37,0,0,1,134,10c6.41,1.31,11.09,8.71,9.16,15a20.54,20.54,0,0,1-5.11,8c-.73.6-9.2,3.25-9,1.33-.47,4.58-1.18,8.94-6.13,10.3-1.75.49-8.53.63-8.07-2.51-2,13.49-18.24,10.47-22.57.5-1.38-3.18-2.12-7.71-.24-10.87.91-1.54,7.68-6.5,9.29-3.49C98.64,23.15,100,16,105.4,13.21Z"/><path class="cls-7" d="M96.56,38.34c-1.22-2.79-1.93-6.64-.81-9.67a12.69,12.69,0,0,0-3.69,3.06c-1.88,3.16-1.14,7.69.24,10.87,3.84,8.85,17.07,12.21,21.39,3.43C108,48.68,99.5,45.12,96.56,38.34Z"/><path class="cls-7" d="M125.53,11.58A13,13,0,0,0,123.59,13a9,9,0,0,1,.73,1.45A11.13,11.13,0,0,1,125.53,11.58Z"/><path class="cls-7" d="M105.61,24a11.86,11.86,0,0,1-.08-10.83l-.13.06c-4.1,2.14-5.87,6.79-5.28,11.14C102.29,23.08,104.72,22.33,105.61,24Z"/><path class="cls-7" d="M127.2,40.36c-1.75.48-8.53.62-8.07-2.52a11.19,11.19,0,0,1-2.87,6.36,12.78,12.78,0,0,0,6.68.42,7,7,0,0,0,5-4.5Q127.57,40.26,127.2,40.36Z"/><path class="cls-7" d="M133.33,30.05a28.21,28.21,0,0,1-.78,4.68A22.93,22.93,0,0,0,138.08,33a15.86,15.86,0,0,0,3-3.71C138.56,30.2,133.17,31.59,133.33,30.05Z"/><path class="cls-7" d="M110.63,41.55a5.19,5.19,0,0,0-2-1.8A15.73,15.73,0,0,1,105,36.18a18.77,18.77,0,0,1-3.18-8.45c-.14-.87-1.42-.59-1.47.2a14.82,14.82,0,0,0,3.21,9.7c1.45,1.91,4.16,5,6.84,4.62A.48.48,0,0,0,110.63,41.55Z"/><path class="cls-7" d="M126.39,22.17a18.29,18.29,0,0,0-5-5.27c-.61-.43-1.28.51-.78,1a26.22,26.22,0,0,1,4.28,5.5c1,1.68,1.27,3.92,2.57,5.34a.59.59,0,0,0,1-.26C129,26.41,127.46,23.89,126.39,22.17Z"/><path class="cls-7" d="M117.47,22.28c-.36-.33-1,0-.87.5.79,2.28,2.08,4.33,2.83,6.64s.88,4.79,1.72,7.06c.18.47.92.56,1,0C123.23,32.13,120.74,25.25,117.47,22.28Z"/><path class="cls-7" d="M106,41.83c-.86-.83-2.09-1.2-3-2a8.59,8.59,0,0,1-2.24-3c-.33-.72-1.58-.2-1.29.54A10,10,0,0,0,101.85,41c.94.89,2.36,2,3.73,1.86A.6.6,0,0,0,106,41.83Z"/><path class="cls-7" d="M136.79,20.06c-.44-.64-1.49,0-1,.62,1.3,1.94,1.49,3.87,1.81,6.11.07.44.73.38.84,0C139.05,24.51,138.08,22,136.79,20.06Z"/><path class="cls-8" d="M132.32,10.56a8.76,8.76,0,0,0-8.06,1.92.52.52,0,0,0,.63.82,9.78,9.78,0,0,1,7.32-1.08c2.41.67,3.41,2.44,5.35,3.65a.56.56,0,0,0,.84-.48C138.07,12.74,134.66,11.08,132.32,10.56Z"/><path class="cls-8" d="M132.3,16.48A9.35,9.35,0,0,0,129,14c-.71-.33-1.33.7-.62,1.06a8.52,8.52,0,0,1,2.78,2.24c.72.91,1,2,1.69,3a.57.57,0,0,0,1-.29A5.72,5.72,0,0,0,132.3,16.48Z"/><path class="cls-8" d="M115.22,16a8.31,8.31,0,0,0-5.43-1.73.47.47,0,0,0,0,.94,8.27,8.27,0,0,1,4.85,1.91c1.15,1,1.63,2.37,2.68,3.39a.37.37,0,0,0,.61-.26C118.09,18.59,116.47,17,115.22,16Z"/><path class="cls-8" d="M111.78,22.71A25.06,25.06,0,0,0,108,18.33c-.43-.47-1.13.23-.7.71a25.13,25.13,0,0,0,4,4.15C111.6,23.4,111.93,23,111.78,22.71Z"/><rect class="cls-9" x="7" y="42.8" width="300" height="251.06"/></g></g></svg>