<svg xmlns="http://www.w3.org/2000/svg" viewBox="0 0 300 282.91"><defs><style>.cls-1{fill:none;}.cls-2{fill:#01737c;}.cls-3{fill:#005e60;}.cls-4{fill:#3c1966;}.cls-5{fill:#5c27a0;}.cls-6{fill:#fffef5;}.cls-7{fill:#4a2289;}.cls-8{fill:#471e87;}.cls-9{fill:#01a8b1;}.cls-10{fill:#009093;}.cls-11{fill:#6d3ec6;}.cls-12,.cls-13{fill:#05e2e2;}.cls-13{opacity:0.5;}</style></defs><g id="Layer_2" data-name="Layer 2"><g id="Layer_1-2" data-name="Layer 1"><rect class="cls-1" width="300" height="251.06"/><path class="cls-2" d="M203.58,173.32s3.55-14.53,14.89-16.3a86.09,86.09,0,0,0,18.79-5s-2.48,17.72-9.57,23.74-23.75,4.61-23.75,4.61Z"/><path class="cls-2" d="M197.2,176.51s-5-8.86-4.25-14.88,8.15-13.83,8.15-13.83,7.09,20.21,2.48,25.52S197.2,176.51,197.2,176.51Z"/><path class="cls-2" d="M84.81,185.84s-11.31-10.75-27.26-7.2-18.43,4.61-20.91,5,12.76,9.57,27.29,9.93S84.81,185.84,84.81,185.84Z"/><path class="cls-3" d="M194.49,167.89S194,161,194.13,160s6.85-10.87,6.62-10-3.66,18.9-3.66,18.9,2.48-8.15,2.71-9.45,1.07-7.09,1.78-6.14,2.71,15.83,2.48,17.48a15.32,15.32,0,0,1-.36,2s9.34-10.51,13-11.46,13.23-3.78,14.65-4.61,3.43-3.19,3.07-2-2.13,12.41-3.78,15a44.58,44.58,0,0,1-5.32,6.14l2.25-7.09s-4.61,8.39-6.85,9-13.59,3.08-13.59,3.08l-3.9-2.37-11.82-4.84Z"/><path class="cls-2" d="M83.07,180.77s-.93.3-2.42.65a41.13,41.13,0,0,1-8.21,1.14A18.94,18.94,0,0,1,65,181.47a9.85,9.85,0,0,1-3.76-3.13c-5.34-6.65-9.36-20.61-9.36-20.61A121,121,0,0,1,70,163.4C81,167.65,83.07,180.77,83.07,180.77Z"/><path class="cls-3" d="M81.18,185.85S59,182.07,57.32,182.07,42.9,184,42.9,185.14s16.31,7.32,16.31,7.32Z"/><path class="cls-3" d="M85,186.56a110.7,110.7,0,0,1-12.52-4c-5.29-1.92-10.29-3.86-11.2-4.22-5.34-6.65-9.36-20.61-9.36-20.61l14.41,11.81-3.78-5s4,2.84,7.09,5c1.88,1.3,7.19,7.36,11.05,11.88C83.1,184.3,85,186.56,85,186.56Z"/><path class="cls-4" d="M6.51,219.4s12.76,7.8,16,9.22,8.15,2.48,9.22,1.41L32.74,229s11,6.38,17.72,11.34,8.86,8.86,8.86,8.86,7.45-5,7.45-3.54.35,11.7,2.83,11.7,36.51,17.36,36.51,17.36,22.33,2.49,25.17,3.55,15.95,4.61,15.95,4.61l20.55-13.12,5.09.95,3.07-2s7.79,0,9.92-.36a21.52,21.52,0,0,0,4.49-1.41S275.18,224,276.6,222.59s-2.48-2.84-2.48-2.84a45,45,0,0,0,7.09,0C283,219.4,300,207.82,300,207.82l-35.09,3.43Z"/><path class="cls-5" d="M300,207.82c-.94,1.89-17,8.51-18.9,9.93s-13.71-.48-13.71-.48,7.09,4.73,5.2,5.2-7.09,3.78-7.09,3.78-.94,5.67-10.87,12.29-62.38,27.88-64.27,28.36-5.2-.95-7.56-.95-6.62.95-8.51-.47-7.09-4.73-7.09-4.73,7.09,8.51,5.68,9.93-23.52,13.23-25.64,12.17-18.43-8.16-23.4-7.8-15.59,1.06-19.85,0S71.73,259.81,69.6,257.33c-1.18-1.38-1.16-4.61-.85-7.52.26-2.33.7-4.46.85-5.24.36-1.78,11-11.7,6.38-8.87s-16.66,13.47-16.66,13.47a14.5,14.5,0,0,1-2.12-3.89c-.71-2.13-17.72-16.66-26.23-20.56s-1.42,3.19-3.9,3.9a5.75,5.75,0,0,1-2.44-.17A66.39,66.39,0,0,1,9,221.88c-4.6-2.83-3.54-7.44-6-8.86s-4.26-2.48-1.78-3.54C3,208.7,35.35,196.25,63,188.37c10.36-3,20-5.26,27.2-6.07,0,0,8.92-15.14,9.93-17.48,2.12-5,19.1-40.06,27.41-56.95,6.85-13.94,14.23-32.77,19.16-43.05a45.45,45.45,0,0,1,3.15-5.88,3.48,3.48,0,0,1,.37-.46c1.58-1.58,4.64-3,7.68-3.89a17.7,17.7,0,0,1,6.5-.83c3.78.47,9.92-.48,9,2.83s-6.62,8.51-6.62,8.51,15.12,54.35,20.8,71.36,14.65,47.26,15.12,49.15S300.94,205.93,300,207.82Z"/><circle class="cls-6" cx="110.96" cy="92.98" r="6.73" transform="translate(-23.38 146.93) rotate(-61.84)"/><path class="cls-7" d="M90.17,185l9.74,5.75A32.56,32.56,0,0,1,90.17,185Z"/><path class="cls-8" d="M300,207.82c-.94,1.89-17,8.51-18.9,9.93s-13.71-.48-13.71-.48,7.09,4.73,5.2,5.2-7.09,3.78-7.09,3.78-.94,5.67-10.87,12.29-62.38,27.88-64.27,28.36c0,0,23.87-25.88-7-45S138,206.29,138,206.29l-18.43-3.9L99.91,190.77c9.16,3.56,24,4.91,40.94-10.36,28.35-25.52,23.39-80.1,23-81.52s-2.84,4.61-2.84,4.61,6-36.28,5.67-38.4c-.2-1.21,2.36-11.34-8.86-10.51a17.7,17.7,0,0,1,6.5-.83c3.78.47,9.92-.48,9,2.83s-6.62,8.51-6.62,8.51,15.12,54.35,20.8,71.36,14.65,47.26,15.12,49.15S300.94,205.93,300,207.82Z"/><path class="cls-8" d="M31.09,221.05,90.16,182.3l-2.36-2.83S50.46,200.73,31.09,221.05Z"/><path class="cls-2" d="M95.83,181.12S118.16,199.2,150.06,196s44.66-16.31,44.66-16.31l-2.48,11-24.1,12.05-43.95,2.13-21.62-9.93Z"/><path class="cls-9" d="M87.33,190.34s-7.45,2-7.09,2.78,11,.76,11,.76Z"/><path class="cls-9" d="M111.72,200.79s-1.25,7.61-.42,7.6,5.26-9.68,5.26-9.68Z"/><path class="cls-9" d="M98,177.54s4.64-6.16,3.9-6.55-9.15,6.13-9.15,6.13Z"/><path class="cls-9" d="M129.89,205.47s4,6.6,4.63,6.05-2.29-10.77-2.29-10.77Z"/><path class="cls-2" d="M144.93,197.11s-3.63-6.8-4.29-6.28,1.71,10.87,1.71,10.87Z"/><path class="cls-2" d="M168.39,194.22s-6.2-4.59-6.58-3.84,6.21,9.09,6.21,9.09Z"/><path class="cls-2" d="M184.5,188.85s-.74-7.68-1.55-7.46-2.61,10.7-2.61,10.7Z"/><path class="cls-9" d="M192.57,180.75s-7.34,2.37-6.95,3.11,11,.25,11,.25Z"/><path class="cls-9" d="M179.2,200.69s-2.12,7.42-1.29,7.51,6.34-9,6.34-9Z"/><path class="cls-9" d="M205.69,188.17s6,4.88,6.39,4.15-5.77-9.38-5.77-9.38Z"/><path class="cls-9" d="M211.25,181.89s6.64-3.92,6.09-4.56-8.26,2-8.26,2Z"/><path class="cls-9" d="M204.58,173.45s6.83-3.59,6.32-4.25-8.36,1.59-8.36,1.59Z"/><path class="cls-9" d="M158.57,206.18s7.05,3.12,7.25,2.31-6.19-5.39-6.19-5.39Z"/><path class="cls-9" d="M85,181.91s-7.24-2.94-7.54-2,7.87,7.72,7.87,7.72Z"/><path class="cls-9" d="M94.19,170.19s-.12-7.72-1-7.57-3.5,10.44-3.5,10.44Z"/><path class="cls-9" d="M91.16,173.54s-5.17-5.74-5.69-5.08,4.23,10.17,4.23,10.17Z"/><path class="cls-3" d="M116.63,195.65s20.55,6.26,37.69,4.61,27.29-9.69,27.29-9.69L171.92,198,187,188.09l-4.25,9.69-21.74,6.62-28.71-.71Z"/><path class="cls-9" d="M191.89,197.78s.35,12.76,14.53,14.89S228,209.12,228,209.12s-3.9-9.92-13.47-13.82S191.89,197.78,191.89,197.78Z"/><path class="cls-9" d="M160.34,245.28s-10.63-2.84-14.89-13.47c-3.24-8.11.94-18.08,3.11-22.35.67-1.33,1.15-2.11,1.15-2.11s12.76,6.38,14.53,17C165.41,231.36,160.34,245.28,160.34,245.28Z"/><path class="cls-9" d="M102.21,201.32S88,200.61,82,205.93,72.44,219.4,70,220.11a9.69,9.69,0,0,0-3.9,2.13s15.24,1.77,27.29-3.9S102.21,201.32,102.21,201.32Z"/><path class="cls-9" d="M113.2,194.59s-7.44-7.09-8.86-12.76,1.06-14.53,1.06-14.53,9.22,7.44,10.64,12.76S113.2,194.59,113.2,194.59Z"/><path class="cls-9" d="M116,196s1.06-11.7,4.25-14.18,17.37-6,17-4.25S132,190,129.15,192.11,116,196,116,196Z"/><path class="cls-9" d="M198.71,181.75s-9.88,0-14.35-4.75-9.22-13.17-9.22-13.17,8.17-.47,13.59,2.77S198.71,181.75,198.71,181.75Z"/><path class="cls-10" d="M160.87,227l-3.54-6.91s2.83,8.86,2.83,12.4-.88,9.22.18,12.77c0,0-10.63-2.84-14.89-13.47-3.24-8.11.94-18.08,3.11-22.35.73-.49,1.44-.83,1.68-.52.53.71,6.2,4.43,8.51,9A20.55,20.55,0,0,1,160.87,227Z"/><path class="cls-11" d="M115.68,136s18-38.76,20.32-42.06,8-17.49,8-17.49-7.09,26.47-9.93,30.25S111,150.64,111,150.64Z"/><path class="cls-11" d="M134.11,106.69s3.78-5.2,4.49-1-7.32,21.74-11.81,21.74,2.36-16.3,2.36-16.3Z"/><path class="cls-11" d="M123.83,275.05c-5,.35-15.59,1.06-19.85,0S71.73,259.81,69.6,257.33c-1.18-1.38-1.16-4.61-.85-7.52.39,2.39,1,5,1.56,5.51,1.18.94,21,7.32,21,7.32s-9.92-1.65-8.74-.47,19.14,9.22,21.74,10.4S123.83,275.05,123.83,275.05Z"/><path class="cls-11" d="M10.53,221.29l14.1,7.16A66.39,66.39,0,0,1,9,221.88c-4.6-2.83-3.54-7.44-6-8.86s-4.26-2.48-1.78-3.54C3,208.7,35.35,196.25,63,188.37,42.46,195.79,6.84,208.77,5.33,210c-2.13,1.65.71,1.65,1.89,2.6S9.11,220.58,10.53,221.29Z"/><circle class="cls-6" cx="188.7" cy="140.36" r="6.73"/><path class="cls-12" d="M101.5,202s-15.83,3.67-18.19,5.56-10.87,9.92-8.51,10.87,15.6-1.9,19.85-4.26S101.5,202,101.5,202Z"/><path class="cls-12" d="M196,197.9s7.8,10.63,17,11.34,13.35-1.3,13.35-1.3-1.66-4.61-5.2-7.09a40.29,40.29,0,0,0-6.26-3.66l4.49,4.84s-5.79-6.38-10.64-6.61S196,197.9,196,197.9Z"/><path class="cls-9" d="M198.44,170.49s2.66-3.9,4.79-2.13c3.66,3,3.19,11.34,3.19,11.34s2.48-2.83,4.25-2.83,4.61,8.5-11.34,18.07c-17,10.2-31.9,9.57-31.9,9.57s-19.31,7.63-52.1,1.07c-31.9-6.38-32.26-22-32.26-24.81s6-12.06,7.09-12.41,7.09.71,7.09.71S98,179,110,190s36.14,13.12,40.41,13.12c6,0,15.24-1.07,15.24-1.07s10.63-3.19,22.33-15.59S198.44,170.49,198.44,170.49Z"/><path class="cls-9" d="M128.66,200s4.67-6.14,3.92-6.52-9.17,6.08-9.17,6.08Z"/><path class="cls-9" d="M148.86,205.89s4.67-6.14,3.93-6.53-9.18,6.09-9.18,6.09Z"/><path class="cls-9" d="M179.79,194.8s-7.59-1.37-7.6-.53,9.6,5.4,9.6,5.4Z"/><path class="cls-13" d="M91.11,171s-4.73,3.78-5.67,8,2.12,10.76,9.45,16.54,31.66,9,31.66,9l-7-2.12s13.59,3.07,22.09,3.07a54.83,54.83,0,0,0,14.65-1.89,105.64,105.64,0,0,1-21.26-1.06c-11.46-1.78-21.86-8.39-22.33-8s3.07,3.07,3.07,3.07-5.44-2.71-7.8-5a69.82,69.82,0,0,1-5.79-6.85s5.16,3.09,4.26,2.12C95.6,176.28,96.07,170.25,95.6,170s-1.07,7.33-1.07,7.33Z"/><path class="cls-12" d="M170.5,202.74s7.87-5,12.41-8.39c10.16-7.56,16.77-21,16.89-21.85s2.13-3.79,2.48-3.79,2.49,2.84,2.6,4.26.24,6.61.24,6.61-7.92,10.17-7.56,10.28,9.1-8.5,9.57-9.09a19.09,19.09,0,0,1,2.48-2.72c.35-.12,1.06,5.32.24,6.26a42.62,42.62,0,0,1-14.77,11.82C186.33,200.14,170.5,202.74,170.5,202.74Z"/><path class="cls-10" d="M117.57,194.71s3.78-8.75,6.38-10.28,12.64-7.68,12.17-6.38-6,12.29-7.44,13.7S117.57,194.71,117.57,194.71Z"/><path class="cls-10" d="M113.32,192.23s-.24-9.46-1.66-12-5.79-11.82-5.79-11.82,9.22,7.92,9.69,12S113.32,192.23,113.32,192.23Z"/><path class="cls-10" d="M175.94,164.22s9.45,3.9,11.1,5.2,7.09,9.69,7.09,9.69a25.74,25.74,0,0,1-4.37.59c-.94-.12-5.32-3.19-6-4.37S175.94,164.22,175.94,164.22Z"/></g></g></svg>