<svg xmlns="http://www.w3.org/2000/svg" xmlns:xlink="http://www.w3.org/1999/xlink" viewBox="0 0 264.8 188.48"><defs><style>.cls-1{mask:url(#mask);filter:url(#luminosity-noclip-3);}.cls-2,.cls-4,.cls-8{mix-blend-mode:multiply;}.cls-2{fill:url(#linear-gradient);}.cls-3{mask:url(#mask-2);filter:url(#luminosity-noclip-4);}.cls-4{fill:url(#linear-gradient-2);}.cls-5{isolation:isolate;}.cls-6{fill:url(#_76);}.cls-12,.cls-14,.cls-7{fill:#ce77b5;}.cls-12,.cls-13,.cls-7{mix-blend-mode:color-burn;}.cls-7,.cls-8{opacity:0.5;}.cls-8{fill:#b39bc7;}.cls-9{fill:url(#_76-2);}.cls-10{fill:url(#linear-gradient-3);}.cls-11{fill:#ffd6b8;mix-blend-mode:soft-light;opacity:0.7;}.cls-12,.cls-13,.cls-20{opacity:0.3;}.cls-15{fill:url(#_76-3);}.cls-16{mask:url(#mask-3);}.cls-17,.cls-20{mix-blend-mode:overlay;}.cls-17{opacity:0.8;fill:url(#linear-gradient-4);}.cls-18{fill:url(#_76-4);}.cls-19{mask:url(#mask-4);}.cls-20{fill:url(#linear-gradient-5);}.cls-21{fill:url(#_76_3);}.cls-22{filter:url(#luminosity-noclip-2);}.cls-23{filter:url(#luminosity-noclip);}</style><filter id="luminosity-noclip" x="69.33" y="-8117.86" width="145.98" height="32766" filterUnits="userSpaceOnUse" color-interpolation-filters="sRGB"><feFlood flood-color="#fff" result="bg"/><feBlend in="SourceGraphic" in2="bg"/></filter><mask id="mask" x="69.33" y="-8117.86" width="145.98" height="32766" maskUnits="userSpaceOnUse"><g class="cls-23"/></mask><linearGradient id="linear-gradient" x1="142.32" y1="59.91" x2="142.32" y2="18.56" gradientUnits="userSpaceOnUse"><stop offset="0"/><stop offset="0.22" stop-color="#4a4a4a"/><stop offset="0.43" stop-color="#8a8a8a"/><stop offset="0.62" stop-color="#bdbdbd"/><stop offset="0.78" stop-color="#e1e1e1"/><stop offset="0.91" stop-color="#f7f7f7"/><stop offset="1" stop-color="#fff"/></linearGradient><filter id="luminosity-noclip-2" x="142.87" y="-8117.86" width="50.88" height="32766" filterUnits="userSpaceOnUse" color-interpolation-filters="sRGB"><feFlood flood-color="#fff" result="bg"/><feBlend in="SourceGraphic" in2="bg"/></filter><mask id="mask-2" x="142.87" y="-8117.86" width="50.88" height="32766" maskUnits="userSpaceOnUse"><g class="cls-22"/></mask><linearGradient id="linear-gradient-2" x1="168.31" y1="110.02" x2="168.31" y2="80.73" xlink:href="#linear-gradient"/><linearGradient id="_76" x1="19.5" y1="151.85" x2="72.12" y2="151.85" gradientUnits="userSpaceOnUse"><stop offset="0" stop-color="#5a365d"/><stop offset="1" stop-color="#5f1945"/></linearGradient><linearGradient id="_76-2" x1="80.08" y1="250.82" x2="132.71" y2="250.82" gradientTransform="translate(25.31 -131.89) rotate(21.4)" xlink:href="#_76"/><linearGradient id="linear-gradient-3" x1="142.93" x2="142.93" y2="122.88" gradientUnits="userSpaceOnUse"><stop offset="0" stop-color="#c2fcff"/><stop offset="1" stop-color="#cad4ff"/></linearGradient><linearGradient id="_76-3" x1="21.05" y1="47.8" x2="264.8" y2="47.8" xlink:href="#_76"/><filter id="luminosity-noclip-3" x="69.33" y="18.56" width="145.98" height="41.35" filterUnits="userSpaceOnUse" color-interpolation-filters="sRGB"><feFlood flood-color="#fff" result="bg"/><feBlend in="SourceGraphic" in2="bg"/></filter><mask id="mask-3" x="69.33" y="18.56" width="145.98" height="41.35" maskUnits="userSpaceOnUse"><g class="cls-1"><path class="cls-2" d="M171.4,29C126.49,15,158,15.16,113.22,29c-19.93,6.15-44.11,16.21-43.89,23,.35,10.73,144.71,10.57,146,0C216.08,45.21,191.31,35.14,171.4,29Z"/></g></mask><linearGradient id="linear-gradient-4" x1="142.32" y1="59.91" x2="142.32" y2="18.56" gradientUnits="userSpaceOnUse"><stop offset="0" stop-color="#ffadff"/><stop offset="0.54" stop-color="#ffbdff"/><stop offset="1" stop-color="#ffc5ff"/></linearGradient><linearGradient id="_76-4" x1="145.08" y1="73.95" x2="145.08" y2="132.76" xlink:href="#_76"/><filter id="luminosity-noclip-4" x="142.87" y="80.73" width="50.88" height="29.3" filterUnits="userSpaceOnUse" color-interpolation-filters="sRGB"><feFlood flood-color="#fff" result="bg"/><feBlend in="SourceGraphic" in2="bg"/></filter><mask id="mask-4" x="142.87" y="80.73" width="50.88" height="29.3" maskUnits="userSpaceOnUse"><g class="cls-3"><path class="cls-4" d="M176.77,81.5a20.82,20.82,0,0,0-11.12,0c-13.9,3.09-24.86,16.66-22.45,21.14,1.52,2.81,7.16-.11,20.06.87,18.71,1.42,25.94,9,29.2,5.67C196.75,104.76,190,85.56,176.77,81.5Z"/></g></mask><linearGradient id="linear-gradient-5" x1="168.31" y1="110.02" x2="168.31" y2="80.73" xlink:href="#linear-gradient-4"/><linearGradient id="_76_3" x1="55.47" y1="123.15" x2="234.7" y2="123.15" gradientUnits="userSpaceOnUse"><stop offset="0" stop-color="#331236"/><stop offset="1" stop-color="#380123"/></linearGradient></defs><g class="cls-5"><g id="Layer_2" data-name="Layer 2"><g id="Layer_1-2" data-name="Layer 1"><path class="cls-6" d="M72.12,117.27s-23.91,5.69-28,9.66.89,8.46,3,14.62c.85,2.53-.11,4.66-1.81,7.1-1.22,1.72-2.85,3.62-4.45,5.93a33.2,33.2,0,0,0-4.21,8.26c-.9,2.65,4.82,13.18,7.55,18A.87.87,0,0,1,43.05,182c-3.2-1.45-8.62-3.67-10.88-3.39-3.39.42-2.44,5.82-1.63,8.89a.74.74,0,0,1-1.16.78l-.13-.1c-3.6-2.81-10.83-9.6-9.62-18.14v0a12.94,12.94,0,0,1,.81-3.18c4.67-12.22,7.76-10.14,10-19v0c.11-.47.24-1,.36-1.54,1.8-8.7-7.07-10.85-8-14.89a3.9,3.9,0,0,1,.85-3.17c4.34-6.27,39.72-12.52,42.51-13a.54.54,0,0,1,.35,0l1.86.66Z"/><path class="cls-7" d="M72.12,117.27s-23.91,5.69-28,9.66.89,8.46,3,14.62c.85,2.53-.11,4.66-1.81,7.1-.74-2-3.87-9.23-9.68-5.25a32.76,32.76,0,0,0-5.17,4.43c.11-.47.24-1,.36-1.54,1.8-8.7-7.07-10.85-8-14.89a7.8,7.8,0,0,0,7.6.12c4.88-2.33,18.26-12.38,38-15.58Z"/><path class="cls-7" d="M36.62,162.84c-.9,2.65,4.82,13.18,7.55,18A.87.87,0,0,1,43.05,182c-3.2-1.45-8.62-3.67-10.88-3.39-3.39.42-2.44,5.82-1.63,8.89a.74.74,0,0,1-1.16.78l-.13-.1c-3.6-2.81-10.83-9.6-9.62-18.14,1,1.3,2.91,2,6.39-.59,6.16-4.67,10-12.72,14.81-14.91A33.2,33.2,0,0,0,36.62,162.84Z"/><path class="cls-8" d="M72.12,117.27s-23.91,5.69-28,9.66.89,8.46,3,14.62-6.61,9.92-10.47,21.29c-.9,2.65,4.82,13.18,7.55,18A.87.87,0,0,1,43.05,182c-3.2-1.45-8.62-3.67-10.88-3.39-3.39.42-2.44,5.82-1.63,8.89a.74.74,0,0,1-1.16.78l-.13-.1c-.87-3.19-3.74-8.21-.15-9.65,3.13-1.28,7.44,0,10,1a.85.85,0,0,0,1.06-1.2C38,174.25,33.56,165.64,33.76,164c.67-5.32,14-17.89,12.8-21.09s-8.36-12.22-6.43-16.46c1.29-2.82,17.54-7.67,28-10.48a.94.94,0,0,1,.5,0Z"/><path class="cls-9" d="M70,117.84s-24.35-3.42-29.59-1.21-2.26,8.2-2.58,14.69c-.13,2.67-1.81,4.29-4.28,6-1.77,1.15-4,2.33-6.31,3.9a33.38,33.38,0,0,0-6.93,6.15c-1.81,2.14-.33,14,.47,19.5a.87.87,0,0,1-1.49.72c-2.45-2.51-6.68-6.56-8.9-7.12C7.05,159.57,6,165,5.6,168.1a.74.74,0,0,1-1.37.3.7.7,0,0,0-.08-.14c-2.34-3.93-6.59-12.89-2.34-20.4v0a12.93,12.93,0,0,1,1.92-2.66c8.8-9.67,10.92-6.61,16.24-14v0c.28-.4.59-.83.9-1.3,4.85-7.44-2.62-12.69-2-16.79a3.92,3.92,0,0,1,1.95-2.64c6.33-4.25,41.55,2.84,44.32,3.42a.58.58,0,0,1,.32.16l1.48,1.3Z"/><path class="cls-7" d="M70,117.84s-24.35-3.42-29.59-1.21-2.26,8.2-2.58,14.69c-.13,2.67-1.81,4.29-4.28,6,.05-2.17-.24-10-7.1-8.42A33.3,33.3,0,0,0,20,131.09c.28-.4.59-.83.9-1.3,4.85-7.44-2.62-12.69-2-16.79a7.81,7.81,0,0,0,7,2.89c5.39-.39,21.52-4.86,41-.65Z"/><path class="cls-7" d="M20.27,147.32c-1.81,2.14-.33,14,.47,19.5a.87.87,0,0,1-1.49.72c-2.45-2.51-6.68-6.56-8.9-7.12C7.05,159.57,6,165,5.6,168.1a.74.74,0,0,1-1.37.3.7.7,0,0,0-.08-.14c-2.34-3.93-6.59-12.89-2.34-20.4.48,1.59,2,3,6.16,1.79,7.44-2.1,14-8.2,19.23-8.48A33.38,33.38,0,0,0,20.27,147.32Z"/><path class="cls-8" d="M70,117.84s-24.35-3.42-29.59-1.21-2.26,8.2-2.58,14.69-9.77,6.82-17.52,16c-1.81,2.14-.33,14,.47,19.5a.87.87,0,0,1-1.49.72c-2.45-2.51-6.68-6.56-8.9-7.12C7.05,159.57,6,165,5.6,168.1a.74.74,0,0,1-1.37.3.7.7,0,0,0-.08-.14c.35-3.28-.49-9,3.37-9,3.39,0,7,2.7,9,4.58a.85.85,0,0,0,1.42-.73c-.53-4.62-1.54-14.26-.76-15.68,2.56-4.71,19.57-11.54,19.61-15s-3.33-14.43,0-17.68c2.23-2.15,19.13-.73,29.88.46a.78.78,0,0,1,.45.21Z"/><path class="cls-10" d="M264.8,69.77c0,.23,0,.46,0,.69a.06.06,0,0,1,0,.06c0,.36,0,.71,0,1.08a1.62,1.62,0,0,0,0,.3.65.65,0,0,1,0,.21c0,.41-.06.83-.12,1.24s-.09.86-.17,1.29a1.55,1.55,0,0,1,0,.29l-.17,1a.07.07,0,0,1,0,0,25.06,25.06,0,0,1-.77,3.13c-.12.43-.25.83-.41,1.26s-.32,1-.52,1.44a34.45,34.45,0,0,1-1.57,3.54A53.75,53.75,0,0,1,247,102a82.65,82.65,0,0,1-9.13,6.6q-3.87,2.46-8.2,4.68a140.08,140.08,0,0,1-21.23,8.76c-1.83-.61-3.66-1.19-5.51-1.75q-55.9-16.8-115.55.27c-2.5.71-5,1.48-7.52,2.29-.23-.08-.46-.13-.7-.21-.9-.31-1.82-.6-2.73-.91-1.14-.36-2.25-.75-3.35-1.13-.67-.25-1.35-.48-2-.75-2.5-.91-4.91-1.89-7.26-2.91q-2.25-1-4.39-2-2.85-1.36-5.54-2.81l-2-1.16c-.72-.4-1.43-.83-2.12-1.25-.52-.31-1-.6-1.5-.92a6.39,6.39,0,0,1-.58-.35c-.12-.08-.23-.15-.33-.23-.79-.5-1.56-1-2.29-1.5-1.5-1-2.92-2.08-4.27-3.12-.69-.54-1.35-1.08-2-1.62A53.38,53.38,0,0,1,24.9,85.22c-.31-.61-.62-1.23-.89-1.86s-.44-1-.63-1.52c-.12-.29-.23-.6-.35-.89a25.95,25.95,0,0,1-.67-2.1c-.25-.86-.47-1.73-.66-2.62-.08-.46-.17-.9-.23-1.36a.3.3,0,0,1,0-.18c-.06-.42-.11-.86-.17-1.29s-.12-1-.14-1.48l-.05-1.38a.06.06,0,0,1,0-.08c0-.23,0-.46,0-.69a29.79,29.79,0,0,1,.27-4c.05-.44.11-.88.19-1.33s.17-1,.29-1.42C28.4,31.9,80.11,0,142.93,0S257.47,31.9,264.05,63a13.22,13.22,0,0,1,.29,1.42A32.9,32.9,0,0,1,264.8,69.77Z"/><path class="cls-11" d="M264.18,76.07c.1-1,.16-2.07.16-3.11a31.49,31.49,0,0,0-.46-5.32C258.6,35.85,206.27,3.19,142.47,3.19,79.23,3.19,27.26,35.43,21.21,66.82c.06-.77.16-1.55.3-2.33C26.82,32.7,79.15.05,142.93.05S259.05,32.7,264.34,64.49a31.61,31.61,0,0,1,.46,5.33A31.1,31.1,0,0,1,264.18,76.07Z"/><path class="cls-12" d="M248,97.28a11.92,11.92,0,0,1-1,4.75,82.65,82.65,0,0,1-9.13,6.6q-3.87,2.46-8.2,4.68a140.08,140.08,0,0,1-21.23,8.76c-1.83-.61-3.66-1.19-5.51-1.75q-55.9-16.8-115.55.27c-2.5.71-5,1.48-7.52,2.29-.23-.08-.46-.13-.7-.21-.9-.31-1.82-.6-2.73-.91-1.14-.36-2.25-.75-3.35-1.13-.67-.25-1.35-.48-2-.75-2.5-.91-4.91-1.89-7.26-2.91q-2.25-1-4.39-2-2.85-1.36-5.54-2.81l-2-1.16c-.72-.4-1.43-.83-2.12-1.25-.52-.31-1-.6-1.5-.92a6.39,6.39,0,0,1-.58-.35c-.12-.08-.23-.15-.33-.23-.79-.5-1.56-1-2.29-1.5q-2.25-1.53-4.27-3.12c-.69-.54-1.35-1.08-2-1.62a12,12,0,0,1-1-4.73c0-19.08,47.05-34.56,105.12-34.56S248,78.2,248,97.28Z"/><g class="cls-13"><path class="cls-14" d="M264.34,66.45c-.42-1-.9-1.94-1.42-2.9-13.69-25-62.3-51.25-120-51.25C83,12.3,32.91,40,21.51,66.45a33.68,33.68,0,0,0-.44,4,.06.06,0,0,0,0,.08l.05,1.38c0,.5.08,1,.14,1.48s.11.87.17,1.29a.3.3,0,0,0,0,.18c.06.46.15.9.23,1.36.19.89.41,1.76.66,2.62A25.95,25.95,0,0,0,23,81c.12.29.23.6.35.89a22.66,22.66,0,0,1-.33-3.93,10.11,10.11,0,0,1,0-1.1c1.29-29.24,54.54-60.54,119.84-60.54S261.49,47.59,262.76,76.83a9.75,9.75,0,0,1,0,1.08,23,23,0,0,1-.31,3.87c.2-.48.37-1,.52-1.44s.29-.83.41-1.26a25.06,25.06,0,0,0,.77-3.13.07.07,0,0,0,0,0l.17-1a1.55,1.55,0,0,0,0-.29c.08-.43.13-.87.17-1.29s.1-.83.12-1.24a.65.65,0,0,0,0-.21,1.62,1.62,0,0,1,0-.3c0-.37,0-.72,0-1.08a.06.06,0,0,0,0-.06A35.9,35.9,0,0,0,264.34,66.45Z"/></g><path class="cls-15" d="M264.34,64.43s0,0,0,0a36.9,36.9,0,0,0-3.5-6.28C244.74,34.84,198,10.28,142.93,10.28c-58.68,0-108,26.87-120.67,52.54-.27.52-.5,1-.73,1.58,0,0,0,0,0,0-.08.45-.14.89-.19,1.33a29.79,29.79,0,0,0-.27,4c0,.23,0,.46,0,.69a.06.06,0,0,0,0,.08l.05,1.38c0,.5.08,1,.14,1.48s.11.87.17,1.29a.3.3,0,0,0,0,.18c.06.46.15.9.23,1.36.19.89.41,1.76.66,2.62A25.95,25.95,0,0,0,23,81c.12.29.23.6.35.89.19.5.4,1,.63,1.52s.58,1.25.89,1.86a24.38,24.38,0,0,1-1.81-8.41,7.08,7.08,0,0,1,0-.92c0-29.74,53.77-61.64,119.88-61.64S262.8,46.15,262.8,75.89a7.39,7.39,0,0,1,0,.94,24.63,24.63,0,0,1-1.84,8.49,34.45,34.45,0,0,0,1.57-3.54c.2-.48.37-1,.52-1.44s.29-.83.41-1.26a25.06,25.06,0,0,0,.77-3.13.07.07,0,0,0,0,0l.17-1a1.55,1.55,0,0,0,0-.29,3.88,3.88,0,0,0,.11-.75c0-.2.06-.37.06-.54.06-.41.1-.83.12-1.24a.65.65,0,0,0,0-.21,1.42,1.42,0,0,0,0-.3c0-.37,0-.72,0-1.08a.06.06,0,0,0,0-.06c0-.23,0-.46,0-.69A32.9,32.9,0,0,0,264.34,64.43Z"/><g class="cls-16"><path class="cls-17" d="M171.4,29C126.49,15,158,15.16,113.22,29c-19.93,6.15-44.11,16.21-43.89,23,.35,10.73,144.71,10.57,146,0C216.08,45.21,191.31,35.14,171.4,29Z"/></g><path class="cls-18" d="M234.7,132.76a211.33,211.33,0,0,0-26.22-10.69c-1.83-.61-3.66-1.19-5.51-1.75q-55.9-16.8-115.55.27c-2.5.71-5,1.48-7.52,2.29q-12.14,3.9-24.43,9.18l4-17.09,3-12.63A22.91,22.91,0,0,1,77.57,85.78c46.39-15.42,91.69-16,134.76-.23A23,23,0,0,1,226.57,101l3.14,12.28Z"/><path class="cls-7" d="M203,120.32c5.47-10.09,7.2-23.85,3.79-34.21-11.82-5.68-31.3-9-54.4-11.36a69.93,69.93,0,0,0-14.32.06C115.63,77.22,97.45,81,84.58,86.42c-4.64,10.36-3,24,2.84,34.17a269.52,269.52,0,0,0-31.95,11.47l7-29.72A22.91,22.91,0,0,1,77.57,85.78c46.39-15.42,91.69-16,134.76-.23A23,23,0,0,1,226.57,101l8.13,31.73A212.67,212.67,0,0,0,203,120.32Z"/><g class="cls-19"><path class="cls-20" d="M176.77,81.5a20.82,20.82,0,0,0-11.12,0c-13.9,3.09-24.86,16.66-22.45,21.14,1.52,2.81,7.16-.11,20.06.87,18.71,1.42,25.94,9,29.2,5.67C196.75,104.76,190,85.56,176.77,81.5Z"/></g><path class="cls-21" d="M55.47,132.06l1.26,1.5c60-24.49,118.83-25.57,176.42,1l1.55-1.78C177,104.81,117.19,105,55.47,132.06Z"/></g></g></g></svg>