<svg xmlns="http://www.w3.org/2000/svg" xmlns:xlink="http://www.w3.org/1999/xlink" viewBox="0 0 267.57 260.35"><defs><style>.cls-1{mask:url(#mask);filter:url(#luminosity-noclip-13);}.cls-10,.cls-12,.cls-14,.cls-16,.cls-18,.cls-2,.cls-20,.cls-22,.cls-24,.cls-27,.cls-29,.cls-31,.cls-37,.cls-39,.cls-4,.cls-45,.cls-46,.cls-48,.cls-6,.cls-66,.cls-8{mix-blend-mode:multiply;}.cls-2{fill:url(#linear-gradient);}.cls-3{mask:url(#mask-2);filter:url(#luminosity-noclip-18);}.cls-4{fill:url(#linear-gradient-2);}.cls-5{mask:url(#mask-3);filter:url(#luminosity-noclip-19);}.cls-6{fill:url(#linear-gradient-3);}.cls-7{mask:url(#mask-4);filter:url(#luminosity-noclip-20);}.cls-8{fill:url(#linear-gradient-4);}.cls-9{mask:url(#mask-5);filter:url(#luminosity-noclip-21);}.cls-10{fill:url(#linear-gradient-5);}.cls-11{mask:url(#mask-6);filter:url(#luminosity-noclip-22);}.cls-12{fill:url(#linear-gradient-6);}.cls-13{mask:url(#mask-7);filter:url(#luminosity-noclip-14);}.cls-14{fill:url(#linear-gradient-7);}.cls-15{mask:url(#mask-8);filter:url(#luminosity-noclip-23);}.cls-16{fill:url(#linear-gradient-8);}.cls-17{mask:url(#mask-9);filter:url(#luminosity-noclip-24);}.cls-18{fill:url(#linear-gradient-9);}.cls-19{mask:url(#mask-10);filter:url(#luminosity-noclip-15);}.cls-20{fill:url(#linear-gradient-10);}.cls-21{mask:url(#mask-11);filter:url(#luminosity-noclip-16);}.cls-22{fill:url(#linear-gradient-11);}.cls-23{mask:url(#mask-12);filter:url(#luminosity-noclip-17);}.cls-24{fill:url(#linear-gradient-12);}.cls-25{isolation:isolate;}.cls-26{fill:url(#linear-gradient-13);}.cls-27{opacity:0.7;fill:url(#Áåçûìÿííûé_ãðàäèåíò_2);}.cls-28{fill:url(#linear-gradient-14);}.cls-29,.cls-37,.cls-59,.cls-61,.cls-63,.cls-65,.cls-66{opacity:0.5;}.cls-29{fill:url(#Áåçûìÿííûé_ãðàäèåíò_2-2);}.cls-30{fill:url(#_76);}.cls-31{fill:url(#Áåçûìÿííûé_ãðàäèåíò_2-3);}.cls-32{mask:url(#mask-13);}.cls-33,.cls-35,.cls-41,.cls-43,.cls-50,.cls-52,.cls-55,.cls-57,.cls-59,.cls-61,.cls-63,.cls-65{mix-blend-mode:overlay;}.cls-33,.cls-35,.cls-41,.cls-43,.cls-50,.cls-52,.cls-55,.cls-57{opacity:0.8;}.cls-33{fill:url(#linear-gradient-15);}.cls-34{mask:url(#mask-14);}.cls-35{fill:url(#linear-gradient-16);}.cls-36{fill:url(#linear-gradient-17);}.cls-37{fill:url(#Áåçûìÿííûé_ãðàäèåíò_2-4);}.cls-38{fill:url(#_76-2);}.cls-39{fill:url(#Áåçûìÿííûé_ãðàäèåíò_2-5);}.cls-40{mask:url(#mask-15);}.cls-41{fill:url(#linear-gradient-18);}.cls-42{mask:url(#mask-16);}.cls-43{fill:url(#linear-gradient-19);}.cls-44{fill:url(#linear-gradient-20);}.cls-45{fill:url(#Áåçûìÿííûé_ãðàäèåíò_2-6);}.cls-46{fill:url(#Áåçûìÿííûé_ãðàäèåíò_2-7);}.cls-47{fill:url(#_76-3);}.cls-48{fill:url(#Áåçûìÿííûé_ãðàäèåíò_2-8);}.cls-49{mask:url(#mask-17);}.cls-50{fill:url(#linear-gradient-21);}.cls-51{mask:url(#mask-18);}.cls-52{fill:url(#linear-gradient-22);}.cls-53{fill:url(#linear-gradient-23);}.cls-54{mask:url(#mask-19);}.cls-55{fill:url(#linear-gradient-24);}.cls-56{mask:url(#mask-20);}.cls-57{fill:url(#linear-gradient-25);}.cls-58{mask:url(#mask-21);}.cls-59{fill:url(#linear-gradient-26);}.cls-60{mask:url(#mask-22);}.cls-61{fill:url(#linear-gradient-27);}.cls-62{mask:url(#mask-23);}.cls-63{fill:url(#linear-gradient-28);}.cls-64{mask:url(#mask-24);}.cls-65{fill:url(#linear-gradient-29);}.cls-66{fill:url(#Áåçûìÿííûé_ãðàäèåíò_2-9);}.cls-67{filter:url(#luminosity-noclip-12);}.cls-68{filter:url(#luminosity-noclip-11);}.cls-69{filter:url(#luminosity-noclip-10);}.cls-70{filter:url(#luminosity-noclip-9);}.cls-71{filter:url(#luminosity-noclip-8);}.cls-72{filter:url(#luminosity-noclip-7);}.cls-73{filter:url(#luminosity-noclip-6);}.cls-74{filter:url(#luminosity-noclip-5);}.cls-75{filter:url(#luminosity-noclip-4);}.cls-76{filter:url(#luminosity-noclip-3);}.cls-77{filter:url(#luminosity-noclip-2);}.cls-78{filter:url(#luminosity-noclip);}</style><filter id="luminosity-noclip" x="0.16" y="-8364.22" width="31.32" height="32766" filterUnits="userSpaceOnUse" color-interpolation-filters="sRGB"><feFlood flood-color="#fff" result="bg"/><feBlend in="SourceGraphic" in2="bg"/></filter><mask id="mask" x="0.16" y="-8364.22" width="31.32" height="32766" maskUnits="userSpaceOnUse"><g class="cls-78"/></mask><linearGradient id="linear-gradient" x1="15.82" y1="86.54" x2="15.82" y2="96.47" gradientUnits="userSpaceOnUse"><stop offset="0"/><stop offset="0.22" stop-color="#4a4a4a"/><stop offset="0.43" stop-color="#8a8a8a"/><stop offset="0.62" stop-color="#bdbdbd"/><stop offset="0.78" stop-color="#e1e1e1"/><stop offset="0.91" stop-color="#f7f7f7"/><stop offset="1" stop-color="#fff"/></linearGradient><filter id="luminosity-noclip-2" x="166.86" y="-8364.22" width="56.37" height="32766" filterUnits="userSpaceOnUse" color-interpolation-filters="sRGB"><feFlood flood-color="#fff" result="bg"/><feBlend in="SourceGraphic" in2="bg"/></filter><mask id="mask-2" x="166.86" y="-8364.22" width="56.37" height="32766" maskUnits="userSpaceOnUse"><g class="cls-77"/></mask><linearGradient id="linear-gradient-2" x1="1084.93" y1="137.74" x2="1084.93" y2="156.21" gradientTransform="matrix(-1, 0, 0, 1, 1279.98, 0)" xlink:href="#linear-gradient"/><filter id="luminosity-noclip-3" x="157.18" y="-8364.22" width="7.15" height="32766" filterUnits="userSpaceOnUse" color-interpolation-filters="sRGB"><feFlood flood-color="#fff" result="bg"/><feBlend in="SourceGraphic" in2="bg"/></filter><mask id="mask-3" x="157.18" y="-8364.22" width="7.15" height="32766" maskUnits="userSpaceOnUse"><g class="cls-76"/></mask><linearGradient id="linear-gradient-3" x1="160.76" y1="158.73" x2="160.76" y2="148.12" xlink:href="#linear-gradient"/><filter id="luminosity-noclip-4" x="97.88" y="-8364.22" width="7.15" height="32766" filterUnits="userSpaceOnUse" color-interpolation-filters="sRGB"><feFlood flood-color="#fff" result="bg"/><feBlend in="SourceGraphic" in2="bg"/></filter><mask id="mask-4" x="97.88" y="-8364.22" width="7.15" height="32766" maskUnits="userSpaceOnUse"><g class="cls-75"/></mask><linearGradient id="linear-gradient-4" x1="1016.64" y1="158.73" x2="1016.64" y2="148.12" gradientTransform="matrix(-1, 0, 0, 1, 1118.09, 0)" xlink:href="#linear-gradient"/><filter id="luminosity-noclip-5" x="46.38" y="-8364.22" width="23.24" height="32766" filterUnits="userSpaceOnUse" color-interpolation-filters="sRGB"><feFlood flood-color="#fff" result="bg"/><feBlend in="SourceGraphic" in2="bg"/></filter><mask id="mask-5" x="46.38" y="-8364.22" width="23.24" height="32766" maskUnits="userSpaceOnUse"><g class="cls-74"/></mask><linearGradient id="linear-gradient-5" x1="58" y1="212.44" x2="58" y2="149.61" xlink:href="#linear-gradient"/><filter id="luminosity-noclip-6" x="195.38" y="-8364.22" width="23.24" height="32766" filterUnits="userSpaceOnUse" color-interpolation-filters="sRGB"><feFlood flood-color="#fff" result="bg"/><feBlend in="SourceGraphic" in2="bg"/></filter><mask id="mask-6" x="195.38" y="-8364.22" width="23.24" height="32766" maskUnits="userSpaceOnUse"><g class="cls-73"/></mask><linearGradient id="linear-gradient-6" x1="1068.99" y1="212.44" x2="1068.99" y2="149.61" gradientTransform="matrix(-1, 0, 0, 1, 1275.99, 0)" xlink:href="#linear-gradient"/><filter id="luminosity-noclip-7" x="5.18" y="-8364.22" width="14.46" height="32766" filterUnits="userSpaceOnUse" color-interpolation-filters="sRGB"><feFlood flood-color="#fff" result="bg"/><feBlend in="SourceGraphic" in2="bg"/></filter><mask id="mask-7" x="5.18" y="-8364.22" width="14.46" height="32766" maskUnits="userSpaceOnUse"><g class="cls-72"/></mask><linearGradient id="linear-gradient-7" x1="12.41" y1="87.77" x2="12.41" y2="63.22" xlink:href="#linear-gradient"/><filter id="luminosity-noclip-8" x="82.06" y="-8364.22" width="102.76" height="32766" filterUnits="userSpaceOnUse" color-interpolation-filters="sRGB"><feFlood flood-color="#fff" result="bg"/><feBlend in="SourceGraphic" in2="bg"/></filter><mask id="mask-8" x="82.06" y="-8364.22" width="102.76" height="32766" maskUnits="userSpaceOnUse"><g class="cls-71"/></mask><linearGradient id="linear-gradient-8" x1="133.44" y1="205.92" x2="133.44" y2="220.74" xlink:href="#linear-gradient"/><filter id="luminosity-noclip-9" x="51.04" y="-8364.22" width="165.96" height="32766" filterUnits="userSpaceOnUse" color-interpolation-filters="sRGB"><feFlood flood-color="#fff" result="bg"/><feBlend in="SourceGraphic" in2="bg"/></filter><mask id="mask-9" x="51.04" y="-8364.22" width="165.96" height="32766" maskUnits="userSpaceOnUse"><g class="cls-70"/></mask><linearGradient id="linear-gradient-9" x1="134.02" y1="20.62" x2="134.02" y2="6.67" xlink:href="#linear-gradient"/><filter id="luminosity-noclip-10" x="236.09" y="-8364.22" width="31.32" height="32766" filterUnits="userSpaceOnUse" color-interpolation-filters="sRGB"><feFlood flood-color="#fff" result="bg"/><feBlend in="SourceGraphic" in2="bg"/></filter><mask id="mask-10" x="236.09" y="-8364.22" width="31.32" height="32766" maskUnits="userSpaceOnUse"><g class="cls-69"/></mask><linearGradient id="linear-gradient-10" x1="1198.52" y1="86.54" x2="1198.52" y2="96.47" gradientTransform="matrix(-1, 0, 0, 1, 1450.27, 0)" xlink:href="#linear-gradient"/><filter id="luminosity-noclip-11" x="247.94" y="-8364.22" width="14.46" height="32766" filterUnits="userSpaceOnUse" color-interpolation-filters="sRGB"><feFlood flood-color="#fff" result="bg"/><feBlend in="SourceGraphic" in2="bg"/></filter><mask id="mask-11" x="247.94" y="-8364.22" width="14.46" height="32766" maskUnits="userSpaceOnUse"><g class="cls-68"/></mask><linearGradient id="linear-gradient-11" x1="1195.11" y1="87.77" x2="1195.11" y2="63.22" gradientTransform="matrix(-1, 0, 0, 1, 1450.27, 0)" xlink:href="#linear-gradient"/><filter id="luminosity-noclip-12" x="43.27" y="-8364.22" width="56.86" height="32766" filterUnits="userSpaceOnUse" color-interpolation-filters="sRGB"><feFlood flood-color="#fff" result="bg"/><feBlend in="SourceGraphic" in2="bg"/></filter><mask id="mask-12" x="43.27" y="-8364.22" width="56.86" height="32766" maskUnits="userSpaceOnUse"><g class="cls-67"/></mask><linearGradient id="linear-gradient-12" x1="71.7" y1="137.74" x2="71.7" y2="156.21" xlink:href="#linear-gradient"/><linearGradient id="linear-gradient-13" x1="134.05" y1="237.22" x2="134.05" y2="260.35" gradientUnits="userSpaceOnUse"><stop offset="0" stop-color="#4995fc"/><stop offset="0.49" stop-color="#316dbb"/><stop offset="1" stop-color="#164074"/></linearGradient><linearGradient id="Áåçûìÿííûé_ãðàäèåíò_2" x1="134.05" y1="237.22" x2="134.05" y2="260.35" gradientUnits="userSpaceOnUse"><stop offset="0.01" stop-color="#9c66a3"/><stop offset="0.98" stop-color="#cf98af"/></linearGradient><linearGradient id="linear-gradient-14" x1="35.65" y1="60.3" x2="35.65" y2="193" xlink:href="#linear-gradient-13"/><linearGradient id="Áåçûìÿííûé_ãðàäèåíò_2-2" x1="35.65" y1="60.33" x2="35.65" y2="193" xlink:href="#Áåçûìÿííûé_ãðàäèåíò_2"/><linearGradient id="_76" x1="17.59" y1="86.54" x2="17.59" y2="133.63" gradientUnits="userSpaceOnUse"><stop offset="0" stop-color="#5a365d"/><stop offset="1" stop-color="#5f1945"/></linearGradient><linearGradient id="Áåçûìÿííûé_ãðàäèåíò_2-3" x1="19" y1="86.54" x2="19" y2="133.63" xlink:href="#Áåçûìÿííûé_ãðàäèåíò_2"/><filter id="luminosity-noclip-13" x="0.16" y="86.54" width="31.32" height="9.93" filterUnits="userSpaceOnUse" color-interpolation-filters="sRGB"><feFlood flood-color="#fff" result="bg"/><feBlend in="SourceGraphic" in2="bg"/></filter><mask id="mask-13" x="0.16" y="86.54" width="31.32" height="9.93" maskUnits="userSpaceOnUse"><g class="cls-1"><path class="cls-2" d="M31.48,89.49c-13.1.19-24.06,2.1-31.32,7,1.36-5.78,14.49-8.25,23.21-9.28,4.45-.52,7.75-.65,7.75-.65S31.26,87.64,31.48,89.49Z"/></g></mask><linearGradient id="linear-gradient-15" x1="15.82" y1="86.54" x2="15.82" y2="96.47" gradientUnits="userSpaceOnUse"><stop offset="0" stop-color="#ffadff"/><stop offset="0.54" stop-color="#ffbdff"/><stop offset="1" stop-color="#ffc5ff"/></linearGradient><filter id="luminosity-noclip-14" x="5.18" y="63.22" width="14.46" height="24.55" filterUnits="userSpaceOnUse" color-interpolation-filters="sRGB"><feFlood flood-color="#fff" result="bg"/><feBlend in="SourceGraphic" in2="bg"/></filter><mask id="mask-14" x="5.18" y="63.22" width="14.46" height="24.55" maskUnits="userSpaceOnUse"><g class="cls-13"><path class="cls-14" d="M19.33,63.35C18.21,62.47,14,66.1,12,68.17,4.85,75.68,4.23,87.05,6,87.74,8.84,88.81,21.79,65.29,19.33,63.35Z"/></g></mask><linearGradient id="linear-gradient-16" x1="12.41" y1="87.77" x2="12.41" y2="63.22" xlink:href="#linear-gradient-15"/><linearGradient id="linear-gradient-17" x1="1218.35" y1="60.3" x2="1218.35" y2="193" gradientTransform="matrix(-1, 0, 0, 1, 1450.27, 0)" xlink:href="#linear-gradient-13"/><linearGradient id="Áåçûìÿííûé_ãðàäèåíò_2-4" x1="1218.35" y1="60.33" x2="1218.35" y2="193" gradientTransform="matrix(-1, 0, 0, 1, 1450.27, 0)" xlink:href="#Áåçûìÿííûé_ãðàäèåíò_2"/><linearGradient id="_76-2" x1="1200.29" y1="86.54" x2="1200.29" y2="133.63" gradientTransform="matrix(-1, 0, 0, 1, 1450.27, 0)" xlink:href="#_76"/><linearGradient id="Áåçûìÿííûé_ãðàäèåíò_2-5" x1="1201.7" y1="86.54" x2="1201.7" y2="133.63" gradientTransform="matrix(-1, 0, 0, 1, 1450.27, 0)" xlink:href="#Áåçûìÿííûé_ãðàäèåíò_2"/><filter id="luminosity-noclip-15" x="236.09" y="86.54" width="31.32" height="9.93" filterUnits="userSpaceOnUse" color-interpolation-filters="sRGB"><feFlood flood-color="#fff" result="bg"/><feBlend in="SourceGraphic" in2="bg"/></filter><mask id="mask-15" x="236.09" y="86.54" width="31.32" height="9.93" maskUnits="userSpaceOnUse"><g class="cls-19"><path class="cls-20" d="M236.09,89.49c13.1.19,24.07,2.1,31.32,7-1.35-5.78-14.48-8.25-23.2-9.28-4.45-.52-7.75-.65-7.75-.65S236.32,87.64,236.09,89.49Z"/></g></mask><linearGradient id="linear-gradient-18" x1="1198.52" y1="86.54" x2="1198.52" y2="96.47" gradientTransform="matrix(-1, 0, 0, 1, 1450.27, 0)" xlink:href="#linear-gradient-15"/><filter id="luminosity-noclip-16" x="247.94" y="63.22" width="14.46" height="24.55" filterUnits="userSpaceOnUse" color-interpolation-filters="sRGB"><feFlood flood-color="#fff" result="bg"/><feBlend in="SourceGraphic" in2="bg"/></filter><mask id="mask-16" x="247.94" y="63.22" width="14.46" height="24.55" maskUnits="userSpaceOnUse"><g class="cls-21"><path class="cls-22" d="M248.24,63.35c1.12-.88,5.35,2.75,7.33,4.82,7.15,7.51,7.77,18.88,6,19.57C258.73,88.81,245.79,65.29,248.24,63.35Z"/></g></mask><linearGradient id="linear-gradient-19" x1="1195.11" y1="87.77" x2="1195.11" y2="63.22" gradientTransform="matrix(-1, 0, 0, 1, 1450.27, 0)" xlink:href="#linear-gradient-15"/><linearGradient id="linear-gradient-20" x1="134.26" y1="0" x2="134.26" y2="251.48" xlink:href="#linear-gradient-13"/><linearGradient id="Áåçûìÿííûé_ãðàäèåíò_2-6" x1="132.77" y1="3.6" x2="132.77" y2="66.82" xlink:href="#Áåçûìÿííûé_ãðàäèåíò_2"/><linearGradient id="Áåçûìÿííûé_ãðàäèåíò_2-7" x1="134.16" y1="134.37" x2="134.16" y2="251.48" xlink:href="#Áåçûìÿííûé_ãðàäèåíò_2"/><linearGradient id="_76-3" x1="132.77" y1="3.6" x2="132.77" y2="63.81" xlink:href="#_76"/><linearGradient id="Áåçûìÿííûé_ãðàäèåíò_2-8" x1="132.77" y1="47.38" x2="132.77" y2="64.01" xlink:href="#Áåçûìÿííûé_ãðàäèåíò_2"/><filter id="luminosity-noclip-17" x="43.27" y="137.74" width="56.86" height="18.47" filterUnits="userSpaceOnUse" color-interpolation-filters="sRGB"><feFlood flood-color="#fff" result="bg"/><feBlend in="SourceGraphic" in2="bg"/></filter><mask id="mask-17" x="43.27" y="137.74" width="56.86" height="18.47" maskUnits="userSpaceOnUse"><g class="cls-23"><path class="cls-24" d="M100.13,146s-26.34,13-42.73,9.72-14-17.95-14-17.95l5.65.82A8.33,8.33,0,0,0,57.32,146Z"/></g></mask><linearGradient id="linear-gradient-21" x1="71.7" y1="137.74" x2="71.7" y2="156.21" xlink:href="#linear-gradient-15"/><filter id="luminosity-noclip-18" x="166.86" y="137.74" width="56.37" height="18.47" filterUnits="userSpaceOnUse" color-interpolation-filters="sRGB"><feFlood flood-color="#fff" result="bg"/><feBlend in="SourceGraphic" in2="bg"/></filter><mask id="mask-18" x="166.86" y="137.74" width="56.37" height="18.47" maskUnits="userSpaceOnUse"><g class="cls-3"><path class="cls-4" d="M166.86,146s26.35,13,42.74,9.72S223,137.74,223,137.74l-5.07.82a8.31,8.31,0,0,1-8.27,7.41Z"/></g></mask><linearGradient id="linear-gradient-22" x1="1084.93" y1="137.74" x2="1084.93" y2="156.21" gradientTransform="matrix(-1, 0, 0, 1, 1279.98, 0)" xlink:href="#linear-gradient-15"/><linearGradient id="linear-gradient-23" x1="133.35" y1="208.17" x2="133.35" y2="63.49" gradientUnits="userSpaceOnUse"><stop offset="0" stop-color="#356db8"/><stop offset="0.49" stop-color="#204677"/><stop offset="1" stop-color="#091b30"/></linearGradient><filter id="luminosity-noclip-19" x="157.18" y="148.12" width="7.15" height="10.61" filterUnits="userSpaceOnUse" color-interpolation-filters="sRGB"><feFlood flood-color="#fff" result="bg"/><feBlend in="SourceGraphic" in2="bg"/></filter><mask id="mask-19" x="157.18" y="148.12" width="7.15" height="10.61" maskUnits="userSpaceOnUse"><g class="cls-5"><path class="cls-6" d="M164.12,148.29c-.75-.71-4,.86-5.59,3.41-1.81,2.83-1.58,6.67-.58,7C159.72,159.29,165.49,149.58,164.12,148.29Z"/></g></mask><linearGradient id="linear-gradient-24" x1="160.76" y1="158.73" x2="160.76" y2="148.12" xlink:href="#linear-gradient-15"/><filter id="luminosity-noclip-20" x="97.88" y="148.12" width="7.15" height="10.61" filterUnits="userSpaceOnUse" color-interpolation-filters="sRGB"><feFlood flood-color="#fff" result="bg"/><feBlend in="SourceGraphic" in2="bg"/></filter><mask id="mask-20" x="97.88" y="148.12" width="7.15" height="10.61" maskUnits="userSpaceOnUse"><g class="cls-7"><path class="cls-8" d="M98.09,148.29c.75-.71,4,.86,5.58,3.41,1.82,2.83,1.59,6.67.58,7C102.49,159.29,96.71,149.58,98.09,148.29Z"/></g></mask><linearGradient id="linear-gradient-25" x1="1016.64" y1="158.73" x2="1016.64" y2="148.12" gradientTransform="matrix(-1, 0, 0, 1, 1118.09, 0)" xlink:href="#linear-gradient-15"/><filter id="luminosity-noclip-21" x="46.38" y="149.61" width="23.24" height="62.82" filterUnits="userSpaceOnUse" color-interpolation-filters="sRGB"><feFlood flood-color="#fff" result="bg"/><feBlend in="SourceGraphic" in2="bg"/></filter><mask id="mask-21" x="46.38" y="149.61" width="23.24" height="62.82" maskUnits="userSpaceOnUse"><g class="cls-9"><path class="cls-10" d="M61.64,149.71c-4.26-1.06-10.79,6.84-13.49,14.26-8,21.9,13.38,50.2,19.27,48.38,3.21-1,2.4-12,.77-34.11C67,161.37,66.08,150.81,61.64,149.71Z"/></g></mask><linearGradient id="linear-gradient-26" x1="58" y1="212.44" x2="58" y2="149.61" xlink:href="#linear-gradient-15"/><filter id="luminosity-noclip-22" x="195.38" y="149.61" width="23.24" height="62.82" filterUnits="userSpaceOnUse" color-interpolation-filters="sRGB"><feFlood flood-color="#fff" result="bg"/><feBlend in="SourceGraphic" in2="bg"/></filter><mask id="mask-22" x="195.38" y="149.61" width="23.24" height="62.82" maskUnits="userSpaceOnUse"><g class="cls-11"><path class="cls-12" d="M203.36,149.71c4.27-1.06,10.79,6.84,13.5,14.26,8,21.9-13.39,50.2-19.28,48.38-3.21-1-2.4-12-.77-34.11C198.05,161.37,198.92,150.81,203.36,149.71Z"/></g></mask><linearGradient id="linear-gradient-27" x1="1068.99" y1="212.44" x2="1068.99" y2="149.61" gradientTransform="matrix(-1, 0, 0, 1, 1275.99, 0)" xlink:href="#linear-gradient-15"/><filter id="luminosity-noclip-23" x="82.06" y="205.92" width="102.76" height="14.81" filterUnits="userSpaceOnUse" color-interpolation-filters="sRGB"><feFlood flood-color="#fff" result="bg"/><feBlend in="SourceGraphic" in2="bg"/></filter><mask id="mask-23" x="82.06" y="205.92" width="102.76" height="14.81" maskUnits="userSpaceOnUse"><g class="cls-15"><path class="cls-16" d="M82.07,206.63c.46-1.8,18.16,4.2,47.42,4.63,34.08.51,54.82-7,55.32-5,.56,2.18-24.2,15.19-54.36,14.46C103.57,220.05,81.55,208.69,82.07,206.63Z"/></g></mask><linearGradient id="linear-gradient-28" x1="133.44" y1="205.92" x2="133.44" y2="220.74" xlink:href="#linear-gradient-15"/><filter id="luminosity-noclip-24" x="51.04" y="6.67" width="165.96" height="13.95" filterUnits="userSpaceOnUse" color-interpolation-filters="sRGB"><feFlood flood-color="#fff" result="bg"/><feBlend in="SourceGraphic" in2="bg"/></filter><mask id="mask-24" x="51.04" y="6.67" width="165.96" height="13.95" maskUnits="userSpaceOnUse"><g class="cls-17"><path class="cls-18" d="M51,14.78c-.07-3.4,42.29-8.39,84-8.1,40.21.28,82,5.46,81.92,8.87-.11,3.81-52.84,5.41-88.67,5C101.7,20.26,51.12,18.49,51,14.78Z"/></g></mask><linearGradient id="linear-gradient-29" x1="134.02" y1="20.62" x2="134.02" y2="6.67" xlink:href="#linear-gradient-15"/><linearGradient id="Áåçûìÿííûé_ãðàäèåíò_2-9" x1="132.57" y1="56.9" x2="132.57" y2="36.37" xlink:href="#Áåçûìÿííûé_ãðàäèåíò_2"/></defs><g class="cls-25"><g id="Layer_2" data-name="Layer 2"><g id="Layer_1-2" data-name="Layer 1"><path class="cls-26" d="M173.41,257.13a242,242,0,0,1-78.71,0c-6-1-10.38-5.1-10.38-9.85h0c0-5.56,5.87-10.06,13.11-10.06h73.24c7.24,0,13.11,4.5,13.11,10.06h0C183.78,252,179.46,256.14,173.41,257.13Z"/><path class="cls-27" d="M173.41,257.13a242,242,0,0,1-78.71,0c-6-1-10.38-5.1-10.38-9.85h0c0-5.56,5.87-10.06,13.11-10.06h73.24c7.24,0,13.11,4.5,13.11,10.06h0C183.78,252,179.46,256.14,173.41,257.13Z"/><path class="cls-28" d="M68.91,146l-.09.65C67.06,158.08,63.18,169,56.88,178c-3.22,4.62-7.06,10.14-11.58,13a11.19,11.19,0,0,1-6.78,2c-5.2-.37-10.37-5.06-15.12-12.48-6.88-10.75-12.85-27.25-16.65-44.62-.19-.89-.39-1.78-.57-2.68A171.3,171.3,0,0,1,2.42,95.84c0-.89.06-1.79.11-2.68.7-14.47,4.3-26.06,11.84-30.62a16.65,16.65,0,0,1,9.53-2.21,26.32,26.32,0,0,1,3.63.42A41.22,41.22,0,0,1,35.14,63,39.38,39.38,0,0,1,48,71.42,50.9,50.9,0,0,1,52.27,76,8.26,8.26,0,0,0,49,82.64v55A8.33,8.33,0,0,0,57.32,146Z"/><path class="cls-29" d="M68.91,146l-.09.65C67.06,158.08,63.18,169,56.88,178c-3.22,4.62-7.06,10.14-11.58,13a11.19,11.19,0,0,1-6.78,2c-5.2-.37-10.37-5.06-15.12-12.48,7.31-1.51,8.67-22.22,7.72-46.24-6.43,2.16-18.87,2.27-24.37,1.62-.19-.89-.39-1.78-.57-2.68A171.3,171.3,0,0,1,2.42,95.84c4.42-3.53,14.06-5.24,21-6,1.56-.18,3-.31,4.16-.42-1.45-13.22-2.93-24.06-3.63-29a26.32,26.32,0,0,1,3.63.42A41.22,41.22,0,0,1,35.14,63,39.38,39.38,0,0,1,48,71.42,50.9,50.9,0,0,1,52.27,76,8.26,8.26,0,0,0,49,82.64v55A8.33,8.33,0,0,0,57.32,146Z"/><path class="cls-30" d="M35.14,128.4c-.48,6.12-28.18,5.8-30.91,4.35-.5-.26-1-1.32-1.41-2.91-1.92-7-3-24.77-2.78-32.52a3.87,3.87,0,0,1,.12-.85c1.36-5.78,14.49-8.25,23.21-9.28,4.45-.52,7.75-.65,7.75-.65s.14,1.1.36,2.95C32.55,98.18,35.54,123.36,35.14,128.4Z"/><path class="cls-31" d="M35.14,128.4c-.48,6.12-28.18,5.8-30.91,4.35-.5-.26-1-1.32-1.41-2.91,21.58,4.93,27.3-10.76,20.55-42.65,4.45-.52,7.75-.65,7.75-.65S35.63,122.28,35.14,128.4Z"/><g class="cls-32"><path class="cls-33" d="M31.48,89.49c-13.1.19-24.06,2.1-31.32,7,1.36-5.78,14.49-8.25,23.21-9.28,4.45-.52,7.75-.65,7.75-.65S31.26,87.64,31.48,89.49Z"/></g><g class="cls-34"><path class="cls-35" d="M19.33,63.35C18.21,62.47,14,66.1,12,68.17,4.85,75.68,4.23,87.05,6,87.74,8.84,88.81,21.79,65.29,19.33,63.35Z"/></g><path class="cls-36" d="M198.67,146c0,.22.05.43.09.65C200.52,158.08,204.4,169,210.7,178c3.21,4.62,7.06,10.14,11.58,13a11.18,11.18,0,0,0,6.77,2c5.2-.37,10.38-5.06,15.12-12.48,6.88-10.75,12.85-27.25,16.66-44.62.19-.89.38-1.78.56-2.68a170.68,170.68,0,0,0,3.76-37.36c0-.89-.06-1.79-.1-2.68-.71-14.47-4.3-26.06-11.84-30.62a16.68,16.68,0,0,0-9.54-2.21,26.5,26.5,0,0,0-3.63.42,41.07,41.07,0,0,0-7.6,2.28,39.42,39.42,0,0,0-12.88,8.39A52.29,52.29,0,0,0,215.31,76a8.26,8.26,0,0,1,3.28,6.6v55a8.34,8.34,0,0,1-8.33,8.34Z"/><path class="cls-37" d="M198.67,146c0,.22.05.43.09.65C200.52,158.08,204.4,169,210.7,178c3.21,4.62,7.06,10.14,11.58,13a11.18,11.18,0,0,0,6.77,2c5.2-.37,10.38-5.06,15.12-12.48-7.31-1.51-8.67-22.22-7.71-46.24,6.42,2.16,18.86,2.27,24.37,1.62.19-.89.38-1.78.56-2.68a170.68,170.68,0,0,0,3.76-37.36c-4.41-3.53-14-5.24-20.94-6-1.57-.18-3-.31-4.17-.42,1.45-13.22,2.93-24.06,3.63-29a26.5,26.5,0,0,0-3.63.42,41.07,41.07,0,0,0-7.6,2.28,39.42,39.42,0,0,0-12.88,8.39A52.29,52.29,0,0,0,215.31,76a8.26,8.26,0,0,1,3.28,6.6v55a8.34,8.34,0,0,1-8.33,8.34Z"/><path class="cls-38" d="M232.44,128.4c.47,6.12,28.17,5.8,30.91,4.35.5-.26,1-1.32,1.4-2.91,1.92-7,3.06-24.77,2.78-32.52a3.35,3.35,0,0,0-.12-.85c-1.35-5.78-14.48-8.25-23.2-9.28-4.45-.52-7.75-.65-7.75-.65s-.14,1.1-.37,2.95C235,98.18,232,123.36,232.44,128.4Z"/><path class="cls-39" d="M232.44,128.4c.47,6.12,28.17,5.8,30.91,4.35.5-.26,1-1.32,1.4-2.91-21.57,4.93-27.3-10.76-20.54-42.65-4.45-.52-7.75-.65-7.75-.65S232,122.28,232.44,128.4Z"/><g class="cls-40"><path class="cls-41" d="M236.09,89.49c13.1.19,24.07,2.1,31.32,7-1.35-5.78-14.48-8.25-23.2-9.28-4.45-.52-7.75-.65-7.75-.65S236.32,87.64,236.09,89.49Z"/></g><g class="cls-42"><path class="cls-43" d="M248.24,63.35c1.12-.88,5.35,2.75,7.33,4.82,7.15,7.51,7.77,18.88,6,19.57C258.73,88.81,245.79,65.29,248.24,63.35Z"/></g><path class="cls-44" d="M241.37,18c0-24-214-24-214,0-.54,14.44-.47,28.71.12,42.79Q28,73.82,29.14,86.66c1.22,14.73,2.93,29.22,5,43.44h0C37.22,151,41.06,171.36,45.3,191c3.4,15.89,7.07,31.33,10.76,46.28,0,18.92,154.2,18.92,154.2,0,3.57-15.4,7.19-31.09,10.65-47,4.29-19.84,8.33-40.1,11.68-60.74,2.28-14.1,4.25-28.39,5.73-42.83q1.35-12.94,2.15-26.05C241.32,46.55,241.66,32.32,241.37,18ZM218,137.63a8.33,8.33,0,0,1-8.33,8.34h-47.4a8.33,8.33,0,0,0-5.9,14.22,2.29,2.29,0,0,0,.23.21,9.29,9.29,0,0,0,1.12,1.37,8.91,8.91,0,0,0,6.28,2.6h10.95a18.53,18.53,0,0,1,8.41,2A17.44,17.44,0,0,1,190,180.11v10.37a9.17,9.17,0,0,1-7.65,9,293.58,293.58,0,0,1-99.88,0,9.19,9.19,0,0,1-7.7-9V180.11a17.45,17.45,0,0,1,7.35-14.23,18.36,18.36,0,0,1,7.34-1.51h8.4a8.85,8.85,0,0,0,6.61-3A8.32,8.32,0,0,0,100.13,146H57.32A8.33,8.33,0,0,1,49,138.56c0-.31,0-.62,0-.93v-55a8.43,8.43,0,0,1,7-8.23,463,463,0,0,1,155,0,8.1,8.1,0,0,1,3.93,1.78A8.3,8.3,0,0,1,218,82.66Z"/><path class="cls-45" d="M213.25,66.66a580.35,580.35,0,0,0-161,.06c-6.83.94-12.91-4.6-12.91-11.83V24.09a11.82,11.82,0,0,1,9.13-11.72A408.73,408.73,0,0,1,217,12.4a11.81,11.81,0,0,1,9.17,11.72V54.84C226.19,62.09,220.09,67.63,213.25,66.66Z"/><path class="cls-46" d="M222.62,179.44a216.31,216.31,0,0,1-6.72,22.66,52.57,52.57,0,0,1-43.69,35.34c-24.3,2.81-55.47,2.37-79.38-.69A52.42,52.42,0,0,1,50,201.84a191.19,191.19,0,0,1-6.44-21.62q-3.78-17.19-7-35c2.59,15.64,5.58,30.93,8.79,45.83,3.4,15.89,7.07,31.33,10.76,46.28,0,18.92,154.2,18.92,154.2,0,3.57-15.4,7.19-31.09,10.65-47,4-18.28,7.7-36.91,10.88-55.87C229,149.61,225.88,164.64,222.62,179.44Z"/><path class="cls-47" d="M213.25,63.66a609,609,0,0,0-161,.05A11.39,11.39,0,0,1,39.34,52.45V23.11A11.37,11.37,0,0,1,48.47,12,428.64,428.64,0,0,1,217,12a11.37,11.37,0,0,1,9.17,11.16V52.4A11.39,11.39,0,0,1,213.25,63.66Z"/><path class="cls-48" d="M226.19,47.38v5.21a11.39,11.39,0,0,1-12.94,11.26,609.07,609.07,0,0,0-161,.06A11.39,11.39,0,0,1,39.35,52.63V47.44A11.37,11.37,0,0,0,52.24,58.7a609.06,609.06,0,0,1,161-.05A11.4,11.4,0,0,0,226.19,47.38Z"/><g class="cls-49"><path class="cls-50" d="M100.13,146s-26.34,13-42.73,9.72-14-17.95-14-17.95l5.65.82A8.33,8.33,0,0,0,57.32,146Z"/></g><g class="cls-51"><path class="cls-52" d="M166.86,146s26.35,13,42.74,9.72S223,137.74,223,137.74l-5.07.82a8.31,8.31,0,0,1-8.27,7.41Z"/></g><path class="cls-53" d="M219.05,71.65a8.87,8.87,0,0,0-3.2-1.19,492.9,492.9,0,0,0-165,0,8.93,8.93,0,0,0-7.42,8.76v58.54a8.88,8.88,0,0,0,8.88,8.88H97.85a8.87,8.87,0,0,1,6.61,14.79A8.32,8.32,0,0,0,100.13,146H57.32A8.33,8.33,0,0,1,49,137.63v-55a8.43,8.43,0,0,1,7-8.23,463,463,0,0,1,155,0,8.1,8.1,0,0,1,3.93,1.78A8.3,8.3,0,0,1,218,82.66v55a8.33,8.33,0,0,1-8.33,8.34h-47.4a8.33,8.33,0,0,0-5.9,14.22,2.29,2.29,0,0,0,.23.21,8.88,8.88,0,0,1,7.4-13.78h50.47a8.89,8.89,0,0,0,8.88-8.88V79.23A8.89,8.89,0,0,0,219.05,71.65Zm-35.73,94.73A17.44,17.44,0,0,1,190,180.11v10.37a9.17,9.17,0,0,1-7.65,9,293.58,293.58,0,0,1-99.88,0,9.19,9.19,0,0,1-7.7-9V180.11a17.45,17.45,0,0,1,7.35-14.23A18.6,18.6,0,0,0,70.84,183v11A9.77,9.77,0,0,0,79,203.59a312.38,312.38,0,0,0,106.36,0,9.76,9.76,0,0,0,8.14-9.62V183A18.58,18.58,0,0,0,183.32,166.38Z"/><g class="cls-54"><path class="cls-55" d="M164.12,148.29c-.75-.71-4,.86-5.59,3.41-1.81,2.83-1.58,6.67-.58,7C159.72,159.29,165.49,149.58,164.12,148.29Z"/></g><g class="cls-56"><path class="cls-57" d="M98.09,148.29c.75-.71,4,.86,5.58,3.41,1.82,2.83,1.59,6.67.58,7C102.49,159.29,96.71,149.58,98.09,148.29Z"/></g><g class="cls-58"><path class="cls-59" d="M61.64,149.71c-4.26-1.06-10.79,6.84-13.49,14.26-8,21.9,13.38,50.2,19.27,48.38,3.21-1,2.4-12,.77-34.11C67,161.37,66.08,150.81,61.64,149.71Z"/></g><g class="cls-60"><path class="cls-61" d="M203.36,149.71c4.27-1.06,10.79,6.84,13.5,14.26,8,21.9-13.39,50.2-19.28,48.38-3.21-1-2.4-12-.77-34.11C198.05,161.37,198.92,150.81,203.36,149.71Z"/></g><g class="cls-62"><path class="cls-63" d="M82.07,206.63c.46-1.8,18.16,4.2,47.42,4.63,34.08.51,54.82-7,55.32-5,.56,2.18-24.2,15.19-54.36,14.46C103.57,220.05,81.55,208.69,82.07,206.63Z"/></g><g class="cls-64"><path class="cls-65" d="M51,14.78c-.07-3.4,42.29-8.39,84-8.1,40.21.28,82,5.46,81.92,8.87-.11,3.81-52.84,5.41-88.67,5C101.7,20.26,51.12,18.49,51,14.78Z"/></g><path class="cls-66" d="M52,56.22c.63,3,29.58-4.83,81.15-4.82,50.74,0,79.38,7.6,80,4.63.71-3.41-35.72-19.45-79.42-19.66C88.76,36.15,51.28,52.78,52,56.22Z"/></g></g></g></svg>