<svg xmlns="http://www.w3.org/2000/svg" viewBox="0 0 300 264.67"><defs><style>.cls-1{isolation:isolate;}.cls-2{fill:#1e1426;}.cls-3,.cls-4,.cls-5{fill:#43445e;}.cls-4,.cls-7{mix-blend-mode:screen;}.cls-5,.cls-8{mix-blend-mode:multiply;opacity:0.5;}.cls-6,.cls-7,.cls-8{fill:#426687;}.cls-9{fill:none;}</style></defs><g class="cls-1"><g id="Layer_2" data-name="Layer 2"><g id="Layer_1-2" data-name="Layer 1"><path class="cls-2" d="M299.93,261.31c-2.5-5.46-13.74-17-15-18.35-7.06-7.57-15-14.07-22.73-20.82-8-7-15.84-14.11-24.08-20.73-2.72-2.17-5.61-4.12-8.53-6-.17-.09-.33-.19-.5-.26a2.14,2.14,0,0,1-1.44-1.4l-.14,0c0-.16,0-.32.05-.48a4.53,4.53,0,0,1,.17-1.29c.59-4.52,1.55-10.06-.78-13.5,0-.06-.1-.11-.14-.17-2.77-8.29-3.58-17.09-5.87-25.5,8.2,3.69,17.36,5.75,25.65,9.35,5.2,2.25,10.33,4.71,15.54,6.92,4,1.71,7.78,4.77,12,5.94.57.16,1.39-.86,1.08-1.43a56.59,56.59,0,0,0-3.45-5.21c-6.08-11-12.77-21.77-18.88-32.8-6.43-11.61-13.16-23-21.06-33.53a135.51,135.51,0,0,0-27.9-27.58c-9.65-7.11-19.23-9.85-30.53-6.25C161.76,71.85,151,79.94,141,87.07a209.6,209.6,0,0,0-28.86,24.82C94.67,130,80.83,152.79,71,176.6h0c-2.14,1.16-2.81,10.37-1.8,10.27-.23,0-.57.46-.62.76l-.63.38a.38.38,0,0,1-.16-.06c-.13-.11-.4.21-.31.35h0q-3,1.86-5.92,3.82a224.24,224.24,0,0,0-21.66,16.74c-15.34,13.2-28.09,28.93-39.57,46-.28.42-.57,1.28.16,1.33,7.21.44,14.49-.14,21.69.63,4.47.47,9,1.38,12.82-1.79,4.82-4,8.47-9.38,12.54-14.16,3.38-4-2.83,5.48-3.1,5.89a61.19,61.19,0,0,0-3.68,6.39c-.39.78.18,1.26.81.7,4.06-3.64,8.07-7.6,11.83-11.6,2.85-3-.1,1.31-.82,2.52A30.48,30.48,0,0,0,50,250.2c-.64,2,.16,2.94,1.74,3.48,4,1.38,9.87.43,14.13.65,10.76.56,18.54-3.81,26.26-11.34,2.06-2,4.07-4.08,6.14-6.07s7.67-8.15,2.71-.82c-2,3-5,6.17-6,9.86-.06.22-.15.65.1.8,1.63,1,3.35-1.07,4.64-2,1.91-1.36,3.67-3.08,5.48-4.59s6.2-7.11,5.13-1.5c-.61,3.21-1.61,7.35.81,9.82.57.57,2.44.19,3,.11a39,39,0,0,1,12,.76,197,197,0,0,0,33.64,3.48A48.87,48.87,0,0,0,176.7,250c4.94-1.71,13.19-9,18.16-7.34a.45.45,0,0,0,.2,0,3.28,3.28,0,0,0,.2.31c.44.64,1.13-.44,1.13-.9a37.64,37.64,0,0,0-.47-5.73c1.15,3.74,2.3,7.49,3.59,11.15.28.78,1.44-.5,1.34-1.06-.88-5.06-.66-10.47-1-15.66.38,1,.77,2.06,1.09,3.1,1,2.89,1.29,5.93,2.23,8.8,1.2,3.64,2.85,6.89,7,7,7.43.12,14.4-2.15,21.92-1.28,11.23,1.3,16.87,15,28,15.87,6.69.52,12.92-1.61,19.5-2.46,6.73-.87,12.85,1.81,19.35,2.89C300,264.05,300.13,262.76,299.93,261.31Z"/><path class="cls-3" d="M79.68,160.65c2.79-5.38,5.8-10.62,8.93-15.79a189.64,189.64,0,0,1,24.14-31.71,202.13,202.13,0,0,1,28.46-24.5c10.62-7.74,21.89-15.51,34.28-19.45,13-4.16,24.72,4.44,34.5,12.73A142.63,142.63,0,0,1,234.9,109.7c7,10.12,13.18,20.88,19.28,31.66,5.42,9.56,10.41,20,17.16,28.59.48.83,1,1.66,1.48,2.5-3.3-1.51-6.44-3.84-9.62-5.48-5.05-2.58-10.32-4.73-15.48-7a160,160,0,0,0-27.36-9.43c-.67-3-1.12-7.71-3.1-9.77a7.88,7.88,0,0,0-1.62-1.24h0a2.2,2.2,0,0,1-.26-.15l-.06,0a39.18,39.18,0,0,0-6.11-3.06,5,5,0,0,1-2.43-3.26c-.71-4.31.48-9.43.45-13.87a37.2,37.2,0,0,0-.43-5.39.83.83,0,0,0,.28-.5c.21-6.25-1.91-12.1-2.5-18.19,0-.41-.59.1-.58.38.12,2.83.85,5.67,1.16,8.5.18,1.72.35,3.45.5,5.18a19.85,19.85,0,0,0-1.49-3.37C200,98.3,191.55,94,185.39,88.94c-.12-.1-.31.17-.22.29,5.86,7.1,14.33,11.45,18.93,19.87,2.65,4.85,1.82,13.46,1.53,18.62-.1,1.76-.68,5-.22,7.09-2.9-1.06-5.83-2.05-8.61-3.32a40.56,40.56,0,0,1-10.13-6.64c-5.08-4.5-5.23-12.18-5.11-18.63,0-.3-.33,0-.35.14-1.26,9.45-.44,17.26,7.06,23.13,7,5.45,16.5,8.72,25,10.61,4.55,3,5.38,9.64,6.58,15.07,1.58,7.09,2.34,14.84,4.86,21.68-1.13-.45-2.38-.73-3.25-1-3.93-1.44-8.11-2.44-12.14-3.52-9.78-2.64-20.25-3-30.26-4-8.92-.88-17.92-1.38-26.88-1.5-19.28-.25-39.35-.28-58.45,2.71a74.07,74.07,0,0,0-21.21,6.35C74.77,172.22,78.91,162.13,79.68,160.65Z"/><path class="cls-4" d="M93.48,166.27c-3.15-.15-6.44,1-9.4-.51-2.06-1-1.71-3.87-.92-5.66,1.7-3.84,3.74-7.64,5.8-11.27,9.94-17.59,23.34-32.7,38.19-45.62,13.86-12.06,28.64-25,45.68-31.37a46.7,46.7,0,0,1,14.3-3.23,22.74,22.74,0,0,0-11.64.59c-12.39,3.94-23.66,11.71-34.28,19.45a202.13,202.13,0,0,0-28.46,24.5,189.64,189.64,0,0,0-24.14,31.71c-3.13,5.17-6.14,10.41-8.93,15.79-.77,1.48-4.91,11.57-7.17,15.17a71,71,0,0,1,19-6,24.51,24.51,0,0,1,4.26-.88c4.45-.53,8.89-1,13.34-1.38C103.89,167.27,98.7,166.53,93.48,166.27Z"/><path class="cls-5" d="M271.34,170c-6.75-8.63-11.74-19-17.16-28.59-6.1-10.78-12.25-21.54-19.28-31.66A146.55,146.55,0,0,0,215.6,87a82.09,82.09,0,0,1,7.45,36.74c0,.69-1,1.07-1.28.38-2.69-5.74-4.57-11.88-7.6-17.41.07,3.84.09,7.77-1.51,11.26a.68.68,0,0,1-1.26-.18c-1.48-7.25-1.53-14.92-5.19-21.45A44.91,44.91,0,0,0,195,82.9c1.86,3.65,3.34,7.51,5.11,11.22.3.61-.33,1.46-.94,1-6.39-4.79-12.6-8.88-20.25-10a52.65,52.65,0,0,1,13.51,13.69,13.41,13.41,0,0,1,2.41,9.57c-.43,4.17-1.91,8.11-1.73,12.36,0,.53-.61,1-1,.64-3.14-2.48-6.05-5.4-7.56-9.35a42.66,42.66,0,0,1-2.13-10.15c-1.94,3.6-4.15,7-6.25,10.51s-5.69,8.43-5.39,12.63c.45,6.37,9.77,8.71,13.89,11.84,2.42,1.85,4.61,5.54.1,5.93-7.33.62-14.54-2.62-21.85-1.7,3.33,2.23,7.45,4,9.55,7.57,2.26,3.78.14,7.09-.93,11-.91,3.3-2.09,5.3-5.5,5a34.92,34.92,0,0,1-5.83-1.35,23.52,23.52,0,0,0-8.73-.43c-7.27.82-14.42,1.74-21.74,1.95-6.9.19-13.77.42-20.63,1.29-6.47.83-13.14,1.85-19.38,4,1.37-.27,2.73-.52,4.07-.73,19.1-3,39.17-3,58.45-2.71,9,.12,18,.62,26.88,1.5,10,1,20.48,1.39,30.26,4,4,1.08,8.21,2.08,12.14,3.52.87.31,2.12.59,3.25,1-2.52-6.84-3.28-14.59-4.86-21.68-1.2-5.43-2-12-6.58-15.07-8.49-1.89-18-5.16-25-10.61-7.5-5.87-8.32-13.68-7.06-23.13,0-.18.36-.44.35-.14-.12,6.45,0,14.13,5.11,18.63a40.56,40.56,0,0,0,10.13,6.64c2.78,1.27,5.71,2.26,8.61,3.32-.46-2.12.12-5.33.22-7.09.29-5.16,1.12-13.77-1.53-18.62-4.6-8.42-13.07-12.77-18.93-19.87-.09-.12.1-.39.22-.29,6.16,5,14.65,9.36,18.77,16.79a19.85,19.85,0,0,1,1.49,3.37c-.15-1.73-.32-3.46-.5-5.18-.31-2.83-1-5.67-1.16-8.5,0-.28.54-.79.58-.38.59,6.09,2.71,11.94,2.5,18.19a.83.83,0,0,1-.28.5,37.2,37.2,0,0,1,.43,5.39c0,4.44-1.16,9.56-.45,13.87a5,5,0,0,0,2.43,3.26,39.18,39.18,0,0,1,6.11,3.06l.06,0a2.2,2.2,0,0,0,.26.15h0a7.88,7.88,0,0,1,1.62,1.24c2,2.06,2.43,6.77,3.1,9.77a160,160,0,0,1,27.36,9.43c5.16,2.3,10.43,4.45,15.48,7,3.18,1.64,6.32,4,9.62,5.48C272.35,171.61,271.82,170.78,271.34,170Z"/><path class="cls-5" d="M271.34,170c-6.75-8.63-11.74-19-17.16-28.59-6.1-10.78-12.25-21.54-19.28-31.66-.65-1-1.36-1.86-2-2.8,1.4,2.65,2.73,5.34,4,8,5.71,12.09,12,24.34,15.69,37.37a.71.71,0,0,1-1,.83c-3.3-1.77-6.25-4.19-9.55-5.94a33.14,33.14,0,0,0-13.41-3.51c-3.45-.25-7-.26-10.19-1.14,1,2.35,1.44,5.65,2,8a160,160,0,0,1,27.36,9.43c5.16,2.3,10.43,4.45,15.48,7,3.18,1.64,6.32,4,9.62,5.48C272.35,171.61,271.82,170.78,271.34,170Z"/><path class="cls-5" d="M213.26,140.1c-8.49-1.89-18-5.16-25-10.61a18.73,18.73,0,0,1-7.42-13.92c-.11-.16-.24-.32-.36-.48.21,9.44,1.62,18.77,10,24.15,3.87,2.47,8.44,3.28,12.21,5.95,2.92,2.07,1.26,4.14-.33,6.57-.72,1.11-1.49,2.2-2.13,3.37-1,1.86-.92,3.92-1.1,6-.21,2.35-.54,4.56-2.09,6.33s-4.84,1.78-7.64,1.72a116.52,116.52,0,0,1,19.86,3.11c4,1.08,8.21,2.08,12.14,3.52.87.31,2.12.59,3.25,1-2.52-6.84-3.28-14.59-4.86-21.68C218.64,149.74,217.81,143.13,213.26,140.1Z"/><path class="cls-6" d="M70.6,180.51c1-4.32,9.34-5.92,12.53-6.94,8.19-2.6,16.81-3.37,25.29-3.94,15.13-1,30.51-1.26,45.67-1.06a338,338,0,0,1,47.1,4.1,141.54,141.54,0,0,1,19.35,4.86c7.1,2.16,6.45,8.21,5.77,14.51.38.55.12,1.5-.63,1.46A11.75,11.75,0,0,1,221.2,192c-9.1-2.08-18.45-2.85-27.71-3.89-13.86-1.56-27.63-4.25-41.56-5a445.37,445.37,0,0,0-45.05-.38c-7,.33-14,1-21,1.79-3.36.39-6.7.87-10,1.39-.64.1-2.86.87-4.81,1.45l.05,0a.79.79,0,0,1-.73,0,1.06,1.06,0,0,1-.41-.5l-.27.16C70.06,184.79,70.11,182.67,70.6,180.51Z"/><path class="cls-7" d="M98.45,183.16c-.5.06-1.13.16-1.85.26,3.42-.29,6.84-.53,10.28-.69,5.22-.24,10.44-.36,15.66-.39C114.69,180.74,106.26,182.11,98.45,183.16Z"/><path class="cls-7" d="M70.39,187.29a.79.79,0,0,0,.73,0l-.05,0c2-.58,4.17-1.35,4.81-1.45,3.34-.52,6.68-1,10-1.39,2-.25,4.1-.47,6.15-.67-3.67.11-7.45-.53-8.24-3.77A7,7,0,0,1,86,172.76c-.95.25-1.9.52-2.83.81-3.19,1-11.55,2.62-12.53,6.94-.49,2.16-.54,4.28-.89,6.44l.27-.16A1.06,1.06,0,0,0,70.39,187.29Z"/><path class="cls-8" d="M220.54,177.53a141.54,141.54,0,0,0-19.35-4.86c-9.23-1.43-18.62-2.53-28-3.24-.12,4.74-.3,9.94-4,11.64-4.35,2-10.07,1-14.66.77-6.22-.3-12.43-.82-18.64-1.2-13.27-.82-26.18.14-39.37,1.55-6.64.71-13.58.79-20.07,2.57a49.27,49.27,0,0,0-6.23,2.39.67.67,0,0,0,.15.14.79.79,0,0,0,.73,0l-.05,0c2-.58,4.17-1.35,4.81-1.45,3.34-.52,6.68-1,10-1.39,7-.83,14-1.46,21-1.79a445.37,445.37,0,0,1,45.05.38c13.93.76,27.7,3.45,41.56,5,9.26,1,18.61,1.81,27.71,3.89a11.75,11.75,0,0,0,4.48,1.49c.75,0,1-.91.63-1.46C227,185.74,227.64,179.69,220.54,177.53Z"/><path class="cls-3" d="M275.53,260.77c-5.69,1.11-10.9,2.59-16.72,1.31-5.27-1.17-9.59-5.88-13.59-9.41-7.49-6.61-16.34-6.81-25.56-5.61-7.45,1-13.35,2.37-15.86-7.49a86.24,86.24,0,0,0-4.25-13.34c-.28-.64-1.2.42-1.11.89.83,4.41.61,9,.64,13.54-1.35-4.47-2.67-9-4.12-13.4-.33-1-1.55.7-1.55,1.24,0,1.47.72,10.07,1.06,12.06-4.83-.3-11.37,5-15.18,6.71-8.25,3.77-17,3.91-25.81,3.39a185,185,0,0,1-26.21-3.19,44.07,44.07,0,0,0-9.89-1c-7.72.17-5.66-7.33-4.54-12.65.14-.67-.51-.73-.91-.49-5.23,3.15-9.44,7.74-14.42,11.3-1,.74,2.43-4.83,3.21-5.91a46.59,46.59,0,0,0,4.63-7.6c.31-.66,0-1.53-.74-1-9.35,6.38-16,17.29-26.76,21-6.7,2.31-13.89.89-20.74.71-8.31-.22-3.34-6.31-.88-11.38.11-.22.27-.64.11-.89s-.23-.34-.34-.52c-.23-.33-.54-.25-.84-.08-4.08,2.37-10.64,8.81-12.62,13,2.26-4.77,8.13-9.8,8.76-15.15.06-.47-.37-.62-.7-.38-3,2.19-5.35,5.38-7.76,8.3-2.64,3.2-4.93,6.44-8.21,9-4.25,3.35-10.72,1.3-15.53.85a111.38,111.38,0,0,0-16.54-.16c.07,0,4.22-6.94,4.69-7.63,2.45-3.55,5.05-6.94,7.74-10.29a222.46,222.46,0,0,1,54.52-48.19c26.21-4.66,52.76-5.3,79.27-3.93,14.75.76,29.31,3.44,44,5.13,11.09,1.27,22.3,2.11,33.07,5.3l.24,0a.83.83,0,0,1,.94.41l0,0,0,0,.17,0c2.73,2,5.47,3.87,8.05,5.9,8.24,6.48,16,13.71,23.87,20.66,13.49,11.85,30.21,24.2,39.1,40.87C290.42,261.27,283.76,259.18,275.53,260.77Z"/><path class="cls-4" d="M11.1,245.43c4-4.46,7.76-9.09,11.72-13.56C31.54,222,40.54,211.28,51.2,203.8c5.49-3.85,11.36-6.29,17.51-8.66a163.66,163.66,0,0,1,19.64-6.4,179.43,179.43,0,0,1,20.44-3.33c3.71-.47,7.41-.93,11.09-1.61a311,311,0,0,0-50.37,4.53A222.46,222.46,0,0,0,15,236.52c-2.69,3.35-5.29,6.74-7.74,10.29-.47.69-4.62,7.62-4.69,7.63.68-.05,1.4-.07,2.1-.1C6.18,251,8.77,248.05,11.1,245.43Z"/><path class="cls-5" d="M259.15,221.79c-7.89-6.95-15.63-14.18-23.87-20.66-2.58-2-5.32-3.95-8.05-5.9l-.17,0,0,0,0,0a.83.83,0,0,0-.94-.41l-.24,0c-10.77-3.19-22-4-33.07-5.3-14.66-1.69-29.22-4.37-44-5.13-26.51-1.37-53.06-.73-79.27,3.93-3.3,2.09-6.53,4.3-9.74,6.55A141.66,141.66,0,0,1,85,189.13a247.26,247.26,0,0,1,59.25-.72c8.54.9,17,2.36,25.48,3.62,6.43.95,12.89,2.05,18.93,4.7,14.54,6.36,14.51,24.94,19.86,38.49.34.85-.78,1.61-1.18.74-3.42-7.38-9.46-12.74-13.63-19.53.19,1.3.36,2.61.49,3.92a.69.69,0,0,1-1,.64c-2.53-1.58-4.1-4-6.27-6.06s-5.11-3.47-7.74-5.07c3.14,7.48,9.22,17.58,2.39,24.26-6.2,6-16,6.84-24,7.21-11.82.54-23.94-.14-35.32-3.88-3.56-1.17-6.75-1.68-6.59-6.56.13-4.37,1.5-8.44,2.94-12.49-3.43,5.09-6.85,10.2-11.12,14.52a.69.69,0,0,1-1.17-.52c.23-7.1,5.49-15.28,3-22.29-2.75,3.19-3.39,7.73-5.83,11.18a41.16,41.16,0,0,1-9.27,9.4c-6.85,5.12-14.6,8.61-22.46,11.53-1.45.54-14.07,4.79-13.26-.44,1.31-8.43,7.27-14.69,10-22.5-4.57,3.32-7,9.3-10.65,13.64-.42.5-1.14.08-1.17-.52-.28-5.51,2.59-11.55,1-16.93-1-3.32-2.33-.21-3.31,1.66-.68,1.28-1.29,2.59-1.9,3.91a100.83,100.83,0,0,1-5.44,10.22c-5.73,9.41-13,16.91-20.62,24.28,3,.25,6,0,8.32-1.79,3.28-2.57,5.57-5.81,8.21-9,2.41-2.92,4.73-6.11,7.76-8.3.33-.24.76-.09.7.38-.63,5.35-6.5,10.38-8.76,15.15,2-4.18,8.54-10.62,12.62-13,.3-.17.61-.25.84.08.11.18.22.35.34.52s0,.67-.11.89c-2.46,5.07-7.43,11.16.88,11.38,6.85.18,14,1.6,20.74-.71,10.8-3.74,17.41-14.65,26.76-21,.78-.54,1,.33.74,1a46.59,46.59,0,0,1-4.63,7.6c-.78,1.08-4.25,6.65-3.21,5.91,5-3.56,9.19-8.15,14.42-11.3.4-.24,1-.18.91.49-1.12,5.32-3.18,12.82,4.54,12.65a44.07,44.07,0,0,1,9.89,1,185,185,0,0,0,26.21,3.19c8.79.52,17.56.38,25.81-3.39,3.81-1.74,10.35-7,15.18-6.71-.34-2-1.06-10.59-1.06-12.06,0-.54,1.22-2.24,1.55-1.24,1.45,4.44,2.77,8.93,4.12,13.4,0-4.54.19-9.13-.64-13.54-.09-.47.83-1.53,1.11-.89a86.24,86.24,0,0,1,4.25,13.34c2.51,9.86,8.41,8.46,15.86,7.49,9.22-1.2,18.07-1,25.56,5.61,4,3.53,8.32,8.24,13.59,9.41,5.82,1.28,11-.2,16.72-1.31,8.23-1.59,14.89.5,22.72,1.89C289.36,246,272.64,233.64,259.15,221.79Z"/><path class="cls-5" d="M259.15,221.79c-7.89-6.95-15.63-14.18-23.87-20.66-2.58-2-5.32-3.95-8.05-5.9l-.17,0,0,0,0,0a.83.83,0,0,0-.94-.41l-.24,0c-10.17-3-20.74-3.93-31.22-5.1,22.21,14,39,36,57.09,55.67a.72.72,0,0,1-.83,1.15c-7.21-3.49-15.54-11-24-8.39-5.45,1.71-10.95,6.37-16.84,3.81-7.29-3.17-8.12-13.39-12.38-20-.52-.67-1-1.35-1.53-2a11.89,11.89,0,0,0-1.31-1.25,10.7,10.7,0,0,0-.66,1.31c0,.11,0,.21,0,.32a.65.65,0,0,1-.43.66c-2.18,6-.73,13.39-5.86,18.11a36.21,36.21,0,0,1-4.13,2.76,71.37,71.37,0,0,0-6.13,4.89c-.77.68-1.55,1.36-2.33,2a36.18,36.18,0,0,0,4-1.52c3.81-1.74,10.35-7,15.18-6.71-.34-2-1.06-10.59-1.06-12.06,0-.54,1.22-2.24,1.55-1.24,1.45,4.44,2.77,8.93,4.12,13.4,0-4.54.19-9.13-.64-13.54-.09-.47.83-1.53,1.11-.89a86.24,86.24,0,0,1,4.25,13.34c2.51,9.86,8.41,8.46,15.86,7.49,9.22-1.2,18.07-1,25.56,5.61,4,3.53,8.32,8.24,13.59,9.41,5.82,1.28,11-.2,16.72-1.31,8.23-1.59,14.89.5,22.72,1.89C289.36,246,272.64,233.64,259.15,221.79Z"/><rect class="cls-9" width="300" height="251.06"/></g></g></g></svg>