<svg xmlns="http://www.w3.org/2000/svg" viewBox="0 0 318.64 267.06"><defs><style>.cls-1{fill:#15558a;}.cls-2{fill:#1b71b8;}.cls-3{fill:#f7941e;}.cls-4{fill:#ed771d;}.cls-5{fill:#f9ed32;}.cls-6{fill:#11446e;}.cls-7{fill:#1f80d1;}.cls-8{fill:#d1691a;}.cls-9{fill:#f9f7cf;}.cls-10{fill:none;}</style></defs><g id="Layer_2" data-name="Layer 2"><g id="OBJECTS"><path class="cls-1" d="M178.12,94.15l25,14.34,19.64-39.12,27.53,19.56,18.62-17,17.43,11.73L269.58,60.24,255.17,70.68l-32.44-31.3L196,70.68,156.33,47.2,66.48,203.68,0,248s66.48,28.69,134.34,15.65,156.18-5.51,156.18-5.51l-66.41-54.47Z"/><polygon class="cls-2" points="286.31 83.72 279.35 73.96 276.15 76.88 286.31 83.72"/><path class="cls-2" d="M237.57,256c30.72.24,52.95,2.13,52.95,2.13l-1.11-.91C277.55,256.58,259,255.85,237.57,256Z"/><path class="cls-2" d="M130.94,162.74c-5.68-.51-11.54.23-17.26.19-3.64,0-7.27-.24-10.9-.44l1.48-2.58c3.76.2,7.69.69,11.43.36.67-.06,1-1.07.17-1.21a73.54,73.54,0,0,0-10.73-.66l5.32-9.27c3.63.17,7.25.36,10.89.31a.43.43,0,1,0,0-.86c-3.39-.36-6.78-.52-10.18-.68l54.61-95.11-9.44-5.59L66.48,203.68,0,248s4,1.73,11.05,4.15c17.26,5.91,52.77,15.94,92.38,14.81-16.34-.47-32.32-2.87-48.28-6.07-11.92-2.4-22.58-7.58-18-21.26a29.31,29.31,0,0,1,5.69-10c8,1,16.3,2.11,24.25,1.84a.51.51,0,0,0,.14-1c-7.38-1.58-15.26-2-23-2.38a49,49,0,0,1,6.7-5.64c14.39,3.15,29.31,3.91,43.83,1a.27.27,0,0,0-.08-.53c-14.16,1.13-28.26,1-42.19-1.54,2.59-1.78,5.34-3.51,8.17-5.37,8.39,1,17.48,1.94,25.74.57.63-.1.4-.91-.14-1-7.78-.75-15.66-.46-23.49-.95,4.69-2.79,14-7,16.33-10.94l22.45-39.11a119.5,119.5,0,0,0,12.1.67c5.73.08,11.91.26,17.44-1.28A.62.62,0,0,0,130.94,162.74Z"/><polygon class="cls-2" points="208.62 70.67 229.66 46.07 222.73 39.38 200.22 65.7 208.62 70.67"/><polygon class="cls-3" points="318.64 94.62 294.78 90.68 283.08 110.67 280.3 92.11 279.69 88.08 273.06 86.88 255.9 83.78 277.67 73.77 274.65 51.13 286.11 62.29 291.49 67.53 303.17 62.37 313.43 57.84 302.07 77.98 318.64 94.62"/><polygon class="cls-4" points="278.44 63.55 283.81 68.78 289.98 66.06 286.11 62.29 274.65 51.13 275.99 61.16 278.44 63.55"/><polygon class="cls-4" points="304.15 61.94 294.39 79.24 307.95 92.86 318.64 94.62 302.07 77.98 313.43 57.84 304.15 61.94"/><polygon class="cls-4" points="287.1 91.93 281.66 101.22 283.08 110.67 293.43 92.98 287.1 91.93"/><polygon class="cls-5" points="303.58 61.84 280.7 91.59 279.69 88.08 273.06 86.88 286.11 62.29 291.49 67.53 303.58 61.84"/><path class="cls-6" d="M224.11,203.68l-46-109.53L163.73,80.9l14,61.87a47.53,47.53,0,0,1-13.23-1.38.72.72,0,1,0-.4,1.38,42.7,42.7,0,0,0,14,1.76l2.66,11.76c-6-.82-12.8.11-18.75.49a.78.78,0,1,0,0,1.55c6.07.07,13.08.68,19.09-.54l10.3,45.5-63.31,4.26L207.84,219c-4.4.7-8.78,1.41-13.15,1.89q-15.72,1.71-31.52,2.46a.71.71,0,1,0,0,1.42c10.81-.3,21.6-1,32.35-2.19,5.49-.61,11.24-1.12,16.9-1.95l9,4.34c-9.78,2-19.32,4-29.47,4.56a.74.74,0,1,0,0,1.48c10.52-.23,21.89-1.34,31.9-4.87l8.43,4.05c-7.27,1.62-14.1,3.5-21.67,3.83a.65.65,0,1,0,0,1.3c7.7-.18,15.95-1.08,22.83-4.54,0,0,0,0,0,0l57,27.37Z"/><path class="cls-6" d="M203.09,108.49l19.64-39.12L217.15,60l-9.59,33.1c-2.17-.18-4.35-.36-6.52-.51-.79,0-.79,1.1,0,1.16,2.07.16,4.14.29,6.21.41l-3.57,12.34Z"/><path class="cls-6" d="M250.26,88.93,239,80.9,268.88,72Z"/><path class="cls-3" d="M224.11,203.68q-9.15,1.17-17.7,2.09c-2.7.29-5.34.58-7.94.83-6.73.67-13.14,1.23-19.28,1.7-2.41.19-4.76.36-7.09.51-76.71,5.11-105.63-5.13-105.63-5.13l20.4-35.51c15.13,4.86,53,4.89,82.76,4,4.86-.13,9.49-.31,13.78-.48,4.51-.18,8.64-.37,12.21-.55l3.84-.2c6.63-.34,10.65-.61,10.65-.61Z"/><path class="cls-4" d="M153,210.24s35.82-18.5,31.28-38.59l25.83-1.33,14,33.36S166,210.3,153,210.24Z"/><path class="cls-5" d="M146.34,175.39c-10.17.22-20.23,1.08-30.43.78a291.72,291.72,0,0,1-31.79-2.89c-.59-.09-.86.74-.25.85a220.72,220.72,0,0,0,31.22,3.23c10.34.36,21.15.52,31.38-1.1C147,176.17,146.87,175.37,146.34,175.39Z"/><path class="cls-5" d="M107.89,184.29c-6.58-1.43-13.74-1.82-20.46-2.18-.59,0-.74.89-.14,1,6.66,1,13.73,2.13,20.48,2.07A.44.44,0,0,0,107.89,184.29Z"/><path class="cls-5" d="M131.94,193.72c-17.21.63-33.57.33-50.59-2.57-.74-.13-1.07.9-.31,1.08,16.3,3.9,34.41,5.29,51.05,2.53C132.71,194.66,132.57,193.7,131.94,193.72Z"/><path class="cls-5" d="M104,202.63a217.92,217.92,0,0,1-28.27-3.28.47.47,0,1,0-.26.9,82.52,82.52,0,0,0,28.53,3.2A.41.41,0,1,0,104,202.63Z"/><path class="cls-7" d="M143.35,78c-8,12-14,25.69-20.63,38.45s-14.07,25.58-20.12,38.73c-.57,1.24,1.25,2.33,2,1.09,7.47-12.78,13.76-26.29,20.57-39.39,6.56-12.61,14.29-25.2,19.4-38.4C144.82,77.84,143.74,77.47,143.35,78Z"/><path class="cls-7" d="M32.31,252.69c-4.28-.44-8.23-3.07-9.41-7.1-1.11-3.76.76-6.62,2.51-9.82a.79.79,0,0,0-1.1-1c-4.26,2.39-5.15,8.36-3.49,12.46,1.83,4.52,6.5,7.16,11.49,7.29C33.57,254.52,33.5,252.82,32.31,252.69Z"/><path class="cls-6" d="M205.43,87.88c-7.52,1.07-13.84,1.84-21.19-.65-.89-.3-1.22,1-.39,1.31,6.68,2.61,15.38,3.62,22,.26C206.41,88.51,206,87.8,205.43,87.88Z"/><path class="cls-6" d="M238.71,69.54c-.91-1.83-2.67-3.35-4.11-4.83q-2.44-2.49-4.93-4.93a.7.7,0,0,0-1,.95q2.32,2.61,4.69,5.17c1.41,1.51,2.79,3.28,4.64,4.33A.52.52,0,0,0,238.71,69.54Z"/><path class="cls-3" d="M202.12,179.16c-6.11-.16-12.44,1.32-18.56,1.74s-12.46.56-18.7.42a.82.82,0,1,0,0,1.64,189.53,189.53,0,0,0,19.51-.31c5.76-.41,12.46-.57,17.89-2.56A.47.47,0,0,0,202.12,179.16Z"/><path class="cls-3" d="M196.51,188.93c-6-.39-12.12.38-18.07.83s-12.05.9-18.08,1.39c-1,.08-1,1.55,0,1.49q9.45-.52,18.9-1.12c5.76-.36,11.74-.45,17.4-1.6C197.28,189.79,197.09,189,196.51,188.93Z"/><path class="cls-3" d="M208.36,196.14c-9,1.13-17.85,3-26.93,3.76s-18.16.67-27.28.65a.76.76,0,1,0,0,1.51,149.67,149.67,0,0,0,28.08-.1c8.78-.74,18-1.77,26.33-4.48C209.28,197.25,209.23,196,208.36,196.14Z"/><path class="cls-3" d="M290.35,65.91c-2.91,2.88-4.93,6.7-7.18,10.06-2.55,3.81-5.08,7.64-7.53,11.51-.3.49.46.89.79.44,2.68-3.74,5.29-7.53,7.87-11.33,2.27-3.35,5.05-6.68,6.59-10.38C291,65.92,290.56,65.7,290.35,65.91Z"/><path class="cls-3" d="M290.1,75.73a25.45,25.45,0,0,0-4,3.89l-4.22,4.48a.53.53,0,0,0,.77.73L287,80.42a25.58,25.58,0,0,0,3.71-4.16A.4.4,0,0,0,290.1,75.73Z"/><path class="cls-6" d="M207.4,248.3c-7.92-2.91-17.74-2.68-26.07-2.17a222.77,222.77,0,0,0-26.5,3.67c-9,1.66-18,3.49-27.1,4.69-10,1.31-19.6,1.19-29.6.66a.54.54,0,0,0-.15,1.06c17.18,3.81,36.19-.7,53.08-3.88a264.36,264.36,0,0,1,28.15-4.24,106.54,106.54,0,0,1,14.07-.24c4.71.26,9.26,1.29,13.93,1.78C208.08,249.73,208.09,248.55,207.4,248.3Z"/><path class="cls-8" d="M201.24,205.6l-.63.27c-.7.27-1.41.51-2.14.73,2.6-.25,5.24-.54,7.94-.83a129.65,129.65,0,0,0-6.6-33.68c-.13-.39-.25-.77-.35-1.15l-3.84.2c1.5,1.28,1.48,3.69,1.95,5.66.21.86,2.22,10.42,2.29,10.42-2.07.19-4.1.85-6.15,1.22-1.43.25-3.5,1.05-4.94.57-1.13-.38-1.56-1.9-3.27-1.79a3.64,3.64,0,0,0-2.82,1.85,3.73,3.73,0,0,0-.18,3.52,3.25,3.25,0,0,0,3.17,1.66,2.54,2.54,0,0,0,2.22-2.51,43.61,43.61,0,0,0,12.55-1.47c-.15,0,1.46,8.4,1.59,9.2C202.47,202.21,203.7,204.32,201.24,205.6Zm-25.15-5.09c-.82-5.07-1.61-10.13-2.43-15.19-.67-4.21-2.37-8.73,2.26-11.48a19.7,19.7,0,0,1,6.78-2c.24,0,.48-.07.71-.12-4.29.17-8.92.35-13.78.48-2.95,4.69-1.19,12.07-.7,17,.53,5.24,1.12,10.48,2.17,15.65a37.29,37.29,0,0,0,1,4c2.33-.15,4.68-.32,7.09-.51a7.18,7.18,0,0,1-1.08-1.33A16.59,16.59,0,0,1,176.09,200.51Z"/><path class="cls-5" d="M204.84,208.08a130.89,130.89,0,0,0-6.73-36c-.85-2.41-.74-4.84-3.52-5.83a14.15,14.15,0,0,0-6.41-.17c-4.23.65-8.48,1.26-12.68,2-2.63.48-5.13,1-6.88,3.09-3.89,4.58-1.9,12.67-1.38,17.92a156,156,0,0,0,2.17,15.64c1.14,5.61,2.43,10.24,9.69,9.72,8.37-.59,16.57-2.69,24.84-4A1.55,1.55,0,0,0,204.84,208.08Zm-5.3-2.49a5.19,5.19,0,0,1-.62.28,60.32,60.32,0,0,1-16.87,3.3c-2.76.21-4.07.23-5.64-2.2a16.65,16.65,0,0,1-2-6.46L172,185.32c-.67-4.22-2.37-8.73,2.26-11.48a19.55,19.55,0,0,1,6.78-2l7.19-1.23a11.64,11.64,0,0,1,3.94-.23c3.36.58,3.12,3.89,3.74,6.44.21.87,2.24,10.44,2.29,10.44-2,.19-4.1.84-6.15,1.2-1.42.26-3.5,1-4.94.58-1.14-.38-1.55-1.9-3.26-1.8a3.81,3.81,0,0,0-3,5.37,3.22,3.22,0,0,0,3.16,1.67,2.55,2.55,0,0,0,2.22-2.52,43.52,43.52,0,0,0,12.55-1.46c-.15,0,1.47,8.4,1.59,9.19C200.78,202.22,202,204.32,199.54,205.59Z"/><path class="cls-9" d="M169.1,170.63c-2.46,5.22-4,13.07-1.08,18.39a.85.85,0,0,0,1.55-.4c.17-2.74-.56-5.46-.46-8.24a44.66,44.66,0,0,1,1.49-9.16C170.81,170.41,169.5,169.79,169.1,170.63Z"/><path class="cls-9" d="M182.07,167.89c-1.36-.44-2.8.14-4.17.42-1.73.35-3.41.74-5.09,1.25-.64.19-.57,1.22.16,1.15,1.72-.16,3.37-.41,5.06-.73,1.46-.27,3.14-.28,4.27-1.26A.49.49,0,0,0,182.07,167.89Z"/><path class="cls-9" d="M186.12,188.05a2.26,2.26,0,0,0-2.56-.28,2.36,2.36,0,0,0-1.34,1.69c-.13.67.78,1.38,1.34.74s1.37-.25,2.05-.35C186.56,189.71,186.59,188.61,186.12,188.05Z"/><rect class="cls-10" x="10.7" width="300" height="251.06"/></g></g></svg>