<svg xmlns="http://www.w3.org/2000/svg" viewBox="0 0 300 251.06"><defs><style>.cls-1{fill:#262538;}.cls-2{fill:#1a1a26;}.cls-3{fill:#3b3957;}.cls-4{fill:#061726;}.cls-5{fill:#c3daed;}.cls-6{fill:#93a5b3;}.cls-7{fill:#0a2740;}.cls-8{fill:#fff;}.cls-9{fill:none;}</style></defs><g id="Layer_2" data-name="Layer 2"><g id="OBJECTS"><path class="cls-1" d="M299.49,197c-.13-2.63-.73-5.54-2.86-7.1s-5.39-1.19-8.17-.82c-20.21,2.7-36.46-6.84-54.76-12-8.17-17.54-19.69-41.18-20.79-43.56-8.35-18.09-16.75-36.16-25-54.28-8.6-18.76-7.35-39.36-16.38-57.74C162,2.27,142-1.59,122.39.52c-8.51.91-19.36,1.93-26.94,5.86-9.8,5.08-16.35,9.09-27.83,11.07-11,1.9-23.65,6.25-26.6,17-1.9,6.93.34,14.83,0,21.93-.47,9.23-.3,10.39,6.24,17.6a21,21,0,0,1,3.27,22.7C54.31,88.78,58,84,56.68,75.16c-1.52-10.28-7-19.27-1.8-29.72C58.57,38,66.57,33.65,74.44,30.85c8.09-2.88,16.74-4.68,25.28-3.77s17,4.79,22.23,11.62c5.43,7.09,6.85,16.61,5.78,25.48-2.28,18.89-11.78,34.69-20.47,51.1-1.88,3.56-20,37.32-32.13,60.09-14.82,2.88-28.84,6.32-44.44,4.67-7.63-.81-16-.89-22.23,3.53C.17,189.42-1.53,201.81,2.7,211c11.38,24.88,42.65,32,67.12,32.55,51.09,1,102.73,13.07,153.23,4.26,23.58-4.11,63.36-10.27,73.87-35.32A35.18,35.18,0,0,0,299.49,197Z"/><path class="cls-2" d="M197.42,179.31c.48,4,.91,8.05,1.61,12.07a5.65,5.65,0,0,1,0,2.71C198.42,196,196,196.66,194,197a3.24,3.24,0,0,0-3.44-3.2c0,1.58,0,3.16-.07,4.74a10.52,10.52,0,0,1-4.13.56c-.18-1.26-.37-2.52-.56-3.77-.36-.75-1.57-.62-2.09,0a4.11,4.11,0,0,0-.58,2.39,3.27,3.27,0,0,1-.75,2.31c-.89.83-4.84,1.25-6,1-2.64-.47-1.76-2.19-3.86-3.95-2.44-2-6-.63-8.92-1.56a13.42,13.42,0,0,1-7.57-6.39c-2.62-4.65-3.58-10.94-1.83-16a20.79,20.79,0,0,1,14.56-13,25.78,25.78,0,0,1,19.52,3.33c3.77,2.82,7.89,6.25,8.6,11.27C197.05,176.26,197.24,177.78,197.42,179.31Z"/><path class="cls-3" d="M152.6,21.48c9,18.38,7.78,39,16.38,57.74,8.3,18.12,16.7,36.19,25.05,54.28,3.24,7,6.7,13.92,10,20.87,5.63,11.74,12,18.39,21.38,27.42a87.89,87.89,0,0,1-25.64,13.11c23.4,1,46.79-2.74,69.77-5.81.83-.11,1.7-.22,2.56-.29-13.23-2.08-25.31-8-38.44-11.74-8.17-17.54-19.69-41.18-20.79-43.56-8.35-18.09-16.75-36.16-25-54.28-8.6-18.76-7.35-39.36-16.38-57.74C162,2.27,142-1.59,122.39.52l-.65.07C134.64,2.34,146.12,8.29,152.6,21.48Z"/><path class="cls-3" d="M299.49,197c-.13-2.63-.73-5.54-2.86-7.1s-5.39-1.19-8.17-.82a53.8,53.8,0,0,1-11.65.27,5.62,5.62,0,0,1,.94.55c2.14,1.56,2.73,4.47,2.86,7.1,0,.69,0,1.36,0,2a1.19,1.19,0,0,0-1.45.3C264,217.43,238.74,220.4,216.5,221.9c-26.58,1.8-52.55-1.47-78.41-7.44a.94.94,0,0,0-.5,1.81c26.44,8.35,55.29,10.49,82.83,8.2,20.17-1.68,46.93-4.68,60.1-22.3A33.7,33.7,0,0,1,278,212.53a35,35,0,0,1-7.77,11.3c-20.43,12.63-42.95,20-66.1,24a222.08,222.08,0,0,1-31.24,3.06c16.79.48,33.52-.16,50.12-3.06,23.58-4.11,63.36-10.27,73.87-35.32A35.18,35.18,0,0,0,299.49,197Z"/><path class="cls-3" d="M41,56.37c-.47,9.23-.3,10.39,6.24,17.6a21,21,0,0,1,3.27,22.7C54.31,88.78,58,84,56.68,75.16c-1.52-10.28-7-19.27-1.8-29.72C58.57,38,66.57,33.65,74.44,30.85a75.05,75.05,0,0,1,10.82-3,36.83,36.83,0,0,0-4.42-.78c-8.54-.91-17.19.89-25.28,3.77-5.55,2-11.16,4.7-15.28,8.77C40.06,45.15,41.27,51,41,56.37Z"/><path class="cls-3" d="M29.77,180a44.43,44.43,0,0,0-13.78.4A90,90,0,0,0,29.77,180Z"/><path class="cls-2" d="M102.73,243.59C78.26,243.08,47,235.92,35.61,211a25,25,0,0,1-2.21-9.67c9.34,5.45,20.16,8.45,30.75,10a154.34,154.34,0,0,0,24,1.36c8.08-.09,16.46-.13,24.45-1.42,1.38-.22,1-2.32-.32-2.36-8-.24-16.1.82-24.13.94a164,164,0,0,1-22.26-1,96.52,96.52,0,0,1-25.85-7c-4.34-1.84-7.15-2.13-5.76-7,.89-3.16,5-6.11,8.09-6.49,3.38-.42,6.73.73,10,1.8A242.9,242.9,0,0,0,168,199.1c-6.09-3.94-12.15-8.71-18.6-12-5.08-2.6-10.74-3.62-16.25-5.36-5.31-1.67-10.71-4-14.24-8.29-7.23-8.84.31-19,4.69-27.22a67.53,67.53,0,0,0,19.36.28c8.8-1.13,18.56-3.62,25.58-9.28.57-.46,0-1.48-.72-1.23-8.42,3.11-16.19,6.75-25.21,7.93a69.29,69.29,0,0,1-17.74-.06c2.47-4.63,4.83-9,6.92-12.94,4.16.36,8.34.5,12.49.48,7,0,14.45-.2,21.22-2a.84.84,0,0,0-.22-1.65c-7,.26-14,1.37-21,1.49-3.83.06-7.64-.09-11.44-.3,3.85-7.19,6.64-12.39,7.31-13.68,6.22-11.74,12.84-23.18,16.94-35.65a17.56,17.56,0,0,0,8.37-3,.51.51,0,0,0-.39-.92c-2.45.35-4.8,1-7.21,1.48a78.28,78.28,0,0,0,2.76-13c1.07-8.87-.35-18.39-5.78-25.48-5.22-6.83-13.68-10.7-22.23-11.62-7.52-.8-15.12.5-22.36,2.79A29,29,0,0,1,122,38.7c5.43,7.09,6.85,16.61,5.78,25.48-2.28,18.89-11.78,34.69-20.47,51.1-1.88,3.56-20,37.32-32.13,60.09-14.82,2.88-28.84,6.32-44.44,4.67-7.63-.81-16-.89-22.23,3.53C.17,189.42-1.53,201.81,2.7,211c11.38,24.88,42.65,32,67.12,32.55,42.77.88,85.93,9.44,128.47,7C166.5,249.14,134.51,244.24,102.73,243.59Z"/><path class="cls-3" d="M41,56.37c-.47,9.23-.3,10.39,6.24,17.6a21,21,0,0,1,3.27,22.7C54.31,88.78,58,84,56.68,75.16c-1.52-10.28-7-19.27-1.8-29.72C58.57,38,66.57,33.65,74.44,30.85c.39-.14.8-.27,1.2-.4,4.64-7.87,15.4-11.36,24.89-13,11.48-2,18-6,27.83-11.07,5-2.59,11.39-3.9,17.61-4.77A69.65,69.65,0,0,0,122.39.52c-8.51.91-19.36,1.93-26.94,5.86-9.8,5.08-16.35,9.09-27.83,11.07-11,1.9-23.65,6.25-26.6,17C39.12,41.37,41.36,49.27,41,56.37Z"/><path class="cls-4" d="M211.63,131.34c-16.47,16.17-37.62,26.33-59.73,32.32a253.44,253.44,0,0,1-38.29,6.94C100.85,172,88,172.43,75.23,174c-1.54.2-1.66,2.5,0,2.5,13.56,0,27.31-1.28,40.77-2.87a250.45,250.45,0,0,0,38.13-7.16c22.16-6.19,43.32-16.58,59.85-32.82C215.51,132.18,213.15,129.83,211.63,131.34Z"/><path class="cls-4" d="M228.45,164.67c-21.35,12.62-46.9,12-70.87,11.11-25.8-1-52.34-2.28-76.66-11.9-1.14-.46-2,1.49-.84,2,24.57,11.23,51.58,12.27,78.2,13.28,24.36.91,50.19,1.2,71.86-11.61A1.67,1.67,0,0,0,228.45,164.67Z"/><path class="cls-4" d="M207,122.35c-7.3-.7-14.8.12-22.16-.5A156.22,156.22,0,0,1,161.17,118a152.46,152.46,0,0,1-15.85-4.78c2.77-.6,5.49-1.28,8.13-2a131.58,131.58,0,0,0,20.91-7.77q5.12-2.41,10-5.28c2.47-1.44,5.46-2.84,7.48-5l1.63-.2c2.1-.27,2.12-3.6,0-3.32a253.86,253.86,0,0,1-35.07,2.17c-5.72-.05-11.45-.27-17.15-.68-6.09-.43-12.19-.68-17.81-3.22a.73.73,0,0,0-.88,1.14c2.94,3.56,7.86,4,12.17,4.51,6.5.75,13,1.26,19.58,1.44A246.78,246.78,0,0,0,185.19,94c-.8.55-1.6,1.09-2.39,1.56q-4.28,2.51-8.73,4.67a126.25,126.25,0,0,1-21.44,8.09A106.89,106.89,0,0,1,139.38,111a216,216,0,0,1-21-9.89,1.17,1.17,0,0,0-1.18,2A124.9,124.9,0,0,0,133,111.81c-7.93.8-15.91,1-24.12,1.24-1.09,0-1.43,1.77-.27,2,9.84,1.73,20.41,1.17,30.59-.58A156.47,156.47,0,0,0,161,121.37a158.62,158.62,0,0,0,22.3,3.7c7.64.72,16.44,1.71,24,.13C209,124.84,208.47,122.49,207,122.35Z"/><path class="cls-4" d="M182.29,49.92a4.22,4.22,0,0,0-3.75.6A1.08,1.08,0,0,0,178,51.6a86.92,86.92,0,0,1-22.44,7c-9,1.52-17.86,1-27,.71a1,1,0,0,0-.26,1.92c17.75,4.55,38.34-.44,54.27-8.63A1.51,1.51,0,0,0,182.29,49.92Z"/><path class="cls-4" d="M164.19,12.06a1.14,1.14,0,0,0-1.07-.48c.14-.26.31-.52.44-.78.5-1.05-.9-2.39-1.74-1.34-5.55,6.94-10.47,13.27-18.11,18.14A57.56,57.56,0,0,1,132,33.37c-4,1.44-8.23,2.05-12.27,3.37a.67.67,0,0,0,.18,1.31c8.51.57,18-3.89,25-8.34,6.42-4.07,13.24-9.79,17.29-16.53.55,4.73.66,8.62-1.86,13-2.34,4.06-5.92,7.34-9.38,10.44-7.27,6.55-15.45,11.57-23.21,17.45a.87.87,0,0,0,.88,1.49c10.07-4.47,19.45-12.4,27.32-20C161.54,30.18,169.14,20.09,164.19,12.06Z"/><path class="cls-5" d="M211.63,129.65C195.16,145.83,174,156,151.9,162a253.42,253.42,0,0,1-38.29,6.93c-12.76,1.43-25.65,1.84-38.38,3.45-1.54.2-1.66,2.49,0,2.5,13.56,0,27.31-1.28,40.77-2.87a251.68,251.68,0,0,0,38.13-7.16c22.16-6.19,43.32-16.58,59.85-32.83C215.51,130.5,213.15,128.15,211.63,129.65Z"/><path class="cls-5" d="M228.45,163c-21.35,12.63-46.9,12-70.87,11.12-25.8-1-52.34-2.28-76.66-11.9-1.14-.46-2,1.49-.84,2,24.57,11.23,51.58,12.27,78.2,13.27,24.36.92,50.19,1.21,71.86-11.6A1.68,1.68,0,0,0,228.45,163Z"/><path class="cls-6" d="M198.43,176a18.92,18.92,0,0,1-7.6,11.09c-2.13,1.48-8.7,2.57-9.1,5.39a19.82,19.82,0,0,0,.24,2.28,3.09,3.09,0,0,1-2.09,2.58,9.07,9.07,0,0,1-3.48.39,8.62,8.62,0,0,0-2.23-4c-2.45-2-6.06-.63-8.92-1.57a13.35,13.35,0,0,1-7.58-6.38c-2.62-4.65-3.57-10.94-1.83-16.05a20.82,20.82,0,0,1,14.56-13,25.79,25.79,0,0,1,19.52,3.34C195.4,163.49,200,169.77,198.43,176Z"/><path class="cls-5" d="M203.47,174.34c-1.44,5.9-7.58,10.15-3,16.3a13.75,13.75,0,0,0-5.71,2.66,13.5,13.5,0,0,1-1.57-5.59l-2.85,1c.75,1.66,1.31,3.43,2.05,5.12a21.13,21.13,0,0,0-4.9,1.72c-.87-2-.57-4.9-1.83-6.54-1.28.27-1.9.67-2.15,2-.29,1.53.5,3.71,1.09,5.08a12.24,12.24,0,0,1-5.78,1.34q-.71-3.75-1.39-7.48c-6.76-.06-10.88,1-14.68-5.78-2.62-4.65-3.58-10.94-1.84-16a20.82,20.82,0,0,1,14.57-13A25.84,25.84,0,0,1,195,158.43C200.45,161.81,205,168.09,203.47,174.34Z"/><path class="cls-7" d="M173.82,182.82a6.63,6.63,0,0,1-4.86-3,11.52,11.52,0,0,1-1.77-5.58,5.61,5.61,0,0,1,.93-4.12,5,5,0,0,1,4.64-1.28,8.92,8.92,0,0,1,6,3.58,7.18,7.18,0,0,1,.78,6.82A6,6,0,0,1,173.82,182.82Z"/><path class="cls-7" d="M193.67,177.5a6.66,6.66,0,0,0,3.69-4.37,11.49,11.49,0,0,0-.06-5.85,5.57,5.57,0,0,0-2.17-3.63,5,5,0,0,0-4.8.23,8.91,8.91,0,0,0-4.56,5.26,7.18,7.18,0,0,0,1.38,6.72A6,6,0,0,0,193.67,177.5Z"/><path class="cls-7" d="M189.3,180c-4.9-4-8.15,4.74-5.36,5.87a1.63,1.63,0,0,0,1.85-.72,4.83,4.83,0,0,0,.6-2,5.5,5.5,0,0,0,2.22.38,1.93,1.93,0,0,0,1.71-1.27A2.34,2.34,0,0,0,189.3,180Z"/><path class="cls-8" d="M201.33,168.61a14.74,14.74,0,0,0-5.94-8.19c-2.43-1.79-6.54-4.19-9.64-3.32a1,1,0,0,0-.22,1.74c2.44,1.43,5.44,1.53,7.94,3.16,2.82,1.82,4.75,4.43,6.73,7.08A.62.62,0,0,0,201.33,168.61Z"/><path class="cls-8" d="M179.93,156.86l-.16.12c-1.31,1.05.79,3.16,1.84,1.84l.13-.15A1.28,1.28,0,0,0,179.93,156.86Z"/><path class="cls-8" d="M197.33,185.75a.69.69,0,0,0-1.33.36c.25.94.33,2.57,1.24,3.08A.54.54,0,0,0,198,189C198.46,188,197.65,186.69,197.33,185.75Z"/><path class="cls-8" d="M174.4,183.65c-1.07-.38-2.33,0-3.47-.15a5.9,5.9,0,0,1-3.45-2c-.43-.49-1.31.17-.92.71a7.23,7.23,0,0,0,3.95,2.82c1.32.37,3.3.56,4.16-.74A.45.45,0,0,0,174.4,183.65Z"/><path class="cls-8" d="M181,168.4c-1-2.36-4-3.82-6.25-4.7-.71-.28-1.22.91-.52,1.23a17.31,17.31,0,0,1,3.12,1.87,22.34,22.34,0,0,0,2.81,2.25C180.52,169.25,181.17,168.9,181,168.4Z"/><path class="cls-5" d="M207,120.66c-7.3-.7-14.8.13-22.16-.49a158.77,158.77,0,0,1-23.62-3.81,152.46,152.46,0,0,1-15.85-4.78c2.77-.6,5.49-1.29,8.13-2a131.58,131.58,0,0,0,20.91-7.77q5.12-2.42,10-5.28c2.47-1.44,5.46-2.85,7.48-5l1.63-.19c2.1-.27,2.12-3.6,0-3.33a252.32,252.32,0,0,1-35.07,2.18c-5.72-.06-11.45-.27-17.15-.68-6.09-.43-12.19-.68-17.81-3.22a.73.73,0,0,0-.88,1.14c2.94,3.56,7.86,4,12.17,4.51,6.5.75,13,1.26,19.58,1.44a246.78,246.78,0,0,0,30.88-1.11c-.8.55-1.6,1.09-2.39,1.56q-4.28,2.51-8.73,4.67a126.25,126.25,0,0,1-21.44,8.09,108.7,108.7,0,0,1-13.25,2.74,213.6,213.6,0,0,1-21-9.88,1.17,1.17,0,0,0-1.18,2A124.83,124.83,0,0,0,133,110.12c-7.93.81-15.91,1-24.12,1.25-1.09,0-1.43,1.77-.27,2,9.84,1.74,20.41,1.18,30.59-.57A156.47,156.47,0,0,0,161,119.69a158.62,158.62,0,0,0,22.3,3.7c7.64.71,16.44,1.71,24,.13C209,123.16,208.47,120.81,207,120.66Z"/><path class="cls-5" d="M182.29,48.23a4.25,4.25,0,0,0-3.75.61,1.07,1.07,0,0,0-.51,1.07A86.56,86.56,0,0,1,155.59,57c-9,1.52-17.86,1-27,.71a1,1,0,0,0-.26,1.92c17.75,4.55,38.34-.44,54.27-8.63A1.52,1.52,0,0,0,182.29,48.23Z"/><path class="cls-5" d="M164.19,10.38a1.14,1.14,0,0,0-1.07-.48c.14-.26.31-.52.44-.79.5-1-.9-2.38-1.74-1.33-5.55,6.94-10.47,13.27-18.11,18.14A58.08,58.08,0,0,1,132,31.69c-4,1.43-8.23,2.05-12.27,3.36a.68.68,0,0,0,.18,1.32c8.51.57,18-3.9,25-8.34,6.42-4.07,13.24-9.79,17.29-16.53.55,4.73.66,8.62-1.86,13C158,28.57,154.45,31.85,151,35c-7.27,6.55-15.45,11.57-23.21,17.45a.87.87,0,0,0,.88,1.49c10.07-4.47,19.45-12.4,27.32-20C161.54,28.5,169.14,18.41,164.19,10.38Z"/><path class="cls-3" d="M262.32,189.89c-3.9,2.77-7.27,6.13-11.33,8.71a64.48,64.48,0,0,1-13.84,6.62,66.43,66.43,0,0,1-30.42,3c-1-.14-1.4,1.3-.41,1.48a63.74,63.74,0,0,0,31.46-2.17c9.12-3.06,20-8.37,25.72-16.44C264,190.38,263,189.4,262.32,189.89Z"/><path class="cls-1" d="M204,130.09c-4.34.42-8.66,1.8-12.9,2.81-4.72,1.12-9.51,2.11-14.12,3.6a.8.8,0,0,0,.42,1.54c4.54-.68,9-1.84,13.48-2.87s9.13-1.71,13.36-3.32C205.05,131.52,205,130,204,130.09Z"/><path class="cls-1" d="M192.87,106.9c-3.41.51-6.69,1.79-10.11,2.37a92,92,0,0,1-11.6,1,.6.6,0,0,0,0,1.19c6.88.79,16.09.16,22.14-3.51A.56.56,0,0,0,192.87,106.9Z"/><path class="cls-1" d="M176.2,79.16c-5.61.56-11.76,2.9-17,4.93a.65.65,0,0,0,.34,1.25c5.48-1.19,11.92-2.62,16.9-5.25C176.87,79.87,176.69,79.11,176.2,79.16Z"/><path class="cls-1" d="M178,66c-7.15.69-14.29,3.06-21.24,4.79-1,.24-.55,1.69.41,1.47,6.93-1.57,14.33-2.65,21-5.23C178.59,66.8,178.59,65.9,178,66Z"/><rect class="cls-9" width="300" height="251.06"/></g></g></svg>