<svg xmlns="http://www.w3.org/2000/svg" xmlns:xlink="http://www.w3.org/1999/xlink" viewBox="0 0 39.59 25.47"><defs><style>.cls-1{isolation:isolate;}.cls-2{fill:url(#_341);}.cls-3{fill:#d077b7;opacity:0.6;}.cls-3,.cls-6{mix-blend-mode:multiply;}.cls-4{fill:url(#_474);}.cls-5{fill:url(#_474-2);}.cls-6{fill:#df87ec;}.cls-7{fill:#ffcdbd;opacity:0.7;}</style><linearGradient id="_341" x1="19.8" y1="2.58" x2="19.8" y2="15.87" gradientUnits="userSpaceOnUse"><stop offset="0" stop-color="#ce384c"/><stop offset="0.47" stop-color="#cb3748"/><stop offset="0.65" stop-color="#c53445"/><stop offset="0.9" stop-color="#b42a3d"/><stop offset="1" stop-color="#ab2538"/></linearGradient><linearGradient id="_474" x1="3.02" y1="17.83" x2="10.71" y2="17.83" gradientUnits="userSpaceOnUse"><stop offset="0" stop-color="#721e24"/><stop offset="1" stop-color="#510036"/></linearGradient><linearGradient id="_474-2" x1="-12051.77" y1="17.83" x2="-12044.09" y2="17.83" gradientTransform="matrix(-1, 0, 0, 1, -12014.94, 0)" xlink:href="#_474"/></defs><g class="cls-1"><g id="Layer_2" data-name="Layer 2"><g id="Avatar_face" data-name="Avatar face"><path class="cls-2" d="M34.7,1.88C31-.3,19.8,0,19.8,0S8.61-.3,4.89,1.88C1.82,3.67-1.63,15.57.85,16.49s7.61,1.21,11.49,3a18,18,0,0,0,14.91,0c3.88-1.8,9-2.09,11.49-3S37.77,3.67,34.7,1.88Z"/><path class="cls-3" d="M38.74,16.49c-2.48.92-7.61,1.21-11.49,3a18,18,0,0,1-14.91,0c-3.88-1.8-9-2.09-11.49-3C-.83,15.87.2,10.24,2,6.1,1.93,6.33.34,12,2,13.78s17.8,2.49,17.8,2.49,16.09-.62,17.79-2.49.07-7.45,0-7.68C39.39,10.24,40.42,15.87,38.74,16.49Z"/><path class="cls-4" d="M3,16.94s3.19-.7,7.69,1.87A25,25,0,0,1,3,16.94Z"/><path class="cls-5" d="M36.84,16.94s-3.19-.7-7.69,1.87A25.09,25.09,0,0,0,36.84,16.94Z"/><path class="cls-6" d="M.48,16.22a2.69,2.69,0,0,1,3.06-1.71,88.38,88.38,0,0,0,17,1.71,77.15,77.15,0,0,0,16.36-2c1.74-.4,1.89,2.25,1.89,2.25s-7.64,9-19.13,9S.48,16.22.48,16.22Z"/><path class="cls-6" d="M5.73,1.48c2.94-.22,3.45,6.71,3.45,6.71s.67-5.74-.9-7.42Z"/><path class="cls-6" d="M34.12,1.48c-2.94-.22-3.45,6.71-3.45,6.71S30,2.45,31.57.77Z"/><path class="cls-7" d="M24.82,9.54A2.1,2.1,0,0,0,26,12.75c.93.21,2.07-1,2.27-1.61S25.21,8.87,24.82,9.54Z"/></g></g></g></svg>