<svg xmlns="http://www.w3.org/2000/svg" xmlns:xlink="http://www.w3.org/1999/xlink" viewBox="0 0 42.63 31.35"><defs><style>.cls-1{isolation:isolate;}.cls-2{fill:url(#_341);}.cls-3{fill:#d077b7;opacity:0.6;}.cls-3,.cls-6{mix-blend-mode:multiply;}.cls-4{fill:url(#_474);}.cls-5{fill:url(#_474-2);}.cls-6{fill:#df87ec;}.cls-7{fill:#ffcdbd;opacity:0.7;}</style><linearGradient id="_341" x1="21.31" y1="0.73" x2="21.31" y2="26.1" gradientUnits="userSpaceOnUse"><stop offset="0" stop-color="#ce384c"/><stop offset="0.47" stop-color="#cb3748"/><stop offset="0.65" stop-color="#c53445"/><stop offset="0.9" stop-color="#b42a3d"/><stop offset="1" stop-color="#ab2538"/></linearGradient><linearGradient id="_474" x1="5.49" y1="24.97" x2="14.92" y2="24.97" gradientUnits="userSpaceOnUse"><stop offset="0" stop-color="#721e24"/><stop offset="1" stop-color="#510036"/></linearGradient><linearGradient id="_474-2" x1="-9217.38" y1="25.11" x2="-9207.97" y2="25.11" gradientTransform="matrix(-1, 0, 0, 1, -9180.15, 0)" xlink:href="#_474"/></defs><g class="cls-1"><g id="Layer_2" data-name="Layer 2"><g id="Avatar_face" data-name="Avatar face"><path class="cls-2" d="M38.08,25.86c-4.26.73-5-1.1-8.65-1.1s-4.88,2.44-8.12,2.44-4.45-2.44-8.11-2.44-4.39,1.83-8.65,1.1c-3.84-.66-5.61-9-3.89-14.22a.08.08,0,0,0,0,0,8.6,8.6,0,0,1,.7-1.6C4.18,5.12,15.64,0,21.31,0s17.14,5.12,20,10a9.69,9.69,0,0,1,1,2.62C43.47,17.84,41.69,25.24,38.08,25.86Z"/><path class="cls-3" d="M38.08,25.86c-4.26.73-5-1.1-8.65-1.1s-4.88,2.44-8.12,2.44-4.45-2.44-8.11-2.44-4.39,1.83-8.65,1.1c-3.84-.66-5.61-9-3.89-14.22-.13.49-1.22,5.28,1.06,9.08a3.3,3.3,0,0,0,4,1.34A41.6,41.6,0,0,1,23.6,19.21a51.49,51.49,0,0,1,12.93,2.63A3.35,3.35,0,0,0,40.77,20a19.39,19.39,0,0,0,1.47-7.37C43.47,17.84,41.69,25.24,38.08,25.86Z"/><path class="cls-4" d="M6.12,26c-2.09-.23,1-3.89,8.8-1.07C14.92,25,7.7,26.19,6.12,26Z"/><path class="cls-5" d="M36.61,26c2.1-.23-1.21-3.25-8.79-1.07C27.82,25,35,26.19,36.61,26Z"/><path class="cls-6" d="M3.77,25.61c-1.12-1.83.65-3.05,2-3.55a41.92,41.92,0,0,1,15.56-3c8.41,0,20,2.85,17.53,6.51s-11.28,5.74-19.06,5.74C8.63,31.35,3.77,25.61,3.77,25.61Z"/><path class="cls-6" d="M2.14,8.87C5,7.68,7.44,10.59,9,11.64S7.42,8.09,3.91,7.15Z"/><path class="cls-6" d="M40.48,8.87c-2.89-1.19-5.3,1.72-6.84,2.77s1.65-3.55,5.16-4.49Z"/><path class="cls-7" d="M25.4,13.6c-.31.67-.92,2.87.82,3.11a4.25,4.25,0,0,0,3.69-1.56,1.91,1.91,0,0,0-1.38-2.34C27.23,12.56,25.93,12.44,25.4,13.6Z"/></g></g></g></svg>