<svg xmlns="http://www.w3.org/2000/svg" xmlns:xlink="http://www.w3.org/1999/xlink" viewBox="0 0 41.21 28.35"><defs><style>.cls-1{isolation:isolate;}.cls-2{fill:url(#Áåçûìÿííûé_ãðàäèåíò_307);}.cls-3{fill:#842751;}.cls-4{fill:#d177b8;}.cls-4,.cls-5,.cls-6{opacity:0.6;mix-blend-mode:multiply;}.cls-5{fill:url(#Áåçûìÿííûé_ãðàäèåíò_123);}.cls-6{fill:url(#Áåçûìÿííûé_ãðàäèåíò_123-2);}.cls-7{fill:#ffcfbf;}</style><linearGradient id="Áåçûìÿííûé_ãðàäèåíò_307" x1="20.6" y1="23.88" x2="20.6" gradientUnits="userSpaceOnUse"><stop offset="0" stop-color="#f97a7e"/><stop offset="0.08" stop-color="#fa7d7e"/><stop offset="0.54" stop-color="#fe897f"/><stop offset="1" stop-color="#ff8d7f"/></linearGradient><linearGradient id="Áåçûìÿííûé_ãðàäèåíò_123" x1="34.98" y1="16.16" x2="34.98" y2="3.02" gradientUnits="userSpaceOnUse"><stop offset="0" stop-color="#ffeadb"/><stop offset="0.99" stop-color="#d177f4"/></linearGradient><linearGradient id="Áåçûìÿííûé_ãðàäèåíò_123-2" x1="208.76" y1="16.16" x2="208.76" y2="3.02" gradientTransform="matrix(-1, 0, 0, 1, 215.36, 0)" xlink:href="#Áåçûìÿííûé_ãðàäèåíò_123"/></defs><g class="cls-1"><g id="Layer_2" data-name="Layer 2"><g id="layer1"><path class="cls-2" d="M40.89,18.68S40.52,19.8,36.22,20,27.9,23.88,20.6,23.88,9.66,20.13,5.35,20s-5-1.28-5-1.28a14.46,14.46,0,0,1,.56-7.89h0a.24.24,0,0,0,0-.08,23.15,23.15,0,0,1,4-7,35.2,35.2,0,0,1,31.47,0,22.37,22.37,0,0,1,3,4.7v0h0A15.64,15.64,0,0,1,40.89,18.68Z"/><path class="cls-3" d="M31.13,21.35a8.48,8.48,0,0,1,7.4-1.62Z"/><path class="cls-3" d="M3.15,19.76a9.71,9.71,0,0,1,8.35,2.08Z"/><path class="cls-4" d="M40.89,18.68S40.52,19.8,36.22,20,27.9,23.88,20.6,23.88,9.66,20.13,5.35,20s-5-1.28-5-1.28a14.46,14.46,0,0,1,.56-7.89c-.16.69-1.07,5.12.65,6.2S14,19.53,20.6,19.53s17.94-2,19.21-3.79-.3-6.83-.45-7.3A15.64,15.64,0,0,1,40.89,18.68Z"/><path class="cls-5" d="M36.34,3.71S34,11,34.26,16.16c0,0-1.77-5,.57-13.14Z"/><path class="cls-6" d="M5.24,3.71S7.61,11,7.33,16.16c0,0,1.76-5-.58-13.14Z"/><path class="cls-4" d="M1.53,17A8.57,8.57,0,0,0,.32,18.68c-.21.57,9.44,9.67,20.28,9.67s20.09-8.56,20.29-9.67-1.57-2.52-1.57-2.52A56.44,56.44,0,0,1,20.6,19.53,77.42,77.42,0,0,1,1.53,17Z"/><path class="cls-7" d="M29.26,15c-1.54-.88,1.17-3.42,1.9-3.31s1.13,1.74.73,2.79S29.9,15.35,29.26,15Z"/></g></g></g></svg>