<svg xmlns="http://www.w3.org/2000/svg" xmlns:xlink="http://www.w3.org/1999/xlink" viewBox="0 0 40.98 28.2"><defs><style>.cls-1{isolation:isolate;}.cls-2{fill:url(#Áåçûìÿííûé_ãðàäèåíò_307);}.cls-3{fill:#842751;}.cls-4{fill:#d177b8;}.cls-4,.cls-5,.cls-6{opacity:0.6;mix-blend-mode:multiply;}.cls-5{fill:url(#Áåçûìÿííûé_ãðàäèåíò_123);}.cls-6{fill:url(#Áåçûìÿííûé_ãðàäèåíò_123-2);}.cls-7{fill:#ffcfbf;}</style><linearGradient id="Áåçûìÿííûé_ãðàäèåíò_307" x1="20.49" y1="23.75" x2="20.49" gradientUnits="userSpaceOnUse"><stop offset="0" stop-color="#f97a7e"/><stop offset="0.08" stop-color="#fa7d7e"/><stop offset="0.54" stop-color="#fe897f"/><stop offset="1" stop-color="#ff8d7f"/></linearGradient><linearGradient id="Áåçûìÿííûé_ãðàäèåíò_123" x1="34.78" y1="16.07" x2="34.78" y2="3" gradientUnits="userSpaceOnUse"><stop offset="0" stop-color="#ffeadb"/><stop offset="0.99" stop-color="#d177f4"/></linearGradient><linearGradient id="Áåçûìÿííûé_ãðàäèåíò_123-2" x1="208.56" y1="16.07" x2="208.56" y2="3" gradientTransform="matrix(-1, 0, 0, 1, 215.13, 0)" xlink:href="#Áåçûìÿííûé_ãðàäèåíò_123"/></defs><g class="cls-1"><g id="Layer_2" data-name="Layer 2"><g id="layer1"><path class="cls-2" d="M40.66,18.58s-.37,1.11-4.65,1.27-8.27,3.9-15.52,3.9S9.6,20,5.32,19.85s-5-1.27-5-1.27a14.5,14.5,0,0,1,.56-7.85h0a.26.26,0,0,0,0-.08,22.75,22.75,0,0,1,3.94-7,35,35,0,0,1,31.3,0,22.25,22.25,0,0,1,3,4.67v0h0A15.63,15.63,0,0,1,40.66,18.58Z"/><path class="cls-3" d="M31,21.23a8.47,8.47,0,0,1,7.37-1.61Z"/><path class="cls-3" d="M3.13,19.65a9.68,9.68,0,0,1,8.31,2.07Z"/><path class="cls-4" d="M40.66,18.58s-.37,1.11-4.65,1.27-8.27,3.9-15.52,3.9S9.6,20,5.32,19.85s-5-1.27-5-1.27a14.5,14.5,0,0,1,.56-7.85c-.15.68-1.06,5.1.65,6.17s12.37.48,19,.48,17.84,0,19.1-1.73-.3-6.79-.45-7.26A15.63,15.63,0,0,1,40.66,18.58Z"/><path class="cls-5" d="M36.14,3.69S33.78,11,34.06,16.07c0,0-1.75-5,.58-13.07Z"/><path class="cls-6" d="M5.21,3.69S7.57,11,7.28,16.07c0,0,1.76-5-.57-13.07Z"/><path class="cls-4" d="M1.52,16.9A8.42,8.42,0,0,0,.31,18.58c-.2.57,9.39,9.62,20.18,9.62s20-8.52,20.17-9.62-1.56-2.51-1.56-2.51a135.44,135.44,0,0,1-18.61,1.31C10.32,17.38,1.52,16.9,1.52,16.9Z"/><path class="cls-7" d="M29.09,14.9c-1.53-.87,1.17-3.4,1.9-3.29s1.12,1.73.72,2.78S29.73,15.27,29.09,14.9Z"/></g></g></g></svg>