<svg xmlns="http://www.w3.org/2000/svg" xmlns:xlink="http://www.w3.org/1999/xlink" viewBox="0 0 48.24 34.39"><defs><style>.cls-1{isolation:isolate;}.cls-2{fill:url(#_341);}.cls-3{fill:#d077b7;opacity:0.6;}.cls-3,.cls-4{mix-blend-mode:multiply;}.cls-4{fill:#df87ec;}.cls-5{fill:#4e1b3d;}.cls-6{fill:#ffcdbd;opacity:0.7;}</style><linearGradient id="_341" x1="24.12" x2="24.12" y2="26.98" gradientUnits="userSpaceOnUse"><stop offset="0" stop-color="#ce384c"/><stop offset="0.47" stop-color="#cb3748"/><stop offset="0.65" stop-color="#c53445"/><stop offset="0.9" stop-color="#b42a3d"/><stop offset="1" stop-color="#ab2538"/></linearGradient></defs><g class="cls-1"><g id="Layer_2" data-name="Layer 2"><g id="Avatar_face" data-name="Avatar face"><path class="cls-2" d="M46.6,23.08c-1.4.74-6.55-.88-11.55,1.27S27.87,27,24.12,27s-5.93-.48-10.93-2.63S3,23.82,1.64,23.08s-3.81-5,2.13-12.54C4.41,9.73,5.15,8.87,6,8,14.76-1.16,24.12.05,24.12.05S33.49-1.16,42.23,8c.86.89,1.6,1.75,2.24,2.56C50.41,18.09,47.87,22.42,46.6,23.08Z"/><path class="cls-3" d="M46.6,23.08c-1.4.74-6.55-.88-11.55,1.27S27.87,27,24.12,27s-5.93-.48-10.93-2.63S3,23.82,1.64,23.08s-3.81-5,2.13-12.54c0,0-1.14,5.76,2.05,7.5a116.31,116.31,0,0,0,18.3,1.75A116.31,116.31,0,0,0,42.42,18c3.19-1.74,2-7.5,2-7.5C50.41,18.09,47.87,22.42,46.6,23.08Z"/><path class="cls-4" d="M6.82,7.16C9.36,7,9.67,13.49,9.67,13.49s1.22-6-1-8Z"/><path class="cls-4" d="M41.06,7.16c-2.54-.16-2.85,6.33-2.85,6.33s-1.22-6,1-8Z"/><path class="cls-5" d="M6.82,23.18s4-.77,9.3,2.25A50,50,0,0,1,6.82,23.18Z"/><path class="cls-5" d="M41.06,23.18s-4-.77-9.3,2.25A50.15,50.15,0,0,0,41.06,23.18Z"/><path class="cls-4" d="M1.64,23.08a15.9,15.9,0,0,1,5.13-4.87,83.78,83.78,0,0,0,17.35,1.58A91.23,91.23,0,0,0,42.42,18s3.58,2.3,4.18,5c0,0-8.75,11.31-22.48,11.31S1.64,23.08,1.64,23.08Z"/><path class="cls-6" d="M31.76,10.93c-1.22.73-.26,2.72.57,2.72s2.4,0,2.29-1.36A1.75,1.75,0,0,0,31.76,10.93Z"/></g></g></g></svg>