<svg xmlns="http://www.w3.org/2000/svg" xmlns:xlink="http://www.w3.org/1999/xlink" viewBox="0 0 41.07 34.56"><defs><style>.cls-1{isolation:isolate;}.cls-2{fill:url(#Áåçûìÿííûé_ãðàäèåíò_307);}.cls-3{fill:#842751;}.cls-4{fill:#d177b8;}.cls-4,.cls-5,.cls-6{opacity:0.6;mix-blend-mode:multiply;}.cls-5{fill:url(#Áåçûìÿííûé_ãðàäèåíò_123);}.cls-6{fill:url(#Áåçûìÿííûé_ãðàäèåíò_123-2);}.cls-7{fill:#ffcfbf;}</style><linearGradient id="Áåçûìÿííûé_ãðàäèåíò_307" x1="20.54" y1="29.11" x2="20.54" gradientUnits="userSpaceOnUse"><stop offset="0" stop-color="#f97a7e"/><stop offset="0.08" stop-color="#fa7d7e"/><stop offset="0.54" stop-color="#fe897f"/><stop offset="1" stop-color="#ff8d7f"/></linearGradient><linearGradient id="Áåçûìÿííûé_ãðàäèåíò_123" x1="37.03" y1="19.7" x2="37.03" y2="5.49" gradientUnits="userSpaceOnUse"><stop offset="0" stop-color="#ffeadb"/><stop offset="0.99" stop-color="#d177f4"/></linearGradient><linearGradient id="Áåçûìÿííûé_ãðàäèåíò_123-2" x1="4.12" y1="20.34" x2="4.12" y2="5.47" xlink:href="#Áåçûìÿííûé_ãðàäèåíò_123"/></defs><g class="cls-1"><g id="Layer_2" data-name="Layer 2"><g id="layer1"><path class="cls-2" d="M40.75,22.77s-.37,1.36-4.66,1.55-8.28,4.79-15.56,4.79S9.62,24.54,5.33,24.32s-5-1.55-5-1.55a21.29,21.29,0,0,1,.56-9.62v0A.24.24,0,0,0,.9,13,28.9,28.9,0,0,1,3.05,7.59h0c.45-.89.86-1.6,1.17-2.11s.63-1,.63-1c10.21-6,21.16-6,31.37,0,0,0,.26.35.64,1s.72,1.23,1.16,2.1h0c.39.76.81,1.65,1.2,2.64v0A22.85,22.85,0,0,1,40.75,22.77Z"/><path class="cls-3" d="M31,26s3.3-3.46,7.39-2Z"/><path class="cls-3" d="M3.14,24.08s4.16-1.52,8.33,2.54Z"/><path class="cls-4" d="M40.76,22.77s-.37,1.37-4.66,1.56-8.29,4.78-15.56,4.78S9.63,24.53,5.33,24.33s-5-1.56-5-1.56a21.29,21.29,0,0,1,.56-9.62c-.16.83-1.07,6.25.65,7.56s12.39.45,19,.45,17.87.17,19.14-2-.3-8.32-.45-8.89A22.94,22.94,0,0,1,40.76,22.77Z"/><path class="cls-5" d="M38,7.6a53.71,53.71,0,0,0-1.35,12.1s-1.55-5.37.19-14.21c.31.52.72,1.23,1.16,2.1Z"/><path class="cls-6" d="M4.55,20.34A55.08,55.08,0,0,0,3.05,7.59h0c.45-.89.86-1.6,1.17-2.11C6.17,14.71,4.55,20.34,4.55,20.34Z"/><path class="cls-4" d="M1.53,20.71A10,10,0,0,0,.32,22.77c-.21.69,9.4,11.79,20.22,11.79s20-10.44,20.22-11.79-1.57-3.07-1.57-3.07a122.39,122.39,0,0,1-18.65,1.46C10.34,21.16,1.53,20.71,1.53,20.71Z"/><path class="cls-7" d="M29.16,18.27c-1.53-1.07,1.17-4.17,1.9-4s1.12,2.12.72,3.41S29.8,18.71,29.16,18.27Z"/></g></g></g></svg>