<svg xmlns="http://www.w3.org/2000/svg" xmlns:xlink="http://www.w3.org/1999/xlink" viewBox="0 0 39.37 28.95"><defs><style>.cls-1{isolation:isolate;}.cls-2{fill:url(#_341);}.cls-3{fill:#d077b7;opacity:0.6;}.cls-3,.cls-6{mix-blend-mode:multiply;}.cls-4{fill:url(#_474);}.cls-5{fill:url(#_474-2);}.cls-6{fill:#df87ec;}.cls-7{fill:#ffcdbd;opacity:0.7;}</style><linearGradient id="_341" x1="19.69" y1="0.67" x2="19.69" y2="24.11" gradientUnits="userSpaceOnUse"><stop offset="0" stop-color="#ce384c"/><stop offset="0.47" stop-color="#cb3748"/><stop offset="0.65" stop-color="#c53445"/><stop offset="0.9" stop-color="#b42a3d"/><stop offset="1" stop-color="#ab2538"/></linearGradient><linearGradient id="_474" x1="5.07" y1="23.06" x2="13.78" y2="23.06" gradientUnits="userSpaceOnUse"><stop offset="0" stop-color="#721e24"/><stop offset="1" stop-color="#510036"/></linearGradient><linearGradient id="_474-2" x1="-12025.79" y1="23.19" x2="-12017.1" y2="23.19" gradientTransform="matrix(-1, 0, 0, 1, -11991.41, 0)" xlink:href="#_474"/></defs><g class="cls-1"><g id="Layer_2" data-name="Layer 2"><g id="Avatar_face" data-name="Avatar face"><path class="cls-2" d="M35.17,23.88c-3.94.68-4.61-1-8-1s-4.51,2.25-7.49,2.25-4.12-2.25-7.5-2.25-4,1.69-8,1C.65,23.27-1,15.57.61,10.75a.08.08,0,0,0,0,0,7.53,7.53,0,0,1,.65-1.47C3.86,4.73,14.45,0,19.69,0S35.51,4.73,38.1,9.24A8.75,8.75,0,0,1,39,11.65C40.15,16.48,38.5,23.31,35.17,23.88Z"/><path class="cls-3" d="M35.17,23.88c-3.94.68-4.61-1-8-1s-4.51,2.25-7.49,2.25-4.12-2.25-7.5-2.25-4,1.69-8,1C.65,23.27-1,15.57.61,10.75c-.12.45-1.12,4.87,1,8.39a3.06,3.06,0,0,0,3.73,1.24A38.26,38.26,0,0,1,21.8,17.74a47.73,47.73,0,0,1,11.94,2.43,3.08,3.08,0,0,0,3.91-1.71A17.75,17.75,0,0,0,39,11.65C40.15,16.48,38.5,23.31,35.17,23.88Z"/><path class="cls-4" d="M5.66,24c-1.94-.21.93-3.59,8.12-1C13.78,23.05,7.12,24.19,5.66,24Z"/><path class="cls-5" d="M33.82,24c1.93-.21-1.12-3-8.13-1C25.69,23.05,32.36,24.19,33.82,24Z"/><path class="cls-6" d="M3.48,23.65c-1-1.68.61-2.82,1.84-3.27a38.44,38.44,0,0,1,14.37-2.74c7.77,0,18.45,2.63,16.19,6S25.46,29,18.28,29C8,29,3.48,23.65,3.48,23.65Z"/><path class="cls-6" d="M2,8.19C4.65,7.1,6.87,9.78,8.29,10.75S6.85,7.47,3.61,6.6Z"/><path class="cls-6" d="M37.39,8.19c-2.67-1.09-4.89,1.59-6.32,2.56s1.52-3.28,4.76-4.15Z"/><path class="cls-7" d="M23.46,12.56c-.28.62-.85,2.65.76,2.87A3.94,3.94,0,0,0,27.63,14a1.78,1.78,0,0,0-1.28-2.17C25.15,11.6,24,11.49,23.46,12.56Z"/></g></g></g></svg>