<svg xmlns="http://www.w3.org/2000/svg" xmlns:xlink="http://www.w3.org/1999/xlink" viewBox="0 0 39.48 28.14"><defs><style>.cls-1{isolation:isolate;}.cls-2{fill:url(#_341);}.cls-3{fill:#d077b7;opacity:0.6;}.cls-3,.cls-4{mix-blend-mode:multiply;}.cls-4{fill:#df87ec;}.cls-5{fill:#4e1b3d;}.cls-6{fill:#ffcdbd;opacity:0.7;}</style><linearGradient id="_341" x1="19.74" x2="19.74" y2="22.08" gradientUnits="userSpaceOnUse"><stop offset="0" stop-color="#ce384c"/><stop offset="0.47" stop-color="#cb3748"/><stop offset="0.65" stop-color="#c53445"/><stop offset="0.9" stop-color="#b42a3d"/><stop offset="1" stop-color="#ab2538"/></linearGradient></defs><g class="cls-1"><g id="Layer_2" data-name="Layer 2"><g id="Avatar_face" data-name="Avatar face"><path class="cls-2" d="M38.14,18.89c-1.15.6-5.37-.72-9.46,1s-5.87,2.15-8.94,2.15-4.86-.39-8.94-2.15-8.31-.44-9.46-1S-1.77,14.8,3.08,8.63C3.61,8,4.22,7.26,4.92,6.53,12.07-.95,19.74,0,19.74,0s7.66-1,14.82,6.49a26.83,26.83,0,0,1,1.83,2.1C41.25,14.8,39.18,18.35,38.14,18.89Z"/><path class="cls-3" d="M38.14,18.89c-1.15.6-5.37-.72-9.46,1s-5.87,2.15-8.94,2.15-4.86-.39-8.94-2.15-8.31-.44-9.46-1S-1.77,14.8,3.08,8.63c0,0-.93,4.71,1.68,6.14a96,96,0,0,0,15,1.42,95.82,95.82,0,0,0,15-1.42c2.61-1.43,1.68-6.14,1.68-6.14C41.25,14.8,39.18,18.35,38.14,18.89Z"/><path class="cls-4" d="M5.58,5.86C7.66,5.73,7.91,11,7.91,11s1-4.94-.82-6.53Z"/><path class="cls-4" d="M33.6,5.86C31.52,5.73,31.27,11,31.27,11s-1-4.94.82-6.53Z"/><path class="cls-5" d="M5.58,19s3.27-.63,7.61,1.84A41.3,41.3,0,0,1,5.58,19Z"/><path class="cls-5" d="M33.6,19s-3.27-.63-7.61,1.84A41.3,41.3,0,0,0,33.6,19Z"/><path class="cls-4" d="M1.34,18.89a13.13,13.13,0,0,1,4.2-4,68.8,68.8,0,0,0,14.2,1.29,75.22,75.22,0,0,0,15-1.42s2.94,1.87,3.43,4.12c0,0-7.17,9.25-18.4,9.25S1.34,18.89,1.34,18.89Z"/><path class="cls-6" d="M26,8.94c-1,.6-.21,2.23.47,2.23s2,0,1.87-1.12A1.44,1.44,0,0,0,26,8.94Z"/></g></g></g></svg>