<svg xmlns="http://www.w3.org/2000/svg" xmlns:xlink="http://www.w3.org/1999/xlink" viewBox="0 0 39.31 42.84"><defs><style>.cls-1{isolation:isolate;}.cls-2{fill:url(#_56);}.cls-3,.cls-6{mix-blend-mode:multiply;}.cls-3,.cls-5,.cls-6{opacity:0.5;}.cls-3{fill:url(#_632);}.cls-4{fill:#912c47;}.cls-5{fill:#ff813b;mix-blend-mode:screen;}.cls-6{fill:#d0478c;}</style><linearGradient id="_56" x1="19.67" x2="19.67" y2="40.62" gradientUnits="userSpaceOnUse"><stop offset="0" stop-color="#ffa793"/><stop offset="0.43" stop-color="#f6a896"/><stop offset="0.52" stop-color="#f9a28f"/><stop offset="0.76" stop-color="#fd9783"/><stop offset="1" stop-color="#ff937f"/></linearGradient><linearGradient id="_632" x1="19.65" y1="40.62" x2="19.65" y2="27.58" gradientUnits="userSpaceOnUse"><stop offset="0" stop-color="#ffe9ea"/><stop offset="0.99" stop-color="#de5777"/></linearGradient></defs><g class="cls-1"><g id="Layer_2" data-name="Layer 2"><g id="Layer_1-2" data-name="Layer 1"><path class="cls-2" d="M38.74,30.52a6.6,6.6,0,0,1-1.38,3.88,4.7,4.7,0,0,1-2.46,1.72,4.24,4.24,0,0,1-1.23.16c-2.5-.1-5.7.77-9.86,3-.48.25-1,.53-1.49.82a6.58,6.58,0,0,1-5.29,0c-.5-.29-1-.55-1.45-.8h0c-4.17-2.2-7.37-3.08-9.87-3h0a4.09,4.09,0,0,1-1.3-.18A4.83,4.83,0,0,1,2,34.4,6.6,6.6,0,0,1,.6,30.52a5.71,5.71,0,0,1,.85-2.82l.05-.05a22.21,22.21,0,0,1,4.05-4.89,13.08,13.08,0,0,0,3.62-6.32A45.34,45.34,0,0,1,14.73,4.08c1.79-2.89,3.36-3.77,4.37-4h0A1.62,1.62,0,0,1,19.67,0a1.65,1.65,0,0,1,.58.07h0c1,.23,2.58,1.11,4.36,4a44.74,44.74,0,0,1,5.56,12.36,13.16,13.16,0,0,0,3.62,6.32,22.84,22.84,0,0,1,4,4.82,1.06,1.06,0,0,1,.11.21A5.53,5.53,0,0,1,38.74,30.52Z"/><path class="cls-3" d="M34.84,36.17l.06-.05a4.23,4.23,0,0,1-1.23.15c-2.49-.1-5.7.78-9.86,3-.48.25-1,.53-1.49.82a6.62,6.62,0,0,1-5.29,0c-.5-.29-1-.56-1.45-.8h0c-4.17-2.2-7.38-3.09-9.88-3h0a3.86,3.86,0,0,1-1.3-.18l.09.08c-4.16-.82-6-5.27-3-8.47a.09.09,0,0,1,0-.06h0v0s0,.05,0,.08c-.14.63-.75,4.08,2.78,4.59,3.9.57,7.46-2.07,9.9-1s4.17,4.15,7.37,3.21S24.81,31.27,28,31s9.23,2.93,9.86-3.37a.13.13,0,0,1,0-.06.84.84,0,0,1,.11.21C40.77,31,39,35.36,34.84,36.17Z"/><path class="cls-4" d="M4.47,36.18c-4.16-.82-6-5.27-3-8.48l.05,0s0,0,0,.08C.77,30.3.7,32.57,2.57,34.42c.55.58,1.17,1.11,1.81,1.68A.34.34,0,0,1,4.47,36.18Z"/><path class="cls-4" d="M34.83,36.18l.07-.06c.65-.58,1.29-1.12,1.83-1.7,1.91-1.87,1.81-4.18,1.08-6.77a.55.55,0,0,1,.12.14C40.77,31,39,35.37,34.83,36.18Z"/><path class="cls-4" d="M33.67,36.28c-2.5-.1-5.7.77-9.86,3,1.3-1.29,4.41-4.19,6.42-4.45A3.17,3.17,0,0,1,33.67,36.28Z"/><path class="cls-4" d="M15.56,39.26c-4.17-2.2-7.37-3.08-9.87-3A3.17,3.17,0,0,1,9.13,34.8C11.15,35.06,14.28,38,15.56,39.26Z"/><path class="cls-5" d="M14.43,28.94c-.35.92,2.41,2.7,2.74,2.91.69.45,2.68,1.73,3.29,1.17s-.07-2.84-1.65-3.94S14.73,28.17,14.43,28.94Z"/><path class="cls-6" d="M33.67,36.27c-2.49-.1-5.7,3-9.86,5.19l-1.49.82a6.58,6.58,0,0,1-5.29,0c-.5-.28-1-.55-1.45-.79h0c-4.17-2.2-7.38-5.31-9.88-5.21,0,0,1.14-3,5-2.13S16,38,20.39,37.73s6.88-4.24,9.8-3.72S33.67,36.27,33.67,36.27Z"/></g></g></g></svg>