<svg xmlns="http://www.w3.org/2000/svg" xmlns:xlink="http://www.w3.org/1999/xlink" viewBox="0 0 41.31 34.76"><defs><style>.cls-1{isolation:isolate;}.cls-2{fill:url(#Áåçûìÿííûé_ãðàäèåíò_307);}.cls-3{fill:#842751;}.cls-4{fill:#d177b8;}.cls-4,.cls-5,.cls-6{opacity:0.6;mix-blend-mode:multiply;}.cls-5{fill:url(#Áåçûìÿííûé_ãðàäèåíò_123);}.cls-6{fill:url(#Áåçûìÿííûé_ãðàäèåíò_123-2);}.cls-7{fill:#ffcfbf;}</style><linearGradient id="Áåçûìÿííûé_ãðàäèåíò_307" x1="20.65" y1="29.28" x2="20.65" gradientUnits="userSpaceOnUse"><stop offset="0" stop-color="#f97a7e"/><stop offset="0.08" stop-color="#fa7d7e"/><stop offset="0.54" stop-color="#fe897f"/><stop offset="1" stop-color="#ff8d7f"/></linearGradient><linearGradient id="Áåçûìÿííûé_ãðàäèåíò_123" x1="37.24" y1="19.81" x2="37.24" y2="5.53" gradientUnits="userSpaceOnUse"><stop offset="0" stop-color="#ffeadb"/><stop offset="0.99" stop-color="#d177f4"/></linearGradient><linearGradient id="Áåçûìÿííûé_ãðàäèåíò_123-2" x1="4.14" y1="20.45" x2="4.14" y2="5.5" xlink:href="#Áåçûìÿííûé_ãðàäèåíò_123"/></defs><g class="cls-1"><g id="Layer_2" data-name="Layer 2"><g id="layer1"><path class="cls-2" d="M41,22.9s-.37,1.37-4.69,1.57S28,29.28,20.65,29.28s-11-4.6-15.28-4.81-5-1.57-5-1.57a21.57,21.57,0,0,1,.56-9.68h0a.29.29,0,0,0,0-.09A29.59,29.59,0,0,1,3.07,7.63h0C3.52,6.73,3.93,6,4.25,5.5s.63-1,.63-1c10.26-6.07,21.28-6.07,31.55,0,0,0,.26.35.64,1s.73,1.22,1.17,2.1h0c.4.77.81,1.66,1.21,2.66v0A23,23,0,0,1,41,22.9Z"/><path class="cls-3" d="M31.2,26.17s3.32-3.47,7.43-2Z"/><path class="cls-3" d="M3.16,24.22s4.19-1.53,8.37,2.55Z"/><path class="cls-4" d="M41,22.9s-.37,1.38-4.69,1.57S28,29.28,20.65,29.28s-11-4.6-15.28-4.81-5-1.57-5-1.57a21.51,21.51,0,0,1,.56-9.67,5,5,0,0,0,2,4.25C4.72,18.92,14,25.79,20.66,25.79s15.67-6.87,16.94-9a16,16,0,0,0,1.86-6.41A23,23,0,0,1,41,22.9Z"/><path class="cls-5" d="M38.24,7.64a54.33,54.33,0,0,0-1.36,12.17s-1.56-5.39.19-14.28c.32.51.73,1.22,1.17,2.1Z"/><path class="cls-6" d="M4.58,20.45A55.75,55.75,0,0,0,3.07,7.63h0C3.52,6.73,3.93,6,4.25,5.5,6.21,14.8,4.58,20.45,4.58,20.45Z"/><path class="cls-4" d="M2.85,17.48S.53,22.2.32,22.9,9.78,34.76,20.66,34.76,40.79,24.26,41,22.9s-3.39-6.14-3.39-6.14-8.18,9-16.94,9C12.55,25.79,2.85,17.48,2.85,17.48Z"/><path class="cls-7" d="M29.33,18.37c-1.54-1.07,1.18-4.19,1.91-4.06s1.13,2.14.73,3.43S30,18.82,29.33,18.37Z"/></g></g></g></svg>