<svg xmlns="http://www.w3.org/2000/svg" xmlns:xlink="http://www.w3.org/1999/xlink" viewBox="0 0 50.82 32.56"><defs><style>.cls-1{isolation:isolate;}.cls-2{fill:url(#_341);}.cls-3{fill:#d077b7;opacity:0.6;}.cls-3,.cls-6{mix-blend-mode:multiply;}.cls-4{fill:url(#_474);}.cls-5{fill:url(#_474-2);}.cls-6{fill:#df87ec;}.cls-7{fill:#ffcdbd;opacity:0.7;}</style><linearGradient id="_341" x1="25.52" y1="3.33" x2="25.52" y2="20.46" gradientUnits="userSpaceOnUse"><stop offset="0" stop-color="#ce384c"/><stop offset="0.47" stop-color="#cb3748"/><stop offset="0.65" stop-color="#c53445"/><stop offset="0.9" stop-color="#b42a3d"/><stop offset="1" stop-color="#ab2538"/></linearGradient><linearGradient id="_474" x1="3.9" y1="22.98" x2="13.81" y2="22.98" gradientUnits="userSpaceOnUse"><stop offset="0" stop-color="#721e24"/><stop offset="1" stop-color="#510036"/></linearGradient><linearGradient id="_474-2" x1="-10935.22" y1="22.98" x2="-10925.31" y2="22.98" gradientTransform="matrix(-1, 0, 0, 1, -10887.73, 0)" xlink:href="#_474"/></defs><g class="cls-1"><g id="Avatar_face" data-name="Avatar face"><path class="cls-2" d="M44.74,2.42C39.93-.38,25.52,0,25.52,0S11.1-.38,6.3,2.42C2.35,4.73-2.11,20.08,1.1,21.26s9.8,1.56,14.81,3.87a23,23,0,0,0,19.22,0c5-2.31,11.61-2.69,14.81-3.87S48.69,4.73,44.74,2.42Z"/><path class="cls-3" d="M49.94,21.26c-3.2,1.18-9.81,1.56-14.81,3.87a23,23,0,0,1-19.22,0c-5-2.31-11.61-2.69-14.81-3.87-2.17-.8-.84-8.06,1.47-13.4-.08.3-2.14,7.55,0,9.9S25.52,21,25.52,21s20.75-.8,22.94-3.21.09-9.6,0-9.9C50.77,13.2,52.1,20.46,49.94,21.26Z"/><path class="cls-4" d="M3.9,21.84s4.1-.9,9.91,2.4A32.44,32.44,0,0,1,3.9,21.84Z"/><path class="cls-5" d="M47.48,21.84s-4.1-.9-9.91,2.4A32.44,32.44,0,0,0,47.48,21.84Z"/><path class="cls-6" d="M.62,20.91a3.46,3.46,0,0,1,3.94-2.2,115.37,115.37,0,0,0,21.86,2.2A98.69,98.69,0,0,0,47.5,18.35c2.24-.51,2.44,2.91,2.44,2.91S40.09,32.83,25.28,32.83.62,20.91.62,20.91Z"/><path class="cls-6" d="M7.39,1.9c3.78-.28,4.45,8.66,4.45,8.66S12.7,3.16,10.67,1Z"/><path class="cls-6" d="M44,1.9c-3.78-.28-4.45,8.66-4.45,8.66S38.67,3.16,40.7,1Z"/><path class="cls-7" d="M32,12.3a2.7,2.7,0,0,0,1.47,4.13c1.2.27,2.67-1.33,2.93-2.06S32.5,11.44,32,12.3Z"/></g></g></svg>