<svg xmlns="http://www.w3.org/2000/svg" xmlns:xlink="http://www.w3.org/1999/xlink" viewBox="0 0 39.42 27.12"><defs><style>.cls-1{isolation:isolate;}.cls-2{fill:url(#_341);}.cls-3{fill:#822751;}.cls-4{fill:#d077b7;}.cls-4,.cls-5,.cls-6{opacity:0.6;}.cls-4,.cls-5,.cls-6,.cls-7{mix-blend-mode:multiply;}.cls-5{fill:url(#_123);}.cls-6{fill:url(#_123-2);}.cls-7{fill:#df87ec;}.cls-8{fill:#ffcdbd;opacity:0.7;}</style><linearGradient id="_341" x1="19.71" y1="0.72" x2="19.71" y2="22.71" gradientUnits="userSpaceOnUse"><stop offset="0" stop-color="#ce384c"/><stop offset="0.47" stop-color="#cb3748"/><stop offset="0.65" stop-color="#c53445"/><stop offset="0.9" stop-color="#b42a3d"/><stop offset="1" stop-color="#ab2538"/></linearGradient><linearGradient id="_123" x1="33.46" y1="15.46" x2="33.46" y2="2.89" gradientUnits="userSpaceOnUse"><stop offset="0" stop-color="#ffe8d9"/><stop offset="0.99" stop-color="#cf77f2"/></linearGradient><linearGradient id="_123-2" x1="-2835.48" y1="15.46" x2="-2835.48" y2="2.89" gradientTransform="matrix(-1, 0, 0, 1, -2829.17, 0)" xlink:href="#_123"/></defs><g class="cls-1"><g id="Layer_2" data-name="Layer 2"><g id="Avatar_face" data-name="Avatar face"><path class="cls-2" d="M39.11,17.87s-.35,1.07-4.47,1.22-8,3.75-14.93,3.75S9.24,19.25,5.12,19.09.3,17.87.3,17.87a13.91,13.91,0,0,1,.54-7.55h0a.19.19,0,0,0,0-.08,22.1,22.1,0,0,1,3.8-6.68,33.7,33.7,0,0,1,30.1,0A21.42,21.42,0,0,1,37.64,8v0h0A15,15,0,0,1,39.11,17.87Z"/><path class="cls-3" d="M29.77,20.42a8.15,8.15,0,0,1,7.09-1.54Z"/><path class="cls-3" d="M3,18.9a9.31,9.31,0,0,1,8,2Z"/><path class="cls-4" d="M39.11,17.87s-.35,1.07-4.47,1.22-8,3.75-14.93,3.75S9.24,19.25,5.12,19.09.3,17.87.3,17.87a13.91,13.91,0,0,1,.54-7.55c-.15.66-1,4.9.62,5.93s11.9.47,18.25.47,17.15,0,18.37-1.67-.29-6.53-.43-7A15,15,0,0,1,39.11,17.87Z"/><path class="cls-5" d="M34.76,3.55s-2.27,7-2,11.91c0,0-1.68-4.79.55-12.57Z"/><path class="cls-6" d="M5,3.55s2.27,7,2,11.91c0,0,1.68-4.79-.55-12.57Z"/><path class="cls-7" d="M1.46,16.25A8.05,8.05,0,0,0,.3,17.87c-.2.54,9,9.25,19.41,9.25s19.21-8.19,19.4-9.25-1.5-2.41-1.5-2.41a130.3,130.3,0,0,1-17.9,1.26C9.92,16.72,1.46,16.25,1.46,16.25Z"/><path class="cls-8" d="M26.94,14.53c-1.47-.84,2.17-3.46,2.87-3.36s1.08,1.66.69,2.67S27.55,14.88,26.94,14.53Z"/></g></g></g></svg>