<svg xmlns="http://www.w3.org/2000/svg" xmlns:xlink="http://www.w3.org/1999/xlink" viewBox="0 0 43.5 27.7"><defs><style>.cls-1{isolation:isolate;}.cls-2{fill:url(#linear-gradient);}.cls-3{fill:#ce77b5;mix-blend-mode:multiply;opacity:0.6;}.cls-4{fill:#812751;}.cls-5{fill:#b44556;}.cls-6{mix-blend-mode:color-dodge;opacity:0.2;fill:url(#_300);}</style><linearGradient id="linear-gradient" x1="21.75" x2="21.75" y2="24.17" gradientUnits="userSpaceOnUse"><stop offset="0.02" stop-color="#ffa774"/><stop offset="1" stop-color="#ff9b91"/></linearGradient><linearGradient id="_300" x1="20.33" y1="11.59" x2="29.03" y2="11.59" gradientUnits="userSpaceOnUse"><stop offset="0" stop-color="#ebdfff"/><stop offset="1" stop-color="#bac6f8"/></linearGradient></defs><g class="cls-1"><g id="Layer_2" data-name="Layer 2"><g id="Layer_1-2" data-name="Layer 1"><path class="cls-2" d="M43.49,18.35a5.35,5.35,0,0,1-.12.83c-.61,2.47-3.4,3.45-7.49,3.78l-.71.05c-.5,0-1,.06-1.56.07h0c-4.14.15-8.71-.07-8.71-.07h0a5.14,5.14,0,0,1-2,1,3.68,3.68,0,0,1-1.14.14A3.82,3.82,0,0,1,20.61,24a5,5,0,0,1-2-1s-4.59.22-8.73.07c-.53,0-1.05,0-1.56-.07l-.57,0C4.1,22.69,1.46,21.9.46,20a3.34,3.34,0,0,1-.33-.85,7.41,7.41,0,0,1,.53-4.24A24.64,24.64,0,0,1,5.27,7.71a23.38,23.38,0,0,1,4.87-4.27A26.39,26.39,0,0,1,21.43,0a4.56,4.56,0,0,1,.64,0A26.39,26.39,0,0,1,33.36,3.44,24.69,24.69,0,0,1,38.53,8v0a26.69,26.69,0,0,1,3.62,5.35A10.55,10.55,0,0,1,43.49,18.35Z"/><path class="cls-3" d="M43.49,18.35a5.13,5.13,0,0,1-2,2.29c-4.14,2.64-13-.13-20-.82S12,21.1,5.18,21.05A8.9,8.9,0,0,1,.46,20c.07.13.16.24.24.36h0c1.42,2.31,3.16,4.59,13,6.49a42.61,42.61,0,0,0,19-.51c4.71-1.26,8.34-3.18,10-5.78a3.43,3.43,0,0,0,.7-1.4A5.35,5.35,0,0,0,43.49,18.35Z"/><path class="cls-3" d="M43.37,19.18c-.61,2.47-3.4,3.45-7.49,3.78l-.71.05c-.5,0-1,.06-1.56.07h0c-4.14.15-8.71-.07-8.71-.07h0a5.14,5.14,0,0,1-2,1,3.68,3.68,0,0,1-1.14.14A3.82,3.82,0,0,1,20.61,24a5,5,0,0,1-2-1s-4.59.22-8.73.07c-.53,0-1.05,0-1.56-.07l-.57,0c-4.16-.32-7-1.3-7.62-3.79a7.41,7.41,0,0,1,.53-4.24c-.24,1.33,0,2.64,1.57,2.76,3.31.26,8-6,12.73-4.48s5.2,1.7,7.2,1.68c3.36,0,6.38-3.15,9.79-2.05s6.42,5.8,9.65,4.86c1.21-.35,1.13-2.17.56-4.3C43.23,15.56,43.75,17.62,43.37,19.18Z"/><path class="cls-4" d="M18.61,23s-4.59.22-8.73.07c-2.32-1.2-2.9-3.69-1.66-5.17C10.05,15.75,18.61,23,18.61,23Z"/><path class="cls-4" d="M33.61,23.08h0c-4.14.15-8.71-.07-8.71-.07.22-.19,8.57-7.23,10.37-5.1C36.51,19.39,35.93,21.88,33.61,23.08Z"/><path class="cls-5" d="M7.75,23c-4.16-.32-7-1.3-7.62-3.79-.74-3,1.8-7.72,5.14-11.47-1.65,3-3.91,7.86-2.92,10.43C3.26,20.48,5.85,22.08,7.75,23Z"/><path class="cls-5" d="M43.37,19.18c-.61,2.47-3.4,3.45-7.49,3.78,1.9-.89,4.47-2.48,5.38-4.82s-1.1-7.07-2.72-10.08C41.72,11.76,44.08,16.31,43.37,19.18Z"/><path class="cls-6" d="M25,9.81a5.6,5.6,0,0,0-3.55,1.5c-.53.51-1.27,1.22-1.09,1.64.53,1.22,8.67-.39,8.67-1.78C29,10.45,26.81,9.71,25,9.81Z"/></g></g></g></svg>