<svg xmlns="http://www.w3.org/2000/svg" xmlns:xlink="http://www.w3.org/1999/xlink" viewBox="0 0 46.64 30"><defs><style>.cls-1{isolation:isolate;}.cls-2{fill:url(#_341);}.cls-3{fill:#d077b7;opacity:0.6;}.cls-3,.cls-6{mix-blend-mode:multiply;}.cls-4{fill:url(#_474);}.cls-5{fill:url(#_474-2);}.cls-6{fill:#df87ec;}.cls-7{fill:#ffcdbd;opacity:0.7;}</style><linearGradient id="_341" x1="23.32" y1="3.04" x2="23.32" y2="18.7" gradientUnits="userSpaceOnUse"><stop offset="0" stop-color="#ce384c"/><stop offset="0.47" stop-color="#cb3748"/><stop offset="0.65" stop-color="#c53445"/><stop offset="0.9" stop-color="#b42a3d"/><stop offset="1" stop-color="#ab2538"/></linearGradient><linearGradient id="_474" x1="3.56" y1="21.01" x2="12.62" y2="21.01" gradientUnits="userSpaceOnUse"><stop offset="0" stop-color="#721e24"/><stop offset="1" stop-color="#510036"/></linearGradient><linearGradient id="_474-2" x1="-9195.81" y1="21.01" x2="-9186.76" y2="21.01" gradientTransform="matrix(-1, 0, 0, 1, -9152.42, 0)" xlink:href="#_474"/></defs><g class="cls-1"><g id="Layer_2" data-name="Layer 2"><g id="Avatar_face" data-name="Avatar face"><path class="cls-2" d="M40.89,2.21C36.49-.35,23.32,0,23.32,0S10.15-.35,5.76,2.21C2.15,4.32-1.93,18.35,1,19.43S10,20.86,14.54,23A21,21,0,0,0,32.1,23c4.58-2.11,10.61-2.46,13.54-3.54S44.5,4.32,40.89,2.21Z"/><path class="cls-3" d="M45.64,19.43c-2.93,1.08-9,1.43-13.54,3.54a21,21,0,0,1-17.56,0C10,20.86,3.93,20.51,1,19.43-1,18.7.24,12.06,2.35,7.18c-.08.28-1.95,6.9,0,9.06s21,2.93,21,2.93,19-.74,21-2.93.08-8.78,0-9.06C46.4,12.06,47.62,18.7,45.64,19.43Z"/><path class="cls-4" d="M3.56,20s3.75-.82,9.06,2.2A29.7,29.7,0,0,1,3.56,20Z"/><path class="cls-5" d="M43.4,20s-3.75-.82-9.06,2.2A29.76,29.76,0,0,0,43.4,20Z"/><path class="cls-6" d="M.56,19.11a3.18,3.18,0,0,1,3.61-2,105,105,0,0,0,20,2,89.84,89.84,0,0,0,19.27-2.34c2.05-.47,2.23,2.66,2.23,2.66S36.64,30,23.1,30,.56,19.11.56,19.11Z"/><path class="cls-6" d="M6.75,1.74c3.46-.26,4.07,7.91,4.07,7.91S11.61,2.89,9.75.9Z"/><path class="cls-6" d="M40.2,1.74c-3.46-.26-4.07,7.91-4.07,7.91S35.34,2.89,37.2.9Z"/><path class="cls-7" d="M29.24,11.24A2.47,2.47,0,0,0,30.58,15c1.1.24,2.44-1.22,2.68-1.89S29.7,10.45,29.24,11.24Z"/></g></g></g></svg>