<svg xmlns="http://www.w3.org/2000/svg" xmlns:xlink="http://www.w3.org/1999/xlink" viewBox="0 0 44.73 38.18"><defs><style>.cls-1{mask:url(#mask);filter:url(#luminosity-noclip-2);}.cls-2,.cls-6,.cls-7{mix-blend-mode:multiply;}.cls-2{fill:url(#linear-gradient);}.cls-3{isolation:isolate;}.cls-4{fill:url(#linear-gradient-2);}.cls-12,.cls-5{fill:#ff813b;mix-blend-mode:screen;}.cls-5{opacity:0.2;}.cls-12,.cls-6,.cls-8{opacity:0.5;}.cls-6{fill:url(#_632);}.cls-8{fill:#d0478c;}.cls-9{fill:#912c47;}.cls-10{mask:url(#mask-2);}.cls-11{mix-blend-mode:soft-light;opacity:0.8;fill:url(#linear-gradient-3);}.cls-13{filter:url(#luminosity-noclip);}</style><filter id="luminosity-noclip" x="10.87" y="-8014.32" width="24.73" height="32766" filterUnits="userSpaceOnUse" color-interpolation-filters="sRGB"><feFlood flood-color="#fff" result="bg"/><feBlend in="SourceGraphic" in2="bg"/></filter><mask id="mask" x="10.87" y="-8014.32" width="24.73" height="32766" maskUnits="userSpaceOnUse"><g class="cls-13"/></mask><linearGradient id="linear-gradient" x1="10.87" y1="20.82" x2="35.61" y2="20.82" gradientUnits="userSpaceOnUse"><stop offset="0"/><stop offset="0.22" stop-color="#4a4a4a"/><stop offset="0.43" stop-color="#8a8a8a"/><stop offset="0.62" stop-color="#bdbdbd"/><stop offset="0.78" stop-color="#e1e1e1"/><stop offset="0.91" stop-color="#f7f7f7"/><stop offset="1" stop-color="#fff"/></linearGradient><linearGradient id="linear-gradient-2" x1="22.07" x2="22.07" y2="33.97" gradientUnits="userSpaceOnUse"><stop offset="0.02" stop-color="#ffa774"/><stop offset="1" stop-color="#ff9b91"/></linearGradient><linearGradient id="_632" x1="0.99" y1="26.78" x2="43.73" y2="26.78" gradientUnits="userSpaceOnUse"><stop offset="0" stop-color="#ffe9ea"/><stop offset="0.99" stop-color="#de5777"/></linearGradient><filter id="luminosity-noclip-2" x="10.87" y="17.7" width="24.73" height="6.24" filterUnits="userSpaceOnUse" color-interpolation-filters="sRGB"><feFlood flood-color="#fff" result="bg"/><feBlend in="SourceGraphic" in2="bg"/></filter><mask id="mask-2" x="10.87" y="17.7" width="24.73" height="6.24" maskUnits="userSpaceOnUse"><g class="cls-1"><path class="cls-2" d="M35.61,20.75c-8.1,4.1-16.63,4.32-24.74.22C19,16.76,27.51,16.54,35.61,20.75Z"/></g></mask><linearGradient id="linear-gradient-3" x1="10.87" y1="20.82" x2="35.61" y2="20.82" gradientUnits="userSpaceOnUse"><stop offset="0" stop-color="#ffad50"/><stop offset="0.41" stop-color="#ffba71"/><stop offset="0.77" stop-color="#ffc287"/><stop offset="1" stop-color="#ffc58f"/></linearGradient></defs><g class="cls-3"><g id="Layer_2" data-name="Layer 2"><g id="Layer_1-2" data-name="Layer 1"><path class="cls-4" d="M42.33,27.32a0,0,0,0,1,0,0c-1.89,1.85-5.08,1.77-7.76,2.38s-4.95,2-7.42,3.05A13.69,13.69,0,0,1,22.37,34a13.85,13.85,0,0,1-4.78-1.2c-2.46-1-4.79-2.41-7.4-3.05s-5.89-.53-7.78-2.4c-.12-.12-.25-.25-.37-.39s-.1-.17-.16-.25C.09,24.33.7,21.47,2.24,18.41l1.14-.79c.15-.32.32-.63.48-.91A73.76,73.76,0,0,1,13.68,4.38,15.3,15.3,0,0,1,18.38.81a5.24,5.24,0,0,1,.73-.27A10.62,10.62,0,0,1,29.68,2.81,91,91,0,0,1,40.25,15h0l.14.23c.23.32.46.67.65,1a6.8,6.8,0,0,1,.73,1.35,14,14,0,0,1,1.29,3.28h0A9.28,9.28,0,0,1,42.33,27.32Z"/><path class="cls-5" d="M33.1,9.68c2.26-.32,6,6.8,5,7.87-.78.84-5.37-.13-6.21-3.42C31.27,11.83,32.68,9.79,33.1,9.68Z"/><path class="cls-6" d="M43.72,23.39a5,5,0,0,1-1,3.54q-.18.21-.36.39a0,0,0,0,1,0,0c-1.89,1.85-5.08,1.77-7.76,2.38s-4.95,2-7.42,3.05A13.69,13.69,0,0,1,22.37,34a13.85,13.85,0,0,1-4.78-1.2c-2.46-1-4.79-2.41-7.4-3.05s-5.89-.53-7.78-2.4c-.12-.12-.25-.25-.37-.39a5,5,0,0,1-1-3.54A7.73,7.73,0,0,1,2.38,19.6c2.77.58,5.68,1,8.7,1.38,1.28.16,2.57.28,3.87.38,2.52.22,5,.32,7.42.34s4.88-.12,7.41-.34c1.37-.1,2.72-.22,4-.39h0q4.43-.52,8.5-1.37a7.73,7.73,0,0,1,.71,1.25h0A7.15,7.15,0,0,1,43.72,23.39Z"/><g class="cls-7"><path class="cls-8" d="M22.36,38.18A14.18,14.18,0,0,0,27.13,37c2.47-1,4.8-3.84,7.42-4.47,2.86-.65,6.3-3.31,8.14-5.59a5,5,0,0,0,1-3.54,3.14,3.14,0,0,1-.23.33,6.11,6.11,0,0,1-4.83,2.1,29.78,29.78,0,0,0-4.42-.15C31.75,26,29.84,28,28,29.76c-1.58,1.43-3.56,2.8-5.62,2.84s-4-1.41-5.61-2.84C14.89,28,13,26,10.48,25.67a29.74,29.74,0,0,0-4.42.15,6.11,6.11,0,0,1-4.83-2.1A3.14,3.14,0,0,1,1,23.39a5,5,0,0,0,1,3.54c1.84,2.28,5.27,4.94,8.14,5.59,2.62.63,5,3.43,7.42,4.47A14.13,14.13,0,0,0,22.36,38.18Z"/></g><path class="cls-9" d="M38.9,27.88a6.19,6.19,0,0,0-5.49-1.29A6,6,0,0,0,30.7,28a3.09,3.09,0,0,0-1.11,2.86,7,7,0,0,1,2.26-1c.71-.17,1.4-.35,2.15-.49A31,31,0,0,0,38.9,27.88Z"/><path class="cls-9" d="M5.83,27.88a6.18,6.18,0,0,1,5.49-1.29A5.87,5.87,0,0,1,14,28a3.07,3.07,0,0,1,1.12,2.86,7,7,0,0,0-2.26-1c-.71-.17-1.4-.35-2.16-.49A31.24,31.24,0,0,1,5.83,27.88Z"/><path class="cls-9" d="M40.26,15.71c1.36,4.27,3.67,7.06,2.06,11.63,4.61-2.83,1.86-9.59-2.06-11.63Z"/><path class="cls-9" d="M4.47,15.71C3.11,20,.8,22.77,2.41,27.34-2.21,24.51.55,17.75,4.47,15.71Z"/><g class="cls-10"><path class="cls-11" d="M35.61,20.75c-8.1,4.1-16.63,4.32-24.74.22C19,16.76,27.51,16.54,35.61,20.75Z"/></g><path class="cls-12" d="M35.61,20.75C27.5,24.85,19,25.07,10.87,21h0c1.32.16,2.67.28,4,.39,2.52.21,5,.32,7.41.34s4.9-.13,7.42-.34c1.3-.1,2.58-.22,3.86-.38h0C34.29,20.92,34.94,20.85,35.61,20.75Z"/></g></g></g></svg>