<svg xmlns="http://www.w3.org/2000/svg" xmlns:xlink="http://www.w3.org/1999/xlink" viewBox="0 0 81.03 36.43"><defs><style>.cls-1{isolation:isolate;}.cls-2{fill:#df87ec;mix-blend-mode:multiply;}.cls-3{fill:#ee7172;}.cls-4{fill:#9d1636;}.cls-5{fill:#57061c;}.cls-6{fill:url(#_920);}.cls-7{fill:url(#_920-2);}.cls-8{fill:#fffab6;opacity:0.5;mix-blend-mode:soft-light;}.cls-9{fill:#e28fb6;}</style><linearGradient id="_920" y1="10.78" x2="7.72" y2="10.78" gradientUnits="userSpaceOnUse"><stop offset="0" stop-color="#9d1f31"/><stop offset="1" stop-color="#9d1f31"/></linearGradient><linearGradient id="_920-2" x1="74.44" y1="11.34" x2="81.03" y2="11.34" xlink:href="#_920"/></defs><g class="cls-1"><g id="Avatar_face" data-name="Avatar face"><path class="cls-2" d="M17.14,20S28.22,36.43,40.68,36.43,64.83,20,64.83,20Z"/><path class="cls-3" d="M41,31.07c21.31,0,32-18.49,32-18.49-26.59.66-31.65,3.94-32,4.2-.36-.26-5.42-3.54-32-4.2A36.48,36.48,0,0,0,41,31.07Z"/><path class="cls-4" d="M40.49,0C29.46,0,24.59,7.78,12,12.32a137.9,137.9,0,0,1,20.64,2.15,53.26,53.26,0,0,0,16.09-.18A120.91,120.91,0,0,1,69,12.35C56.39,7.81,54.56,0,40.49,0Z"/><path class="cls-5" d="M2.85,10.37a6.55,6.55,0,0,0,2,1.16,10.23,10.23,0,0,0,2.3.59,17.38,17.38,0,0,0,2.4.16l2.45,0c3.27.08,6.54.24,9.8.52,4.15.37,10.69,1.58,14.9,2.41a18.6,18.6,0,0,0,7.65-.09l.38-.09c1.33-.29,2.66-.54,4-.78,2.67-.46,5.36-.82,8.05-1.12s5.39-.5,8.08-.64c1.35-.09,2.71-.12,4.06-.18l4-.08h0c.48-.06,1-.15,1.47-.25a14,14,0,0,0,1.45-.38,8.19,8.19,0,0,0,2.65-1.3l.28.34a8.84,8.84,0,0,1-2.76,1.46c-.49.17-1,.31-1.49.43s-1,.22-1.53.3h0l-4,.19c-1.34.1-2.69.16-4,.29q-4,.33-8,.87c-2.67.37-5.32.8-7.94,1.33-1.32.27-2.62.56-3.92.88h0a18.55,18.55,0,0,1-8.48.12c-4.27-.94-10.77-2.29-14.83-2.75-3.23-.38-6.47-.63-9.72-.79l-2.44-.12a16.11,16.11,0,0,1-2.48-.23A11.14,11.14,0,0,1,4.69,12a7,7,0,0,1-2.15-1.33Z"/><path class="cls-6" d="M7.72,6.45S2.41,12.08.78,15.11c0,0-1.85-5.56.15-6.75S7.72,6.45,7.72,6.45Z"/><path class="cls-7" d="M74.44,7.86s6,4,6.48,7.25c0,0,.6-5.35-.94-6.75S74.44,7.86,74.44,7.86Z"/><path class="cls-8" d="M63.32,21.18s-3-3.08-9.52-2c0,0-6.64,2.55-6.94,6.28A11.52,11.52,0,0,0,52,27.56,53.23,53.23,0,0,0,63.32,21.18Z"/><path class="cls-9" d="M26.75,13.47a137.72,137.72,0,0,1,26,.21s-8.14,2.28-12,2.24S26.75,13.47,26.75,13.47Z"/></g></g></svg>