<svg xmlns="http://www.w3.org/2000/svg" viewBox="0 0 77.78 40.21"><defs><style>.cls-1{isolation:isolate;}.cls-2{fill:#df87ec;mix-blend-mode:multiply;}.cls-3{fill:#57061c;}.cls-4{fill:#9d1636;}.cls-5{fill:#ee7172;}.cls-6{fill:#ffdeec;}.cls-7{fill:#f4a69b;}</style></defs><g class="cls-1"><g id="Layer_2" data-name="Layer 2"><g id="Avatar_face" data-name="Avatar face"><path class="cls-2" d="M12.52,22.49s7.9,17.72,27.8,17.72c16.15,0,25.59-17.72,25.59-17.72S41.89,32,12.52,22.49Z"/><path class="cls-3" d="M4.71,5.78A180.21,180.21,0,0,0,39.35,9.71,168.77,168.77,0,0,0,73.3,5.78S54,32.16,37.82,32.16,4.71,5.78,4.71,5.78Z"/><path class="cls-4" d="M39.41,0C32,0,4.71,5.78,4.71,5.78c8.43,5,23.05,7.87,34.3,7.87S64.88,10.73,73.3,5.78C73.3,5.78,49.39,0,39.41,0Z"/><path class="cls-5" d="M4.71,5.78S19.36,24.14,39,24.14,73.3,5.78,73.3,5.78s-2.36,30-33.95,30S4.71,5.78,4.71,5.78Z"/><path class="cls-6" d="M11,8.7a43.47,43.47,0,0,0,3.46,5,50,50,0,0,0,25.89,7.06c11.86,0,24.43-7.54,24.43-7.54l2.3-4.47S40.33,19.28,11,8.7Z"/><path class="cls-3" d="M6.08,6.53S3,5.12,2.19,2.61c0,0,.43-.77,1.09-1.86C3.28.75.33.64,0,4.14c0,0,3.84,2.26,6.08,3.2Z"/><path class="cls-3" d="M71.7,6.53s3.13-1.41,3.89-3.92c0,0-.44-.77-1.09-1.86,0,0,3-.11,3.28,3.39,0,0-3.85,2.26-6.08,3.2Z"/><path class="cls-7" d="M51.74,24.56a5.2,5.2,0,0,0,1,6.66,32.63,32.63,0,0,0,11.87-7.28s0-3.15-1.84-4.1A51,51,0,0,0,51.74,24.56Z"/></g></g></g></svg>