<svg xmlns="http://www.w3.org/2000/svg" xmlns:xlink="http://www.w3.org/1999/xlink" viewBox="0 0 60.11 21.04"><defs><style>.cls-1{isolation:isolate;}.cls-2{fill:url(#Gradient_8);}.cls-3{fill:#ff6563;}.cls-4{fill:#d0478c;mix-blend-mode:multiply;opacity:0.3;}.cls-5{fill:#912c47;}.cls-6{fill:#ffccb8;mix-blend-mode:soft-light;}</style><linearGradient id="Gradient_8" x1="30.27" y1="17.77" x2="30.27" y2="7.38" gradientUnits="userSpaceOnUse"><stop offset="0.02" stop-color="#ff8d5b"/><stop offset="1" stop-color="#ff6f6b"/></linearGradient></defs><g class="cls-1"><g id="Layer_2" data-name="Layer 2"><g id="Layer_1-2" data-name="Layer 1"><path class="cls-2" d="M8.23,9a31.64,31.64,0,0,0,20.43,8.77,32.41,32.41,0,0,0,23.66-9C47.54,7.28,15.9,6.51,8.23,9Z"/><path class="cls-3" d="M52.32,8.2H7.24a44.83,44.83,0,0,1,6-3.67C17.68,2.26,24-.19,30.66,0A37,37,0,0,1,46.77,4.6,36.69,36.69,0,0,1,52.32,8.2Z"/><path class="cls-4" d="M52.32,8.2H7.24a44.83,44.83,0,0,1,6-3.67C14.51,5.59,18.47,7.31,31,7.37,40.15,7.42,44.66,6,46.77,4.6A36.69,36.69,0,0,1,52.32,8.2Z"/><path class="cls-5" d="M60.07,10.84C59.76,9.63,57,8.36,54.46,8.39,54,8.4,46.26,6.73,30,6.73h-.41A159.84,159.84,0,0,0,5.64,8.39C3.11,8.36.34,9.63,0,10.84c-.06.24-.08.55.46,1.23a2.92,2.92,0,0,0,2,1.14,3,3,0,0,0,2-1.41A8.7,8.7,0,0,1,7,9.59a13.67,13.67,0,0,1,4.9-.95c5.49-.12,15.55,0,17.68,0H30c2.14,0,12.19-.12,17.69,0A11.72,11.72,0,0,1,54.92,11a5.64,5.64,0,0,1,.72.85c.61.88.86,1.48,1.46,1.54a3.43,3.43,0,0,0,2.51-1.27C60.18,11.41,60.14,11.08,60.07,10.84Z"/><path class="cls-4" d="M9.57,10.19C23.83,26,39,23.28,50.93,10.19,36.58,17.22,22.8,17.1,9.57,10.19Z"/><path class="cls-6" d="M19.7,2.84C19.77,1.45,26.81.56,27.85.49c2.73-.19,5,.05,5.21.62.29.91-3.43,3.7-7.58,3.76C22.66,4.92,19.66,3.72,19.7,2.84Z"/><path class="cls-6" d="M16.79,9.44c.42-.66,2.3-.15,4.55.46s3.65,1,3.71,1.7c.08,1-2.4,2.52-4.64,2.06C17.93,13.16,16.25,10.28,16.79,9.44Z"/><path class="cls-6" d="M27.1,11a1.63,1.63,0,0,0-1.66,1,1.67,1.67,0,0,0,1.12,2.12,1.8,1.8,0,0,0,1.88-2A1.57,1.57,0,0,0,27.1,11Z"/></g></g></g></svg>