<svg xmlns="http://www.w3.org/2000/svg" viewBox="0 0 65.13 35.77"><defs><style>.cls-1{isolation:isolate;}.cls-2{fill:#ea336b;}.cls-3{fill:#bd336b;}.cls-4{fill:#842751;}.cls-5{fill:#d177b8;opacity:0.6;mix-blend-mode:multiply;}.cls-6{fill:#de8db3;}.cls-7{fill:#fffcb8;mix-blend-mode:soft-light;}</style></defs><g class="cls-1"><g id="Layer_2" data-name="Layer 2"><g id="layer1"><path class="cls-2" d="M1.85,8.26s7,25.17,29.4,25.17c22.8,0,30.09-24.08,30.09-24.08s-8,5.46-28.77,5.46S1.85,8.26,1.85,8.26Z"/><path class="cls-3" d="M59.9,10.09a91.26,91.26,0,0,1-27.33,4.73c-10,0-19.76-2.69-24.68-4.28-.13,0-.24-.09-.34-.11L6.36,10c-.47-.15-.87-.3-1.17-.4l-.61-.24.1-.06c1-.53,9.1-9,26-9.29.58,0,1.17,0,1.79,0s1.2,0,1.78,0C49.81.32,57.59,8.67,59.46,9.8Z"/><path class="cls-4" d="M.2,7.22,0,7.09Z"/><path class="cls-4" d="M32.57,13.83C11.8,14.06,1.65,8.14.2,7.22c12.51,8.34,32.3,10.67,32.3,10.67S52.43,15.56,64.93,7.22C63.49,8.14,53.34,14.06,32.57,13.83Z"/><path class="cls-4" d="M64.93,7.22l.2-.13A1.37,1.37,0,0,1,64.93,7.22Z"/><path class="cls-5" d="M11.48,24.83S19.7,35.77,32.25,35.77,51.81,24.83,51.81,24.83,45,31.29,31.6,31.29,11.48,24.83,11.48,24.83Z"/><path class="cls-5" d="M4.68,9.31c1-.53,9.1-9,26-9.29C16.45.47,8.4,10.18,7.89,10.54l0,0-.32-.13L6.36,10l-1.17-.4-.61-.24Z"/><path class="cls-5" d="M59.46,9.8l-2.19.76A32.6,32.6,0,0,0,34.27,0C49.81.32,57.59,8.67,59.46,9.8Z"/><path class="cls-6" d="M18.26,13.26a88,88,0,0,0,29.59,0s-5.51,3.18-14.79,3.68S18.26,13.26,18.26,13.26Z"/><path class="cls-7" d="M36.44,19.57s1.61,2.12,1.93,6.57l3.79-.6s.14-2.6-2.45-6.76Z"/><path class="cls-7" d="M42.42,17.89A12.55,12.55,0,0,1,45,24.83h.87s.52-3.3-2.51-6.94Z"/></g></g></g></svg>