<svg xmlns="http://www.w3.org/2000/svg" viewBox="0 0 63.88 21.51"><defs><style>.cls-1{isolation:isolate;}.cls-2{fill:#df87ec;}.cls-2,.cls-5{mix-blend-mode:multiply;}.cls-3{fill:#ee7172;}.cls-4{fill:#57061c;}.cls-5{fill:#cf77b6;opacity:0.6;}.cls-6{fill:#8f2a39;}.cls-7{fill:#e3c5ff;}</style></defs><g class="cls-1"><g id="Layer_2" data-name="Layer 2"><g id="Avatar_face" data-name="Avatar face"><path class="cls-2" d="M6,8.13s4.43,9.57,11.43,12.51,12.32-2.11,20.36-6.26c0,0-11.15,2.24-19.3-.7A77.14,77.14,0,0,1,6,8.13Z"/><path class="cls-3" d="M2.82,1.94s9.43,25.32,28.36,15.78C52.75,6.84,60.31,2.4,60.31,2.4S50,10.05,31.57,10.05,2.82,1.94,2.82,1.94Z"/><path class="cls-4" d="M0,0S14.46,11.18,31.12,11.18,63.88.55,63.88.55,51.53,8,30,8.39A52.74,52.74,0,0,1,0,0Z"/><path class="cls-5" d="M47.46,5.11A61.56,61.56,0,0,0,60.28,2.42a1.21,1.21,0,0,1-.25.14l-.46.25c-.2.11-.43.23-.7.35a18.45,18.45,0,0,1-4.42,1.52,37.5,37.5,0,0,1-7,.45Z"/><path class="cls-5" d="M18.82,5.28a29.75,29.75,0,0,1-6.36-.14,20.75,20.75,0,0,1-6.69-2L5.34,3,4.7,2.62a2.44,2.44,0,0,0-.33-.18,0,0,0,0,0,0,0h0A62.61,62.61,0,0,0,18.82,5.28Z"/><path class="cls-6" d="M4.33,2.41c4.24,2.06,17.17-.49,28-.58,9.61-.08,17.53,3.31,28,.57A91.63,91.63,0,0,1,29.73,9.18C13.49,10,4.33,2.41,4.33,2.41Z"/><path class="cls-5" d="M31.12,11.18A80.15,80.15,0,0,0,46.78,9.72c7-1.57,9.6-5,9.6-5A82.33,82.33,0,0,1,31.12,11.18Z"/><path class="cls-7" d="M25.67,9.81s9.59,1.6,16.4.28S55.49,4.25,55.49,4.25,40,9.77,25.67,9.81Z"/></g></g></g></svg>