<svg xmlns="http://www.w3.org/2000/svg" viewBox="0 0 63.96 34.83"><defs><style>.cls-1{isolation:isolate;}.cls-2{fill:#df87ec;mix-blend-mode:multiply;}.cls-3{fill:#d6476c;}.cls-4{fill:#8f1431;}.cls-5{fill:#2e031e;}.cls-6{fill:#ffd7ff;mix-blend-mode:soft-light;}</style></defs><g class="cls-1"><g id="Layer_2" data-name="Layer 2"><g id="Avatar_face" data-name="Avatar face"><path class="cls-2" d="M6.65,13.83s9,21,25.33,21S56,15.35,56,15.35Z"/><path class="cls-3" d="M2,5.45s8.78,23.17,30.54,23.17S60.89,5.28,60.89,5.28,42.72,8.2,38,10.06s-9,0-13.16-1.21S2,5.45,2,5.45Z"/><path class="cls-4" d="M50.22,2.27C42.77-.8,37.79.13,32.55.13S22.33-.8,14.88,2.27,3.38,5.12,3.38,5.12A42.26,42.26,0,0,0,18,7.9c3.67,0,14.59,2.16,14.59,2.16S43.47,8,47.14,7.9A42.26,42.26,0,0,0,61.72,5.12S57.68,5.33,50.22,2.27Z"/><path class="cls-5" d="M60.89,5.28C53.33,7.63,49.76,6.35,42.43,8.1a38.66,38.66,0,0,1-19.92,0c-7.33-1.75-12.64,0-20-3.36C1.52,4.29,0,3.33,0,3.33v1.6S10.16,7.72,17.47,8.15s10,4.32,15,4.32,7.69-3.89,15-4.32S64,4.93,64,4.93V3.33A14.68,14.68,0,0,1,60.89,5.28Z"/><polygon class="cls-6" points="48.22 8.79 53.43 10.14 49.83 13.95 46.56 11.37 48.22 8.79"/><path class="cls-6" d="M45.1,12.85l1.95,2a2.65,2.65,0,0,0-3.34.65c-1.09,1.06-5.58,1.44-7.38,2.68L35,16.09A16.6,16.6,0,0,0,45.1,12.85Z"/></g></g></g></svg>