<svg xmlns="http://www.w3.org/2000/svg" viewBox="0 0 56.97 32.07"><defs><style>.cls-1{isolation:isolate;}.cls-2{fill:#d177b8;opacity:0.6;mix-blend-mode:multiply;}.cls-3{fill:#bf336b;}.cls-4{fill:#a61a57;}.cls-5{fill:#681351;}.cls-6{fill:#ffd9ff;mix-blend-mode:soft-light;}</style></defs><g class="cls-1"><g id="Layer_2" data-name="Layer 2"><g id="layer1"><path class="cls-2" d="M5.93,14.56s8,17.51,22.55,17.51,21.4-15.91,21.4-15.91Z"/><path class="cls-3" d="M1.79,5.73S9.61,30.12,29,30.12,54.23,5.56,54.23,5.56s-16.18,3.07-20.38,5-8,0-11.72-1.27S1.79,5.73,1.79,5.73Z"/><path class="cls-4" d="M3,5.39s3.6.22,10.24-3S24.32.14,29,.14V10.59S19.26,8.37,16,8.31A32.53,32.53,0,0,1,3,5.39Z"/><path class="cls-4" d="M55,5.39s-3.6.22-10.24-3S33.66.14,29,.14V10.59s9.73-2.22,13-2.28A32.53,32.53,0,0,0,55,5.39Z"/><path class="cls-5" d="M54.23,5.56C47.5,8,44.32,6.69,37.79,8.52a29.2,29.2,0,0,1-17.74,0C13.52,6.69,8.79,8.57,2.22,5A23.29,23.29,0,0,1,0,3.5V5.18s9.05,3,15.56,3.39,8.88,4.56,13.36,4.56S35.77,9,42.28,8.57,57,5.18,57,5.18V3.5A13.12,13.12,0,0,1,54.23,5.56Z"/><polygon class="cls-6" points="42.95 9.25 47.59 10.68 44.38 14.68 41.47 11.97 42.95 9.25"/><path class="cls-6" d="M40.17,13.53l1.74,2.13s-1.42-1.1-3,.69c-1,1.12-5,1.52-6.58,2.82l-1.2-2.24A13.15,13.15,0,0,0,40.17,13.53Z"/></g></g></g></svg>