<svg xmlns="http://www.w3.org/2000/svg" xmlns:xlink="http://www.w3.org/1999/xlink" viewBox="0 0 68.15 31.4"><defs><style>.cls-1{isolation:isolate;}.cls-2{fill:#d0478c;opacity:0.3;}.cls-2,.cls-4,.cls-5,.cls-9{mix-blend-mode:multiply;}.cls-3{fill:#812751;}.cls-4,.cls-5,.cls-9{opacity:0.7;}.cls-4{fill:url(#_285_2);}.cls-5{fill:url(#_285_2-2);}.cls-6{fill:url(#Áåçûìÿííûé_ãðàäèåíò_9);}.cls-7{fill:url(#Áåçûìÿííûé_ãðàäèåíò_9-2);}.cls-8{fill:#ff6563;}.cls-10{fill:#bb7eb6;}.cls-11{fill:url(#Gradient_8);}.cls-12{fill:#ffccb8;}.cls-12,.cls-13{mix-blend-mode:soft-light;opacity:0.8;}.cls-13{fill:#fff9b5;}</style><linearGradient id="_285_2" x1="65.13" y1="6.41" x2="65.13" gradientUnits="userSpaceOnUse"><stop offset="0" stop-color="#fff"/><stop offset="1" stop-color="#ce4c76"/></linearGradient><linearGradient id="_285_2-2" x1="3.02" y1="6.41" x2="3.02" xlink:href="#_285_2"/><linearGradient id="Áåçûìÿííûé_ãðàäèåíò_9" x1="34.08" y1="12.42" x2="34.08" y2="5.12" gradientUnits="userSpaceOnUse"><stop offset="0" stop-color="#fff"/><stop offset="1" stop-color="#afa4e1"/></linearGradient><linearGradient id="Áåçûìÿííûé_ãðàäèåíò_9-2" x1="34.08" y1="19.8" x2="34.08" y2="14.34" xlink:href="#Áåçûìÿííûé_ãðàäèåíò_9"/><linearGradient id="Gradient_8" x1="34.08" y1="27.18" x2="34.08" y2="2.76" gradientUnits="userSpaceOnUse"><stop offset="0.02" stop-color="#ff8d5b"/><stop offset="1" stop-color="#ff6f6b"/></linearGradient></defs><g class="cls-1"><g id="Layer_2" data-name="Layer 2"><g id="Layer_1-2" data-name="Layer 1"><path class="cls-2" d="M15.51,17.52S26.6,31.78,35.17,31.4s18-13.27,18-13.27Z"/><path class="cls-3" d="M34.08,2.62,57.84,4.55a39.64,39.64,0,0,0,6.43-1.79s-6.2,17.56-30.19,18.37c-24-.81-30.2-18.37-30.2-18.37a38.52,38.52,0,0,0,6.43,1.79Z"/><path class="cls-4" d="M62.11,1c0,.51,1.71.52,3.32,2,1.78,1.61,1.73,3.51,2.07,3.47.53-.07,1.54-4.69-1-6C64.8-.51,62.16.37,62.11,1Z"/><path class="cls-5" d="M6,1c0,.51-1.71.52-3.32,2C.94,4.55,1,6.45.65,6.41c-.53-.07-1.54-4.69,1-6C3.35-.51,6,.37,6,1Z"/><path class="cls-6" d="M34.08,12.42A63.11,63.11,0,0,0,52,9.62c1.74-.65,4.72-4.5,4.72-4.5H11.43s3,3.85,4.72,4.5A63.2,63.2,0,0,0,34.08,12.42Z"/><path class="cls-7" d="M34.08,17.06a61,61,0,0,0,18-2.72s-5.72,5.26-18,5.46c-12.28-.2-18-5.46-18-5.46A61,61,0,0,0,34.08,17.06Z"/><path class="cls-8" d="M34.08,8.37c17.74,0,28.05-4.56,30.19-5.61-1.16.53-21-4.94-30.19-.14C26-2.44,5,3.29,3.88,2.76,6,3.81,16.33,8.37,34.08,8.37Z"/><g class="cls-9"><path class="cls-10" d="M64.27,2.76c-2.13,1.05-12.44,5.61-30.2,5.61S6,3.81,3.88,2.76a8.37,8.37,0,0,0,2.74.46,29.68,29.68,0,0,1,5.84,1A85.23,85.23,0,0,0,34.07,6.78,85.24,85.24,0,0,0,55.68,4.2a29.39,29.39,0,0,1,5.87-1A8.56,8.56,0,0,0,64.27,2.76Z"/></g><path class="cls-11" d="M39.84,26.61C59.58,22.67,64.27,2.76,64.27,2.76S59.09,13.52,43,17.07a41.55,41.55,0,0,1-9,1,41.57,41.57,0,0,1-9-1C9.06,13.52,3.88,2.76,3.88,2.76S8.57,22.67,28.31,26.61A29.44,29.44,0,0,0,39.84,26.61Z"/><path class="cls-2" d="M60,12.35A30.45,30.45,0,0,1,39.84,26.61a29.39,29.39,0,0,1-11.52,0A30.59,30.59,0,0,1,8,12.18c3.75,5.45,10,10.22,20.12,12.18a31.08,31.08,0,0,0,11.85,0C50,22.42,56.24,17.75,60,12.35Z"/><path class="cls-12" d="M17.9,15.61c.2-.52,6.55,2.85,16.18,2.92,9.89.07,16.46-3.42,16.65-2.92s-7.41,6.09-17.06,5.88C24.65,21.29,17.69,16.16,17.9,15.61Z"/><path class="cls-12" d="M40.92,1a17.46,17.46,0,0,0-6.64,2A17.34,17.34,0,0,0,27.65,1C24.78.83,16,1.16,16,1.85,16,4,52.45,4,52.6,1.85,52.65,1.17,43.79.83,40.92,1Z"/><path class="cls-13" d="M40.63,18.51c-.17.21-.06.67.1,1a.83.83,0,0,0,.26.31c.52.31,1.63-.32,1.6-.74S41,18.08,40.63,18.51Z"/><path class="cls-13" d="M39.66,18.6c-.42-.27-1,.06-1.32.16-2.7,1-6.2-.14-6.31.35s2,1.3,4.1,1.59c.93.13,3.28.46,3.84-.56A1.29,1.29,0,0,0,39.66,18.6Z"/></g></g></g></svg>