<svg xmlns="http://www.w3.org/2000/svg" viewBox="0 0 75.24 42.09"><defs><style>.cls-1{isolation:isolate;}.cls-2{fill:#df87ec;mix-blend-mode:multiply;}.cls-3{fill:#57061c;}.cls-4{fill:#b92d2d;}.cls-5{fill:#ffdeec;}.cls-6{fill:#9d1636;}.cls-7{fill:#ee7172;}</style></defs><g class="cls-1"><g id="Layer_2" data-name="Layer 2"><g id="Avatar_face" data-name="Avatar face"><path class="cls-2" d="M17,27.24s9.65,14.85,21.26,14.85c12.24,0,21.14-15.19,21.14-15.19S45.41,36.38,17,27.24Z"/><path class="cls-3" d="M73.71,9l1.53-1.81A2,2,0,0,0,74,6.34l-.43,1.72c-1.71.83-3.57,1.75-5.43,1.56A138.52,138.52,0,0,0,8,9.52H8C6.08,10,3.39,9,1.51,8.06L1.44,6.27S0,6.45,0,7.28L1.34,9C11.65,25.24,28.12,32.36,38.46,32.36,49.89,32.36,60.36,27.45,73.71,9Z"/><path class="cls-4" d="M14.69,23.69s20.87-12.46,40.52,2.89a33.87,33.87,0,0,1-21,4.77C22.38,30,18.27,28.86,14.69,23.69Z"/><path class="cls-5" d="M16.1,8.27S26.44,16,38.88,15c10.6-.87,20.25-7.07,20.25-7.07A105.27,105.27,0,0,0,16.1,8.27Z"/><path class="cls-6" d="M37.84,0C23.86,0,7.9,9.52,7.9,9.52c21-3,29.94-2.23,29.94-2.23s9-.81,30,2.23C67.79,9.52,51.83,0,37.84,0Z"/><path class="cls-5" d="M22,28s9.15-.92,16.58-1a99,99,0,0,1,14.33.95,37.47,37.47,0,0,1-15.09,3.68C27.69,31.58,22,28,22,28Z"/><path class="cls-7" d="M37.84,30.65c-14.79,0-25.49-9-25.49-9,7,12.17,18.24,16.49,25.49,16.54S56.24,33.51,63.56,21C63.56,21,52.64,30.65,37.84,30.65Z"/></g></g></g></svg>