<svg xmlns="http://www.w3.org/2000/svg" xmlns:xlink="http://www.w3.org/1999/xlink" viewBox="0 0 55.36 18.98"><defs><style>.cls-1{isolation:isolate;}.cls-2{fill:#ff6563;}.cls-3{fill:url(#Gradient_8);}.cls-4{fill:#ce77b5;mix-blend-mode:multiply;opacity:0.5;}.cls-5{fill:#812751;}</style><linearGradient id="Gradient_8" x1="27.35" y1="14.56" x2="27.35" y2="6.38" gradientUnits="userSpaceOnUse"><stop offset="0.02" stop-color="#ff8d5b"/><stop offset="1" stop-color="#ff6f6b"/></linearGradient></defs><g class="cls-1"><g id="Layer_2" data-name="Layer 2"><g id="Layer_1-2" data-name="Layer 1"><path class="cls-2" d="M5,4.31s3.88,9.77,10.71,11.24,18.63,1,23.36.17C46.92,14.31,49.3,4.52,49.3,4.52s-6.43,2.6-19.6,2.55A123.67,123.67,0,0,1,5,4.31Z"/><path class="cls-2" d="M49.64,3.17s-1.27,1.25-5.89,2.49C40.49,6.54,33,6.8,28.82,6.87v0H26v0C21.83,6.8,14.3,6.54,11,5.66c-4.62-1.24-5.9-2.49-5.9-2.49s4.12-.94,8.08-1.55a24.42,24.42,0,0,1,6.32-.45c1.56.26,3.77.79,5.65,1.26a8.9,8.9,0,0,0,4.41,0c1.87-.47,4.09-1,5.66-1.26a27.86,27.86,0,0,1,7.09.57C46.05,2.35,49.64,3.17,49.64,3.17Z"/><path class="cls-3" d="M7.68,6.38C7.57,17,46.91,17.42,47,6.8A99.76,99.76,0,0,1,7.68,6.38Z"/><path class="cls-4" d="M49.64,3.17s-1.27,1.25-5.89,2.49C40.49,6.54,33,6.8,28.82,6.87v0H26v0C21.83,6.8,14.3,6.54,11,5.66c-4.62-1.24-5.9-2.49-5.9-2.49s4.12-.94,8.08-1.55A6.24,6.24,0,0,0,9.88,3.84a101.87,101.87,0,0,0,35.7.24C45.36,3,44.12,2.29,42.35,1.74,46.05,2.35,49.64,3.17,49.64,3.17Z"/><path class="cls-4" d="M29.91,7.12h0c-1.74,0-3.47-.06-5.13-.15h-.17A123.83,123.83,0,0,1,5.05,4.36S9.73,16.56,16.56,18s17,1,21.74.17c7.81-1.41,11-13.62,11-13.62S42.94,7.15,29.91,7.12ZM7.67,6.44A97.74,97.74,0,0,0,24.73,8.55h.17c.41,1.06,1.37,2.62,2.5,2.62s2.07-1.54,2.48-2.58h0A103.23,103.23,0,0,0,47,6.84C46.91,17.47,7.57,17.06,7.67,6.44Z"/><path class="cls-5" d="M54.69.54C54-.55,52.2.17,51.74,1.26s-3.17,2.91-7.14,4c-8.54,2.27-28.26,1.7-33.84,0C6.82,4,4.08,2.34,3.62,1.26S1.39-.55.67.54-.51,3.21,1,3.64,8.48,5.58,9.84,6A63.23,63.23,0,0,0,21,7.1c3.38.06,9.9.06,13.28,0A63.34,63.34,0,0,0,45.52,6c1.36-.37,7.33-1.88,8.84-2.31S55.41,1.62,54.69.54Z"/></g></g></g></svg>