<svg xmlns="http://www.w3.org/2000/svg" xmlns:xlink="http://www.w3.org/1999/xlink" viewBox="0 0 61.7 20.59"><defs><style>.cls-1{isolation:isolate;}.cls-2{fill:url(#Gradient_8);}.cls-3{fill:#ff6563;}.cls-4{fill:#912c47;}.cls-5{fill:#d0478c;mix-blend-mode:multiply;opacity:0.3;}.cls-6{fill:#fff9b5;mix-blend-mode:soft-light;opacity:0.5;}</style><linearGradient id="Gradient_8" x1="32.34" y1="16.58" x2="32.34" y2="5.35" gradientUnits="userSpaceOnUse"><stop offset="0.02" stop-color="#ff8d5b"/><stop offset="1" stop-color="#ff6f6b"/></linearGradient></defs><g class="cls-1"><g id="Layer_2" data-name="Layer 2"><g id="Layer_1-2" data-name="Layer 1"><path class="cls-2" d="M9.15,11.43s6.71,6.23,20.68,5,20.72-6.54,24.94-10c3.22-2.65-5,.54-5,.54L32.84,10Z"/><path class="cls-3" d="M55.13,2.85A25.24,25.24,0,0,1,48.21,6.9C44.56,8.17,32.84,10,32.84,10l-11,1.09c-8.94.82-14.3.29-17.39-1.09a30.51,30.51,0,0,0,8-.77q.75-.16,1.47-.39c4-1.21,7.54-3.54,12.54-4.44,5.61-1,7.3-.65,13.84-.18a51.29,51.29,0,0,0,9.8-.11h0A16.74,16.74,0,0,0,55.13,2.85Z"/><path class="cls-4" d="M21.87,11.05s-10.6.47-15.29-.84S-.07,7.72,0,9.87,2.81,12.49,11.06,12,21.87,11.05,21.87,11.05Z"/><path class="cls-4" d="M32.84,10S44.73,8.52,52.62,4c4.73-2.7,7.47-5.1,8.72-3.51S60.72,4.83,54,6.62A141.71,141.71,0,0,1,32.84,10Z"/><path class="cls-5" d="M11.92,13.29c10.86,10.48,24,10.14,39.19-4.08C37.69,16,22.39,17.46,11.92,13.29Z"/><path class="cls-5" d="M55.13,2.85A25.24,25.24,0,0,1,48.21,6.9C44.56,8.17,32.84,10,32.84,10l-11,1.09c-8.94.82-14.3.29-17.39-1.09a30.51,30.51,0,0,0,8-.77q.75-.16,1.47-.39c10.38,2.69,22.68.52,36.18-4.73h0A16.74,16.74,0,0,0,55.13,2.85Z"/><path class="cls-6" d="M26.61,11.25a59.1,59.1,0,0,0-6.54.55c-3.31.37-5,.56-5,.76,0,.46,4.43,1.28,9.13,1,4.11-.22,8.24-1.25,8.2-1.78S27,11.24,26.61,11.25Z"/></g></g></g></svg>