<svg xmlns="http://www.w3.org/2000/svg" viewBox="0 0 63.02 33.93"><defs><style>.cls-1{isolation:isolate;}.cls-2{fill:#b02067;}.cls-3{fill:#851047;}.cls-4{fill:#822751;}.cls-5{fill:#57061c;}.cls-6{fill:#df87ec;}.cls-6,.cls-7{mix-blend-mode:multiply;}.cls-7{fill:#a15c8d;opacity:0.6;}.cls-8{fill:#dc8bb1;}.cls-9{fill:#fffab6;mix-blend-mode:soft-light;}.cls-10{fill:#8f1431;}</style></defs><g class="cls-1"><g id="Layer_2" data-name="Layer 2"><g id="Avatar_face" data-name="Avatar face"><path class="cls-2" d="M5.32,7.25S11.42,30.7,31,30.7c19.9,0,26.26-22.48,26.26-22.48S50.26,13,32.13,13,5.32,7.25,5.32,7.25Z"/><path class="cls-3" d="M56,8.87A79.37,79.37,0,0,1,32.14,13,73.78,73.78,0,0,1,10.59,9.26a2.11,2.11,0,0,0-.3-.1l-1-.37c-.41-.13-.76-.26-1-.35L7.7,8.23l.1-.05C8.65,7.71,15.74.26,30.51,0c.5,0,1,0,1.55,0s1.06,0,1.56,0c13.57.26,20.36,7.6,22,8.59C55.87,8.77,56,8.87,56,8.87Z"/><path class="cls-4" d="M3.88,6.34l-.17-.11Z"/><path class="cls-5" d="M32.13,12.15c-18.13.2-27-5-28.25-5.81,10.92,7.33,28.2,9.38,28.2,9.38s17.39-2.05,28.3-9.38C59.12,7.15,50.27,12.35,32.13,12.15Z"/><path class="cls-4" d="M60.38,6.34l.18-.11Z"/><path class="cls-6" d="M13,21.82s7.47,12.11,18.88,12.11S49.66,21.82,49.66,21.82s-6.22,5.66-18.38,5.66S13,21.82,13,21.82Z"/><path class="cls-7" d="M7.8,8.18C8.65,7.71,15.74.26,30.51,0,18.07.41,11,8.94,10.59,9.26l0,0-.28-.12-1-.37-1-.35L7.7,8.23Z"/><path class="cls-7" d="M55.61,8.61l-1.91.67A28.4,28.4,0,0,0,33.62,0C47.19.28,54,7.62,55.61,8.61Z"/><path class="cls-8" d="M19.65,11.65a76.39,76.39,0,0,0,25.83,0s-4.81,2.79-12.92,3.23S19.65,11.65,19.65,11.65Z"/><path class="cls-9" d="M35.52,17.19A11.56,11.56,0,0,1,37.2,23l3.31-.52s.12-2.29-2.14-6Z"/><path class="cls-9" d="M40.73,15.72A11.07,11.07,0,0,1,43,21.82h.76a8.27,8.27,0,0,0-2.19-6.1Z"/><path class="cls-10" d="M58.35,7.72c-1.2.79.54-4.29.54-4.29A8.22,8.22,0,0,1,63,9S59.74,6.81,58.35,7.72Z"/><path class="cls-10" d="M4.67,7.23c1.2.79-.54-4.29-.54-4.29A8.19,8.19,0,0,0,0,8.53S3.27,6.32,4.67,7.23Z"/></g></g></g></svg>