<svg xmlns="http://www.w3.org/2000/svg" viewBox="0 0 67.79 28.17"><defs><style>.cls-1{isolation:isolate;}.cls-2{fill:#ff6563;}.cls-3{fill:#dc3f57;}.cls-4{fill:#842751;}.cls-5{fill:#d177b8;opacity:0.6;mix-blend-mode:multiply;}.cls-6{fill:#fffcb8;mix-blend-mode:soft-light;}</style></defs><g class="cls-1"><g id="Layer_2" data-name="Layer 2"><g id="layer1"><path class="cls-2" d="M3.58,14.74S13.14,23.48,33,23.48,64.09,15,64.09,15,48.74,8.41,33,8.41A75.05,75.05,0,0,0,3.58,14.74Z"/><path class="cls-3" d="M6.65,13.45A34.5,34.5,0,0,1,34,0C48.56,0,64.09,15,64.09,15a78.61,78.61,0,0,0-9.16-2.33C49.05,11.48,37.43,8,30.19,8.82S13.05,13.38,6.65,13.45Z"/><path class="cls-4" d="M33.93,6.89C14.9,6.89,0,17.16,0,17.16S16.69,9.31,33.93,9.31c17.9,0,33.86,7.6,33.86,7.6S50.29,6.89,33.93,6.89Z"/><path class="cls-5" d="M10.6,11.7S14.9.6,33.32.6,57.7,12.18,57.7,12.18L64.09,15S50.12,0,33.35,0C16.13,0,6.65,13.45,6.65,13.45Z"/><path class="cls-5" d="M10.6,19.26S20.78,28.17,34,28.17,58.9,18,58.9,18A70,70,0,0,1,33,23.48C19.26,23.48,10.6,19.26,10.6,19.26Z"/><polygon class="cls-6" points="42.23 13 45.12 17.98 47.91 17.16 44.25 13 42.23 13"/></g></g></g></svg>