<svg xmlns="http://www.w3.org/2000/svg" viewBox="0 0 63.05 35.27"><defs><style>.cls-1{isolation:isolate;}.cls-2{fill:#df87ec;mix-blend-mode:multiply;}.cls-3{fill:#57061c;}.cls-4{fill:#b92d2d;}.cls-5{fill:#ffdeec;}.cls-6{fill:#9d1636;}.cls-7{fill:#ee7172;}</style></defs><g class="cls-1"><g id="Layer_2" data-name="Layer 2"><g id="Avatar_face" data-name="Avatar face"><path class="cls-2" d="M14.24,22.83s8.09,12.44,17.82,12.44c10.25,0,17.71-12.73,17.71-12.73S38.05,30.49,14.24,22.83Z"/><path class="cls-3" d="M61.77,7.5,63.05,6A1.66,1.66,0,0,0,62,5.31l-.37,1.44a8.79,8.79,0,0,1-4.54,1.31A115.93,115.93,0,0,0,6.7,8h0c-1.61.41-3.86-.45-5.43-1.23L1.2,5.25S0,5.4,0,6.1L1.12,7.5C9.76,21.15,23.57,27.12,32.23,27.12,41.81,27.12,50.58,23,61.77,7.5Z"/><path class="cls-4" d="M12.31,19.85s17.49-10.44,34,2.43a28.45,28.45,0,0,1-17.59,4C18.76,25.11,15.31,24.18,12.31,19.85Z"/><path class="cls-5" d="M13.49,6.93s8.67,6.48,19.09,5.63c8.89-.73,17-5.93,17-5.93A88.32,88.32,0,0,0,13.49,6.93Z"/><path class="cls-6" d="M31.71,0C20,0,6.62,8,6.62,8,24.2,5.43,31.71,6.11,31.71,6.11S39.23,5.43,56.81,8C56.81,8,43.43,0,31.71,0Z"/><path class="cls-5" d="M18.45,23.42s7.67-.77,13.9-.86a82.45,82.45,0,0,1,12,.79,31.44,31.44,0,0,1-12.65,3.09C23.21,26.46,18.45,23.42,18.45,23.42Z"/><path class="cls-7" d="M31.71,25.68c-12.39,0-21.36-7.56-21.36-7.56C16.25,28.32,25.64,31.94,31.71,32s15.42-3.9,21.55-14.36C53.26,17.62,44.11,25.68,31.71,25.68Z"/></g></g></g></svg>