<svg xmlns="http://www.w3.org/2000/svg" xmlns:xlink="http://www.w3.org/1999/xlink" viewBox="0 0 76.56 40.4"><defs><style>.cls-1{isolation:isolate;}.cls-2{fill:#d177b8;}.cls-2,.cls-7{opacity:0.6;mix-blend-mode:multiply;}.cls-3{fill:#ff6563;}.cls-4{fill:#dc3f57;}.cls-5{fill:#842751;}.cls-6{fill:#ffe0ee;}.cls-7{fill:url(#Áåçûìÿííûé_ãðàäèåíò_137);}.cls-8{fill:#dd6b7c;}.cls-9{fill:#fffcb8;mix-blend-mode:soft-light;}</style><radialGradient id="Áåçûìÿííûé_ãðàäèåíò_137" cx="51.04" cy="13.96" r="24.02" gradientTransform="translate(-6.57) scale(0.87 1)" gradientUnits="userSpaceOnUse"><stop offset="0" stop-color="#ffeadb"/><stop offset="0.99" stop-color="#d177f4"/></radialGradient></defs><g class="cls-1"><g id="Layer_2" data-name="Layer 2"><g id="layer1"><path class="cls-2" d="M16.37,27.83S28,40.36,36.76,40.4c11.09,0,22.83-12.95,22.83-12.95S37,45.87,16.37,27.83Z"/><path class="cls-3" d="M3.84,5.77s8.44,31.51,34.05,31.51c25.1,0,34.05-31.4,34.05-31.4l-33.59,15Z"/><path class="cls-4" d="M37.89,11.79V6.68a45.5,45.5,0,0,0-15.25,0C14.18,8.11,3.84,4,3.84,4S19.63,12.51,37.89,11.79Z"/><path class="cls-5" d="M37.89,11.79c-20.12.39-36.41-9-36.41-9s10.8,25.15,36.41,25.15C60.28,27.91,74.3,2.76,74.3,2.76S58,12.18,37.89,11.79Z"/><path class="cls-4" d="M37.89,11.79V6.68a45.52,45.52,0,0,1,15.25,0C61.6,8.11,71.94,4,71.94,4S56.15,12.51,37.89,11.79Z"/><path class="cls-6" d="M7.81,5.77l2.91,7.36S22.53,26.42,38,26.42,65.19,11.83,65.19,11.83l2.69-6s-14.34,6.78-30.1,6.78S7.81,5.77,7.81,5.77Z"/><path class="cls-7" d="M9.14,9.14S22.34,20,37.85,20,66.39,9.14,66.39,9.14l.43-1S53.27,19.64,38,19.64,8.73,7.91,8.73,7.91Z"/><path class="cls-8" d="M70.16,1.38a14.42,14.42,0,0,1,6.28,7.18s.78-6.53-1.61-8S70.16,1.38,70.16,1.38Z"/><path class="cls-8" d="M6.4,1.38A14.37,14.37,0,0,0,.12,8.56S-.66,2,1.73.51,6.4,1.38,6.4,1.38Z"/><path class="cls-9" d="M48.65,27.45a10.74,10.74,0,0,1,2.72,3.37l1.42-1.45a8.68,8.68,0,0,0-3.11-2.95Z"/><path class="cls-9" d="M50.18,26.14s1.72.27,3.26,2.83l.52-.71a4.38,4.38,0,0,0-2.59-2.56Z"/></g></g></g></svg>