<svg xmlns="http://www.w3.org/2000/svg" xmlns:xlink="http://www.w3.org/1999/xlink" viewBox="0 0 55.32 21.49"><defs><style>.cls-1{isolation:isolate;}.cls-2{fill:url(#Gradient_8);}.cls-3{fill:#ff6563;}.cls-4{fill:#d0478c;mix-blend-mode:multiply;opacity:0.3;}.cls-5{fill:#ffccb8;mix-blend-mode:soft-light;}.cls-6{fill:#912c47;}</style><linearGradient id="Gradient_8" x1="27.9" y1="19.18" x2="27.9" y2="6.69" gradientUnits="userSpaceOnUse"><stop offset="0.02" stop-color="#ff8d5b"/><stop offset="1" stop-color="#ff6f6b"/></linearGradient></defs><g class="cls-1"><g id="Layer_2" data-name="Layer 2"><g id="Layer_1-2" data-name="Layer 1"><path class="cls-2" d="M36.13,6.7c-6.29.23-10.16.23-16.45,0S3.58,9.59,3.58,9.59s5.74,6.25,10.31,8.06c5.89,2.33,23.66,1.73,28,0,4.58-1.81,10.31-8.06,10.31-8.06S42.43,6.47,36.13,6.7Z"/><path class="cls-3" d="M51.74,9.59a3.83,3.83,0,0,1-.82.42,4.47,4.47,0,0,1-2.22.26C46.9,10,39.28,7.33,36.41,7.94c-6,1.28-8.74,2-8.74,2S25,9.22,18.91,7.94C16,7.33,8.42,10,6.61,10.27A4.38,4.38,0,0,1,4.42,10a3.28,3.28,0,0,1-.84-.42S13.29.79,16.71.16C19-.26,20.22.23,22.38.68c.75.15,1.4.28,2,.37a20.18,20.18,0,0,0,6.58,0c.58-.09,1.24-.22,2-.37C35.1.23,36.3-.26,38.63.16,42,.79,51.74,9.59,51.74,9.59Z"/><path class="cls-4" d="M50.92,10a4.47,4.47,0,0,1-2.22.26C46.9,10,39.28,7.33,36.41,7.94c-6,1.28-8.74,2-8.74,2S25,9.22,18.91,7.94C16,7.33,8.42,10,6.61,10.27A4.38,4.38,0,0,1,4.42,10C8.53,7.36,14.65,3.64,17.1,3.25c2.63-.42,4,.07,6.46.52.82.15,1.59.27,2.25.37a11.6,11.6,0,0,0,3.72,0c.65-.07,1.4-.22,2.25-.37,2.44-.45,3.81-.94,6.43-.52C40.67,3.64,46.79,7.36,50.92,10Z"/><path class="cls-4" d="M52.24,9.59S44.62,18.15,40,20c-4.37,1.73-18.38,2.33-24.28,0C11.19,18.15,3.57,9.59,3.57,9.59A6,6,0,0,0,7.39,10a21.4,21.4,0,0,0,7,3.85c5.89,2.33,23.64,1.73,28,0a21,21,0,0,0,6.68-3.75A4.56,4.56,0,0,0,52.24,9.59Z"/><path class="cls-5" d="M25.17,12.85c.24-1-4.08-3.46-7.65-3.42-1.52,0-4.12.33-4.42,1.12-.36,1,2.89,2.38,6.18,2.77C21.35,13.56,25,13.72,25.17,12.85Z"/><path class="cls-6" d="M53.05,8.55a11.12,11.12,0,0,1-4.46,1.37c-2,0-10.13-3.09-13.37-2.21-2.59.71-4.61,1.65-6.6,1.88l-.41,0c-.18,0-.37,0-.55,0s-.36,0-.55,0l-.41,0c-2-.23-4-1.17-6.6-1.88C16.86,6.83,8.75,9.92,6.73,9.92A11.12,11.12,0,0,1,2.27,8.55,3.18,3.18,0,0,0,0,10.16s3.62.23,5.43.44C7,10.78,15.66,7.89,18.75,8c1.69,0,5.79,2.42,7.77,3,.28.11.65.22.9.29a1,1,0,0,0,.48,0c.25-.07.62-.18.9-.29,2-.62,6.08-3,7.77-3,3.09-.07,11.79,2.82,13.32,2.64,1.81-.21,5.43-.44,5.43-.44A3.18,3.18,0,0,0,53.05,8.55Z"/></g></g></g></svg>