<svg xmlns="http://www.w3.org/2000/svg" xmlns:xlink="http://www.w3.org/1999/xlink" viewBox="0 0 79.05 35.53"><defs><style>.cls-1{isolation:isolate;}.cls-2{fill:#df87ec;mix-blend-mode:multiply;}.cls-3{fill:#ee7172;}.cls-4{fill:#9d1636;}.cls-5{fill:#57061c;}.cls-6{fill:url(#_920);}.cls-7{fill:url(#_920-2);}.cls-8{fill:#fffab6;opacity:0.5;mix-blend-mode:soft-light;}.cls-9{fill:#e28fb6;}</style><linearGradient id="_920" y1="10.52" x2="7.53" y2="10.52" gradientUnits="userSpaceOnUse"><stop offset="0" stop-color="#9d1f31"/><stop offset="1" stop-color="#9d1f31"/></linearGradient><linearGradient id="_920-2" x1="72.62" y1="11.07" x2="79.05" y2="11.07" xlink:href="#_920"/></defs><g class="cls-1"><g id="Layer_2" data-name="Layer 2"><g id="Avatar_face" data-name="Avatar face"><path class="cls-2" d="M16.73,19.55s10.8,16,23,16,23.57-16,23.57-16Z"/><path class="cls-3" d="M40,30.31c20.78,0,31.21-18,31.21-18-25.95.64-30.88,3.84-31.23,4.1-.36-.26-5.29-3.46-31.24-4.1A35.59,35.59,0,0,0,40,30.31Z"/><path class="cls-4" d="M39.5,0C28.74,0,24,7.59,11.74,12a133.1,133.1,0,0,1,20.13,2.1,51.91,51.91,0,0,0,15.69-.18,118,118,0,0,1,19.7-1.89C55,7.61,53.23,0,39.5,0Z"/><path class="cls-5" d="M2.78,10.12a6.55,6.55,0,0,0,2,1.13A10.17,10.17,0,0,0,7,11.82,16.42,16.42,0,0,0,9.35,12l2.39,0c3.18.07,6.37.23,9.55.51,4.05.35,10.44,1.54,14.54,2.35a18.2,18.2,0,0,0,7.46-.09l.37-.09c1.3-.28,2.6-.53,3.9-.76,2.61-.45,5.23-.8,7.86-1.09s5.25-.49,7.89-.63c1.31-.08,2.63-.11,4-.17L71.21,12h0c.48-.06,1-.14,1.44-.24s.95-.22,1.42-.37a8.07,8.07,0,0,0,2.58-1.27l.27.33a8.59,8.59,0,0,1-2.69,1.42,15.15,15.15,0,0,1-1.46.42,14.53,14.53,0,0,1-1.49.29h0l-3.93.18c-1.31.1-2.62.16-3.93.28q-3.91.33-7.82.85c-2.59.36-5.18.78-7.74,1.3-1.28.27-2.56.54-3.82.86h0a18.38,18.38,0,0,1-8.28.12c-4.16-.92-10.5-2.24-14.46-2.69-3.15-.37-6.32-.61-9.49-.77L9.33,12.6a18,18,0,0,1-2.41-.23,11.15,11.15,0,0,1-2.34-.66,6.76,6.76,0,0,1-2.1-1.3Z"/><path class="cls-6" d="M7.53,6.29S2.35,11.79.76,14.74c0,0-1.8-5.43.14-6.59S7.53,6.29,7.53,6.29Z"/><path class="cls-7" d="M72.62,7.67s5.9,3.91,6.32,7.07c0,0,.59-5.22-.92-6.59S72.62,7.67,72.62,7.67Z"/><path class="cls-8" d="M61.77,20.66s-2.93-3-9.28-1.95c0,0-6.49,2.49-6.78,6.13a11.31,11.31,0,0,0,5,2.05A51.92,51.92,0,0,0,61.77,20.66Z"/><path class="cls-9" d="M26.09,13.14a135.41,135.41,0,0,1,25.33.2s-7.94,2.23-11.74,2.19S26.09,13.14,26.09,13.14Z"/></g></g></g></svg>