<svg xmlns="http://www.w3.org/2000/svg" xmlns:xlink="http://www.w3.org/1999/xlink" viewBox="0 0 79.64 27.22"><defs><style>.cls-1{isolation:isolate;}.cls-2{fill:#df87ec;mix-blend-mode:multiply;}.cls-3{fill:#ee7172;}.cls-4{fill:#9d1636;}.cls-5{fill:#57061c;}.cls-6{fill:url(#_920);}.cls-7{fill:url(#_920-2);}.cls-8{fill:#fffab6;opacity:0.5;mix-blend-mode:soft-light;}</style><linearGradient id="_920" y1="7.79" x2="9.52" y2="7.79" gradientUnits="userSpaceOnUse"><stop offset="0" stop-color="#9d1f31"/><stop offset="1" stop-color="#9d1f31"/></linearGradient><linearGradient id="_920-2" x1="69.64" y1="7.36" x2="79.64" y2="7.36" xlink:href="#_920"/></defs><g class="cls-1"><g id="Layer_2" data-name="Layer 2"><g id="Avatar_face" data-name="Avatar face"><path class="cls-2" d="M20.31,16.81S29,27.22,39.36,27.22,57.73,16.81,57.73,16.81,38.88,22.52,20.31,16.81Z"/><path class="cls-3" d="M39.36,8.42S24,7.87,11.65,13.91c0,0,13.2,7.22,27.71,7.22s27.72-7.22,27.72-7.22C54.76,7.87,39.36,8.42,39.36,8.42Z"/><path class="cls-4" d="M44,0a11.7,11.7,0,0,0-4.62,1.1A11.7,11.7,0,0,0,34.74,0C32.33,0,19.57,6,14.29,12.81c0,0,14.08-4.39,25.07-4.39s25.08,4.39,25.08,4.39C59.16,6,46.4,0,44,0Z"/><path class="cls-5" d="M4.13,7.58c.54.53,1.11,1.05,1.67,1.56s1.14,1,1.73,1.53,1.18,1,1.8,1.42a8.92,8.92,0,0,0,1.9,1.11,1.26,1.26,0,0,0,.38.1h.21l.28,0a8,8,0,0,0,1.11-.18,12.52,12.52,0,0,0,2.17-.77c1.44-.64,2.93-1.38,4.51-2A41.83,41.83,0,0,1,29.88,8c1.71-.2,3.42-.33,5.13-.41s3.43-.12,5.14-.1,3.42.08,5.13.19,3.43.27,5.13.54a38.74,38.74,0,0,1,9.86,2.73c1.53.65,3,1.42,4.41,1.91a7.55,7.55,0,0,0,2.2.44,2,2,0,0,0,.49,0,2.4,2.4,0,0,0,.5-.09,6.43,6.43,0,0,0,1-.36,22.57,22.57,0,0,0,4-2.38c1.26-.9,2.49-1.87,3.66-2.86l.34.23A39.18,39.18,0,0,1,73.57,11a21.41,21.41,0,0,1-4,2.78,7.1,7.1,0,0,1-1.25.52,4.75,4.75,0,0,1-.72.17,5.54,5.54,0,0,1-.78,0,9.49,9.49,0,0,1-2.73-.41,21.39,21.39,0,0,1-2.42-.87c-.77-.32-1.51-.63-2.26-.92C53.48,10,46.77,9.44,40.13,9.4a84.2,84.2,0,0,0-9.94.43,48.43,48.43,0,0,0-4.85.73,38.09,38.09,0,0,0-4.66,1.27c-1.52.51-3,1.16-4.54,1.78a14.87,14.87,0,0,1-2.55.75,9.1,9.1,0,0,1-1.38.15h-.78a3.08,3.08,0,0,1-.82-.24A9.49,9.49,0,0,1,8.5,12.83c-.6-.52-1.17-1.06-1.71-1.61a42,42,0,0,1-3-3.43Z"/><path class="cls-6" d="M9.52,4.51a20.08,20.08,0,0,0-9.08,7A4.94,4.94,0,0,1,1.87,5.58C5,3,9.52,4.51,9.52,4.51Z"/><path class="cls-7" d="M69.64,4.35a14.66,14.66,0,0,1,9.83,6.45,6.26,6.26,0,0,0-1.32-5.55C76,2.93,69.64,4.35,69.64,4.35Z"/><path class="cls-8" d="M59.14,16.56a3.6,3.6,0,0,0-3.28-3.16c-1.5-.24-7.26,1.79-9.18,2.38-2.42.74-.66,3.43-.66,3.43A62,62,0,0,0,59.14,16.56Z"/></g></g></g></svg>