<svg xmlns="http://www.w3.org/2000/svg" viewBox="0 0 77.95 38.26"><defs><style>.cls-1{isolation:isolate;}.cls-2{fill:#d177b8;opacity:0.6;mix-blend-mode:multiply;}.cls-3{fill:#ea336b;}.cls-4{fill:#842751;}.cls-5{fill:#bd336b;}.cls-6,.cls-8{fill:#ffe0ee;}.cls-7{fill:#dd6b7c;}.cls-8{mix-blend-mode:soft-light;}</style></defs><g class="cls-1"><g id="Layer_2" data-name="Layer 2"><g id="layer1"><path class="cls-2" d="M18.69,26.71S28.92,37.4,37.6,38.22,59.6,26,59.6,26,39.61,43.78,18.69,26.71Z"/><path class="cls-3" d="M4.82,5.89s9.66,28.73,33.91,28.73C63.83,34.62,72.64,6,72.64,6L39.19,19Z"/><path class="cls-4" d="M38.73,11.09A86.37,86.37,0,0,1,2.46,3.29s9.12,21.55,36.27,21.55C64.5,24.84,75,3.29,75,3.29A86.37,86.37,0,0,1,38.73,11.09Z"/><path class="cls-5" d="M53.92,5.48a125.52,125.52,0,0,0-30.38,0C15.12,6.72,4.82,4.35,4.82,4.35s15.73,7.37,33.91,6.74c18.19.63,33.91-6.74,33.91-6.74S62.35,6.72,53.92,5.48Z"/><path class="cls-6" d="M11,6.74s11.6,10.65,27,10.65S65.28,7.12,65.28,7.12a74.46,74.46,0,0,1-26.66,4.66A77.81,77.81,0,0,1,11,6.74Z"/><path class="cls-7" d="M71.16,1.22S76.85,4.59,78,7.74c0,0-.83-5.77-2.73-7.23S71.16,1.22,71.16,1.22Z"/><path class="cls-7" d="M6.79,1.22S1.11,4.59,0,7.74C0,7.74.83,2,2.74.51S6.79,1.22,6.79,1.22Z"/><path class="cls-8" d="M50,24.84a9.53,9.53,0,0,1,3.22,4l1.75-.9s.22-1.47-2.49-3.95Z"/><path class="cls-8" d="M53.45,24a4.64,4.64,0,0,1,2.31,3.5l.51-.57s-.57-2.56-2.6-2.93Z"/><path class="cls-6" d="M21.11,21.24s15,5.16,34.67,0C55.78,21.24,41.25,29.56,21.11,21.24Z"/></g></g></g></svg>