<svg xmlns="http://www.w3.org/2000/svg" xmlns:xlink="http://www.w3.org/1999/xlink" viewBox="0 0 74.49 23.38"><defs><style>.cls-1{isolation:isolate;}.cls-2{fill:#ff6563;}.cls-3{fill:url(#Gradient_8);}.cls-4{fill:#912c47;}.cls-5{fill:#d0478c;mix-blend-mode:multiply;opacity:0.3;}</style><linearGradient id="Gradient_8" x1="38.06" y1="17.39" x2="38.06" y2="7.4" gradientUnits="userSpaceOnUse"><stop offset="0.02" stop-color="#ff8d5b"/><stop offset="1" stop-color="#ff6f6b"/></linearGradient></defs><g class="cls-1"><g id="Layer_2" data-name="Layer 2"><g id="Layer_1-2" data-name="Layer 1"><path class="cls-2" d="M13.08,7.24a202,202,0,0,0,48.65,0,58.44,58.44,0,0,1-24.95,5.42A60.5,60.5,0,0,1,13.08,7.24Z"/><path class="cls-3" d="M63.72,7.4a42.38,42.38,0,0,1-11.21,6.86,38.75,38.75,0,0,1-14,3.12,38.48,38.48,0,0,1-15.73-3.12A38.89,38.89,0,0,1,12.4,8C29,13.61,42.94,14.66,63.72,7.4Z"/><path class="cls-4" d="M4.79,2.3C26.2,16.15,48,15.85,70.79,2.12c0,0,0-3.58,1.94-1.11,4.59,5.92-1.24,3.09-1.24,3.09C48.6,15.36,25.58,15.9,3.57,4.1c0,0-4.71,1.74-3.31-.58S4-.53,4.67.15C5.14.64,4.79,2.3,4.79,2.3Z"/><path class="cls-5" d="M52.51,14.26c-3.91,1.65-8.68,9-14,9.12-6,.16-11.38-7.31-15.73-9.12A75,75,0,0,0,52.51,14.26Z"/></g></g></g></svg>