<svg xmlns="http://www.w3.org/2000/svg" xmlns:xlink="http://www.w3.org/1999/xlink" viewBox="0 0 58.64 22.35"><defs><style>.cls-1{isolation:isolate;}.cls-2{fill:url(#Gradient_8);}.cls-3{fill:url(#Gradient_8-2);}.cls-4,.cls-5{fill:#d0478c;mix-blend-mode:multiply;}.cls-4{opacity:0.3;}.cls-5{opacity:0.5;}.cls-6{fill:#912c47;}.cls-7{fill:#ffd6ff;mix-blend-mode:soft-light;}</style><linearGradient id="Gradient_8" x1="28.83" y1="16.65" x2="28.83" y2="5.76" gradientUnits="userSpaceOnUse"><stop offset="0.02" stop-color="#ff8d5b"/><stop offset="1" stop-color="#ff6f6b"/></linearGradient><linearGradient id="Gradient_8-2" x1="7.12" y1="3.82" x2="49.45" y2="3.82" xlink:href="#Gradient_8"/></defs><g class="cls-1"><g id="Layer_2" data-name="Layer 2"><g id="Layer_1-2" data-name="Layer 1"><path class="cls-2" d="M50.29,7.89A30.11,30.11,0,0,1,44.81,12a30,30,0,0,1-16.66,4.6A32.8,32.8,0,0,1,11.87,12a17.8,17.8,0,0,1-4.5-3.75A88.46,88.46,0,0,1,23.94,5.82C33.4,5.31,50.29,7.89,50.29,7.89Z"/><path class="cls-3" d="M49.45,7l-19,.29L7.12,7.63l.79-.49a60.24,60.24,0,0,1,7.89-4A37.8,37.8,0,0,1,28.09,0C33-.23,38.19,1.4,42.19,3.14A49.22,49.22,0,0,1,49.45,7Z"/><path class="cls-4" d="M44.81,12c-3.92,2.39-9.74,10.59-16.66,10.32C20.49,22.05,15.2,14.1,11.87,12A48.94,48.94,0,0,0,44.81,12Z"/><path class="cls-5" d="M49.45,7l-19,.29L7.91,7.14a60.24,60.24,0,0,1,7.89-4c0,1.21,26.39,1.21,26.39,0A49.22,49.22,0,0,1,49.45,7Z"/><path class="cls-6" d="M0,8.87a94.54,94.54,0,0,1,58.64,0A315.55,315.55,0,0,0,0,8.87Z"/><path class="cls-7" d="M17,8.57c.05-.27,1.12-.2,7.58-.09s7.24.07,7.28.32c.08.53-3.7,2-7.87,1.88C20.28,10.54,16.93,9.08,17,8.57Z"/></g></g></g></svg>