<svg xmlns="http://www.w3.org/2000/svg" xmlns:xlink="http://www.w3.org/1999/xlink" viewBox="0 0 63.65 28.44"><defs><style>.cls-1{isolation:isolate;}.cls-2{fill:#df87ec;}.cls-2,.cls-7{mix-blend-mode:multiply;}.cls-3{fill:#ee7172;}.cls-4{fill:#9d1636;}.cls-5{fill:#822751;}.cls-6{fill:#57061c;}.cls-7{fill:#cf77b6;opacity:0.6;}.cls-8{fill:url(#_920);}.cls-9{fill:url(#_920-2);}.cls-10{fill:#fffab6;mix-blend-mode:soft-light;}</style><linearGradient id="_920" x1="57.98" y1="2.77" x2="63.65" y2="2.77" gradientUnits="userSpaceOnUse"><stop offset="0" stop-color="#9d1f31"/><stop offset="1" stop-color="#9d1f31"/></linearGradient><linearGradient id="_920-2" x1="0" y1="2.77" x2="5.67" y2="2.77" xlink:href="#_920"/></defs><g class="cls-1"><g id="Layer_2" data-name="Layer 2"><g id="Avatar_face" data-name="Avatar face"><path class="cls-2" d="M10.17,14s7.69,14.4,21.29,14.4,22-15.11,22-15.11S26.54,24.44,10.17,14Z"/><path class="cls-3" d="M4.49,4.56s7.57,20.31,27.09,20.31S58.42,4.56,58.42,4.56,49.75,10,31.59,9.3,4.49,4.56,4.49,4.56Z"/><path class="cls-4" d="M55.21,6.43s-.81.64-4.08,1.28A66.78,66.78,0,0,1,42.08,8.8c-11,.75-11.2,1.44-11.2,1.44A96.24,96.24,0,0,0,16.34,8.68a17.29,17.29,0,0,1-6-1.09A18.56,18.56,0,0,1,5.79,5.26,10.41,10.41,0,0,0,11,5.83C13.49,5.3,19.34.41,31.59.41S48.6,6.38,55.21,6.43Z"/><path class="cls-5" d="M3.15,3.19c-.21-.21-.41-.44-.63-.67A8.94,8.94,0,0,0,3.15,3.19Z"/><path class="cls-5" d="M60.65,2.52,60,3.19A7.41,7.41,0,0,0,60.65,2.52Z"/><path class="cls-6" d="M31.59,9.84C27.8,7.4,14.91,8.22,10.32,7.15a15.36,15.36,0,0,1-7.17-4C6.28,6.52,8.35,8.12,16.7,8.7a73.25,73.25,0,0,1,14.88,2.48h0A73.25,73.25,0,0,1,46.47,8.7C54.82,8.12,56.89,6.52,60,3.19a15.41,15.41,0,0,1-7.18,4C48.26,8.22,35.37,7.4,31.59,9.84Z"/><path class="cls-7" d="M55.21,6.43s-.81.64-4.08,1.28l-1.3-.14S41.63.67,30.49.87c-10.32.19-19,5.88-20.17,6.72A18.56,18.56,0,0,1,5.79,5.26,10.41,10.41,0,0,0,11,5.83C13.49,5.3,19.34.41,31.59.41S48.6,6.38,55.21,6.43Z"/><path class="cls-8" d="M58,.85a12.28,12.28,0,0,1,5.64,4.69s.36-3-1.26-4.77S58,.85,58,.85Z"/><path class="cls-9" d="M5.67.85A12.28,12.28,0,0,0,0,5.54S-.33,2.52,1.3.77,5.67.85,5.67.85Z"/><path class="cls-10" d="M38.71,13.23s3.26,2.62,4.06,5.1l3-2a22.53,22.53,0,0,0-3.54-4.4Z"/><path class="cls-10" d="M43.47,11.49a17.87,17.87,0,0,1,3,4.43l.54-.81a10.13,10.13,0,0,0-2.46-4Z"/></g></g></g></svg>