<svg xmlns="http://www.w3.org/2000/svg" xmlns:xlink="http://www.w3.org/1999/xlink" viewBox="0 0 62.95 33.22"><defs><style>.cls-1{isolation:isolate;}.cls-2{fill:#df87ec;}.cls-2,.cls-7{mix-blend-mode:multiply;}.cls-3{fill:#ee7172;}.cls-4{fill:#57061c;}.cls-5{fill:#8f2a39;}.cls-6{fill:#ffdeec;}.cls-7{opacity:0.6;fill:url(#_137);}.cls-8{fill:url(#_920);}.cls-9{fill:url(#_920-2);}.cls-10{fill:#fffab6;mix-blend-mode:soft-light;}</style><radialGradient id="_137" cx="229.54" cy="11.48" r="19.75" gradientTransform="translate(-168.36) scale(0.87 1)" gradientUnits="userSpaceOnUse"><stop offset="0" stop-color="#ffe8d9"/><stop offset="0.99" stop-color="#cf77f2"/></radialGradient><linearGradient id="_920" x1="57.69" y1="3.52" x2="62.95" y2="3.52" gradientUnits="userSpaceOnUse"><stop offset="0" stop-color="#9d1f31"/><stop offset="1" stop-color="#9d1f31"/></linearGradient><linearGradient id="_920-2" x1="0" y1="3.52" x2="5.26" y2="3.52" xlink:href="#_920"/></defs><g class="cls-1"><g id="Layer_2" data-name="Layer 2"><g id="Avatar_face" data-name="Avatar face"><path class="cls-2" d="M13.46,22.88S23,33.19,30.23,33.22C39.34,33.26,49,22.57,49,22.57S30.4,37.72,13.46,22.88Z"/><path class="cls-3" d="M3.16,4.75s6.93,25.9,28,25.9c20.64,0,28-25.81,28-25.81L31.53,17.17Z"/><path class="cls-4" d="M31.16,9.69A63.82,63.82,0,0,1,1.22,2.27S10.09,23,31.16,23C49.57,23,61.1,2.27,61.1,2.27S47.7,10,31.16,9.69Z"/><path class="cls-5" d="M43.69,5.49a37.3,37.3,0,0,0-12.53,0,37.35,37.35,0,0,0-12.54,0c-7,1.18-15.46-2.21-15.46-2.21s13,7,28,6.41c15,.6,28-6.41,28-6.41S50.65,6.67,43.69,5.49Z"/><path class="cls-6" d="M6.43,4.75,8.81,10.8s9.72,10.93,22.4,10.93,22.4-12,22.4-12l2.2-5S44,10.35,31.06,10.35,6.43,4.75,6.43,4.75Z"/><path class="cls-7" d="M7.52,7.51s10.85,9,23.6,9,23.47-9,23.47-9l.36-.8S43.8,16.15,31.21,16.15s-24-9.65-24-9.65Z"/><path class="cls-8" d="M57.69,1.13A11.82,11.82,0,0,1,62.85,7S63.5,1.67,61.53.42,57.69,1.13,57.69,1.13Z"/><path class="cls-9" d="M5.26,1.13A11.82,11.82,0,0,0,.1,7S-.55,1.67,1.42.42,5.26,1.13,5.26,1.13Z"/><path class="cls-10" d="M40,22.57a8.76,8.76,0,0,1,2.24,2.77l1.16-1.19a7,7,0,0,0-2.55-2.42Z"/><path class="cls-10" d="M41.26,21.49s1.41.22,2.68,2.33l.43-.58a3.57,3.57,0,0,0-2.13-2.1Z"/></g></g></g></svg>