<svg xmlns="http://www.w3.org/2000/svg" viewBox="0 0 78.4 26.4"><defs><style>.cls-1{isolation:isolate;}.cls-2{fill:#d177b8;opacity:0.6;mix-blend-mode:multiply;}.cls-3{fill:#ff6563;}.cls-4{fill:#842751;}.cls-5{fill:#dc3f57;}.cls-6{fill:#e5c7ff;}</style></defs><g class="cls-1"><g id="Layer_2" data-name="Layer 2"><g id="layer1"><path class="cls-2" d="M7.31,10s5.44,11.74,14,15.35,15.11-2.59,25-7.68c0,0-13.67,2.75-23.68-.86A94.17,94.17,0,0,1,7.31,10Z"/><path class="cls-3" d="M3.47,2.38S15,33.46,38.26,21.74C64.74,8.39,74,3,74,3s-12.65,9.38-35.28,9.38S3.47,2.38,3.47,2.38Z"/><path class="cls-4" d="M0,0S17.75,13.73,38.2,13.73,78.4.67,78.4.67,63.24,9.79,36.76,10.3C14.66,10.73,0,0,0,0Z"/><path class="cls-2" d="M58.25,6.28A75.81,75.81,0,0,0,74,3a1,1,0,0,1-.31.17l-.56.31c-.24.14-.53.28-.85.43a23.07,23.07,0,0,1-5.44,1.87,46.88,46.88,0,0,1-8.62.54Z"/><path class="cls-2" d="M23.1,6.48a36.67,36.67,0,0,1-7.81-.17A25.92,25.92,0,0,1,7.08,3.88c-.19-.09-.37-.17-.52-.26l-.79-.41L5.36,3a0,0,0,0,0,0,0h0A76.56,76.56,0,0,0,23.1,6.48Z"/><path class="cls-5" d="M5.32,3c5.2,2.53,21.07-.61,34.35-.71C51.46,2.15,61.18,6.31,74,3a112.68,112.68,0,0,1-37.53,8.32C16.56,12.28,5.32,3,5.32,3Z"/><path class="cls-2" d="M38.2,13.73a99.21,99.21,0,0,0,19.21-1.8C66,10,69.19,5.85,69.19,5.85A101.14,101.14,0,0,1,38.2,13.73Z"/><path class="cls-6" d="M31.51,12s11.77,2,20.12.35S68.1,5.22,68.1,5.22,49.12,12,31.51,12Z"/></g></g></g></svg>