<svg xmlns="http://www.w3.org/2000/svg" xmlns:xlink="http://www.w3.org/1999/xlink" viewBox="0 0 63.31 31.07"><defs><style>.cls-1{isolation:isolate;}.cls-2{fill:#df87ec;mix-blend-mode:multiply;}.cls-3{fill:#b04565;}.cls-4{fill:#57061c;}.cls-5{fill:#7a1a42;}.cls-6,.cls-9{fill:#ffdeec;}.cls-7{fill:url(#_920);}.cls-8{fill:url(#_920-2);}.cls-9{mix-blend-mode:soft-light;}</style><linearGradient id="_920" x1="57.79" y1="3.14" x2="63.31" y2="3.14" gradientUnits="userSpaceOnUse"><stop offset="0" stop-color="#9d1f31"/><stop offset="1" stop-color="#9d1f31"/></linearGradient><linearGradient id="_920-2" x1="0" y1="3.14" x2="5.52" y2="3.14" xlink:href="#_920"/></defs><g class="cls-1"><g id="Layer_2" data-name="Layer 2"><g id="Avatar_face" data-name="Avatar face"><path class="cls-2" d="M15.18,21.69s8.3,8.68,15.36,9.35,17.86-9.9,17.86-9.9S32.17,35.56,15.18,21.69Z"/><path class="cls-3" d="M3.91,4.78s7.85,23.34,27.54,23.34C51.83,28.12,59,4.86,59,4.86L31.83,15.4Z"/><path class="cls-4" d="M31.45,9A70.19,70.19,0,0,1,2,2.67s7.4,17.5,29.45,17.5c20.93,0,29.46-17.5,29.46-17.5A70.21,70.21,0,0,1,31.45,9Z"/><path class="cls-5" d="M43.79,4.45a101.81,101.81,0,0,0-24.67,0c-6.84,1-15.21-.92-15.21-.92A67.13,67.13,0,0,0,31.45,9,67.08,67.08,0,0,0,59,3.53S50.63,5.45,43.79,4.45Z"/><path class="cls-6" d="M9,5.48s9.42,8.64,21.89,8.64S53,5.78,53,5.78A60.48,60.48,0,0,1,31.36,9.57,63.17,63.17,0,0,1,9,5.48Z"/><path class="cls-7" d="M57.79,1s4.62,2.74,5.52,5.29c0,0-.68-4.68-2.23-5.87S57.79,1,57.79,1Z"/><path class="cls-8" d="M5.52,1S.9,3.73,0,6.28C0,6.28.67,1.6,2.22.41S5.52,1,5.52,1Z"/><path class="cls-9" d="M40.6,20.17a7.77,7.77,0,0,1,2.62,3.24l1.42-.73s.18-1.19-2-3.21Z"/><path class="cls-9" d="M43.4,19.47a3.75,3.75,0,0,1,1.88,2.84l.41-.45s-.45-2.09-2.1-2.39Z"/><path class="cls-6" d="M17.15,17.25s12.17,4.19,28.15,0C45.3,17.25,33.5,24,17.15,17.25Z"/></g></g></g></svg>