<svg xmlns="http://www.w3.org/2000/svg" viewBox="0 0 68.6 30.65"><defs><style>.cls-1{isolation:isolate;}.cls-2{fill:#d177b8;opacity:0.6;mix-blend-mode:multiply;}.cls-3{fill:#ff6563;}.cls-4{fill:#dc3f57;}.cls-5{fill:#842751;}.cls-6{fill:#dd6b7c;}.cls-7{fill:#fffcb8;mix-blend-mode:soft-light;}</style></defs><g class="cls-1"><g id="Layer_2" data-name="Layer 2"><g id="layer1"><path class="cls-2" d="M11,15.14S19.25,30.65,33.9,30.65,57.58,14.36,57.58,14.36,28.6,26.34,11,15.14Z"/><path class="cls-3" d="M4.84,4.91S13,26.8,34,26.8,63,4.91,63,4.91,53.62,10.82,34.05,10,4.84,4.91,4.84,4.91Z"/><path class="cls-4" d="M59.5,6.93s-.87.69-4.39,1.38a74,74,0,0,1-9.76,1.18C33.44,10.29,33.28,11,33.28,11A104.08,104.08,0,0,0,17.61,9.35a18.88,18.88,0,0,1-6.49-1.17A19.73,19.73,0,0,1,6.24,5.66a11,11,0,0,0,5.59.62C14.54,5.71,20.84.44,34,.44S52.38,6.87,59.5,6.93Z"/><path class="cls-5" d="M3.39,3.44l-.67-.72A8.63,8.63,0,0,0,3.39,3.44Z"/><path class="cls-5" d="M65.37,2.72l-.68.72C65.13,3,65.37,2.72,65.37,2.72Z"/><path class="cls-5" d="M34,10.61C30,8,16.07,8.86,11.13,7.71A16.58,16.58,0,0,1,3.39,3.44C6.77,7,9,8.75,18,9.38a78.56,78.56,0,0,1,16,2.67h0a78.56,78.56,0,0,1,16-2.67c9-.63,11.22-2.35,14.6-5.94A16.53,16.53,0,0,1,57,7.71C52,8.86,38.12,8,34,10.61Z"/><path class="cls-2" d="M59.5,6.93s-.87.69-4.39,1.38L53.7,8.16S44.87.72,32.86.94c-11.12.2-20.43,6.34-21.74,7.24A19.73,19.73,0,0,1,6.24,5.66a11,11,0,0,0,5.59.62C14.54,5.71,20.84.44,34,.44S52.38,6.87,59.5,6.93Z"/><path class="cls-6" d="M62.49.92A13.25,13.25,0,0,1,68.56,6S69,2.72,67.21.83,62.49.92,62.49.92Z"/><path class="cls-6" d="M6.11.92A13.25,13.25,0,0,0,0,6S-.35,2.72,1.4.83,6.11.92,6.11.92Z"/><path class="cls-7" d="M41.72,14.26s3.51,2.82,4.38,5.49l3.25-2.19a24.47,24.47,0,0,0-3.82-4.75Z"/><path class="cls-7" d="M46.84,12.38a19.09,19.09,0,0,1,3.29,4.77l.58-.87A10.94,10.94,0,0,0,48.06,12Z"/></g></g></g></svg>