<svg xmlns="http://www.w3.org/2000/svg" xmlns:xlink="http://www.w3.org/1999/xlink" viewBox="0 0 156.58 26.72"><defs><style>.cls-1{isolation:isolate;}.cls-2{fill:url(#_102);}.cls-3{fill:#ce77b5;mix-blend-mode:multiply;}.cls-4{fill:url(#_102-2);}.cls-5{fill:url(#_102-3);}.cls-6{fill:url(#_102-4);}</style><linearGradient id="_102" y1="13.64" x2="64.52" y2="13.64" gradientUnits="userSpaceOnUse"><stop offset="0.01" stop-color="#f25259"/><stop offset="1" stop-color="#a73646"/></linearGradient><linearGradient id="_102-2" x1="65.66" y1="13.3" x2="65.66" y2="0" xlink:href="#_102"/><linearGradient id="_102-3" x1="1042.29" y1="13.64" x2="1106.81" y2="13.64" gradientTransform="matrix(-1, 0, 0, 1, 1198.87, 0)" xlink:href="#_102"/><linearGradient id="_102-4" x1="1107.95" y1="13.3" x2="1107.95" y2="0" gradientTransform="matrix(-1, 0, 0, 1, 1198.87, 0)" xlink:href="#_102"/></defs><g class="cls-1"><g id="Layer_2" data-name="Layer 2"><g id="Layer_1-2" data-name="Layer 1"><path class="cls-2" d="M64.52,5.94h0c0,4.33-1.71,10-10,11.64-14.14,2.86-32.95,0-39.82,1.36S0,26.72,0,26.72s2.34-8.47,8.93-13.39a16.75,16.75,0,0,1,3.39-2c3.75-1.67,10.07-2.45,16.8-3h0l2.44-.19,3.16-.21c8-.54,15.76-1,19.59-2.33a49.62,49.62,0,0,0,9.34-5A18.14,18.14,0,0,1,64.52,5.94Z"/><path class="cls-3" d="M64.52,6c0,4.33-1.71,10-10,11.64-14.14,2.86-32.95,0-39.82,1.36S0,26.72,0,26.72s2.34-8.47,8.93-13.39c-3.1,3.24-4.75,8.8-4.75,8.8a58,58,0,0,1,9.17-5.66c5.77-2.95,23.54-1.36,23.54-1.36L29.12,8.33h0L39.05,15,31.6,8.14l3.16-.21L42.44,15s4.42.56,13.13-1.7C62.06,11.61,64,7.79,64.52,6Z"/><path class="cls-4" d="M65,0a25.75,25.75,0,0,1-.74,13.3s2.86-3.9,2.86-7.24A11,11,0,0,0,65,0Z"/><path class="cls-5" d="M92.06,5.94h0c0,4.33,1.71,10,10,11.64,14.14,2.86,33,0,39.82,1.36s14.66,7.77,14.66,7.77-2.34-8.47-8.93-13.39a16.75,16.75,0,0,0-3.39-2c-3.75-1.67-10.07-2.45-16.8-3h0L125,8.14l-3.16-.21c-8-.54-15.76-1-19.59-2.33a49.62,49.62,0,0,1-9.34-5A18.14,18.14,0,0,0,92.06,5.94Z"/><path class="cls-3" d="M92.06,6c0,4.33,1.71,10,10,11.64,14.14,2.86,33,0,39.82,1.36s14.66,7.77,14.66,7.77-2.34-8.47-8.93-13.39c3.1,3.24,4.75,8.8,4.75,8.8a58,58,0,0,0-9.17-5.66c-5.77-2.95-23.54-1.36-23.54-1.36l7.77-6.78h0L117.53,15,125,8.14l-3.16-.21L114.14,15s-4.42.56-13.13-1.7C94.52,11.61,92.61,7.79,92.06,6Z"/><path class="cls-6" d="M91.61,0a26,26,0,0,0,.74,13.3s-2.86-3.9-2.86-7.24A11,11,0,0,1,91.61,0Z"/></g></g></g></svg>