<svg xmlns="http://www.w3.org/2000/svg" xmlns:xlink="http://www.w3.org/1999/xlink" viewBox="0 0 156.72 35.06"><defs><style>.cls-1{fill:url(#Áåçûìÿííûé_ãðàäèåíò_27);}.cls-2{fill:url(#Áåçûìÿííûé_ãðàäèåíò_27-2);}.cls-3{fill:url(#Áåçûìÿííûé_ãðàäèåíò_27-3);}.cls-4{fill:url(#Áåçûìÿííûé_ãðàäèåíò_27-4);}</style><linearGradient id="Áåçûìÿííûé_ãðàäèåíò_27" x1="117.28" y1="31.91" x2="182.27" y2="31.91" gradientTransform="translate(-23.41 -20.25) rotate(2.37)" gradientUnits="userSpaceOnUse"><stop offset="0" stop-color="#751540"/><stop offset="1" stop-color="#a93749"/></linearGradient><linearGradient id="Áåçûìÿííûé_ãðàäèåíò_27-2" x1="114.72" y1="23.86" x2="120.81" y2="23.86" xlink:href="#Áåçûìÿííûé_ãðàäèåíò_27"/><linearGradient id="Áåçûìÿííûé_ãðàäèåíò_27-3" x1="749.12" y1="5.79" x2="814.11" y2="5.79" gradientTransform="matrix(-1, 0.04, 0.04, 1, 812.48, -20.25)" xlink:href="#Áåçûìÿííûé_ãðàäèåíò_27"/><linearGradient id="Áåçûìÿííûé_ãðàäèåíò_27-4" x1="746.57" y1="-2.26" x2="752.65" y2="-2.26" gradientTransform="matrix(-1, 0.04, 0.04, 1, 812.48, -20.25)" xlink:href="#Áåçûìÿííûé_ãðàäèåíò_27"/></defs><g id="Layer_2" data-name="Layer 2"><g id="layer1"><path class="cls-1" d="M93.11.59s1.48,11,2.85,16.33c0,0,6.51,5.4,25.22,6.87s21.61,1.29,25.51,2.64,10,8.63,10,8.63S151,21.53,146.51,17.14l1.37,2.7s-2.75-1.65-5-2.66-25.15-4.75-35.47-8.68C101.67,6.32,93.11.59,93.11.59Z"/><path class="cls-2" d="M96,16.92S90.71,5.32,90.57,0l1.22.05S94.91,14.6,96,16.92Z"/><path class="cls-3" d="M63.62.59s-1.49,11-2.86,16.33c0,0-6.51,5.4-25.22,6.87S13.93,25.08,10,26.43,0,35.06,0,35.06,5.69,21.53,10.22,17.14l-1.38,2.7s2.75-1.65,5-2.66S39,12.43,49.31,8.5C55.06,6.32,63.62.59,63.62.59Z"/><path class="cls-4" d="M60.76,16.92S66,5.32,66.15,0L64.94.05S61.81,14.6,60.76,16.92Z"/></g></g></svg>