<svg xmlns="http://www.w3.org/2000/svg" xmlns:xlink="http://www.w3.org/1999/xlink" viewBox="0 0 159.28 23.33"><defs><style>.cls-1{isolation:isolate;}.cls-2{fill:url(#_474);}.cls-3{fill:#cf77b6;opacity:0.6;mix-blend-mode:multiply;}.cls-4{fill:url(#_474-2);}</style><linearGradient id="_474" x1="30.19" y1="-1.45" x2="30.19" y2="28.59" gradientUnits="userSpaceOnUse"><stop offset="0" stop-color="#721e24"/><stop offset="1" stop-color="#510036"/></linearGradient><linearGradient id="_474-2" x1="-9487.23" y1="-1.45" x2="-9487.23" y2="28.59" gradientTransform="matrix(-1, 0, 0, 1, -9358.14, 0)" xlink:href="#_474"/></defs><g class="cls-1"><g id="Layer_2" data-name="Layer 2"><g id="Avatar_face" data-name="Avatar face"><path class="cls-2" d="M58.57,23.29a55.93,55.93,0,0,1-14-1.24,32.48,32.48,0,0,1-6.67-2.23c-8.83-4.15-10.56-6.4-18-7.61S0,12.21,0,12.21a48.63,48.63,0,0,1,6-9A13.45,13.45,0,0,1,9.35.26l-1,2.22C8.51,2.15,10.59-.89,24.39.26,39,1.47,56.28,8.4,56.28,8.4l1.21,8.83a10.28,10.28,0,0,0,1.9-5A11.85,11.85,0,0,1,58.57,23.29Z"/><path class="cls-3" d="M44.59,22.05a32.48,32.48,0,0,1-6.67-2.23c-8.83-4.15-10.56-6.4-18-7.61S0,12.21,0,12.21a48.63,48.63,0,0,1,6-9c4.77-.2,11.6.34,17.83,4,0,0-.41-2.1-4.23-4.59,0,0,12.29-.3,25,19.46Z"/><path class="cls-4" d="M100.7,23.29a55.91,55.91,0,0,0,14-1.24,32.48,32.48,0,0,0,6.67-2.23c8.84-4.15,10.57-6.4,18-7.61s19.92,0,19.92,0a48.36,48.36,0,0,0-6-9,13.42,13.42,0,0,0-3.37-2.9l1,2.22c-.18-.33-2.27-3.37-16.06-2.22C120.32,1.47,103,8.4,103,8.4l-1.21,8.83a10.34,10.34,0,0,1-1.91-5A11.88,11.88,0,0,0,100.7,23.29Z"/><path class="cls-3" d="M114.68,22.05a32.48,32.48,0,0,0,6.67-2.23c8.84-4.15,10.57-6.4,18-7.61s19.92,0,19.92,0a48.36,48.36,0,0,0-6-9c-4.76-.2-11.6.34-17.83,4,0,0,.42-2.1,4.24-4.59,0,0-12.29-.3-25,19.46Z"/></g></g></g></svg>