<svg xmlns="http://www.w3.org/2000/svg" xmlns:xlink="http://www.w3.org/1999/xlink" viewBox="0 0 144.92 26.25"><defs><style>.cls-1{isolation:isolate;}.cls-2{fill:url(#Áåçûìÿííûé_ãðàäèåíò_67);}.cls-3{fill:url(#Áåçûìÿííûé_ãðàäèåíò_67-2);}.cls-4{fill:url(#Áåçûìÿííûé_ãðàäèåíò_67-3);}.cls-10,.cls-11,.cls-5,.cls-6{mix-blend-mode:multiply;}.cls-5{fill:url(#Áåçûìÿííûé_ãðàäèåíò_6);}.cls-6{fill:url(#Áåçûìÿííûé_ãðàäèåíò_6-2);}.cls-7{fill:url(#Áåçûìÿííûé_ãðàäèåíò_67-4);}.cls-8{fill:url(#Áåçûìÿííûé_ãðàäèåíò_67-5);}.cls-9{fill:url(#Áåçûìÿííûé_ãðàäèåíò_67-6);}.cls-10{fill:url(#Áåçûìÿííûé_ãðàäèåíò_6-3);}.cls-11{fill:url(#Áåçûìÿííûé_ãðàäèåíò_6-4);}</style><linearGradient id="Áåçûìÿííûé_ãðàäèåíò_67" x1="17.13" y1="-1.33" x2="72.39" y2="-1.33" gradientTransform="matrix(0.91, -0.42, 0.42, 0.91, -15.41, 33.73)" gradientUnits="userSpaceOnUse"><stop offset="0.01" stop-color="#592227"/><stop offset="1" stop-color="#3e1827"/></linearGradient><linearGradient id="Áåçûìÿííûé_ãðàäèåíò_67-2" x1="66.29" y1="5.24" x2="62.83" y2="19.28" gradientTransform="translate(-12.52 11.13) rotate(-13.85)" xlink:href="#Áåçûìÿííûé_ãðàäèåíò_67"/><linearGradient id="Áåçûìÿííûé_ãðàäèåíò_67-3" x1="68.55" y1="8.13" x2="65.72" y2="19.59" gradientTransform="translate(-12.52 11.13) rotate(-13.85)" xlink:href="#Áåçûìÿííûé_ãðàäèåíò_67"/><linearGradient id="Áåçûìÿííûé_ãðàäèåíò_6" x1="62.45" y1="-1.4" x2="62.7" y2="-1.35" gradientTransform="matrix(0.91, -0.42, 0.42, 0.91, -15.41, 33.73)" gradientUnits="userSpaceOnUse"><stop offset="0.01" stop-color="#a66dad"/><stop offset="0.98" stop-color="#d9a0b8"/></linearGradient><linearGradient id="Áåçûìÿííûé_ãðàäèåíò_6-2" x1="18.62" y1="-7.92" x2="73.75" y2="2.89" xlink:href="#Áåçûìÿííûé_ãðàäèåíò_6"/><linearGradient id="Áåçûìÿííûé_ãðàäèåíò_67-4" x1="206.31" y1="26.05" x2="261.56" y2="26.05" gradientTransform="matrix(-0.91, -0.42, -0.42, 0.91, 343.28, 88.91)" xlink:href="#Áåçûìÿííûé_ãðàäèåíò_67"/><linearGradient id="Áåçûìÿííûé_ãðàäèåíò_67-5" x1="257.96" y1="-3.73" x2="254.47" y2="10.28" gradientTransform="matrix(-0.97, -0.24, -0.24, 0.97, 341.29, 65.96)" xlink:href="#Áåçûìÿííûé_ãðàäèåíò_67"/><linearGradient id="Áåçûìÿííûé_ãðàäèåíò_67-6" x1="260.22" y1="-0.85" x2="257.37" y2="10.59" gradientTransform="matrix(-0.97, -0.24, -0.24, 0.97, 341.29, 65.96)" xlink:href="#Áåçûìÿííûé_ãðàäèåíò_67"/><linearGradient id="Áåçûìÿííûé_ãðàäèåíò_6-3" x1="251.63" y1="25.98" x2="251.88" y2="26.03" gradientTransform="matrix(-0.91, -0.42, -0.42, 0.91, 343.28, 88.91)" xlink:href="#Áåçûìÿííûé_ãðàäèåíò_6"/><linearGradient id="Áåçûìÿííûé_ãðàäèåíò_6-4" x1="207.8" y1="19.46" x2="262.93" y2="30.26" gradientTransform="matrix(-0.91, -0.42, -0.42, 0.91, 343.28, 88.91)" xlink:href="#Áåçûìÿííûé_ãðàäèåíò_6"/></defs><g class="cls-1"><g id="Layer_2" data-name="Layer 2"><g id="Layer_1-2" data-name="Layer 1"><path class="cls-2" d="M54.76,13.76C31.48,7.73,12.81,11.06,0,26.25a20.63,20.63,0,0,1,2.6-7h0c.21-.38.45-.75.7-1.12A10.14,10.14,0,0,1,10.45,14a16.3,16.3,0,0,0-3.11.38h0a11.41,11.41,0,0,0-2.85,1.08S9,6.65,17.78,2.69,31.34.36,34.91,2.1a26.54,26.54,0,0,1,5.41,3.62l.26.22.34.3.09.08A15.28,15.28,0,0,0,34.92.59s0,0,0,0c.48,0,8.21-.55,10.59.41C48.64,2.23,53.92,9.32,54.76,13.76Z"/><path class="cls-3" d="M55.83,14.26l1.35.55c-.72-8-4.4-11.33-8.18-14.46A60.24,60.24,0,0,1,55.83,14.26Z"/><path class="cls-4" d="M53.61,2.62c-.16.15,1.54,1.94,2.85,5.19,1.49,3.68,1.3,6.6,1.52,6.6s.92-3.45-.51-6.93C56.18,4.35,53.78,2.46,53.61,2.62Z"/><path class="cls-5" d="M40.58,5.94l.34.3Z"/><path class="cls-6" d="M54.76,13.76C31.48,7.73,12.81,11.06,0,26.25a40.43,40.43,0,0,1,9.12-9.52c-2.19-.3-4.36.68-6.51,2.56.21-.38.45-.75.7-1.12A10.14,10.14,0,0,1,10.45,14l3.06-.08C21.34,9.7,31,8.23,42.67,9.7A13.67,13.67,0,0,0,41,6.35l0,0A15.28,15.28,0,0,0,34.92.59s0,0,0,0c5.71.6,9.27,4.18,11.66,9.37,1.47-2.72,1.3-5.68-1.07-9C48.64,2.23,53.92,9.32,54.76,13.76Z"/><path class="cls-7" d="M90.18,13.46c23.29-6,41.95-2.61,54.74,12.6a20.81,20.81,0,0,0-2.59-7h0c-.21-.38-.45-.76-.7-1.13a10.14,10.14,0,0,0-7.13-4.17,15.38,15.38,0,0,1,3.1.39h.06a12,12,0,0,1,2.85,1.08S136,6.45,127.19,2.47,113.63.11,110.06,1.85a26.46,26.46,0,0,0-5.42,3.6l-.26.22L104,6l-.09.08a15.19,15.19,0,0,1,6.1-5.71s0,0,0,0c-.48,0-8.2-.58-10.58.38C96.32,2,91,9,90.18,13.46Z"/><path class="cls-8" d="M89.11,14l-1.35.54c.73-8,4.42-11.31,8.21-14.44A60.17,60.17,0,0,0,89.11,14Z"/><path class="cls-9" d="M91.36,2.32c.16.15-1.55,1.94-2.87,5.19C87,11.19,87.18,14.1,87,14.11s-.91-3.46.52-6.93C88.78,4.05,91.18,2.17,91.36,2.32Z"/><path class="cls-10" d="M104.38,5.67,104,6Z"/><path class="cls-11" d="M90.18,13.46c23.29-6,41.95-2.61,54.74,12.6a41,41,0,0,0-9.1-9.54c2.19-.29,4.35.69,6.5,2.58-.21-.38-.45-.76-.7-1.13a10.14,10.14,0,0,0-7.13-4.17l-3.06-.08C123.61,9.47,114,8,102.28,9.42a13.51,13.51,0,0,1,1.64-3.34l0,0a15.19,15.19,0,0,1,6.1-5.71s0,0,0,0c-5.7.58-9.27,4.15-11.67,9.34C96.88,7,97.06,4,99.44.72,96.32,2,91,9,90.18,13.46Z"/></g></g></g></svg>