<svg xmlns="http://www.w3.org/2000/svg" xmlns:xlink="http://www.w3.org/1999/xlink" viewBox="0 0 146.46 32.77"><defs><style>.cls-1{fill:url(#_69);}.cls-2{fill:url(#_69-2);}.cls-3{fill:url(#_69-3);}.cls-4{fill:url(#_69-4);}</style><linearGradient id="_69" x1="87.01" y1="16.66" x2="146.46" y2="16.66" gradientUnits="userSpaceOnUse"><stop offset="0" stop-color="#471f4b"/><stop offset="1" stop-color="#310a39"/></linearGradient><linearGradient id="_69-2" x1="84.64" y1="7.9" x2="89.68" y2="7.9" xlink:href="#_69"/><linearGradient id="_69-3" x1="0" y1="16.66" x2="59.45" y2="16.66" xlink:href="#_69"/><linearGradient id="_69-4" x1="56.79" y1="7.9" x2="61.82" y2="7.9" xlink:href="#_69"/></defs><g id="Layer_2" data-name="Layer 2"><g id="Avatar_face" data-name="Avatar face"><path class="cls-1" d="M87,.55s1.39,10.28,2.67,15.26c0,0,6.08,5,23.57,6.42s20.2,1.21,23.84,2.47,9.37,8.07,9.37,8.07S141.15,20.12,136.92,16l1.28,2.52s-2.57-1.54-4.68-2.48S110,11.62,100.38,8C95,5.9,87,.55,87,.55Z"/><path class="cls-2" d="M89.68,15.81S84.77,5,84.64,0l1.14.05S88.7,13.64,89.68,15.81Z"/><path class="cls-3" d="M59.45.55s-1.39,10.28-2.66,15.26c0,0-6.09,5-23.57,6.42S13,23.44,9.37,24.7,0,32.77,0,32.77,5.32,20.12,9.55,16L8.26,18.54s2.57-1.54,4.68-2.48S36.44,11.62,46.08,8C51.45,5.9,59.45.55,59.45.55Z"/><path class="cls-4" d="M56.79,15.81S61.69,5,61.82,0L60.69.05S57.77,13.64,56.79,15.81Z"/></g></g></svg>