<svg xmlns="http://www.w3.org/2000/svg" xmlns:xlink="http://www.w3.org/1999/xlink" viewBox="0 0 150.69 22.46"><defs><style>.cls-1{isolation:isolate;}.cls-2{fill:url(#_770);}.cls-3{fill:#cf478b;mix-blend-mode:multiply;}.cls-4{fill:url(#_770-2);}</style><linearGradient id="_770" x1="427.01" y1="-416.52" x2="427.01" y2="-399.13" gradientTransform="matrix(0.99, 0.15, -0.15, 0.99, -360.38, 349.71)" gradientUnits="userSpaceOnUse"><stop offset="0" stop-color="#6a1424"/><stop offset="1" stop-color="#2e002c"/></linearGradient><linearGradient id="_770-2" x1="-410.3" y1="482.87" x2="-410.3" y2="500.48" gradientTransform="matrix(0.98, -0.18, 0.18, 0.98, 342.63, -544.89)" xlink:href="#_770"/></defs><g class="cls-1"><g id="Layer_2" data-name="Layer 2"><g id="Avatar_face" data-name="Avatar face"><path class="cls-2" d="M150.69,22.27s-14.18-5-25.79-6.09a123.86,123.86,0,0,0-12.84-.36c-7.84.13-14.49.74-14.49.74a16.85,16.85,0,0,1,.07-14.35,9.84,9.84,0,0,1,8.7-1.64c-3,3-5.37,9.69-5.37,9.69a45.84,45.84,0,0,1,11-9.09s16,3.52,26,6.74c3.51,1.13,6.27,2.22,7.34,3.11C149.36,14.43,150.69,22.27,150.69,22.27Z"/><path class="cls-3" d="M150.69,22.27s-14.18-5-25.79-6.09a123.86,123.86,0,0,0-12.84-.36c16.18-4.43,27.36-3.41,28.62-3.17,3,.57-2.74-4.74-2.74-4.74,3.51,1.13,6.27,2.22,7.34,3.11C149.36,14.43,150.69,22.27,150.69,22.27Z"/><path class="cls-4" d="M0,22.46s14.14-5.14,25.74-6.29a123.47,123.47,0,0,1,12.83-.48c7.84.07,14.5.63,14.5.63A16.85,16.85,0,0,0,52.88,2,9.85,9.85,0,0,0,44.17.4c3,3,5.45,9.65,5.45,9.65a45.76,45.76,0,0,0-11-9S22.6,4.7,12.64,8c-3.51,1.16-6.26,2.27-7.32,3.17C1.26,14.61,0,22.46,0,22.46Z"/><path class="cls-3" d="M0,22.46s14.14-5.14,25.74-6.29a123.47,123.47,0,0,1,12.83-.48C22.36,11.4,11.19,12.51,9.93,12.76,7,13.35,12.64,8,12.64,8c-3.51,1.16-6.26,2.27-7.32,3.17C1.26,14.61,0,22.46,0,22.46Z"/></g></g></g></svg>