<svg xmlns="http://www.w3.org/2000/svg" xmlns:xlink="http://www.w3.org/1999/xlink" viewBox="0 0 139.23 15.99"><defs><style>.cls-1{isolation:isolate;}.cls-2{fill:url(#_474);}.cls-3,.cls-5{mix-blend-mode:multiply;}.cls-3{fill:url(#_48);}.cls-4{fill:url(#_474-2);}.cls-5{fill:url(#_48-2);}</style><linearGradient id="_474" x1="25.46" y1="-25.65" x2="25.46" y2="16.3" gradientUnits="userSpaceOnUse"><stop offset="0" stop-color="#721e24"/><stop offset="1" stop-color="#510036"/></linearGradient><linearGradient id="_48" y1="8.41" x2="37.77" y2="8.41" gradientUnits="userSpaceOnUse"><stop offset="0" stop-color="#8780e9"/><stop offset="1" stop-color="#fff"/></linearGradient><linearGradient id="_474-2" x1="-11679.6" y1="-25.65" x2="-11679.6" y2="16.3" gradientTransform="matrix(-1, 0, 0, 1, -11565.82, 0)" xlink:href="#_474"/><linearGradient id="_48-2" x1="139.23" y1="8.41" x2="101.47" y2="8.41" xlink:href="#_48"/></defs><g class="cls-1"><g id="Layer_2" data-name="Layer 2"><g id="Avatar_face" data-name="Avatar face"><path class="cls-2" d="M50.91,13.86s-3.85-1.66-13.14-2h0c-2.76-.1-6-.07-9.75.15A160.9,160.9,0,0,0,0,16C.1,15.7,4.63,8.55,10.43,5.37A5,5,0,0,0,9.76,8,45.08,45.08,0,0,1,25.62.83,35.51,35.51,0,0,1,31,.05,19.67,19.67,0,0,1,48.5,8,7.49,7.49,0,0,0,47,4.4S50.82,6.91,50.91,13.86Z"/><path class="cls-3" d="M37.77,11.88c-2.76-.1-6-.07-9.75.15A160.9,160.9,0,0,0,0,16C.1,15.7,4.63,8.55,10.43,5.37A5,5,0,0,0,9.76,8,45.08,45.08,0,0,1,25.62.83C22.36,2.44,15.3,6.08,11.21,11.64,11.21,11.64,20.09,8.54,37.77,11.88Z"/><path class="cls-4" d="M88.32,13.86s3.85-1.66,13.14-2h0c2.75-.1,6-.07,9.75.15a160.87,160.87,0,0,1,28,4c-.1-.29-4.62-7.44-10.42-10.62a5,5,0,0,1,.66,2.6A45.08,45.08,0,0,0,113.61.83a35.32,35.32,0,0,0-5.39-.78A19.64,19.64,0,0,0,90.74,8,7.54,7.54,0,0,1,92.28,4.4S88.42,6.91,88.32,13.86Z"/><path class="cls-5" d="M101.47,11.88c2.75-.1,6-.07,9.75.15a160.87,160.87,0,0,1,28,4c-.1-.29-4.62-7.44-10.42-10.62a5,5,0,0,1,.66,2.6A45.08,45.08,0,0,0,113.61.83c3.26,1.61,10.33,5.25,14.42,10.81C128,11.64,119.14,8.54,101.47,11.88Z"/></g></g></g></svg>