<svg xmlns="http://www.w3.org/2000/svg" xmlns:xlink="http://www.w3.org/1999/xlink" viewBox="0 0 138.83 24.62"><defs><style>.cls-1{isolation:isolate;}.cls-2{fill:url(#_185);}.cls-3{fill:#cf77b6;opacity:0.6;mix-blend-mode:multiply;}.cls-4{fill:url(#_185-2);}</style><linearGradient id="_185" x1="25.21" y1="23.38" x2="25.21" y2="-6.1" gradientUnits="userSpaceOnUse"><stop offset="0" stop-color="#850e3b"/><stop offset="1" stop-color="#39002e"/></linearGradient><linearGradient id="_185-2" x1="-11681.1" y1="23.38" x2="-11681.1" y2="-6.1" gradientTransform="matrix(-1, 0, 0, 1, -11567.49, 0)" xlink:href="#_185"/></defs><g class="cls-1"><g id="Layer_2" data-name="Layer 2"><g id="Avatar_face" data-name="Avatar face"><path class="cls-2" d="M47.49,15.57s-5.41.51-12.4,1.25h0c-9.29,1-21.38,2.37-27.26,3.48A26.54,26.54,0,0,0,.17,24.62s-1.54-7.78,4.72-12.31a7.8,7.8,0,0,0-.55,2.57s1-2.79,6.4-5.15A38.76,38.76,0,0,1,14.93,8.3C24.09,5.54,42.2,1.37,42.2,1.37s1.95,1.95,1,5.57a16.33,16.33,0,0,1-2.33,5.32A33.83,33.83,0,0,0,45,5.55c1.25-3.06.8-4.45.8-4.45s1.67-1.53,3.34-1C49.16.12,52.92,8.19,47.49,15.57Z"/><path class="cls-3" d="M35.08,16.82c-9.29,1-21.38,2.37-27.26,3.48A26.54,26.54,0,0,0,.17,24.62s-1.54-7.78,4.72-12.31a7.8,7.8,0,0,0-.55,2.57s1-2.79,6.4-5.15A38.76,38.76,0,0,1,14.93,8.3a29.65,29.65,0,0,0-7.39,8.52S18.5,13.62,35.08,16.82Z"/><path class="cls-4" d="M91.34,15.57s5.41.51,12.4,1.25h0c9.3,1,21.39,2.37,27.27,3.48a26.54,26.54,0,0,1,7.65,4.32s1.53-7.78-4.73-12.31a7.69,7.69,0,0,1,.56,2.57s-1-2.79-6.4-5.15A38.76,38.76,0,0,0,123.9,8.3c-9.16-2.76-27.27-6.93-27.27-6.93s-1.95,1.95-1,5.57A16.58,16.58,0,0,0,98,12.26a34.43,34.43,0,0,1-4.17-6.71C92.56,2.49,93,1.1,93,1.1s-1.67-1.53-3.34-1C89.67.12,85.91,8.19,91.34,15.57Z"/><path class="cls-3" d="M103.74,16.82c9.3,1,21.39,2.37,27.27,3.48a26.54,26.54,0,0,1,7.65,4.32s1.53-7.78-4.73-12.31a7.69,7.69,0,0,1,.56,2.57s-1-2.79-6.4-5.15A38.76,38.76,0,0,0,123.9,8.3a29.65,29.65,0,0,1,7.39,8.52S120.32,13.62,103.74,16.82Z"/></g></g></g></svg>