<svg xmlns="http://www.w3.org/2000/svg" xmlns:xlink="http://www.w3.org/1999/xlink" viewBox="0 0 155.74 32.33"><defs><style>.cls-1{fill:url(#Áåçûìÿííûé_ãðàäèåíò_42);}.cls-2{fill:url(#Áåçûìÿííûé_ãðàäèåíò_42-2);}</style><linearGradient id="Áåçûìÿííûé_ãðàäèåíò_42" x1="94.23" y1="16.17" x2="155.74" y2="16.17" gradientUnits="userSpaceOnUse"><stop offset="0" stop-color="#77254b"/><stop offset="1" stop-color="#8e2542"/></linearGradient><linearGradient id="Áåçûìÿííûé_ãðàäèåíò_42-2" x1="739.99" y1="16.17" x2="801.5" y2="16.17" gradientTransform="matrix(-1, 0, 0, 1, 801.5, 0)" xlink:href="#Áåçûìÿííûé_ãðàäèåíò_42"/></defs><g id="Layer_2" data-name="Layer 2"><g id="layer1"><path class="cls-1" d="M98,32.33s7.54,0,15.75-5.7,22-16.89,28.68-17.53,13.36,8.6,13.36,8.6S148.26,5.85,142.38,0V1.48a20.37,20.37,0,0,0-5.26,0C134.91,1.9,107.75,18.71,98,18.4l1.3,9.13-3.34-8.67-1.68.76Z"/><path class="cls-2" d="M57.79,32.33s-7.54,0-15.75-5.7S20,9.74,13.36,9.1,0,17.7,0,17.7,7.48,5.85,13.36,0V1.48a20.37,20.37,0,0,1,5.26,0C20.83,1.9,48,18.71,57.79,18.4l-1.3,9.13,3.34-8.67,1.68.76Z"/></g></g></svg>