<svg xmlns="http://www.w3.org/2000/svg" xmlns:xlink="http://www.w3.org/1999/xlink" viewBox="0 0 142.99 15.99"><defs><style>.cls-1{isolation:isolate;}.cls-2{fill:url(#_69);}.cls-3{fill:#cf77b6;opacity:0.6;mix-blend-mode:multiply;}.cls-4{fill:url(#_69-2);}</style><linearGradient id="_69" x1="115.09" y1="5.43" x2="115.09" y2="18.24" gradientUnits="userSpaceOnUse"><stop offset="0" stop-color="#471f4b"/><stop offset="1" stop-color="#310a39"/></linearGradient><linearGradient id="_69-2" x1="-3518.91" y1="5.43" x2="-3518.91" y2="18.24" gradientTransform="matrix(-1, 0, 0, 1, -3491.01, 0)" xlink:href="#_69"/></defs><g class="cls-1"><g id="Layer_2" data-name="Layer 2"><g id="Avatar_face" data-name="Avatar face"><path class="cls-2" d="M143,15.91c-.43-.5-3.2-3.2-13.2-4.26a63,63,0,0,0-13.3.56C106.33,13.48,95.91,16,95.91,16s-5.73-2.34-8.73-9.76H88.3s2.59,4.69,5.72,7.16L89.66,6.23S96.1,6,106.91,4.67A94.82,94.82,0,0,0,125.45.5l-.57-.5L125,0C126.25.46,135.35,3.91,143,15.91Z"/><path class="cls-3" d="M143,15.91c-.43-.5-3.2-3.2-13.2-4.26a63,63,0,0,0-13.3.56c14.81-3.59,16.8-3.53,16.8-3.53C130,2.27,125.82.36,125,0,126.25.46,135.35,3.91,143,15.91Z"/><path class="cls-4" d="M0,15.91c.43-.5,3.2-3.2,13.2-4.26a63.05,63.05,0,0,1,13.3.56C36.66,13.48,47.08,16,47.08,16s5.73-2.34,8.73-9.76H54.69S52.1,10.92,49,13.39l4.36-7.16S46.89,6,36.08,4.67A94.82,94.82,0,0,1,17.54.5l.57-.5L18,0C16.74.46,7.64,3.91,0,15.91Z"/><path class="cls-3" d="M0,15.91c.43-.5,3.2-3.2,13.2-4.26a63.05,63.05,0,0,1,13.3.56C11.69,8.62,9.7,8.68,9.7,8.68,13,2.27,17.17.36,18,0,16.74.46,7.64,3.91,0,15.91Z"/></g></g></g></svg>