<svg xmlns="http://www.w3.org/2000/svg" xmlns:xlink="http://www.w3.org/1999/xlink" viewBox="0 0 157.58 15.37"><defs><style>.cls-1{isolation:isolate;}.cls-2{fill:url(#Áåçûìÿííûé_ãðàäèåíò_2);}.cls-3{fill:#d177b8;opacity:0.6;mix-blend-mode:multiply;}.cls-4{fill:url(#Áåçûìÿííûé_ãðàäèåíò_2-2);}</style><linearGradient id="Áåçûìÿííûé_ãðàäèåíò_2" x1="114.18" y1="21.54" x2="178.29" y2="21.54" gradientTransform="translate(-19.27 -21.66) rotate(2.55)" gradientUnits="userSpaceOnUse"><stop offset="0" stop-color="#b34349"/><stop offset="1" stop-color="#9c2740"/></linearGradient><linearGradient id="Áåçûìÿííûé_ãðàäèåíò_2-2" x1="887.86" y1="-19.24" x2="951.97" y2="-19.24" gradientTransform="matrix(-1, 0.07, 0.07, 1, 950.54, -37.82)" xlink:href="#Áåçûìÿííûé_ãðàäèåíò_2"/></defs><g class="cls-1"><g id="Layer_2" data-name="Layer 2"><g id="layer1"><path class="cls-2" d="M157.58,14.6c-.48-.44-3.55-2.91-15-4.33a97,97,0,0,0-15.29-.2c-11.71.57-23.76,2.2-23.76,2.2a18.75,18.75,0,0,1-9.64-8.84l1.27.06a26.82,26.82,0,0,0,6.29,6.45L96.74,3.56s7.4.16,19.86-.47A139.52,139.52,0,0,0,138.05.46L137.4,0l.15,0A43,43,0,0,1,157.58,14.6Z"/><path class="cls-3" d="M157.58,14.6c-.48-.44-3.55-2.91-15-4.33a97,97,0,0,0-15.29-.2c17.13-2.33,19.42-2.18,19.42-2.18A18.45,18.45,0,0,0,137.55,0,43,43,0,0,1,157.58,14.6Z"/><path class="cls-4" d="M0,15.37c.47-.45,3.48-3,14.88-4.69a97.06,97.06,0,0,1,15.27-.58C41.87,10.39,54,11.72,54,11.72a18.76,18.76,0,0,0,9.43-9.07l-1.28.09A26.8,26.8,0,0,1,56,9.34l4.57-6.49s-7.39.34-19.86,0A139.6,139.6,0,0,1,19.19.76l.63-.48-.15,0A43.05,43.05,0,0,0,0,15.37Z"/><path class="cls-3" d="M0,15.37c.47-.45,3.48-3,14.88-4.69a97.06,97.06,0,0,1,15.27-.58C13,8.2,10.68,8.4,10.68,8.4a18.5,18.5,0,0,1,9-8.07A43.05,43.05,0,0,0,0,15.37Z"/></g></g></g></svg>