<svg xmlns="http://www.w3.org/2000/svg" xmlns:xlink="http://www.w3.org/1999/xlink" viewBox="0 0 145.16 14.16"><defs><style>.cls-1{isolation:isolate;}.cls-2{fill:url(#_185);}.cls-3{fill:#cf77b6;opacity:0.6;mix-blend-mode:multiply;}.cls-4{fill:url(#_185-2);}</style><linearGradient id="_185" x1="115.01" y1="-76.86" x2="174.06" y2="-76.86" gradientTransform="translate(-31.87 76.22) rotate(2.55)" gradientUnits="userSpaceOnUse"><stop offset="0" stop-color="#850e3b"/><stop offset="1" stop-color="#39002e"/></linearGradient><linearGradient id="_185-2" x1="-3495.55" y1="131.46" x2="-3436.49" y2="131.46" gradientTransform="matrix(-1, 0.07, 0.07, 1, -3437.73, 113.54)" xlink:href="#_185"/></defs><g class="cls-1"><g id="Layer_2" data-name="Layer 2"><g id="Avatar_face" data-name="Avatar face"><path class="cls-2" d="M145.16,13.45c-.44-.41-3.28-2.68-13.81-4a89,89,0,0,0-14.08-.19c-10.78.53-21.89,2-21.89,2A17.27,17.27,0,0,1,86.5,3.16l1.18,0a24.58,24.58,0,0,0,5.79,5.94L89.12,3.28s6.81.15,18.29-.43A130,130,0,0,0,127.16.43L126.57,0l.14,0A39.68,39.68,0,0,1,145.16,13.45Z"/><path class="cls-3" d="M145.16,13.45c-.44-.41-3.28-2.68-13.81-4a89,89,0,0,0-14.08-.19c15.78-2.14,17.89-2,17.89-2A17,17,0,0,0,126.71,0,39.68,39.68,0,0,1,145.16,13.45Z"/><path class="cls-4" d="M0,14.16c.43-.42,3.21-2.76,13.7-4.32a87.5,87.5,0,0,1,14.08-.53c10.79.26,21.93,1.49,21.93,1.49a17.28,17.28,0,0,0,8.68-8.36l-1.18.08A24.52,24.52,0,0,1,51.57,8.6l4.21-6s-6.81.32-18.3,0A129.87,129.87,0,0,1,17.67.7l.59-.44-.14,0A39.68,39.68,0,0,0,0,14.16Z"/><path class="cls-3" d="M0,14.16c.43-.42,3.21-2.76,13.7-4.32a87.5,87.5,0,0,1,14.08-.53C12,7.55,9.84,7.74,9.84,7.74A17.05,17.05,0,0,1,18.12.3,39.68,39.68,0,0,0,0,14.16Z"/></g></g></g></svg>