<svg xmlns="http://www.w3.org/2000/svg" xmlns:xlink="http://www.w3.org/1999/xlink" viewBox="0 0 155.67 17.88"><defs><style>.cls-1{isolation:isolate;}.cls-2{fill:url(#_76);}.cls-3{fill:#cf77b6;opacity:0.6;mix-blend-mode:multiply;}.cls-4{fill:url(#_76-2);}</style><linearGradient id="_76" x1="28.46" y1="3.09" x2="28.46" y2="16.34" gradientUnits="userSpaceOnUse"><stop offset="0" stop-color="#5a365d"/><stop offset="1" stop-color="#5f1945"/></linearGradient><linearGradient id="_76-2" x1="-9488.14" y1="3.09" x2="-9488.14" y2="16.34" gradientTransform="matrix(-1, 0, 0, 1, -9360.93, 0)" xlink:href="#_76"/></defs><g class="cls-1"><g id="Layer_2" data-name="Layer 2"><g id="Avatar_face" data-name="Avatar face"><path class="cls-2" d="M56.92,15.5s-4.3-1.86-14.69-2.22h0c-3.08-.11-6.7-.08-10.9.17A180.53,180.53,0,0,0,0,17.88C.11,17.55,5.17,9.56,11.66,6a5.58,5.58,0,0,0-.75,2.91,50.62,50.62,0,0,1,17.73-8,39.79,39.79,0,0,1,6-.88A22,22,0,0,1,54.22,9a8.38,8.38,0,0,0-1.73-4.05S56.82,7.72,56.92,15.5Z"/><path class="cls-3" d="M42.22,13.28c-3.08-.11-6.7-.08-10.9.17A180.53,180.53,0,0,0,0,17.88C.11,17.55,5.17,9.56,11.66,6a5.58,5.58,0,0,0-.75,2.91,50.62,50.62,0,0,1,17.73-8C25,2.73,17.1,6.8,12.53,13,12.53,13,22.46,9.55,42.22,13.28Z"/><path class="cls-4" d="M98.75,15.5s4.3-1.86,14.69-2.22h0c3.08-.11,6.7-.08,10.9.17a180.53,180.53,0,0,1,31.32,4.43C155.56,17.55,150.5,9.56,144,6a5.48,5.48,0,0,1,.75,2.91A50.62,50.62,0,0,0,127,.93a39.79,39.79,0,0,0-6-.88A22,22,0,0,0,101.45,9a8.38,8.38,0,0,1,1.73-4.05S98.86,7.72,98.75,15.5Z"/><path class="cls-3" d="M113.45,13.28c3.08-.11,6.7-.08,10.9.17a180.53,180.53,0,0,1,31.32,4.43C155.56,17.55,150.5,9.56,144,6a5.48,5.48,0,0,1,.75,2.91A50.62,50.62,0,0,0,127,.93c3.64,1.8,11.54,5.87,16.11,12.09C143.14,13,133.21,9.55,113.45,13.28Z"/></g></g></g></svg>