<svg xmlns="http://www.w3.org/2000/svg" xmlns:xlink="http://www.w3.org/1999/xlink" viewBox="0 0 153.52 24.28"><defs><style>.cls-1{isolation:isolate;}.cls-2{fill:url(#_45);}.cls-3{fill:url(#_45-2);}.cls-4,.cls-7{mix-blend-mode:color-burn;opacity:0.4;}.cls-4{fill:url(#Áåçûìÿííûé_ãðàäèåíò_7);}.cls-5{fill:url(#_45-3);}.cls-6{fill:url(#_45-4);}.cls-7{fill:url(#Áåçûìÿííûé_ãðàäèåíò_7-2);}</style><linearGradient id="_45" x1="91.39" y1="11.61" x2="153.52" y2="11.61" gradientUnits="userSpaceOnUse"><stop offset="0" stop-color="#ffb698"/><stop offset="1" stop-color="#ffe39f"/></linearGradient><linearGradient id="_45-2" x1="86" y1="-23" x2="92.17" y2="-23" gradientTransform="translate(4.32 48.53) rotate(-4.24)" xlink:href="#_45"/><linearGradient id="Áåçûìÿííûé_ãðàäèåíò_7" x1="91.53" y1="16.56" x2="153.21" y2="11.98" gradientUnits="userSpaceOnUse"><stop offset="0.01" stop-color="#ad637c"/><stop offset="0.98" stop-color="#d99d93"/></linearGradient><linearGradient id="_45-3" x1="1052.7" y1="11.61" x2="1114.83" y2="11.61" gradientTransform="matrix(-1, 0, 0, 1, 1114.83, 0)" xlink:href="#_45"/><linearGradient id="_45-4" x1="1044.64" y1="48.13" x2="1050.81" y2="48.13" gradientTransform="matrix(-1, -0.07, -0.07, 1, 1110.51, 48.53)" xlink:href="#_45"/><linearGradient id="Áåçûìÿííûé_ãðàäèåíò_7-2" x1="1052.84" y1="16.56" x2="1114.52" y2="11.98" gradientTransform="matrix(-1, 0, 0, 1, 1114.83, 0)" xlink:href="#Áåçûìÿííûé_ãðàäèåíò_7"/></defs><g class="cls-1"><g id="Layer_2" data-name="Layer 2"><g id="Layer_1-2" data-name="Layer 1"><path class="cls-2" d="M153.52,16.22A22.26,22.26,0,0,0,138,7.68c-10.25-.86-32.09,14.93-38.61,15.51-6.32.56-7.87-8-8-8.52a10.16,10.16,0,0,0,6.32,5.79,5.93,5.93,0,0,1-3.35-6.7L95.94,13h0C109.5,6.27,122.76.28,132.44,2.66A26.24,26.24,0,0,0,121.87,0s7.29-.54,17.68,3.64a26.6,26.6,0,0,1,13.78,12.16l0,0Z"/><path class="cls-3" d="M88.31,13.69c1.64,4.24,3,7.7,6.64,10.59-4.83-.56-7.56-6.18-6.64-10.59Z"/><path class="cls-4" d="M153.52,16.22A22.26,22.26,0,0,0,138,7.68c-10.25-.86-32.09,14.93-38.61,15.51-6.32.56-7.87-8-8-8.52a10.16,10.16,0,0,0,6.32,5.79,5.93,5.93,0,0,1-3.35-6.7L95.94,13c.11,1.9,1,5.93,6.06,6,6.68.1,24.23-13.95,36.57-12.92,6.75.57,11.49,4.7,14.76,9.76l0,0Z"/><path class="cls-5" d="M0,16.22A22.26,22.26,0,0,1,15.57,7.68c10.25-.86,32.09,14.93,38.61,15.51,6.32.56,7.87-8,8-8.52a10.16,10.16,0,0,1-6.32,5.79,5.93,5.93,0,0,0,3.35-6.7L57.58,13h0C44,6.27,30.76.28,21.08,2.66A26.24,26.24,0,0,1,31.65,0S24.36-.52,14,3.66A26.6,26.6,0,0,0,.19,15.82l0,0Z"/><path class="cls-6" d="M65.21,13.69c-1.64,4.24-3,7.7-6.64,10.59,4.83-.56,7.56-6.18,6.64-10.59Z"/><path class="cls-7" d="M0,16.22A22.26,22.26,0,0,1,15.57,7.68c10.25-.86,32.09,14.93,38.61,15.51,6.32.56,7.87-8,8-8.52a10.16,10.16,0,0,1-6.32,5.79,5.93,5.93,0,0,0,3.35-6.7L57.58,13c-.11,1.9-1,5.93-6.06,6C44.84,19.08,27.29,5,15,6.06,8.2,6.63,3.46,10.76.19,15.82l0,0Z"/></g></g></g></svg>