<svg xmlns="http://www.w3.org/2000/svg" xmlns:xlink="http://www.w3.org/1999/xlink" viewBox="0 0 158.33 16.22"><defs><style>.cls-1{isolation:isolate;}.cls-2{fill:url(#_10);}.cls-3{fill:#cf77b6;opacity:0.6;mix-blend-mode:multiply;}.cls-4{fill:url(#_10-2);}</style><linearGradient id="_10" x1="29.79" y1="-20.07" x2="29.79" y2="17.43" gradientUnits="userSpaceOnUse"><stop offset="0" stop-color="#90314b"/><stop offset="1" stop-color="#982542"/></linearGradient><linearGradient id="_10-2" x1="-9498.68" y1="-20.07" x2="-9498.68" y2="17.43" gradientTransform="matrix(-1, 0, 0, 1, -9370.14, 0)" xlink:href="#_10"/></defs><g class="cls-1"><g id="Layer_2" data-name="Layer 2"><g id="Avatar_face" data-name="Avatar face"><path class="cls-2" d="M59.36,3.35c-4.09,7.69-9.62,8.11-9.62,8.11a23.64,23.64,0,0,1-3,.27c-7.79.25-22.2-1.59-28.89-1.59-7.7,0-17.73,6.08-17.73,6.08S-.5,14,1.5,10.6a19.41,19.41,0,0,1,3-3.8c.33-.33.65-.63,1-.92C6.43,5,7.23,4.3,7.92,3.76h0c2.57-2,3.5-1.93,3.5-1.93,0,.26-.4.61-.4.61s1.72-.24,4.33-.56h0c1.69-.21,3.76-.46,6-.71h0C26.52.61,32.52.05,36.66,0A145.08,145.08,0,0,1,54.1,1c.2,1.93-1.63,4.05-1.63,4.05a11.72,11.72,0,0,0,4.81-3.65L59.53,1A5.87,5.87,0,0,1,59.36,3.35Z"/><path class="cls-3" d="M46.7,11.73c-7.79.25-22.2-1.59-28.89-1.59-7.7,0-17.73,6.08-17.73,6.08S-.5,14,1.5,10.6c5.58-2.12,11.19-3.21,13.27-4,2.31-.88-3.72-.87-9.28-.71C6.43,5,7.23,4.3,7.92,3.76h0c8.33-.7,22.16,3.42,22.55,3.54A53.38,53.38,0,0,0,15.36,1.88c1.69-.21,3.76-.46,6-.71h0C38.28,5,46.7,11.73,46.7,11.73Z"/><path class="cls-4" d="M99,3.35c4.1,7.69,9.63,8.11,9.63,8.11a23.64,23.64,0,0,0,3,.27c7.79.25,22.2-1.59,28.89-1.59,7.7,0,17.73,6.08,17.73,6.08s.58-2.22-1.42-5.62a19.41,19.41,0,0,0-3-3.8c-.33-.33-.65-.63-.95-.92-.94-.88-1.74-1.58-2.43-2.12h0c-2.57-2-3.5-1.93-3.5-1.93,0,.26.39.61.39.61s-1.71-.24-4.32-.56h0c-1.69-.21-3.76-.46-6-.71h0C131.81.61,125.81.05,121.67,0a145.08,145.08,0,0,0-17.44,1c-.2,1.93,1.63,4.05,1.63,4.05A11.71,11.71,0,0,1,101,1.42L98.8,1A6,6,0,0,0,99,3.35Z"/><path class="cls-3" d="M111.63,11.73c7.79.25,22.2-1.59,28.89-1.59,7.7,0,17.73,6.08,17.73,6.08s.58-2.22-1.42-5.62c-5.58-2.12-11.19-3.21-13.27-4-2.31-.88,3.72-.87,9.28-.71-.94-.88-1.74-1.58-2.43-2.12h0c-8.33-.7-22.16,3.42-22.55,3.54A53.38,53.38,0,0,1,143,1.88c-1.69-.21-3.76-.46-6-.71h0C120.05,5,111.63,11.73,111.63,11.73Z"/></g></g></g></svg>