<svg xmlns="http://www.w3.org/2000/svg" xmlns:xlink="http://www.w3.org/1999/xlink" viewBox="0 0 157.05 15.27"><defs><style>.cls-1{fill:url(#Áåçûìÿííûé_ãðàäèåíò_103);}.cls-2{fill:url(#Áåçûìÿííûé_ãðàäèåíò_103-2);}</style><linearGradient id="Áåçûìÿííûé_ãðàäèåíò_103" x1="96.62" y1="7.64" x2="157.05" y2="7.64" gradientUnits="userSpaceOnUse"><stop offset="0" stop-color="#5f1945"/><stop offset="1" stop-color="#5a365d"/></linearGradient><linearGradient id="Áåçûìÿííûé_ãðàäèåíò_103-2" x1="686.97" y1="7.64" x2="747.41" y2="7.64" gradientTransform="matrix(-1, 0, 0, 1, 747.41, 0)" xlink:href="#Áåçûìÿííûé_ãðàäèåíò_103"/></defs><g id="Layer_2" data-name="Layer 2"><g id="layer1"><path class="cls-1" d="M96.62,9.92a10.21,10.21,0,0,0,6.84,5.35s28.94-9.47,37.26-9,16.33,9,16.33,9-10-13.82-14.55-15c-8.15-2-40.93,7.07-40.93,7.07s.9,4.07,2.34,5.68a26.84,26.84,0,0,1-5.44-5Z"/><path class="cls-2" d="M60.43,9.92a10.18,10.18,0,0,1-6.83,5.35s-28.94-9.47-37.27-9S0,15.27,0,15.27,10,1.45,14.55.3c8.15-2,40.93,7.07,40.93,7.07s-.89,4.07-2.34,5.68a26.84,26.84,0,0,0,5.44-5Z"/></g></g></svg>