<svg xmlns="http://www.w3.org/2000/svg" xmlns:xlink="http://www.w3.org/1999/xlink" viewBox="0 0 155 28.48"><defs><style>.cls-1{isolation:isolate;}.cls-2{fill:url(#_471);}.cls-3,.cls-4,.cls-6,.cls-7{mix-blend-mode:multiply;}.cls-3{fill:url(#Áåçûìÿííûé_ãðàäèåíò_6);}.cls-4{fill:url(#Áåçûìÿííûé_ãðàäèåíò_6-2);}.cls-5{fill:url(#_471-2);}.cls-6{fill:url(#Áåçûìÿííûé_ãðàäèåíò_6-3);}.cls-7{fill:url(#Áåçûìÿííûé_ãðàäèåíò_6-4);}</style><linearGradient id="_471" x1="97.25" y1="19.74" x2="158.88" y2="19.74" gradientTransform="matrix(1, 0.09, -0.09, 1, -0.39, -17.47)" gradientUnits="userSpaceOnUse"><stop offset="0.02" stop-color="#db3440"/><stop offset="1" stop-color="#922046"/></linearGradient><linearGradient id="Áåçûìÿííûé_ãðàäèåíò_6" x1="105.47" y1="22.7" x2="104.81" y2="7.88" gradientTransform="matrix(1, 0.09, -0.09, 1, -0.39, -17.47)" gradientUnits="userSpaceOnUse"><stop offset="0.01" stop-color="#a66dad"/><stop offset="0.98" stop-color="#d9a0b8"/></linearGradient><linearGradient id="Áåçûìÿííûé_ãðàäèåíò_6-2" x1="148.37" y1="25.73" x2="148.37" y2="13.69" xlink:href="#Áåçûìÿííûé_ãðàäèåíò_6"/><linearGradient id="_471-2" x1="170.3" y1="9.02" x2="231.9" y2="9.02" gradientTransform="matrix(-1, 0.07, 0.07, 1, 230.01, -8.47)" xlink:href="#_471"/><linearGradient id="Áåçûìÿííûé_ãðàäèåíò_6-3" x1="178.51" y1="11.98" x2="177.85" y2="-2.84" gradientTransform="matrix(-1, 0.07, 0.07, 1, 230.01, -8.47)" xlink:href="#Áåçûìÿííûé_ãðàäèåíò_6"/><linearGradient id="Áåçûìÿííûé_ãðàäèåíò_6-4" x1="221.39" y1="15" x2="221.39" y2="2.97" gradientTransform="matrix(-1, 0.07, 0.07, 1, 230.01, -8.47)" xlink:href="#Áåçûìÿííûé_ãðàäèåíò_6"/></defs><g class="cls-1"><g id="Layer_2" data-name="Layer 2"><g id="Layer_1-2" data-name="Layer 1"><path class="cls-2" d="M155,28.48s-13.14-12-41.94-15a67.75,67.75,0,0,0-12.18-.24,33,33,0,0,0-6.48,1s2.92-12,10.31-14a16.91,16.91,0,0,0-6.59,9.67A26.07,26.07,0,0,1,107.87,0a7.63,7.63,0,0,0-3.08,5.46c1.13-2.27,3-4.13,6.7-5,9.08,1.37,24.18,5.25,31.18,8.75a13.39,13.39,0,0,1,4,7c.2-1.73-.44-3.69-2-5.91a5.09,5.09,0,0,1,1.62,1.5c.49.86,1.11,2,1.8,3.27C151,20.48,155,28.48,155,28.48Z"/><path class="cls-3" d="M111.49.43c-3.22,1.48-5.62,4.64-7.59,8.69a5,5,0,0,1-.22-2.73,11.46,11.46,0,0,0-2.8,6.83,33,33,0,0,0-6.48,1s2.92-12,10.31-14a16.91,16.91,0,0,0-6.59,9.67A26.07,26.07,0,0,1,107.87,0a7.63,7.63,0,0,0-3.08,5.46C105.92,3.19,107.81,1.33,111.49.43Z"/><path class="cls-4" d="M147.82,21.73a43.33,43.33,0,0,0-5.15-12.55,13.39,13.39,0,0,1,4,7c.2-1.73-.44-3.69-2-5.91a5.09,5.09,0,0,1,1.62,1.5c.49.86,1.11,2,1.8,3.27C149.4,18.63,148.75,20.66,147.82,21.73Z"/><path class="cls-5" d="M0,27.79s13.43-11.71,42.27-14a67.82,67.82,0,0,1,12.17,0A33.25,33.25,0,0,1,60.89,15S58.27,2.92,50.94.77a16.87,16.87,0,0,1,6.34,9.83A25.94,25.94,0,0,0,47.78.48,7.58,7.58,0,0,1,50.72,6C49.65,3.71,47.8,1.81,44.15.82c-9.1,1.14-24.29,4.66-31.36,8a13.36,13.36,0,0,0-4.14,6.93c-.16-1.74.54-3.69,2.15-5.87a5.16,5.16,0,0,0-1.66,1.47c-.52.84-1.16,2-1.87,3.22C4.24,19.9,0,27.79,0,27.79Z"/><path class="cls-6" d="M44.15.82c3.18,1.56,5.51,4.77,7.37,8.87A4.89,4.89,0,0,0,51.81,7a11.41,11.41,0,0,1,2.63,6.89A33.25,33.25,0,0,1,60.89,15S58.27,2.92,50.94.77a16.87,16.87,0,0,1,6.34,9.83A25.94,25.94,0,0,0,47.78.48,7.58,7.58,0,0,1,50.72,6C49.65,3.71,47.8,1.81,44.15.82Z"/><path class="cls-7" d="M7.34,21.22A43.27,43.27,0,0,1,12.79,8.81a13.36,13.36,0,0,0-4.14,6.93c-.16-1.74.54-3.69,2.15-5.87a5.16,5.16,0,0,0-1.66,1.47c-.52.84-1.16,2-1.87,3.22C5.83,18.09,6.44,20.13,7.34,21.22Z"/></g></g></g></svg>