<svg xmlns="http://www.w3.org/2000/svg" xmlns:xlink="http://www.w3.org/1999/xlink" viewBox="0 0 149.04 21.83"><defs><style>.cls-1{isolation:isolate;}.cls-2{fill:url(#_474);}.cls-3{fill:#cf77b6;opacity:0.6;mix-blend-mode:multiply;}.cls-4{fill:url(#_474-2);}</style><linearGradient id="_474" x1="28.25" y1="-1.36" x2="28.25" y2="26.75" gradientUnits="userSpaceOnUse"><stop offset="0" stop-color="#721e24"/><stop offset="1" stop-color="#510036"/></linearGradient><linearGradient id="_474-2" x1="-10572.94" y1="-1.36" x2="-10572.94" y2="26.75" gradientTransform="matrix(-1, 0, 0, 1, -10452.15, 0)" xlink:href="#_474"/></defs><g class="cls-1"><g id="Avatar_face" data-name="Avatar face"><path class="cls-2" d="M54.81,21.79a52.26,52.26,0,0,1-13.08-1.15,31.35,31.35,0,0,1-6.24-2.09c-8.27-3.89-9.89-6-16.86-7.13S0,11.42,0,11.42A45.77,45.77,0,0,1,5.59,3,13,13,0,0,1,8.75.24l-1,2.08C8,2,9.91-.83,22.82.24,36.46,1.37,52.66,7.86,52.66,7.86l1.14,8.26a9.7,9.7,0,0,0,1.78-4.7A11.11,11.11,0,0,1,54.81,21.79Z"/><path class="cls-3" d="M41.73,20.64a31.35,31.35,0,0,1-6.24-2.09c-8.27-3.89-9.89-6-16.86-7.13S0,11.42,0,11.42A45.77,45.77,0,0,1,5.59,3c4.46-.18,10.85.32,16.68,3.77,0,0-.39-2-4-4.3,0,0,11.5-.28,23.41,18.21Z"/><path class="cls-4" d="M94.23,21.79a52.26,52.26,0,0,0,13.08-1.15,31.66,31.66,0,0,0,6.25-2.09c8.26-3.89,9.88-6,16.85-7.13s18.63,0,18.63,0A45.77,45.77,0,0,0,143.45,3,13,13,0,0,0,140.29.24l1,2.08c-.17-.31-2.12-3.15-15-2.08C112.58,1.37,96.38,7.86,96.38,7.86l-1.13,8.26a9.65,9.65,0,0,1-1.79-4.7A11.11,11.11,0,0,0,94.23,21.79Z"/><path class="cls-3" d="M107.31,20.64a31.66,31.66,0,0,0,6.25-2.09c8.26-3.89,9.88-6,16.85-7.13s18.63,0,18.63,0A45.77,45.77,0,0,0,143.45,3c-4.46-.18-10.85.32-16.68,3.77,0,0,.39-2,4-4.3,0,0-11.5-.28-23.41,18.21Z"/></g></g></svg>