<svg xmlns="http://www.w3.org/2000/svg" xmlns:xlink="http://www.w3.org/1999/xlink" viewBox="0 0 159.01 35.22"><defs><style>.cls-1{isolation:isolate;}.cls-2{fill:url(#_626_2);}.cls-3{fill:#ce77b5;mix-blend-mode:multiply;opacity:0.9;}.cls-4{fill:url(#_626_2-2);}</style><linearGradient id="_626_2" x1="127.09" y1="52.07" x2="127.09" y2="20.18" gradientTransform="translate(3.17 -23.53) rotate(2.06)" gradientUnits="userSpaceOnUse"><stop offset="0" stop-color="#773184"/><stop offset="1" stop-color="#82142f"/></linearGradient><linearGradient id="_626_2-2" x1="33.87" y1="-4.59" x2="33.87" y2="-36.48" gradientTransform="matrix(1, -0.07, 0.07, 1, -2.84, 40.02)" xlink:href="#_626_2"/></defs><g class="cls-1"><g id="Layer_2" data-name="Layer 2"><g id="Layer_1-2" data-name="Layer 1"><path class="cls-2" d="M159,34.18c-.41-1-7.3-17.33-18.4-17.55-18.24-.38-26.49.51-42.32-2.77,0,0,2.2-11.64,9.64-13a21.76,21.76,0,0,1,2.2-.24c1-.05,2.24-.07,3.54,0-2.39,1.77-3.77,4.62-5,7.61a21.41,21.41,0,0,1,11.67-7.2c1.06.09,2.15.21,3.24.34s1.95.25,2.92.39c1.22.17,2.42.35,3.6.56l1.26.21c6.31,1.13,11.74,2.63,13.33,4.12a37.76,37.76,0,0,1,4.9,5.7C156.43,21.91,158.84,33.34,159,34.18Z"/><path class="cls-3" d="M159,34.18c-.41-1-7.3-17.33-18.4-17.55-18.24-.38-26.49.51-42.32-2.77,0,0,2.2-11.64,9.64-13a21.76,21.76,0,0,1,2.2-.24c-5,2.73-7.78,6.56-8.54,11.36,0,0,4.27.51,10.17,1,2.34-4.26,6.31-8.13,11.78-11.62,1,.13,1.95.25,2.92.39-4.29,1.8-7.8,5.84-9,11.63,1.57.1,3.17.17,4.79.24a20.69,20.69,0,0,1,7.85-11.31l1.26.21c-3.31,2.28-5.89,5.87-7.53,11.16,1.85.06,3.7.09,5.5.09,7.71-.05,17.19,1.49,20.26-1.43C156.43,21.91,158.84,33.34,159,34.18Z"/><path class="cls-4" d="M0,35.22c.37-1,6.69-17.57,17.78-18.18C36,16,44.26,16.63,60,12.8c0,0-2.6-11.56-10.09-12.63A20.82,20.82,0,0,0,47.67,0c-1,0-2.23,0-3.54.12,2.46,1.69,3.94,4.49,5.31,7.43A21.35,21.35,0,0,0,37.52.76c-1.05.13-2.13.29-3.22.46s-1.94.31-2.91.48c-1.2.22-2.4.44-3.58.69l-1.24.26C20.3,4,14.92,5.68,13.39,7.23a37.58,37.58,0,0,0-4.7,5.87C2.15,22.87.14,34.38,0,35.22Z"/><path class="cls-3" d="M0,35.22c.37-1,6.69-17.57,17.78-18.18C36,16,44.26,16.63,60,12.8c0,0-2.6-11.56-10.09-12.63A20.82,20.82,0,0,0,47.67,0c5.12,2.56,8,6.29,8.94,11.06,0,0-4.25.66-10.13,1.35C44,8.24,39.89,4.51,34.3,1.22c-1,.15-1.94.31-2.91.48,4.35,1.66,8,5.57,9.45,11.31-1.56.15-3.17.29-4.78.41a20.61,20.61,0,0,0-8.25-11l-1.24.26C30,4.8,32.65,8.3,34.48,13.53c-1.85.12-3.69.23-5.49.28-7.71.23-17.13,2.09-20.3-.71C2.15,22.87.14,34.38,0,35.22Z"/></g></g></g></svg>