<svg xmlns="http://www.w3.org/2000/svg" xmlns:xlink="http://www.w3.org/1999/xlink" viewBox="0 0 155.44 27.56"><defs><style>.cls-1{isolation:isolate;}.cls-2{fill:url(#_10);}.cls-3{fill:#cf77b6;opacity:0.6;mix-blend-mode:multiply;}.cls-4{fill:url(#_10-2);}</style><linearGradient id="_10" x1="25.44" y1="19.6" x2="37.6" y2="6.51" gradientUnits="userSpaceOnUse"><stop offset="0" stop-color="#90314b"/><stop offset="1" stop-color="#982542"/></linearGradient><linearGradient id="_10-2" x1="-9492.42" y1="19.6" x2="-9480.26" y2="6.51" gradientTransform="matrix(-1, 0, 0, 1, -9362.42, 0)" xlink:href="#_10"/></defs><g class="cls-1"><g id="Layer_2" data-name="Layer 2"><g id="Avatar_face" data-name="Avatar face"><path class="cls-2" d="M53.17,17.44s-6.06.57-13.88,1.4h0c-10.4,1.1-23.94,2.65-30.52,3.89A29.94,29.94,0,0,0,.18,27.56s-1.71-8.7,5.3-13.77a8.69,8.69,0,0,0-.62,2.87S6,13.54,12,10.89a46.56,46.56,0,0,1,4.69-1.6C27,6.2,47.25,1.54,47.25,1.54s2.18,2.18,1.09,6.23a18.29,18.29,0,0,1-2.61,6,37.76,37.76,0,0,0,4.68-7.52c1.4-3.42.89-5,.89-5S53.17-.49,55,.14C55,.14,59.25,9.18,53.17,17.44Z"/><path class="cls-3" d="M39.28,18.84c-10.4,1.1-23.94,2.65-30.52,3.89A29.94,29.94,0,0,0,.18,27.56s-1.71-8.7,5.3-13.77a8.69,8.69,0,0,0-.62,2.87S6,13.54,12,10.89a46.56,46.56,0,0,1,4.69-1.6,32.89,32.89,0,0,0-8.28,9.55S20.72,15.25,39.28,18.84Z"/><path class="cls-4" d="M102.27,17.44s6.06.57,13.88,1.4h0c10.41,1.1,23.94,2.65,30.52,3.89a29.94,29.94,0,0,1,8.58,4.83s1.71-8.7-5.3-13.77a8.69,8.69,0,0,1,.62,2.87s-1.09-3.12-7.17-5.77a45.68,45.68,0,0,0-4.69-1.6c-10.25-3.09-30.53-7.75-30.53-7.75S106,3.72,107.1,7.77a18.29,18.29,0,0,0,2.61,6A37.76,37.76,0,0,1,105,6.21c-1.4-3.42-.89-5-.89-5S102.27-.49,100.4.14C100.4.14,96.19,9.18,102.27,17.44Z"/><path class="cls-3" d="M116.16,18.84c10.41,1.1,23.94,2.65,30.52,3.89a29.94,29.94,0,0,1,8.58,4.83s1.71-8.7-5.3-13.77a8.69,8.69,0,0,1,.62,2.87s-1.09-3.12-7.17-5.77a45.68,45.68,0,0,0-4.69-1.6A32.89,32.89,0,0,1,147,18.84S134.72,15.25,116.16,18.84Z"/></g></g></g></svg>