<svg xmlns="http://www.w3.org/2000/svg" xmlns:xlink="http://www.w3.org/1999/xlink" viewBox="0 0 158.75 17.75"><defs><style>.cls-1{isolation:isolate;}.cls-2{fill:url(#Áåçûìÿííûé_ãðàäèåíò_2);}.cls-3{fill:#d177b8;opacity:0.6;mix-blend-mode:multiply;}.cls-4{fill:url(#Áåçûìÿííûé_ãðàäèåíò_2-2);}</style><linearGradient id="Áåçûìÿííûé_ãðàäèåíò_2" x1="96.79" y1="8.88" x2="158.75" y2="8.88" gradientUnits="userSpaceOnUse"><stop offset="0" stop-color="#b34349"/><stop offset="1" stop-color="#9c2740"/></linearGradient><linearGradient id="Áåçûìÿííûé_ãðàäèåíò_2-2" x1="860.04" y1="8.88" x2="921.99" y2="8.88" gradientTransform="matrix(-1, 0, 0, 1, 921.99, 0)" xlink:href="#Áåçûìÿííûé_ãðàäèåíò_2"/></defs><g class="cls-1"><g id="Layer_2" data-name="Layer 2"><g id="layer1"><path class="cls-2" d="M158.75,17.66c-.48-.55-3.56-3.54-14.66-4.72a69.2,69.2,0,0,0-14.76.62c-11.28,1.4-22.85,4.19-22.85,4.19s-6.36-2.59-9.69-10.83H98s2.88,5.21,6.35,8L99.54,6.92s7.15-.22,19.15-1.74A105.63,105.63,0,0,0,139.28.56L138.64,0l.15.05C140.16.51,150.27,4.34,158.75,17.66Z"/><path class="cls-3" d="M158.75,17.66c-.48-.55-3.56-3.54-14.66-4.72a69.2,69.2,0,0,0-14.76.62C145.76,9.57,148,9.63,148,9.63,144.37,2.52,139.69.4,138.79.05,140.16.51,150.27,4.34,158.75,17.66Z"/><path class="cls-4" d="M0,17.66c.48-.55,3.56-3.54,14.65-4.72a69.29,69.29,0,0,1,14.77.62C40.7,15,52.27,17.75,52.27,17.75S58.63,15.16,62,6.92H60.72s-2.88,5.21-6.35,8l4.84-7.95S52.06,6.7,40.06,5.18A105.63,105.63,0,0,1,19.47.56L20.11,0,20,.05C18.59.51,8.48,4.34,0,17.66Z"/><path class="cls-3" d="M0,17.66c.48-.55,3.56-3.54,14.65-4.72a69.29,69.29,0,0,1,14.77.62C13,9.57,10.76,9.63,10.76,9.63,14.38,2.52,19.06.4,20,.05,18.59.51,8.48,4.34,0,17.66Z"/></g></g></g></svg>