<svg xmlns="http://www.w3.org/2000/svg" xmlns:xlink="http://www.w3.org/1999/xlink" viewBox="0 0 269.18 232.34"><defs><style>.cls-1{isolation:isolate;}.cls-2{fill:url(#_185);}.cls-11,.cls-12,.cls-14,.cls-16,.cls-17,.cls-3,.cls-5,.cls-6,.cls-8,.cls-9{mix-blend-mode:multiply;}.cls-3{fill:url(#_48);}.cls-4{fill:url(#_241);}.cls-5{fill:url(#_48-2);}.cls-6{fill:url(#_48-3);}.cls-7{fill:url(#_241-2);}.cls-8{fill:url(#_48-4);}.cls-9{fill:url(#_48-5);}.cls-10{fill:url(#_241-3);}.cls-11{fill:url(#_48-6);}.cls-12{fill:url(#_48-7);}.cls-13{fill:url(#_241-4);}.cls-14{fill:url(#_48-8);}.cls-15{fill:#ffd7b9;mix-blend-mode:soft-light;}.cls-16{fill:url(#_48-9);}.cls-17{fill:url(#_48-10);}</style><linearGradient id="_185" x1="134.59" y1="9.65" x2="134.59" y2="226.79" gradientUnits="userSpaceOnUse"><stop offset="0" stop-color="#850e3b"/><stop offset="1" stop-color="#39002e"/></linearGradient><linearGradient id="_48" x1="134.68" y1="192.26" x2="134.68" y2="-15.08" gradientUnits="userSpaceOnUse"><stop offset="0" stop-color="#8780e9"/><stop offset="1" stop-color="#fff"/></linearGradient><linearGradient id="_241" x1="126.71" y1="113.96" x2="126.71" y2="261.11" gradientUnits="userSpaceOnUse"><stop offset="0" stop-color="#a48b18"/><stop offset="1" stop-color="#402f40"/></linearGradient><linearGradient id="_48-2" x1="127.55" y1="111.76" x2="127.55" y2="236.98" xlink:href="#_48"/><linearGradient id="_48-3" x1="126.71" y1="116.76" x2="126.71" y2="219.07" xlink:href="#_48"/><linearGradient id="_241-2" x1="88.25" y1="87.51" x2="88.25" y2="153.24" xlink:href="#_241"/><linearGradient id="_48-4" x1="100.14" y1="131.04" x2="100.14" y2="86.63" xlink:href="#_48"/><linearGradient id="_48-5" x1="95.73" y1="124.3" x2="95.73" y2="91.26" xlink:href="#_48"/><linearGradient id="_241-3" x1="156.87" y1="87.51" x2="156.87" y2="153.24" xlink:href="#_241"/><linearGradient id="_48-6" x1="147.46" y1="132.61" x2="147.46" y2="86.25" xlink:href="#_48"/><linearGradient id="_48-7" x1="151.08" y1="122.6" x2="151.08" y2="89.59" xlink:href="#_48"/><linearGradient id="_241-4" x1="126.76" y1="79.27" x2="126.76" y2="176.07" xlink:href="#_241"/><linearGradient id="_48-8" x1="126.76" y1="134.8" x2="126.76" y2="111.67" xlink:href="#_48"/><linearGradient id="_48-9" x1="43.94" y1="156.15" x2="43.94" y2="227.58" xlink:href="#_48"/><linearGradient id="_48-10" x1="213.71" y1="154.36" x2="213.71" y2="228.44" xlink:href="#_48"/></defs><g class="cls-1"><g id="Layer_2" data-name="Layer 2"><g id="Avatar_face" data-name="Avatar face"><path class="cls-2" d="M269,120.62c-1.75,3.15-15.76,7.94-15.76,7.94,2.63,1.69,3.69,8.25,3.15,13.93-.32,3.38-1.19,6.45-2.63,8-8,8.77-34.16,8.3-34.16,8.3l-8.67,43.26s-2.54,27.87-5.42,30.09-3.08-15.54-2.75-24.84,3.87-48.51,3.87-48.51-15.76-44.14-80.27-44.14-78.8,43.47-78.8,43.47,5.62,37.46,4.39,43.42-4.37,25.22-6.31,21.58c-3.7-7-2.15-18.69-2.15-18.69-.59-5.16-13.78-46.31-13.78-46.31-9.34-2-19.58-10.76-25.1-18-3-3.88-4.59-7.32-4-9C2.35,126.22,15,118.86,15,118.86L2,102a9.53,9.53,0,0,1-1.82-3.8C-.64,94.42,1.26,90.07,7,85.67a59,59,0,0,1,14.59-8.41C17.41,70.73,3.86,53.7,4,40.06A15,15,0,0,1,8.82,28.67c4.57-4.24,31.37-9.14,44.21-3.53,12.44,5.44,18.18,14.2,18.52,14.73a52.22,52.22,0,0,1-2.78-11.2C66.83,13.91,71.88,1.9,76.1.37,81.36-1.53,104,4,119.72,13.86a27.18,27.18,0,0,1,2.34,1.66c8.94,7.16,11.47,18.72,11.47,18.72s8.17-8.18,12.82-11.37c16.11-11.08,31.88-12.08,34.33-8.72,3.89,5.32,3,13.32,1.09,20.07a68.57,68.57,0,0,1-4.94,12.47,159.38,159.38,0,0,1,24-2.1c3.29,0,6.7.07,10.08.35,22.38,1.85,32.15,13.87,31.44,19.26a17.2,17.2,0,0,1-2.44,5.4h0c-4.75,8-14.71,20.2-14.71,20.2s2.71.43,7.3,1.51c3.78.88,8.84,2.21,14.71,4.1,7.06,2.27,13,8,17,13.41h0C267.94,114.05,269.83,119.07,269,120.62Z"/><path class="cls-3" d="M264.16,108.82h0c-22.68,12.72-113.5-3.6-113.5-3.6,17.2-13.16,77.28-14,81.83-13.91-4.59-1.08-7.3-1.51-7.3-1.51s10-12.23,14.71-20.2C214,86.73,159,79.42,159,79.42c11.27-24,41.85-34.83,41.85-34.83a159.38,159.38,0,0,0-24,2.1,68.57,68.57,0,0,0,4.94-12.47s0,0,0,0c-29.49,56.82-45.18,65.08-53.95,67.8-4.86-39,5.72-67.8,5.72-67.8S131,22.68,122.06,15.52c0,.23,0,.46,0,.69-.84,19.45-17.82,33.17-29.31,29.95-10-2.79-23.94-17.49-23.94-17.49a52.22,52.22,0,0,0,2.78,11.2c-.34-.53-6.08-9.29-18.52-14.73,12.67,8.94,18.85,38.6,14.66,39.73C63.3,66,41,60.75,28.28,57,8,51,4,40.06,4,40.06H4C3.86,53.7,17.41,70.73,21.56,77.26,56.88,76.29,115,95.49,115,95.49s-33.63,20.68-86.19,8.74C5.74,99,.18,98.24.18,98.24A9.53,9.53,0,0,0,2,102l13,16.82A107,107,0,0,1,49,125c.2,4.73-32.79,18.92-44.4,15.17,5.52,7.21,15.76,16,25.1,18,0,0,13.19,41.15,13.78,46.31,0,0-1.55,11.72,2.15,18.69,1.94,3.64,5.08-15.63,6.31-21.58s-4.39-43.42-4.39-43.42,14.28-43.47,78.8-43.47S206.6,158.8,206.6,158.8s-3.55,39.22-3.87,48.51-.12,27.07,2.75,24.84,5.42-30.09,5.42-30.09l8.67-43.26s26.13.47,34.16-8.3c1.44-1.56,2.31-4.63,2.63-8l-2.1.34c-20,3.12-39.53-11.05-39.53-11.05,21.76-7.18,38.48-3.22,38.48-3.22s14-4.79,15.76-7.94C269.83,119.07,267.94,114.05,264.16,108.82ZM113.94,79.42c-12.73,4.9-46.77-3.81-46.77-3.81S94.49,55.1,111.84,64.87C111.84,64.87,126.67,74.53,113.94,79.42Z"/><path class="cls-4" d="M232.38,164.41a169.88,169.88,0,0,0-11.13,15.5c-3.37,5.23-5.44,12.17-6.46,16.26,0,0,0,0,0,0-.52,2.07-.76,3.41-.76,3.41a5.63,5.63,0,0,1-.75,2.32h0a5.55,5.55,0,0,1-3.21,2.51,178.17,178.17,0,0,0-15.36-33.71c-13.27-22.59-35.47-48.26-68-48.49-26.4.18-46,17.14-59.54,35.59h0c-16.3,22.21-23.81,46.6-23.81,46.6a6.09,6.09,0,0,1-1.75-.87,5.33,5.33,0,0,1-1.47-1.65,5.59,5.59,0,0,1-.75-2.32s-.22-1.24-.69-3.18c-1-4-3.09-11.17-6.53-16.51-3.87-6-7.27-10.61-9.45-13.41-.6-.77-1.11-1.4-1.51-1.89l-.17-.2c-1.76-2.1,4.22-7.51,4.22-7.51l4.06,1.23C42.66,138.2,61,125.64,78.15,117.74a155.22,155.22,0,0,1,47.46-13.06v-.18l1.1.08,1.11-.08v.18a155.8,155.8,0,0,1,43.91,11.48h0c18.2,7.77,38.12,20.65,52.39,42l4-1.23S234.15,162.31,232.38,164.41Z"/><path class="cls-5" d="M232.38,164.41a169.88,169.88,0,0,0-11.13,15.5c-3.37,5.23-5.44,12.17-6.46,16.26.31-1.82,6.18-39.33-31.65-62.1-36-21.69-56.14-25-80.24-13.28C50.17,146.54,38,167.91,38.7,196.42c-1-4-3.09-11.17-6.53-16.51-3.87-6-7.27-10.61-9.45-13.41,6.35,1.32,33.68-57.68,103.61-57.68s92.8,54.62,94.64,55.94S232.38,164.41,232.38,164.41Z"/><path class="cls-6" d="M213.28,201.92h0a5.55,5.55,0,0,1-3.21,2.51s-25.19-81.79-83.36-82.2c-58.17.41-83.35,82.2-83.35,82.2a6.09,6.09,0,0,1-1.75-.87l-1.47-1.65c.75-8.78,12.08-48,48.11-75.7l-10.1-8.48a155.22,155.22,0,0,1,47.46-13.06v-.18l1.1.08,1.11-.08v.18a155.8,155.8,0,0,1,43.91,11.48h0s-4.89.46-16.2,4.62C155.52,120.79,193.33,141.69,213.28,201.92Z"/><path class="cls-7" d="M112.18,109.61v11C96.79,116.93,86.35,110.28,79.27,103a53,53,0,0,1-15-33.45S90.76,75.64,105,95.08h0A44.94,44.94,0,0,1,112.18,109.61Z"/><path class="cls-8" d="M86.09,95.25s15.51,18.2,28.11,25.54C114.2,120.79,97.91,98.35,86.09,95.25Z"/><path class="cls-9" d="M112.18,109.79v11c-15.39-3.68-25.83-10.33-32.91-17.64,5.93,3.72,17.44,10,22.84,6.64,7.35-4.57,3-14.25,2.92-14.54h0A45,45,0,0,1,112.18,109.79Z"/><path class="cls-10" d="M168.26,106c-6,5.9-15,11.26-28.62,14.57l-5.73-6.36A46.21,46.21,0,0,1,147.45,87.9h0c6.81-6.43,17-11.7,32.17-12.47A37.52,37.52,0,0,1,168.26,106Z"/><path class="cls-11" d="M133.31,115.27c-3,.3,7.41-11.3,28.81-20C162.12,95.25,150.05,113.56,133.31,115.27Z"/><path class="cls-12" d="M168.26,106.22c-6,5.89-15,11.26-28.62,14.57l-5.73-6.36a46.18,46.18,0,0,1,13.54-26.35h0c-.22.27-8.5,10.28-5.67,20.74C141.79,108.82,155.8,109.43,168.26,106.22Z"/><path class="cls-13" d="M144.2,125c-.8,2.44-10.53.18-18.7,0-6.38-.1-11.34,2.31-13.49,1.23s-3.13-5.57-3.17-10.4c-.06-5.95,1.24-12.43,3.17-13.78,3.51-2.46,12.09,4.21,27.68,0,2.59-.7,4.32,7.25,4.83,14.13h0C144.8,120,144.71,123.42,144.2,125Z"/><path class="cls-14" d="M144.2,125c-.8,2.44-10.53.18-18.7,0-6.38-.1-11.34,2.31-13.49,1.23s-3.13-5.57-3.17-10.4c0,0,2.12,5,7.37,6s6.94-1.22,17.7-1,10.61-4.6,10.61-4.62h0C144.8,120,144.71,123.42,144.2,125Z"/><path class="cls-15" d="M114.2,103.45c8.5,2.27,17.61,1.4,23.56,0a16.42,16.42,0,0,1-10.21,3.5C121.3,107,114.2,103.45,114.2,103.45Z"/><path class="cls-15" d="M69.79,74.19S88.54,76.82,98,90.48C98,90.48,74.92,75,69.79,74.19Z"/><path class="cls-15" d="M175.25,77.52c1.21-.21-20.49,2.28-29.08,16.12C146.17,93.64,167,78.92,175.25,77.52Z"/><path class="cls-16" d="M67.17,157.84c-16.3,22.21-23.81,46.6-23.81,46.6a6.09,6.09,0,0,1-1.75-.87,5.33,5.33,0,0,1-1.47-1.65,5.59,5.59,0,0,1-.75-2.32s-.22-1.24-.69-3.18c-1-4-3.09-11.17-6.53-16.51-3.87-6-7.27-10.61-9.45-13.41-.6-.77-1.11-1.4-1.51-1.89l-.17-.2c-1.76-2.1,4.22-7.51,4.22-7.51l4.06,1.23C27.8,162.62,53,154.47,53,154.47S47,170.61,48.13,177Z"/><path class="cls-17" d="M232.38,164.41a169.88,169.88,0,0,0-11.13,15.5c-3.37,5.23-5.44,12.17-6.46,16.26,0,0,0,0,0,0-.52,2.07-.76,3.41-.76,3.41a5.63,5.63,0,0,1-.75,2.32h0a5.55,5.55,0,0,1-3.21,2.51,178.17,178.17,0,0,0-15.36-33.71l.5-7.91a41.1,41.1,0,0,0,15.69,4.74c3.93-3.85,2.38-14.94,2.38-14.94l10.83,5.51,4-1.23S234.15,162.31,232.38,164.41Z"/><path class="cls-15" d="M79.27,3.07c11.14-1.32,31.66,10.06,34.93,12.45,5.26,3.84-15.76,8.83-22.33,3.05S74.82,3.59,79.27,3.07Z"/><path class="cls-15" d="M168.26,18.57c-8.76-4.44-25.68,13.14-27,19.18s-5,26.81-2.1,26.81S173.44,21.2,168.26,18.57Z"/><path class="cls-15" d="M25.65,27.77C14.18,29.31,41.94,37,51.4,37.23S39.31,25.93,25.65,27.77Z"/><path class="cls-15" d="M13.3,85.57c-9.67,3.49,14.05,6.14,25,4.91S26.44,80.84,13.3,85.57Z"/><path class="cls-15" d="M202.49,48.27c-18.46,1.89-24.34,12.12-7.78,12.64s31.61-2.11,34.06-5.16S212.74,47.21,202.49,48.27Z"/></g></g></g></svg>