<svg xmlns="http://www.w3.org/2000/svg" xmlns:xlink="http://www.w3.org/1999/xlink" viewBox="0 0 206.95 256.17"><defs><style>.cls-1{isolation:isolate;}.cls-2{fill:url(#_79);}.cls-3{fill:url(#_79-2);}.cls-4{fill:url(#_474);}.cls-5{fill:url(#_474-2);}.cls-6{fill:url(#_185);}.cls-7{fill:url(#_138);}.cls-11,.cls-12,.cls-18,.cls-22,.cls-23,.cls-8{mix-blend-mode:multiply;}.cls-8{fill:url(#_48);}.cls-9{fill:url(#_138-2);}.cls-10{fill:url(#_79-3);}.cls-11{fill:url(#_122);}.cls-12{fill:url(#_48-2);}.cls-13{fill:url(#_185-2);}.cls-14{fill:url(#_474-3);}.cls-15{fill:url(#_474-4);}.cls-16{fill:url(#_166);}.cls-17{fill:url(#_474-5);}.cls-18{fill:url(#_48-3);}.cls-19{fill:url(#_474-6);}.cls-20{fill:url(#_79-4);}.cls-21{fill:url(#_474-7);}.cls-22{fill:url(#_128);}.cls-23{fill:url(#_128-2);}</style><linearGradient id="_79" x1="198.48" y1="149.93" x2="21.63" y2="265.41" gradientUnits="userSpaceOnUse"><stop offset="0" stop-color="#360217"/><stop offset="1" stop-color="#160221"/></linearGradient><linearGradient id="_79-2" x1="216.45" y1="147.07" x2="107.65" y2="218.12" xlink:href="#_79"/><linearGradient id="_474" x1="237.86" y1="144.9" x2="111.53" y2="227.4" gradientUnits="userSpaceOnUse"><stop offset="0" stop-color="#721e24"/><stop offset="1" stop-color="#510036"/></linearGradient><linearGradient id="_474-2" x1="215.81" y1="161.16" x2="106.55" y2="232.51" xlink:href="#_474"/><linearGradient id="_185" x1="-20.3" y1="234.96" x2="16.59" y2="215.38" gradientUnits="userSpaceOnUse"><stop offset="0" stop-color="#850e3b"/><stop offset="1" stop-color="#39002e"/></linearGradient><linearGradient id="_138" x1="75.34" y1="103.55" x2="75.34" y2="282.29" gradientUnits="userSpaceOnUse"><stop offset="0" stop-color="#5c0b11"/><stop offset="1" stop-color="#510036"/></linearGradient><linearGradient id="_48" x1="75.34" y1="189.05" x2="75.34" y2="211.12" gradientUnits="userSpaceOnUse"><stop offset="0" stop-color="#8780e9"/><stop offset="1" stop-color="#fff"/></linearGradient><linearGradient id="_138-2" x1="49.53" y1="103.55" x2="49.53" y2="282.29" xlink:href="#_138"/><linearGradient id="_79-3" x1="94.29" y1="127.65" x2="-35.36" y2="212.32" xlink:href="#_79"/><linearGradient id="_122" x1="174.52" y1="76.68" x2="169.96" y2="205.57" gradientUnits="userSpaceOnUse"><stop offset="0" stop-color="#cb80e9"/><stop offset="1" stop-color="#fff"/></linearGradient><linearGradient id="_48-2" x1="171.77" y1="180.45" x2="171.77" y2="201.23" xlink:href="#_48"/><linearGradient id="_185-2" x1="172.68" y1="21.47" x2="156.29" y2="43.7" xlink:href="#_185"/><linearGradient id="_474-3" x1="103.73" y1="-11.67" x2="122.56" y2="25.68" xlink:href="#_474"/><linearGradient id="_474-4" x1="148.97" y1="79.47" x2="-55.52" y2="37.12" xlink:href="#_474"/><linearGradient id="_166" x1="87.88" y1="27.7" x2="60.55" y2="134.27" gradientUnits="userSpaceOnUse"><stop offset="0" stop-color="#260303"/><stop offset="1" stop-color="#350438"/></linearGradient><linearGradient id="_474-5" x1="46.43" y1="152.46" x2="116.55" y2="203.28" xlink:href="#_474"/><linearGradient id="_48-3" x1="15.16" y1="122.03" x2="35.5" y2="135.39" xlink:href="#_48"/><linearGradient id="_474-6" x1="70.89" y1="42.02" x2="25.09" y2="192.62" xlink:href="#_474"/><linearGradient id="_79-4" x1="200.93" y1="73.91" x2="151.95" y2="105.89" xlink:href="#_79"/><linearGradient id="_474-7" x1="159.61" y1="62.17" x2="225.18" y2="280.73" xlink:href="#_474"/><linearGradient id="_128" x1="57.92" y1="32.54" x2="57.92" y2="260.18" gradientUnits="userSpaceOnUse"><stop offset="0" stop-color="#ae30e9"/><stop offset="1" stop-color="#fff"/></linearGradient><linearGradient id="_128-2" x1="180.5" y1="32.54" x2="180.5" y2="260.18" xlink:href="#_128"/></defs><g class="cls-1"><g id="Layer_2" data-name="Layer 2"><g id="Avatar_face" data-name="Avatar face"><path class="cls-2" d="M77.85,155c0,5-2.83,81,3.38,93.57,0,0,76.51,10.43,78.85-.93.69-3.36,12.51-96.14,12.51-96.14Z"/><path class="cls-3" d="M175.29,118.25c-.4,24-9.51,99.69-8.14,124.47,0,0,12.47-.52,18.53-29.31s9.06-68.64,2.78-82.65-15.87-19.6-15.87-19.6Z"/><path class="cls-4" d="M190.58,101.93c10.69,26.74,5.72,132,.93,143.33s-12.68,9.14-13.51,6.58c-.66-2,6.2-69.37,6.25-106,0-9.77-.46-17.35-1.69-20.91Z"/><path class="cls-5" d="M168.51,138.61c-6.83,49.65-12.77,101-8.43,109s10.63-12.5,15.24-45.8c2.69-19.51,7.5-65.73,7.5-65.73Z"/><path class="cls-6" d="M51.92,139.07c-6.83,29.15-11.21,74.63-7.32,100.42,1.69,11.2,4.59,15,8.92,13.78S66.67,234,65.13,208.75s7.67-75.5,7.67-75.5Z"/><path class="cls-7" d="M80.73,208.75C82.27,234,73.45,252,69.12,253.27s-2.3-1.6-4-12.8a293.2,293.2,0,0,1-2.74-34.9c-.56-22.68.82-48.06,5.14-66.5l20.87-5.82S79.19,183.47,80.73,208.75Z"/><path class="cls-8" d="M80.73,208.75c-3-11.62-16.9-3.8-18.34-3.18-.56-22.68.82-48.06,5.14-66.5l20.87-5.82S79.19,183.47,80.73,208.75Z"/><path class="cls-9" d="M57,101.74c-19.64,46-24.22,124.78-22.84,137.75S41,258,43.73,255.65s3.18-46.55,10-68.36c4.66-14.9,8.27-48.33,10.08-68,.84-9.12,1.3-15.29,1.3-15.29Z"/><path class="cls-10" d="M51.92,131c-6.83,42.68-17.77,108.49-17.77,108.49s-14.63-91-9.46-111.45S47.24,85.82,47.24,85.82Z"/><path class="cls-11" d="M182.82,136.1s-2.44,23.49-4.82,44c-1,8.28-1.91,16.09-2.68,21.69-4.61,33.3-10.91,53.82-15.24,45.8-2.4-4.43-1.65-22.11.65-45.42,1.85-18.86,4.73-41.4,7.78-63.6Z"/><path class="cls-12" d="M182.82,136.1s-2.44,23.49-4.82,44c-11.48-2.75-17.27,22.07-17.27,22.07,1.85-18.86,4.73-41.4,7.78-63.6Z"/><path class="cls-13" d="M146.68,23.22C159.77,25.37,176.56,39.9,178,46.29s-19.35,6.83-19.35,6.83a89.1,89.1,0,0,1-8.34-9.75C147.56,39.33,146.68,23.22,146.68,23.22Z"/><path class="cls-14" d="M150.26,43.37s9.81-17,3.79-21.69c-15-11.61-45.45-11.61-45.45-11.61L85.05,18.69l8.62,8.67s24.29,2.46,35.22,5.16,10,10.85,10,10.85S145.7,49.94,150.26,43.37Z"/><path class="cls-15" d="M102.57.91C116.7,6.18,140,30.77,142.87,45.75c0,0-8.25,1.31-17.49-4.61,0,0-17.26-15.18-22.81-19S65.6,22.22,51,28,8.31,119.4,8.31,119.4s-5.57-44.15.35-61.88S20.5,18.68,26,14.89,89.9-3.8,102.57.91Z"/><path class="cls-16" d="M133.53,44.83C128,35,108.18,16.58,97.81,13.84S60.14,20,51,25.8s-28.16,31-28.88,85.11c0,0,12.06-4.63,17.23,5.15,0,0,1.38-28.46,14.75-50.06C60.58,55.58,74.4,46.89,96,43.37c10.07-1.65,8.78-.59,16.06,1.78S134.48,46.52,133.53,44.83Z"/><path class="cls-17" d="M41.75,239.1c-3.53,4.6-11.35.52-15.5-14-1.15-4-2.36-7.89-3.56-11.85C17.28,195.47,12,176.41,12.91,143c1.51-53.31,25.36-91.25,25.73-91.84C32,66.53,30.85,98.08,32,127.1c.91,22.46,3.21,43.4,5.45,54.17C42.61,206,46.25,233.23,41.75,239.1Z"/><path class="cls-18" d="M32,127.1h0c-9.7,1.94-16.56,46.33-10.4,77a55.08,55.08,0,0,1,1.07,9.21C17.28,195.47,12,176.41,12.91,143c1.51-53.31,25.36-91.25,25.73-91.84C32,66.53,30.85,98.08,32,127.1Z"/><path class="cls-19" d="M28.69,36.26c-6.75,9.85-22.64,65.63-25.37,88.61S-2,210.12,2.26,229.93s15,12.62,17.71,0c1.05-4.8-4-36.21-4-79s18-95.63,27.19-103S67,36.64,93.06,45.15c0,0,17.89,5.17,22.78,1.14A59.36,59.36,0,0,0,75.34,25.8C42.33,23.26,31.91,31.55,28.69,36.26Z"/><path class="cls-20" d="M172.59,78c5.36,6.08,6.88,11.23,7.84,18.48.35,2.65-.1,22.89-.1,22.89s3.21-14,13.69-17.66c0,0-4.59-31.7-6.65-37S169,60,167,64.69C165.77,67.54,172.59,78,172.59,78Z"/><path class="cls-21" d="M154.4,51.14c-1.9.61,4.2,12.89,12.61,19.64,1.68,1.36,7.36-3.64,12.46.58s9,22.55,12.47,64.74c1.83,22.47-10.18,105.14-9.74,109.16s13.54,1.66,17.23-9.68,5.52-55.05,7.34-78.35-10.49-90.11-17.16-99.65S167.48,46.91,154.4,51.14Z"/><path class="cls-22" d="M115.83,46.29c-4.88,4-22.77-1.13-22.77-1.13C67,36.64,52.38,40.61,43.14,48c-2,1.59-4.44,5.35-7,10.7-8.38,32-3.38,99.92,1.34,122.62,5.14,24.69,8.78,52,4.28,57.83-3.53,4.6-11.35.52-15.5-14-2.84-9.9-6.08-19.29-8.66-30.38C19,214.11,20.61,227,20,229.93c-2.76,12.63-13.45,19.81-17.71,0S.59,147.85,3.32,124.87c.62-5.18,1.9-12,3.6-19.64-1.14-14.5-2-36.44,1.74-47.71C14.58,39.79,20.5,18.69,26,14.89a12.07,12.07,0,0,1,2.12-1.05h0c-4,7.73,25.36,1.7,49.75,1.75,0,0-16,1.69-26.83,10.21,0,0,2.43,5.35,21.79,8s23.9.62,23.9.62A97.87,97.87,0,0,0,86.37,27.7,58.79,58.79,0,0,1,115.83,46.29Z"/><path class="cls-23" d="M206.77,157.23c-1.82,23.3-3.64,67-7.34,78.34a17.1,17.1,0,0,1-7.92,9.69h0c-4.78,11.31-12.68,9.14-13.51,6.58-.66-2,6.26-61,6.3-97.59,0,0,6.51-8.38,8.35-10.12L189,106.52c-2.72-21.62-5.81-32.1-9.5-35.16-5.11-4.22-10.79.78-12.47-.58-8.41-6.75-14.51-19-12.61-19.64a48,48,0,0,1,7.95-1.85h0c-3.75,3.83,15.82,13,21.7,15.4s5.56-7.11,5.56-7.11C196.28,67.12,208.59,133.93,206.77,157.23Z"/></g></g></g></svg>