<svg xmlns="http://www.w3.org/2000/svg" xmlns:xlink="http://www.w3.org/1999/xlink" viewBox="0 0 195.7 137.26"><defs><style>.cls-1{isolation:isolate;}.cls-2{fill:url(#_185);}.cls-10,.cls-3,.cls-8,.cls-9{mix-blend-mode:multiply;}.cls-3{fill:url(#_48);}.cls-4{fill:url(#_79);}.cls-5{fill:url(#_79-2);}.cls-6{fill:url(#_79-3);}.cls-7{fill:url(#_79-4);}.cls-8{fill:url(#_48-2);}.cls-9{fill:url(#_48-3);}.cls-10{fill:url(#_48-4);}</style><linearGradient id="_185" x1="97.85" y1="-17.15" x2="97.85" y2="157.79" gradientUnits="userSpaceOnUse"><stop offset="0" stop-color="#850e3b"/><stop offset="1" stop-color="#39002e"/></linearGradient><linearGradient id="_48" x1="97.92" y1="8.52" x2="97.92" y2="132.06" gradientUnits="userSpaceOnUse"><stop offset="0" stop-color="#8780e9"/><stop offset="1" stop-color="#fff"/></linearGradient><linearGradient id="_79" x1="101.27" y1="-17.15" x2="101.27" y2="157.79" gradientUnits="userSpaceOnUse"><stop offset="0" stop-color="#360217"/><stop offset="1" stop-color="#160221"/></linearGradient><linearGradient id="_79-2" x1="19.08" y1="134.59" x2="19.08" y2="5.26" xlink:href="#_79"/><linearGradient id="_79-3" x1="189.97" y1="134.59" x2="189.97" y2="4.63" xlink:href="#_79"/><linearGradient id="_79-4" x1="3.57" y1="134.28" x2="3.57" y2="4.74" xlink:href="#_79"/><linearGradient id="_48-2" x1="40.09" y1="67.75" x2="40.09" y2="138.33" xlink:href="#_48"/><linearGradient id="_48-3" x1="12.65" y1="67.88" x2="12.65" y2="136.99" xlink:href="#_48"/><linearGradient id="_48-4" x1="183.76" y1="67.83" x2="183.76" y2="138.31" xlink:href="#_48"/></defs><g class="cls-1"><g id="Layer_2" data-name="Layer 2"><g id="Avatar_face" data-name="Avatar face"><path class="cls-2" d="M195.69,88.62c0,3.1-.11,6.16-.2,9.13a.62.62,0,0,1,0,.13c-.84,5.74-1.17,12.58-2.34,18.07-.88,4.2-1.42,3.74-4.2,5.21a1.21,1.21,0,0,0-.59,1.46c.13.38.26.77.38,1.17a1.23,1.23,0,0,1-.33,1.26c-3.23,3-7.21,6.8-11.43,6.8h-.27c-.58.15-.49,0-.92-.09a3.89,3.89,0,0,1-1.26-.84,4.28,4.28,0,0,1-.94-1.14c-.11-.15-.08-.36-.19-.52-2.86-4.43-10.33-14.89-11.39-22.65-.62-4.55,2.06-20,4-30.09.62-3.27,1.17-6,1.48-7.53.05-.22.09-.43.14-.64.1-.51.16-.79.16-.79-.8-3-15.33-17.57-18.76-18-12-1.53-34.38-2.46-49.76-2.61-15.37.15-37.79,1.08-49.76,2.61-1,.14-3.13,1.6-5.55,3.65a1.23,1.23,0,0,0-.43.94c0,1-.07,2.52-.22,4.31-.13,1.54-.3,3.27-.48,5.06-.47,4.6-1,9.5-1.08,12.05,0,.24,0,.36,0,.36a7.93,7.93,0,0,0,0,.93c1.45,12.63,7,23.2,7.5,31.85.64,11.23.52,18.29-5.54,27.87a1.24,1.24,0,0,1-.76.56c-4,.85-8.49-2.66-12.3-5.87-.26-.21-.51-.43-.76-.65a1.2,1.2,0,0,1-.42-1.09c.31-2.22,1.54-9-.76-16.29a1.23,1.23,0,0,0-2.4.21c-.71,6.12-1.41,12.23-2.16,18.33a1.23,1.23,0,0,1-2.06.75,68.46,68.46,0,0,0-9.66-7.62,1.23,1.23,0,0,0-1.71.4,24,24,0,0,1-5.41,5.38,1.21,1.21,0,0,1-1.67-.2c-1.3-1.61-2.86-4.7-3.48-11,0-.29-.13.19.31-2.4.81-4.78-1-7-.31-12.14C1.4,93.19.44,80.32.66,69.44.81,62.1,2.86,58,7,51.84c2.94-4.44,19.9-29.07,25.83-22a5.81,5.81,0,0,1,.61-.4,29.2,29.2,0,0,1,0-4.32h0c.42-4.62,2.41-7.16,8-10.35,6.93-4,13.1-6.46,18.14-.65h0a1.24,1.24,0,0,0,2.15-.51c0-.15.07-.3.11-.45h0c1.18-4,5.46-5.47,9.55-6.45C76.8,5.4,78.26,6.34,81.87,9a1.23,1.23,0,0,0,1.95-.84c.69-5.79,1.46-8.7,7.89-8,6.82.71,12.73.15,14.06,7.44a1.23,1.23,0,0,0,1.77.85c7.41-3.58,20.87-3.22,22.77,6a10.51,10.51,0,0,1,.23,2.08c.47-.42.92-.81,1.37-1.17h0c6-4.87,9.74-4.08,16.81-.74,5.66,2.67,7.93,3.56,8,9.08,0,.29,0,.59,0,.9a1.24,1.24,0,0,0,1.56,1.22l.46-.13h0c7.82-2,13.83,2.89,18.5,10,2.76,4.25.75,7.88,2.32,12.11,1.19,3.17,6.32,6.47,8.62,9.52C194.74,66,195.76,77.5,195.69,88.62Z"/><path class="cls-3" d="M195.49,97.77v.09c-.84,5.75-1.17,12.59-2.34,18.09-.91,4.32-1.46,3.7-4.46,5.35a.86.86,0,0,0-.43,1c.2.56.16,1.13.36,1.73a.72.72,0,0,1-.21.77c-3.24,3-7.4,6.91-11.69,6.91h0a.93.93,0,0,1-.93,0c-.26-.14-.33-.37-.57-.5-.7-.38-1-.31-1.66-1.67h0c-2.74-4.28-10.46-15-11.54-22.88-.62-4.55,2.06-20,4-30.09.86-4.48,1.55-7.88,1.73-8.75l0-.43C166.31,64,152.34,50,149,49.55c-12-1.53-34.38-2.46-49.76-2.61-15.37.15-37.79,1.08-49.76,2.61-1.06.14-3.2,1.65-5.67,3.75a.86.86,0,0,0-.31.68c.06,1.83-.3,5.57-.7,9.53-.57,5.58-1.25,11.61-1,13.34,1.45,12.63,7,23.2,7.5,31.85.65,11.28.52,18.35-5.62,28a.86.86,0,0,1-.54.39c-4.41,1-9.32-3.19-13.36-6.61a.86.86,0,0,1-.31-.73c.2-2.12,2.53-10.28-1.3-18a.87.87,0,0,0-1.64.29c-.8,6.83-1.57,13.65-2.42,20.46a.87.87,0,0,1-1.47.51,68.86,68.86,0,0,0-10.52-8.32.89.89,0,0,0-1.21.27c-1.43,2.14-2.95,2.7-4.34,3.82-1.13.92-2.82,1.57-3.41.24a46.33,46.33,0,0,1-2-5.45c-.79-2.56-.49-3.69-.34-7.78a79,79,0,0,0-.64-10.84l.73-1.42s0-22.69.24-33.57C1.27,62.6,2.86,58,7,51.84c.55-.84,1.6-2.39,3-4.32a.87.87,0,0,1,1.58.51c-.1,8.16-2.84,25.07.91,25.81,5.18,1,11.85-14.38,16-19.05,1.87-2.12,5.91-12.38,4.38-17.65-1.91-6.56-2.85-8-3.09-8.53h0a3.42,3.42,0,0,1,3.09,1.25,5.81,5.81,0,0,1,.61-.4,20.53,20.53,0,0,1,.52-7,.87.87,0,0,1,1.56-.24c2.55,3.91,6.91,12.68,8.67,16.15,2.2,4.32,13,.35,16-3.8,2.31-3.31-2.33-15.88-4.56-21.73a.87.87,0,0,1,1.26-1,11.19,11.19,0,0,1,3.22,2.91.87.87,0,0,0,1.54-.42,7.55,7.55,0,0,1,.55-2,.88.88,0,0,1,1.65.17c1.31,5.82,4.74,21,6.43,26.78,2.11,7.25,11.13-.94,14.34-8.3C87,25.48,83.35,16.12,81,10.33a.87.87,0,0,1,1.32-1l0,0a.88.88,0,0,0,1.38-.61c.34-2.93.65-5.18,1.6-6.65a.86.86,0,0,1,1.57.36C88.77,14.72,95.46,42.69,99,36.14c3.89-7.21,4.81-22,4.72-29.8a.87.87,0,0,1,1.69-.3A12,12,0,0,1,105.84,8a.87.87,0,0,0,1.26.65c.38-.2.78-.38,1.19-.56a.87.87,0,0,1,1.22.77c.11,4.26,1.11,17.21.95,22.66-.16,4.94,6.37,14.34,13.15,8.47,6-5.16,5.3-24.58,5.06-29.23a8.92,8.92,0,0,1,1.72,4.08.88.88,0,0,0,1.43.55,16.66,16.66,0,0,1,5-3,.81.81,0,0,1,1.14.82c0,6.64.21,29.21,8.35,25.82,4.53-1.89,9.19-9.48,9.86-19.07a12.14,12.14,0,0,1,.61,5.06.88.88,0,0,0,1.13.88,13.62,13.62,0,0,1,6.1-.6.87.87,0,0,1,.71,1c-.68,4.71-3.46,17.31,0,21.3s10.69-8.31,12.61-11.89h0c1.69,2.59,1.59,5,1.62,7.36l-.08.39c-3.65,7.62-6.48,13.45-6.85,14.2l-.06.18c-2.14,9.3.74,22.57,7.71,22.57,2.11,0,4.46-18.42,4.62-19.77v-.16c-.14-2.26-1.74-5.15-2.92-7.59a.87.87,0,0,1,1.41-1,57.56,57.56,0,0,1,5.48,5.43C196.57,68.37,195.89,84.17,195.49,97.77Z"/><path class="cls-4" d="M167.59,68.36c.1-.51.16-.79.16-.79-.8-3-15.33-17.57-18.76-18-12-1.53-34.38-2.46-49.76-2.61-15.37.15-37.79,1.08-49.76,2.61-1.11.15-3.39,1.78-6,4h0a83.56,83.56,0,0,1-.68,9.92c-.47,4.6-1,9.5-1.08,12.05,0-2.07.13-12.59,0-17.14-.13-5.05-8.93-28.57-8.93-28.57a5.81,5.81,0,0,1,.61-.4,28.53,28.53,0,0,1,0-4.27s0,0,0,0c.61,1,9.91,15.77,12,19.53s17.42,5.31,20.2.65-6.12-31.22-6.12-31.22a18.79,18.79,0,0,1,2,2.9s0,0,0,0a9.19,9.19,0,0,1,.21-3.85s6,28,8.1,31.79S81.06,46.37,86,46c4.72-.37,5.06-9.44,5.08-10.3,0,0,0,0,0,0,.4.88,5.28,11.26,8.44,10.43s4.1-4.87,4.22-5.38a0,0,0,0,1,0,0L105,44.42h0c.28,0,20.59,3.28,23.11-.78s2.19-29.29,2.19-29.29a10.51,10.51,0,0,1,.23,2.08c.47-.42.92-.81,1.37-1.17h0s2.62,29.16,6,31.36,9.92,1.3,13.07-3.37,5.77-19.65,5.77-19.65c0,.78,0,1.66-.08,2.65,0,0,0,0,0,0a16.16,16.16,0,0,1,2-.67s0,0,0,0c-.15.83-4.42,23.73,0,29.16s10.49.4,10.94,0c0,0,0,0,0,0C169.73,55.22,169.62,59,167.59,68.36Z"/><path class="cls-5" d="M26.84,108.79c0,.09-1.93,17-3,25.4a0,0,0,0,1,0,0,68.93,68.93,0,0,0-12.48-10s0,0,0,0c8.06-12,7.57-25.69,8.87-32.6,1.16-6.16,3.19-15.44,3.62-17.38,0,0,0,0,0,0-.33,2.74-2.21,20.21,3,34.58Z"/><path class="cls-6" d="M195.69,88.62c0,3.12-.11,6.21-.2,9.19h0c-.85,5.76-1.17,12.63-2.35,18.14-1,4.61-1.53,3.6-5.1,5.71h0a81.44,81.44,0,0,1-2.79-37.14c2.12-13.64,1.06-22.08.92-23.05a0,0,0,0,1,0,0c.59,1.16,7.19,14.29,9.51,27.17Z"/><path class="cls-7" d="M.2,104.72a0,0,0,0,1,0,0C1.39,93,.44,80.25.66,69.44c.15-7.32,2.19-11.37,6.28-17.55H7C6.86,53.49,4.47,88.07.2,104.72Z"/><path class="cls-8" d="M43.42,137c-4.16,1.26-8.79-2.37-12.74-5.7,0,0,0,0,0,0,8.88,1.22,13.94-10.41,14.91-17.13S38,86.94,39.23,78.38s2.26-10.11,2.51-20c0,0,1.23,3.3,1,5.09-.47,4.6-1,9.5-1.08,12.05,0,.24,0,.36,0,.36a7.93,7.93,0,0,0,0,.93c1.45,12.63,7,23.2,7.5,31.85.65,11.39.51,18.5-5.81,28.3Z"/><path class="cls-9" d="M1.4,124s0,0,0,0c8.58,2.52,9.83-6.7,12.25-10.58s2.8-29.28,10.23-39.52c0,0-1.12,6.34-1.8,8.36-4.2,12.5.08,36.18-16.72,47.93,0,0,1.56-.73.42-1.55A38.27,38.27,0,0,1,1.4,124Z"/><path class="cls-10" d="M186.53,67.07s0,0,0,0c-.45,2-8.82,39.57-6.89,49.15,1.89,9.39.18,14.49,0,15,0,0,0,0,0,0a48.08,48.08,0,0,0,6.56-4.41,5.07,5.07,0,0,0,1.79-5.41,110.5,110.5,0,0,1-3.26-15.25C182.81,91.57,187.61,76.07,186.53,67.07Z"/></g></g></g></svg>