<svg xmlns="http://www.w3.org/2000/svg" xmlns:xlink="http://www.w3.org/1999/xlink" viewBox="0 0 274.47 201.51"><defs><style>.cls-1{isolation:isolate;}.cls-2{fill:none;}.cls-3{fill:url(#_185);}.cls-10,.cls-12,.cls-13,.cls-15,.cls-17,.cls-18,.cls-4,.cls-6,.cls-7,.cls-9{mix-blend-mode:multiply;}.cls-4{fill:url(#_48);}.cls-5{fill:url(#_241);}.cls-6{fill:url(#_48-2);}.cls-7{fill:url(#_48-3);}.cls-8{fill:url(#_241-2);}.cls-9{fill:url(#_48-4);}.cls-10{fill:url(#_48-5);}.cls-11{fill:url(#_241-3);}.cls-12{fill:url(#_48-6);}.cls-13{fill:url(#_48-7);}.cls-14{fill:url(#_241-4);}.cls-15{fill:url(#_48-8);}.cls-16{fill:#ffd7b9;mix-blend-mode:soft-light;}.cls-17{fill:url(#_48-9);}.cls-18{fill:url(#_48-10);}</style><linearGradient id="_185" x1="137.23" y1="8.23" x2="137.23" y2="193.39" gradientUnits="userSpaceOnUse"><stop offset="0" stop-color="#850e3b"/><stop offset="1" stop-color="#39002e"/></linearGradient><linearGradient id="_48" x1="137.33" y1="163.95" x2="137.33" y2="-12.86" gradientUnits="userSpaceOnUse"><stop offset="0" stop-color="#8780e9"/><stop offset="1" stop-color="#fff"/></linearGradient><linearGradient id="_241" x1="129.2" y1="97.18" x2="129.2" y2="222.66" gradientUnits="userSpaceOnUse"><stop offset="0" stop-color="#a48b18"/><stop offset="1" stop-color="#402f40"/></linearGradient><linearGradient id="_48-2" x1="130.06" y1="95.3" x2="130.06" y2="202.09" xlink:href="#_48"/><linearGradient id="_48-3" x1="129.2" y1="99.57" x2="129.2" y2="186.81" xlink:href="#_48"/><linearGradient id="_241-2" x1="89.98" y1="74.62" x2="89.98" y2="130.67" xlink:href="#_241"/><linearGradient id="_48-4" x1="102.11" y1="111.74" x2="102.11" y2="73.87" xlink:href="#_48"/><linearGradient id="_48-5" x1="97.61" y1="106" x2="97.61" y2="77.82" xlink:href="#_48"/><linearGradient id="_241-3" x1="159.96" y1="74.62" x2="159.96" y2="130.67" xlink:href="#_241"/><linearGradient id="_48-6" x1="150.36" y1="113.08" x2="150.36" y2="73.55" xlink:href="#_48"/><linearGradient id="_48-7" x1="154.05" y1="104.55" x2="154.05" y2="76.4" xlink:href="#_48"/><linearGradient id="_241-4" x1="129.25" y1="67.6" x2="129.25" y2="150.14" xlink:href="#_241"/><linearGradient id="_48-8" x1="129.25" y1="114.95" x2="129.25" y2="95.23" xlink:href="#_48"/><linearGradient id="_48-9" x1="44.81" y1="133.16" x2="44.81" y2="194.07" xlink:href="#_48"/><linearGradient id="_48-10" x1="217.91" y1="131.63" x2="217.91" y2="194.8" xlink:href="#_48"/></defs><g class="cls-1"><g id="Layer_2" data-name="Layer 2"><g id="Layer_1-2" data-name="Layer 1"><rect class="cls-2" x="22.32" y="7.57" width="235.15" height="193.94"/><path class="cls-3" d="M274.26,102.85c-1.78,2.69-16.08,6.78-16.08,6.78,2.69,1.44,3.77,7,3.22,11.88-.32,2.88-1.22,5.49-2.68,6.83-8.19,7.48-34.83,7.08-34.83,7.08L215,172.31s-2.58,23.76-5.52,25.65-3.14-13.25-2.81-21.18,3.95-41.36,3.95-41.36-16.07-37.65-81.85-37.65-80.35,37.08-80.35,37.08,5.74,31.94,4.48,37-4.46,21.51-6.43,18.4c-3.78-5.94-2.2-15.93-2.2-15.93-.6-4.4-14-39.49-14-39.49-9.52-1.73-20-9.19-25.59-15.33-3-3.31-4.68-6.24-4.06-7.7,1.79-4.19,14.65-10.46,14.65-10.46S5.61,90.9,2,87A7.48,7.48,0,0,1,.19,83.77c-.84-3.25,1.1-7,6.92-10.72A64.57,64.57,0,0,1,22,65.88c-4.22-5.56-18-20.08-17.93-31.72A12,12,0,0,1,9,24.45c4.66-3.62,32-7.79,45.08-3C66.76,26.07,72.61,33.54,73,34a37.75,37.75,0,0,1-2.83-9.55C68.14,11.86,73.29,1.62,77.6.32,83-1.3,106.08,3.39,122.07,11.82a25.11,25.11,0,0,1,2.39,1.42,30.45,30.45,0,0,1,11.7,16s8.33-7,13.07-9.7c16.43-9.45,32.5-10.3,35-7.44,4,4.54,3.05,11.37,1.11,17.12a53.93,53.93,0,0,1-5,10.63A191.68,191.68,0,0,1,204.77,38c3.35,0,6.83,0,10.27.29,22.83,1.58,32.79,11.83,32.07,16.43a13.92,13.92,0,0,1-2.49,4.6h0c-4.84,6.8-15,17.23-15,17.23s2.76.36,7.44,1.28c3.86.76,9,1.89,15,3.5,7.2,1.94,13.29,6.79,17.3,11.43h0C273.2,97.26,275.13,101.54,274.26,102.85Z"/><path class="cls-4" d="M269.35,92.79h0c-23.13,10.85-115.73-3.07-115.73-3.07,17.53-11.22,78.79-11.91,83.43-11.86-4.68-.92-7.44-1.28-7.44-1.28s10.16-10.43,15-17.23C218.19,74,162.1,67.72,162.1,67.72,173.59,47.24,204.77,38,204.77,38a191.68,191.68,0,0,0-24.46,1.78,53.93,53.93,0,0,0,5-10.63s0,0,0,0c-30.06,48.45-46.07,55.49-55,57.81-5-33.29,5.83-57.81,5.83-57.81a30.45,30.45,0,0,0-11.7-16c0,.19,0,.39,0,.59-.86,16.58-18.18,28.28-29.88,25.54C84.35,37,70.13,24.45,70.13,24.45A37.75,37.75,0,0,0,73,34c-.35-.46-6.2-7.93-18.89-12.56C67,29.06,73.29,54.36,69,55.31c-4.48,1-27.2-3.5-40.19-6.73C8.13,43.44,4.06,34.16,4.06,34.16h0C3.94,45.8,17.76,60.32,22,65.88c36-.82,95.27,15.55,95.27,15.55S83,99.06,29.37,88.89C5.85,84.42.19,83.77.19,83.77A7.48,7.48,0,0,0,2,87c3.57,3.89,13.22,14.35,13.22,14.35a127.64,127.64,0,0,1,34.68,5.23c.21,4-33.43,16.13-45.27,12.93,5.63,6.14,16.07,13.6,25.59,15.33,0,0,13.45,35.09,14.05,39.49,0,0-1.58,10,2.2,15.93,2,3.11,5.17-13.32,6.43-18.4s-4.48-37-4.48-37S63,97.77,128.81,97.77s81.85,37.65,81.85,37.65-3.62,33.44-3.95,41.36-.12,23.08,2.81,21.18S215,172.31,215,172.31l8.85-36.89s26.64.4,34.83-7.08c1.46-1.34,2.36-4,2.68-6.83l-2.14.28c-20.37,2.66-40.31-9.42-40.31-9.42,22.19-6.11,39.23-2.74,39.23-2.74s14.3-4.09,16.08-6.78C275.13,101.54,273.2,97.26,269.35,92.79ZM116.18,67.72c-13,4.18-47.69-3.25-47.69-3.25S96.35,47,114,55.31C114,55.31,129.16,63.55,116.18,67.72Z"/><path class="cls-5" d="M237,140.2a149.79,149.79,0,0,0-11.35,13.22c-3.44,4.45-5.55,10.37-6.59,13.86,0,0,0,0,0,0-.52,1.77-.77,2.91-.77,2.91a4.2,4.2,0,0,1-.77,2h0a5.5,5.5,0,0,1-3.28,2.15,139.67,139.67,0,0,0-15.65-28.75c-13.53-19.27-36.17-41.15-69.34-41.35-26.92.16-46.91,14.61-60.71,30.35h0a142,142,0,0,0-24.28,39.74,6.67,6.67,0,0,1-1.78-.75,4.87,4.87,0,0,1-1.5-1.4,4.24,4.24,0,0,1-.76-2s-.23-1.06-.71-2.71c-1-3.46-3.15-9.53-6.66-14.08-3.94-5.11-7.41-9-9.63-11.44-.61-.66-1.13-1.19-1.54-1.61l-.18-.17c-1.79-1.79,4.31-6.41,4.31-6.41l4.13,1.06c13.6-17,32.26-27.71,49.8-34.45a183.29,183.29,0,0,1,48.39-11.13v-.16l1.12.07,1.13-.07v.16a184,184,0,0,1,44.77,9.79h0c18.56,6.63,38.86,17.61,53.41,35.79l4.14-1.06S238.75,138.41,237,140.2Z"/><path class="cls-6" d="M237,140.2a149.79,149.79,0,0,0-11.35,13.22c-3.44,4.45-5.55,10.37-6.59,13.86.32-1.55,6.31-33.53-32.27-52.95C150,95.83,129.5,93,104.93,103c-53.77,22-66.21,40.19-65.47,64.5-1-3.46-3.15-9.53-6.66-14.08-3.94-5.11-7.41-9-9.63-11.44,6.47,1.13,34.34-49.19,105.64-49.19s94.63,46.58,96.51,47.71S237,140.2,237,140.2Z"/><path class="cls-7" d="M217.47,172.19h0a5.5,5.5,0,0,1-3.28,2.15s-25.67-69.75-85-70.1c-59.31.35-85,70.1-85,70.1a6.67,6.67,0,0,1-1.78-.75l-1.5-1.4c.76-7.49,12.32-40.95,49.05-64.56L79.69,100.4a183.29,183.29,0,0,1,48.39-11.13v-.16l1.12.07,1.13-.07v.16a184,184,0,0,1,44.77,9.79h0s-5,.39-16.52,3.94C158.58,103,197.13,120.82,217.47,172.19Z"/><path class="cls-8" d="M114.39,93.47v9.38c-15.7-3.14-26.34-8.81-33.56-15-15.12-13-15.25-28.52-15.25-28.52s27,5.21,41.51,21.79h0A36.54,36.54,0,0,1,114.39,93.47Z"/><path class="cls-9" d="M87.78,81.22S103.6,96.75,116.45,103C116.45,103,99.84,83.87,87.78,81.22Z"/><path class="cls-10" d="M114.39,93.62V103c-15.7-3.14-26.34-8.81-33.56-15,6,3.17,17.78,8.53,23.29,5.66,7.49-3.89,3.1-12.15,3-12.39h0A36.54,36.54,0,0,1,114.39,93.62Z"/><path class="cls-11" d="M171.57,90.43c-6.12,5-15.33,9.6-29.18,12.42l-5.85-5.42S138.07,84.66,150.35,75h0c6.95-5.49,17.33-10,32.8-10.63C183.16,64.33,185.9,78.63,171.57,90.43Z"/><path class="cls-12" d="M135.94,98.29c-3.07.26,7.55-9.63,29.36-17.07C165.3,81.22,153,96.83,135.94,98.29Z"/><path class="cls-13" d="M171.57,90.57c-6.12,5-15.33,9.61-29.18,12.43l-5.85-5.43s1.53-12.76,13.81-22.46h0c-.23.23-8.67,8.77-5.78,17.68C144.58,92.79,158.87,93.31,171.57,90.57Z"/><path class="cls-14" d="M147,106.55c-.83,2.08-10.74.15-19.07,0-6.51-.09-11.57,2-13.76,1S111,102.88,111,98.76c-.06-5.07,1.26-10.59,3.23-11.75,3.58-2.1,12.33,3.59,28.23,0,2.63-.59,4.4,6.18,4.92,12.06h0C147.65,102.29,147.56,105.24,147,106.55Z"/><path class="cls-15" d="M147,106.55c-.83,2.08-10.74.15-19.07,0-6.51-.09-11.57,2-13.76,1S111,102.88,111,98.76a10.71,10.71,0,0,0,7.52,5.14c5.36.89,7.07-1,18-.9s10.82-3.92,10.82-3.94h0C147.65,102.29,147.56,105.24,147,106.55Z"/><path class="cls-16" d="M116.45,88.21a61.25,61.25,0,0,0,24,0,18.67,18.67,0,0,1-10.41,3C123.68,91.2,116.45,88.21,116.45,88.21Z"/><path class="cls-16" d="M71.17,63.27s19.11,2.24,28.75,13.89C99.92,77.16,76.39,64,71.17,63.27Z"/><path class="cls-16" d="M178.7,66.1c1.23-.17-20.9,2-29.65,13.75C149.05,79.85,170.3,67.3,178.7,66.1Z"/><path class="cls-17" d="M68.49,134.6a142,142,0,0,0-24.28,39.74,6.67,6.67,0,0,1-1.78-.75,4.87,4.87,0,0,1-1.5-1.4,4.24,4.24,0,0,1-.76-2s-.23-1.06-.71-2.71c-1-3.46-3.15-9.53-6.66-14.08-3.94-5.11-7.41-9-9.63-11.44-.61-.66-1.13-1.19-1.54-1.61l-.18-.17c-1.79-1.79,4.31-6.41,4.31-6.41l4.13,1.06c-1.54,3.82,24.18-3.13,24.18-3.13s-6.18,13.77-5,19.19Z"/><path class="cls-18" d="M237,140.2a149.79,149.79,0,0,0-11.35,13.22c-3.44,4.45-5.55,10.37-6.59,13.86,0,0,0,0,0,0-.52,1.77-.77,2.91-.77,2.91a4.2,4.2,0,0,1-.77,2h0a5.5,5.5,0,0,1-3.28,2.15,139.67,139.67,0,0,0-15.65-28.75l.51-6.75a48.36,48.36,0,0,0,16,4c4-3.29,2.43-12.74,2.43-12.74l11,4.7,4.14-1.06S238.75,138.41,237,140.2Z"/><path class="cls-16" d="M80.83,2.62c11.36-1.12,32.28,8.58,35.62,10.62,5.36,3.27-16.08,7.53-22.78,2.6S76.29,3.07,80.83,2.62Z"/><path class="cls-16" d="M171.57,15.84C162.63,12.05,145.38,27,144,32.19S139,55.05,141.9,55.05,176.85,18.08,171.57,15.84Z"/><path class="cls-16" d="M26.15,23.68C14.46,25,42.77,31.52,52.41,31.75S40.09,22.11,26.15,23.68Z"/><path class="cls-16" d="M13.56,73c-9.86,3,14.32,5.23,25.52,4.19S27,68.93,13.56,73Z"/><path class="cls-16" d="M206.47,41.16c-18.82,1.61-24.81,10.34-7.93,10.78s32.23-1.8,34.73-4.4S216.92,40.26,206.47,41.16Z"/></g></g></g></svg>