<svg xmlns="http://www.w3.org/2000/svg" xmlns:xlink="http://www.w3.org/1999/xlink" viewBox="0 0 219.89 312.07"><defs><style>.cls-1{isolation:isolate;}.cls-2{fill:url(#Áåçûìÿííûé_ãðàäèåíò_97);}.cls-11,.cls-3,.cls-4{mix-blend-mode:multiply;}.cls-3{fill:url(#Áåçûìÿííûé_ãðàäèåíò_123);}.cls-4{fill:url(#Áåçûìÿííûé_ãðàäèåíò_123-2);}.cls-5,.cls-9{fill:#ffd9bb;mix-blend-mode:soft-light;}.cls-6{fill:url(#Áåçûìÿííûé_ãðàäèåíò_100);}.cls-7{fill:url(#Áåçûìÿííûé_ãðàäèåíò_53);}.cls-8{fill:url(#Áåçûìÿííûé_ãðàäèåíò_100-2);}.cls-9{opacity:0.5;}.cls-10{fill:url(#Áåçûìÿííûé_ãðàäèåíò_59);}.cls-11{fill:#d177b8;opacity:0.6;}.cls-12{fill:url(#Áåçûìÿííûé_ãðàäèåíò_59-2);}.cls-13{fill:url(#Áåçûìÿííûé_ãðàäèåíò_59-3);}</style><linearGradient id="Áåçûìÿííûé_ãðàäèåíò_97" x1="109.94" y1="312.07" x2="109.94" y2="174.35" gradientUnits="userSpaceOnUse"><stop offset="0" stop-color="#c7544b"/><stop offset="1" stop-color="#b63651"/></linearGradient><linearGradient id="Áåçûìÿííûé_ãðàäèåíò_123" x1="19.54" y1="310.44" x2="19.54" y2="182.33" gradientUnits="userSpaceOnUse"><stop offset="0" stop-color="#ffeadb"/><stop offset="0.99" stop-color="#d177f4"/></linearGradient><linearGradient id="Áåçûìÿííûé_ãðàäèåíò_123-2" x1="116.17" y1="312.07" x2="116.17" y2="178.56" xlink:href="#Áåçûìÿííûé_ãðàäèåíò_123"/><linearGradient id="Áåçûìÿííûé_ãðàäèåíò_100" x1="101.8" y1="17.98" x2="101.8" gradientUnits="userSpaceOnUse"><stop offset="0" stop-color="#db6a4b"/><stop offset="1" stop-color="#b63651"/></linearGradient><linearGradient id="Áåçûìÿííûé_ãðàäèåíò_53" x1="111.13" y1="42.88" x2="111.13" y2="5.03" gradientUnits="userSpaceOnUse"><stop offset="0" stop-color="#b63651"/><stop offset="1" stop-color="#db6a4b"/></linearGradient><linearGradient id="Áåçûìÿííûé_ãðàäèåíò_100-2" x1="109.94" y1="182.62" x2="109.94" y2="34.58" xlink:href="#Áåçûìÿííûé_ãðàäèåíò_100"/><linearGradient id="Áåçûìÿííûé_ãðàäèåíò_59" x1="82.18" y1="183.61" x2="82.18" y2="53.3" gradientUnits="userSpaceOnUse"><stop offset="0" stop-color="#d23651"/><stop offset="1" stop-color="#ff7a4b"/></linearGradient><linearGradient id="Áåçûìÿííûé_ãðàäèåíò_59-2" x1="164.86" y1="144.46" x2="164.86" y2="73" xlink:href="#Áåçûìÿííûé_ãðàäèåíò_59"/><linearGradient id="Áåçûìÿííûé_ãðàäèåíò_59-3" x1="77.99" y1="138.69" x2="77.99" y2="65.11" xlink:href="#Áåçûìÿííûé_ãðàäèåíò_59"/></defs><g class="cls-1"><g id="Layer_2" data-name="Layer 2"><g id="layer1"><path class="cls-2" d="M219.44,290.63c-1.6,6.29-7.2,11.35-12.76,14.94-1.4.91-2.81,1.75-4.15,2.46a66.26,66.26,0,0,1-8.81,4l-35.9-.19H155c-44.25-.24-111.82-.73-121.18-1.44-2-.14-4.1-.36-6.23-.67-1.83-.22-3.68-.53-5.5-.89-10.86-2.11-21-6.17-22-12.75-1.36-9,6.72-14.88,9.06-26.94s-7.72-17.94-9-35.38c-1-13.94,10-38.42,14.52-47.7,0,0,0,0,0-.06,1.11-2.3,1.8-3.64,1.8-3.64s.31,0,.9-.08c1.5-.16,4.85-.5,9.64-1,7.77-.73,19.3-1.77,32.78-2.82,52.05-4.1,132.9-8.41,136.49,3.85a55.66,55.66,0,0,0,4,10.26l0,0c.73,1.44,1.51,2.7,2.26,3.89a.24.24,0,0,1,.06.11c3.61,5.64,7.39,9.8,11,22.83,5.83,20.95-4.85,34.61-6.78,43.26S222.89,277,219.44,290.63Z"/><path class="cls-3" d="M33.83,310.44l-6.23-.67-4.06-.43s-.55-.14-1.44-.46c-3.7-1.34-13.16-5.6-12.93-14.11.28-10.58,16.3-10.45,16.42-24.93S2.75,245.44,5.47,223.18c1.77-14.58,6.33-28.91,9.26-37.07,0,0,0,0,0-.06,1.11-2.3,1.8-3.64,1.8-3.64s.31,0,.9-.08c-2.74,7.07-8.91,25-8.24,43.52.87,23.73,17.41,30.66,18.57,43.73s-10.66,18.71-10.27,27.06S33.83,310.44,33.83,310.44Z"/><path class="cls-4" d="M207.51,226.63c-1.91,22.12-15.84,34.22-13.79,53.57s13.65,20.66,13,25.37L202.53,308s1.81-2-7.71-16.18,6.29-41.64,9-55.09c2.62-13.1-7.24-33.82-7.79-35,.34.91,6.23,17.4-9.18,41.41-15.85,24.7-22.24,35.06-17.64,46s24.54,22.88,24.54,22.88l-6-1.83s-24.48-14.64-22.41-31.81,20.84-33.72,24.13-52.58,0-26.65,0-26.65l-3.81,1.55s-1.1,17.68-14.7,43.84-13.17,46.73-3.31,58.81l-2.44-1s-15.12-21.84-10-37.47,14.45-24.82,20.32-34.2S180,208.4,180,208.4s-12.71,29.11-25.8,45.06-3.47,40.88-3.47,40.88l7.13,17.54.08.19-2.89-.19-81.54-5.44s-20.74-45.1-7.28-70.23L61.64,231S51,257.18,47.51,277.29s4.77,26.45,4.77,26.45l-1.5,3.09S40.12,290,45.5,271.73,59.35,237.28,59.14,231L46.9,216.94l-4.77-30H32.77s-5.42,15.69,2,44-5.7,55.9-3.93,65.65a13.64,13.64,0,0,0,10.51,11.22L38.13,309s-13.94-11.79-13.56-17.9,12.79-21.22,11.29-41.6-8.22-35.56-7-49.79,3-17.09,3-17.09l-4.77-1.24c7.77-.73,19.3-1.77,32.78-2.82l138.87,11.06h0c.16.2,2.76,4.59,3.92,7a.24.24,0,0,1,.06.11C205.25,201.88,208.79,212,207.51,226.63Z"/><path class="cls-5" d="M206.46,266.83s9.08,11.35,11.25,16a11.67,11.67,0,0,1,.86,8.3s-1.53-4.17-5.86-3.4-12.6,5-12.6,5-4.32-7-3.56-11.25c0,0,9.86-2.5,11.23-5.29S206.46,266.83,206.46,266.83Z"/><path class="cls-5" d="M174.89,284.9a21,21,0,0,0,4.23,11.41s7.71-5.22,15.61-2.66c0,0-4.48-6.52-3.69-10.54C191,283.11,181.77,284.53,174.89,284.9Z"/><path class="cls-5" d="M4.31,284.84H11s-5.39,10.64-1.92,18.72a12.82,12.82,0,0,1-7.73-5.93C-1.26,292.85,4.31,284.84,4.31,284.84Z"/><path class="cls-5" d="M20,300.93s-3.91-7.5,1.66-13.14l2.89-.84a21.43,21.43,0,0,0,1.22,12.34Z"/><path class="cls-5" d="M209.57,222.15s.64,7.12-4.23,21.06c0,0,6.94-.83,8.39-3.76s0-13.71,0-13.71Z"/><path class="cls-5" d="M2.71,240.77l2.54-.48s-2.95-16.64,0-26C5.25,214.33-3.44,228.17,2.71,240.77Z"/><path class="cls-6" d="M91.72,18S84.05,6.63,93.48,1.25s21.34,8.37,21.34,8.37Z"/><path class="cls-7" d="M77.94,42.88s-19.8-8.33-8.77-21.71c0,0,2.88,18.58,13,19.91,0,0-9.86-15.21,13.6-29.64s33.85,0,33.85,0,23.08,4.92,9.47,28.92c0,0,25-32.89,1.68-35.33,0,0,34.53,1.52,1,36.46Z"/><path class="cls-8" d="M192.12,147.4s-1.63-11.9-4.9-25.62a188.38,188.38,0,0,1,0,23.06s0-.14,0-.38c-.81-4.77-9.48-52.84-45.36-71.46l-.07,0,2.42-1.93-8.08-4.42,1.16,6-5.48-3.37.38,2.7-.08,0-.1,0a.38.38,0,0,0-.18-.08c-3.11-.92-25.05-6.89-48.11,3.3a72.13,72.13,0,0,0-33.11,29.21s0,0,0,.05a82.54,82.54,0,0,0-11,35.6c-2.15,25.74.73,39,1.72,42.65A251.53,251.53,0,0,1,32.81,148a.07.07,0,0,0,0-.06c-.45-2.72-.85-5.46-1.18-8.22L29.24,149S16,121.07,19.82,97.56s54-63,92.28-63S192,74.36,199.12,92C205.29,107.35,192.12,147.4,192.12,147.4Z"/><path class="cls-9" d="M187.66,123.64S201,113.56,199.12,92l-1.67-3.44a37.6,37.6,0,0,1-10.6,31.65Z"/><path class="cls-9" d="M184.13,106.11s5.91-18.19,2.72-32.42l-12-10.86s3.7,13.13-1.06,26.67C173.82,89.5,182.05,100.89,184.13,106.11Z"/><path class="cls-9" d="M157.14,49.69s7.79,15.41,8.06,31.56l-1.42-1.12S162.61,60.91,153,47.19Z"/><path class="cls-9" d="M73.09,74.71s2.64-21.94,18.63-36.93l-3.41,1.06S75.59,51.38,72.13,75.74Z"/><path class="cls-9" d="M69.17,47.19S64.05,58.94,67,80.35l-3.33,4.12s-8-15-6.31-30.18Z"/><path class="cls-9" d="M29.24,79.35s-1,19.21,20.58,20.75V102S28.37,106,25.54,84.47Z"/><path class="cls-9" d="M19.13,106.11s-.33,11.55,24,8.22l-2.82,7.43S27,123.42,19.12,113.94Z"/><path class="cls-10" d="M132.13,71.93l-.08,0-.1,0c-3.08-.67-38.72-23.22-70.56,7.46-9,8.67-14.17,32.73-17.15,45.54-.22.85-.41,1.68-.57,2.51s-.3,1.55-.47,2.3l-.42,2.41a4.2,4.2,0,0,0-.08.47v0c-4.27,25.11-1.26,49.57-1.1,51a.12.12,0,0,1,0-.08s0-.06,0-.1A136.23,136.23,0,0,1,32.81,148a.07.07,0,0,0,0-.06c-5.64-56.68,33-90.72,57-94.13A43.12,43.12,0,0,1,132.13,71.93Z"/><path class="cls-11" d="M132.05,71.91l-.1,0c-3.08-.67-44-8.77-70.84,18.85C52.4,99.7,46.7,112,44.24,124.89c1.82-9.56,3.27-18.76,3.27-18.78,6.6-17.21,12.38-31,30.52-37.94,23.83-9.12,49.92,2.28,53.74,3.64Z"/><path class="cls-11" d="M187.16,144.46c-.81-4.77-9.48-52.84-45.36-71.46,1.29.37,22.06,6.48,32,21.52C183.45,109.07,186.78,140.56,187.16,144.46Z"/><path class="cls-9" d="M83.59,40.53S98,7.15,129.63,11.44l-1.9-1.94S87.24,6.93,82.18,41.08Z"/><path class="cls-9" d="M93.23,37.34s17.82-29.09,43.23-22.91l1.42,1S112.55,7.87,96.16,36.59Z"/><path class="cls-9" d="M114.17,34.62S124.75,18.89,143,23.34l.33,2.12s-8.3-4.67-27.78,9.12Z"/><path class="cls-12" d="M141.8,73s23,1.25,36.48,17.83,8.88,53.63,8.88,53.63S189.57,88.58,141.8,73Z"/><path class="cls-13" d="M114.17,65.19S83.76,62.93,65.83,81.8,42.7,132.58,42.7,132.58l-.9,6.11s8-40.67,24-54.22C88.78,65.11,114.17,65.19,114.17,65.19Z"/><path class="cls-5" d="M65.62,65.11s7.17-5.6,12.58-7.72c0,0,2.56,8.6,3.72,8.87L70.46,71.87S70.46,66.37,65.62,65.11Z"/><path class="cls-5" d="M114.17,18.4s4.69-1.32,8,0a11.35,11.35,0,0,1,5,4.15s6.73-1.68,9-1.4c0,0-5.69-5.56-12.88-5.92A32.8,32.8,0,0,0,114.17,18.4Z"/><path class="cls-5" d="M111.65,13.17a14.32,14.32,0,0,0,3.17,2.57c1.19.48,7.37-1.83,7.37-1.83s-.7-1.86-3.78-2A20.89,20.89,0,0,0,111.65,13.17Z"/></g></g></g></svg>