<svg xmlns="http://www.w3.org/2000/svg" xmlns:xlink="http://www.w3.org/1999/xlink" viewBox="0 0 245.39 206.92"><defs><style>.cls-1{isolation:isolate;}.cls-2{fill:url(#Áåçûìÿííûé_ãðàäèåíò_69);}.cls-3{fill:#d177b8;opacity:0.9;mix-blend-mode:multiply;}.cls-4{fill:#ffd4e0;mix-blend-mode:soft-light;}</style><linearGradient id="Áåçûìÿííûé_ãðàäèåíò_69" x1="122.7" y1="206.92" x2="122.7" y2="0.02" gradientUnits="userSpaceOnUse"><stop offset="0" stop-color="#471f4b"/><stop offset="1" stop-color="#310a39"/></linearGradient></defs><g class="cls-1"><g id="Layer_2" data-name="Layer 2"><g id="layer1"><path class="cls-2" d="M245.31,138.58a16.18,16.18,0,0,1-1.25,4.48,63.19,63.19,0,0,1-5.78,10.41,223.28,223.28,0,0,1-17.94,22.8c.14-.39,1.51-4,1.15-6.36l-5.34,6.42,0,.06c-4.32,5.17-9.78,11.58-10.56,11.92-1.3.6-14.11,6-14.11,6a101.85,101.85,0,0,1-12,12.59h-4.07s24.19-39.3,23.23-71.68-9.71-77.55-14.89-91.37a75.55,75.55,0,0,1,2.13,16.58L157,58.33s2.91-23.64-3.11-32.95c0,0,2.93,20.92,1.37,33.31l-21.69-3.08s.3-32.81-7.24-43.26L120.35,14s-10.92,17.38-9.89,45.79L96.77,61.86s-1-20.65,6.47-38.48c0,0,0,0,0,0s-.09.12-.11.18c-.45.8-2.1,3.7-4,8a.27.27,0,0,0-.07.18c-3.47,7.73-7.81,19.84-7.64,31.94H70.94l-1-13.31L68.23,63.68l-6.32.9s-3.42,34.83-8,60.21c-4.5,24.87,6.89,72.58,17.57,81.62a5.79,5.79,0,0,0,.65.51H63.38a70.34,70.34,0,0,1-8.94-6.09.72.72,0,0,1-.2-.14c-.88-.72-1.8-1.5-2.72-2.29l-.17-.17A50.85,50.85,0,0,1,44,190.15a27.22,27.22,0,0,1-4.5-9.71,100.93,100.93,0,0,0,5.91,20.29S34.32,186.08,29.29,179c-2.83-3.95-12.7-12.62-20.41-25.56l0-.07a69.39,69.39,0,0,1-4-7.52A64.15,64.15,0,0,1,0,130.38s16.69-31,27.55-56c4.58-10.57,8-22.19,12-32.95,0-.1.06-.2.1-.3.11-.27.19-.53.31-.8.45-1.19.9-2.35,1.37-3.52.39-.94.78-1.86,1.19-2.76.86-2.11,1.78-4.15,2.78-6.13.33-.66.65-1.31,1-1.93.12-.26.23-.47.31-.61s0-.06,0-.1h0v0a.07.07,0,0,1,0,0v0a0,0,0,0,0,0,0C51,17.44,56.26,11,63.58,6.87A52.79,52.79,0,0,1,95.1.25c.37,0,.71,0,1.06.08,10.51,1,19.76,4,27.57,3.84,5.15-.1,13.11-.69,21.88-1h0a180.61,180.61,0,0,1,24.75.57.58.58,0,0,0,.18,0c8.76.94,16.55,3,21.25,6.79a48.87,48.87,0,0,1,9.9,11.52s.06.06.06.1a97.41,97.41,0,0,1,7.85,15.62s0,.07.05.11c8.28,20.33,12.57,44.38,17.6,56.11C235,112.17,246.48,127.19,245.31,138.58Z"/><path class="cls-3" d="M103.2,23.42c0,.06-.09.12-.11.18a36.4,36.4,0,0,0-4,8,.27.27,0,0,0-.07.18c-3.47,7.73-7.81,19.84-7.64,31.94C82.3,39.78,102.17,24.19,103.2,23.42Z"/><path class="cls-3" d="M39.45,170.11c2.15,14.91,7.08,23.36,11.9,28.12A50.85,50.85,0,0,1,44,190.15,85.07,85.07,0,0,1,39.45,180c-9.8-26.28-6.48-44.24,3.33-80.15s.64-57.61,12-78.26C64,4.89,86.67,1.08,95.1.25,97.12,0,98.33,0,98.33,0s-.8.08-2.17.33C89.62,1.45,69.82,6,59.06,20c-13,17-7.75,45-9.81,64.83S34.52,136,39.45,170.11Z"/><path class="cls-3" d="M112.71,3.44c-1.66.59-28.43,10.1-39.19,25.11-11.1,15.5-11.61,36-11.61,36s-3.42,34.83-8,60.21c-4.5,24.87,6.89,72.58,17.57,81.62l-.39.51H63.38a70.34,70.34,0,0,1-8.94-6.09c5,3.58,9.27,3.64,9.27,3.64S41.5,161.85,51.05,120.6s3.35-74,18.34-92.32C83.91,10.51,111,3.84,112.71,3.44Z"/><path class="cls-3" d="M8.87,153.47s-7.16-15.5,14.28-45S39,36.29,46.73,25.2a149.8,149.8,0,0,0-7.07,16C36.94,48.78,37,76.71,27.23,96.87s-20.58,25.56-22.34,49Z"/><path class="cls-3" d="M133.2,3.75s38,8.78,50.5,40C183.7,43.79,175.05,7.64,133.2,3.75Z"/><path class="cls-3" d="M145.6,3.19S185.21,8.3,195.5,46s9.9,68,19.39,92.57,1.22,37.82,1.22,37.82l5.37-6.47s7-12.24-5.62-39.54-10.44-72.91-20.33-92.54-32.95-32.62-44-34.65Z"/><path class="cls-3" d="M170.39,3.75s28.81,6.52,37.72,34.42,3.1,51.34,16.86,75.17,13.31,40.13,13.31,40.13l5.78-10.41s-2.65-5.22-19-32c-11.14-18.28-9.49-57.93-16.75-77.31S182.86,6.93,170.39,3.75Z"/><path class="cls-4" d="M194,12.55a5.83,5.83,0,0,1,0,5.4c-1.54,2.72-13.83,9-14.32,13.05s-21.25,6.07-21.25,6.07v8.14s20.21.17,23.57-1.66-.46-11.5,2.48-14.67,12-4,13.67-5.11,1.76-4.31,1.76-4.31A66.83,66.83,0,0,0,194,12.55Z"/><path class="cls-4" d="M153.73,37.59l-18.34-.91v9.56s12.27-3.75,19.12,0Z"/><path class="cls-4" d="M111.24,33.71a39.65,39.65,0,0,0-2.07,11.5l-10.84,1s.51-9,3.35-13.43Z"/><path class="cls-4" d="M94.76,32.81s-7.88.9-14.08-2.2S75.4,28,65.94,23.77s-4.29-12.35-2.36-16.9a32.41,32.41,0,0,0-9,7.15s.11,8.34,6.91,11.18S70,34.1,72.1,36.68s20.44,0,20.44,0Z"/><path class="cls-4" d="M216.77,132.72s3.36,4.36,6.24,20.75c0,0,2.41-10,6.28-12.05s6.32-3.61,6.32-3.61l-5.54-12s.65,4.57-3,6.91C221.08,136.6,216.77,132.72,216.77,132.72Z"/><path class="cls-4" d="M235.61,126.81s5.44-2.61,6-3.78l1.56,3.78-3.79,5.91A19.54,19.54,0,0,0,235.61,126.81Z"/><path class="cls-4" d="M212.12,135.23l-8.69,1.3s1.5,9.17-3.5,25.25c0,0,11.17-7.62,19-8.31C218.9,153.47,215.28,141,212.12,135.23Z"/><path class="cls-4" d="M48.91,135.23S48.1,153.68,51,166c0,0-10.46-9.47-11.55-9.35a189.88,189.88,0,0,1,1-21.45S47.15,134.85,48.91,135.23Z"/><path class="cls-4" d="M35.45,130.38s-15.26-7.23-17.27-14.56A63.68,63.68,0,0,0,12,127.65s15,10.06,21.46,21.68C33.45,149.33,34.31,136.16,35.45,130.38Z"/><path class="cls-4" d="M17.17,113.15s-5-3.47-5.79-4.71L6.61,120.61l3.23,1.54A50,50,0,0,1,17.17,113.15Z"/></g></g></g></svg>