<svg xmlns="http://www.w3.org/2000/svg" xmlns:xlink="http://www.w3.org/1999/xlink" viewBox="0 0 223.97 167.68"><defs><style>.cls-1{isolation:isolate;}.cls-2{fill:url(#_626_2);}.cls-11,.cls-12,.cls-13,.cls-14,.cls-15,.cls-16,.cls-17,.cls-18,.cls-19,.cls-20,.cls-21,.cls-22,.cls-23,.cls-24,.cls-25,.cls-3,.cls-9{mix-blend-mode:multiply;}.cls-3{fill:url(#Áåçûìÿííûé_ãðàäèåíò_2);}.cls-10,.cls-26,.cls-4{fill:#ffe9bd;mix-blend-mode:soft-light;}.cls-4{opacity:0.7;}.cls-5{fill:url(#_626_2-2);}.cls-6{fill:url(#_626_2-3);}.cls-7{fill:url(#_626_2-4);}.cls-8{fill:url(#_626_2-5);}.cls-13,.cls-9{opacity:0.5;}.cls-9{fill:url(#Áåçûìÿííûé_ãðàäèåíò_2-2);}.cls-11{fill:url(#Áåçûìÿííûé_ãðàäèåíò_2-3);}.cls-12{fill:url(#Áåçûìÿííûé_ãðàäèåíò_2-4);}.cls-13{fill:url(#Áåçûìÿííûé_ãðàäèåíò_2-5);}.cls-14{fill:url(#Áåçûìÿííûé_ãðàäèåíò_2-6);}.cls-15{fill:url(#Áåçûìÿííûé_ãðàäèåíò_2-7);}.cls-16{fill:url(#Áåçûìÿííûé_ãðàäèåíò_2-8);}.cls-17{fill:url(#Áåçûìÿííûé_ãðàäèåíò_2-9);}.cls-18{fill:url(#Áåçûìÿííûé_ãðàäèåíò_2-10);}.cls-19{fill:url(#Áåçûìÿííûé_ãðàäèåíò_2-11);}.cls-20{fill:url(#Áåçûìÿííûé_ãðàäèåíò_2-12);}.cls-21{fill:url(#Áåçûìÿííûé_ãðàäèåíò_2-13);}.cls-22{fill:url(#Áåçûìÿííûé_ãðàäèåíò_2-14);}.cls-23{fill:url(#Áåçûìÿííûé_ãðàäèåíò_2-15);}.cls-24{fill:url(#Áåçûìÿííûé_ãðàäèåíò_2-16);}.cls-25{fill:url(#Áåçûìÿííûé_ãðàäèåíò_2-17);}.cls-26{opacity:0.2;}</style><linearGradient id="_626_2" x1="112.76" y1="21.04" x2="112.76" y2="167.68" gradientUnits="userSpaceOnUse"><stop offset="0" stop-color="#773184"/><stop offset="1" stop-color="#82142f"/></linearGradient><linearGradient id="Áåçûìÿííûé_ãðàäèåíò_2" x1="112.82" y1="167.68" x2="112.82" y2="55.81" gradientUnits="userSpaceOnUse"><stop offset="0.01" stop-color="#9c66a3"/><stop offset="0.98" stop-color="#cf98af"/></linearGradient><linearGradient id="_626_2-2" x1="196.63" y1="263.35" x2="196.63" y2="276.89" gradientTransform="matrix(0.97, 0.24, -0.24, 0.97, -7.73, -291.77)" xlink:href="#_626_2"/><linearGradient id="_626_2-3" x1="102.43" y1="-235.16" x2="102.43" y2="-217.05" gradientTransform="translate(67.26 253.82) rotate(-12.51)" xlink:href="#_626_2"/><linearGradient id="_626_2-4" x1="111.98" y1="16.77" x2="111.98" y2="94.77" xlink:href="#_626_2"/><linearGradient id="_626_2-5" x1="151.42" y1="96.13" x2="151.42" y2="96.25" xlink:href="#_626_2"/><linearGradient id="Áåçûìÿííûé_ãðàäèåíò_2-2" x1="111.96" y1="36.76" x2="111.96" y2="94.76" xlink:href="#Áåçûìÿííûé_ãðàäèåíò_2"/><linearGradient id="Áåçûìÿííûé_ãðàäèåíò_2-3" x1="5.39" y1="76.21" x2="5.39" y2="85.1" xlink:href="#Áåçûìÿííûé_ãðàäèåíò_2"/><linearGradient id="Áåçûìÿííûé_ãðàäèåíò_2-4" x1="21.11" y1="80.44" x2="21.11" y2="88.02" xlink:href="#Áåçûìÿííûé_ãðàäèåíò_2"/><linearGradient id="Áåçûìÿííûé_ãðàäèåíò_2-5" x1="64.55" y1="89.79" x2="64.55" y2="92.62" xlink:href="#Áåçûìÿííûé_ãðàäèåíò_2"/><linearGradient id="Áåçûìÿííûé_ãðàäèåíò_2-6" x1="74.06" y1="90.52" x2="74.06" y2="93.83" xlink:href="#Áåçûìÿííûé_ãðàäèåíò_2"/><linearGradient id="Áåçûìÿííûé_ãðàäèåíò_2-7" x1="178.44" y1="83.06" x2="178.44" y2="92.62" xlink:href="#Áåçûìÿííûé_ãðàäèåíò_2"/><linearGradient id="Áåçûìÿííûé_ãðàäèåíò_2-8" x1="199.43" y1="82.44" x2="199.43" y2="87.17" xlink:href="#Áåçûìÿííûé_ãðàäèåíò_2"/><linearGradient id="Áåçûìÿííûé_ãðàäèåíò_2-9" x1="222.6" y1="76.97" x2="222.6" y2="83.24" xlink:href="#Áåçûìÿííûé_ãðàäèåíò_2"/><linearGradient id="Áåçûìÿííûé_ãðàäèåíò_2-10" x1="60.07" y1="18.7" x2="60.07" y2="93.33" xlink:href="#Áåçûìÿííûé_ãðàäèåíò_2"/><linearGradient id="Áåçûìÿííûé_ãðàäèåíò_2-11" x1="154.37" y1="74.01" x2="154.37" y2="93.21" xlink:href="#Áåçûìÿííûé_ãðàäèåíò_2"/><linearGradient id="Áåçûìÿííûé_ãðàäèåíò_2-12" x1="209.83" y1="74.49" x2="209.83" y2="87.24" xlink:href="#Áåçûìÿííûé_ãðàäèåíò_2"/><linearGradient id="Áåçûìÿííûé_ãðàäèåíò_2-13" x1="115.09" y1="67.43" x2="115.09" y2="94.75" xlink:href="#Áåçûìÿííûé_ãðàäèåíò_2"/><linearGradient id="Áåçûìÿííûé_ãðàäèåíò_2-14" x1="44.41" y1="59.07" x2="44.41" y2="92.29" xlink:href="#Áåçûìÿííûé_ãðàäèåíò_2"/><linearGradient id="Áåçûìÿííûé_ãðàäèåíò_2-15" x1="139.58" y1="18.66" x2="139.58" y2="93.05" xlink:href="#Áåçûìÿííûé_ãðàäèåíò_2"/><linearGradient id="Áåçûìÿííûé_ãðàäèåíò_2-16" x1="123.64" y1="19.09" x2="123.64" y2="59.4" xlink:href="#Áåçûìÿííûé_ãðàäèåíò_2"/><linearGradient id="Áåçûìÿííûé_ãðàäèåíò_2-17" x1="182.34" y1="19.99" x2="182.34" y2="56.54" xlink:href="#Áåçûìÿííûé_ãðàäèåíò_2"/></defs><g class="cls-1"><g id="Layer_2" data-name="Layer 2"><g id="Layer_1-2" data-name="Layer 1"><path class="cls-2" d="M204.85,93.16h0c-.19,2.28-.42,4.55-.67,6.82-.26,2.51-.56,5-.88,7.5-.82,6.46-1.8,12.8-2.84,18.81h0c-4,23.2-8.7,41.38-8.7,41.38s1.49-45.64-.5-49.61-12.4-6.45-12.4-11.17,3.72-23.32,0-27.53-35-21.08-60.53-21.08c-.8,0-1.58,0-2.33,0-2.16,0-4.31,0-6.47,0-.75,0-1.53,0-2.33,0-25.55,0-56.81,16.86-60.53,21.08s0,22.83,0,27.53-10.41,7.2-12.4,11.17-.5,49.61-.5,49.61S29,149.35,25,126c-1-6-2-12.3-2.8-18.72-.32-2.48-.61-5-.88-7.48-.25-2.26-.46-4.53-.65-6.78C19.21,76,19.28,59.4,22.6,47.37c7.81-28.24,87.82-26.3,87.82-26.3h4.69s80-1.94,87.81,26.3C206.25,59.44,206.31,76.08,204.85,93.16Z"/><path class="cls-3" d="M193.12,162.38c-.81,3.38-1.31,5.3-1.31,5.3s1.49-45.64-.49-49.61-12.41-6.45-12.41-11.17,3.73-23.32,0-27.53-35-21.08-60.53-21.08c-.79,0-1.57,0-2.33,0q-3.22-.07-6.47,0c-.75,0-1.53,0-2.33,0-25.55,0-56.81,16.86-60.52,21.08s0,22.83,0,27.53-10.42,7.2-12.41,11.17-.49,49.61-.49,49.61-.51-1.92-1.32-5.3c-.29-10.08-1.12-47.17.59-50.54,2-4,12.6-2.64,12.6-7.35S41.93,81.17,45.7,77s35.52-21.09,61.47-21.09c.81,0,1.6,0,2.36,0,2.19,0,4.39,0,6.57,0q1.16,0,2.37,0c25.95,0,57.69,16.87,61.47,21.09s0,22.82,0,27.54,10.58,1.48,12.59,5.45C194.24,113.31,193.42,152.3,193.12,162.38Z"/><path class="cls-4" d="M33.56,81.13,21.32,99.81c-.25-2.26-.46-4.53-.65-6.78L33.42,78.62Z"/><path class="cls-4" d="M34.86,91.6,25,126c-1-6-2-12.3-2.8-18.72l12.33-23Z"/><path class="cls-4" d="M204.85,93.16h0c-.19,2.28-.42,4.55-.67,6.82L191.83,81.13l.14-2.51Z"/><path class="cls-4" d="M203.3,107.48c-.82,6.46-1.8,12.8-2.84,18.81L190.53,91.6l.32-7.27Z"/><path class="cls-5" d="M109.61,22.6s2.18-5.09,5.55-7.88,11.44-1.85,11.44-1.85A42,42,0,0,0,109.61,22.6Z"/><path class="cls-6" d="M111,21.78S110.58,14.38,113,9s12.61-9,12.61-9A55.92,55.92,0,0,0,111,21.78Z"/><path class="cls-7" d="M212.25,62.77a76.4,76.4,0,0,1,7.84,21.44c-5.79,1.1-11.54,2.11-17.3,3,1.17-4.07-.46-8.36-3.22-12.75a33.6,33.6,0,0,1,.21,12.68,16.06,16.06,0,0,0-3.13-7.6c1.15,3,1.45,5.92,0,8.61-9.88,1.49-19.69,2.74-29.5,3.7-2.64.28-5.26.51-7.9.74,1.26-6.32,0-12.5-2.69-18.61.85,8.47-.67,15.27-2.51,19-.71,0-1.4.12-2.11.16,1.19-9.95-.6-14.1-4-25.78.89,12.07,0,16.5-4.21,26.33q-28.23,1.67-56,.56a39.77,39.77,0,0,1-5.58-25.48c-3.15,8-4.78,16.26-3.88,25-2.62-.13-5.22-.3-7.84-.5C68.74,86,69,77.47,70.42,68.24,68.08,77,66.08,85.15,64.59,92.62A23.87,23.87,0,0,1,65,77.73c-3.73,4.34-6.35,9.07-6.9,14.56Q44.61,91,31.2,89c-2.3-9.86-.62-19.87,3.15-30C29,68.61,25.43,78.23,24.58,88h0c-2.3-.37-4.59-.76-6.89-1.17-1.08-3.33-1.49-10.8,1.65-18.8-5.14,3.89-8.75,9.72-11.19,17-2.71-.53-5.42-1-8.13-1.63,0,0,6.64-24,21.46-44.53a20.45,20.45,0,0,1,1.84-2.18,29.68,29.68,0,0,1,3.63-3.24C45.19,19.64,88.8,14.08,112,19.09c16.1-2.87,61.87-6.91,85.49,14.43a45.35,45.35,0,0,1,3.26,3.24,22.79,22.79,0,0,1,1.77,2.18c14.29,20,21,43,21.44,44.46C221.74,77,217.67,70.12,212.25,62.77Z"/><path class="cls-8" d="M151.57,96.13a.8.8,0,0,1-.27.12h0A2.24,2.24,0,0,1,151.57,96.13Z"/><path class="cls-9" d="M217.33,70.19q-2.28-3.61-5.08-7.42c1.24,2.39,2.39,4.78,3.38,7.17h0a68.73,68.73,0,0,1,2.9,8,57.55,57.55,0,0,1,1.54,6.32c-4.76.89-9.49,1.74-14.22,2.52-1,.19-2.05.35-3.08.51a11.08,11.08,0,0,0,.09-5.4,23.91,23.91,0,0,0-3.31-7.35,43.78,43.78,0,0,1,.73,8,22.55,22.55,0,0,1-.52,4.73,15.25,15.25,0,0,0-1.22-4.34,17.73,17.73,0,0,0-1.91-3.26,15.28,15.28,0,0,1,.92,3.49,8.72,8.72,0,0,1-.92,5.12q-18.78,2.83-37.4,4.44a23.29,23.29,0,0,0,.41-3A31.65,31.65,0,0,0,156.56,74a40.91,40.91,0,0,1-1.38,16.19,20.89,20.89,0,0,1-1.13,2.85c-.43,0-.87.07-1.31.09l-.8.07c.12-.94.21-1.81.25-2.66.6-8.09-1.15-12.48-4.18-22.91a1.76,1.76,0,0,0,0-.21c.82,11,.16,15.65-3.18,23.85-.32.78-.66,1.61-1,2.48-.67,0-1.36.07-2,.12-8.07.44-16.08.73-24.08.83q-12.64.17-25.2-.23l-4.74-.16c-.46-.76-.89-1.54-1.31-2.32a39.78,39.78,0,0,1-4.27-23.16.15.15,0,0,1,0,.06,53.6,53.6,0,0,0-4.05,22.45c.05.83.09,1.66.19,2.48-2.62-.13-5.22-.3-7.84-.5-.21-.92-.39-1.84-.55-2.81-1-6.64-.69-14.19.55-22.28-2.07,7.67-3.86,15-5.28,21.71-.19.9-.37,1.79-.55,2.67-.26-1-.46-1.89-.62-2.83a22.81,22.81,0,0,1,1-12.06,28.63,28.63,0,0,0-6.32,11.32,21.52,21.52,0,0,0-.58,3.24c-3.93-.36-7.85-.8-11.78-1.28s-7.86-.94-11.77-1.52c-1.1-.14-2.23-.3-3.33-.46a35,35,0,0,1-.83-5.24A47.63,47.63,0,0,1,31.61,68a73,73,0,0,1,2.72-8.9s0,.14-.12.26c-1.61,2.91-3.08,5.83-4.34,8.75a68.51,68.51,0,0,0-4.53,14.52q-.51,2.68-.76,5.4h0c-2.3-.37-4.59-.76-6.89-1.17a21.38,21.38,0,0,1-.78-6.41A34.73,34.73,0,0,1,19,68.88c.1-.27.19-.55.3-.83-.36.28-.73.58-1.08.9a29.81,29.81,0,0,0-7.46,9.79A42.38,42.38,0,0,0,8.13,85.1c-2.71-.53-5.42-1-8.13-1.63,0,0,.76-2.78,2.37-7.26.57-1.61,1.26-3.47,2.06-5.49a150.5,150.5,0,0,1,17-31.78,20.45,20.45,0,0,1,1.84-2.18c0,36.26,177.46,36.26,177.46,0a22.79,22.79,0,0,1,1.77,2.18,153.16,153.16,0,0,1,16.91,31.62c1,2.41,1.77,4.57,2.44,6.41,1.15,3.31,1.84,5.56,2,6.27a52.21,52.21,0,0,0-2.64-6.09A78.36,78.36,0,0,0,217.33,70.19Z"/><path class="cls-10" d="M217.33,70.19q-2.28-3.61-5.08-7.42c1.24,2.39,2.39,4.78,3.38,7.17-31.5-4.34-131.86-5-184-2a70.05,70.05,0,0,1,2.74-8.92c-1.66,3-3.17,6-4.48,9-3.93.23-7.56.48-10.85.78.1-.27.19-.55.3-.83-.36.28-.73.58-1.08.9A129,129,0,0,0,4.43,70.72a150.5,150.5,0,0,1,17-31.78,20.45,20.45,0,0,1,1.84-2.18c0,36.26,177.46,36.26,177.46,0a22.79,22.79,0,0,1,1.77,2.18,153.16,153.16,0,0,1,16.91,31.62C218.8,70.42,218.09,70.31,217.33,70.19Z"/><path class="cls-11" d="M2.37,76.21c2.78.9,5.58,1.75,8.41,2.53A42.38,42.38,0,0,0,8.13,85.1c-2.71-.53-5.42-1-8.13-1.63C0,83.47.76,80.69,2.37,76.21Z"/><path class="cls-12" d="M16.89,80.44c2.8.78,5.63,1.49,8.45,2.18q-.51,2.68-.76,5.4h0c-2.3-.37-4.59-.76-6.89-1.17A21.38,21.38,0,0,1,16.89,80.44Z"/><path class="cls-13" d="M64,89.79c.39.07.78.11,1.17.16-.19.9-.37,1.79-.55,2.67C64.33,91.67,64.13,90.73,64,89.79Z"/><path class="cls-14" d="M78.07,91.35c.05.83.09,1.66.19,2.48-2.62-.13-5.22-.3-7.84-.5-.21-.92-.39-1.84-.55-2.81C72.58,90.85,75.34,91.12,78.07,91.35Z"/><path class="cls-15" d="M197.57,83.06a8.72,8.72,0,0,1-.92,5.12q-18.78,2.83-37.4,4.44a23.29,23.29,0,0,0,.41-3Q178.44,87.28,197.57,83.06Z"/><path class="cls-16" d="M198.56,82.83c.57-.12,1.17-.25,1.74-.39a22.55,22.55,0,0,1-.52,4.73A15.25,15.25,0,0,0,198.56,82.83Z"/><path class="cls-17" d="M223.92,83.24a52.21,52.21,0,0,0-2.64-6.09,2.32,2.32,0,0,0,.6-.18C223,80.28,223.72,82.53,223.92,83.24Z"/><path class="cls-18" d="M8.13,85.1c2.44-7.33,6-13.16,11.19-17-3.14,8-2.73,15.47-1.65,18.8C24.07,39.44,54.93,23.57,95.29,20,73.22,22.26,56.84,29.21,47.34,39.5A231.27,231.27,0,0,1,100,21.29C74.21,28.62,60,52,58.08,92.29c.55-5.49,3.17-10.22,6.9-14.56a23.87,23.87,0,0,0-.39,14.89c1.49-7.47,3.49-15.67,5.83-24.38C69,77.47,68.74,86,70.42,93.33c4.18-47.95,24.75-72,41.59-74.24C58.59,15.83,20,32.51,8.13,85.1Z"/><path class="cls-19" d="M156.56,74a71.79,71.79,0,0,1-2.89,16.37l-1.48.17c0,.85-.13,1.72-.25,2.66.71,0,1.4-.11,2.11-.16a20.89,20.89,0,0,0,1.13-2.85A40.91,40.91,0,0,0,156.56,74Z"/><path class="cls-20" d="M220.09,84.21a57.55,57.55,0,0,0-1.54-6.32c-4.59,1.27-9.17,2.41-13.72,3.48a14.45,14.45,0,0,0-5.26-6.88,23.91,23.91,0,0,1,3.31,7.35,11.08,11.08,0,0,1-.09,5.4c1-.16,2-.32,3.08-.51h0C210.6,85.94,215.33,85.11,220.09,84.21Z"/><path class="cls-21" d="M148,67.43c-1.13,10-3.13,19-8.11,24.24a371.59,371.59,0,0,1-49.1.54,50.43,50.43,0,0,1-8.62-23.37A39.78,39.78,0,0,0,86.41,92c.42.78.85,1.56,1.31,2.32l4.74.16,0,0c8.39.27,16.79.38,25.23.27q12-.18,24.06-.85l0,0c.66,0,1.35-.07,2-.12.37-.87.71-1.7,1-2.48C148.13,83.08,148.79,78.44,148,67.43Z"/><path class="cls-22" d="M58.66,89.05a21.52,21.52,0,0,0-.58,3.24c-3.93-.36-7.85-.8-11.78-1.28s-7.84-1-11.77-1.54v0c-1.1-.14-2.23-.3-3.33-.46a35,35,0,0,1-.83-5.24A47.63,47.63,0,0,1,31.61,68a73,73,0,0,1,2.72-8.9l0,0c-1.47,8.75-2,17.3-.78,25.41C41.86,86.32,50.23,87.86,58.66,89.05Z"/><path class="cls-23" d="M159.25,92.62c1.26-6.32,0-12.5-2.69-18.61.85,8.47-.67,15.27-2.51,19,4.21-39.19-15.92-75.8-42-74,25.18-3.31,45.88,11.61,55.14,72.79C164.51,92.16,161.89,92.39,159.25,92.62Z"/><path class="cls-24" d="M112,19.09c13.16,5.45,20.5,19,22.34,40.31C137.93,35.67,131.3,21.48,112,19.09Z"/><path class="cls-25" d="M156.33,20c26.22,4.39,44.89,15.41,52,36.55C197.58,39.55,179.62,27.82,156.33,20Z"/><path class="cls-10" d="M133.93,21.23a45.77,45.77,0,0,1,23,25.16c.23-12.2,12-13.28,24.67-13.46a29.55,29.55,0,0,0-8.87-5.26C172.05,36.65,154.54,30.35,133.93,21.23Z"/><path class="cls-10" d="M120.17,26.2c5.87,5.22,9.17,12.61,10.73,21.46-3.84-10.88-19.23-12.13-45.65-4.19a53.49,53.49,0,0,1,9.66-13.56C97.07,39.54,104.65,39.77,120.17,26.2Z"/><path class="cls-10" d="M81.94,29.16A49.74,49.74,0,0,0,70.62,42c-9.88-6.21-16.09-4.44-21.84-1.69a51.82,51.82,0,0,1,12.35-5.66C63.07,39.6,69.84,38,81.94,29.16Z"/><path class="cls-26" d="M63.55,42.62c-2.88-3-10.57-1.65-14.92,2.1-10,8.6-4.69,31.56.72,32.52,5.26.94,12.11-18.75,12.8-20.71C64.29,50.36,66,45.22,63.55,42.62Z"/><path class="cls-26" d="M186.82,40.54c-3.79-4.78-10.41-5.75-15.25-4.78-.77.15-8.84,1.86-10.44,7.11-2.62,8.61,13.09,23.49,21.44,20.13C188.59,60.59,192.69,48,186.82,40.54Z"/></g></g></g></svg>