<svg xmlns="http://www.w3.org/2000/svg" xmlns:xlink="http://www.w3.org/1999/xlink" viewBox="0 0 242.49 192.58"><defs><style>.cls-1{isolation:isolate;}.cls-2{fill:url(#Áåçûìÿííûé_ãðàäèåíò_114);}.cls-3{fill:url(#Áåçûìÿííûé_ãðàäèåíò_114-2);}.cls-4{fill:url(#Áåçûìÿííûé_ãðàäèåíò_114-3);}.cls-5{fill:#d177b8;}.cls-10,.cls-11,.cls-12,.cls-5,.cls-6,.cls-7,.cls-8,.cls-9{mix-blend-mode:multiply;}.cls-6{fill:url(#Áåçûìÿííûé_ãðàäèåíò_123);}.cls-7{fill:url(#Áåçûìÿííûé_ãðàäèåíò_62);}.cls-8{fill:url(#Áåçûìÿííûé_ãðàäèåíò_62-2);}.cls-9{fill:url(#Áåçûìÿííûé_ãðàäèåíò_62-3);}.cls-10{fill:url(#Áåçûìÿííûé_ãðàäèåíò_123-2);}.cls-11{fill:url(#Áåçûìÿííûé_ãðàäèåíò_62-4);}.cls-12{fill:url(#Áåçûìÿííûé_ãðàäèåíò_62-5);}.cls-13{fill:#ffd9bb;mix-blend-mode:soft-light;}.cls-14{fill:none;}</style><linearGradient id="Áåçûìÿííûé_ãðàäèåíò_114" x1="195.98" y1="157.37" x2="195.98" y2="68.53" gradientUnits="userSpaceOnUse"><stop offset="0" stop-color="#fc9090"/><stop offset="1" stop-color="#ff386b"/></linearGradient><linearGradient id="Áåçûìÿííûé_ãðàäèåíò_114-2" x1="102.85" y1="167.18" x2="102.85" y2="16.96" xlink:href="#Áåçûìÿííûé_ãðàäèåíò_114"/><linearGradient id="Áåçûìÿííûé_ãðàäèåíò_114-3" x1="192.78" y1="72.79" x2="192.78" y2="65.18" xlink:href="#Áåçûìÿííûé_ãðàäèåíò_114"/><linearGradient id="Áåçûìÿííûé_ãðàäèåíò_123" x1="38.97" y1="150.1" x2="50.38" y2="150.1" gradientUnits="userSpaceOnUse"><stop offset="0" stop-color="#ffeadb"/><stop offset="0.99" stop-color="#d177f4"/></linearGradient><linearGradient id="Áåçûìÿííûé_ãðàäèåíò_62" x1="28.51" y1="109.69" x2="88.49" y2="109.69" gradientUnits="userSpaceOnUse"><stop offset="0.01" stop-color="#d177f4"/><stop offset="1" stop-color="#ffeadb"/></linearGradient><linearGradient id="Áåçûìÿííûé_ãðàäèåíò_62-2" x1="72.69" y1="154.35" x2="72.69" y2="37.44" xlink:href="#Áåçûìÿííûé_ãðàäèåíò_62"/><linearGradient id="Áåçûìÿííûé_ãðàäèåíò_62-3" x1="54.98" y1="91.91" x2="142.06" y2="91.91" xlink:href="#Áåçûìÿííûé_ãðàäèåíò_62"/><linearGradient id="Áåçûìÿííûé_ãðàäèåíò_123-2" x1="142.25" y1="33.54" x2="143.29" y2="33.54" xlink:href="#Áåçûìÿííûé_ãðàäèåíò_123"/><linearGradient id="Áåçûìÿííûé_ãðàäèåíò_62-4" x1="181.57" y1="97.14" x2="216.69" y2="97.14" xlink:href="#Áåçûìÿííûé_ãðàäèåíò_62"/><linearGradient id="Áåçûìÿííûé_ãðàäèåíò_62-5" x1="197.69" y1="118.51" x2="215.65" y2="118.51" xlink:href="#Áåçûìÿííûé_ãðàäèåíò_62"/></defs><g class="cls-1"><g id="Layer_2" data-name="Layer 2"><g id="Layer_1-2" data-name="Layer 1"><path class="cls-2" d="M177.21,68.53l-2,5.34s19.11,13.52,23.23,30.48,13.27,53,13.27,53,7.92-41.86,3.69-60.54S177.21,68.53,177.21,68.53Z"/><path class="cls-3" d="M177.2,68.53l-5.64,4.25s-6.38.66-14,.66S106.41,73,106.41,73c-13.56,17.81-10.28,59-10.28,59C79.27,120,82.77,96.82,82.77,96.82S60,124.1,58.12,133c-1.8,8.65,11.07,18.22,11.8,18.78-8.74-2-13.34-9.72-14.92-13v0c-.44-.9-.65-1.47-.65-1.47a31.72,31.72,0,0,0,.93,5.55l0,0c2.41,8.91,8.09,11.22,8.09,11.22a29.1,29.1,0,0,1-12.77-1.18l0,0s-.1,0-.21-.07A45.5,45.5,0,0,1,39,147.4a9.91,9.91,0,0,1-1.15-.77L38,167.18s-9.13-24.93-9.48-46.66v0a53.15,53.15,0,0,1,1.69-15.43c6.55-23,24.15-32.56,48-46.29,2.82-1.63,5.42-3.28,7.87-4.89v0l2.43-1.66c6.47-4.48,11.76-8.79,16.93-12.32l3.49-2.27.26-.18,0,0c6.84-4.15,13.89-6.69,23.5-6.23a28.6,28.6,0,0,1,5.55.83h0a4.42,4.42,0,0,1,.52.14,29.36,29.36,0,0,1,3.08,1C159.3,40,171.37,61.34,171.37,61.34A112.78,112.78,0,0,0,150,17C173.82,35.49,177.2,68.53,177.2,68.53Z"/><path class="cls-4" d="M177.21,68.53s21.55-2,31.14,4.26C208.35,72.79,191.8,59,177.21,68.53Z"/><path class="cls-5" d="M171.56,72.79S159.64,43,138.88,42.74,106.41,73,106.41,73,166.85,74.49,171.56,72.79Z"/><path class="cls-6" d="M39,147.4a101.62,101.62,0,0,0,11.41,5.41A45.5,45.5,0,0,1,39,147.4Z"/><path class="cls-7" d="M37.82,146.63,38,167.18s-9.13-24.93-9.48-46.66v0C35.08,104.64,59.94,88.31,68,78.43c7.87-9.63,17.55-23.84,18-24.54v0l2.43-1.66S86,58.76,71.05,77s-31,22.59-35.56,37.91S34.89,144.34,37.82,146.63Z"/><path class="cls-8" d="M63.39,154.08a29.1,29.1,0,0,1-12.77-1.18l0,0c-.71-.68-16.87-16.13-14.05-29.3,2.86-13.43,44-30.95,51.91-46.22s17-37.47,17-37.47l3.49-2.27.26-.18C103,42.61,100.49,59,90.38,78.22S59.68,111.57,55,123c-4.47,10.87-.13,19,.3,19.82l0,0C57.71,151.77,63.39,154.08,63.39,154.08Z"/><path class="cls-9" d="M138.8,32.16a19.43,19.43,0,0,1,3.26,1.09.83.83,0,0,1-.18,0c-9.37-2.2-25.62,18.22-35.47,33.38A257,257,0,0,1,82.77,96.82S60,124.1,58.12,133c-1.8,8.65,11.07,18.22,11.8,18.78-8.74-2-13.34-9.72-14.92-13v0a49.88,49.88,0,0,1,.71-9.58c1.37-8.11,43.15-55.53,54.8-74C122,37.08,137.78,32.18,138.26,32h0A4.42,4.42,0,0,1,138.8,32.16Z"/><path class="cls-10" d="M143.29,33.77a3.32,3.32,0,0,0-1-.45C142.71,33.5,143.08,33.68,143.29,33.77Z"/><path class="cls-11" d="M181.57,79.09s14.86,13.24,23.49,22,11.62,8.56,11.62,8.56v5.5a52.46,52.46,0,0,1-15.43-14.6c-7-9.93-12.85-14.49-12.85-14.49Z"/><path class="cls-12" d="M197.69,101.65s12.42,26.87,18,28.09l-.61,5.63a62.94,62.94,0,0,1-14.91-24.29Z"/><path class="cls-13" d="M94.87,76.42s11.9-13.25,16.14-22c0,0-3,3.15-5.32,3.71a8.39,8.39,0,0,1-4.93-.72s-9.66,19.27-8.53,19A7,7,0,0,1,94.87,76.42Z"/><path class="cls-13" d="M88.49,74.62a59.35,59.35,0,0,0-14.76,0s9.29-10.49,12-16.45c0,0,7.58-.38,11.51-3C97.26,55.22,91.85,69,88.49,74.62Z"/><path class="cls-13" d="M64.88,66.54s3.3,5,5.29,5.11,11.1-13.48,11.1-13.48S69.8,64.87,64.88,66.54Z"/><rect class="cls-14" width="242.49" height="192.58"/></g></g></g></svg>