<svg xmlns="http://www.w3.org/2000/svg" xmlns:xlink="http://www.w3.org/1999/xlink" viewBox="0 0 242.49 192.58"><defs><style>.cls-1{isolation:isolate;}.cls-2{fill:url(#_102);}.cls-3{fill:#ce77b5;mix-blend-mode:multiply;}.cls-4{fill:url(#_102-2);}.cls-5{mix-blend-mode:color-burn;opacity:0.5;fill:url(#Áåçûìÿííûé_ãðàäèåíò_7);}.cls-6{fill:url(#_102-3);}.cls-7{fill:#ffd6b8;mix-blend-mode:soft-light;}.cls-8{fill:none;}</style><linearGradient id="_102" x1="175.74" y1="47.24" x2="175.74" y2="182.39" gradientUnits="userSpaceOnUse"><stop offset="0.01" stop-color="#f25259"/><stop offset="1" stop-color="#a73646"/></linearGradient><linearGradient id="_102-2" x1="90.23" y1="10.19" x2="90.23" y2="179.29" xlink:href="#_102"/><linearGradient id="Áåçûìÿííûé_ãðàäèåíò_7" x1="96.15" y1="78.61" x2="96.15" y2="51.08" gradientUnits="userSpaceOnUse"><stop offset="0.01" stop-color="#ad637c"/><stop offset="0.98" stop-color="#d99d93"/></linearGradient><linearGradient id="_102-3" x1="94.47" y1="33.92" x2="94.47" y2="115.63" xlink:href="#_102"/></defs><g class="cls-1"><g id="Layer_2" data-name="Layer 2"><g id="Layer_1-2" data-name="Layer 1"><path class="cls-2" d="M218.83,89.8c-.58,28.62-7.88,67.47-8.61,69.66-1,3.11-7,22.93-7,22.93s5.54-81.85-17.1-102.19c-22.19-19.92-52.24-2.32-53.45-1.6h0l.22-.16,40.79-31.14s25.1-1.73,39.8,15.68C217.71,68,219.08,78.05,218.83,89.8Z"/><path class="cls-3" d="M218.83,89.8c-.58,28.62-7.88,67.47-8.61,69.66-1,3.11-7,22.93-7,22.93s5.54-81.85-17.1-102.19c-22.19-19.92-52.24-2.32-53.45-1.6,0,0,0,0,0,0l0,0,.22-.16c2.85-2.09,29.5-20.65,55.47-3.22C211.25,90.58,216.6,107.29,218.83,89.8Z"/><path class="cls-4" d="M174.78,26.75c-4.9-3.81-13.62-7.85-28.46-11.93C104.06,3.18,78.57,16.71,73,20.5,66.61,24.76,61.8,35,61.8,35s-37.2,7.23-51.33,27A72,72,0,0,0,3.79,73.05C-9,99.89,14.63,107.26,14.63,107.26S9.83,119,12.91,129v0s0,0,0,0a.25.25,0,0,0,0,.12l0,0a18.43,18.43,0,0,0,2,4.25c5.13,8,10.89,6.31,13.32,5.06a2.8,2.8,0,0,0,.25-.14l.32-.18.46-.32c.07,0,.09-.07.11-.07s.05,0,.05,0,6.15,17,9.7,25.32c1.78,4.24,8.65,14.91,9.42,16.1l.07.11s-4.46-33.55-3.75-53.87c.21-6.23.28-13.76,1-21.31.85-9,2.59-18.08,6.59-25.11a25.18,25.18,0,0,1,1.81-2.83s0,0,0,0a24,24,0,0,1,5.22-5.29,23.27,23.27,0,0,1,10.2-4.22c7.62-1.33,16.43-.71,25,.75,3.43.59,6.81,1.32,10.06,2.12,2.75.68,5.4,1.39,7.9,2.14a194.79,194.79,0,0,1,19.9,7v0s0,0,0,0c.32-.2,2.05-1.37,4.69-3.17l.09-.07c11.14-7.61,37.77-26.2,40.29-31.08C179.88,40,183.81,33.77,174.78,26.75ZM23.44,136.23c-2.2-2.92,1.23-12.93,1.23-12.93a59.28,59.28,0,0,0,4.21,12.61S25.63,139.13,23.44,136.23ZM16.3,103.34c-.34.41-2.47,1.85-3.5,1.41S5.41,99.6,7.38,88,27.19,63.79,27.19,63.79a92.66,92.66,0,0,0,2.47,24.95A55.28,55.28,0,0,0,16.3,103.34ZM67.11,33.45a.31.31,0,0,1,0-.09c.2-.82,2.19-7.6,11.66-9.17C88.92,22.5,89,28.8,89,28.8,80.29,30.12,78.14,30.71,67.11,33.45Z"/><path class="cls-3" d="M177.71,44.29c-2.52,4.88-29.15,23.47-40.29,31.08l-.09.07c-2.64,1.8-4.37,3-4.69,3.17,0,0,0,0,0,0v0l-.16-.07a194.67,194.67,0,0,0-19.74-7c-2.5-.75-5.15-1.46-7.9-2.14-3.25-.8-6.63-1.53-10.06-2.12-8.56-1.46-17.37-2.08-25-.75a23.58,23.58,0,0,0-10.11,4.15c5.56-5.45,39.15-36.86,67.13-30.25,30.4,7.19,59,3.29,48-13.77C183.81,33.77,179.88,40,177.71,44.29Z"/><path class="cls-5" d="M132.64,78.61l-.21,0a194.67,194.67,0,0,0-19.74-7c-2.5-.75-5.15-1.46-7.9-2.14-3.25-.8-6.63-1.53-10.06-2.12-8.56-1.46-17.37-2.08-25-.75a23.58,23.58,0,0,0-10.11,4.15c1.6-1.28,25.28-19.69,49.67-19.69C134.56,51.08,132.64,78.61,132.64,78.61Z"/><path class="cls-3" d="M45.84,104.16c.84-9,2.6-18.13,6.63-25.16a25.18,25.18,0,0,1,1.81-2.83c-.94-3.81-2.13-5.49-3.69-4.24-10.5,8.51-9.44,57.18-9.44,57.18a376.1,376.1,0,0,1-14-65.28,93.11,93.11,0,0,0,2.48,25c-17.33,23-9.57,42-12,43.27s-4.46-2.6-4.69-3c0,0,0,0,0,0v.18l0,.05a18.17,18.17,0,0,0,2,4.24c5.17,8.08,11,6.3,13.36,5a2.8,2.8,0,0,0,.25-.14,2.43,2.43,0,0,0,.32-.18l.46-.32.11-.07s6.16,17,9.7,25.32c1.9,4.5,9.5,16.22,9.5,16.22a.7.7,0,0,0,0-.16c-.32-2.53-4.41-34.21-3.72-53.72C45.08,119.24,45.15,111.71,45.84,104.16Zm-22.4,32.07c-2.2-2.92,1.23-12.93,1.23-12.93a59.28,59.28,0,0,0,4.21,12.61S25.63,139.13,23.44,136.23Z"/><path class="cls-3" d="M47.41,48.81l-20.21,15S9.31,76.33,7.37,88s4.49,16.4,5.44,16.8,3.14-1,3.5-1.42a15.66,15.66,0,0,0-1.68,3.92S-9,99.9,3.79,73.05c-.9,4.51-1.14,6.43,5.58-1.37C26.22,52.09,46.64,49,47.41,48.81Z"/><path class="cls-6" d="M122.34,36c-39-9.38-70.46,14.62-80.94,37.2a41.23,41.23,0,0,0-2.66,7.16c-2.33,8.67-1.12,16.51,4.4,21.42.93.82,1.85,1.59,2.74,2.32,15.24,12.21,25.85,10,29.72,8.53a36,36,0,0,0,14.6,3c24.75.39,30.33-6.2,30.33-6.2s-41.2-11.11-25.8-42c.23-.5.5-1,.77-1.51,2.68-4.88,6.85-5.9,11.42-4.92a34.67,34.67,0,0,0-2.13,8.55,31.11,31.11,0,0,0,.94,12.45,17.91,17.91,0,0,0,1.44,3.56,27.63,27.63,0,0,0,20.48,14.21c-6.61-1.85-11.05-7.3-13.29-14.25v0a38.8,38.8,0,0,1-1.67-13.8A46.42,46.42,0,0,1,114,62.76c6.33,2.6,12.46,8.26,18.55,15.88,0,0,0,0,0,0,.34-.2,2.21-1.34,4.69-3.17l.09-.07c4.25-3.17,10.15-8.34,12.67-14.14C153.87,52.63,150.14,42.69,122.34,36Zm-57.81,72.1C60.11,103.34,62.33,97,62.33,97a22.83,22.83,0,0,0,11.85,14.94C71.37,111.8,67.23,111.05,64.53,108.11Z"/><path class="cls-3" d="M132.58,78.65c-6-7.6-12.2-13.3-18.53-15.89,0,0,2.46-11.12,11.34-10.15S132.58,78.65,132.58,78.65Z"/><path class="cls-3" d="M129.41,45.24c-11.45-5.6-18.49,6.41-21.21,12.47-.28-.11-11.86-5-21.24,15.9-2,4.56-5.65,7.7-10.5,9.75C75.21,60.11,89.64,52.17,109.6,49.62,88,50.63,73.77,60.39,72,84.85c-5.77,1.5-12.8,1.9-20.79,1.55-9.07-.39-11.88-3.28-12.44-6-2.32,8.66-1.13,16.5,4.4,21.4,16.69,14.8,28.37,12.45,32.47,10.86a36,36,0,0,0,14.59,3c24.76.39,30.33-6.2,30.33-6.2S78,97.93,95.51,65.85c2.67-4.86,6.83-5.9,11.41-4.92l.94-2.32c2-4.16,7.36-12.3,18.76-10.26,14.88,2.66,6.31,29.26,6,30.27C133,77.67,144.15,52.47,129.41,45.24ZM64.53,108.12C60.12,103.34,62.33,97,62.33,97a22.82,22.82,0,0,0,11.85,14.93C71.36,111.79,67.22,111,64.53,108.12Z"/><path class="cls-3" d="M127.65,99.71A27.63,27.63,0,0,1,107.17,85.5a17.91,17.91,0,0,1-1.44-3.56c1.26,2.42,3.71,6.55,6.41,7.37,1.39.41,2-1.39,2.22-3.85C116.6,92.41,121,97.86,127.65,99.71Z"/><path class="cls-3" d="M141,27.86a223,223,0,0,0-52,.94s-.11-6.3-10.23-4.61c-9.47,1.57-11.46,8.35-11.66,9.17.11-1.23,2-13.41,31.54-16.61C129.75,13.4,141,27.86,141,27.86Z"/><path class="cls-7" d="M150.09,61.23a14.63,14.63,0,0,0,0-5.49C148.92,49.42,126.25,32.38,90.65,41c-29.74,7.21-45,26.14-49.25,32.19,10.48-22.58,42-46.58,80.94-37.2C150.14,42.69,153.87,52.63,150.09,61.23Z"/><path class="cls-7" d="M46,70.13c17.45-13.29,26-9.48,24.47,13.75C71.6,66,79.86,56.25,92.75,51.74,70,57.49,62.17,57.15,78.57,46.9,66.1,51.57,55.33,59.45,46,70.13Z"/><path class="cls-7" d="M183.76,49.41c16.89,2.9,28.87,11.29,33.6,27.79-11.41-12.67-19.22-12.6-23.3.68A42.28,42.28,0,0,0,178.42,69C195.75,66.69,197,60,183.76,49.41Z"/><path class="cls-7" d="M170.65,26.08c-12-7.36-25.9-11.72-41.38-13.66,10.83,2.8,13.55,6.09,6.7,10,3,1.66,5.34,3.36,6.42,5.13C144.49,18.17,155.59,19.73,170.65,26.08Z"/><rect class="cls-8" width="242.49" height="192.58"/></g></g></g></svg>