<svg xmlns="http://www.w3.org/2000/svg" xmlns:xlink="http://www.w3.org/1999/xlink" viewBox="0 0 236.76 232.36"><defs><style>.cls-1{isolation:isolate;}.cls-2{fill:url(#Áåçûìÿííûé_ãðàäèåíò_42);}.cls-3{fill:#a93651;}.cls-4{fill:url(#Áåçûìÿííûé_ãðàäèåíò_42-2);}.cls-5{fill:url(#Áåçûìÿííûé_ãðàäèåíò_121);}.cls-6{fill:url(#Áåçûìÿííûé_ãðàäèåíò_121-2);}.cls-7{fill:url(#Áåçûìÿííûé_ãðàäèåíò_121-3);}.cls-8{fill:#681642;}.cls-9{fill:#ae4151;}.cls-10{fill:#d177b8;opacity:0.6;mix-blend-mode:multiply;}.cls-11{fill:url(#Áåçûìÿííûé_ãðàäèåíò_30);}.cls-12{fill:url(#Áåçûìÿííûé_ãðàäèåíò_30-2);}</style><linearGradient id="Áåçûìÿííûé_ãðàäèåíò_42" x1="30.62" y1="62.07" x2="30.62" y2="2.39" gradientUnits="userSpaceOnUse"><stop offset="0" stop-color="#77254b"/><stop offset="1" stop-color="#8e2542"/></linearGradient><linearGradient id="Áåçûìÿííûé_ãðàäèåíò_42-2" x1="205.93" y1="55.51" x2="205.93" y2="0" xlink:href="#Áåçûìÿííûé_ãðàäèåíò_42"/><linearGradient id="Áåçûìÿííûé_ãðàäèåíò_121" x1="117.53" y1="135.11" x2="117.53" y2="18.36" gradientUnits="userSpaceOnUse"><stop offset="0" stop-color="#92314b"/><stop offset="1" stop-color="#9a2542"/></linearGradient><linearGradient id="Áåçûìÿííûé_ãðàäèåíò_121-2" x1="27.07" y1="232.36" x2="27.07" y2="126.77" xlink:href="#Áåçûìÿííûé_ãðàäèåíò_121"/><linearGradient id="Áåçûìÿííûé_ãðàäèåíò_121-3" x1="205.17" y1="227.6" x2="205.17" y2="133.41" xlink:href="#Áåçûìÿííûé_ãðàäèåíò_121"/><linearGradient id="Áåçûìÿííûé_ãðàäèåíò_30" x1="191.04" y1="55.44" x2="191.04" y2="25.67" gradientUnits="userSpaceOnUse"><stop offset="0" stop-color="#ffaed8"/><stop offset="1" stop-color="#ffc5e0"/></linearGradient><linearGradient id="Áåçûìÿííûé_ãðàäèåíò_30-2" x1="43.52" y1="61.79" x2="43.52" y2="25.83" xlink:href="#Áåçûìÿííûé_ãðàäèåíò_30"/></defs><g class="cls-1"><g id="Layer_2" data-name="Layer 2"><g id="layer1"><path class="cls-2" d="M61.25,25.83S56.32,2.91,32.92,2.4,10.8,32.78,10.8,32.78l4.12-2.48S13.31,9.48,26.35,6.9,50,11.41,50,11.41,17.11.08,5.14,16.69,2.93,65.42,26.05,61.79,61.25,25.83,61.25,25.83Z"/><path class="cls-3" d="M0,35.27S27.67,9.39,55.74,27.62l2.32-.8S31.67,6.5.51,28.08Z"/><path class="cls-3" d="M4,18.36S35.68,2.49,59.23,20.15L57,16S46,3.43,5.14,16.69Z"/><path class="cls-3" d="M10.9,58.28S10.3,24.46,52,29.07l-1.46.71S11.42,27.51,14,60.15Z"/><path class="cls-4" d="M175.1,27.62S178.4-1.72,204.82.08s19.72,37.21,19.72,37.21,1.53-28.45-14.17-33.86-24.2,4.25-24.2,4.25,16.74-10,38.24,1.54,14.51,48.08-17.76,46.22Z"/><path class="cls-5" d="M197.69,135.11s-4.51-27.4-5.12-43.09-11.68-29.75-20.94-37.86a46.8,46.8,0,0,0-6.32-4.61l-.51-.31-.32-.2-.11-.06a79,79,0,0,0-15.8-7.06S92.18,39.74,73.12,46.7A33.29,33.29,0,0,0,65,51h0C52.49,59.89,48.54,75.32,46,82.94,42.87,92,47.31,102.45,35.08,131A182.82,182.82,0,0,1,26,97C23.48,80.42,23.76,52.4,35,39.76l0,0a19.11,19.11,0,0,1,1.79-1.81C55,21.9,98,18.36,118.3,18.36s44.28-.33,70.46,13.15a32,32,0,0,1,12,11.21C215.12,64.62,212.79,106.73,197.69,135.11Z"/><path class="cls-6" d="M35.09,131S29,164.83,19.49,190.9s17.19,41.46,17.19,41.46S16.79,214.2,21.62,191.48s15.19-48.36,15.06-64.71Z"/><path class="cls-7" d="M197.68,135.11s3,9.5,9.35,41.82-6.36,50.67-6.36,50.67a53.63,53.63,0,0,0,12-35.35c-.58-21.63-10.61-42.93-14.08-58.84Z"/><path class="cls-8" d="M109.7,41.94s-6.77-11.3-11.79-12.87-35.73,22-24,67.77c0,0-1.62-42.07,22.91-59.13a25.53,25.53,0,0,1,7,4.49S109.05,42.44,109.7,41.94Z"/><path class="cls-3" d="M164.37,49s21.37-.16,32.11-11.69l4.58,5.85s-4.39,11.6-29.44,11Z"/><path class="cls-3" d="M158.23,45.74S170.16,34.17,183.58,29l-3.2-1.38s-12,4.21-23.49,17.5Z"/><path class="cls-3" d="M68.93,48.55A107.76,107.76,0,0,1,49.12,30.3l-1.92.92s4,12,20.61,17.93Z"/><path class="cls-3" d="M50,71.29S36.31,68.87,28.77,51l-2.42,9.16s8.23,17.07,20.39,20.41Z"/><path class="cls-3" d="M127.07,41.6S150.81,23.33,170.23,24l2.27.72s-19.84-.86-42.29,16.91Z"/><path class="cls-3" d="M52,29.07s29.39,1.7,47.72,13.39l1.66-.11S88,29.23,54.5,28.08Z"/><path class="cls-9" d="M74,96.84s.5-42.77,28.64-64.36l-9.52-9S60.25,41.8,74,96.84Z"/><path class="cls-10" d="M64.93,51C52.49,59.89,48.54,75.32,46,82.94,42.87,92,47.31,102.45,35.08,131A182.82,182.82,0,0,1,26,97C23.48,80.42,23.76,52.4,35,39.76l0,0s8.24,16.15,12.86,17.45S64.23,51.4,64.93,51Z"/><path class="cls-10" d="M197.69,135.11s-4.51-27.4-5.12-43.09-11.68-29.75-20.94-37.86a46.8,46.8,0,0,0-6.32-4.61,54.31,54.31,0,0,0,21.84,6.73c13.51,1.16,12.7-14.68,12.7-14.68l.94,1.12C215.12,64.62,212.79,106.73,197.69,135.11Z"/><path class="cls-3" d="M199.14,3.86S233,24.09,220.76,53.42l2.65-1.2S234,18.07,201.06,3.86Z"/><path class="cls-3" d="M194.92,4.53S214.31,18,212.08,55.38l3-.37s.35-39.33-18.71-50.48Z"/><path class="cls-3" d="M226.67,10.61s7.93,22-1.15,40.38c0,0,4.91-2.37,8.47-9.39,0,0,2.92-12.58.66-21.45C234.65,20.15,230.67,12.88,226.67,10.61Z"/><path class="cls-11" d="M175.42,25.7s27.65-2.05,31.23,29.74C206.65,55.44,202.26,31.86,175.42,25.7Z"/><path class="cls-12" d="M61.25,25.83s-26.51,5.92-35.2,36C26.05,61.79,20.51,32.68,61.25,25.83Z"/></g></g></g></svg>