<svg xmlns="http://www.w3.org/2000/svg" xmlns:xlink="http://www.w3.org/1999/xlink" viewBox="0 0 232 173.74"><defs><style>.cls-1{isolation:isolate;}.cls-2{fill:url(#_626_3);}.cls-12,.cls-3,.cls-4,.cls-5,.cls-6,.cls-7,.cls-8,.cls-9{mix-blend-mode:multiply;}.cls-3{fill:url(#Áåçûìÿííûé_ãðàäèåíò_2);}.cls-4{fill:url(#Áåçûìÿííûé_ãðàäèåíò_2-2);}.cls-5{fill:url(#Áåçûìÿííûé_ãðàäèåíò_2-3);}.cls-6{fill:url(#Áåçûìÿííûé_ãðàäèåíò_2-4);}.cls-7{fill:url(#Áåçûìÿííûé_ãðàäèåíò_2-5);}.cls-8{fill:url(#Áåçûìÿííûé_ãðàäèåíò_2-6);}.cls-9{fill:url(#Áåçûìÿííûé_ãðàäèåíò_2-7);}.cls-10{fill:url(#_626_3-2);}.cls-11{fill:url(#_626_2);}.cls-12{fill:#ce77b5;}.cls-13{fill:#ffd6b8;mix-blend-mode:soft-light;}</style><linearGradient id="_626_3" x1="117.05" y1="34.57" x2="117.05" y2="173.74" gradientUnits="userSpaceOnUse"><stop offset="0" stop-color="#45124f"/><stop offset="1" stop-color="#4d0013"/></linearGradient><linearGradient id="Áåçûìÿííûé_ãðàäèåíò_2" x1="117.5" y1="159.46" x2="117.5" y2="60.69" gradientUnits="userSpaceOnUse"><stop offset="0.01" stop-color="#9c66a3"/><stop offset="0.98" stop-color="#cf98af"/></linearGradient><linearGradient id="Áåçûìÿííûé_ãðàäèåíò_2-2" x1="30.74" y1="117.75" x2="42.77" y2="117.75" xlink:href="#Áåçûìÿííûé_ãðàäèåíò_2"/><linearGradient id="Áåçûìÿííûé_ãðàäèåíò_2-3" x1="30.97" y1="133.1" x2="40.83" y2="133.1" xlink:href="#Áåçûìÿííûé_ãðàäèåíò_2"/><linearGradient id="Áåçûìÿííûé_ãðàäèåíò_2-4" x1="32.02" y1="154.33" x2="40.38" y2="154.33" xlink:href="#Áåçûìÿííûé_ãðàäèåíò_2"/><linearGradient id="Áåçûìÿííûé_ãðàäèåíò_2-5" x1="191.12" y1="118.46" x2="203.22" y2="118.46" xlink:href="#Áåçûìÿííûé_ãðàäèåíò_2"/><linearGradient id="Áåçûìÿííûé_ãðàäèåíò_2-6" x1="193.43" y1="132.74" x2="203.35" y2="132.74" xlink:href="#Áåçûìÿííûé_ãðàäèåíò_2"/><linearGradient id="Áåçûìÿííûé_ãðàäèåíò_2-7" x1="194.34" y1="153.31" x2="202.79" y2="153.31" xlink:href="#Áåçûìÿííûé_ãðàäèåíò_2"/><linearGradient id="_626_3-2" x1="100.27" y1="76.61" x2="100.27" y2="31" xlink:href="#_626_3"/><linearGradient id="_626_2" x1="116" x2="116" y2="140.65" gradientUnits="userSpaceOnUse"><stop offset="0" stop-color="#773184"/><stop offset="1" stop-color="#82142f"/></linearGradient></defs><g class="cls-1"><g id="Layer_2" data-name="Layer 2"><g id="Layer_1-2" data-name="Layer 1"><path class="cls-2" d="M203.35,123.13c0,1.79-.08,3.55-.16,5.29h0c-.1,1.89-.23,3.75-.4,5.57a164.93,164.93,0,0,1-8,38.64,106.5,106.5,0,0,0-.41-27.18h0c-.12-1-.28-2-.45-3.08-.13-.88-.29-1.78-.46-2.69-.24-1.42-.54-2.85-.86-4.32-.42-1.92-.9-3.86-1.45-5.85a107.9,107.9,0,0,0-32.21-52.37c-28-25.19-100.28-17.74-116.14,51.76-.46,2.06-.89,4.19-1.25,6.36-.26,1.52-.5,3.06-.69,4.64-.13.93-.25,1.89-.34,2.85s-.23,2.14-.32,3.22h0a160.85,160.85,0,0,0,.21,27.77A232.83,232.83,0,0,1,32,134.92h0c-.24-1.91-.45-3.84-.62-5.81s-.32-3.74-.43-5.63q-.25-4.44-.23-8.9a102.16,102.16,0,0,1,1-14.32,60,60,0,0,1,5.35-18c16.07-32.14,32-23.13,32-23.13s7.46-11,29-21.16S180,40.29,196.49,81.82a95.35,95.35,0,0,1,5.35,19.75h0a113.17,113.17,0,0,1,1.38,13.31C203.36,117.67,203.4,120.43,203.35,123.13Z"/><path class="cls-3" d="M195.35,159.46c-.3-18.87-5.46-54.43-36.49-82.33-31.19-28.06-117.32-15.62-119.21,78,1.56-96.85,88-109.75,119.21-80.82S195.12,140.14,195.35,159.46Z"/><path class="cls-4" d="M42.77,128.89c-.46,2.06-.89,4.19-1.25,6.36L30.74,114.57a102.16,102.16,0,0,1,1-14.32Z"/><path class="cls-5" d="M40.83,139.89c-.13.93-.25,1.89-.34,2.85L31.4,129.1q-.27-2.79-.43-5.63Z"/><path class="cls-6" d="M40.38,173.74A232.83,232.83,0,0,1,32,134.92l8.15,11h0A160.85,160.85,0,0,0,40.38,173.74Z"/><path class="cls-7" d="M203.22,114.89l-10.65,20.46c-.42-1.92-.9-3.86-1.45-5.85l10.72-27.92A113.17,113.17,0,0,1,203.22,114.89Z"/><path class="cls-8" d="M203.35,123.13c0,1.79-.08,3.55-.16,5.29h0l-9.3,13.94c-.13-.88-.29-1.78-.46-2.69Z"/><path class="cls-9" d="M194.75,172.63a106.5,106.5,0,0,0-.41-27.18h0L202.79,134A164.93,164.93,0,0,1,194.75,172.63Z"/><path class="cls-10" d="M76.68,76.61c12.72-6.83,26.79-12,45.17-11.91,0,0,8.24-33.09-8.6-33.69C93.36,30.29,76.68,76.61,76.68,76.61Z"/><path class="cls-11" d="M216.36,84.53a66.15,66.15,0,0,0-6.9-6.35c17.58,1.58,22.29-14,22.54-15-.44.42-6.67,6.44-11.56.17-5.09-6.5,5.67-27-14-43.31s-36.6-2.85-36.6-2.85S135.44-6.56,100.26,1.77C83.41,5.76,76.09,17.26,73,28.18a60.8,60.8,0,0,0-1.63,23v0S47.74,27.43,22,41.46C1.25,52.81,4.31,79.25,4.31,79.25S-3,93.08,1.46,104.88c4.32,11.42,13,13.67,13.59,13.8-.63-.38-11.78-7-11.78-17.07S8.36,82.8,8.55,82.27c-.19.74-5.34,16.11,1.86,27.48.52.83,1.05,1.61,1.58,2.32,6.46,8.74,13.44,10,14.35,10.05-1.29-.46-15.41-5.85-12.89-26.4C15.66,77.54,35,63.55,41,59.6a1,1,0,0,1,.15-.1l1.52-1a.07.07,0,0,1,.06,0c-.82.78-17.41,17-7.71,39.76,0,0,0,0,0,0a2.88,2.88,0,0,0,.19.45C45.57,122.35,73,116,73,116s-21.34-3-18.7-23.78S76.68,76.62,76.68,76.62s21.76-52.48,38.43-41.5-9.16,49,24.19,72.18,56.93,9.35,69.74,15.85,12.81,17.5,12.81,17.5,9.2-11.88,8-28C229.28,104.1,225.75,94.34,216.36,84.53Z"/><path class="cls-12" d="M229.89,112.64c1.16,16.13-8,28-8,28s0-11-12.81-17.5-36.39,7.33-69.74-15.85-7.51-61.2-24.19-72.18-38.43,41.5-38.43,41.5S57,71.53,54.31,92.26,73,116,73,116s-27.44,6.31-37.8-17.28a2.88,2.88,0,0,1-.19-.45c6.92,10.41,16.86,11.44,16.86,11.44l0,0c-.47-.63-10.6-14.65-3.25-41.47s22-17.61,22.73-17.1a.07.07,0,0,1,0,0S70.54,38.94,77,28.81a7.91,7.91,0,0,1,.44-.68l.15-.21C80.29,23.76,93.4,6.75,123.85,15c34.57,9.38,25.58,39.6,52,51.4S225.46,76,232,63.21c-.25.93-5,16.55-22.54,15,0,0-29.49-1.18-50.42-21.32-19.34-18.57-21.17-41-51.88-40.38C120.1,20,125.48,23.13,133,68.07c3.82,22.71,21.19,33.64,39.11,38.31a97.92,97.92,0,0,0,27.78,3c22.56-.8,23.57,16.89,23.57,16.89C226.94,122.29,228.75,117.62,229.89,112.64Z"/><path class="cls-12" d="M169.8,17.23a137.24,137.24,0,0,1,15.49,13.24C192.94,38.11,198,49.78,198,49.78s-.79-14.29-7.72-22.18S169.8,17.23,169.8,17.23Z"/><path class="cls-12" d="M42.72,58.51l0,0a.07.07,0,0,0-.06,0,7.19,7.19,0,0,0-1.52,1,1,1,0,0,0-.15.1c-6,3.95-25.31,17.94-27.52,36.12-2.52,20.55,11.6,25.94,12.89,26.4-.91-.1-7.89-1.31-14.35-10.05a38.33,38.33,0,0,1-1-25.81C16.51,67.93,42.72,58.51,42.72,58.51Z"/><path class="cls-13" d="M40.91,57.35A59.62,59.62,0,0,0,21.8,68c8.39-15.38-1.91-25.06-14.94-5.37,9.56-21.08,25.75-28.21,49-20.55C37,39.41,24.72,45.32,40.91,57.35Z"/><path class="cls-13" d="M102.08,12.43c16.11-1.38,31.16.72,42.89,13.62-12.46-16.36-6.26-20,19.35-10.28C138.13,1.45,114.81-1.87,94.2,5.14,114.15,1,124.05,3.28,102.08,12.43Z"/><path class="cls-13" d="M181.77,20.67a25,25,0,0,1,12.66,10.87c.59-12.3,6.52-13.41,18.4-2-12.13-15.22-24.42-18-36.8-14.33C185.24,14.51,190.81,15.08,181.77,20.67Z"/><path class="cls-13" d="M157,40.38s10.26,29.79,49.91,31.81a31.57,31.57,0,0,0,15.05-2.86S209.07,68.58,199,53c-8.52-13.16-14-18.16-14-18.16C216.56,77.75,171.13,61.44,157,40.38Z"/><path class="cls-13" d="M133.32,54.3c-1.58,26.49,14,44.05,47.49,52.33q-28.84-29.38-.36-33Q164,65.16,153.93,54.12C158.77,84.05,137.49,73.14,133.32,54.3Z"/><path class="cls-12" d="M51.86,109.73c-.47-.63-10.6-14.65-3.25-41.47s22-17.61,22.73-17.1a.07.07,0,0,1,0,0C49.52,54,41.88,84.57,51.86,109.73Z"/><path class="cls-12" d="M172.12,106.38c-7-.45-27.52-3.59-38.26-24.49-13.09-25.43-4.88-57.68-24-58.42-25.63-1-38.46,27.71-38.46,27.71,7.64-27,20.75-37.1,35.78-34.7C120.1,20,125.48,23.13,133,68.07,136.83,90.78,154.2,101.71,172.12,106.38Z"/></g></g></g></svg>