<svg xmlns="http://www.w3.org/2000/svg" xmlns:xlink="http://www.w3.org/1999/xlink" viewBox="0 0 190.04 145"><defs><style>.cls-1{isolation:isolate;}.cls-2{fill:url(#_185);}.cls-3,.cls-4,.cls-5{fill:#a83a71;}.cls-3,.cls-4{mix-blend-mode:multiply;}.cls-4{opacity:0.5;}</style><linearGradient id="_185" x1="95.02" y1="-11.06" x2="95.02" y2="150.65" gradientUnits="userSpaceOnUse"><stop offset="0" stop-color="#850e3b"/><stop offset="1" stop-color="#39002e"/></linearGradient></defs><g class="cls-1"><g id="Layer_2" data-name="Layer 2"><g id="Avatar_face" data-name="Avatar face"><path class="cls-2" d="M190,62.52c-1.46,6.38-2.67,13-3.67,19.38-.18,1.14-.35,2.28-.52,3.41-3.5,23.84-4.22,44.73-4.22,44.73-2,5-2.56,15-2.56,15L162.45,95.7c0-.33,0-.67.05-1,.07-.89.17-1.77.31-2.62,1.09-7.21-.9-13.35-.55-14,0,0,0,0,0,0h0c-.26-.1-.52-.18-.78-.26C134.53,69,95,67.48,95,67.48S54.8,69,27.75,78.08h0c.18.3-1.25,7.28-.9,16.37l-1.69,4.62-6.75,18.44-7.1,26.33S10.37,135,8.41,130c0,0-.38-11-1.93-26.13-.2-1.92-.41-3.92-.64-6C4.72,88.31,3.16,77.5,1,67c-.3-1.49-.62-3-1-4.46,0,0,.12-.36.38-1,.46-1.2,1.36-3.42,2.69-6.26,0,0,0,0,0,0a105.34,105.34,0,0,1,11-18.53s-5.56-2,0-6.95a21.46,21.46,0,0,1,8.35-4.08,47.3,47.3,0,0,1,9-1.55L38,20.8s2.51-8.28,7.52-12.58,9.84,1.66,9.84,1.66l9.85-3.31s-.72-4.64,6.09-6,16.82,2,16.82,2H102s.24-3.62,7-2.3,15.85,6.28,15.85,6.28l9.69,3.25.17.06s.38-.07,1.05-.14h0c2.68-.29,9.77-.66,13.78,2.78A9.32,9.32,0,0,1,152.27,16a5.48,5.48,0,0,1-.18,4.76l6.44,3.31s11.82.67,17.38,5.63,0,7,0,7A105.47,105.47,0,0,1,187,55.22s0,0,0,0C189,59.61,190,62.52,190,62.52Z"/><path class="cls-3" d="M187,55.24s0,0,0,0a105.47,105.47,0,0,0-11.05-18.53,2.19,2.19,0,0,0,.27-.11,4.22,4.22,0,0,0,1.91-1.66,2.54,2.54,0,0,0,.22-1.8c-13.9-1.06-27.29-.7-35.77-2.24h0l-1.06-.2q-.53-.12-.9-.24h0c-1.78-.35-3.28-2.72-7.16-3,0,0-5.67.23-14.11,0-13.83-.38-18.62-4-19-4.35-2.42-.6-12.72-1-12.72-1-2.92.06-12.06,3-17.11,2.47-18.4,1-16.65,3.7-16.65,3.7-2.52,3.73-18,7.85-27.87,4.9-2.58-.77-3.77-1.71-4.11-2.68a1.82,1.82,0,0,1-.08-1c.41-2.42,4.9-4.72,4.9-4.72-1.27.23-2.7.53-4.16.94a21.46,21.46,0,0,0-8.35,4.08c-5.56,5,0,7,0,7a105.34,105.34,0,0,0-11,18.53s0,0,0,0l0,0s0,0,0,0a.05.05,0,0,0,0,0C1.71,58.14.83,60.31.38,61.5c-.13.33-.22.58-.28.75l0,0h0l0,.12s0,0,0,0H0a0,0,0,0,0,0,0v0s5.37,6.62,8.41,8.6a60.83,60.83,0,0,0,7.7,4S17,83,22,83.37s5.73-5.29,5.73-5.29l.34-.12C55.15,69,95,67.48,95,67.48s40.21,1.55,67.27,10.6c0,0,.6,4.73,4.58,5.26l.34,0H168c5-.33,5.91-8.27,5.91-8.27a60.83,60.83,0,0,0,7.7-4c3-2,8.41-8.6,8.41-8.6S189,59.61,187,55.24ZM52,25.53c1.7-.58.05-2.05-1.36-4h0c-.59-.49-.58-1,.15-1.51C56.61,16,70.41,14.6,79,17.61c.48.16.94.35,1.38.54,9.79,3.66,21.69,3.44,31.27,2.16a29.05,29.05,0,0,1,4.3-.66h0c8.23-.67,16.07,2.05,17.68,6.74a34.57,34.57,0,0,0,14.2.53h0c.48-.09,1-.19,1.45-.27h0c6.16-1.17,13-2.06,13.16-2.07-2.3-.36-3.9-.45-3.9-.45l-6.44-3.31a5.61,5.61,0,0,0-.25-5.63c-3.73,3-34,2.56-34.55-1.48s17.43-3.81,17.43-3.81l-.16-.06-9.69-3.26-.58-.31c4.5,3.08-6.8,5.65-16.49,2.58S102,2.59,102,2.59H88.07a42.79,42.79,0,0,1,3.48,2.56c2,1.63-14.24,6.52-26.39,1.41L55.31,9.88A10.29,10.29,0,0,0,54,8.56c.07.13,2.76,4.86-4.86,7.3a37.19,37.19,0,0,1-10,1.81A33.08,33.08,0,0,0,38,20.8l-6.44,3.31C34.33,23.9,44.56,23.34,52,25.53ZM85.17,11.91c13.94-10.26,32.69,4.66,23.47,5.35C99.64,17.94,76.53,18.28,85.17,11.91ZM30.77,24.16h0Z"/><path class="cls-4" d="M190,62.52s-5.37,6.62-8.41,8.6a60.83,60.83,0,0,1-7.7,4S173,83,168,83.37h-.1a6,6,0,0,1-1,0c-4-.53-4.58-5.26-4.58-5.26C135.23,69,95,67.48,95,67.48S55.15,69,28.09,78l-.34.12S27,83.7,22,83.37s-5.91-8.27-5.91-8.27a60.83,60.83,0,0,1-7.7-4c-3-2-8.41-8.6-8.41-8.6v0a0,0,0,0,1,0,0H0l.06-.15h0c.07-.17,1.76-4.18,2.57-6.08l.14-.33.06-.15L3,55.36a.05.05,0,0,1,0,0s0,0,0,0l0,0c-.06.38-.69,5.08,2.53,7.94A601.14,601.14,0,0,1,95,55.89c45,0,89.42,7.29,89.42,7.29,3.21-2.86,2.59-7.56,2.53-7.94C189,59.61,190,62.52,190,62.52Z"/><path class="cls-3" d="M158.53,24.11S146.59,23,138.28,25.26a9.35,9.35,0,0,0-6.3-5s14,1.16,20.29-4.25a5.48,5.48,0,0,1-.18,4.76Z"/><path class="cls-3" d="M78.06,14.46c.13.56-13.09-2.09-25.94,2.8a11.46,11.46,0,0,0,3.19-7.38l9.85-3.31c3.59,3.58,13.42,4.17,24.62.91C89.41,7.63,77.56,12.39,78.06,14.46Z"/><path class="cls-3" d="M187,55.24s0,0,0,0a105.47,105.47,0,0,0-11.05-18.53l-.38-.07.65,0a4.17,4.17,0,0,0,1.91-1.66C159.09,33.81,141.3,32,141.3,32,130,31,122.67,30.9,122.67,30.9s6.86,1.62,8.56,4.41C133.54,39.12,127.36,43,111,42h-.67c-.46-.13-6.25-1.58-4.58-4.81,1.32-2.57,8.23-4.52,8.23-4.52s-15.45-2-17.22-4.52c-3.1-4.42,7.31-8.18,7.31-8.18-10-.84-16.38-1.14-16.38-1.14,5.55,4.05.89,10.61.89,10.61C99.8,31.82,109,39.62,95,38.93c-7.67-.39-24.08,1.3-28.16-.7-1.59-.78-6-4.38,0-6.64A67.35,67.35,0,0,1,79.2,28.12a75,75,0,0,0-15.11-2.46c-4.91-.36-9.7-.4-9.7-.4s12.68,4.15,7.21,6.5C45.05,38.88,21,35.55,17,30.62c-1.14-1.41,5-3.69,5.46-5a21.53,21.53,0,0,0-8.35,4.08c-5.56,5,0,7,0,7a106,106,0,0,0-11,18.53s0,0,0,0l0,0s0,0,0,0a.05.05,0,0,0,0,0c0,.09-.1.22-.16.38a1,1,0,0,0-.07.15l-.14.33a1.42,1.42,0,0,1-.08.18c-.8,1.9-2.29,5.46-2.54,6,0,0,0,0,0,0H0a0,0,0,0,0,0,0v0s5.37,6.62,8.41,8.6a60.83,60.83,0,0,0,7.7,4S17,83,22,83.37s5.73-5.29,5.73-5.29L28.1,78C55.15,69,95,67.48,95,67.48s40.21,1.55,67.27,10.6c0,0,.6,4.73,4.58,5.26.4,0,.71,0,.93,0H168c5-.33,5.91-8.27,5.91-8.27a60.83,60.83,0,0,0,7.7-4c3-2,8.41-8.6,8.41-8.6S189,59.61,187,55.24Zm-138-5.75c-4.87,3.68-27.57.81-30.73-1.05C15.66,47,19.25,40,37.68,40.64,43.91,40.86,52.32,46.93,48.93,49.49ZM87.64,53.6c-13.52-2.51-17.13.84-22.1-.31C52.11,50.18,69,41.13,85.21,47.16,89.6,48.78,91.62,54.34,87.64,53.6Zm78.69-5.73c-4.15,1.67-25.2-.94-35.44,0-4.5.41,2.93-8.51,10.92-10.45S172.54,45.37,166.33,47.87Z"/><path class="cls-5" d="M103.06,28.26l-.15.1a.71.71,0,0,0-.2-.16Z"/></g></g></g></svg>