<svg xmlns="http://www.w3.org/2000/svg" xmlns:xlink="http://www.w3.org/1999/xlink" viewBox="0 0 229.69 230.93"><defs><style>.cls-1{isolation:isolate;}.cls-2{fill:url(#Áåçûìÿííûé_ãðàäèåíò_97);}.cls-3,.cls-4,.cls-5,.cls-6,.cls-7{mix-blend-mode:multiply;}.cls-3{fill:url(#Áåçûìÿííûé_ãðàäèåíò_123);}.cls-4{fill:url(#Áåçûìÿííûé_ãðàäèåíò_136);}.cls-5{fill:url(#Áåçûìÿííûé_ãðàäèåíò_123-2);}.cls-6{fill:url(#Áåçûìÿííûé_ãðàäèåíò_136-2);}.cls-7{fill:url(#Áåçûìÿííûé_ãðàäèåíò_123-3);}.cls-8{fill:#ffd9bb;mix-blend-mode:soft-light;}</style><linearGradient id="Áåçûìÿííûé_ãðàäèåíò_97" x1="114.84" y1="230.93" x2="114.84" gradientUnits="userSpaceOnUse"><stop offset="0" stop-color="#c7544b"/><stop offset="1" stop-color="#b63651"/></linearGradient><linearGradient id="Áåçûìÿííûé_ãðàäèåíò_123" x1="75.53" y1="230.72" x2="75.53" y2="4.7" gradientUnits="userSpaceOnUse"><stop offset="0" stop-color="#ffeadb"/><stop offset="0.99" stop-color="#d177f4"/></linearGradient><linearGradient id="Áåçûìÿííûé_ãðàäèåíò_136" x1="195.95" y1="228.12" x2="195.95" y2="51.24" gradientUnits="userSpaceOnUse"><stop offset="0.01" stop-color="#d177f4"/><stop offset="1" stop-color="#ffeadb"/></linearGradient><linearGradient id="Áåçûìÿííûé_ãðàäèåíò_123-2" x1="15.12" y1="205.39" x2="15.12" y2="112.05" xlink:href="#Áåçûìÿííûé_ãðàäèåíò_123"/><linearGradient id="Áåçûìÿííûé_ãðàäèåíò_136-2" x1="46.57" y1="230.71" x2="46.57" y2="137.99" xlink:href="#Áåçûìÿííûé_ãðàäèåíò_136"/><linearGradient id="Áåçûìÿííûé_ãðàäèåíò_123-3" x1="183.07" y1="96.29" x2="183.07" y2="41.21" xlink:href="#Áåçûìÿííûé_ãðàäèåíò_123"/></defs><g class="cls-1"><g id="Layer_2" data-name="Layer 2"><g id="layer1"><path class="cls-2" d="M222.57,140.9a1.21,1.21,0,0,0,0-.18,1.45,1.45,0,0,1,0-.16c-1.5-4.86-3-9.7-4.39-14.51a127.21,127.21,0,0,1-3.48-15.52c-.74-4.94-1.33-9.22-1.86-13v0q-.09-.69-.18-1.35c-.08-.56-.15-1.1-.23-1.64l0-.11c-.67-5-1.23-9.25-1.88-13.26l-.06-.37-.09-.52c-.29-1.85-.62-3.66-1-5.48-.75-3.88-1.67-7.83-2.93-12.4-4.39-15.88-38.85-26.15-45-30.12-16-10.3-24.55-29.85-49.61-32S73.67,17.68,47.48,38.5h0l-4.18,3.32h0c-4.55,3.62-8.41,6.69-11.72,9.4l-.1.08c-3.53,2.9-6.43,5.4-8.87,7.73C16,65.33,12.67,70.37,9.22,78.78c-6.3,15.31,0,37.22-4.94,60.09A188.28,188.28,0,0,0,.17,168.1a98.28,98.28,0,0,0,.57,18.06c1,7.61,3.25,14.32,7.11,19.26a43.78,43.78,0,0,0,14.63,11.84,37.59,37.59,0,0,0,4.1,5,53.55,53.55,0,0,0,5.68,2.52l.13.05.09,0c1.37.53,3,1.1,4.79,1.68h0A92.49,92.49,0,0,0,52.2,230h.06l.16,0c2.07.3,4.24.54,6.5.69H59a87.57,87.57,0,0,0,10.16.11S43,199.88,40,154.35c.32,2.11,5.42,35.91,13.57,48.07a310.7,310.7,0,0,1-5.08-34.57s0-.08,0-.11a270.55,270.55,0,0,1-1-37.38c1.73-36.68,20.86-78,35.33-88.52s51.45-11.62,63.77-2.59l-.71-3.9,3.72,3.08.41.35,1.08-1.1L155.32,40l-1.26,1.21-.66.62h0a116.16,116.16,0,0,1,8.77,9.36l0,0C169.65,60,179.73,74,183.91,89.58c7,26.08-.79,105.43-8,130.77,0,0,10.33-13.39,14.9-27.46-2.37,8.9-7.15,22.87-15.94,34.71,0,0,10,2.63,21.47-3.9,8.54-4.86,18.14-16.9,24.1-27.48-.52,1.12-7.28,15.64-16.65,24.07l-.05,0,0,0a31.39,31.39,0,0,1-3.89,3c.82-.38,27.12-12.9,29.55-39C230.81,169.12,226.86,154.83,222.57,140.9ZM16,203.14A46.5,46.5,0,0,1,12,190.48c-1.69-9.53-1.24-21.75,3.14-37.43C14.81,154.41,9.54,181,16,203.14Z"/><path class="cls-3" d="M149.58,38.43l-3.72-3.08.71,3.9c-12.32-9-49.31-7.88-63.77,2.59S49.2,93.68,47.47,130.36a270.55,270.55,0,0,0,1,37.38c-6.21-44.51,2.44-80,2.44-80A354.14,354.14,0,0,0,37.29,164.6a97.72,97.72,0,0,0,1.32,23.92.5.5,0,0,0,0,.12C43,212.53,55.24,226.74,58.32,230l0,.05.64.66h-.09l-6.5-.69-.16,0H52.2c-.48-.34-15.6-11.67-17.32-44.42a.16.16,0,0,1,0-.07c0-.36,0-.74-.06-1.11a204.42,204.42,0,0,1,1.58-31.77v0c.59-4.93,1.29-9.76,2-14.33,0,0,0,0,0-.07v0a.06.06,0,0,0,0,0h0l0-.11c2.91-17.93,6.52-32,6.85-33.26a387.71,387.71,0,0,0-16.54,70.41c-3.27,24.37.93,38.42,4.5,45.49.15.3.3.59.47.88a21.54,21.54,0,0,0,3.51,5l-4.79-1.68-.09,0-.13-.05c-.53-.25-2.5-1.37-4.29-5.08a24.15,24.15,0,0,1-1.29-3.28c-2-6.39-3.11-17.53-.1-36.76C33,138.71,48.67,82.87,48.67,82.87S24.49,115.79,15.1,153c0,0,0,0,0,.05C10.71,168.73,10.26,181,12,190.48c.21,1.5.46,2.89.73,4.15a.43.43,0,0,0,0,.05c1.52,7,3.78,10.37,4,10.71h0c-.44-.22-11.84-6.25-16-19.25A98.28,98.28,0,0,1,.17,168.1c1.9-8.77,6.63-19.74,12.71-31.47l.12-.23c1.9-3.66,3.93-7.4,6.05-11.16.13-.21.25-.42.37-.63,9.42-16.73,20.52-34,29.33-48l2.65-4.22.81-1.29,1.58-2.53L62.25,55c11.86-18.89,20.16-31.89,20.48-32.4C67,32.08,44,41.54,43.29,41.83l4.18-3.32h0c.34-.13,5.88-2.36,20.14-9.72,14.71-7.6,42.23-29.71,57.71-22.73s25.74,31.63,25.74,31.63Z"/><path class="cls-4" d="M229.4,184.38c-2.43,26.07-28.73,38.59-29.55,39a31.39,31.39,0,0,0,3.89-3l0,0,.05,0c9.37-8.43,16.13-22.95,16.65-24.07-6,10.58-15.56,22.62-24.1,27.48-11.51,6.53-21.47,3.9-21.47,3.9,8.79-11.84,13.57-25.81,15.94-34.71-4.57,14.07-14.9,27.46-14.9,27.46,7.19-25.34,15-104.69,8-130.77C179.73,74,169.65,60,162.22,51.24c.68.57,7.14,6.16,14.05,17.51a.08.08,0,0,0,0,0l0,.06a114.74,114.74,0,0,1,12.35,29.06l0,0c.65,2.35,1.26,4.81,1.81,7.36,8,37-2.08,89.19-2.39,90.8.43-1.44,16.89-56.51,10.52-92.41.41,1.87,8.79,41.46,3.42,72.65-5.43,31.43-11.16,41.48-11.33,41.79.47-.22,32.86-2.57,32.44-44.36-.31-31.9-9.24-54.87-10.41-76.29.53,3.81,1.12,8.09,1.86,13a127.21,127.21,0,0,0,3.48,15.52c2.5,13.66,5.42,30.11,7.74,44.42,4.36,27-15.1,44.42-20.65,48.8,5.58-4.24,25.25-20.8,23.33-41.48-2-21.85-5.35-34.71-5.94-36.89C226.86,154.83,230.81,169.12,229.4,184.38Z"/><path class="cls-5" d="M16.71,205.39A46.29,46.29,0,0,1,3,166.86c2.57-24.6,24.55-54.81,24.55-54.81S22,129.11,15.12,150.21,8.26,186.68,16.71,205.39Z"/><path class="cls-6" d="M52.42,230s-28.78-27.78-14-92c0,0-13,53.45,20.44,92.72Z"/><path class="cls-7" d="M153.39,41.84a153.8,153.8,0,0,1,31.66,25.28c14.9,15.75,27.69,29.17,27.69,29.17l-.42-1.93a236.91,236.91,0,0,0-25.38-28.75A154.21,154.21,0,0,0,156.61,42.7S175.3,48.4,190.91,61s19.53,20.09,19.53,20.09l-1.12-6.4s-11.5-14.31-26.25-21.81a192.8,192.8,0,0,0-29-11.7Z"/><path class="cls-8" d="M31.54,51.24s-2.06,4.34.92,7.53,16.06-1,19.74-1.13,10-2.6,10-2.6L48.75,76.6s1.16-2.74-1.61-5.71-15.41,1.74-21.77-1-2.81-10.81-2.81-10.81Z"/><path class="cls-8" d="M176.26,68.75s8.29,15.54,12.43,29.2A22.44,22.44,0,0,1,193,88.21c3.69-4.93,5.88-4.86,5.88-4.86L186.94,69.11Z"/><path class="cls-8" d="M188.72,67.36l5.67-3.44a108.4,108.4,0,0,1,8.85,8.27l-3.67,6.58S190.51,69.11,188.72,67.36Z"/></g></g></g></svg>