<svg xmlns="http://www.w3.org/2000/svg" xmlns:xlink="http://www.w3.org/1999/xlink" viewBox="0 0 189.57 305.18"><defs><style>.cls-1{isolation:isolate;}.cls-2{fill:url(#_185);}.cls-10,.cls-11,.cls-12,.cls-3,.cls-5,.cls-6,.cls-7,.cls-8,.cls-9{mix-blend-mode:multiply;}.cls-3{fill:url(#_48);}.cls-4{fill:url(#_185-2);}.cls-5{fill:url(#_48-2);}.cls-6{fill:url(#_48-3);}.cls-7{fill:url(#_48-4);}.cls-8{fill:url(#_48-5);}.cls-9{fill:url(#_48-6);}.cls-10{fill:url(#_48-7);}.cls-11{fill:url(#_48-8);}.cls-12{fill:#a83a71;}.cls-13{fill:#ffd7ff;opacity:0.5;mix-blend-mode:soft-light;}</style><linearGradient id="_185" x1="86.16" y1="577.78" x2="97.31" y2="5.48" gradientUnits="userSpaceOnUse"><stop offset="0" stop-color="#850e3b"/><stop offset="1" stop-color="#39002e"/></linearGradient><linearGradient id="_48" x1="94.79" y1="173.03" x2="94.79" y2="363.76" gradientUnits="userSpaceOnUse"><stop offset="0" stop-color="#8780e9"/><stop offset="1" stop-color="#fff"/></linearGradient><linearGradient id="_185-2" x1="94.79" y1="5.29" x2="94.79" y2="124.25" xlink:href="#_185"/><linearGradient id="_48-2" x1="11.5" y1="129.01" x2="11.5" y2="0.17" xlink:href="#_48"/><linearGradient id="_48-3" x1="12.47" y1="129.01" x2="12.47" y2="0.17" xlink:href="#_48"/><linearGradient id="_48-4" x1="33.37" y1="110.58" x2="33.37" y2="21.32" xlink:href="#_48"/><linearGradient id="_48-5" x1="180.34" y1="129.01" x2="180.34" y2="0.17" xlink:href="#_48"/><linearGradient id="_48-6" x1="168.65" y1="129.86" x2="168.65" y2="-0.15" xlink:href="#_48"/><linearGradient id="_48-7" x1="146.31" y1="129.01" x2="146.31" y2="0.17" xlink:href="#_48"/><linearGradient id="_48-8" x1="90.44" y1="112.72" x2="90.44" y2="-16.12" xlink:href="#_48"/></defs><g class="cls-1"><g id="Layer_2" data-name="Layer 2"><g id="Avatar_face" data-name="Avatar face"><path class="cls-2" d="M185.89,139.08c0-2.12,0-4.21,0-6.27-20.91,0-41.81.09-62.71.09H29.48c-5.14,0-10.28,0-15.42,0a104.21,104.21,0,0,0-10.46.23c3.9,18.57,10.34,88.33,10.32,92.14,0,6,3.26,40,0,47.57s.77,25.84.77,25.84c8.93,5.18,13.83-2.15,13.83-2.15-2.22-12.61,1.52-23.23,1.29-31.18s-1.29-29.51-1.29-29.51c.54,6.89,4.51,19.9,3.59,28.49s-.69,21.6-.69,21.6c.23,3.74,10.66,8.46,11.95,4.37,2.11-6.66,2.09-22.06,2.09-22.06a85.38,85.38,0,0,1,0,14.71,47.61,47.61,0,0,0,1.82,16.54c4.59,5.06,11.26.46,11.26.46A89.68,89.68,0,0,1,59.92,285c1.38-7.13,0-24.09,0-24.09a160.12,160.12,0,0,1,1.89,16.27c.52,8.51,0,18.51,0,18.51,6.78,2.22,14.88.82,14.88.82,4.6-11.46,2.76-44.37,2.76-44.37s1.24,6.3,2.53,14.47,0,29.9,0,29.9a19.23,19.23,0,0,0,14.18-1.17c-.3-10.11,1.59-39.3,1.59-39.3s5.37,11.72,6.29,23.21-.23,18.61,0,22.31c.57,9.17,10.89-1.86,10.89-1.86,6.11-9.5,7.75-43.66,7.75-43.66,1.19,8.27,3.65,29.65,3.65,29.65,7.13,3.21,12.25,0,12.25,0,2.69-1.76,4.32-13.95,4.46-15.08-.94,8.71,1.44,19.9,1.44,19.9,8.22,7.6,11.41,1.43,11.41,1.43.69-12.71,2.75-27.41,1.92-35.21-1.15-10.8,4.42-19.76,4.42-19.76a94.21,94.21,0,0,1,.32,16.46,61.12,61.12,0,0,0,1.81,17.77c9.47,3.47,14.12-1.84,14.12-1.84-.08-8.48-2-12.56-1.15-19.92S186.14,154.58,185.89,139.08Z"/><path class="cls-3" d="M180.71,206.31c3-19.32,4.23-57.43,5.18-67.23.2-2.11,0-4.21,0-6.26-20.91,0-41.82.08-62.71.08H29.48c-5.13,0-10.28,0-15.42,0-3.49,0-7-.07-10.46.23C5.93,144.18,9.49,186.7,11.71,196c8.19-20.3,11.6-.73,13.65,27.27.76,10.4-.68,43.07-1.74,50.73S14.57,282.6,13,276c-1.47,8.57,1.65,22.69,1.65,22.69,8.93,5.18,13.83-2.15,13.83-2.15-2.22-12.61,1.52-23.23,1.29-31.18s-1.29-29.51-1.29-29.51c.54,6.89,4.51,19.9,3.59,28.49s-.69,21.6-.69,21.6c.23,3.74,10.66,8.46,11.95,4.37,2.11-6.66,2.09-22.06,2.09-22.06a85.38,85.38,0,0,1,0,14.71,47.61,47.61,0,0,0,1.82,16.54c4.59,5.06,11.26.46,11.26.46A89.68,89.68,0,0,1,59.92,285c1.38-7.13,0-24.09,0-24.09a160.12,160.12,0,0,1,1.89,16.27c.52,8.51,0,18.51,0,18.51,6.78,2.22,14.88.82,14.88.82,4.6-11.46,2.76-44.37,2.76-44.37s1.24,6.3,2.53,14.47,0,29.9,0,29.9a19.23,19.23,0,0,0,14.18-1.17c-.3-10.11,1.59-39.3,1.59-39.3s5.37,11.72,6.29,23.21-.23,18.61,0,22.31c.57,9.17,10.89-1.86,10.89-1.86,6.11-9.5,7.75-43.66,7.75-43.66,1.19,8.27,3.65,29.65,3.65,29.65,7.13,3.21,12.25,0,12.25,0,2.69-1.76,4.32-13.95,4.46-15.08-.94,8.71,1.44,19.9,1.44,19.9,8.22,7.6,11.41,1.43,11.41,1.43.69-12.71,2.75-27.41,1.92-35.21-1.15-10.8,4.42-19.76,4.42-19.76a94.21,94.21,0,0,1,.32,16.46,61.12,61.12,0,0,0,1.81,17.77c9.47,3.47,14.12-1.84,14.12-1.84-.07-7.1-1.42-11.11-1.36-16.54,0,0-4.46,8.26-6.3,5.2s-2.44-15.54-1.21-25.65S180.71,206.31,180.71,206.31Zm-144.66,75c-1.58-1.61-1.21-11.26-1.9-17.54-1.5-13.64-5-45.24-3.12-44.76s10,14.46,10.53,17-.26,33.6-.26,37.28S37.63,282.91,36.05,281.3Zm118.54-4.37c-.23,5.06-5.76,13.73-6.58,11.43s-3.15-40.07-3.38-48.11,5.88-30.93,9.25-34.54C156.58,202.81,154.82,271.88,154.59,276.93Z"/><path class="cls-4" d="M183.36,112.72c-2.31,4.86-6.85,12.3-8.44,10.28s-3.81-13.26-3.81-16.47c0-.51,0-1.12.08-1.8a112.61,112.61,0,0,1,2.52-15.18l-.12.34,0,.09c-.76,2-2.94,2.49-7.14,1.33S154.91,75.14,154,68.57v0a6.86,6.86,0,0,1,0-1.9c.8-4.78,3.72-23.37,3.72-23.37l0,0c-.37.3-7.53,6.14-11.66,8.21s-17.75-6.37-17.75-8.23.23-17.25.23-17.25a0,0,0,0,0,0,0c-.2.5-4.86,12.26-9,14.85l-.24.14c-4.62,2.46-21.18.82-22.59-1.46-1.81-2.92-5.83-13.88-5.83-13.88a88.08,88.08,0,0,1-3.18,9.28,26.22,26.22,0,0,1-3.74,6.72c-3.71,4.25-19.91,7.17-24.95,3.45s-8.5-16.19-8.5-16.19a140.18,140.18,0,0,0-.35,17.43c0,1.14,0,2.18,0,3.09h0a15.71,15.71,0,0,1-.28,3.3c-.8,2.92-11.32,13.87-16.1,16S20.38,60.59,19.89,60l0,0A137,137,0,0,1,25,83.2a6.72,6.72,0,0,1,0,.77c-.35,5.34-6.25,17.63-9.29,15.73a1.55,1.55,0,0,1-.46-.43,63.11,63.11,0,0,1,5.76,9c.64,1.2,1,1.94,1,1.94,1.59,2.4-2.32,16-5.78,17.06S3.68,112,2.35,109.36C1.2,107.07.05,99,1.13,94.83h0a5.18,5.18,0,0,1,.68-1.66,3.48,3.48,0,0,1,4.94-1.33C4.58,85.47-.93,70.86.13,68.48,1.06,66.39,4.48,56.68,8,54.19a2.72,2.72,0,0,1,1.56-.58A23.25,23.25,0,0,1,17,55h0l.17.06s-.45-19.48.09-21.6,13-15.25,17.5-15.78c3.18-.38,7.56,1.29,9.87,2.3a.05.05,0,0,0,0,0c.7.31,1.21.56,1.42.66l.1.06,6.2-2.55.06-.27c.35-1.24,1.92-6.63,4-9.4A6.76,6.76,0,0,1,57,7.68C59.69,5,76.42-1.35,82.26.26a10.13,10.13,0,0,1,3.22,1.53,11.83,11.83,0,0,1,4.21,5.89,33.14,33.14,0,0,1,4.61-.17s1.71-5,4.44-6.43a3.22,3.22,0,0,1,.78-.3c3.18-.8,25,1.06,27.34,4.24s3.45,8.88,3.45,8.88L134.83,15s4.1-3.57,11.8-3.84c3.48-.12,7.33,2.38,10.54,5.47,3.88,3.73,6.83,8.32,7.13,10.2.53,3.45-1.6,10.36-1.6,10.36s5.23-3.32,9.77-2.12a6.79,6.79,0,0,1,1.34.5c4.78,2.39,9.6,13.83,9.55,18.08s-2.5,21.64-2.5,21.64a2.68,2.68,0,0,1,3.4.78h0c3.41,3.58,5.25,14.71,5.3,17C189.71,101,188.9,101.07,183.36,112.72Z"/><path class="cls-5" d="M21.93,110.18c1.59,2.4-2.32,16-5.78,17.06S3.68,112,2.35,109.36C1.2,107.07.05,99,1.13,94.83h0C4.38,104.23,20,117.74,21,108.24,21.59,109.44,21.93,110.18,21.93,110.18Z"/><path class="cls-6" d="M24.94,84c-.35,5.34-6.25,17.63-9.29,15.73l-.46-.43s-3.41-1.77-8.43-7.43C4.58,85.47-.93,70.86.13,68.48,1.06,66.39,4.48,56.68,8,54.19c.19.46,9.7,23.7,11.8,27.38S24.79,84,24.94,84Z"/><path class="cls-7" d="M49.78,52.75c-.8,2.92-11.32,13.87-16.1,16S20.38,60.59,19.89,60l0,0c-1.09-1.73-2.06-3.37-2.91-5l.17.06s-.45-19.48.09-21.6C17.22,33.43,27.84,59,49.78,52.75Z"/><path class="cls-8" d="M183.36,112.72c-2.31,4.86-6.85,12.3-8.44,10.28s-3.81-13.26-3.81-16.47c0-.51,0-1.12.08-1.8h0c3.45,1.56,16.2-18.55,13.07-28.69,3.41,3.58,5.25,14.71,5.3,17C189.71,101,188.9,101.07,183.36,112.72Z"/><path class="cls-9" d="M183.36,53.61c-.06,4.25-2.5,21.64-2.5,21.64l-7.15,14.3-.12.34,0,.09c-.76,2-2.94,2.49-7.14,1.33S154.91,75.14,154,68.57v0c0-1.2,0-1.9,0-1.9s3.9,14.49,10.44,10.42,6.29-16.43,8.09-42a6.79,6.79,0,0,1,1.34.5C178.59,37.92,183.41,49.36,183.36,53.61Z"/><path class="cls-10" d="M162.7,37.15l-5,6.1,0,0c-.37.3-7.53,6.14-11.66,8.21s-17.75-6.37-17.75-8.23c5.54.44,10.61.52,13.5-1.59,7.64-5.57,15.83-19.61,15.44-25.07,3.88,3.73,6.83,8.32,7.13,10.2C164.83,30.24,162.7,37.15,162.7,37.15Z"/><path class="cls-11" d="M134.83,15a96.12,96.12,0,0,1-6.37,11,0,0,0,0,0,0,0c-.26.42-4.24,11.49-9.26,15-4.62,2.46-21.18.82-22.59-1.46-1.81-2.92-5.83-13.88-5.83-13.88a88.08,88.08,0,0,1-3.18,9.28,26.22,26.22,0,0,1-3.74,6.72c-3.71,4.25-19.91,7.17-24.95,3.45s-8.5-15.66-8.5-15.66a131.88,131.88,0,0,0-.35,16.9c0,1.14,0,2.18,0,3.09-1.07-23.09-4-28.81-4-28.81s3.23-1.23,3.23-1.23l3.07-1.26.06-.27c.35-1.24,1.92-6.63,4-9.4.07.45,6.58,26.84,9,29.66s6-2.75,9.69-6.82S85.48,1.79,85.48,1.79a11.83,11.83,0,0,1,4.21,5.89,33.14,33.14,0,0,1,4.61-.17s1.71-5,4.44-6.43c0,0,3.5,27.66,5.39,31.66,1.08,2.29,3.43,5.86,8.13.69,7.43-8.17,14.43-23.72,14.6-28.41,2.39,3.19,3.45,8.88,3.45,8.88Z"/><path class="cls-12" d="M98,40.44a2.85,2.85,0,0,1-1.39-.9c-1.81-2.92-5.83-13.88-5.83-13.88a88.08,88.08,0,0,1-3.18,9.28,26.22,26.22,0,0,1-3.74,6.72s4.78-24.42,3.66-38a11.77,11.77,0,0,1,2.18,4,33.14,33.14,0,0,1,4.61-.17A19.33,19.33,0,0,1,96.17,3.7C93.62,15.91,98,40.44,98,40.44Z"/><path class="cls-12" d="M61,46.11a6.82,6.82,0,0,1-2.06-1c-5-3.71-8.5-16.19-8.5-16.19a140.18,140.18,0,0,0-.35,17.43c0,1.14,0,2.18,0,3.09h0a15.71,15.71,0,0,1-.28,3.3,234.94,234.94,0,0,0-3.73-32.12l.1.06,6.2-2.55.06-.27c.17-.61.63-2.18,1.29-4C54.39,22.29,61,46.11,61,46.11Z"/><path class="cls-12" d="M19.87,60A137,137,0,0,1,25,83.2S20.67,62.63,12.47,53.84A24.46,24.46,0,0,1,17,55h0l.17.06S17,49.92,17,44.65c2.68,13.5,15,23,15,23s.17.5.47,1.33c-4.79.16-12.1-8.47-12.55-9Z"/><path class="cls-12" d="M21.93,110.18S10.44,99.77,4,91.42a3.6,3.6,0,0,1,2.76.42c-1.21-3.55-3.47-9.67-5-14.79,8.85,13.2,11.06,21.27,16.46,21.88-.93.87-1.82,1.22-2.54.77a1.55,1.55,0,0,1-.46-.43,63.11,63.11,0,0,1,5.76,9C21.59,109.44,21.93,110.18,21.93,110.18Z"/><path class="cls-12" d="M128.24,41.52c.06-4.53.22-15.52.22-15.52a0,0,0,0,0,0,0c-.2.5-4.86,12.26-9,14.85l-.24.14s10.13-16.3,9.91-31.51a32.16,32.16,0,0,1,1.21,4.41L134.83,15a15,15,0,0,1,3.84-2.18C134.39,19.83,128.55,39.12,128.24,41.52Z"/><path class="cls-12" d="M171.1,34.81C161.61,43,154.18,65.88,154,66.6c.79-4.8,3.71-23.35,3.71-23.35l0,0A112.29,112.29,0,0,1,148,50.34h0s11.79-12.93,16.39-22.22a39.94,39.94,0,0,1-1.68,9S167,34.46,171.1,34.81Z"/><path class="cls-12" d="M184.15,75.93a23.18,23.18,0,0,1-1.5,3c-4.74,7.91-9.73,23-11.5,28.53,0-.36,0-.66,0-.92,0-.51,0-1.12.08-1.8a112.61,112.61,0,0,1,2.52-15.18l-.12.34,0,.08a3.05,3.05,0,0,1-3.1,2c6.22-11.54,12.19-33.45,12.19-33.45L183,58c-.68,6.67-2.17,17.28-2.17,17.28A2.62,2.62,0,0,1,184.15,75.93Z"/><path class="cls-13" d="M19.09,37.11C24.94,34.21,38,22.68,38,22.68a29.18,29.18,0,0,0,3.37,13.58S28.93,37,23.93,44Z"/><path class="cls-13" d="M58,14.81s11-.91,25.89-7.1l-2.1,7.1s-1.64-.49-10.84,1.07c-6.2,1-11.16,5.65-11.16,5.65Z"/><path class="cls-13" d="M99.48,6.67s14.07,4.54,26,4l-4.09,9.14s-1.35-4.63-8.89-6.55a11.1,11.1,0,0,0-11.54,3.36Z"/><path class="cls-13" d="M137.46,15s8.38,8.59,17.42,9.6c0,0-2.22,7.06-6.89,10.42,0,0-6-12.44-12.87-14.72Z"/></g></g></g></svg>