<svg xmlns="http://www.w3.org/2000/svg" xmlns:xlink="http://www.w3.org/1999/xlink" viewBox="0 0 218.19 172.2"><defs><style>.cls-1{isolation:isolate;}.cls-2{fill:url(#_102);}.cls-3{fill:#ce77b5;mix-blend-mode:multiply;}.cls-4{fill:url(#_102-2);}.cls-5{mix-blend-mode:color-burn;opacity:0.5;fill:url(#Áåçûìÿííûé_ãðàäèåíò_7);}.cls-6{fill:url(#_102-3);}.cls-7{fill:#ffd6b8;mix-blend-mode:soft-light;}</style><linearGradient id="_102" x1="175.22" y1="37.05" x2="175.22" y2="172.2" gradientUnits="userSpaceOnUse"><stop offset="0.01" stop-color="#f25259"/><stop offset="1" stop-color="#a73646"/></linearGradient><linearGradient id="_102-2" x1="89.95" y1="0" x2="89.95" y2="169.1" xlink:href="#_102"/><linearGradient id="Áåçûìÿííûé_ãðàäèåíò_7" x1="95.86" y1="68.42" x2="95.86" y2="40.89" gradientUnits="userSpaceOnUse"><stop offset="0.01" stop-color="#ad637c"/><stop offset="0.98" stop-color="#d99d93"/></linearGradient><linearGradient id="_102-3" x1="94.19" y1="23.73" x2="94.19" y2="105.43" xlink:href="#_102"/></defs><g class="cls-1"><g id="Layer_2" data-name="Layer 2"><g id="Layer_1-2" data-name="Layer 1"><path class="cls-2" d="M218.17,79.6c-.58,28.63-7.86,67.48-8.59,69.67-1,3.11-7,22.93-7,22.93s5.52-81.86-17-102.19c-22.12-19.92-52.08-2.32-53.28-1.6h0l.21-.16L173.11,37.1s25-1.73,39.68,15.68C217.05,57.84,218.42,67.86,218.17,79.6Z"/><path class="cls-3" d="M218.17,79.6c-.58,28.63-7.86,67.48-8.59,69.67-1,3.11-7,22.93-7,22.93s5.52-81.86-17-102.19c-22.12-19.92-52.08-2.32-53.28-1.6h0l0,0,.21-.16c2.84-2.09,29.41-20.65,55.3-3.22C210.61,80.39,216,97.09,218.17,79.6Z"/><path class="cls-4" d="M174.25,16.55c-4.88-3.81-13.57-7.84-28.37-11.93C103.75-7,78.34,6.52,72.73,10.3c-6.32,4.27-11.11,14.49-11.11,14.49S24.53,32,10.43,51.75A73.36,73.36,0,0,0,3.77,62.86C-8.95,89.7,14.59,97.07,14.59,97.07s-4.79,11.77-1.71,21.74v0a0,0,0,0,1,0,0,.25.25,0,0,0,0,.12l0,0a18.17,18.17,0,0,0,2,4.24c5.11,8,10.86,6.32,13.27,5.07a1.86,1.86,0,0,0,.25-.14c.12-.07.23-.14.32-.18l.46-.32c.07-.05.09-.07.11-.07s.05,0,.05,0,6.13,17,9.67,25.31c1.78,4.25,8.62,14.92,9.4,16.11l.07.11s-4.45-33.55-3.74-53.87c.2-6.23.27-13.76,1-21.31.85-9,2.58-18.09,6.57-25.11A26.6,26.6,0,0,1,54.11,66s0,0,0,0a24,24,0,0,1,5.2-5.3,23.49,23.49,0,0,1,10.17-4.22c7.6-1.32,16.38-.7,24.91.76,3.42.59,6.8,1.32,10,2.12,2.73.68,5.38,1.39,7.87,2.14a193.31,193.31,0,0,1,19.84,7v0l.05,0c.32-.2,2-1.37,4.67-3.17,0,0,.07,0,.09-.07,11.11-7.62,37.66-26.21,40.17-31.09C179.34,29.81,183.26,23.58,174.25,16.55ZM23.37,126c-2.19-2.92,1.23-12.94,1.23-12.94a59.17,59.17,0,0,0,4.2,12.62S25.56,128.93,23.37,126ZM16.25,93.15c-.34.41-2.46,1.84-3.49,1.41s-7.37-5.15-5.4-16.79S27.11,53.6,27.11,53.6a93.05,93.05,0,0,0,2.46,24.95A55.15,55.15,0,0,0,16.25,93.15ZM66.91,23.26a.43.43,0,0,1,0-.09c.21-.82,2.19-7.6,11.64-9.17,10.08-1.69,10.19,4.61,10.19,4.61C80.05,19.93,77.9,20.52,66.91,23.26Z"/><path class="cls-3" d="M177.17,34.09C174.66,39,148.11,57.56,137,65.18c0,0-.07,0-.09.07-2.62,1.8-4.35,3-4.67,3.17l-.05,0v0L132,68.4a192.79,192.79,0,0,0-19.68-7c-2.49-.75-5.14-1.46-7.87-2.14-3.24-.8-6.62-1.53-10-2.12-8.53-1.46-17.31-2.08-24.91-.76a23.47,23.47,0,0,0-10.08,4.16c5.54-5.46,39-36.86,66.92-30.25,30.32,7.18,58.85,3.28,47.88-13.78C183.26,23.58,179.34,29.81,177.17,34.09Z"/><path class="cls-5" d="M132.24,68.42l-.21,0a192.79,192.79,0,0,0-19.68-7c-2.49-.75-5.14-1.46-7.87-2.14-3.24-.8-6.62-1.53-10-2.12-8.53-1.46-17.31-2.08-24.91-.76a23.47,23.47,0,0,0-10.08,4.16C61.05,59.3,84.66,40.89,109,40.89,134.15,40.89,132.24,68.42,132.24,68.42Z"/><path class="cls-3" d="M45.7,94c.84-9,2.6-18.14,6.61-25.16A26.6,26.6,0,0,1,54.11,66c-.93-3.81-2.12-5.5-3.67-4.24C40,70.25,41,118.92,41,118.92a377.84,377.84,0,0,1-14-65.28,93,93,0,0,0,2.47,25c-17.28,23.06-9.54,42-12,43.27s-4.44-2.6-4.67-3a0,0,0,0,0,0,0V119l0,0a18.75,18.75,0,0,0,2,4.24c5.16,8.07,10.93,6.3,13.32,5a1.86,1.86,0,0,0,.25-.14,3,3,0,0,0,.32-.18l.46-.32.11-.07s6.14,17,9.67,25.32c1.9,4.49,9.47,16.22,9.47,16.22a1,1,0,0,0,0-.16c-.32-2.53-4.4-34.22-3.72-53.72C45,109,45,101.52,45.7,94ZM23.37,126c-2.19-2.92,1.23-12.94,1.23-12.94a59.17,59.17,0,0,0,4.2,12.62S25.56,128.93,23.37,126Z"/><path class="cls-3" d="M47.26,38.61l-20.14,15S9.28,66.13,7.34,77.76s4.48,16.4,5.43,16.81,3.14-1,3.49-1.43a16.79,16.79,0,0,0-1.68,3.92S-8.95,89.71,3.78,62.85c-.9,4.52-1.14,6.44,5.57-1.37C26.14,41.9,46.5,38.81,47.26,38.61Z"/><path class="cls-6" d="M122,25.81C83.1,16.44,51.72,40.43,41.27,63a40.8,40.8,0,0,0-2.64,7.16C36.3,78.85,37.51,86.69,43,91.6c.93.82,1.84,1.59,2.73,2.32,15.19,12.21,25.78,10,29.63,8.53a36,36,0,0,0,14.55,3c24.68.39,30.25-6.21,30.25-6.21s-41.08-11.1-25.73-42c.23-.51.5-1,.78-1.51,2.67-4.88,6.82-5.91,11.38-4.93a34.4,34.4,0,0,0-2.12,8.56,31.13,31.13,0,0,0,.93,12.45,17.91,17.91,0,0,0,1.44,3.56,27.53,27.53,0,0,0,20.41,14.21c-6.59-1.85-11-7.3-13.25-14.26v0a39.26,39.26,0,0,1-1.66-13.8,47.2,47.2,0,0,1,1.34-8.87c6.32,2.6,12.43,8.26,18.5,15.87l.05,0c.34-.2,2.21-1.34,4.67-3.17,0,0,.07,0,.09-.07C141.25,62,147.13,56.83,149.64,51,153.4,42.44,149.69,32.5,122,25.81ZM64.33,97.91c-4.4-4.76-2.19-11.1-2.19-11.1A22.8,22.8,0,0,0,74,101.75C71.15,101.61,67,100.86,64.33,97.91Z"/><path class="cls-3" d="M132.18,68.46c-6-7.6-12.17-13.3-18.48-15.9,0,0,2.46-11.11,11.31-10.14S132.18,68.46,132.18,68.46Z"/><path class="cls-3" d="M129,35.05c-11.41-5.61-18.44,6.41-21.15,12.47-.27-.12-11.82-5-21.18,15.9-2,4.56-5.62,7.7-10.46,9.74C75,49.92,89.37,42,109.27,39.42c-21.55,1-35.72,10.78-37.51,35.24C66,76.16,59,76.56,51,76.21c-9-.4-11.84-3.28-12.4-6C36.31,78.84,37.5,86.69,43,91.59,59.65,106.39,71.3,104,75.38,102.44a35.7,35.7,0,0,0,14.55,3c24.68.39,30.23-6.2,30.23-6.2S77.74,87.73,95.22,55.66c2.66-4.86,6.81-5.9,11.38-4.92l.93-2.32c2-4.17,7.35-12.3,18.71-10.26,14.83,2.65,6.28,29.26,6,30.27C132.62,67.47,143.72,42.27,129,35.05ZM64.33,97.92c-4.39-4.78-2.19-11.11-2.19-11.11A22.8,22.8,0,0,0,74,101.74C71.14,101.6,67,100.85,64.33,97.92Z"/><path class="cls-3" d="M127.26,89.52a27.53,27.53,0,0,1-20.41-14.21,17.91,17.91,0,0,1-1.44-3.56c1.26,2.42,3.7,6.55,6.39,7.37,1.39.41,2-1.39,2.21-3.86C116.25,82.22,120.67,87.67,127.26,89.52Z"/><path class="cls-3" d="M140.61,17.67a221.16,221.16,0,0,0-51.85.94s-.11-6.3-10.19-4.61c-9.45,1.57-11.43,8.35-11.64,9.17.12-1.23,2-13.41,31.46-16.61C129.36,3.21,140.61,17.67,140.61,17.67Z"/><path class="cls-7" d="M149.64,51a14.68,14.68,0,0,0,0-5.5c-1.16-6.31-23.77-23.35-59.26-14.71C60.73,38,45.49,57,41.27,63,51.72,40.43,83.1,16.44,122,25.81,149.69,32.5,153.4,42.44,149.64,51Z"/><path class="cls-7" d="M45.9,59.94c17.4-13.3,25.94-9.49,24.4,13.75,1.09-17.86,9.32-27.63,22.18-32.15C69.79,47.3,62,47,78.34,36.7,65.9,41.38,55.16,49.26,45.9,59.94Z"/><path class="cls-7" d="M183.21,39.22C200,42.12,212,50.51,216.71,67c-11.38-12.67-19.17-12.6-23.24.68a41.86,41.86,0,0,0-15.59-8.91C195.16,56.49,196.4,49.83,183.21,39.22Z"/><path class="cls-7" d="M170.13,15.88C158.19,8.53,144.31,4.17,128.88,2.23c10.8,2.79,13.51,6.09,6.69,10,3,1.67,5.31,3.37,6.39,5.14C144.06,8,155.12,9.53,170.13,15.88Z"/></g></g></g></svg>