<svg xmlns="http://www.w3.org/2000/svg" xmlns:xlink="http://www.w3.org/1999/xlink" viewBox="0 0 182.99 281.76"><defs><style>.cls-1{isolation:isolate;}.cls-2{fill:url(#Áåçûìÿííûé_ãðàäèåíò_69);}.cls-3{fill:#d177b8;opacity:0.9;mix-blend-mode:multiply;}.cls-4{fill:#7a81f4;}.cls-5{fill:url(#Áåçûìÿííûé_ãðàäèåíò_69-2);}.cls-6{fill:url(#Áåçûìÿííûé_ãðàäèåíò_76);}.cls-7{fill:#ffd4e0;mix-blend-mode:soft-light;}</style><linearGradient id="Áåçûìÿííûé_ãðàäèåíò_69" x1="27.01" y1="281.76" x2="27.01" y2="145.89" gradientUnits="userSpaceOnUse"><stop offset="0" stop-color="#471f4b"/><stop offset="1" stop-color="#310a39"/></linearGradient><linearGradient id="Áåçûìÿííûé_ãðàäèåíò_69-2" x1="3452.6" y1="281.76" x2="3452.6" y2="145.89" gradientTransform="matrix(-1, 0, 0, 1, 3608.59, 0)" xlink:href="#Áåçûìÿííûé_ãðàäèåíò_69"/><linearGradient id="Áåçûìÿííûé_ãðàäèåíò_76" x1="91.49" y1="232.5" x2="91.49" gradientUnits="userSpaceOnUse"><stop offset="0" stop-color="#5a365d"/><stop offset="1" stop-color="#5f1945"/></linearGradient></defs><g class="cls-1"><g id="Layer_2" data-name="Layer 2"><g id="layer1"><path class="cls-2" d="M51,189.65v0c-3.2,11.08-11,19.74-11,19.74,6.3,12.81-5.3,29.5-5.3,29.5,5.69,7.32,1,18.64,1,18.64l2.58,2.69a.41.41,0,0,1,.1.13h0c10.29,11.4,11.49,21.39,11.49,21.39H10.41c.37-7.41,12.27-24.21,12.27-24.21-13-7.43-7-20.68-7-20.68-13.52-13.43-7.54-28.68-7.54-28.68-11.71-22.6-4-52-4-52a8.37,8.37,0,0,1,.54-.88c1.65-2.53,7.07-9.6,16.13-9.45,11,.19,27.26,12.63,30.94,29.52A29,29,0,0,1,51,189.65Z"/><path class="cls-3" d="M51,189.65c-.25-.65-9.83-24.25-17.33-17.42s-14.12,40.55-14,43.41S27,225.55,27,225.55c2.83-5.81,9.64-12.83,12.09-15.26-5.86,6.53-14.5,30-14.5,30l2,2.17,8.14-3.52s-5.5,4.81-6.58,6.05.13,12.59.13,12.59h7.48l2.58,2.69.13.13h0l-15.72-2.82L28,255.81c-2.37-11-11.71-18.47-12.29-18.92,4.12,1.82,9,.47,9,.47-2.3-13.71-16.58-29.17-16.58-29.17L18.62,210s2.83-15.46.6-23c-1.95-6.6-12-26.77-14.5-31.67,1.65-2.53,7.07-9.6,16.13-9.45,11,.19,27.26,12.63,30.94,29.52A29,29,0,0,1,51,189.65Z"/><path class="cls-4" d="M20.8,260.31a26.35,26.35,0,0,0,16.85-.75l-1.2-4.23a117.83,117.83,0,0,1-15.65,1Z"/><path class="cls-5" d="M132,189.65v0c3.2,11.08,11,19.74,11,19.74-6.3,12.81,5.3,29.5,5.3,29.5-5.69,7.32-1,18.64-1,18.64l-2.58,2.69a.41.41,0,0,0-.1.13h0c-10.29,11.4-11.49,21.39-11.49,21.39h39.51c-.37-7.41-12.27-24.21-12.27-24.21,13-7.43,7-20.68,7-20.68,13.52-13.43,7.54-28.68,7.54-28.68,11.71-22.6,4-52,4-52s-.18-.34-.54-.88c-1.65-2.53-7.07-9.6-16.13-9.45-11,.19-27.26,12.63-30.94,29.52A29,29,0,0,0,132,189.65Z"/><path class="cls-3" d="M132,189.65c.25-.65,9.83-24.25,17.33-17.42s14.12,40.55,14,43.41-7.31,9.91-7.31,9.91c-2.83-5.81-9.64-12.83-12.09-15.26,5.86,6.53,14.5,30,14.5,30l-2,2.17-8.14-3.52s5.5,4.81,6.58,6.05-.13,12.59-.13,12.59h-7.48l-2.58,2.69-.13.13h0l15.72-2.82L155,255.81c2.37-11,11.71-18.47,12.29-18.92-4.12,1.82-9,.47-9,.47,2.3-13.71,16.58-29.17,16.58-29.17L164.37,210s-2.84-15.46-.6-23c1.95-6.6,12-26.77,14.5-31.67-1.65-2.53-7.07-9.6-16.13-9.45-11,.19-27.26,12.63-30.94,29.52A29,29,0,0,0,132,189.65Z"/><path class="cls-4" d="M162.19,260.31a26.35,26.35,0,0,1-16.85-.75l1.2-4.23a117.83,117.83,0,0,0,15.65,1Z"/><path class="cls-6" d="M178.52,44.27a31.32,31.32,0,0,0-5.16-8.55c-9-10.84-25.32-17.63-41.14-22.34-11.64-3.48-23-5.82-31.06-7.86,0,0-15.74-7.39-24-5.07S64.84,8.38,58.82,12.52,16.48,26.77,4,52C.28,59.46-.49,70,.26,82.51c1.29,22.28,7.37,50.7,10,78.58a241.21,241.21,0,0,1,1.23,27.8c-.45,22.36,21.76,37.49,32.8,43.61C35.06,227.07,18.2,213.94,14.59,189a162.42,162.42,0,0,1-1.29-22.53,510.67,510.67,0,0,1,4.58-63.18v0l0,0c.3-.49.6-1,.92-1.54,13.92-23,48.85-75.73,82-84.56.82-.21,1.65-.4,2.47-.58l0,0a.1.1,0,0,1,.07,0,46.18,46.18,0,0,1,4.81,2.45l.19.1c7.93,4.54,23.87,15.47,38.58,36.76,16.18,23.41,22,40.77,25.48,63.35,1,6.21,1.72,12.78,2.47,20,3.57,34.13-7.58,70-7.58,70s13.38-16.85,11.9-66.68c-.11-3.74,0-7.74.17-11.93C180.71,102.66,187.26,66.47,178.52,44.27ZM21.38,82.53a82.16,82.16,0,0,1,5.2-15.42C34.59,48.7,47.8,31,50.06,28a1.78,1.78,0,0,1,.19-.23c0-.05,0-.09.06-.07C49,29.8,32.16,57.08,21.33,84.36c-.23.56-.47,1.12-.66,1.68C20.9,84.81,21.14,83.63,21.38,82.53Z"/><path class="cls-3" d="M179.44,130.65l-7-11.36C169,96.71,163.18,79.35,147,55.94c-14.71-21.29-30.65-32.22-38.58-36.76,9.45,5,29.88,16.48,41.87,28.88,16,16.56,25.89,67.64,25.89,67.64a374.68,374.68,0,0,0-2.73-47.28c-3-23.14-38.88-53.1-41.12-54.95,2.15,1.57,36.8,27.3,42.9,57.79,0,0,3.72-22.24-1.87-35.54a31.32,31.32,0,0,1,5.16,8.55C187.26,66.47,180.71,102.66,179.44,130.65Z"/><path class="cls-3" d="M100.86,17.16c-33.19,8.83-68.12,61.51-82,84.56,0,.34-.06.71-.11,1.07v0l-.81.45c.3-.73.62-1.5,1-2.29v0C29,78.82,59.23,33,59.23,33c-8.08,7.58-23.48,33.92-25.57,37.44C36.29,65.05,64,8.79,75.79,6.27,88.16,3.63,100.86,17.16,100.86,17.16Z"/><path class="cls-3" d="M56.56,18.13,50.4,27.58l-.09.13s0,0-.06.07a1.78,1.78,0,0,0-.19.23,150.7,150.7,0,0,0-23.48,39.1,101.37,101.37,0,0,0-5.25,17.25c-.19.84-.34,1.68-.49,2.51-.77,4.36-1.42,9.11-1.93,14.07v0c0,.25-.05.49-.09.75s-.06.71-.11,1.07v0l-.81.45,0,0v0a510.67,510.67,0,0,0-4.58,63.18l-3-5.4c-2.66-27.88-8.74-56.3-10-78.58C2.39,100,11.34,134.07,11.9,136.17c-.19-2.79-4.19-59,2.69-75.89C21.55,43.18,55.51,18.88,56.56,18.13Z"/><path class="cls-7" d="M134.65,35.05s13.19,10.2,17.88,15.61a37,37,0,0,1,5.4-4.87,7.52,7.52,0,0,1,4.32-1.09l-7.78-9.65S139.86,35.92,134.65,35.05Z"/><path class="cls-7" d="M155.69,33.78s8.13-1.18,10.33-5c0,0,5.93,4.91,8.89,8.91,0,0-7.72,2.78-11.08,5.83Z"/><polygon class="cls-7" points="48.49 42.18 43.05 40.04 53.92 22.18 59.38 24.08 48.49 42.18"/><path class="cls-7" d="M34.32,36.18,25.56,29.3l7-4.23s3.9,4.4,8.11,5.56Z"/></g></g></g></svg>