<svg xmlns="http://www.w3.org/2000/svg" xmlns:xlink="http://www.w3.org/1999/xlink" viewBox="0 0 193.39 201.27"><defs><style>.cls-1{isolation:isolate;}.cls-2{fill:url(#_185);}.cls-3{fill:url(#_185-2);}.cls-4{fill:url(#_185-3);}.cls-5{fill:url(#_185-4);}.cls-6{fill:url(#_185-5);}.cls-7{fill:url(#_185-6);}.cls-8{fill:url(#_185-7);}.cls-9{fill:url(#_185-8);}.cls-10,.cls-13,.cls-17,.cls-18{mix-blend-mode:multiply;}.cls-10{fill:url(#_48);}.cls-11{fill:#ffd7b9;mix-blend-mode:soft-light;}.cls-12{fill:url(#_185-9);}.cls-13{fill:url(#_48-2);}.cls-14{fill:url(#_185-10);}.cls-15{fill:url(#_185-11);}.cls-16{fill:url(#_185-12);}.cls-17{fill:url(#_48-3);}.cls-18{fill:url(#_48-4);}</style><linearGradient id="_185" x1="125.16" y1="9.95" x2="115.76" y2="53.14" gradientUnits="userSpaceOnUse"><stop offset="0" stop-color="#850e3b"/><stop offset="1" stop-color="#39002e"/></linearGradient><linearGradient id="_185-2" x1="-50.23" y1="320.67" x2="-27.21" y2="369.42" gradientTransform="matrix(1, -0.11, 0.05, 0.99, 35.96, -400.44)" xlink:href="#_185"/><linearGradient id="_185-3" x1="129.83" y1="-91.43" x2="69.11" y2="226.4" xlink:href="#_185"/><linearGradient id="_185-4" x1="143.8" y1="100.84" x2="151.86" y2="65.41" xlink:href="#_185"/><linearGradient id="_185-5" x1="125.99" y1="42.31" x2="108.43" y2="158.71" xlink:href="#_185"/><linearGradient id="_185-6" x1="125.78" y1="-86.51" x2="103.77" y2="171.57" xlink:href="#_185"/><linearGradient id="_185-7" x1="123.95" y1="67.93" x2="197.55" y2="-206.9" xlink:href="#_185"/><linearGradient id="_185-8" x1="92.18" y1="186.16" x2="92.18" y2="59.14" xlink:href="#_185"/><linearGradient id="_48" x1="114.46" y1="46.9" x2="96.97" y2="162.83" gradientUnits="userSpaceOnUse"><stop offset="0" stop-color="#8780e9"/><stop offset="1" stop-color="#fff"/></linearGradient><linearGradient id="_185-9" x1="105.62" y1="92" x2="105.62" y2="144.89" xlink:href="#_185"/><linearGradient id="_48-2" x1="105.62" y1="179.95" x2="105.62" y2="77.79" xlink:href="#_48"/><linearGradient id="_185-10" x1="-13.44" y1="69.07" x2="100.1" y2="147.34" xlink:href="#_185"/><linearGradient id="_185-11" x1="-24.85" y1="90.25" x2="79.38" y2="162.09" xlink:href="#_185"/><linearGradient id="_185-12" x1="112.69" y1="91.53" x2="114.09" y2="92.5" xlink:href="#_185"/><linearGradient id="_48-3" x1="-2.54" y1="75.91" x2="96.32" y2="144.05" xlink:href="#_48"/><linearGradient id="_48-4" x1="2.66" y1="109.21" x2="68.68" y2="154.71" xlink:href="#_48"/></defs><g class="cls-1"><g id="Layer_2" data-name="Layer 2"><g id="Avatar_face" data-name="Avatar face"><path class="cls-2" d="M94.85,74.69c8.23,7.31,19.94,15.82,24.41,29.09,11.74-.44,23.52-.27,35.27-.45-8.61-35.89-38.33-71.49-59.9-64.06-23.52,8.1-33.38,35.92-33.38,35.92l8.12,7.36S81.53,62.85,94.85,74.69Z"/><path class="cls-3" d="M39.8,121.57S28.42,33.56,41.33,25,102.84,5.33,102.84,5.33L130,26.13s-26.3-6-39.79-1-40,96.41-40,96.41Z"/><path class="cls-4" d="M43.63,119.3S41.46,40.76,70.08,22.35C75.33,19,100.69.34,118.86,0s37.58,39.78,37.58,39.78S132.73,34.84,115.06,33s-60.2,82-60.2,82Z"/><path class="cls-5" d="M120.54,25c35.7-5.46,50.09-1.65,59.33,4.54S194,58.36,193,62.56s-20.34,20.66-20.34,20.66l-3.24-20.66s11.66-3.37,15.19-7.27S179.87,41,172.91,40.73C170,40.61,145,49,145,49Z"/><path class="cls-6" d="M152.26,68.52c3.87,4.17,10.86,27.75,6.36,51.13,4.64-.11,12.55,2,17.19,1.92,13.77-18.2,16.23-40.32-2.35-61.65C165.7,51,140.61,15.19,104,28.11c-69.94,24.66-52.52,89.24-52.52,89.24l12.59.14L59.94,90.6S76.62,79.37,86.75,70.54,140.72,56.06,152.26,68.52Z"/><path class="cls-7" d="M125.73,86.12c1.1,1.43,12.54,22.18,13.73,25.63,5.08,0,14.74,4.07,19.81,4,.84,0,4-7,4.9-7,2.7-77.68-57-65.91-72.58-59.22-41.39,17.74-38.8,60-34.36,62.25l19.1-18.81C94.39,80.71,118.05,76.14,125.73,86.12Z"/><path class="cls-8" d="M133.86,71c2.9.82,13.48,21.93,13.89,42.1,2.37,0,7.45-1.7,9.09,0,8.16,8.46,4,6.33,10,6.17,3.8-21.28-13.05-52.12-17-55.85C130,44.61,123.3,43.3,106.92,51.16c-42.75,20.5-52.13,63.48-52.13,63.48l35.39-4.15S114.35,65.52,133.86,71Z"/><path class="cls-9" d="M112.54,105.24c5.78-.35,15.83,5.24,21.63,5.16C131.5,97.83,94.39,68,89.6,67.49c-41.47-4-39.38,43-39.38,43,1.69.79,8.53-3,22-1.91C84.74,108.3,100,106,112.54,105.24Z"/><path class="cls-10" d="M175.81,121.57c-4.64.13-12.55-2-17.19-1.92.25-1.31.46-2.62.65-3.92-5.07.1-14.73-4-19.81-4-1.19-3.46-12.63-24.21-13.73-25.64-2.82-3.66-7.79-5.36-13.84-5.44-12,11.83-21.71,29.81-21.71,29.81l-24.73,2.9-1.39,4.1L55.32,114,54.86,115l-4.28,5.32c-.24.8-.36,1.23-.36,1.23H39.8s-9.75-75.43-1-93.46c-2.83,11.82,4.73,22.79,9.29,19,4.38-3.67,14.55-17.74,15.38-18.88-.56.89-5.84,9.39-3.68,14,2.27,4.87,14.37,2.43,14.37,2.43S70.52,48,68.72,56.12c-.69,3.14,13.87-2,13.87-2s19.18-11,40.62-9.21c0,0-13.65,3.41-23.2,9.91,0,0-3.49,11.68,3,12.41,3.31.38,20.16-5.17,27.94-3.79,0,0,15.7,2.2,16.78-2,0,0-9.44-8.07-9.43-12.48,7.73,2.54,18.6,5.69,22.36,4.65,6-1.66-10.88-17.5-11.33-17.92l1,.74c10.56,7.53,19.71,19.62,23.08,23.48C192,81.25,189.58,103.36,175.81,121.57Z"/><path class="cls-11" d="M88.88,10.45s14,0,13.29,11.19c-.32,4.71-6.12,9.59-6.12,9.59s7.07-3.74,13.51-4.74c0,0,7.23-5.73,5.67-13.3s-8.58-10.84-8.58-10.84Z"/><path class="cls-11" d="M92.18,33s17.84-.87,20.7,11.59a42.47,42.47,0,0,1,10.33.31S121.49,26,104,28.11Z"/><path class="cls-11" d="M115.45,47.71s5.18-1.64,8.54-1c0,0,8.53,4,10.18,9.75s-1.84,7.15-1.84,7.15l-4.7-.17a10,10,0,0,0,.54-8.36C125,47.52,115.45,47.71,115.45,47.71Z"/><path class="cls-12" d="M193,172.29c-1.39,7.83-4.91,29-4.91,29s-6.06-15.74-6.4-19.89,0-19.72,0-19.72l-3.32,3s-2.43-.88-5.36-5.57-2.3-13.07-2.3-13.07l1.57-5.05-3.8,1.22c-4.37-2-11.53-13.06-11.53-13.06l.88-8-3.14,5.23a23.82,23.82,0,0,1-5.75.52,19.8,19.8,0,0,1-16.19-9.75l1.56-3.48-3,1.73c-3.13,2.27-17.06,2.62-21.94.77s-6.62-4.24-6.62-4.24-1,3.13-8.19,3-8.53-1.74-8.53-1.74-1.74,3.83-5.4,4a13.82,13.82,0,0,1-6.09-1c.05.16.84,3-6.27,5.5-7.32,2.62-11.15,1.92-11.15,1.92C40.81,127.7,34,136.41,34,136.41l5.28,3.48c-4.7,0-10.07,5.23-10.07,5.23h3.65c-5.65,23.56-7.31,56.15-7.31,56.15l-2.76-12.16s-3.55-32.67-4.59-35.29.87-14.62,1.39-16.71c.38-1.56,3.48-4.35,5.05-5.69.55-.47.91-.76.91-.76a23.49,23.49,0,0,0,0-3.31c-.13-1.39,8.15-11,12.15-13.58a13.91,13.91,0,0,1,2-1,39.73,39.73,0,0,1,6.84-2.09c2.57-.58,4.61-.88,4.61-.88s-3.84-1.57-3.66-2.44,11.66-9.58,14.8-9.41a36.81,36.81,0,0,1,6.34,1.35c2.5.69,4.66,1.39,4.8,1.43-.08-.16-1.4-2.62-1.74-3.13S77.73,91,80.52,91C82,91,84.3,92,86.25,93.05S89.57,95,89.57,95a18.75,18.75,0,0,1,3-3.63,4.49,4.49,0,0,1,1.85-1.07c2.26-.53,13.41-.87,17.77,0a3.53,3.53,0,0,1,1.72.67c.75.73-.72,1.6-1.4,2l-.15.07.14-.06,3.87-1.77c.29,0,.6-.06.92-.08,9.3-.51,23.85,6.21,25.2,7.22s.42,2.65.35,2.78l2.61-1.73s11.15,3.83,13.06,5,2.09,6.27,2.09,6.27,1-1.74,2.27-2.09,8.53,2.27,11.14,5.58a35.6,35.6,0,0,1,4,7h0c.47,1,.73,1.74.73,1.74l2.13-1c5.61,1.39,7.93,13.06,7.93,13.06C191.53,135,194.42,164.45,193,172.29Z"/><path class="cls-13" d="M193,172.29c-1.39,7.83-4.91,29-4.91,29s-6.06-15.74-6.4-19.89,0-19.72,0-19.72l-3.32,3s-2.43-.88-5.36-5.57-2.3-13.07-2.3-13.07l1.57-5.05-3.8,1.22c-4.37-2-11.53-13.06-11.53-13.06l.88-8-3.14,5.23a23.82,23.82,0,0,1-5.75.52,19.8,19.8,0,0,1-16.19-9.75l1.56-3.48-3,1.73c-3.13,2.27-17.06,2.62-21.94.77s-6.62-4.24-6.62-4.24-1,3.13-8.19,3-8.53-1.74-8.53-1.74-1.74,3.83-5.4,4a13.82,13.82,0,0,1-6.09-1c.05.16.84,3-6.27,5.5-7.32,2.62-11.15,1.92-11.15,1.92C40.81,127.7,34,136.41,34,136.41l5.28,3.48c-4.7,0-10.07,5.23-10.07,5.23h3.65c-5.65,23.56-7.31,56.15-7.31,56.15l-2.76-12.16s-3.55-32.67-4.59-35.29.87-14.62,1.39-16.71c.38-1.56,3.48-4.35,5.05-5.69a26.71,26.71,0,0,0,5.23.46c5.57-.17,21.59-7.66,21.25-8.83-.22-.73-6.69-6.29-11.45-10.31a39.73,39.73,0,0,1,6.84-2.09c3.58,4.43,8.65,10.54,11.05,11,3.83.74,13.28-1.48,15-5.55s-3.2-16.26-3.2-16.26l-.8-.57c2.5.69,4.66,1.39,4.8,1.43h0s1.23,11,1.59,12.81,5.73,2.69,9.56-1,1.73-19.49,1.73-19.49C88.09,94,89.57,95,89.57,95a18.75,18.75,0,0,1,3-3.63s-4.77,17.91-2.85,18.44a15.35,15.35,0,0,0,9.75-1.57c2.84-1.49,10-11.09,13-15.3l3.87-1.77c.29,0,.6-.06.92-.08l-.06.28s-10.45,16.52-10.42,19,16.35,5.22,21.82,3.83,14.58-14.28,13.86-15.85c1.34,1,.42,2.65.35,2.78l2.61-1.73c-.52.86-9.93,15.49-10.62,17.76s14.1,9.75,19,6,4.7-18.69,4.7-18.69c1.92,1.23,2.09,6.27,2.09,6.27s1-1.74,2.27-2.09c-.88.85-3.66,17.59-3.66,19.86s8.15,13.09,11.67,10.8,7.1-18.11,7.1-18.11c.47,1,.73,1.74.73,1.74l2.13-1c-2.05,4.53-7.7,21.95-8.4,23.72s7.84,11.63,9.58,11.63S188,149,188.8,134.84C191.53,135,194.42,164.45,193,172.29Z"/><path class="cls-14" d="M74.6,116.1s-1.37,4.67-8.49,4.67c-5.17,0-7.76-3.36-32.74-11.35-6.19-2-17.91-4.6-25.68-7.39C2.49,100.16-.93,98.21.23,96.3c2.6-4.3,34.46-5.94,43.06-4.41.28,0,.53.1.76.16C63,96.72,74.6,116.1,74.6,116.1Z"/><path class="cls-15" d="M63.29,123.05S38.86,134.87,30,137c-5.46,1.3-23.37,4.5-23.37,2.72,0-.94-1.14-4.48-.39-8.29.66-3.34,2.79-6.89,8.43-9.08a31.84,31.84,0,0,1,9.4-1.94c12.49-.82,26.27,3.72,33.15,3.11Z"/><path class="cls-16" d="M112.54,92.89c.84-1.16,1.36-1.91,1.4-2C114.69,91.66,113.22,92.53,112.54,92.89Z"/><path class="cls-17" d="M74.6,116.1s-1.37,4.67-8.49,4.67c-5.17,0-7.76-3.36-32.74-11.35-6.19-2-17.91-4.6-25.68-7.39,29.63,5.12,42.43,4.63,43.87,1.74s-8.89-10.88-8.89-10.88l.62-1c.28,0,.53.1.76.16C63,96.72,74.6,116.1,74.6,116.1Z"/><path class="cls-18" d="M63.29,123.05S38.86,134.87,30,137c-5.46,1.3-23.37,4.5-23.37,2.72,0-.94-1.14-4.48-.39-8.29,1.77.23,7.7,3.06,18.41,0,11.32-3.24,7.84-7.2-1.85-10.33l1.27-.68c12.49-.82,26.27,3.72,33.15,3.11Z"/></g></g></g></svg>