<svg xmlns="http://www.w3.org/2000/svg" xmlns:xlink="http://www.w3.org/1999/xlink" viewBox="0 0 220.32 154.53"><defs><style>.cls-1{isolation:isolate;}.cls-2{fill:url(#_185);}.cls-3,.cls-4,.cls-5{fill:#a83a71;}.cls-3,.cls-4{mix-blend-mode:multiply;}.cls-4{opacity:0.5;}</style><linearGradient id="_185" x1="110.16" y1="-11.78" x2="110.16" y2="160.55" gradientUnits="userSpaceOnUse"><stop offset="0" stop-color="#850e3b"/><stop offset="1" stop-color="#39002e"/></linearGradient></defs><g class="cls-1"><g id="Avatar_face" data-name="Avatar face"><path class="cls-2" d="M203.8,66.63c-1.43,6.8-2.62,13.81-3.62,20.65l-.51,3.64c-3.45,25.41-4.16,47.67-4.16,47.67-1.93,5.29-2.52,15.94-2.52,15.94L176.61,102c0-.36,0-.72.06-1.08.06-1,.16-1.88.29-2.79,1.08-7.68-.87-14.23-.54-14.87,0,0,0,0,0,0h0l-.77-.28c-26.58-9.4-65.52-11-65.52-11s-39.64,1.65-66.3,11.29h0c.17.32-1.24,7.76-.89,17.45l-1.67,4.93-6.65,19.65-7,28.06s-.92-9.43-2.86-14.72c0,0-.37-11.71-1.9-27.85-.19-2-.4-4.18-.63-6.35-1.1-10.27-2.64-21.8-4.8-33-.3-1.59-.62-3.18-.95-4.75,0,0,.12-.38.37-1.08.45-1.29,1.34-3.66,2.65-6.68v0A114.53,114.53,0,0,1,30.43,39.11S25,37,30.43,31.69a20.55,20.55,0,0,1,8.23-4.34,43.41,43.41,0,0,1,8.91-1.66l6.35-3.52s2.47-8.82,7.41-13.41S71,10.52,71,10.52L80.73,7s-.7-4.94,6-6.35,16.58,2.11,16.58,2.11H117s.25-3.86,7-2.45S139.58,7,139.58,7l9.55,3.47.16,0,1-.14h0c2.64-.31,9.63-.7,13.58,3a10,10,0,0,1,2.65,3.75,6.26,6.26,0,0,1-.18,5.07l6.35,3.52s11.64.71,17.13,6,0,7.42,0,7.42a115.35,115.35,0,0,1,10.89,19.74v0C202.8,63.53,203.8,66.63,203.8,66.63Z"/><path class="cls-3" d="M200.77,58.87v0a115.35,115.35,0,0,0-10.89-19.74l.27-.13A4.2,4.2,0,0,0,192,37.22a2.88,2.88,0,0,0,.22-1.92c-13.7-1.14-26.89-.75-35.25-2.39h0l-1-.22a7.19,7.19,0,0,1-.89-.25h0c-1.75-.37-3.23-2.9-7.06-3.21,0,0-5.59.25-13.9,0-13.63-.41-18.35-4.28-18.75-4.63C113,24,102.8,23.47,102.8,23.47c-2.88.07-11.89,3.17-16.86,2.64-18.14,1.1-16.41,3.95-16.41,3.95-2.49,4-17.7,8.36-27.47,5.22-2.54-.82-3.72-1.83-4.05-2.86a2.08,2.08,0,0,1-.08-1.05c.4-2.58,4.83-5,4.83-5a39.11,39.11,0,0,0-4.1,1,20.55,20.55,0,0,0-8.23,4.34c-5.48,5.3,0,7.42,0,7.42A114.53,114.53,0,0,0,19.55,58.85v0s0,0,0,0,0,0,0,0,0,0,0,0c-1.29,3-2.15,5.28-2.6,6.55-.13.34-.22.61-.28.79a.39.39,0,0,0,0,.06h0c0,.06,0,.1,0,.14a0,0,0,0,0,0,0h0s0,0,0,0v0s5.29,7.05,8.28,9.17A58,58,0,0,0,32.39,80s.89,8.47,5.82,8.82,5.65-5.64,5.65-5.64l.34-.12c26.66-9.54,66-11.17,66-11.17s39.63,1.65,66.29,11.29c0,0,.6,5,4.51,5.61l.34,0h.8C187,88.5,187.93,80,187.93,80a57.49,57.49,0,0,0,7.58-4.23c3-2.12,8.29-9.17,8.29-9.17S202.8,63.53,200.77,58.87ZM67.8,27.21c1.68-.62.06-2.19-1.33-4.27h0c-.58-.51-.57-1.06.15-1.6,5.66-4.24,19.27-5.78,27.69-2.57.46.17.92.37,1.35.57,9.65,3.9,21.38,3.67,30.82,2.31a27.2,27.2,0,0,1,4.24-.71h0c8.11-.71,15.83,2.19,17.42,7.19a31.59,31.59,0,0,0,14,.56h0l1.42-.29h0c6.08-1.24,12.83-2.2,13-2.2-2.27-.39-3.85-.49-3.85-.49l-6.35-3.52a6.41,6.41,0,0,0-.24-6c-3.68,3.23-33.56,2.72-34.06-1.58s17.19-4.07,17.19-4.07l-.16,0L139.58,7s-.2-.13-.58-.34c4.44,3.29-6.69,6-16.25,2.75S117,2.76,117,2.76H103.31a42.77,42.77,0,0,1,3.43,2.72c2,1.74-14,7-26,1.52L71,10.52a10.19,10.19,0,0,0-1.33-1.4c.07.14,2.73,5.18-4.79,7.78a34.41,34.41,0,0,1-9.82,1.93c-.78,2-1.16,3.34-1.16,3.34l-6.35,3.52C50.35,25.47,60.43,24.88,67.8,27.21ZM100.46,12.7c13.73-10.94,32.21,4.95,23.12,5.69C114.71,19.12,91.94,19.48,100.46,12.7ZM46.84,25.75h0Z"/><path class="cls-4" d="M203.8,66.63s-5.29,7.05-8.29,9.17A57.49,57.49,0,0,1,187.93,80s-.89,8.47-5.83,8.82H182a5.13,5.13,0,0,1-1,0c-3.91-.57-4.51-5.61-4.51-5.61-26.66-9.64-66.29-11.29-66.29-11.29s-39.3,1.63-66,11.17l-.34.12s-.71,6-5.65,5.64S32.39,80,32.39,80A58,58,0,0,1,24.8,75.8c-3-2.12-8.28-9.17-8.28-9.17v0s0,0,0,0h0s0-.09.05-.17h0c.08-.19,1.74-4.46,2.54-6.48.05-.13.09-.25.14-.36l.06-.16.16-.4s0,0,0,0,0,0,0,0,0,0,0-.05c-.06.41-.68,5.42,2.49,8.46,0,0,42.12-7.76,88.13-7.76,44.32,0,88.13,7.76,88.13,7.76,3.16-3,2.54-8,2.48-8.46C202.8,63.53,203.8,66.63,203.8,66.63Z"/><path class="cls-3" d="M172.75,25.69s-11.76-1.21-20,1.23a9.47,9.47,0,0,0-6.2-5.3s13.78,1.24,20-4.52a6.26,6.26,0,0,1-.18,5.07Z"/><path class="cls-3" d="M93.44,15.41c.14.6-12.89-2.23-25.56,3A12.64,12.64,0,0,0,71,10.52L80.73,7C84.27,10.82,94,11.44,105,8,104.63,8.13,93,13.21,93.44,15.41Z"/><path class="cls-3" d="M200.77,58.87v0a115.35,115.35,0,0,0-10.89-19.74l-.37-.09.64,0A4.2,4.2,0,0,0,192,37.22c-18.71-1.19-36.25-3.1-36.25-3.1-11.12-1.12-18.36-1.19-18.36-1.19s6.76,1.73,8.43,4.71c2.28,4.06-3.8,8.17-20,7.1h-.66c-.46-.13-6.16-1.68-4.52-5.13,1.3-2.73,8.11-4.82,8.11-4.82s-15.22-2.14-17-4.81c-3.06-4.71,7.2-8.72,7.2-8.72-9.81-.9-16.14-1.21-16.14-1.21,5.46,4.31.87,11.3.87,11.3,11.11,2.57,20.18,10.89,6.4,10.14-7.56-.4-23.73,1.39-27.75-.74-1.57-.83-5.88-4.66,0-7.08A63.2,63.2,0,0,1,94.57,30a69.35,69.35,0,0,0-14.89-2.62c-4.84-.39-9.56-.43-9.56-.43s12.49,4.42,7.11,6.93c-16.32,7.58-40,4-43.95-1.22-1.12-1.5,4.93-3.93,5.38-5.28a20.62,20.62,0,0,0-8.23,4.34c-5.48,5.3,0,7.42,0,7.42A114.53,114.53,0,0,0,19.55,58.85v0s0,0,0,.05,0,0,0,0l0,0-.16.4-.06.16c-.05.11-.09.23-.14.36s-.05.12-.08.19c-.79,2-2.26,5.82-2.5,6.43a0,0,0,0,0,0,0h0s0,0,0,0v0s5.29,7.05,8.28,9.17A58,58,0,0,0,32.39,80s.89,8.47,5.83,8.82,5.64-5.64,5.64-5.64l.34-.12c26.66-9.54,66-11.17,66-11.17s39.63,1.65,66.3,11.29c0,0,.59,5,4.5,5.61.4,0,.71,0,.93,0h.21C187,88.5,187.93,80,187.93,80a57.49,57.49,0,0,0,7.58-4.23c3-2.12,8.29-9.17,8.29-9.17S202.8,63.53,200.77,58.87Zm-136-6.13c-4.8,3.93-27.17.86-30.29-1.12-2.5-1.58,1-9,19.2-8.31C59.79,43.55,68.08,50,64.74,52.74Zm38.15,4.39C89.57,54.45,86,58,81.1,56.8c-13.23-3.32,3.38-13,19.39-6.54C104.82,52,106.81,57.91,102.89,57.13ZM180.43,51c-4.08,1.77-24.82-1-34.92,0-4.43.43,2.89-9.07,10.76-11.14S186.56,48.35,180.43,51Z"/><path class="cls-5" d="M118.08,30.12l-.14.1a.69.69,0,0,0-.21-.16Z"/></g></g></svg>