<svg xmlns="http://www.w3.org/2000/svg" xmlns:xlink="http://www.w3.org/1999/xlink" viewBox="0 0 294.51 188.1"><defs><style>.cls-1{isolation:isolate;}.cls-2{fill:url(#_79);}.cls-3{fill:#a83a71;mix-blend-mode:multiply;}.cls-4{fill:url(#_185);}</style><linearGradient id="_79" x1="146.72" y1="98.31" x2="146.72" y2="242.15" gradientUnits="userSpaceOnUse"><stop offset="0" stop-color="#360217"/><stop offset="1" stop-color="#160221"/></linearGradient><linearGradient id="_185" x1="148.67" y1="26.31" x2="145.53" y2="231.57" gradientUnits="userSpaceOnUse"><stop offset="0" stop-color="#850e3b"/><stop offset="1" stop-color="#39002e"/></linearGradient></defs><g class="cls-1"><g id="Layer_2" data-name="Layer 2"><g id="Avatar_face" data-name="Avatar face"><path class="cls-2" d="M236.24,183l-6.18,5.14-7.13-52.89c-.89-3.41-17.05-20.11-20.86-20.61-13.3-1.76-38.25-2.83-55.35-3-17.1.17-42,1.24-55.35,3-3.81.5-20,17.2-20.86,20.61L62.85,187.6,57.2,183c2.87-28.76,1.86-49.16,3.94-63.79,1.14-7.94,4.72-16.7,10.92-22.51A24.77,24.77,0,0,1,79,92C108,79.19,146.57,76.7,146.57,76.7s38.85,2.49,67.9,15.33a24.77,24.77,0,0,1,6.91,4.63c6.2,5.81,9.78,14.57,10.92,22.51C234.39,133.8,233.37,154.2,236.24,183Z"/><path class="cls-3" d="M236.24,183l-6.18,5.14-7.13-52.89c-.89-3.41-17.05-20.11-20.86-20.61-13.3-1.76-38.25-2.83-55.35-3-17.1.17-42,1.24-55.35,3-3.81.5-20,17.2-20.86,20.61L62.85,187.6,57.2,183c2.87-28.76,1.86-49.16,3.94-63.79,1.14-7.94,4.72-16.7,10.92-22.51-1.09,11,47,12.7,74.51,12.7s62.11-5,74.81-12.7c6.2,5.81,9.78,14.57,10.92,22.51C234.39,133.8,233.37,154.2,236.24,183Z"/><path class="cls-4" d="M253.58,64.44c-30.89-5.63-44.38,2.3-45.86,3.25,1.55-1.06,15.82-10.6,28.52-11.54,13.46-1,28.67,2.66,30.28,2.41,3.24-.5,5.65-18.2,4.84-20.44s-14.26-10.48-40.64-3.25a50.53,50.53,0,0,0-33.91,30.42s-.54-10.47,5.11-23.43,32.3-20.2,32.57-22.44C236.9-.67,212-.49,210.81.22a68.75,68.75,0,0,0-29.52,39.31c-1.8-16.62,3.78-27.35,3.78-27.35-3.06-13.71-24.6-5.89-24.6-5.89-9.69,11.3-5.38,34.23-5.38,34.23C134.27,15.26,99.47,23.24,99.47,23.24c-18.31-5.65-47.58-4-48.65-.64-4.63,14.31,4,22.91,4,22.91s-19.68-1-31.52,6.65S27,80.09,34.51,76.7c23.65-10.62,38-5.26,38-5.26S55,74.77,46.35,78.75c-22.69,10.52-34.09,30.59-34.09,30.59C10.82,122.3,23.34,128,23.34,128S.42,141.92.06,147.9c-1.14,18.95,14.71,19.61,14.71,19.61,10.41-18.95,29.13-30.58,29.13-30.58-5.32,9.31-4.72,20.61-4.72,20.61,7.53,10.64,19.48,6.65,19.48,6.65.6-9,.66-14.3.66-14.3l2.82,2c15.43,1,19-9.5,19-9.5-8.88-32.14,11.66-51.53,12.07-51.9-.08.21-1.86,5.22,5.16,19.52,7.18,14.63,25.48,22.4,25.48,22.4,12.2-4.87,11.51-23.14,11.51-23.14a35.61,35.61,0,0,1-9-7.23c3.23-18,20.34-23.28,20.34-23.28a0,0,0,0,0,0,0A47.45,47.45,0,0,1,158,96.66c3.95,11.25,0,30,0,30,5.74,9,18.66,5.78,18.66,5.78,10.3-14,.22-46.32,0-47,.25.26,6.26,6.61,9.8,21,1.12,4.52,15,2.28,20.7-2s4.17-13.67,4.17-13.67,8,10,6.95,16.33-14,15.29-14,15.29c-1.79,9.31,8.62,17.29,8.62,17.29,20.81-2.33,23.37-16.29,23.37-16.29,7.22,7,9.42,27.76,9.42,27.76,7.92,2.49,21.67-1.25,24.09-4,4-4.57-7.81-25.18-7.81-25.18,9.88-1.58,11.94-20.2,11.94-20.2C262.67,88.23,234.67,81,226.2,79c3.74.79,11.64,2.46,22.91,4.72C265.26,87,278.63,100,282.67,98.7c6.46-2,11.84-9.47,11.84-11S286.42,70.43,253.58,64.44Zm-112-1.64c-9.15-10.72-16.42-17.95-16.42-17.95,18.85,1.74,18.4,17.95,18.4,17.95Z"/><path class="cls-3" d="M59.32,149.89s-.06,5.3-.66,14.3h0c-.39.12-12.06,3.8-19.47-6.66a47.35,47.35,0,0,1,.72-9.1,36.59,36.59,0,0,1,4-11.51,101.88,101.88,0,0,0-19.12,16.59c4.8-16.23-5.33-23.2-5.33-23.2,4.6-3.2,3.89-2.36,3.89-2.36,8.48,2.82,14.67.16,14.67.16A104.39,104.39,0,0,1,65.89,92.48c-.29.4-9.35,13.41-11.73,26.42C51.74,132.11,59.32,149.89,59.32,149.89Z"/><path class="cls-3" d="M269.75,147.07c-2.42,2.74-16.17,6.48-24.09,4,0,0-2.2-20.78-9.42-27.76,8.7-21.27-6.86-35.57-6.86-35.57s15.56,7.23,32.56,34.16C261.94,121.89,273.79,142.5,269.75,147.07Z"/><path class="cls-3" d="M93.23,90.48c-.41.37-21,19.76-12.07,51.9,0,0-2.2,6.43-10.57,8.74a4.79,4.79,0,0,1,.52-1.39c3.7-6.64,2.7-18.62,2.7-24.85,0-24.93,16.15-44.52,28.26-54.1C102.07,70.78,92,80.36,93.23,90.48Z"/><path class="cls-3" d="M46.35,78.75c8.62-4,26.2-7.31,26.2-7.31s-14.39-5.36-38,5.26C28,79.64,15.48,64.79,20,55.8,23.22,65.51,30.09,66,30.09,66s3.34-.75,16.53-1.25C63.85,64.14,90,72.27,90,72.27,63.58,74.27,45,82,30.09,89.07A75.89,75.89,0,0,1,46.35,78.75Z"/><path class="cls-3" d="M54.86,45.51s-8.67-8.6-4-22.91c3.07,7.06,6.38,13.08,15.07,17.51,0,0,42.91-3.57,55.83,22.69C121.72,62.8,99.47,46.18,54.86,45.51Z"/><path class="cls-3" d="M253.58,64.44c-30.89-5.63-44.38,2.3-45.86,3.25,1.55-1.06,15.82-10.6,28.52-11.54l1.07-.07c-3.25-1.38-7.35-3.95-9.47-8.49C224.05,39.48,248.39,32.2,249.1,32a76.84,76.84,0,0,0-18.38,2.88,50.53,50.53,0,0,0-33.91,30.42s-.54-10.47,5.11-23.43c1.49-3.43,4.44-6.44,8-9.07-6.22,4-13.91,10.88-20.73,14.22s-9.62.68-9.62.68c.36,2.38-3.35,13.45-7.24,13.45-7.25,0-14.82-13.82-14.82-13.82a65.93,65.93,0,0,0-2.41-6.8C134.27,15.26,99.47,23.24,99.47,23.24c12.29,6.9,25.74,21.61,25.74,21.61,18.85,1.74,18.4,17.95,18.4,17.95h-2c-1.07,11.3-8.43,10.3-8.43,10.3-2.36-2.32-8-5.21-9-4.82-7.09,2.84-9.87,21.61,2.15,33.75,1.7-9.42,7.45-18.27,20.35-23.27,5,5.67,4.86,5.72,4.86,5.72,2.15-17.44,21.13-4,25,.93,0,0-5.66-11.2-7.27-15.63-1.21-3.32,8.61-2.24,8.61-2.24s18.75-.06,36,26.84c0,0-.18-14,15.43-6.65a45.85,45.85,0,0,1,29.89,3C246.85,84.16,232,80.37,226.2,79c3.74.79,11.64,2.46,22.91,4.72C265.26,87,278.63,100,282.67,98.7c6.46-2,11.84-9.47,11.84-11S286.42,70.43,253.58,64.44Z"/><path class="cls-3" d="M253.58,64.44c-30.89-5.63-44.38,2.3-45.86,3.25,1.55-1.06,15.82-10.6,28.52-11.54,13.46-1,28.67,2.66,30.28,2.41,3.24-.5,5.65-18.2,4.84-20.44s-14.26-10.48-40.64-3.25a50.53,50.53,0,0,0-33.91,30.42s-.54-10.47,5.11-23.43,32.3-20.2,32.57-22.44C236.9-.67,212-.49,210.81.22a68.75,68.75,0,0,0-29.52,39.31c-1.8-16.62,3.78-27.35,3.78-27.35-3.06-13.71-24.6-5.89-24.6-5.89-9.69,11.3-5.38,34.23-5.38,34.23C134.27,15.26,99.47,23.24,99.47,23.24a74.61,74.61,0,0,0-10.76-2.37c5.54,10.52-30.7,18.89-34.24,0-2.12.49-3.44,1.08-3.65,1.74-4.56,14.07,3.76,22.62,4,22.91h0s25,.06,44.61,7c2.16.76-77.56,14.81-68.14-4h0a34,34,0,0,0-8,3.68C11.5,59.81,27,80.09,34.51,76.7c23.65-10.62,38-5.26,38-5.26S50.93,75,39,82.73c-.23.52,55-15.94-2.29,24.7C14.49,123.15,18.75,100.49,19,100a68.15,68.15,0,0,0-6.76,9.3C10.82,122.3,23.34,128,23.34,128s.4,21-9.82,23.16c-7.92,1.69-11.67-2.7-13-4.78a4.05,4.05,0,0,0-.49,1.56c-1.14,18.95,14.71,19.61,14.71,19.61,10.29-18.72,28.69-30.3,29.13-30.57h0l10-8.23s.61-21.86,16.71-35.24c0,0,4.29-1,8.6,27.9,0,0,2.56-20.29,14-30.88,0,0-1.12,3.11,1.75,11.55,0,0,2.38-39.23,26.74,4.65,2.73,4.92,2.51,16.1,1.43,18s-13.77-1.38-13.77-1.38v0a65.79,65.79,0,0,0,14.49,9.06c12.2-4.87,11.51-23.14,11.51-23.14a35.61,35.61,0,0,1-9-7.23c3.23-18,20.34-23.28,20.34-23.28a0,0,0,0,0,0,0A47.45,47.45,0,0,1,158,96.66c3.95,11.25,0,30,0,30,5.74,9,18.66,5.78,18.66,5.78,10.3-14,.22-46.32,0-47,.25.26,6.26,6.61,9.8,21,1.12,4.52,15,2.28,20.7-2s4.17-13.67,4.17-13.67,8,10,6.95,16.33-14,15.29-14,15.29c-1.79,9.31,8.62,17.29,8.62,17.29,20.81-2.33,23.37-16.29,23.37-16.29,7.22,7,9.42,27.76,9.42,27.76,7.92,2.49,21.67-1.25,24.09-4,4-4.57-7.81-25.18-7.81-25.18,9.88-1.58,11.94-20.2,11.94-20.2C262.67,88.23,234.67,81,226.2,79c3.74.79,11.64,2.46,22.91,4.72C265.26,87,278.63,100,282.67,98.7c6.46-2,11.84-9.47,11.84-11S286.42,70.43,253.58,64.44Zm7-29.9c8,.87,2.42,19.28,2.42,19.28-37.68,1-33.64-9-33.64-9S236.64,32,260.6,34.54Zm-119,28.26c-9.15-10.72-16.42-17.95-16.42-17.95,18.85,1.74,18.4,17.95,18.4,17.95ZM207,6c12.65-9.72,18.3,10,18.3,10-38.3,34.4-42.53,22.93-42.53,22.93S189.89,19.14,207,6Zm-45.76,4.24s12.92-8.48,18.84,2.74c0,0-2,40.89-17.76,38.4C162.36,51.33,149.44,29.28,161.28,10.19Zm11,103.68c-7-5.52-14-26.14-15.08-32.87,0,0,3.77-11.57,17.23,8.07C180.85,98.38,172.32,113.87,172.32,113.87ZM197,99c-11.66-6.23-17-15.31-23.6-25.41-3.2-4.87,2.79-4,2.79-4S185,68,193,76.7,197,99,197,99Zm38.85,4.49c3.25,11.15-6.46,22.69-6.46,22.69S217.53,97.94,217.53,89C217.53,89,229.25,80.84,235.84,103.44ZM64.17,73.25l-1.24.29Z"/></g></g></g></svg>