<svg xmlns="http://www.w3.org/2000/svg" xmlns:xlink="http://www.w3.org/1999/xlink" viewBox="0 0 285.96 320.93"><defs><style>.cls-1{isolation:isolate;}.cls-2{fill:none;}.cls-3{fill:url(#Áåçûìÿííûé_ãðàäèåíò_69);}.cls-4{fill:#d177b8;mix-blend-mode:multiply;opacity:0.9;}.cls-5{fill:#ffd4e0;mix-blend-mode:soft-light;}</style><linearGradient id="Áåçûìÿííûé_ãðàäèåíò_69" x1="142.98" y1="320.93" x2="142.98" y2="49.8" gradientUnits="userSpaceOnUse"><stop offset="0" stop-color="#471f4b"/><stop offset="1" stop-color="#310a39"/></linearGradient></defs><g class="cls-1"><g id="Layer_2" data-name="Layer 2"><g id="Layer_1-2" data-name="Layer 1"><rect class="cls-2" x="20.57" width="242.49" height="192.58"/><path class="cls-3" d="M285.86,231.37a23.71,23.71,0,0,1-1.45,5.87,85.67,85.67,0,0,1-6.75,13.64,287.81,287.81,0,0,1-20.9,29.88c.17-.51,1.77-5.2,1.34-8.33l-6.22,8.41,0,.08c-5,6.78-11.39,15.17-12.3,15.62-1.52.78-16.44,7.88-16.44,7.88a128.54,128.54,0,0,1-14,16.51h-4.74s28.19-51.51,27.07-93.93-11.32-101.62-17.35-119.73A112.11,112.11,0,0,1,216.56,129l-33.65-2.79s3.38-31-3.62-43.17c0,0,3.4,27.41,1.59,43.65l-25.28-4s.35-43-8.44-56.68l-6.91,2.17s-12.73,22.78-11.53,60l-16,2.71s-1.21-27.07,7.53-50.44c0,0,0,0,0,.06s-.09.16-.11.24c-.53,1-2.46,4.85-4.7,10.42a.44.44,0,0,0-.07.24c-4.05,10.13-9.1,26-8.91,41.86H82.67l-1.21-17.44-2,17.44-7.36,1.18s-4,45.64-9.34,78.9c-5.25,32.59,8,95.11,20.47,107a9.12,9.12,0,0,0,.76.67H73.85a81.75,81.75,0,0,1-10.41-8,.92.92,0,0,1-.24-.19c-1-.94-2.1-2-3.17-3l-.19-.22A64.25,64.25,0,0,1,51.31,299a37.82,37.82,0,0,1-5.24-12.73A144.52,144.52,0,0,0,53,312.81s-13-19.19-18.82-28.43c-3.29-5.17-14.8-16.54-23.79-33.5l0-.08a98.49,98.49,0,0,1-4.62-9.86A91.73,91.73,0,0,1,0,220.62S19.45,180,32.1,147.28c5.34-13.86,9.32-29.08,14-43.18,0-.13.07-.26.12-.4.12-.35.21-.7.36-1,.52-1.56,1-3.09,1.59-4.61.46-1.24.91-2.44,1.39-3.62,1-2.76,2.07-5.44,3.24-8,.38-.86.76-1.72,1.19-2.52a7.55,7.55,0,0,1,.36-.8c0-.06,0-.08,0-.14h0v0a.13.13,0,0,1,0-.06v0a0,0,0,0,0,0,0c4.95-10.16,11.1-18.63,19.63-24,13.35-8.44,25.62-9.7,36.73-8.69.43,0,.83.06,1.24.11,12.25,1.31,23,5.23,32.12,5,6-.13,15.28-.91,25.5-1.29h0a188.6,188.6,0,0,1,28.84.75.56.56,0,0,0,.21.06c10.2,1.23,19.28,3.86,24.76,8.89a62.78,62.78,0,0,1,11.54,15.09c0,.06.07.08.07.14a135.37,135.37,0,0,1,9.15,20.47s0,.08,0,.13C254,126.13,259,157.65,264.87,173,273.9,196.77,287.22,216.44,285.86,231.37Z"/><path class="cls-4" d="M120.25,80.47c0,.08-.09.16-.11.24a50.3,50.3,0,0,0-4.7,10.42.44.44,0,0,0-.07.24c-4.05,10.13-9.1,26-8.91,41.86C95.9,101.91,119.06,81.49,120.25,80.47Z"/><path class="cls-4" d="M46,272.69c2.5,19.54,8.25,30.61,13.87,36.85A64.25,64.25,0,0,1,51.31,299,120.18,120.18,0,0,1,46,285.64c-11.41-34.44-7.55-58,3.89-105s.74-75.49,14-102.55c10.67-21.87,37.15-26.86,47-28,2.36-.26,3.76-.32,3.76-.32s-.93.11-2.52.43c-7.63,1.48-30.7,7.37-43.23,25.81-15.18,22.32-9,58.9-11.44,85S40.23,228,46,272.69Z"/><path class="cls-4" d="M131.34,54.28c-1.93.78-33.13,13.24-45.66,32.91-13,20.32-13.54,47.22-13.54,47.22s-4,45.64-9.34,78.9c-5.25,32.59,8,95.11,20.47,107l-.45.67h-9a81.75,81.75,0,0,1-10.41-8c5.86,4.69,10.8,4.77,10.8,4.77S48.35,261.87,59.48,207.81s3.91-96.93,21.38-121C97.78,63.56,129.38,54.82,131.34,54.28Z"/><path class="cls-4" d="M10.34,250.88S2,230.57,27,191.88,45.38,97.34,54.46,82.81a208.34,208.34,0,0,0-8.24,20.9c-3.18,10-3.1,46.59-14.49,73s-24,33.5-26,64.22Z"/><path class="cls-4" d="M155.21,54.7s44.26,11.5,58.85,52.46C214.06,107.16,204,59.79,155.21,54.7Z"/><path class="cls-4" d="M169.67,54s46.15,6.69,58.14,56.09,11.54,89.11,22.6,121.3,1.43,49.56,1.43,49.56l6.25-8.48s8.13-16-6.55-51.81S239.37,125.1,227.85,99.37,189.46,56.63,176.59,54Z"/><path class="cls-4" d="M198.56,54.7s33.57,8.54,43.95,45.1,3.62,67.27,19.64,98.5,15.52,52.58,15.52,52.58l6.73-13.63s-3.08-6.85-22.13-42c-13-23.95-11.07-75.92-19.53-101.3S213.09,58.86,198.56,54.7Z"/><path class="cls-5" d="M226.09,66.22a8.52,8.52,0,0,1,0,7.09C224.3,76.86,210,85.13,209.4,90.4s-24.76,8-24.76,8V109s23.55.23,27.47-2.17-.53-15.06,2.89-19.23,14-5.2,15.92-6.69S233,75.28,233,75.28,228.63,68.78,226.09,66.22Z"/><path class="cls-5" d="M179.15,99l-21.38-1.18v12.52s14.3-4.9,22.28,0Z"/><path class="cls-5" d="M129.63,94A57.65,57.65,0,0,0,127.22,109l-12.64,1.34s.6-11.84,3.91-17.6Z"/><path class="cls-5" d="M110.43,92.77S101.25,94,94,89.89s-6.15-3.41-17.18-9-5-16.18-2.75-22.14a38.48,38.48,0,0,0-10.45,9.36s.13,10.93,8,14.66,9.92,11.65,12.33,15,23.81,0,23.81,0Z"/><path class="cls-5" d="M252.6,223.69s3.92,5.72,7.27,27.19c0,0,2.81-13.09,7.33-15.78s7.36-4.73,7.36-4.73l-6.46-15.73s.75,6-3.46,9.05C257.63,228.79,252.6,223.69,252.6,223.69Z"/><path class="cls-5" d="M274.56,216s6.33-3.42,7-4.95l1.82,4.95L279,223.69S277.11,218.55,274.56,216Z"/><path class="cls-5" d="M247.18,227l-10.13,1.69s1.75,12-4.07,33.09c0,0,13-10,22.11-10.89C255.09,250.88,250.87,234.48,247.18,227Z"/><path class="cls-5" d="M57,227s-.93,24.17,2.44,40.35c0,0-12.19-12.41-13.46-12.25,0,0-.18-15.57,1.17-28.1C47.14,227,55,226.48,57,227Z"/><path class="cls-5" d="M41.3,220.63s-17.77-9.47-20.11-19.07A86.4,86.4,0,0,0,14,217.06s17.44,13.18,25,28.4C39,245.46,40,228.2,41.3,220.63Z"/><path class="cls-5" d="M20,198.05s-5.86-4.55-6.75-6.17l-5.55,16,3.76,2A65,65,0,0,1,20,198.05Z"/></g></g></g></svg>