<svg xmlns="http://www.w3.org/2000/svg" xmlns:xlink="http://www.w3.org/1999/xlink" viewBox="0 0 218.95 186.56"><defs><style>.cls-1{isolation:isolate;}.cls-2{fill:url(#_102);}.cls-3{mix-blend-mode:color-burn;opacity:0.5;fill:url(#Áåçûìÿííûé_ãðàäèåíò_7);}.cls-4{fill:#ce77b5;mix-blend-mode:multiply;}.cls-5,.cls-6{fill:#ffd6b8;mix-blend-mode:soft-light;}.cls-6{opacity:0.3;}</style><linearGradient id="_102" x1="110.27" y1="186.56" x2="110.27" gradientUnits="userSpaceOnUse"><stop offset="0.01" stop-color="#f25259"/><stop offset="1" stop-color="#a73646"/></linearGradient><linearGradient id="Áåçûìÿííûé_ãðàäèåíò_7" x1="0.05" y1="89.24" x2="0.05" y2="87.89" gradientUnits="userSpaceOnUse"><stop offset="0.01" stop-color="#ad637c"/><stop offset="0.98" stop-color="#d99d93"/></linearGradient></defs><g class="cls-1"><g id="Layer_2" data-name="Layer 2"><g id="Layer_1-2" data-name="Layer 1"><path class="cls-2" d="M216.34,69.82c-18.16-42-67.26-34.62-67.26-34.62S159.86-.18,124.48,0,35.93,23.18,9.64,64.81c-7,11-8.84,23.26-7.78,35.24,2.9,33.17,28,64.57,28,64.57a71,71,0,0,0,6.63,21.94c-2.07-13.39-1.43-27.9,1-43.14-.78,10.15,2.31,17.2,9.46,21,0,0-16.08-29.89,16.08-55.81s45.45-27.25,64.87-44.27A116.48,116.48,0,0,0,139.34,52.9c-12.12,20.63-25.57,37.53-43,43.22,14.53-1.08,29.17-6.05,44.65-39.55-2.43,16.51-11.74,35-24.78,54.69,15.83-7.9,26.77-22.32,31-45.62.61,6.62,2.14,13.11,5.28,18.09,10.22,16.17,32.07,26.39,32.07,26.39,3.46,12.1,4.91,25.9,4,41.72a83.81,83.81,0,0,0,9.09-28.38S227.85,96.44,216.34,69.82Zm-62.72-4.68c8.93,17.42,18.5,32.29,29.37,42C163.25,97.73,156,82.55,153.62,65.14Zm44.56,56.62-.43.42.48-.58c6.84-8.43,11.93-22.27,15.56-40.28C214.78,98,209.14,111.21,198.18,121.76Z"/><path class="cls-3" d="M0,87.89l.11,1.35C.05,88.62,0,88.15,0,87.89Z"/><path class="cls-4" d="M149,35.27l-9.7,17.63a116.48,116.48,0,0,1-11.48,11.44c-19.42,17-32.7,18.35-64.87,44.27s-16.08,55.81-16.08,55.81c-7.15-3.8-10.24-10.85-9.46-21-2.38,15.24-3,29.75-1,43.14a71,71,0,0,1-6.63-21.94s-25.11-31.4-28-64.57c1.78,7.65,5.2,17,11.74,22.56,12.5,10.59,18.17-3.22,18.17-3.22a31.32,31.32,0,0,0,4.36,15.71s1-25.51,30.83-40.68C132.37,61.18,148.15,36.84,149,35.27Z"/><path class="cls-4" d="M148.88,31c.14.39.2.61.2.61s-.09-.39-.3-1.06a11.19,11.19,0,0,0-1.31-3.35c-3.36-7.3-13-20.91-38.13-19.24-34,2.27-62,23.84-62,23.84S88.77,6.25,121.12,11.64c13.23,2.21,20.4,8.18,24.16,13C142,22,136,20.83,125.05,24.22,98.18,32.55,85.13,64.33,67.91,73.61S42.18,88.93,38.2,95s-3.78,15.89-3.78,15.89,15.08-23.55,35-35.76C89,63.11,140.56,10,149,35.27A14.47,14.47,0,0,0,148.88,31Z"/><path class="cls-4" d="M192.41,64.35C176.32,33.13,149,35.27,149,35.27a104.38,104.38,0,0,1-1.83,30.36c.61,6.62,2.15,13.13,5.29,18.1,10.21,16.17,32,26.38,32,26.38,3.48,12.11,4.93,25.91,4,41.73a83.36,83.36,0,0,0,9.08-28.38l.05-.11c.09-.2.27-.74.52-1.58a.48.48,0,0,0,.06-.18A77.87,77.87,0,0,0,192.41,64.35Zm-38.79.79c8.92,17.41,18.5,32.3,29.37,42C163.24,97.73,156,82.55,153.62,65.14Zm38,47.48c-7-26.54-18.36-50.4-34.63-71.16A76.94,76.94,0,0,1,183.44,69C193.51,87.3,191.59,112.62,191.59,112.62Z"/><path class="cls-4" d="M198.23,121.59a.48.48,0,0,1-.06.18c-.25.84-.43,1.38-.52,1.58l-.05.11C205.29,80.58,189.26,51,149,35.27c0,0,27.29-2.14,43.38,29.08A77.87,77.87,0,0,1,198.23,121.59Z"/><path class="cls-4" d="M29.87,164.62a120.79,120.79,0,0,1,.42-38.09s-5.09,13-5,22.34A30.55,30.55,0,0,0,29.87,164.62Z"/><path class="cls-5" d="M169.63,39.16c14.65,8.21,24.16,21.28,29.34,38.46-3.42-17.11-4-29.28,6.05-23.21a42.24,42.24,0,0,0-13.43-10.55C197.77,55.16,184.36,47.79,169.63,39.16Z"/><path class="cls-5" d="M101.19,13.94c-21,2.23-45.08,12.5-72.12,30.43,24.73-10,39.13-3.52,38.87,26.34,4.11-1.88,8.25-5.52,12.41-10.48C55.17,33.64,72.48,21.81,101.19,13.94Z"/><path class="cls-5" d="M114.68,42.71c-17.18,13.7-32.87,26-46,34.33,17.07-6.48,27-7.39,22.25,3.26a74.74,74.74,0,0,0,18.79-11.7C97.72,67.4,102,57.32,114.68,42.71Z"/><path class="cls-6" d="M43.52,44.44C28.6,41.56,17.32,60.25,16.09,62.28c-13.76,22.81,1.43,55.08,7.68,55.23,3.82.1-.82-12.08,10.35-26.27C46.48,75.53,59.44,75.89,60.78,65.92,62,57.17,53.41,46.35,43.52,44.44Z"/></g></g></g></svg>