<svg xmlns="http://www.w3.org/2000/svg" xmlns:xlink="http://www.w3.org/1999/xlink" viewBox="0 0 263.34 293.91"><defs><style>.cls-1{isolation:isolate;}.cls-2{fill:url(#Áåçûìÿííûé_ãðàäèåíò_97);}.cls-3,.cls-4,.cls-5,.cls-6,.cls-7{mix-blend-mode:multiply;}.cls-3{fill:url(#Áåçûìÿííûé_ãðàäèåíò_123);}.cls-4{fill:url(#Áåçûìÿííûé_ãðàäèåíò_62);}.cls-5{fill:url(#Áåçûìÿííûé_ãðàäèåíò_123-2);}.cls-6{fill:url(#Áåçûìÿííûé_ãðàäèåíò_62-2);}.cls-7{fill:url(#Áåçûìÿííûé_ãðàäèåíò_123-3);}.cls-8{fill:#ffd9bb;mix-blend-mode:soft-light;}.cls-9{fill:none;}</style><linearGradient id="Áåçûìÿííûé_ãðàäèåíò_97" x1="132.1" y1="293.91" x2="132.1" y2="31.81" gradientUnits="userSpaceOnUse"><stop offset="0" stop-color="#c7544b"/><stop offset="1" stop-color="#b63651"/></linearGradient><linearGradient id="Áåçûìÿííûé_ãðàäèåíò_123" x1="86.75" y1="293.67" x2="86.75" y2="37.16" gradientUnits="userSpaceOnUse"><stop offset="0" stop-color="#ffeadb"/><stop offset="0.99" stop-color="#d177f4"/></linearGradient><linearGradient id="Áåçûìÿííûé_ãðàäèåíò_62" x1="224.79" y1="290.73" x2="224.79" y2="89.97" gradientUnits="userSpaceOnUse"><stop offset="0.01" stop-color="#d177f4"/><stop offset="1" stop-color="#ffeadb"/></linearGradient><linearGradient id="Áåçûìÿííûé_ãðàäèåíò_123-2" x1="18.14" y1="264.93" x2="18.14" y2="158.99" xlink:href="#Áåçûìÿííûé_ãðàäèåíò_123"/><linearGradient id="Áåçûìÿííûé_ãðàäèåíò_62-2" x1="54.08" y1="293.66" x2="54.08" y2="188.44" xlink:href="#Áåçûìÿííûé_ãðàäèåíò_62"/><linearGradient id="Áåçûìÿííûé_ãðàäèåíò_123-3" x1="210.07" y1="141.1" x2="210.07" y2="78.59" xlink:href="#Áåçûìÿííûé_ãðàäèåíò_123"/></defs><g class="cls-1"><g id="Layer_2" data-name="Layer 2"><g id="Layer_1-2" data-name="Layer 1"><path class="cls-2" d="M255.15,191.52a1.08,1.08,0,0,1-.05-.17c-1.71-5.52-3.47-11-5-16.47a143,143,0,0,1-4-17.62c-.85-5.6-1.53-10.46-2.13-14.79v0c-2.28-16.58-3.3-25.59-7.26-39.87-5-18-44.4-29.69-51.44-34.19C167,56.68,157.24,34.49,128.6,32S85.05,51.88,55.12,75.51h0l-4.78,3.77,0,0c-25.87,20.4-32.12,25.5-38.91,41.91-7.19,17.39,0,42.25-5.63,68.21a212.17,212.17,0,0,0-4.7,33.17,110.42,110.42,0,0,0,.65,20.5C2.9,251.73,5.42,259.35,9.83,265a50,50,0,0,0,16.73,13.43,40.91,40.91,0,0,0,4.68,5.69,62.81,62.81,0,0,0,6.49,2.85l.15.06.1,0c1.57.6,3.42,1.26,5.47,1.91h0a107.42,107.42,0,0,0,17,3.89h.07l.19,0c2.37.35,4.84.62,7.42.79h.12a101.27,101.27,0,0,0,11.61.13S50,258.67,46.61,207c.36,2.39,6.19,40.76,15.51,54.55a348.89,348.89,0,0,1-5.81-39.23s0-.09,0-.13a304.6,304.6,0,0,1-1.19-42.42c2-41.63,23.83-88.58,40.37-100.46s58.8-13.19,72.87-2.94l-.8-4.43,4.25,3.49.47.4,1.22-1.25,4.86,2.65-2.19,2.08a131.7,131.7,0,0,1,10,10.63l.05,0c8.48,9.93,20,25.83,24.79,43.52,8,29.6-.91,119.66-9.12,148.41,0,0,11.8-15.19,17-31.16-2.7,10.1-8.16,26-18.21,39.39,0,0,11.38,3,24.53-4.43,9.76-5.51,20.73-19.18,27.54-31.19-.59,1.28-8.32,17.76-19,27.33a.16.16,0,0,0-.06.05h0a34,34,0,0,1-4.45,3.41c1-.43,31-14.64,33.77-44.23C264.62,223.68,260.07,207.41,255.15,191.52ZM14.52,248c-1.94-10.82-1.42-24.7,3.59-42.49-.32,1.54-6.34,31.73,1.06,56.86A52.62,52.62,0,0,1,14.52,248Z"/><path class="cls-3" d="M171.8,75.43l-4.25-3.49.8,4.43c-14.07-10.25-56.35-9-72.87,2.94S57.09,138.14,55.11,179.77a304.6,304.6,0,0,0,1.19,42.42c-7.1-50.51,2.78-90.8,2.78-90.8a399.68,399.68,0,0,0-15.6,87.24c-3.09,47.87,24,74.26,24.82,75h-.11l-7.42-.79-.19,0h-.07c-.56-.4-18.23-13.57-19.86-51.76-1.58-37.75,11.32-87.73,12-90.39a437.1,437.1,0,0,0-18.9,79.92c-3.75,27.66,1.06,43.6,5.14,51.62.17.35.34.68.53,1a25,25,0,0,0,4,5.71L38,287l-.1,0-.15-.06c-.61-.28-2.86-1.55-4.91-5.77a28.67,28.67,0,0,1-1.47-3.71c-2.29-7.26-3.56-19.9-.11-41.72,7.31-46.48,25.24-109.86,25.24-109.86s-27.63,37.37-38.36,79.59c0,0,0,0,0,.06-4.82,19-4.92,32.9-3.59,42.49,1.58,11.25,5.16,16.52,5.45,16.92v0c-.5-.25-13.53-7.09-18.26-21.85a38.19,38.19,0,0,1-.84-19.53c.06-.32.13-.64.19-1,6.31-28.95,40-79,59.46-110.1C79.92,81.61,95,58.23,95.4,57.51,77.38,68.22,51.13,79,50.33,79.29l4.78-3.77h0c.38-.15,6.71-2.67,23-11,16.81-8.62,48.26-33.72,66-25.8s29.4,35.9,29.4,35.9Z"/><path class="cls-4" d="M263,241.08c-2.77,29.59-32.82,43.8-33.77,44.23a34,34,0,0,0,4.45-3.41h0a.16.16,0,0,1,.06-.05c10.7-9.57,18.43-26,19-27.33-6.81,12-17.78,25.68-27.54,31.19-13.15,7.42-24.53,4.43-24.53,4.43,10.05-13.43,15.51-29.29,18.21-39.39-5.22,16-17,31.16-17,31.16C210.12,253.15,219,163.09,211,133.49,206.24,115.8,194.72,99.9,186.24,90c1.37,1.15,23.34,20,32.32,61.38,9.13,42-2.38,101.23-2.74,103.05.49-1.63,19.3-64.13,12-104.88.47,2.13,10,47.06,3.9,82.46-6.21,35.67-12.75,47.08-12.95,47.42.54-.24,37.55-2.9,37.08-50.34-.36-36.2-10.57-62.28-11.9-86.59v0s2.71,14,6.1,32.45c2.86,15.5,6.2,34.17,8.85,50.41,5.12,31.55-18.63,51.62-24.13,55.8C240.3,277,264.25,257.8,262,233.6c-2.41-25.59-6.36-40.33-6.84-42.08C260.07,207.41,264.62,223.68,263,241.08Z"/><path class="cls-5" d="M20,264.93A52.32,52.32,0,0,1,4.28,221.2c2.93-27.92,28-62.21,28-62.21S26,178.35,18.14,202.31,10.31,243.7,20,264.93Z"/><path class="cls-6" d="M60.77,292.87S27.88,261.34,44.83,188.44c0,0-14.85,60.65,23.36,105.22Z"/><path class="cls-7" d="M176.16,79.31A176,176,0,0,1,212.33,108c17,17.87,31.65,33.1,31.65,33.1l-.49-2.18a268.45,268.45,0,0,0-29-32.63,176.29,176.29,0,0,0-34.65-26s21.35,6.47,39.19,20.8,22.32,22.81,22.32,22.81l-1.29-7.26s-13.14-16.25-30-24.76a221.65,221.65,0,0,0-33.16-13.28Z"/><path class="cls-8" d="M36.91,90S34.55,94.9,38,98.52s18.36-1.17,22.56-1.28,11.48-3,11.48-3L56.57,118.76s1.34-3.11-1.83-6.49-17.61,2-24.88-1.16-3.21-12.27-3.21-12.27Z"/><path class="cls-8" d="M202.29,109.85s9.46,17.63,14.2,33.14a25.31,25.31,0,0,1,4.89-11.06c4.22-5.59,6.73-5.51,6.73-5.51l-13.62-16.16Z"/><path class="cls-8" d="M216.53,108.27l6.48-3.9a122,122,0,0,1,10.1,9.38l-4.19,7.47S218.57,110.25,216.53,108.27Z"/><rect class="cls-9" x="11.21" width="242.49" height="192.58"/></g></g></g></svg>