<svg xmlns="http://www.w3.org/2000/svg" xmlns:xlink="http://www.w3.org/1999/xlink" viewBox="0 0 279.05 249.59"><defs><style>.cls-1{isolation:isolate;}.cls-2{fill:url(#_79);}.cls-3{fill:url(#_770);}.cls-4{fill:#a83a71;}.cls-4,.cls-5{mix-blend-mode:multiply;}.cls-5{fill:url(#_48);}.cls-6{fill:#ffd7ff;opacity:0.5;mix-blend-mode:soft-light;}</style><linearGradient id="_79" x1="139.52" y1="246.02" x2="139.52" y2="152.49" gradientUnits="userSpaceOnUse"><stop offset="0" stop-color="#360217"/><stop offset="1" stop-color="#160221"/></linearGradient><linearGradient id="_770" x1="139.52" y1="-16.9" x2="139.52" y2="208.72" gradientUnits="userSpaceOnUse"><stop offset="0" stop-color="#6a1424"/><stop offset="1" stop-color="#2e002c"/></linearGradient><linearGradient id="_48" x1="146.13" y1="73.73" x2="146.13" y2="212.13" gradientUnits="userSpaceOnUse"><stop offset="0" stop-color="#8780e9"/><stop offset="1" stop-color="#fff"/></linearGradient></defs><g class="cls-1"><g id="Layer_2" data-name="Layer 2"><g id="Avatar_face" data-name="Avatar face"><path class="cls-2" d="M242,178.48s2.73-41.61,1.47-42.09c3.11-21-31.78-54.78-39.55-62.18-42.1-40-72.16-42.69-128.23-2.27-44.24,31.9-41.8,100.93-41.17,105.76-10.92,3.83-3.73,19.43,7.37,19,0,0-4.55,8.52,4.7,13.81S59.54,213,59.54,213s-8.28,8.82,5.34,14.1c0,0-6.8,2.65,2.31,7.5s19.42-8.14,19.42-8.14-2.88,10.78,6,14.75,21.22-5.29,21.22-5.29,7.72,13.66,16.62,13.66,15.87-8.81,15.87-8.81-2.11,6.77,6.7,6.91c8,.13,9.1-11.79,9.24-14-.1,2.28-.4,14.56,4.77,14,10.12-1,9-9.28,10.44-6.62s10.4,1.81,18.45-2c7.35-3.53,5.28-11.91,5.28-11.91s6.21,3.09,11.77-3.67c0,0-1.28,11,7.86,7.35,8-3.23,1.69-17.24,1.69-17.24a12.59,12.59,0,0,0,13.42,1.71c6.41-2.76-1.23-10.33-1.23-10.33s10.43,4.11,14.4-.29S242,178.48,242,178.48Z"/><path class="cls-3" d="M278.92,129.41c-1.47,10.29-9.39-.88-9.39-.88-.87,15.58-11.47,18.22-11.47,18.22s10.87,3.82,11.46,14.4S251,172.23,251,172.23s6.18,18.6-2.64,21.83-8.52-5.18-8.52-5.18c-10.58,5.41-6.47-7.16-6.47-7.16-4.11-3.41,4.71-16.17,4.71-16.17-5.79-.33-5.59-12-5.59-12-1.48,5.47-11.16,2.84-11.16,2.84s-2.13,7.69-8.82,7.3-5.58-26.31-5.58-26.31c-6.46-1.76-2.13-29.45-2.13-29.45s-4.41,3.75-7.49,1.54-.55-12.58-.45-13c-.1.24-1.85,4.19-11.67,4.4S173.43,85,173.5,84.75c-8.37,4.63-18.29-1.1-18.29-1.1s-2.2,9-6.17,9-17.85-12.56-17.85-12.56c-7.49,4-15.87,2-15.87,2,1,.44-4.48,17.78-11.38,16.61-6.65-1.14-8.26-3.76-8.37-4,.05.31,1.08,6.77-2.5,19.38C89.39,127.06,79.7,123,79.7,123s3.81,13.08,2.79,18.66A37.28,37.28,0,0,1,78.67,152S79,164.38,74,163.23s-5.32-5.61-5.76-6.88-1.77,4.36-8.23,7.88-6.17-5.73-6.17-5.73c-2.21,5.29-8.38,4.56-8.38,4.56s3.16,14.18.32,19.53c-6.49,12.21-15.31-6.09-15.31-6.09-7.34-1-5.43-10.95-5.43-10.95s-1.47,2.5-6.32-.58-7.34-18.81-4-25.86c3.13-6.53,5.13-1.47,5.4-.69l0,.1s-13-5.26-13.55-11,3.24-16.75,3.24-16.75-7.21-4.69-8.82-11S-1,78,4.83,77c5.71-1,7.43,3.46,7.55,3.94v0s.25-10.64,2.24-14.33c1.3-2.39,6.87-6.89,9.2-7.5a14.92,14.92,0,0,1,10.18,1C38.84,55.45,42.82,47,42.82,47S37.89,44.78,40,39.1c4.6-12.38,25.47-23.45,36-28.53,14.29-6.9,24.08-.14,24,0a71.57,71.57,0,0,1,26.47-4.85s-.54-2,5.22-4.59c5.54-2.46,9.9-.74,15.06,3.64l.1.08c-.1-.08,3.54-4.7,11-2,8.89,3.14,18,17.13,20.16,38a29,29,0,0,1,7.36.86c27-20.88,32.9,3,32.9,3s4.64-2.27,13.83-1.76c8.93.49,9.17,2.17,9.35,5.33s-5.91,5.07-5.91,5.07c20.06,4.41,17.09,4.51,17.09,4.51,7.74,3.46,8.92,8.39,9,10.67a5.87,5.87,0,0,1-.06,1.23s12.64,4.71,13.23,10.88-7.35,5.29-7.35,5.29c2.25,4.66,2.26,10.65,1.88,14.79a41.16,41.16,0,0,1-.71,4.89S280.39,119.13,278.92,129.41Z"/><path class="cls-4" d="M278.92,129.41c-1.47,10.29-9.39-.88-9.39-.88-.87,15.58-11.47,18.22-11.47,18.22s10.87,3.82,11.46,14.4S251,172.23,251,172.23s6.18,18.6-2.64,21.83-8.52-5.18-8.52-5.18c-10.58,5.41-6.47-7.16-6.47-7.16-4.11-3.41,4.71-16.17,4.71-16.17-5.79-.33-5.59-12-5.59-12-1.48,5.47-11.16,2.84-11.16,2.84s-2.13,7.69-8.82,7.3-5.58-26.31-5.58-26.31c-6.46-1.76-2.13-29.45-2.13-29.45s-4.41,3.75-7.49,1.54-.44-13-.44-13-1.55,4.19-11.68,4.41c-9.95.21-11.76-15.88-11.69-16.09-8.37,4.63-18.29-1.1-18.29-1.1s-2.2,9-6.17,9-17.85-12.56-17.85-12.56c-7.49,4-15.87,2-15.87,2,1,.44-4.48,17.78-11.38,16.61-6.65-1.14-8.26-3.76-8.37-4,.05.31,1.08,6.77-2.5,19.38C89.39,127.06,79.7,123,79.7,123s3.81,13.08,2.79,18.66A37.28,37.28,0,0,1,78.67,152S79,164.38,74,163.23s-5.32-5.61-5.76-6.88-1.77,4.36-8.23,7.88-6.17-5.73-6.17-5.73c-2.21,5.29-8.38,4.56-8.38,4.56s3.16,14.18.32,19.53c-6.49,12.21-15.31-6.09-15.31-6.09-7.34-1-5.43-10.95-5.43-10.95s-1.47,2.5-6.32-.58-7.34-18.81-4-25.86,5.44-.59,5.44-.59-13-5.26-13.55-11,3.24-16.75,3.24-16.75-7.21-4.69-8.82-11S-1,78,4.83,77c5.71-1,7.43,3.46,7.55,3.94v0c3.38,7.2,42.35-3.79,42.35-3.79s-5.48,9.34,8,7C79.67,81.22,90,63.08,90,63.08s17.93,4.09,29.75,0c34.65-12,53.81-25.55,56.07-34.47L178,40.81l7.36.86s-8.49,5.82-6.35,18.1c.94,5.36,21.15,6.19,22.34.3,0,0,1.49,11.87,13.58,8.6,0,0-8.73,5.51-3,15.79s49.91.58,49.61-14.7c0,0,12.64,4.71,13.23,10.88s-7.35,5.29-7.35,5.29c3.82,7.93,1.17,19.68,1.17,19.68S280.39,119.13,278.92,129.41Z"/><path class="cls-5" d="M278.92,129.41c-1.47,10.29-9.39-.88-9.39-.88-.87,15.58-11.47,18.22-11.47,18.22s10.87,3.82,11.46,14.4S251,172.23,251,172.23s6.18,18.6-2.64,21.83-8.52-5.18-8.52-5.18c-10.58,5.41-6.47-7.16-6.47-7.16-4.11-3.41,4.71-16.17,4.71-16.17-5.79-.33-5.59-12-5.59-12-1.48,5.47-11.16,2.84-11.16,2.84s-2.13,7.69-8.82,7.3-5.58-26.31-5.58-26.31c-6.46-1.76-2.13-29.45-2.13-29.45s-4.41,3.75-7.49,1.54-.55-12.58-.45-13c-.1.24-1.85,4.19-11.67,4.4S173.43,85,173.5,84.75c-8.37,4.63-18.29-1.1-18.29-1.1s-2.2,9-6.17,9-17.85-12.56-17.85-12.56c-7.49,4-15.87,2-15.87,2,1,.44-4.48,17.78-11.38,16.61-6.65-1.14-8.26-3.76-8.37-4,.05.31,1.08,6.77-2.5,19.38C89.39,127.06,79.7,123,79.7,123s3.81,13.08,2.79,18.66A37.28,37.28,0,0,1,78.67,152S79,164.38,74,163.23s-5.32-5.61-5.76-6.88-1.77,4.36-8.23,7.88-6.17-5.73-6.17-5.73c-2.21,5.29-8.38,4.56-8.38,4.56s3.16,14.18.32,19.53c-6.49,12.21-15.31-6.09-15.31-6.09-7.34-1-5.43-10.95-5.43-10.95s-1.47,2.5-6.32-.58-7.34-18.81-4-25.86c3.13-6.53,5.13-1.47,5.4-.69l0,.1c1.24,10.58,8.29,0,8.29,0s1.76,6.23,7.7,2.36c-.34.25-4.6,3.41,1.12,4.25,5.95.88,9-9.91,9-9.91a9.87,9.87,0,0,0,10.13,3.3s-6,5.07,2.27,5.07,1.7-15.21,1.7-15.21,5.61,3.31,9.3-3.08,0-17.19,0-17.19a9.31,9.31,0,0,0,12.3,3.3c8.15-3.74,10-20.93,10-20.93s4.1,2.74,8.29,2.8,4.19-13.6,4.19-13.6,1.54,4.63,9.69-1.54c0,0-.22,3.52,6.17,2s12.34-11.59,12.34-11.59,2.65,12.69,8.16,13.57,2-17.09,2-17.09,7.88,7.2,12.94,3a15,15,0,0,0,5.29-10.15s-.44,9.58,6.62,8.65a10.55,10.55,0,0,0,8.8-6.85c-.18.81-3.63,16.4,7.15,17.8-1.3-.15-11.31-1.15-7.8,4.42,3.75,6,12.78-1.76,12.78-1.76s-2.64,5.95,2.87,8.38c5,2.22,6.73-1.28,7-1.87-.34,1-3.31,10.81,7.1,12.9-.51-.06-7.14-.68-4.6,2.89s10.58,2.6,10.58,2.6-5.07,6.62-1.1,9.48c1.56,1.13,3.5.79,5.27,0-4.83,4.08-10.63,10.85-5.17,16.79,6.27,6.84,12.4.09,15.18-3.9-1.68,3.15-3.57,8.48,1,11.17,6.68,4,11.75-11,11.75-11s1.32,7.05,9,4c0,0-7.05,8.81-.88,10.58s20.91-5.07,15-11.9c0,0,5.06-6.17,0-10.36,0,0,10-2.8,7-14.18C268.63,105.61,280.39,119.13,278.92,129.41Z"/><path class="cls-6" d="M113.5,45.42s6.53,1.86,1,4.79-16.23.66-16.23.66c-17.36,6.31-23.68,3.64-22.38-4.26,0,0-14.65-11.93,2.63-16.36,4.37-1.12,3,3.23,3,3.32,8.78-3.32,8.41,1.48,8.41,1.48s10.21-9.44,13.82-10.66c36.86-12.38,25.63,2.88,25.63,2.88C169.44,33,113.5,45.42,113.5,45.42Z"/></g></g></g></svg>