<svg xmlns="http://www.w3.org/2000/svg" xmlns:xlink="http://www.w3.org/1999/xlink" viewBox="0 0 178.11 132.06"><defs><style>.cls-1{isolation:isolate;}.cls-2{fill:url(#Áåçûìÿííûé_ãðàäèåíò_114);}.cls-3{fill:url(#Áåçûìÿííûé_ãðàäèåíò_114-2);}.cls-4{fill:url(#Áåçûìÿííûé_ãðàäèåíò_114-3);}.cls-5{fill:#d177b8;}.cls-10,.cls-11,.cls-12,.cls-5,.cls-6,.cls-7,.cls-8,.cls-9{mix-blend-mode:multiply;}.cls-6{fill:url(#Áåçûìÿííûé_ãðàäèåíò_123);}.cls-7{fill:url(#Áåçûìÿííûé_ãðàäèåíò_62);}.cls-8{fill:url(#Áåçûìÿííûé_ãðàäèåíò_62-2);}.cls-9{fill:url(#Áåçûìÿííûé_ãðàäèåíò_62-3);}.cls-10{fill:url(#Áåçûìÿííûé_ãðàäèåíò_123-2);}.cls-11{fill:url(#Áåçûìÿííûé_ãðàäèåíò_62-4);}.cls-12{fill:url(#Áåçûìÿííûé_ãðàäèåíò_62-5);}.cls-13{fill:#ffd9bb;mix-blend-mode:soft-light;}</style><linearGradient id="Áåçûìÿííûé_ãðàäèåíò_114" x1="158.61" y1="132.06" x2="158.61" y2="45.87" gradientUnits="userSpaceOnUse"><stop offset="0" stop-color="#fc9090"/><stop offset="1" stop-color="#ff386b"/></linearGradient><linearGradient id="Áåçûìÿííûé_ãðàäèåíò_114-2" x1="70.48" y1="130.61" x2="70.48" y2="0" xlink:href="#Áåçûìÿííûé_ãðàäèåíò_114"/><linearGradient id="Áåçûìÿííûé_ãðàäèåíò_114-3" x1="155.73" y1="49.66" x2="155.73" y2="42.89" xlink:href="#Áåçûìÿííûé_ãðàäèåíò_114"/><linearGradient id="Áåçûìÿííûé_ãðàäèåíò_123" x1="9.93" y1="118.42" x2="20.74" y2="118.42" gradientUnits="userSpaceOnUse"><stop offset="0" stop-color="#ffeadb"/><stop offset="0.99" stop-color="#d177f4"/></linearGradient><linearGradient id="Áåçûìÿííûé_ãðàäèåíò_62" x1="0.01" y1="80.98" x2="56.88" y2="80.98" gradientUnits="userSpaceOnUse"><stop offset="0.01" stop-color="#d177f4"/><stop offset="1" stop-color="#ffeadb"/></linearGradient><linearGradient id="Áåçûìÿííûé_ãðàäèåíò_62-2" x1="41.89" y1="122.19" x2="41.89" y2="18.22" xlink:href="#Áåçûìÿííûé_ãðàäèåíò_62"/><linearGradient id="Áåçûìÿííûé_ãðàäèåíò_62-3" x1="25.11" y1="66.66" x2="107.65" y2="66.66" xlink:href="#Áåçûìÿííûé_ãðàäèåíò_62"/><linearGradient id="Áåçûìÿííûé_ãðàäèåíò_123-2" x1="107.83" y1="14.75" x2="108.82" y2="14.75" xlink:href="#Áåçûìÿííûé_ãðàäèåíò_123"/><linearGradient id="Áåçûìÿííûé_ãðàäèåíò_62-4" x1="145.2" y1="71.2" x2="178.08" y2="71.2" xlink:href="#Áåçûìÿííûé_ãðàäèåíò_62"/><linearGradient id="Áåçûìÿííûé_ãðàäèåíò_62-5" x1="160.4" y1="89.83" x2="176.46" y2="89.83" xlink:href="#Áåçûìÿííûé_ãðàäèåíò_62"/></defs><g class="cls-1"><g id="Layer_2" data-name="Layer 2"><g id="layer1"><path class="cls-2" d="M178.08,82.45c0,1.49-.12,3-.22,4.61h0c-.28,4.12-.78,8.49-1.4,12.84-.21,1.48-.43,3-.66,4.42-2.32,14.63-5.56,27.73-5.56,27.73S165.59,97,161.79,80.41c-.22-1-.44-1.86-.65-2.69a24.09,24.09,0,0,0-.72-2.33l0,0a0,0,0,0,1,0,0,43.54,43.54,0,0,0-9.09-14.1h0a74.45,74.45,0,0,0-5.8-5.62,3.42,3.42,0,0,0-.29-.25l0,0h0l0,0h0a69.18,69.18,0,0,0-6-4.64L141,45.87S173.21,54.43,177.22,71A46.6,46.6,0,0,1,178.08,82.45Z"/><path class="cls-3" d="M141,45.86l-5.34,3.79s-6.05.59-13.25.59-48.51-.39-48.51-.39c-12.85,15.84-9.75,52.5-9.75,52.5C48.14,91.67,51.45,71,51.45,71S29.83,95.29,28.08,103.21c-1.7,7.7,10.49,16.2,11.19,16.71-8.29-1.78-12.65-8.65-14.15-11.57v0c-.41-.8-.61-1.31-.61-1.31a26.37,26.37,0,0,0,.88,4.94l0,0c2.28,7.92,7.67,10,7.67,10a29.42,29.42,0,0,1-12.11-1l0,0s-.1,0-.21-.06A44.29,44.29,0,0,1,9.93,116a8,8,0,0,1-1.09-.69L7.31,130.61s-7-19.18-7.3-38.5v0A44.31,44.31,0,0,1,1.62,78.37c6.21-20.44,22.89-29,45.49-41.17,2.67-1.45,5.14-2.92,7.46-4.35v0l2.31-1.48c6.12-4,11.14-7.81,16-11l3.31-2,.24-.16,0,0a38.93,38.93,0,0,1,22.28-5.55,29.63,29.63,0,0,1,5.26.75h0a4.54,4.54,0,0,1,.5.12c1,.26,2,.57,2.92.93,16.51,6,27.94,25,27.94,25A98.29,98.29,0,0,0,115.2,0C137.76,16.48,141,45.86,141,45.86Z"/><path class="cls-4" d="M141,45.87s20.43-1.81,29.52,3.79C170.49,49.66,154.8,37.4,141,45.87Z"/><path class="cls-5" d="M135.62,49.66s-11.3-26.54-31-26.73S73.86,49.85,73.86,49.85,131.15,51.16,135.62,49.66Z"/><path class="cls-6" d="M9.93,116a100.05,100.05,0,0,0,10.81,4.81A44.29,44.29,0,0,1,9.93,116Z"/><path class="cls-7" d="M8.84,115.32,7.31,130.61s-7-19.18-7.3-38.5v0C6.25,78,29.81,63.45,37.48,54.67,45,46.11,54.12,33.47,54.57,32.85v0l2.31-1.48s-2.37,5.83-16.54,22S11,73.45,6.64,87.07,6.06,113.29,8.84,115.32Z"/><path class="cls-8" d="M33.08,122a29.42,29.42,0,0,1-12.11-1l0,0c-.68-.6-16-14.34-13.33-26,2.72-12,41.69-27.53,49.21-41.11S72.92,20.39,72.92,20.39l3.31-2,.24-.16c-5.88,4.59-8.22,19.14-17.81,36.27S29.57,84.15,25.1,94.33C20.87,104,25,111.27,25.39,112l0,0C27.69,119.9,33.08,122,33.08,122Z"/><path class="cls-9" d="M104.57,13.52a19.67,19.67,0,0,1,3.08,1,.62.62,0,0,1-.16,0c-8.89-2-24.29,16.2-33.63,29.68A230.54,230.54,0,0,1,51.45,71S29.83,95.29,28.08,103.21c-1.7,7.7,10.49,16.2,11.19,16.71-8.29-1.78-12.65-8.65-14.15-11.57v0a42.7,42.7,0,0,1,.68-8.52c1.3-7.22,40.91-49.39,52-65.78,10.88-16.14,25.85-20.49,26.3-20.63h0A4.54,4.54,0,0,1,104.57,13.52Z"/><path class="cls-10" d="M108.82,15a3.55,3.55,0,0,0-1-.4C108.27,14.71,108.62,14.87,108.82,15Z"/><path class="cls-11" d="M178.08,82.45c0,1.49-.12,3-.22,4.61a49.52,49.52,0,0,1-14.09-12.68c-6.66-8.83-12.18-12.88-12.18-12.88l-.29-.28h0l-6.09-5.87a3.42,3.42,0,0,1,.29.25c2.31,1.92,14.5,12.2,21.88,19.27C174,81.25,177.16,82.28,178.08,82.45Z"/><path class="cls-12" d="M176.46,99.91c-.21,1.48-.43,3-.66,4.42a56,56,0,0,1-13.1-20.61l-.91-3.31-1.39-5.07,0,0C161.08,76.71,171.05,96.7,176.46,99.91Z"/><path class="cls-13" d="M62.92,52.88S74.2,41.1,78.22,33.35c0,0-2.8,2.81-5,3.31A8.37,8.37,0,0,1,68.5,36s-9.16,17.14-8.08,16.87A7.25,7.25,0,0,1,62.92,52.88Z"/><path class="cls-13" d="M56.88,51.28a60.2,60.2,0,0,0-14,0s8.8-9.32,11.4-14.62c0,0,7.18-.34,10.91-2.63C65.19,34,60.06,46.32,56.88,51.28Z"/><path class="cls-13" d="M34.49,44.1s3.13,4.41,5,4.54S50,36.66,50,36.66,39.15,42.61,34.49,44.1Z"/></g></g></g></svg>