<svg xmlns="http://www.w3.org/2000/svg" xmlns:xlink="http://www.w3.org/1999/xlink" viewBox="0 0 242.49 291.36"><defs><style>.cls-1{isolation:isolate;}.cls-2{fill:url(#Áåçûìÿííûé_ãðàäèåíò_42);}.cls-3{fill:#a93651;}.cls-4{fill:url(#Áåçûìÿííûé_ãðàäèåíò_42-2);}.cls-5{fill:url(#Áåçûìÿííûé_ãðàäèåíò_121);}.cls-6{fill:url(#Áåçûìÿííûé_ãðàäèåíò_121-2);}.cls-7{fill:url(#Áåçûìÿííûé_ãðàäèåíò_121-3);}.cls-8{fill:#681642;}.cls-9{fill:#ae4151;}.cls-10{fill:#d177b8;mix-blend-mode:multiply;opacity:0.6;}.cls-11{fill:url(#Áåçûìÿííûé_ãðàäèåíò_30);}.cls-12{fill:url(#Áåçûìÿííûé_ãðàäèåíò_30-2);}.cls-13{fill:none;}</style><linearGradient id="Áåçûìÿííûé_ãðàäèåíò_42" x1="33.19" y1="104.99" x2="33.19" y2="39.68" gradientUnits="userSpaceOnUse"><stop offset="0" stop-color="#77254b"/><stop offset="1" stop-color="#8e2542"/></linearGradient><linearGradient id="Áåçûìÿííûé_ãðàäèåíò_42-2" x1="209.09" y1="97.81" x2="209.09" y2="37.06" xlink:href="#Áåçûìÿííûé_ãðàäèåíò_42"/><linearGradient id="Áåçûìÿííûé_ãðàäèåíò_121" x1="120.39" y1="184.93" x2="120.39" y2="57.15" gradientUnits="userSpaceOnUse"><stop offset="0" stop-color="#92314b"/><stop offset="1" stop-color="#9a2542"/></linearGradient><linearGradient id="Áåçûìÿííûé_ãðàäèåíò_121-2" x1="29.63" y1="291.36" x2="29.63" y2="175.8" xlink:href="#Áåçûìÿííûé_ãðàäèåíò_121"/><linearGradient id="Áåçûìÿííûé_ãðàäèåíò_121-3" x1="208.32" y1="286.14" x2="208.32" y2="183.06" xlink:href="#Áåçûìÿííûé_ãðàäèåíò_121"/><linearGradient id="Áåçûìÿííûé_ãðàäèåíò_30" x1="194.15" y1="97.74" x2="194.15" y2="65.15" gradientUnits="userSpaceOnUse"><stop offset="0" stop-color="#ffaed8"/><stop offset="1" stop-color="#ffc5e0"/></linearGradient><linearGradient id="Áåçûìÿííûé_ãðàäèåíò_30-2" x1="46.13" y1="104.68" x2="46.13" y2="65.32" xlink:href="#Áåçûìÿííûé_ãðàäèåíò_30"/></defs><g class="cls-1"><g id="Layer_2" data-name="Layer 2"><g id="Layer_1-2" data-name="Layer 1"><path class="cls-2" d="M63.92,65.32S59,40.25,35.49,39.68,13.3,72.93,13.3,72.93l4.14-2.71S15.82,47.43,28.9,44.62s23.77,4.93,23.77,4.93-33-12.4-45.05,5.77-2.22,53.34,21,49.36S63.92,65.32,63.92,65.32Z"/><path class="cls-3" d="M2.49,75.66s27.74-28.33,55.9-8.37l2.33-.88S34.24,44.17,3,67.79Z"/><path class="cls-3" d="M6.52,57.15s31.75-17.36,55.37,2l-2.26-4.56s-11.06-13.74-52,.77Z"/><path class="cls-3" d="M13.4,100.84s-.6-37,41.19-32l-1.46.77s-39.2-2.49-36.61,33.23Z"/><path class="cls-4" d="M178.16,67.29S181.47,35.17,208,37.15s19.79,40.72,19.79,40.72,1.53-31.14-14.23-37.06-24.27,4.65-24.27,4.65,16.79-11,38.37,1.69,14.56,52.62-17.82,50.59Z"/><path class="cls-5" d="M200.82,184.93s-4.52-30-5.13-47.17-11.73-32.55-21-41.43a48.5,48.5,0,0,0-6.34-5l-.52-.34a2.83,2.83,0,0,1-.32-.22l-.11-.07a75.7,75.7,0,0,0-15.85-7.72S95,80.55,75.83,88.16a33.14,33.14,0,0,0-8.2,4.71h0c-12.48,9.73-16.45,26.62-19,35-3.08,9.93,1.37,21.35-10.9,52.64a214.57,214.57,0,0,1-9.14-37.31c-2.5-18.09-2.21-48.75,9.1-62.58l0,0a20,20,0,0,1,1.8-2C57.69,61,100.75,57.15,121.16,57.15s44.43-.36,70.7,14.39a33.3,33.3,0,0,1,12.07,12.27C218.31,107.77,216,153.87,200.82,184.93Z"/><path class="cls-6" d="M37.67,180.46S31.52,217.45,22,246s17.25,45.38,17.25,45.38-20-19.88-15.12-44.74S39.4,193.69,39.27,175.8Z"/><path class="cls-7" d="M200.81,184.92s3,10.41,9.39,45.77-6.38,55.45-6.38,55.45,12.58-15,12-38.68-10.66-47-14.13-64.4Z"/><path class="cls-8" d="M112.53,83S105.74,70.6,100.7,68.88,64.85,93,76.67,143c0,0-1.62-46,23-64.71a25.28,25.28,0,0,1,7.07,4.92S111.88,83.51,112.53,83Z"/><path class="cls-3" d="M167.39,90.66s21.44-.17,32.22-12.79l4.59,6.4S199.8,97,174.67,96.33Z"/><path class="cls-3" d="M161.23,87.11s12-12.66,25.43-18.31l-3.21-1.51s-12.07,4.61-23.57,19.15Z"/><path class="cls-3" d="M71.62,90.2a112.44,112.44,0,0,1-19.88-20l-1.92,1s4,13.14,20.69,19.63Z"/><path class="cls-3" d="M52.67,115.08S38.9,112.43,31.33,92.86l-2.43,10s8.26,18.69,20.46,22.34Z"/><path class="cls-3" d="M130,82.59s23.82-20,43.3-19.3l2.28.79s-19.9-.94-42.43,18.51Z"/><path class="cls-3" d="M54.59,68.88s29.48,1.85,47.88,14.65l1.67-.12s-13.42-14.36-47-15.62Z"/><path class="cls-9" d="M76.67,143s.5-46.81,28.74-70.43l-9.55-9.89S62.91,82.8,76.67,143Z"/><path class="cls-10" d="M67.61,92.87c-12.48,9.73-16.45,26.62-19,35-3.08,9.93,1.37,21.35-10.9,52.64a214.57,214.57,0,0,1-9.14-37.31c-2.5-18.09-2.21-48.75,9.1-62.58l0,0s8.27,17.68,12.91,19.1S66.91,93.32,67.61,92.87Z"/><path class="cls-10" d="M200.82,184.93s-4.52-30-5.13-47.17-11.73-32.55-21-41.43a48.5,48.5,0,0,0-6.34-5,51.46,51.46,0,0,0,21.9,7.36C203.81,99.92,203,82.58,203,82.58l.94,1.23C218.31,107.77,216,153.87,200.82,184.93Z"/><path class="cls-3" d="M202.28,41.29S236.2,63.43,224,95.52l2.66-1.31s10.59-37.37-22.43-52.92Z"/><path class="cls-3" d="M198,42s19.46,14.74,17.22,55.65l3-.41s.35-43-18.77-55.24Z"/><path class="cls-3" d="M229.9,48.67s8,24.09-1.16,44.19c0,0,4.93-2.59,8.51-10.27,0,0,2.93-13.77.66-23.48C237.91,59.11,233.92,51.16,229.9,48.67Z"/><path class="cls-11" d="M178.48,65.18s27.74-2.24,31.34,32.56C209.82,97.74,205.41,71.93,178.48,65.18Z"/><path class="cls-12" d="M63.92,65.32s-26.6,6.49-35.32,39.36C28.6,104.68,23,72.82,63.92,65.32Z"/><rect class="cls-13" width="242.49" height="192.58"/></g></g></g></svg>