<svg xmlns="http://www.w3.org/2000/svg" xmlns:xlink="http://www.w3.org/1999/xlink" viewBox="0 0 242.49 197.37"><defs><style>.cls-1{isolation:isolate;}.cls-2{fill:url(#Áåçûìÿííûé_ãðàäèåíò_100);}.cls-3{fill:url(#Áåçûìÿííûé_ãðàäèåíò_53);}.cls-4{fill:url(#Áåçûìÿííûé_ãðàäèåíò_100-2);}.cls-10,.cls-5{fill:#ffd9bb;mix-blend-mode:soft-light;}.cls-5{opacity:0.5;}.cls-6{fill:url(#Áåçûìÿííûé_ãðàäèåíò_59);}.cls-7{fill:#d177b8;mix-blend-mode:multiply;opacity:0.6;}.cls-8{fill:url(#Áåçûìÿííûé_ãðàäèåíò_59-2);}.cls-9{fill:url(#Áåçûìÿííûé_ãðàäèåíò_59-3);}.cls-11{fill:none;}</style><linearGradient id="Áåçûìÿííûé_ãðàäèåíò_100" x1="112.49" y1="19.33" x2="112.49" gradientUnits="userSpaceOnUse"><stop offset="0" stop-color="#db6a4b"/><stop offset="1" stop-color="#b63651"/></linearGradient><linearGradient id="Áåçûìÿííûé_ãðàäèåíò_53" x1="122.52" y1="46.09" x2="122.52" y2="5.41" gradientUnits="userSpaceOnUse"><stop offset="0" stop-color="#b63651"/><stop offset="1" stop-color="#db6a4b"/></linearGradient><linearGradient id="Áåçûìÿííûé_ãðàäèåíò_100-2" x1="121.25" y1="196.3" x2="121.25" y2="37.17" xlink:href="#Áåçûìÿííûé_ãðàäèåíò_100"/><linearGradient id="Áåçûìÿííûé_ãðàäèåíò_59" x1="91.4" y1="197.37" x2="91.4" y2="57.3" gradientUnits="userSpaceOnUse"><stop offset="0" stop-color="#d23651"/><stop offset="1" stop-color="#ff7a4b"/></linearGradient><linearGradient id="Áåçûìÿííûé_ãðàäèåíò_59-2" x1="180.27" y1="155.28" x2="180.27" y2="78.47" xlink:href="#Áåçûìÿííûé_ãðàäèåíò_59"/><linearGradient id="Áåçûìÿííûé_ãðàäèåíò_59-3" x1="86.89" y1="149.08" x2="86.89" y2="69.99" xlink:href="#Áåçûìÿííûé_ãðàäèåíò_59"/></defs><g class="cls-1"><g id="Layer_2" data-name="Layer 2"><g id="Layer_1-2" data-name="Layer 1"><path class="cls-2" d="M101.65,19.33s-8.24-12.2,1.89-18,22.95,9,22.95,9Z"/><path class="cls-3" d="M86.84,46.09s-21.28-9-9.42-23.33c0,0,3.09,20,14,21.4,0,0-10.6-16.36,14.62-31.86s36.39,0,36.39,0,24.81,5.29,10.18,31.09c0,0,26.82-35.36,1.81-38,0,0,37.11,1.63,1.08,39.19Z"/><path class="cls-4" d="M209.58,158.45s-1.75-12.79-5.26-27.54a204.62,204.62,0,0,1,0,24.79s0-.16-.05-.42c-.87-5.13-10.19-56.8-48.77-76.81l-.06,0,2.6-2.07-8.69-4.76L150.57,78l-5.89-3.62.42,2.9-.09,0a.81.81,0,0,0-.11,0,.42.42,0,0,0-.19-.08c-3.34-1-26.93-7.4-51.72,3.55a77.52,77.52,0,0,0-35.59,31.4s0,0,0,0A88.75,88.75,0,0,0,45.6,150.46c-2.32,27.67.78,41.92,1.85,45.84a267.91,267.91,0,0,1-9.12-37.22.11.11,0,0,0,0-.07c-.48-2.92-.92-5.87-1.27-8.83l-2.55,10s-14.25-30-10.12-55.29,58.08-67.71,99.19-67.71,85.89,42.77,93.55,61.75C223.74,115.39,209.58,158.45,209.58,158.45Z"/><path class="cls-5" d="M204.78,132.91s14.32-10.84,12.32-34l-1.79-3.7a40.42,40.42,0,0,1-11.39,34Z"/><path class="cls-5" d="M201,114.06s6.35-19.55,2.93-34.85L191.05,67.54s4,14.12-1.14,28.67C189.91,96.21,198.76,108.46,201,114.06Z"/><path class="cls-5" d="M172,53.41s8.38,16.56,8.66,33.93l-1.52-1.21s-1.26-20.65-11.6-35.41Z"/><path class="cls-5" d="M81.63,80.31s2.84-23.59,20-39.7L98,41.75S84.32,55.23,80.6,81.41Z"/><path class="cls-5" d="M77.42,50.72s-5.51,12.64-2.34,35.65L71.5,90.8s-8.6-16.08-6.78-32.44Z"/><path class="cls-5" d="M34.49,85.3s-1,20.64,22.13,22.3v2.07S33.55,113.9,30.51,90.8Z"/><path class="cls-5" d="M23.63,114.06s-.36,12.42,25.82,8.84l-3,8s-14.32,1.78-22.8-8.41Z"/><path class="cls-6" d="M145.1,77.32l-.09,0a.81.81,0,0,0-.11,0c-3.32-.72-41.62-24.95-75.85,8-9.66,9.32-15.23,35.18-18.43,49-.24.91-.44,1.81-.62,2.7s-.32,1.66-.5,2.47-.3,1.72-.46,2.6a4,4,0,0,0-.08.5v0c-4.58,27-1.36,53.29-1.18,54.81a.12.12,0,0,1,0-.08s0-.07,0-.11a146.51,146.51,0,0,1-9.38-38.1.11.11,0,0,0,0-.07C32.24,98.09,73.79,61.5,99.62,57.83A46.37,46.37,0,0,1,145.1,77.32Z"/><path class="cls-7" d="M145,77.3a.81.81,0,0,0-.11,0c-3.32-.72-47.26-9.42-76.15,20.28-9.36,9.62-15.49,22.81-18.13,36.7,2-10.27,3.52-20.16,3.52-20.19,7.09-18.5,13.3-33.31,32.8-40.78,25.61-9.81,53.66,2.45,57.77,3.91Z"/><path class="cls-7" d="M204.25,155.28c-.87-5.13-10.19-56.8-48.77-76.81,1.4.4,23.72,7,34.42,23.13C200.26,117.25,203.84,151.09,204.25,155.28Z"/><path class="cls-5" d="M92.91,43.57s15.52-35.89,49.5-31.27l-2-2.09s-43.53-2.76-49,33.95Z"/><path class="cls-5" d="M103.28,40.14s19.16-31.27,46.47-24.63l1.53,1.11s-27.23-8.16-44.85,22.71Z"/><path class="cls-5" d="M125.79,37.21s11.37-16.9,31-12.12l.35,2.27s-8.91-5-29.86,9.81Z"/><path class="cls-8" d="M155.48,78.47s24.76,1.35,39.23,19.16,9.54,57.65,9.54,57.65S206.84,95.22,155.48,78.47Z"/><path class="cls-9" d="M125.79,70.08s-32.69-2.44-52,17.85S49,142.52,49,142.52l-1,6.56s8.56-43.71,25.82-58.28C98.49,70,125.79,70.08,125.79,70.08Z"/><path class="cls-10" d="M73.6,70s7.71-6,13.52-8.3c0,0,2.75,9.24,4,9.54l-12.32,6S78.8,71.34,73.6,70Z"/><path class="cls-10" d="M125.79,19.77s5-1.41,8.55,0a12.27,12.27,0,0,1,5.38,4.47s7.23-1.81,9.71-1.5c0,0-6.11-6-13.84-6.37A35.66,35.66,0,0,0,125.79,19.77Z"/><path class="cls-10" d="M123.08,14.16a15.26,15.26,0,0,0,3.41,2.76c1.27.51,7.92-2,7.92-2s-.76-2-4.06-2.13A22.21,22.21,0,0,0,123.08,14.16Z"/><rect class="cls-11" y="2.4" width="242.49" height="192.58"/></g></g></g></svg>