<svg xmlns="http://www.w3.org/2000/svg" xmlns:xlink="http://www.w3.org/1999/xlink" viewBox="0 0 192.43 115.06"><defs><style>.cls-1{isolation:isolate;}.cls-2{fill:url(#_185);}.cls-10,.cls-3,.cls-4,.cls-5,.cls-6,.cls-7,.cls-8,.cls-9{mix-blend-mode:multiply;}.cls-3{fill:url(#_48);}.cls-4{fill:url(#_48-2);}.cls-5{fill:url(#_48-3);}.cls-6{fill:url(#_48-4);}.cls-7{fill:url(#_48-5);}.cls-8{fill:url(#_48-6);}.cls-9{fill:url(#_48-7);}.cls-10{fill:#a83a71;}.cls-11{fill:#ffd7ff;opacity:0.5;mix-blend-mode:soft-light;}</style><linearGradient id="_185" x1="96.21" y1="4.78" x2="96.21" y2="112.31" gradientUnits="userSpaceOnUse"><stop offset="0" stop-color="#850e3b"/><stop offset="1" stop-color="#39002e"/></linearGradient><linearGradient id="_48" x1="11.67" y1="116.62" x2="11.67" y2="0.15" gradientUnits="userSpaceOnUse"><stop offset="0" stop-color="#8780e9"/><stop offset="1" stop-color="#fff"/></linearGradient><linearGradient id="_48-2" x1="12.66" y1="116.62" x2="12.66" y2="0.15" xlink:href="#_48"/><linearGradient id="_48-3" x1="33.87" y1="99.96" x2="33.87" y2="19.27" xlink:href="#_48"/><linearGradient id="_48-4" x1="183.05" y1="116.62" x2="183.05" y2="0.15" xlink:href="#_48"/><linearGradient id="_48-5" x1="171.19" y1="117.39" x2="171.19" y2="-0.14" xlink:href="#_48"/><linearGradient id="_48-6" x1="148.51" y1="116.62" x2="148.51" y2="0.15" xlink:href="#_48"/><linearGradient id="_48-7" x1="91.8" y1="101.9" x2="91.8" y2="-14.57" xlink:href="#_48"/></defs><g class="cls-1"><g id="Layer_2" data-name="Layer 2"><g id="Avatar_face" data-name="Avatar face"><path class="cls-2" d="M186.12,101.9c-2.35,4.39-7,11.12-8.57,9.28s-3.87-12-3.87-14.88c0-.46,0-1,.09-1.63A89.26,89.26,0,0,1,176.33,81l-.13.31,0,.08c-.77,1.82-3,2.25-7.24,1.2S157.24,67.93,156.3,62v-.05a5.06,5.06,0,0,1,0-1.72C157.07,55.9,160,39.1,160,39.1h0c-.38.27-7.65,5.56-11.85,7.43s-18-5.76-18-7.44.23-15.6.23-15.6h0c-.2.45-4.93,11.08-9.15,13.43l-.25.12c-4.69,2.23-21.5.74-22.93-1.32-1.84-2.64-5.91-12.55-5.91-12.55a73.38,73.38,0,0,1-3.23,8.39,23,23,0,0,1-3.79,6.08c-3.78,3.84-20.22,6.48-25.34,3.12s-8.62-14.64-8.62-14.64A113.14,113.14,0,0,0,50.8,41.9c0,1,0,2,0,2.79h0a12.81,12.81,0,0,1-.28,3C49.72,50.32,39,60.22,34.18,62.14s-13.49-7.37-14-7.9l0,0a113.73,113.73,0,0,1,5.16,21,5.37,5.37,0,0,1,0,.69C25,80.73,19,91.84,15.89,90.12a1.38,1.38,0,0,1-.47-.38,55.1,55.1,0,0,1,5.84,8.11c.65,1.08,1,1.75,1,1.75,1.62,2.17-2.36,14.46-5.86,15.42s-12.67-13.76-14-16.16C1.22,96.78.06,89.52,1.15,85.73h0a4.7,4.7,0,0,1,.69-1.51,3.81,3.81,0,0,1,5-1.2C4.65,77.26-.94,64.06.14,61.9,1.07,60,4.55,51.23,8.1,49a3,3,0,0,1,1.58-.53,26.18,26.18,0,0,1,7.53,1.23h0l.16.05s-.44-17.6.1-19.52S30.66,16.44,35.24,16c3.23-.35,7.68,1.16,10,2.08h0l1.44.6.11.05,6.28-2.3s0-.08.07-.24c.35-1.13,1.94-6,4-8.5a6.75,6.75,0,0,1,.68-.72C60.59,4.54,77.57-1.22,83.5.23a11,11,0,0,1,3.27,1.39A10.74,10.74,0,0,1,91,6.94a38.28,38.28,0,0,1,4.68-.15S97.45,2.28,100.23,1A3.69,3.69,0,0,1,101,.7c3.23-.72,25.33,1,27.75,3.84s3.51,8,3.51,8l4.58,1s4.16-3.22,12-3.46c3.54-.11,7.45,2.15,10.71,4.94,3.94,3.36,6.93,7.52,7.23,9.22.54,3.12-1.62,9.36-1.62,9.36s5.31-3,9.92-1.92a7.42,7.42,0,0,1,1.35.46c4.85,2.16,9.75,12.5,9.7,16.34S183.59,68,183.59,68a2.92,2.92,0,0,1,3.44.71h0c3.46,3.24,5.34,13.3,5.38,15.41C192.56,91.34,191.74,91.37,186.12,101.9Z"/><path class="cls-3" d="M22.26,99.6c1.62,2.17-2.36,14.46-5.86,15.42s-12.67-13.76-14-16.16C1.22,96.78.06,89.52,1.15,85.73h0c3.3,8.49,19.15,20.71,20.11,12.12C21.91,98.93,22.26,99.6,22.26,99.6Z"/><path class="cls-4" d="M25.32,75.9C25,80.73,19,91.84,15.89,90.12l-.47-.38S12,88.14,6.86,83C4.65,77.26-.94,64.06.14,61.9,1.07,60,4.55,51.23,8.1,49c.19.41,9.84,21.42,12,24.75A4.42,4.42,0,0,0,25.32,75.9Z"/><path class="cls-5" d="M50.53,47.68C49.72,50.32,39,60.22,34.18,62.14s-13.49-7.37-14-7.9l0,0c-1.11-1.56-2.09-3-3-4.53l.16.05s-.44-17.6.1-19.52C17.48,30.22,28.25,53.3,50.53,47.68Z"/><path class="cls-6" d="M186.12,101.9c-2.35,4.39-7,11.12-8.57,9.28s-3.87-12-3.87-14.88c0-.46,0-1,.09-1.63h0c3.49,1.41,16.44-16.77,13.26-25.94,3.46,3.24,5.34,13.3,5.38,15.41C192.56,91.34,191.74,91.37,186.12,101.9Z"/><path class="cls-7" d="M186.12,48.46C186.06,52.3,183.59,68,183.59,68L176.33,81l-.13.31,0,.08c-.77,1.82-3,2.25-7.24,1.2S157.24,67.93,156.3,62v-.05c0-1.08,0-1.72,0-1.72s4,13.1,10.6,9.42,6.38-14.85,8.21-38a7.42,7.42,0,0,1,1.35.46C181.27,34.28,186.17,44.62,186.12,48.46Z"/><path class="cls-8" d="M165.15,33.58,160,39.1h0c-.38.27-7.65,5.56-11.85,7.43s-18-5.76-18-7.44c5.62.4,10.77.47,13.7-1.44,7.75-5,16.08-17.73,15.68-22.66,3.94,3.36,6.93,7.52,7.23,9.22C167.31,27.34,165.15,33.58,165.15,33.58Z"/><path class="cls-9" d="M136.86,13.52a84.37,84.37,0,0,1-6.47,10h0c-.26.38-4.3,10.39-9.4,13.55-4.69,2.23-21.5.74-22.93-1.32-1.84-2.64-5.91-12.55-5.91-12.55a73.38,73.38,0,0,1-3.23,8.39,23,23,0,0,1-3.79,6.08c-3.78,3.84-20.22,6.48-25.34,3.12s-8.62-14.16-8.62-14.16A106.44,106.44,0,0,0,50.8,41.9c0,1,0,2,0,2.79-1.09-20.87-4.07-26-4.07-26S50,17.54,50,17.54l3.1-1.14s0-.08.07-.24c.35-1.13,1.94-6,4-8.5.07.4,6.67,24.26,9.17,26.81S72.45,32,76.22,28.3,86.77,1.62,86.77,1.62A10.74,10.74,0,0,1,91,6.94a38.28,38.28,0,0,1,4.68-.15S97.45,2.28,100.23,1c0,0,3.55,25,5.47,28.63,1.09,2.06,3.48,5.29,8.25.62,7.55-7.39,14.64-21.44,14.82-25.68,2.43,2.88,3.51,8,3.51,8Z"/><path class="cls-10" d="M99.46,36.56a3.08,3.08,0,0,1-1.41-.82c-1.84-2.64-5.91-12.55-5.91-12.55a73.38,73.38,0,0,1-3.23,8.39,23,23,0,0,1-3.79,6.08S90,15.58,88.83,3.34A10.32,10.32,0,0,1,91,6.94a38.28,38.28,0,0,1,4.68-.15,16.73,16.73,0,0,1,1.9-3.45C95,14.38,99.46,36.56,99.46,36.56Z"/><path class="cls-10" d="M61.88,41.68a7.68,7.68,0,0,1-2.1-.9c-5.12-3.36-8.62-14.64-8.62-14.64A113.14,113.14,0,0,0,50.8,41.9c0,1,0,2,0,2.79h0a12.81,12.81,0,0,1-.28,3,188.76,188.76,0,0,0-3.79-29l.11.05,6.28-2.3s0-.08.07-.24c.18-.56.64-2,1.31-3.59C55.21,20.15,61.88,41.68,61.88,41.68Z"/><path class="cls-10" d="M20.17,54.22a113.73,113.73,0,0,1,5.16,21S21,56.62,12.66,48.67a26.41,26.41,0,0,1,4.55,1h0l.16.05s-.12-4.62-.16-9.38c2.72,12.21,15.23,20.82,15.23,20.82l.48,1.2c-4.86.15-12.29-7.65-12.74-8.14Z"/><path class="cls-10" d="M22.26,99.6s-11.67-9.42-18.2-17a4.08,4.08,0,0,1,2.8.38c-1.23-3.21-3.52-8.74-5.11-13.37,9,11.93,11.24,19.23,16.72,19.78-.95.78-1.85,1.1-2.58.69a1.38,1.38,0,0,1-.47-.38,55.1,55.1,0,0,1,5.84,8.11C21.91,98.93,22.26,99.6,22.26,99.6Z"/><path class="cls-10" d="M130.17,37.53c.06-4.09.22-14,.22-14h0c-.2.45-4.93,11.08-9.15,13.43l-.25.12S131.26,22.32,131,8.58a27.76,27.76,0,0,1,1.24,4l4.58,1a15.67,15.67,0,0,1,3.9-2C136.41,17.92,130.48,35.37,130.17,37.53Z"/><path class="cls-10" d="M173.68,31.46C164,38.83,156.5,59.56,156.26,60.2c.81-4.33,3.77-21.1,3.77-21.1h0a116.79,116.79,0,0,1-9.8,6.4h0s12-11.68,16.64-20.08a33,33,0,0,1-1.71,8.16S169.46,31.15,173.68,31.46Z"/><path class="cls-10" d="M186.92,68.63a20.46,20.46,0,0,1-1.52,2.72c-4.82,7.14-9.88,20.74-11.67,25.78,0-.32,0-.6,0-.83,0-.46,0-1,.09-1.63A89.26,89.26,0,0,1,176.33,81l-.13.31,0,.07C175.7,82.44,174.7,83,173,83.1c6.31-10.43,12.37-30.23,12.37-30.23l.38-.47c-.69,6-2.19,15.62-2.19,15.62A2.89,2.89,0,0,1,186.92,68.63Z"/><path class="cls-11" d="M19.38,33.55c5.94-2.63,19.2-13,19.2-13A24.06,24.06,0,0,0,42,32.78s-12.64.69-17.71,7Z"/><path class="cls-11" d="M58.83,13.39S70,12.57,85.12,7L83,13.39s-1.66-.44-11,1a26.2,26.2,0,0,0-11.32,5.11Z"/><path class="cls-11" d="M101,6s14.27,4.1,26.33,3.59l-4.14,8.26s-1.37-4.19-9-5.92-11.72,3-11.72,3Z"/><path class="cls-11" d="M139.53,13.57s8.51,7.77,17.68,8.67c0,0-2.25,6.39-7,9.42,0,0-6.12-11.24-13.07-13.3Z"/></g></g></g></svg>