<svg xmlns="http://www.w3.org/2000/svg" xmlns:xlink="http://www.w3.org/1999/xlink" viewBox="0 0 220.32 197.11"><defs><style>.cls-1{isolation:isolate;}.cls-2{fill:url(#_770);}.cls-3,.cls-4{fill:#a83a71;}.cls-3{opacity:0.8;}.cls-3,.cls-4,.cls-5{mix-blend-mode:multiply;}.cls-5{fill:url(#_48);}.cls-6{fill:#ffd7ff;opacity:0.5;mix-blend-mode:soft-light;}</style><linearGradient id="_770" x1="110.16" y1="-16.32" x2="110.16" y2="201.47" gradientUnits="userSpaceOnUse"><stop offset="0" stop-color="#6a1424"/><stop offset="1" stop-color="#2e002c"/></linearGradient><linearGradient id="_48" x1="110.48" y1="74.39" x2="110.48" y2="204.3" gradientUnits="userSpaceOnUse"><stop offset="0" stop-color="#8780e9"/><stop offset="1" stop-color="#fff"/></linearGradient></defs><g class="cls-1"><g id="Avatar_face" data-name="Avatar face"><path class="cls-2" d="M213.15,126.66c-1.14,9.65-7.26-.83-7.26-.83-.67,14.62-8.87,17.1-8.87,17.1a15.74,15.74,0,0,1,8.86,13.51c.46,9.93-14.31,10.4-14.31,10.4s4.77,17.46-2,20.5-6.59-4.86-6.59-4.86c-8.18,5.07-5-6.73-5-6.73-3.18-3.2,3.64-15.17,3.64-15.17-4.47-.31-4.32-11.31-4.32-11.31-1.15,5.14-8.63,2.67-8.63,2.67s-1.65,7.22-6.82,6.85-4.31-24.69-4.31-24.69c-5-1.65-1.65-27.64-1.65-27.64s-3.41,3.51-5.79,1.44-.42-11.8-.35-12.19c-.07.23-1.43,3.93-9,4.13s-9.1-14.9-9-15.1c-6.47,4.34-14.14-1-14.14-1s-1.7,8.48-4.77,8.48-13.8-11.79-13.8-11.79a16.28,16.28,0,0,1-12.27,1.86c.74.42-3.46,16.69-8.8,15.59-5.14-1.06-6.38-3.53-6.47-3.71,0,.28.83,6.34-1.94,18.19-2.84,12.13-10.33,8.27-10.33,8.27s3,12.28,2.15,17.51a39.48,39.48,0,0,1-3,9.8s.23,11.58-3.61,10.5-4.11-5.27-4.46-6.46-1.36,4.09-6.36,7.4S39.12,154,39.12,154a6,6,0,0,1-6.47,4.28s2.43,13.31.24,18.33c-5,11.46-11.83-5.72-11.83-5.72-5.68-1-4.2-10.27-4.2-10.27S15.72,162.93,12,160,6.29,142.38,8.9,135.76c2.43-6.13,4-1.37,4.19-.64a.66.66,0,0,0,0,.09s-.34-4-.8-9.38,2.5-15.72,2.5-15.72S9.24,105.7,8,99.77,6.07,75.91,10.61,74.94s6,6.71,6.13,7.16v0a105.56,105.56,0,0,1,3-11.45h0c1-3.08,2.26-6,3.61-7.58C27.08,58.67,35.2,48.33,35.2,48.33s-1-1.24-1.87-6.83,9.54-17.16,13.8-19.44c3-1.61,7.41,3.12,9.71,6,.94,1.19,1.54,2.07,1.54,2.07,0-1.43,1.64-3.51,3.88-5.67A110,110,0,0,1,74.9,14.61a14.51,14.51,0,0,1-1.13-9.1c1.08-5,6.38-6.82,12-4.55s3.87,5,3.79,5.17C100.81,1,116.65,8.51,116.65,8.51s-.43-1.9,4-4.31c4.28-2.31,7.65-.69,11.65,3.42l.07.08c.74.77,1.51,1.63,2.31,2.57,5,5.88.85,8.21.69,8.3h0c7.67-1.83,23.32,5.56,23.32,5.56s.2-3.72,7.18-5.38,16,8.69,18.35,14.89-3.69,5.8-3.69,5.8c15.5,4.13,12.27,20.06,12.27,20.06,6,3.25,6.89,7.88,7,10a6.82,6.82,0,0,1,0,1.16s9.77,4.41,10.23,10.21-5.68,5-5.68,5c1.74,4.38,1.75,10,1.45,13.89-.2,2.72-.54,4.59-.54,4.59S214.29,117,213.15,126.66Z"/><path class="cls-3" d="M157.89,32c-.67,4.22,2.05,8.44,2.2,8.68-.19-.12-5-3-6.46,0,0,0-6-17.79-10.74-18.83s-9.54,2.07-9.54,2.07.63-2.49-2.93-2.28c0,0,0-1.59,5-3.07,7.67-1.83,23.32,5.56,23.32,5.56,2.79,3.74,7.72,5.24,8.17,5.37C166.31,29.38,158.54,27.81,157.89,32Z"/><path class="cls-4" d="M213.15,126.66c-1.14,9.65-7.26-.83-7.26-.83-.67,14.62-8.87,17.1-8.87,17.1a15.74,15.74,0,0,1,8.86,13.51c.46,9.93-14.31,10.4-14.31,10.4s4.77,17.46-2,20.5-6.59-4.86-6.59-4.86c-8.18,5.07-5-6.73-5-6.73-3.18-3.2,3.64-15.17,3.64-15.17-4.47-.31-4.32-11.31-4.32-11.31-1.15,5.14-8.63,2.67-8.63,2.67s-1.65,7.22-6.82,6.85-4.31-24.69-4.31-24.69c-5-1.65-1.65-27.64-1.65-27.64s-3.41,3.51-5.79,1.44-.34-12.2-.34-12.2-1.2,3.93-9,4.14-9.1-14.9-9-15.1c-6.47,4.34-14.14-1-14.14-1s-1.7,8.48-4.77,8.48-13.8-11.79-13.8-11.79a16.28,16.28,0,0,1-12.27,1.86c.74.42-3.46,16.69-8.8,15.59-5.14-1.06-6.38-3.53-6.47-3.71,0,.28.83,6.34-1.94,18.19-2.84,12.13-10.33,8.27-10.33,8.27s3,12.28,2.15,17.51a39.48,39.48,0,0,1-3,9.8s.23,11.58-3.61,10.5-4.11-5.27-4.46-6.46-1.36,4.09-6.36,7.4S39.12,154,39.12,154a6,6,0,0,1-6.47,4.28s2.43,13.31.24,18.33c-5,11.46-11.83-5.72-11.83-5.72-5.68-1-4.2-10.27-4.2-10.27S15.72,162.93,12,160,6.29,142.38,8.9,135.76s4.21-.55,4.21-.55-.34-4-.8-9.38,2.5-15.72,2.5-15.72S9.24,105.7,8,99.77,6.07,75.91,10.61,74.94s6,6.71,6.13,7.16v0c2.62,6.75,23.07-4.5,23.07-4.5s-4.24,8.77,6.2,6.56C59.1,81.43,58,67.91,58,67.91s3.22,11,8.18,12.41C74,82.6,102.56,67.87,104.31,59.5a7.34,7.34,0,0,0-3.13-7.86s11.77,6.06,34.72,0c0,0-4,3.89,0,9.65s16.35,5.81,17.27.28a19.37,19.37,0,0,0,12.27,13.49s-8.51-.25-4.06,9.4S200,85,199.74,70.67c0,0,9.77,4.41,10.23,10.21s-5.68,5-5.68,5c3,7.45.91,18.48.91,18.48S214.29,117,213.15,126.66Z"/><path class="cls-5" d="M213.15,126.66c-1.14,9.65-7.26-.83-7.26-.83-.67,14.62-8.87,17.1-8.87,17.1a15.74,15.74,0,0,1,8.86,13.51c.46,9.93-14.31,10.4-14.31,10.4s4.77,17.46-2,20.5-6.59-4.86-6.59-4.86c-8.18,5.07-5-6.73-5-6.73-3.18-3.2,3.64-15.17,3.64-15.17-4.47-.31-4.32-11.31-4.32-11.31-1.15,5.14-8.63,2.67-8.63,2.67s-1.65,7.22-6.82,6.85-4.31-24.69-4.31-24.69c-5-1.65-1.65-27.64-1.65-27.64s-3.41,3.51-5.79,1.44-.42-11.8-.35-12.19c-.07.23-1.43,3.93-9,4.13s-9.1-14.9-9-15.1c-6.47,4.34-14.14-1-14.14-1s-1.7,8.48-4.77,8.48-13.8-11.79-13.8-11.79a16.28,16.28,0,0,1-12.27,1.86c.74.42-3.46,16.69-8.8,15.59-5.14-1.06-6.38-3.53-6.47-3.71,0,.28.83,6.34-1.94,18.19-2.84,12.13-10.33,8.27-10.33,8.27s3,12.28,2.15,17.51a39.48,39.48,0,0,1-3,9.8s.23,11.58-3.61,10.5-4.11-5.27-4.46-6.46-1.36,4.09-6.36,7.4S39.12,154,39.12,154a6,6,0,0,1-6.47,4.28s2.43,13.31.24,18.33c-5,11.46-11.83-5.72-11.83-5.72-5.68-1-4.2-10.27-4.2-10.27S15.72,162.93,12,160,6.29,142.38,8.9,135.76c2.43-6.13,4-1.37,4.19-.64a.66.66,0,0,0,0,.09c1,9.93,6.42,0,6.42,0s1.36,5.84,5.94,2.22c-.26.23-3.55,3.19.87,4,4.6.83,7-9.3,7-9.3s2.72,4.55,7.84,3.1c0,0-4.68,4.76,1.75,4.76s1.31-14.28,1.31-14.28,4.34,3.11,7.2-2.89,0-16.14,0-16.14,3.2,6.62,9.5,3.11,7.74-19.66,7.74-19.66,3.17,2.58,6.4,2.64S78.31,80,78.31,80s1.19,4.34,7.5-1.45c0,0-.17,3.31,4.77,1.86s9.54-10.88,9.54-10.88,2,11.92,6.31,12.74,1.58-16,1.58-16S114.09,73,118,69a15.56,15.56,0,0,0,4.09-9.53s-.34,9,5.11,8.11c5.23-.83,6.7-6,6.81-6.43-.14.77-2.81,15.4,5.53,16.71-1-.14-8.74-1.07-6,4.16,2.9,5.58,9.88-1.66,9.88-1.66s-2,5.59,2.22,7.86c3.91,2.09,5.2-1.19,5.39-1.75-.26,1-2.56,10.15,5.49,12.11-.4,0-5.52-.63-3.56,2.71s8.18,2.45,8.18,2.45-3.92,6.2-.85,8.89c1.21,1.06,2.71.74,4.08,0-3.74,3.83-8.22,10.19-4,15.77,4.85,6.41,9.59.08,11.74-3.67-1.3,3-2.76,8,.74,10.49,5.16,3.72,9.08-10.34,9.08-10.34s1,6.62,7,3.72c0,0-5.46,8.27-.68,9.93s16.16-4.76,11.57-11.17c0,0,3.91-5.79,0-9.72,0,0,7.73-2.63,5.41-13.31C205.2,104.32,214.29,117,213.15,126.66Z"/><path class="cls-6" d="M85.25,47.82s5,1.75.76,4.5-12.54.62-12.54.62c-13.42,5.92-18.31,3.41-17.3-4,0,0-8.84-6.37,4.52-10.53,3.38-1.06,2.33,3,2.28,3.12,6.79-3.12,9.16-1.12,9.16-1.12s2.3-13.52,5-15,23.82-16.83,25-1.61l-6.75,4.08C126.36,33.3,85.25,47.82,85.25,47.82Z"/></g></g></svg>