<svg xmlns="http://www.w3.org/2000/svg" xmlns:xlink="http://www.w3.org/1999/xlink" viewBox="0 0 601.34 612.03"><defs><style>.cls-1{isolation:isolate;}.cls-2{fill:url(#Áåçûìÿííûé_ãðàäèåíò_85);}.cls-10,.cls-15,.cls-16,.cls-17,.cls-3,.cls-4,.cls-8{mix-blend-mode:multiply;}.cls-3{fill:url(#Áåçûìÿííûé_ãðàäèåíò_62);}.cls-15,.cls-4{fill:#d177b8;}.cls-4{opacity:0.6;}.cls-5{fill:#7a81f4;}.cls-6{fill:url(#Áåçûìÿííûé_ãðàäèåíò_94);}.cls-7{fill:url(#Áåçûìÿííûé_ãðàäèåíò_85-2);}.cls-8{fill:url(#Áåçûìÿííûé_ãðàäèåíò_62-2);}.cls-9{fill:url(#Áåçûìÿííûé_ãðàäèåíò_94-2);}.cls-10{fill:url(#Áåçûìÿííûé_ãðàäèåíò_62-3);}.cls-11{fill:url(#Áåçûìÿííûé_ãðàäèåíò_100);}.cls-12{fill:url(#Áåçûìÿííûé_ãðàäèåíò_100-2);}.cls-13{fill:url(#Áåçûìÿííûé_ãðàäèåíò_100-3);}.cls-14{fill:url(#Áåçûìÿííûé_ãðàäèåíò_100-4);}.cls-16{fill:url(#Áåçûìÿííûé_ãðàäèåíò_62-4);}.cls-17{fill:url(#Áåçûìÿííûé_ãðàäèåíò_62-5);}.cls-18{fill:#ffd9bb;mix-blend-mode:soft-light;}.cls-19{fill:none;}</style><linearGradient id="Áåçûìÿííûé_ãðàäèåíò_85" x1="3800.06" y1="612.03" x2="3800.06" y2="50.92" gradientTransform="matrix(-1, 0, 0, 1, 3895.87, 0)" gradientUnits="userSpaceOnUse"><stop offset="0" stop-color="#9259d1"/><stop offset="1" stop-color="#9a2542"/></linearGradient><linearGradient id="Áåçûìÿííûé_ãðàäèåíò_62" x1="3805.2" y1="609.91" x2="3805.2" y2="76.6" gradientTransform="matrix(-1, 0, 0, 1, 3895.87, 0)" gradientUnits="userSpaceOnUse"><stop offset="0.01" stop-color="#d177f4"/><stop offset="1" stop-color="#ffeadb"/></linearGradient><linearGradient id="Áåçûìÿííûé_ãðàäèåíò_94" x1="43.5" y1="596.56" x2="43.5" y2="316.43" gradientUnits="userSpaceOnUse"><stop offset="0" stop-color="#9281ef"/><stop offset="1" stop-color="#9a2542"/></linearGradient><linearGradient id="Áåçûìÿííûé_ãðàäèåíò_85-2" x1="514.96" y1="612.03" x2="514.96" y2="45" gradientTransform="matrix(1, 0, 0, 1, 0, 0)" xlink:href="#Áåçûìÿííûé_ãðàäèåíò_85"/><linearGradient id="Áåçûìÿííûé_ãðàäèåíò_62-2" x1="520.1" y1="609.91" x2="520.1" y2="76.6" gradientTransform="matrix(1, 0, 0, 1, 0, 0)" xlink:href="#Áåçûìÿííûé_ãðàäèåíò_62"/><linearGradient id="Áåçûìÿííûé_ãðàäèåíò_94-2" x1="579.06" y1="412.13" x2="579.06" y2="94.72" xlink:href="#Áåçûìÿííûé_ãðàäèåíò_94"/><linearGradient id="Áåçûìÿííûé_ãðàäèåíò_62-3" x1="550.16" y1="605.05" x2="550.16" y2="370.84" gradientTransform="matrix(1, 0, 0, 1, 0, 0)" xlink:href="#Áåçûìÿííûé_ãðàäèåíò_62"/><linearGradient id="Áåçûìÿííûé_ãðàäèåíò_100" x1="174.78" y1="445.47" x2="174.78" y2="444.61" gradientUnits="userSpaceOnUse"><stop offset="0" stop-color="#db6a4b"/><stop offset="1" stop-color="#b63651"/></linearGradient><linearGradient id="Áåçûìÿííûé_ãðàäèåíò_100-2" x1="292.84" y1="465.91" x2="292.84" y2="71.63" xlink:href="#Áåçûìÿííûé_ãðàäèåíò_100"/><linearGradient id="Áåçûìÿííûé_ãðàäèåíò_100-3" x1="397.77" y1="382.01" x2="397.77" y2="94.41" xlink:href="#Áåçûìÿííûé_ãðàäèåíò_100"/><linearGradient id="Áåçûìÿííûé_ãðàäèåíò_100-4" x1="230.76" y1="274.65" x2="230.76" y2="85.32" xlink:href="#Áåçûìÿííûé_ãðàäèåíò_100"/><linearGradient id="Áåçûìÿííûé_ãðàäèåíò_62-4" x1="430.62" y1="345.05" x2="430.62" y2="102.1" gradientTransform="matrix(1, 0, 0, 1, 0, 0)" xlink:href="#Áåçûìÿííûé_ãðàäèåíò_62"/><linearGradient id="Áåçûìÿííûé_ãðàäèåíò_62-5" x1="142.6" y1="286.98" x2="142.6" y2="120.14" gradientTransform="matrix(1, 0, 0, 1, 0, 0)" xlink:href="#Áåçûìÿííûé_ãðàäèåíò_62"/></defs><g class="cls-1"><g id="Layer_2" data-name="Layer 2"><g id="Layer_1-2" data-name="Layer 1"><path class="cls-2" d="M27.26,330.2c1.35-9.59,2.71-19.63,4-30V300c.52-4.28,1-8.61,1.57-13,4.41-37.41,8.31-77.85,11.89-113.64l0-.24c0-.16,0-.45.09-.78.13-1.67.31-3.34.48-5l1.4-13.88s0-.45.13-1.3c0-.41.09-.82.13-1.23l.27-2.32a.08.08,0,0,1,0-.13c.08-.69.13-1.34.21-2s.18-1.51.27-2.36C51.91,104,55.63,74.23,59.26,69c1.57-2.25,4.76-3.84,9-4.86h0c2.67-5,11.42-16.39,27.55-12.39,18.8,4.61,70.6,38.67,70.6,38.67l-20,19.18-3.89,3.75s-27.5-7.22-35.76,6.78,4.94,76.46,21.51,154.52,22.38,166.6,21.77,240.46c-.53,61.41-34.32,87.73-45.69,94.79,9.45-7.22,15.57-26.65,16-28a73.06,73.06,0,0,1-24.48,20.77l0,0c-1.61.85-3.23,1.63-4.85,2.32a81.12,81.12,0,0,1-31.39,7s18.19-.78,17.36-32c-.57-21.1-29.33-82.43-43.72-150.36a1.21,1.21,0,0,0-.08-.33,389.66,389.66,0,0,1-6.52-41.5c-.61-6.2-1.05-12.44-1.27-18.65V368.1A218.4,218.4,0,0,1,27.26,330.2Z"/><path class="cls-3" d="M120.33,581.92c-.39,1.34-6.51,20.77-16,28,11.37-7.06,45.16-33.38,45.69-94.79.61-73.86-5.21-162.4-21.77-240.46S98.47,134.17,106.78,120.14s35.76-6.78,35.76-6.78l3.89-3.75L146,102.1S90.6,75.45,72,76.64c-14.56.9-21.82,47.21-24.26,67.45-.09.85-.18,1.63-.27,2.36s-.13,1.31-.21,2a.08.08,0,0,0,0,.13L47,150.9c0,.41-.08.82-.13,1.23-.08.85-.13,1.3-.13,1.3l-1.4,13.88-.57,5.79c0-.16,0-.45.09-.78,1.49-9.87,13.73-88.91,28.5-89.4a68.68,68.68,0,0,1,27.07,4.45S88,84.47,67.26,143.76,38.84,261.4,50.43,309.14s43,81.73,74.88,156.77-4.94,115.92-4.94,115.92,5-60.67-40.13-147.26S32.81,287,32.81,287c-.53,4.41-1.05,8.74-1.57,13v.16c0,3.1,1,49.25,24.56,100,24.44,52.6,76.42,130.13,48.57,197.29A73.32,73.32,0,0,0,120.33,581.92Z"/><path class="cls-4" d="M146,102.1S110.54,82.24,95.81,87.36,53.53,191.13,53.53,191.13s28.93-38.86,51.29-43.76c0,0-2.76-25,9.94-31.7s27.78-2.31,27.78-2.31Z"/><path class="cls-5" d="M175.27,89.4s-34.14-13.89-32.69,30.74A92,92,0,0,1,175.27,89.4Z"/><path class="cls-6" d="M29.15,316.43S7,374.67.4,435.36,72.5,562.15,79.52,576.07s0,20.49,0,20.49,12.32-5,5.32-25.68S4.12,489.48,5.37,433.43,25.33,369.16,29.15,316.43Z"/><path class="cls-7" d="M583.51,330.2c-1.36-9.59-2.71-19.63-4-30V300c-.53-4.28-1-8.61-1.58-13-4.41-37.41-8.3-77.85-11.89-113.64l0-.24a6.62,6.62,0,0,0-.09-.78c-.13-1.67-.3-3.34-.48-5l-1.4-13.88s0-.45-.13-1.3c0-.41-.09-.82-.13-1.23-.09-.77-.17-1.55-.26-2.32a.09.09,0,0,0,0-.13c-.09-.69-.13-1.34-.22-2s-.18-1.51-.26-2.36C558.85,104,555.13,74.23,551.51,69c-1.58-2.25-4.77-3.84-9-4.86h0c-2.67-5-13.51-22.56-29.64-18.56-18.8,4.61-68.5,44.84-68.5,44.84l20,19.18,3.89,3.75s27.49-7.22,35.76,6.78-4.94,76.46-21.51,154.52-22.38,166.6-21.77,240.46c.52,61.41,34.31,87.73,45.68,94.79-9.44-7.22-15.56-26.65-16-28a72.91,72.91,0,0,0,24.49,20.77l0,0c1.62.85,3.23,1.63,4.85,2.32a81.12,81.12,0,0,0,31.39,7s-18.19-.78-17.36-32c.57-21.1,29.34-82.43,43.72-150.36a1,1,0,0,1,.09-.33,389.63,389.63,0,0,0,6.51-41.5c.61-6.2,1.05-12.44,1.27-18.65V368.1A218.4,218.4,0,0,0,583.51,330.2ZM515.88,52c11.76.57,17.4,7.31,19.58,10.9-19.89-2.25-50,2.24-50,2.24S499.75,51.22,515.88,52Z"/><path class="cls-8" d="M490.43,581.92c.4,1.34,6.52,20.77,16,28-11.37-7.06-45.16-33.38-45.68-94.79-.61-73.86,5.2-162.4,21.77-240.46S512.29,134.17,504,120.14s-35.76-6.78-35.76-6.78l-3.89-3.75.48-7.51s55.34-26.65,74-25.46c14.56.9,21.82,47.21,24.27,67.45.08.85.17,1.63.26,2.36s.13,1.31.22,2a.09.09,0,0,1,0,.13c.09.77.17,1.55.26,2.32,0,.41.09.82.13,1.23.09.85.13,1.3.13,1.3l1.4,13.88.57,5.79a6.62,6.62,0,0,0-.09-.78c-1.48-9.87-13.72-88.91-28.5-89.4a68.6,68.6,0,0,0-27.06,4.45s12.41-2.9,33.14,56.39,28.41,117.64,16.83,165.38-43,81.73-74.89,156.77,4.94,115.92,4.94,115.92-5-60.67,40.13-147.26S578,287,578,287c.53,4.41,1,8.74,1.58,13v.16c0,3.1-1,49.25-24.57,100-24.44,52.6-76.42,130.13-48.57,197.29A73.32,73.32,0,0,1,490.43,581.92Z"/><path class="cls-4" d="M464.82,102.1S500.23,82.24,515,87.36s42.28,103.77,42.28,103.77-28.94-38.86-51.3-43.76c0,0,2.76-25-9.94-31.7s-27.77-2.31-27.77-2.31Z"/><path class="cls-5" d="M435.49,89.4s34.14-13.89,32.69,30.74A91.86,91.86,0,0,0,435.49,89.4Z"/><path class="cls-9" d="M557.24,94.72s18,78.16,37.88,143.49-14.25,173.92-14.25,173.92h0s26.55-93.31,14.67-153.43-37.25-124.48-38.3-142.64S557.24,94.72,557.24,94.72Z"/><path class="cls-10" d="M585.47,370.84c0,7.5-.7,29.78-7.82,58.47a1,1,0,0,0-.09.33,275.43,275.43,0,0,1-11.85,36.27c-21.42,52.64-54.64,106.46-45.9,139.14-1.62-.69-3.23-1.47-4.85-2.32,0,0-3.89-64.51,34.62-124.46,23.83-37,31.92-70.42,34.58-90.46A144.34,144.34,0,0,0,585.47,370.84Z"/><path class="cls-11" d="M171.92,444.61c2.62.49,4.59.74,5.72.86A24,24,0,0,1,171.92,444.61Z"/><path class="cls-12" d="M447.11,465.91s28.72-40,27.06-100.5a203,203,0,0,0-1.75-21.3c-6.73-52.6-30.38-103-26.71-165.09,2.84-47.83-33.35-68.31-69.2-76.92a.17.17,0,0,0-.13,0c-33.79-8.08-67.24-5.63-67.24-5.63s-42.84-5.1-85.11,8.4-39.87,44.64-46.47,79.41-18.32,98.83-55.09,136.33C88,355.7,135.06,434.7,171.52,444.53c-13.42-2.49-42.44-11.1-59.71-39.7-23-38.16-8.22-73.37,14.42-98.55s22.69-84,22.69-84L128.29,287S102.58,184.36,130,128.09c4.85-10,11.41-18.56,20.11-24.81,57.4-41.21,113.57-30.36,155.54-30.36s115.28-8.81,155.19,36.57c.88,1,1.75,2,2.54,3.14C499.75,160.9,478.5,293.1,479.2,331.79c0,1.75.13,3.55.22,5.46C482,378.47,503.07,454.28,447.11,465.91Z"/><path class="cls-13" d="M316.19,94.41s78.44,6.16,101.67,29,25.65,105.53,42.85,134.91S491.26,316.9,493,339.1,482.21,382,482.21,382s6.43-38.86-2.45-67.94-48.64-75.47-53.61-126.89-14.29-60.17-42.8-75.63c-16.2-8.79-81-15.67-81-15.67Z"/><path class="cls-14" d="M309.16,96.44S303,82.68,251.65,85.77s-50.8,50.41-66.27,92.78-24.64,74.54-24.64,74.54l-8.38,21.56a846.36,846.36,0,0,0,41.86-109.24C212.63,104.76,273.4,91.14,309.16,96.44Z"/><path class="cls-15" d="M309.16,96.44s-34.8-11.7-64.41-4.93-44.93,59.38-44.93,59.38S223.62,89.4,309.16,96.44Z"/><path class="cls-16" d="M479.2,331.79c0,1.75.13,3.55.22,5.46l-6.34,7.8-.66-.94c-6.73-52.6-30.38-103-26.71-165.09,2.84-47.83-33.35-68.31-69.2-76.92,4.2.33,50.4,4.57,66.49,31.87,16.83,28.6,20.33-21.34,20.33-21.34C499.75,160.9,478.5,293.1,479.2,331.79Z"/><path class="cls-17" d="M167.85,120.14s-13.2,55.12-18.93,102.13L128.29,287S102.58,184.36,130,128.09C135.59,129.44,149.4,130.87,167.85,120.14Z"/><path class="cls-18" d="M388,99.43s36.21,11.37,46.27,24c0,0-6.92-9.94-6.3-13.42s4.4-5.41,7.48-10.63-3.93-12.07-3.93-12.07l-6.46-2.94s2.7,2.26.84,8.44S419.29,100,412.16,101,388,99.43,388,99.43Z"/><path class="cls-18" d="M185.81,83.69s.13,8.78,5.37,12.91,23.64,5.5,23.64,5.5,8.29-8.55,18.55-12.7c0,0-16.92,3.72-28.24,1s-11-9.73-11-9.73Z"/><rect class="cls-19" x="161.45" width="242.49" height="192.58"/></g></g></g></svg>