<svg xmlns="http://www.w3.org/2000/svg" xmlns:xlink="http://www.w3.org/1999/xlink" viewBox="0 0 278.37 281.22"><defs><style>.cls-1{isolation:isolate;}.cls-2{fill:url(#Áåçûìÿííûé_ãðàäèåíò_85);}.cls-10,.cls-15,.cls-16,.cls-17,.cls-3,.cls-4,.cls-8{mix-blend-mode:multiply;}.cls-3{fill:url(#Áåçûìÿííûé_ãðàäèåíò_77);}.cls-15,.cls-4{fill:#d177b8;}.cls-4{opacity:0.6;}.cls-5{fill:#7a81f4;}.cls-6{fill:url(#Áåçûìÿííûé_ãðàäèåíò_94);}.cls-7{fill:url(#Áåçûìÿííûé_ãðàäèåíò_85-2);}.cls-8{fill:url(#Áåçûìÿííûé_ãðàäèåíò_77-2);}.cls-9{fill:url(#Áåçûìÿííûé_ãðàäèåíò_94-2);}.cls-10{fill:url(#Áåçûìÿííûé_ãðàäèåíò_77-3);}.cls-11{fill:url(#Áåçûìÿííûé_ãðàäèåíò_100);}.cls-12{fill:url(#Áåçûìÿííûé_ãðàäèåíò_100-2);}.cls-13{fill:url(#Áåçûìÿííûé_ãðàäèåíò_100-3);}.cls-14{fill:url(#Áåçûìÿííûé_ãðàäèåíò_100-4);}.cls-16{fill:url(#Áåçûìÿííûé_ãðàäèåíò_77-4);}.cls-17{fill:url(#Áåçûìÿííûé_ãðàäèåíò_77-5);}.cls-18{fill:#ffd9bb;mix-blend-mode:soft-light;}</style><linearGradient id="Áåçûìÿííûé_ãðàäèåíò_85" x1="3481.15" y1="281.22" x2="3481.15" y2="2.94" gradientTransform="matrix(-1, 0, 0, 1, 3525.51, 0)" gradientUnits="userSpaceOnUse"><stop offset="0" stop-color="#9259d1"/><stop offset="1" stop-color="#9a2542"/></linearGradient><linearGradient id="Áåçûìÿííûé_ãðàäèåíò_77" x1="3483.53" y1="280.16" x2="3483.53" y2="15.67" gradientTransform="matrix(-1, 0, 0, 1, 3525.51, 0)" gradientUnits="userSpaceOnUse"><stop offset="0.01" stop-color="#d177f4"/><stop offset="1" stop-color="#ffeadb"/></linearGradient><linearGradient id="Áåçûìÿííûé_ãðàäèåíò_94" x1="20.13" y1="273.54" x2="20.13" y2="134.61" gradientUnits="userSpaceOnUse"><stop offset="0" stop-color="#9281ef"/><stop offset="1" stop-color="#9a2542"/></linearGradient><linearGradient id="Áåçûìÿííûé_ãðàäèåíò_85-2" x1="238.38" y1="281.22" x2="238.38" y2="0" gradientTransform="matrix(1, 0, 0, 1, 0, 0)" xlink:href="#Áåçûìÿííûé_ãðàäèåíò_85"/><linearGradient id="Áåçûìÿííûé_ãðàäèåíò_77-2" x1="240.76" y1="280.16" x2="240.76" y2="15.67" gradientTransform="matrix(1, 0, 0, 1, 0, 0)" xlink:href="#Áåçûìÿííûé_ãðàäèåíò_77"/><linearGradient id="Áåçûìÿííûé_ãðàäèåíò_94-2" x1="268.05" y1="182.07" x2="268.05" y2="24.66" xlink:href="#Áåçûìÿííûé_ãðàäèåíò_94"/><linearGradient id="Áåçûìÿííûé_ãðàäèåíò_77-3" x1="254.67" y1="277.76" x2="254.67" y2="161.6" gradientTransform="matrix(1, 0, 0, 1, 0, 0)" xlink:href="#Áåçûìÿííûé_ãðàäèåíò_77"/><linearGradient id="Áåçûìÿííûé_ãðàäèåíò_100" x1="80.91" y1="198.61" x2="80.91" y2="198.18" gradientUnits="userSpaceOnUse"><stop offset="0" stop-color="#db6a4b"/><stop offset="1" stop-color="#b63651"/></linearGradient><linearGradient id="Áåçûìÿííûé_ãðàäèåíò_100-2" x1="135.56" y1="208.75" x2="135.56" y2="13.21" xlink:href="#Áåçûìÿííûé_ãðàäèåíò_100"/><linearGradient id="Áåçûìÿííûé_ãðàäèåíò_100-3" x1="184.13" y1="167.14" x2="184.13" y2="24.5" xlink:href="#Áåçûìÿííûé_ãðàäèåíò_100"/><linearGradient id="Áåçûìÿííûé_ãðàäèåíò_100-4" x1="106.82" y1="113.9" x2="106.82" y2="20" xlink:href="#Áåçûìÿííûé_ãðàäèåíò_100"/><linearGradient id="Áåçûìÿííûé_ãðàäèåíò_77-4" x1="199.34" y1="148.81" x2="199.34" y2="28.32" gradientTransform="matrix(1, 0, 0, 1, 0, 0)" xlink:href="#Áåçûìÿííûé_ãðàäèåíò_77"/><linearGradient id="Áåçûìÿííûé_ãðàäèåíò_77-5" x1="66.01" y1="120.01" x2="66.01" y2="37.26" gradientTransform="matrix(1, 0, 0, 1, 0, 0)" xlink:href="#Áåçûìÿííûé_ãðàäèåíò_77"/></defs><g class="cls-1"><g id="Layer_2" data-name="Layer 2"><g id="layer1"><path class="cls-2" d="M12.62,141.44c.63-4.75,1.25-9.73,1.84-14.89v-.08c.24-2.13.48-4.27.73-6.46,2-18.56,3.84-38.61,5.5-56.36l0-.12c0-.08,0-.22,0-.38.06-.83.14-1.66.23-2.49l.64-6.88s0-.23.06-.65l.06-.61c0-.38.09-.77.13-1.15a0,0,0,0,1,0-.06c0-.35.06-.67.1-1s.08-.75.12-1.18C24,29.27,25.75,14.5,27.43,11.91A6.84,6.84,0,0,1,31.58,9.5h0C32.83,7,36.88,1.37,44.35,3.35,53.05,5.64,77,22.53,77,22.53L67.78,32,66,33.9s-12.73-3.58-16.55,3.36,2.28,37.93,10,76.64,10.37,82.63,10.08,119.25c-.24,30.46-15.88,43.51-21.14,47,4.37-3.58,7.2-13.21,7.38-13.88a34,34,0,0,1-11.33,10.3l0,0c-.75.43-1.5.81-2.25,1.16a35.46,35.46,0,0,1-14.53,3.46s8.42-.39,8-15.89c-.27-10.46-13.58-40.88-20.24-74.57a.62.62,0,0,0,0-.16,206.13,206.13,0,0,1-3-20.58c-.28-3.08-.48-6.18-.58-9.25v-.53A115.92,115.92,0,0,1,12.62,141.44Z"/><path class="cls-3" d="M55.7,266.28c-.18.67-3,10.3-7.38,13.88,5.26-3.5,20.9-16.55,21.14-47,.29-36.62-2.41-80.54-10.08-119.25s-13.8-69.68-10-76.64S66,33.9,66,33.9L67.78,32l-.22-3.72S41.94,15.1,33.32,15.69c-6.74.45-10.1,23.41-11.23,33.45,0,.43-.08.81-.12,1.18s-.06.64-.1,1a0,0,0,0,0,0,.06c0,.38-.09.77-.13,1.15l-.06.61c0,.42-.06.65-.06.65L21,60.66l-.27,2.87c0-.08,0-.22,0-.38.69-4.9,6.36-44.1,13.2-44.34A29.84,29.84,0,0,1,46.47,21s-5.74-1.43-15.34,28S18,107.32,23.34,131,43.24,171.53,58,208.75s-2.29,57.49-2.29,57.49,2.33-30.09-18.58-73-22-73.2-22-73.2c-.25,2.19-.49,4.33-.73,6.46v.08a139.86,139.86,0,0,0,11.37,49.6C37.14,202.23,61.21,240.68,48.32,274A34.78,34.78,0,0,0,55.7,266.28Z"/><path class="cls-4" d="M67.56,28.32S51.17,18.47,44.35,21,24.78,72.47,24.78,72.47,38.17,53.2,48.52,50.77c0,0-1.27-12.4,4.6-15.72S66,33.9,66,33.9Z"/><path class="cls-5" d="M81.13,22S65.33,15.13,66,37.26A44.36,44.36,0,0,1,81.13,22Z"/><path class="cls-6" d="M13.5,134.61S3.25,163.5.18,193.6s33.38,62.88,36.63,69.78,0,10.16,0,10.16,5.7-2.46,2.46-12.73S1.91,220.44,2.48,192.64,11.73,160.77,13.5,134.61Z"/><path class="cls-7" d="M270.11,141.44c-.63-4.75-1.25-9.73-1.84-14.89v-.08c-.24-2.13-.49-4.27-.73-6.46-2-18.56-3.85-38.61-5.5-56.36l0-.12a2.47,2.47,0,0,0,0-.38c-.06-.83-.14-1.66-.22-2.49l-.65-6.88s0-.23-.06-.65l-.06-.61-.12-1.15a0,0,0,0,0,0-.06c0-.35-.06-.67-.1-1s-.08-.75-.12-1.18C258.7,29.27,257,14.5,255.3,11.91a6.84,6.84,0,0,0-4.15-2.41h0C249.89,7,244.87-1.69,237.41.29c-8.7,2.29-31.71,22.24-31.71,22.24L215,32l1.8,1.86s12.72-3.58,16.55,3.36-2.29,37.93-10,76.64S213,196.53,213.27,233.15c.24,30.46,15.88,43.51,21.14,47-4.37-3.58-7.2-13.21-7.38-13.88a34.78,34.78,0,0,0,7.38,7.71,34.23,34.23,0,0,0,4,2.59l0,0c.75.43,1.5.81,2.25,1.16a35.46,35.46,0,0,0,14.53,3.46s-8.42-.39-8-15.89c.26-10.46,13.58-40.88,20.24-74.57a.62.62,0,0,1,0-.16,206.1,206.1,0,0,0,3-20.58c.29-3.08.49-6.18.59-9.25v-.53A115.92,115.92,0,0,0,270.11,141.44ZM238.8,3.49a10.67,10.67,0,0,1,9.07,5.4C238.66,7.78,224.72,10,224.72,10S231.34,3.08,238.8,3.49Z"/><path class="cls-8" d="M227,266.28c.18.67,3,10.3,7.38,13.88-5.26-3.5-20.9-16.55-21.14-47-.29-36.62,2.4-80.54,10.07-119.25s13.8-69.68,10-76.64-16.55-3.36-16.55-3.36L215,32l.22-3.72s25.62-13.22,34.24-12.63c6.74.45,10.1,23.41,11.23,33.45,0,.43.08.81.12,1.18s.06.64.1,1a0,0,0,0,1,0,.06l.12,1.15.06.61c0,.42.06.65.06.65l.65,6.88.27,2.87a2.47,2.47,0,0,0,0-.38c-.68-4.9-6.35-44.1-13.19-44.34A29.92,29.92,0,0,0,236.25,21s5.75-1.43,15.34,28,13.16,58.34,7.79,82-19.89,40.53-34.66,77.75S227,266.24,227,266.24s-2.33-30.09,18.57-73,22-73.2,22-73.2c.24,2.19.49,4.33.73,6.46v.08a140.11,140.11,0,0,1-11.37,49.6c-11.32,26.08-35.38,64.53-22.49,97.84A34.78,34.78,0,0,1,227,266.28Z"/><path class="cls-4" d="M215.17,28.32s16.39-9.85,23.21-7.31S258,72.47,258,72.47,244.56,53.2,234.2,50.77c0,0,1.28-12.4-4.6-15.72s-12.85-1.15-12.85-1.15Z"/><path class="cls-5" d="M201.59,22s15.81-6.89,15.14,15.24A44.34,44.34,0,0,0,201.59,22Z"/><path class="cls-9" d="M258,24.66s8.33,38.76,17.54,71.16-6.6,86.25-6.6,86.25h0s12.29-46.27,6.79-76.09S258.43,44.25,258,35.24,258,24.66,258,24.66Z"/><path class="cls-10" d="M271,161.6a133.58,133.58,0,0,1-3.62,29,.62.62,0,0,0,0,.16,144.93,144.93,0,0,1-5.49,18c-9.91,26.1-25.29,52.8-21.24,69-.75-.35-1.5-.73-2.25-1.16,0,0-1.8-32,16-61.72,11-18.37,14.77-34.93,16-44.86A76.28,76.28,0,0,0,271,161.6Z"/><path class="cls-11" d="M79.58,198.18c1.22.25,2.13.37,2.65.43A10.17,10.17,0,0,1,79.58,198.18Z"/><path class="cls-12" d="M207,208.75s13.3-19.81,12.53-49.84q-.15-5.35-.81-10.57c-3.12-26.08-14.07-51.06-12.37-81.88,1.32-23.71-15.44-33.87-32-38.14a.07.07,0,0,0-.06,0,107.67,107.67,0,0,0-31.13-2.79S123.27,23,103.7,29.67,85.25,51.81,82.19,69.05s-8.48,49-25.5,67.62c-15.94,17.42,5.83,56.6,22.71,61.47-6.21-1.23-19.65-5.5-27.64-19.69-10.67-18.92-3.81-36.38,6.67-48.87S68.94,87.92,68.94,87.92L59.39,120s-11.9-50.89.77-78.8a31.58,31.58,0,0,1,9.3-12.3C96,8.47,122,13.85,141.47,13.85S194.83,9.48,213.31,32c.4.51.81,1,1.17,1.56,16.86,23.94,7,89.51,7.35,108.69,0,.87.06,1.76.1,2.71C223.12,165.38,232.87,203,207,208.75Z"/><path class="cls-13" d="M146.37,24.5s36.31,3.06,47.06,14.38,11.87,52.34,19.84,66.91,14.14,29.06,15,40.07-5,21.28-5,21.28,3-19.27-1.14-33.7S199.57,96,197.27,70.52,190.65,40.67,177.46,33C170,28.65,140,25.23,140,25.23Z"/><path class="cls-14" d="M143.11,25.51s-2.85-6.82-26.62-5.29-23.52,25-30.67,46-11.41,37-11.41,37l-3.88,10.7A437.44,437.44,0,0,0,89.91,59.72C98.43,29.64,126.56,22.88,143.11,25.51Z"/><path class="cls-15" d="M143.11,25.51S127,19.71,113.3,23.07,92.5,52.52,92.5,52.52,103.52,22,143.11,25.51Z"/><path class="cls-16" d="M221.83,142.23c0,.87.06,1.76.1,2.71L219,148.81l-.3-.47c-3.12-26.08-14.07-51.06-12.37-81.88,1.32-23.71-15.44-33.87-32-38.14,1.94.16,23.33,2.26,30.78,15.8,7.79,14.19,9.41-10.58,9.41-10.58C231.34,57.48,221.5,123.05,221.83,142.23Z"/><path class="cls-17" d="M77.7,37.26S71.59,64.6,68.94,87.92L59.39,120s-11.9-50.89.77-78.8C62.77,41.88,69.16,42.59,77.7,37.26Z"/><path class="cls-18" d="M179.63,27s16.76,5.63,21.42,11.92c0,0-3.21-4.93-2.92-6.65s2-2.69,3.46-5.27-1.82-6-1.82-6l-3-1.46s1.25,1.12.39,4.19-3.08,3.54-6.38,4S179.63,27,179.63,27Z"/><path class="cls-18" d="M86,19.19s.06,4.35,2.49,6.4,10.94,2.73,10.94,2.73A29.06,29.06,0,0,1,108,22s-7.84,1.84-13.08.5-5.1-4.83-5.1-4.83Z"/></g></g></g></svg>