<svg xmlns="http://www.w3.org/2000/svg" xmlns:xlink="http://www.w3.org/1999/xlink" viewBox="0 0 241.94 232.78"><defs><style>.cls-1{isolation:isolate;}.cls-2{fill:url(#_770);}.cls-10,.cls-11,.cls-12,.cls-3,.cls-5,.cls-7,.cls-8,.cls-9{mix-blend-mode:multiply;}.cls-3{fill:url(#_48);}.cls-4{fill:url(#_770-2);}.cls-5{fill:url(#_48-2);}.cls-6{fill:url(#_770-3);}.cls-7{fill:url(#_48-3);}.cls-8{fill:url(#_48-4);}.cls-9{fill:url(#_48-5);}.cls-10{fill:url(#_48-6);}.cls-11{fill:url(#_48-7);}.cls-12{fill:url(#_48-8);}.cls-13{fill:#ffd7b9;mix-blend-mode:soft-light;}</style><linearGradient id="_770" x1="188.87" y1="152.8" x2="188.87" y2="260.55" gradientUnits="userSpaceOnUse"><stop offset="0" stop-color="#6a1424"/><stop offset="1" stop-color="#2e002c"/></linearGradient><linearGradient id="_48" x1="188.87" y1="166.46" x2="188.87" y2="230.2" gradientUnits="userSpaceOnUse"><stop offset="0" stop-color="#8780e9"/><stop offset="1" stop-color="#fff"/></linearGradient><linearGradient id="_770-2" x1="-4719.41" y1="152.8" x2="-4719.41" y2="260.55" gradientTransform="matrix(-1, 0, 0, 1, -4666.33, 0)" xlink:href="#_770"/><linearGradient id="_48-2" x1="-4719.41" y1="166.46" x2="-4719.41" y2="230.2" gradientTransform="matrix(-1, 0, 0, 1, -4666.33, 0)" xlink:href="#_48"/><linearGradient id="_770-3" x1="120.97" y1="-9.86" x2="120.97" y2="121.74" xlink:href="#_770"/><linearGradient id="_48-3" x1="202.4" y1="37.88" x2="37.78" y2="5.26" xlink:href="#_48"/><linearGradient id="_48-4" x1="196.64" y1="66.94" x2="32.02" y2="34.32" xlink:href="#_48"/><linearGradient id="_48-5" x1="130.39" y1="13.51" x2="94.45" y2="6.39" xlink:href="#_48"/><linearGradient id="_48-6" x1="151.33" y1="26.92" x2="72.45" y2="11.29" xlink:href="#_48"/><linearGradient id="_48-7" x1="67.54" y1="32.04" x2="50.23" y2="28.61" xlink:href="#_48"/><linearGradient id="_48-8" x1="59.88" y1="72.08" x2="30.33" y2="66.23" xlink:href="#_48"/></defs><g class="cls-1"><g id="Layer_2" data-name="Layer 2"><g id="Avatar_face" data-name="Avatar face"><path class="cls-2" d="M241.94,179h0c-.16,12.47-4.22,26.43-13.71,29.91,0,.12,0,16.52-23.25,21.06-20.16,3.94-28.27-4.29-28.27-4.29s-7.92,7.11-13,7.11c-11.44,0-29-9.05-27.47-18.35a23.51,23.51,0,0,1,8.62-14.34s-11.28-9.63-8.68-16.71,27.53-19.72,27.53-19.72-5.41-12.65,0-15.68,18-5.27,18-5.27,7.78-10.69,19.69-5.3c0,0,9.35-2.56,14.36,9a37.13,37.13,0,0,1,2.51,9.65s9.3-3.39,17.9,2.36C239.93,160.91,242.06,169.52,241.94,179Z"/><path class="cls-3" d="M241.94,179c-.16,12.47-4.22,26.43-13.71,29.91,0,.12,0,16.52-23.25,21.06-20.16,3.94-28.27-4.29-28.27-4.29s-7.92,7.11-13,7.11c-11.44,0-29-9.05-27.47-18.35a23.51,23.51,0,0,1,8.62-14.34s-11.28-9.63-8.68-16.71,27.53-19.72,27.53-19.72-5.41-12.65,0-15.68,18-5.27,18-5.27,7.78-10.69,19.69-5.3c0,0,9.35-2.56,14.36,9C204.52,155.73,186,185.74,187,193.5c0,0,2,15.51,10.11,17.87s21.79-21.25,21.79-21.25,5.19,7.42,9.91,7.42S241.62,179.68,241.94,179Z"/><path class="cls-4" d="M0,179H0c.17,12.47,4.23,26.43,13.71,29.91,0,.12,0,16.52,23.26,21.06,20.15,3.94,28.27-4.29,28.27-4.29s7.91,7.11,13,7.11c11.44,0,29-9.05,27.46-18.35a23.51,23.51,0,0,0-8.62-14.34s11.28-9.63,8.69-16.71-27.53-19.72-27.53-19.72,5.41-12.65,0-15.68-18.06-5.27-18.06-5.27S52.4,132,40.49,137.41c0,0-9.35-2.56-14.35,9a36.35,36.35,0,0,0-2.51,9.65s-9.31-3.39-17.9,2.36C2,160.91-.12,169.52,0,179Z"/><path class="cls-5" d="M0,179c.17,12.47,4.23,26.43,13.71,29.91,0,.12,0,16.52,23.26,21.06,20.15,3.94,28.27-4.29,28.27-4.29s7.91,7.11,13,7.11c11.44,0,29-9.05,27.46-18.35a23.51,23.51,0,0,0-8.62-14.34s11.28-9.63,8.69-16.71-27.53-19.72-27.53-19.72,5.41-12.65,0-15.68-18.06-5.27-18.06-5.27S52.4,132,40.49,137.41c0,0-9.35-2.56-14.35,9C37.42,155.73,56,185.74,55,193.5c0,0-2,15.51-10.11,17.87s-21.79-21.25-21.79-21.25-5.2,7.42-9.92,7.42S.32,179.68,0,179Z"/><path class="cls-6" d="M210.06,50.67a21.12,21.12,0,0,1-2.71,5.26c2.62,7.42,1.78,14.6,1.77,15.85,0,1.85-3,4.38-3,4.38,1.75,5.06,3.56,17,3.56,17l-6.2,3.94-4.23,16.55s-.94-12.84-1-25.66-8.76-32-8.76-32C151.12,36.37,96.84,40.08,96.84,40.08l3.37-6.74c-7.42,2-24.28,2.7-24.28,2.7l7.42-8.46c-5.64,2.3-15.23,7-15.53,7.1h0c1.32-5.4,6.44-10.12,6.44-10.12-9.78,3-8.6,17-8.6,17-5.73,0-11.89-2.85-11.89-2.85l7.62,5.06a47,47,0,0,0-7.87,1.27c5.31.75,10.87,4.3,10.87,4.3S49.21,64,47.59,72.11s-5.66,34.21-5.66,34.21L34.83,94C34.11,89.83,36,77.93,36,77.93c-4.08-7.32-5.32-19.47-3-23s5.23-2.87,5.23-2.87c-1.35-7.25,2.19-16.18,5.39-19.55a9,9,0,0,1,1.35-1.18h0a8.47,8.47,0,0,1,5.62-1.68,11.64,11.64,0,0,1,1.8-7.42,16,16,0,0,1,2.22-2.65c5.63-5.47,14.16-6.35,15.48-6.62,1.52-.31,4,1.18,4,1.18a31.38,31.38,0,0,1,16.86-11h0l.83-.2.08,0c.53-.12,1-.22,1.49-.29l.1,0c1.07-.19,1.92-.28,2.49-.35,5.6-.63,7,3,7,3C113.36.46,127.52-.38,129,.13s3.1,3.83,3.2,4h0A78.27,78.27,0,0,1,145.8,2.24c4.15-.14,6.13.43,6.84.83,2.35,1.33,2.77,2.68,2.7,3.58h0A2.28,2.28,0,0,1,155,7.72a58.3,58.3,0,0,1,9.29-.2c9.46.57,14,3.59,14.66,4.38.85,1,1.8,6.44,1.8,6.44a37.38,37.38,0,0,1,9.71,1.21h0c7.54,2.12,9.33,6.52,10.46,8.94.65,1.37.44,8.05.44,8.05C208.78,39.07,210.55,49,210.06,50.67Z"/><path class="cls-7" d="M180.75,18.34s-40.42-1-80.54,15c-7.42,2-24.28,2.7-24.28,2.7s27.9-9.7,50.92-14.5,41.14-7.31,45.26-8.85c2-.75-7.55-5-7.82-5.17,9.46.57,14,3.59,14.66,4.38C179.8,12.91,180.75,18.34,180.75,18.34Z"/><path class="cls-8" d="M210.06,50.67a21.12,21.12,0,0,1-2.71,5.26c2.62,7.42,1.78,14.6,1.77,15.85,0,1.85-3,4.38-3,4.38,1.75,5.06,3.56,17,3.56,17l-6.2,3.94-4.23,16.55s-.94-12.84-1-25.66-8.76-32-8.76-32C151.12,36.37,96.84,40.08,96.84,40.08c15.59-4.63,85.57,4,97.75,8,1.55.51,8.63,1.52,10.4,0,0,0-2-7.55-13.39-10.86s-42.75-6.59-57.17-6.08c0,0,28.83-5.11,50.58-3.57,21.5,1.53,5.81-7.82,5.45-8,7.54,2.12,9.33,6.52,10.46,8.94.65,1.37.44,8.05.44,8.05C208.78,39.07,210.55,49,210.06,50.67Z"/><path class="cls-9" d="M129,.13C126.71,3.7,93,18.53,92,19h0c.92-.3,26.53-8.7,40.27-14.82Z"/><path class="cls-10" d="M155.34,6.65h0L155,7.72C131.65,14,83.35,27.58,83.35,27.58c-5.64,2.3-15.23,7-15.53,7.1C68.18,34.26,89.7,9.37,93,6.49c2.84-2.51-3-2.93-2-3.41h0a3.51,3.51,0,0,1,.83-.2l.08,0H92c.35-.06.84-.15,1.42-.28l.1,0c1.07-.19,1.92-.28,2.49-.35,5.6-.63,7,3,7,3-9.89,5.87-18.63,15.39-23.33,21,1.44-1,2.76-1.95,3.77-2.63,4.55-3.07,58.92-16,63.22-17.49s-.77-3.87-.77-3.87c4.15-.14,6.13.43,6.84.83C155,4.4,155.41,5.75,155.34,6.65Z"/><path class="cls-11" d="M65.65,41.58s-9.26-7.4-15.12-11.95a11.64,11.64,0,0,1,1.8-7.42,16,16,0,0,1,2.22-2.65C53,27.36,65.65,41.58,65.65,41.58Z"/><path class="cls-12" d="M64.38,49.36S49.21,64,47.59,72.11s-5.66,34.21-5.66,34.21L34.83,94C34.11,89.83,36,77.93,36,77.93c-4.08-7.32-5.32-19.47-3-23s5.23-2.87,5.23-2.87c-1.35-7.25,2.19-16.18,5.39-19.55a9,9,0,0,1,1.35-1.18c-.16.33-3.71,8.22,0,10.26s16.47,2.21,16.47,2.21a47,47,0,0,0-7.87,1.27C58.82,45.81,64.38,49.36,64.38,49.36Z"/><path class="cls-13" d="M126.79,15.43s12.69-1.36,18.26,2.54l-16.71,3.26s-3.41-5.29-12.23-2.83Z"/><path class="cls-13" d="M133.52,23.4s8-1.7,14.2-2.54c0,0,10.15.37,12.68,7.1l-6.91.62S148.45,23.4,133.52,23.4Z"/><path class="cls-13" d="M163.29,32.67a16.94,16.94,0,0,1,11,11.52L168,43.3s-5.16-8.09-11.29-11.25Z"/><path class="cls-13" d="M113.18,14.76l-7.75,2A98.85,98.85,0,0,0,86.06,19l3.86-3.81S98.34,12.36,113.18,14.76Z"/><path class="cls-13" d="M83.81,16.4s-13.36,0-27.14,12.18l1.39,2.56S63.63,18.67,82,18.4Z"/></g></g></g></svg>