<svg xmlns="http://www.w3.org/2000/svg" xmlns:xlink="http://www.w3.org/1999/xlink" viewBox="0 0 272.82 204.95"><defs><style>.cls-1{isolation:isolate;}.cls-2{fill:url(#_770);}.cls-3,.cls-4{fill:#a83a71;}.cls-3{opacity:0.8;}.cls-3,.cls-4,.cls-5{mix-blend-mode:multiply;}.cls-5{fill:url(#_48);}.cls-6{fill:#ffd7ff;opacity:0.5;mix-blend-mode:soft-light;}</style><linearGradient id="_770" x1="136.41" y1="-17.79" x2="136.41" y2="219.6" gradientUnits="userSpaceOnUse"><stop offset="0" stop-color="#6a1424"/><stop offset="1" stop-color="#2e002c"/></linearGradient><linearGradient id="_48" x1="136.83" y1="81.09" x2="136.83" y2="222.68" gradientUnits="userSpaceOnUse"><stop offset="0" stop-color="#8780e9"/><stop offset="1" stop-color="#fff"/></linearGradient></defs><g class="cls-1"><g id="Layer_2" data-name="Layer 2"><g id="Avatar_face" data-name="Avatar face"><path class="cls-2" d="M272.69,138.05c-1.5,10.53-9.61-.9-9.61-.9-.89,15.94-11.74,18.64-11.74,18.64s11.13,3.91,11.73,14.73-18.94,11.34-18.94,11.34,6.31,19-2.71,22.33-8.71-5.29-8.71-5.29c-10.82,5.53-6.62-7.33-6.62-7.33-4.2-3.49,4.81-16.54,4.81-16.54-5.92-.34-5.71-12.32-5.71-12.32-1.52,5.59-11.42,2.9-11.42,2.9s-2.18,7.87-9,7.47S199,146.17,199,146.17c-6.61-1.8-2.18-30.13-2.18-30.13s-4.51,3.83-7.67,1.57-.55-12.87-.45-13.29c-.11.25-1.9,4.28-12,4.5s-12-16.24-11.95-16.45c-8.57,4.73-18.71-1.14-18.71-1.14s-2.26,9.25-6.31,9.25-18.27-12.85-18.27-12.85c-7.66,4.05-16.23,2-16.23,2,1,.45-4.59,18.18-11.65,17-6.8-1.16-8.44-3.84-8.56-4,0,.31,1.1,6.91-2.56,19.82-3.76,13.23-13.68,9-13.68,9s3.91,13.38,2.86,19.09a38.31,38.31,0,0,1-3.91,10.67s.3,12.63-4.78,11.45-5.44-5.74-5.89-7-1.81,4.46-8.42,8.07-6.32-5.86-6.32-5.86c-2.25,5.41-8.56,4.66-8.56,4.66s3.22,14.51.32,20c-6.64,12.49-15.66-6.23-15.66-6.23C11,185.18,13,175,13,175s-1.51,2.56-6.47-.6S-1,155.19,2.43,148c3.21-6.68,5.25-1.49,5.53-.69l0,.09S7.54,143,6.94,137.15,10.25,120,10.25,120s-7.37-4.81-9-11.28-2.56-26,3.46-27c5.83-1,8,7.3,8.11,7.79v0A99.11,99.11,0,0,1,16.75,77h0c1.36-3.36,3-6.53,4.77-8.27,5-4.81,15.71-16.08,15.71-16.08s-1.35-1.35-2.48-7.44S47.37,26.53,53,24.05c4-1.76,9.8,3.39,12.85,6.54,1.25,1.29,2,2.25,2,2.25,0-1.56,2.17-3.82,5.14-6.18,6.47-5.12,16.73-10.73,16.73-10.73A13.43,13.43,0,0,1,88.26,6c1.43-5.41,8.44-7.44,15.88-5,7.26,2.41,5.13,5.48,5,5.63C124,1.05,145,9.28,145,9.28s-.56-2.07,5.34-4.7c5.66-2.52,10.12-.76,15.4,3.73l.1.08c1,.84,2,1.78,3.06,2.8,6.63,6.41,1.13,9,.91,9h0c10.15-2,30.86,6.06,30.86,6.06s.26-4.06,9.5-5.86,21.19,9.47,24.27,16.23S229.55,43,229.55,43c20.52,4.51,16.23,21.87,16.23,21.87,7.92,3.54,9.13,8.59,9.23,10.92A6.15,6.15,0,0,1,255,77s12.93,4.81,13.53,11.12S261,93.57,261,93.57c2.3,4.77,2.31,10.9,1.92,15.13a43.89,43.89,0,0,1-.72,5S274.19,127.53,272.69,138.05Z"/><path class="cls-3" d="M199.56,34.87c-.87,4.6,2.72,9.2,2.93,9.46-.27-.13-6.57-3.3-8.56,0,0,0-7.89-19.39-14.21-20.52s-12.62,2.25-12.62,2.25.83-2.71-3.87-2.48c0,0,0-1.74,6.57-3.35,10.15-2,30.86,6.06,30.86,6.06,3.68,4.08,10.2,5.71,10.81,5.85C210.71,32,200.43,30.31,199.56,34.87Z"/><path class="cls-4" d="M272.69,138.05c-1.5,10.53-9.61-.9-9.61-.9-.89,15.94-11.74,18.64-11.74,18.64s11.13,3.91,11.73,14.73-18.94,11.34-18.94,11.34,6.31,19-2.71,22.33-8.71-5.29-8.71-5.29c-10.82,5.53-6.62-7.33-6.62-7.33-4.2-3.49,4.81-16.54,4.81-16.54-5.92-.34-5.71-12.32-5.71-12.32-1.52,5.59-11.42,2.9-11.42,2.9s-2.18,7.87-9,7.47S199,146.17,199,146.17c-6.61-1.8-2.18-30.13-2.18-30.13s-4.51,3.83-7.67,1.57-.45-13.3-.45-13.3-1.58,4.28-12,4.51c-10.17.22-12-16.24-11.95-16.45-8.57,4.73-18.71-1.14-18.71-1.14s-2.26,9.25-6.31,9.25-18.27-12.85-18.27-12.85c-7.66,4.05-16.23,2-16.23,2,1,.45-4.59,18.18-11.65,17-6.8-1.16-8.44-3.84-8.56-4,0,.31,1.1,6.91-2.56,19.82-3.76,13.23-13.68,9-13.68,9s3.91,13.38,2.86,19.09a38.31,38.31,0,0,1-3.91,10.67s.3,12.63-4.78,11.45-5.44-5.74-5.89-7-1.81,4.46-8.42,8.07-6.32-5.86-6.32-5.86c-2.25,5.41-8.56,4.66-8.56,4.66s3.22,14.51.32,20c-6.64,12.49-15.66-6.23-15.66-6.23C11,185.18,13,175,13,175s-1.51,2.56-6.47-.6S-1,155.19,2.43,148s5.57-.6,5.57-.6S7.54,143,6.94,137.15,10.25,120,10.25,120s-7.37-4.81-9-11.28-2.56-26,3.46-27c5.83-1,8,7.3,8.11,7.79v0c3.46,7.36,30.52-4.9,30.52-4.9s-5.6,9.55,8.21,7.15C68.85,88.75,67.37,74,67.37,74s4.26,12,10.82,13.53C88.59,90,126.36,74,128.67,64.85c1.48-5.86-4.14-8.56-4.14-8.56s15.57,6.6,45.95,0c0,0-5.34,4.23,0,10.52s21.63,6.33,22.85.3c0,0,2.64,10.8,16.23,14.7,0,0-11.27-.27-5.37,10.25s51.06.6,50.76-15c0,0,12.93,4.81,13.53,11.12S261,93.57,261,93.57c3.9,8.11,1.2,20.13,1.2,20.13S274.19,127.53,272.69,138.05Z"/><path class="cls-5" d="M272.69,138.05c-1.5,10.53-9.61-.9-9.61-.9-.89,15.94-11.74,18.64-11.74,18.64s11.13,3.91,11.73,14.73-18.94,11.34-18.94,11.34,6.31,19-2.71,22.33-8.71-5.29-8.71-5.29c-10.82,5.53-6.62-7.33-6.62-7.33-4.2-3.49,4.81-16.54,4.81-16.54-5.92-.34-5.71-12.32-5.71-12.32-1.52,5.59-11.42,2.9-11.42,2.9s-2.18,7.87-9,7.47S199,146.17,199,146.17c-6.61-1.8-2.18-30.13-2.18-30.13s-4.51,3.83-7.67,1.57-.55-12.87-.45-13.29c-.11.25-1.9,4.28-12,4.5s-12-16.24-11.95-16.45c-8.57,4.73-18.71-1.14-18.71-1.14s-2.26,9.25-6.31,9.25-18.27-12.85-18.27-12.85c-7.66,4.05-16.23,2-16.23,2,1,.45-4.59,18.18-11.65,17-6.8-1.16-8.44-3.84-8.56-4,0,.31,1.1,6.91-2.56,19.82-3.76,13.23-13.68,9-13.68,9s3.91,13.38,2.86,19.09a38.31,38.31,0,0,1-3.91,10.67s.3,12.63-4.78,11.45-5.44-5.74-5.89-7-1.81,4.46-8.42,8.07-6.32-5.86-6.32-5.86c-2.25,5.41-8.56,4.66-8.56,4.66s3.22,14.51.32,20c-6.64,12.49-15.66-6.23-15.66-6.23C11,185.18,13,175,13,175s-1.51,2.56-6.47-.6S-1,155.19,2.43,148c3.21-6.68,5.25-1.49,5.53-.69l0,.09c1.27,10.83,8.49,0,8.49,0s1.8,6.38,7.86,2.42c-.34.25-4.7,3.48,1.15,4.35,6.09.9,9.25-10.15,9.25-10.15a10.11,10.11,0,0,0,10.37,3.38s-6.19,5.19,2.32,5.19S49.18,137,49.18,137s5.73,3.39,9.52-3.15,0-17.59,0-17.59a9.5,9.5,0,0,0,12.57,3.38c8.35-3.83,10.24-21.42,10.24-21.42S85.7,101,90,101.09s4.28-13.91,4.28-13.91,1.58,4.73,9.92-1.58c0,0-.22,3.6,6.32,2s12.62-11.86,12.62-11.86,2.71,13,8.34,13.89,2.1-17.5,2.1-17.5,8.05,7.38,13.24,3.08a15.43,15.43,0,0,0,5.41-10.39s-.45,9.8,6.76,8.85a10.79,10.79,0,0,0,9-7c-.19.83-3.72,16.78,7.31,18.21-1.33-.15-11.57-1.17-8,4.53,3.84,6.09,13.08-1.8,13.08-1.8s-2.71,6.08,2.93,8.56c5.17,2.28,6.89-1.3,7.13-1.9-.34,1-3.38,11,7.27,13.19-.52,0-7.31-.69-4.7,3s10.82,2.66,10.82,2.66-5.19,6.77-1.13,9.7c1.6,1.15,3.58.81,5.39,0-4.94,4.18-10.87,11.11-5.29,17.19,6.42,7,12.69.09,15.53-4-1.71,3.22-3.65,8.68,1,11.43,6.83,4.06,12-11.27,12-11.27s1.36,7.22,9.25,4.06c0,0-7.22,9-.9,10.82s21.39-5.18,15.31-12.17c0,0,5.18-6.32,0-10.6,0,0,10.24-2.86,7.16-14.51C262.17,113.7,274.19,127.53,272.69,138.05Z"/><path class="cls-6" d="M103.45,52.13s6.68,1.9,1,4.9-16.6.68-16.6.68C70.1,64.15,63.63,61.43,65,53.34c0,0-11.7-6.94,6-11.48,4.47-1.14,3.09,3.31,3,3.4,9-3.4,12.11-1.21,12.11-1.21s3-14.74,6.6-16.32S124.21,9.39,125.75,26l-8.93,4.45C157.85,36.3,103.45,52.13,103.45,52.13Z"/></g></g></g></svg>