<svg xmlns="http://www.w3.org/2000/svg" xmlns:xlink="http://www.w3.org/1999/xlink" viewBox="0 0 175.72 109.61"><defs><style>.cls-1{fill:url(#_185);}.cls-2{fill:url(#_185-2);}</style><linearGradient id="_185" x1="87.86" y1="-25.51" x2="87.86" y2="118.74" gradientUnits="userSpaceOnUse"><stop offset="0" stop-color="#850e3b"/><stop offset="1" stop-color="#39002e"/></linearGradient><linearGradient id="_185-2" x1="87.86" y1="121.36" x2="87.86" y2="-22.25" xlink:href="#_185"/></defs><g id="Layer_2" data-name="Layer 2"><g id="Avatar_face" data-name="Avatar face"><path class="cls-1" d="M175.72,104.55l-6.07,5.06-7-52c-.88-3.35-16.74-19.78-20.48-20.28-13.05-1.73-37.53-2.78-54.32-2.94-16.78.16-41.26,1.21-54.32,2.94-3.74.5-19.6,16.93-20.47,20.28L5.55,109.12,0,104.55C2.82,76.26,1.82,56.19,3.87,41.79,5,34,8.5,25.36,14.59,19.64a24.19,24.19,0,0,1,6.78-4.56C49.88,2.45,87.72,0,87.72,0s38.12,2.45,66.63,15.08a24.19,24.19,0,0,1,6.78,4.56c6.09,5.72,9.61,14.34,10.72,22.15C173.9,56.19,172.91,76.26,175.72,104.55Z"/><path class="cls-2" d="M175.72,104.55l-6.07,5.06-7-52c-.88-3.35-16.74-19.78-20.48-20.28-13.05-1.73-37.53-2.78-54.32-2.94-16.78.16-41.26,1.21-54.32,2.94-3.74.5-19.6,16.93-20.47,20.28L5.55,109.12,0,104.55C2.82,76.26,1.82,56.19,3.87,41.79,5,34,8.5,25.36,14.59,19.64c-1.08,10.78,46.16,12.5,73.13,12.5s60.95-4.88,73.41-12.5c6.09,5.72,9.61,14.34,10.72,22.15C173.9,56.19,172.91,76.26,175.72,104.55Z"/></g></g></svg>