<svg xmlns="http://www.w3.org/2000/svg" xmlns:xlink="http://www.w3.org/1999/xlink" viewBox="0 0 188.59 155.61"><defs><style>.cls-1{isolation:isolate;}.cls-2{fill:url(#_185);}.cls-3,.cls-4,.cls-5{fill:#a83a71;}.cls-3,.cls-4{mix-blend-mode:multiply;}.cls-4{opacity:0.5;}</style><linearGradient id="_185" x1="94.3" y1="-11.86" x2="94.3" y2="161.67" gradientUnits="userSpaceOnUse"><stop offset="0" stop-color="#850e3b"/><stop offset="1" stop-color="#39002e"/></linearGradient></defs><g class="cls-1"><g id="Avatar_face" data-name="Avatar face"><path class="cls-2" d="M188.59,67.09C187.15,73.94,186,81,185,87.89c-.18,1.23-.35,2.45-.52,3.66-3.47,25.59-4.19,48-4.19,48-2,5.32-2.54,16.05-2.54,16.05l-16.49-52.9c0-.36,0-.73.06-1.08.06-1,.16-1.9.3-2.81,1.08-7.74-.89-14.33-.55-15l0,0h0l-.77-.28c-26.77-9.46-66-11.09-66-11.09s-39.9,1.66-66.75,11.37h0c.18.32-1.24,7.82-.89,17.58l-1.68,5-6.7,19.79-7,28.25s-.92-9.49-2.87-14.81c0,0-.38-11.8-1.92-28-.19-2.06-.41-4.2-.64-6.39C4.68,94.77,3.13,83.17,1,71.88c-.3-1.6-.62-3.2-1-4.79,0,0,.12-.38.37-1.09.47-1.29,1.36-3.67,2.68-6.72v0A116,116,0,0,1,14,39.38s-5.52-2.13,0-7.46a20.63,20.63,0,0,1,8.28-4.38,44.41,44.41,0,0,1,9-1.67l6.39-3.55s2.49-8.88,7.46-13.5,9.77,1.78,9.77,1.78l9.77-3.55s-.71-5,6-6.4S87.4,2.78,87.4,2.78h13.79s.24-3.89,7-2.47,15.73,6.74,15.73,6.74l9.62,3.49.16.06s.38-.07,1-.15h0c2.67-.31,9.7-.7,13.68,3a10,10,0,0,1,2.67,3.78,6.28,6.28,0,0,1-.18,5.1l6.39,3.55s11.73.72,17.25,6.05,0,7.46,0,7.46a116,116,0,0,1,11,19.88v0C187.58,64,188.59,67.09,188.59,67.09Z"/><path class="cls-3" d="M185.54,59.28s0,0,0,0a115.21,115.21,0,0,0-11-19.88l.27-.13a4.23,4.23,0,0,0,1.89-1.78,2.89,2.89,0,0,0,.22-1.93c-13.8-1.14-27.08-.75-35.5-2.41h0l-1.05-.22a8,8,0,0,1-.9-.25h0c-1.76-.38-3.25-2.93-7.1-3.24,0,0-5.63.25-14,0C104.65,29,99.9,25.12,99.5,24.76c-2.39-.64-12.62-1.12-12.62-1.12-2.9.07-12,3.18-17,2.65-18.26,1.11-16.52,4-16.52,4-2.5,4-17.82,8.43-27.66,5.26-2.56-.83-3.74-1.83-4.08-2.87a2.13,2.13,0,0,1-.08-1.06c.41-2.6,4.87-5.06,4.87-5.06a39.13,39.13,0,0,0-4.13,1A20.85,20.85,0,0,0,14,31.91c-5.52,5.33,0,7.47,0,7.47a115.21,115.21,0,0,0-11,19.88v0l0,0s0,0,0,0,0,0,0,0C1.7,62.39.83,64.73.37,66c-.12.35-.22.62-.27.8a.39.39,0,0,0,0,.06h0c0,.06,0,.11,0,.14s0,0,0,0H0a0,0,0,0,0,0,0v0s5.33,7.1,8.34,9.23A58.18,58.18,0,0,0,16,80.59s.89,8.53,5.86,8.88,5.68-5.68,5.68-5.68l.35-.13c26.84-9.6,66.41-11.24,66.41-11.24s39.91,1.66,66.76,11.37c0,0,.6,5.08,4.54,5.64l.34,0h.81c5-.35,5.86-8.88,5.86-8.88a57.67,57.67,0,0,0,7.64-4.27c3-2.13,8.35-9.23,8.35-9.23S187.58,64,185.54,59.28ZM51.64,27.4c1.69-.62.06-2.2-1.34-4.31h0c-.58-.52-.57-1.07.15-1.61,5.7-4.28,19.4-5.82,27.88-2.59a13.89,13.89,0,0,1,1.36.58c9.72,3.92,21.53,3.69,31,2.32a27.28,27.28,0,0,1,4.26-.72h0c8.16-.71,15.94,2.21,17.54,7.24a31.73,31.73,0,0,0,14.09.56h0l1.44-.3h0c6.12-1.25,12.91-2.22,13.06-2.22-2.28-.39-3.87-.49-3.87-.49l-6.39-3.55a6.47,6.47,0,0,0-.25-6c-3.7,3.26-33.79,2.74-34.29-1.59S133.7,10.6,133.7,10.6l-.16-.06L123.92,7l-.58-.33c4.47,3.3-6.74,6.06-16.37,2.76s-5.78-6.69-5.78-6.69H87.4a40.72,40.72,0,0,1,3.45,2.74c2,1.75-14.13,7-26.19,1.52L54.89,10.6a10.4,10.4,0,0,0-1.34-1.41c.07.13,2.74,5.21-4.83,7.83A34.71,34.71,0,0,1,38.83,19c-.78,2-1.17,3.36-1.17,3.36l-6.39,3.55C34.07,25.65,44.22,25.05,51.64,27.4ZM84.52,12.78c13.83-11,32.44,5,23.29,5.74C98.88,19.25,76,19.61,84.52,12.78Zm-54,13.15Z"/><path class="cls-4" d="M188.59,67.09s-5.33,7.11-8.35,9.24a58.36,58.36,0,0,1-7.64,4.26s-.89,8.53-5.86,8.88h-.1a6,6,0,0,1-1,0c-3.94-.57-4.54-5.65-4.54-5.65C134.2,74.08,94.29,72.42,94.29,72.42S54.73,74.06,27.88,83.67l-.34.12s-.72,6-5.69,5.68S16,80.59,16,80.59a58.36,58.36,0,0,1-7.64-4.26C5.33,74.2,0,67.09,0,67.09v0a0,0,0,0,1,0,0H0s0-.09.06-.16h0c.07-.19,1.75-4.48,2.55-6.53.05-.13.1-.24.14-.35l.06-.16c.07-.18.13-.31.16-.41s0,0,0,0l0,0s0,0,0,0c-.06.41-.69,5.46,2.5,8.52C5.55,67.8,48,60,94.29,60,138.92,60,183,67.8,183,67.8c3.18-3.06,2.56-8.11,2.5-8.52C187.58,64,188.59,67.09,188.59,67.09Z"/><path class="cls-3" d="M157.32,25.87s-11.84-1.22-20.09,1.23A9.57,9.57,0,0,0,131,21.77s13.87,1.25,20.13-4.55a6.28,6.28,0,0,1-.18,5.1Z"/><path class="cls-3" d="M77.46,15.51c.14.61-13-2.24-25.73,3a12.71,12.71,0,0,0,3.16-7.92l9.77-3.55C68.23,10.9,78,11.52,89.09,8,88.73,8.18,77,13.3,77.46,15.51Z"/><path class="cls-3" d="M185.54,59.28v0a116,116,0,0,0-11-19.88l-.37-.08.64,0a4.2,4.2,0,0,0,1.89-1.77c-18.85-1.2-36.5-3.13-36.5-3.13-11.2-1.12-18.49-1.19-18.49-1.19s6.8,1.74,8.49,4.74c2.29,4.09-3.84,8.23-20.13,7.16-.22,0-.44,0-.66,0-.46-.13-6.2-1.69-4.55-5.17,1.31-2.75,8.17-4.85,8.17-4.85S97.73,32.87,96,30.18c-3.09-4.75,7.25-8.78,7.25-8.78C93.35,20.5,87,20.18,87,20.18c5.5,4.34.87,11.38.87,11.38,11.19,2.59,20.32,11,6.45,10.21-7.61-.41-23.9,1.4-27.95-.75-1.57-.83-5.92-4.69,0-7.12A63,63,0,0,1,78.6,30.18a69.38,69.38,0,0,0-15-2.64C58.73,27.15,54,27.1,54,27.1s12.58,4.46,7.15,7c-16.42,7.64-40.28,4.07-44.25-1.22-1.13-1.52,5-4,5.42-5.32A20.63,20.63,0,0,0,14,31.92c-5.52,5.33,0,7.46,0,7.46a116,116,0,0,0-11,19.88v0s0,0,0,0l0,0s0,0,0,0-.09.23-.16.41L2.77,60c0,.11-.09.22-.14.35a1.67,1.67,0,0,1-.08.2L0,67s0,0,0,0H0a0,0,0,0,0,0,0v0s5.33,7.11,8.35,9.24A58.36,58.36,0,0,0,16,80.59s.89,8.53,5.86,8.88,5.69-5.68,5.69-5.68l.34-.12c26.85-9.61,66.41-11.25,66.41-11.25s39.91,1.66,66.76,11.37c0,0,.6,5.08,4.54,5.65.4,0,.71,0,.93,0h.22c5-.35,5.86-8.88,5.86-8.88a58.36,58.36,0,0,0,7.64-4.26c3-2.13,8.35-9.24,8.35-9.24S187.58,64,185.54,59.28Zm-137-6.17c-4.83,4-27.36.87-30.5-1.13-2.52-1.59,1-9.08,19.33-8.37C43.57,43.85,51.92,50.36,48.56,53.11ZM87,57.52c-13.42-2.69-17,.91-21.94-.33-13.33-3.33,3.4-13,19.52-6.58C88.92,52.35,90.92,58.32,87,57.52Zm78.08-6.15c-4.12,1.79-25-1-35.17,0-4.46.43,2.91-9.14,10.84-11.22S171.23,48.69,165.06,51.37Z"/><path class="cls-5" d="M102.27,30.32l-.14.11a.79.79,0,0,0-.21-.17Z"/></g></g></svg>