<svg xmlns="http://www.w3.org/2000/svg" xmlns:xlink="http://www.w3.org/1999/xlink" viewBox="0 0 261.45 192.58"><defs><style>.cls-1{isolation:isolate;}.cls-2{fill:url(#_185);}.cls-13,.cls-14,.cls-15,.cls-3,.cls-4,.cls-5,.cls-7,.cls-8,.cls-9{mix-blend-mode:multiply;}.cls-3{fill:url(#_48);}.cls-4{fill:url(#_48-2);}.cls-5{fill:url(#_48-3);}.cls-6{fill:url(#_185-2);}.cls-7{fill:url(#_48-4);}.cls-8{fill:url(#_48-5);}.cls-9{fill:url(#_48-6);}.cls-10{fill:url(#_30);}.cls-11{fill:url(#_30-2);}.cls-12{fill:url(#_185-3);}.cls-13{fill:url(#_48-7);}.cls-14{fill:url(#_48-8);}.cls-15{fill:url(#_48-9);}.cls-16{fill:none;}</style><linearGradient id="_185" x1="14.17" y1="-118.32" x2="14.17" y2="-39.94" gradientTransform="matrix(1, 0.03, -0.03, 1, 18.42, 104.79)" gradientUnits="userSpaceOnUse"><stop offset="0" stop-color="#850e3b"/><stop offset="1" stop-color="#39002e"/></linearGradient><linearGradient id="_48" y1="50.48" x2="64.35" y2="50.48" gradientUnits="userSpaceOnUse"><stop offset="0" stop-color="#8780e9"/><stop offset="1" stop-color="#fff"/></linearGradient><linearGradient id="_48-2" x1="5.03" y1="34.57" x2="65.87" y2="34.57" xlink:href="#_48"/><linearGradient id="_48-3" x1="11.18" y1="77.68" x2="57.52" y2="77.68" xlink:href="#_48"/><linearGradient id="_185-2" x1="207.72" y1="-119.61" x2="207.72" y2="-38.68" xlink:href="#_185"/><linearGradient id="_48-4" x1="219.27" y1="22.96" x2="261.23" y2="110.56" xlink:href="#_48"/><linearGradient id="_48-5" x1="210.37" y1="27.59" x2="252.41" y2="115.34" xlink:href="#_48"/><linearGradient id="_48-6" x1="248.28" y1="64.31" x2="260.15" y2="64.31" xlink:href="#_48"/><linearGradient id="_30" x1="191.41" y1="-9.81" x2="191.41" y2="-55.89" gradientTransform="matrix(1, 0.03, -0.03, 1, 18.42, 104.79)" gradientUnits="userSpaceOnUse"><stop offset="0" stop-color="#ffacd6"/><stop offset="1" stop-color="#ffc3de"/></linearGradient><linearGradient id="_30-2" x1="34.54" y1="-5.74" x2="34.54" y2="-57.87" xlink:href="#_30"/><linearGradient id="_185-3" x1="133.09" y1="40.44" x2="133.09" y2="142.45" gradientTransform="matrix(1, 0, 0, 1, 0, 0)" xlink:href="#_185"/><linearGradient id="_48-7" x1="85.57" y1="152.08" x2="85.57" y2="27.85" xlink:href="#_48"/><linearGradient id="_48-8" x1="142.22" y1="152.08" x2="142.22" y2="27.85" xlink:href="#_48"/><linearGradient id="_48-9" x1="196.31" y1="152.08" x2="196.31" y2="27.85" xlink:href="#_48"/></defs><g class="cls-1"><g id="Layer_2" data-name="Layer 2"><g id="Layer_1-2" data-name="Layer 1"><path class="cls-2" d="M67.9,50.83S69.9,5.66,44.09,4,12,59.49,12,59.49l4.64-3.59S15.58,24.41,30.06,21s26,7.67,26,7.67S20.11,10.36,6.3,35s-4.17,73.49,21.47,68.84S67.9,50.83,67.9,50.83Z"/><path class="cls-3" d="M0,62.86s31.44-38.07,61.76-9.53l2.59-1.12S36,20.58.79,52Z"/><path class="cls-4" d="M5,37.47s35.49-22.8,60.84,4.71L63.54,35.8S51.82,16.46,6.3,35Z"/><path class="cls-5" d="M11.18,98s.55-51.08,46.34-42.61l-1.63,1s-43-4.85-41.34,44.53Z"/><path class="cls-6" d="M193.47,57.66S193.78.53,222.87,4.2s24.82,69.86,24.82,69.86,2.7-42.91-14.43-51.64S206.41,28,206.41,28s18.83-14.55,42.14,3.72,14.3,73.11-21.25,69.14Z"/><path class="cls-7" d="M220.86,22.67s36.58,31.77,22.08,75.6l3-1.71S258.77,45.38,223,22.73Z"/><path class="cls-8" d="M216.17,23.53s20.92,21,17.12,77.38l3.29-.45s1.79-59.36-18.84-76.88Z"/><path class="cls-9" d="M251,33.84s8,33.53-2.71,60.93c0,0,5.5-3.4,9.68-13.86,0,0,3.67-18.9,1.5-32.37C259.46,48.54,255.33,37.43,251,33.84Z"/><path class="cls-10" d="M193.89,54.77s37.31-10.61,33.41,46C227.3,100.81,223.29,65.05,193.89,54.77Z"/><path class="cls-11" d="M71.7,48.39S48.19,59.27,37.44,99.59C37.44,99.59,26.49,57.26,71.7,48.39Z"/><path class="cls-12" d="M226.61,148.89l-7.86,6.79-1.93,10.67-6.09-47.25-6.09,4.13a185.14,185.14,0,0,1-6.73-32.79C178.12,104.67,166.48,101,166.48,101c-2.58-1.24-2.68-5.28-1.93-9.54a67.27,67.27,0,0,1,3.7-12.19h0c-18.17,0-49.39-22.11-49.21-22,0,0,3.51,5.7,5.87,9.8l0,0s0,0,0,0c8.63,15,8.49,32.42,8.49,32.42-14.9,9.11-56.17-7.94-56.68-8.15C90,102.48,90,112.93,90,112.93c-12.06,0-28.1-14.66-28.1-14.66-7.93,25.67-12.8,73.28-12.8,73.28l-6.3-21.26S34,107,39.55,92.51C45.08,78.21,53.3,60.39,67.71,49.4A49.12,49.12,0,0,1,96.4,39.21c5.47-.21,8.43,4.95,8.43,4.95h0c.27-.13,17.59-8.68,29.35-8.82,8.24-.09,41,5.63,65,21C209.74,63,218.57,71.6,222.87,82.37,232.72,107,226.61,148.89,226.61,148.89Z"/><path class="cls-13" d="M125,67.22c.78,1.5,8.22,16.36,0,20.93C116.4,93,79.5,85.22,65.87,72.21c-10.8-10.31,2-21.38,2-21.38l-.19-1.43c-14.41,11-22.63,28.81-28.16,43.11-5.6,14.5,3.28,57.78,3.28,57.78l6.3,21.26S54,123.94,61.93,98.27c0,0,16,14.66,28.1,14.66,0,0,0-10.45-13.26-21.49.51.21,41.78,17.26,56.68,8.15C133.45,99.59,133.59,82.19,125,67.22ZM82.87,104.15c-.32-.21-27-17.76-18.52-17.76C74.06,86.39,82.73,103.87,82.87,104.15Z"/><path class="cls-14" d="M104.83,44.16h0c.27-.13,17.59-8.68,29.35-8.82,0,0-16.42,2.49-9.16,9.57S168.6,68.71,179.6,65.77c0,0-3,3-11.34,13.48-18.17,0-49.21-22-49.21-22Z"/><path class="cls-15" d="M226.61,148.89l-7.86,6.79-1.93,10.67-6.09-47.25-6.09,4.13a185.14,185.14,0,0,1-6.73-32.79C178.12,104.67,166.48,101,166.48,101c-2.58-1.24-2.68-5.28-1.93-9.54,0,0,4.47,3.18,15.94-1.55,9.1-3.74,15.69-18.22,15.69-18.22s3,4,5.52,4,2.58-11.61-2.17-18.5a1.46,1.46,0,0,1-.32-.9C209.74,63,218.57,71.6,222.87,82.37,232.72,107,226.61,148.89,226.61,148.89Z"/><rect class="cls-16" x="15.37" width="242.49" height="192.58"/></g></g></g></svg>