<svg xmlns="http://www.w3.org/2000/svg" xmlns:xlink="http://www.w3.org/1999/xlink" viewBox="0 0 250.44 136.16"><defs><style>.cls-1{isolation:isolate;}.cls-2{fill:url(#_185);}.cls-13,.cls-14,.cls-15,.cls-3,.cls-4,.cls-5,.cls-7,.cls-8,.cls-9{mix-blend-mode:multiply;}.cls-3{fill:url(#_48);}.cls-4{fill:url(#_48-2);}.cls-5{fill:url(#_48-3);}.cls-6{fill:url(#_185-2);}.cls-7{fill:url(#_48-4);}.cls-8{fill:url(#_48-5);}.cls-9{fill:url(#_48-6);}.cls-10{fill:url(#_30);}.cls-11{fill:url(#_30-2);}.cls-12{fill:url(#_185-3);}.cls-13{fill:url(#_48-7);}.cls-14{fill:url(#_48-8);}.cls-15{fill:url(#_48-9);}</style><linearGradient id="_185" x1="50.92" y1="-182.53" x2="50.92" y2="-118.77" gradientTransform="matrix(1, 0.03, -0.03, 1, -21.89, 167.1)" gradientUnits="userSpaceOnUse"><stop offset="0" stop-color="#850e3b"/><stop offset="1" stop-color="#39002e"/></linearGradient><linearGradient id="_48" y1="37.77" x2="61.64" y2="37.77" gradientUnits="userSpaceOnUse"><stop offset="0" stop-color="#8780e9"/><stop offset="1" stop-color="#fff"/></linearGradient><linearGradient id="_48-2" x1="4.82" y1="24.85" x2="63.1" y2="24.85" xlink:href="#_48"/><linearGradient id="_48-3" x1="10.71" y1="59.88" x2="55.1" y2="59.88" xlink:href="#_48"/><linearGradient id="_185-2" x1="236.3" y1="-184.28" x2="236.3" y2="-118.54" xlink:href="#_185"/><linearGradient id="_48-4" x1="212.84" y1="14.17" x2="247.69" y2="86.92" xlink:href="#_48"/><linearGradient id="_48-5" x1="204.02" y1="18.39" x2="238.88" y2="91.15" xlink:href="#_48"/><linearGradient id="_48-6" x1="237.82" y1="49.01" x2="249.19" y2="49.01" xlink:href="#_48"/><linearGradient id="_30" x1="220.61" y1="-95.07" x2="220.61" y2="-132.42" gradientTransform="matrix(1, 0.03, -0.03, 1, -21.89, 167.1)" gradientUnits="userSpaceOnUse"><stop offset="0" stop-color="#ffacd6"/><stop offset="1" stop-color="#ffc3de"/></linearGradient><linearGradient id="_30-2" x1="70.37" y1="-90.99" x2="70.37" y2="-133.5" xlink:href="#_30"/><linearGradient id="_185-3" x1="127.48" y1="29.61" x2="127.48" y2="112.51" gradientTransform="matrix(1, 0, 0, 1, 0, 0)" xlink:href="#_185"/><linearGradient id="_48-7" x1="81.97" y1="120.35" x2="81.97" y2="19.38" xlink:href="#_48"/><linearGradient id="_48-8" x1="136.23" y1="120.35" x2="136.23" y2="19.38" xlink:href="#_48"/><linearGradient id="_48-9" x1="188.04" y1="120.35" x2="188.04" y2="19.38" xlink:href="#_48"/></defs><g class="cls-1"><g id="Layer_2" data-name="Layer 2"><g id="Avatar_face" data-name="Avatar face"><path class="cls-2" d="M65,38.06S67,1.35,42.24,0,11.48,45.1,11.48,45.1l4.44-2.92s-1-25.59,12.88-28.37S53.68,20,53.68,20,19.26,5.17,6,25.19s-4,59.73,20.57,56S65,38.06,65,38.06Z"/><path class="cls-3" d="M0,47.84s30.11-30.95,59.16-7.75l2.48-.91S34.44,13.47.76,39Z"/><path class="cls-4" d="M4.82,27.2S38.81,8.67,63.1,31l-2.24-5.18S49.64,10.12,6,25.19Z"/><path class="cls-5" d="M10.71,76.39s.53-41.51,44.39-34.62l-1.56.81S12.32,38.65,13.93,78.77Z"/><path class="cls-6" d="M185.33,43.61S185.62-2.82,213.48.17s23.78,56.77,23.78,56.77,2.58-34.88-13.82-42-25.73,4.5-25.73,4.5,18-11.83,40.38,3,13.69,59.41-20.36,56.19Z"/><path class="cls-7" d="M211.55,15.17s35,25.82,21.16,61.44l2.84-1.39s12.33-41.59-22-60Z"/><path class="cls-8" d="M207.07,15.87s20,17.09,16.4,62.89l3.15-.37s1.72-48.24-18.05-62.48Z"/><path class="cls-9" d="M240.42,24.25s7.63,27.25-2.6,49.51c0,0,5.28-2.76,9.28-11.26,0,0,3.52-15.35,1.43-26.3C248.53,36.2,244.57,27.17,240.42,24.25Z"/><path class="cls-10" d="M185.73,41.26s35.73-8.63,32,37.42C217.73,78.68,213.89,49.62,185.73,41.26Z"/><path class="cls-11" d="M68.68,36.08s-22.52,8.84-32.82,41.6C35.86,77.68,25.38,43.28,68.68,36.08Z"/><path class="cls-12" d="M217.06,117.75l-7.52,5.52-1.85,8.67-5.84-38.4L196,96.89a130.76,130.76,0,0,1-6.44-26.64c-19,11.56-30.11,8.57-30.11,8.57-2.48-1-2.57-4.29-1.84-7.76a48,48,0,0,1,3.54-9.9h0c-17.4,0-47.3-18-47.14-17.84,0,0,3.37,4.63,5.63,8l0,0s0,0,0,0c8.27,12.18,8.13,26.34,8.13,26.34-14.27,7.41-53.81-6.45-54.3-6.62,12.69,9,12.71,17.46,12.71,17.46-11.55,0-26.92-11.91-26.92-11.91-7.6,20.86-12.26,59.55-12.26,59.55l-6-17.27s-8.5-35.18-3.14-47c5.3-11.62,13.17-26.1,27-35a52.47,52.47,0,0,1,27.48-8.29,9.93,9.93,0,0,1,8.08,4h0c.26-.1,16.84-7.06,28.11-7.17,7.89-.07,39.32,4.58,62.29,17,10.09,5.47,18.55,12.45,22.66,21.2C222.92,83.74,217.06,117.75,217.06,117.75Z"/><path class="cls-13" d="M119.72,51.38c.75,1.22,7.88,13.29,0,17C111.5,72.3,76.15,66,63.1,55.44,52.75,47.05,65,38.05,65,38.05l-.18-1.15c-13.81,8.93-21.68,23.41-27,35-5.36,11.78,3.14,47,3.14,47l6,17.27s4.66-38.69,12.26-59.55c0,0,15.37,11.91,26.92,11.91,0,0,0-8.49-12.71-17.46.49.17,40,14,54.3,6.62C127.83,77.68,128,63.55,119.72,51.38Zm-40.34,30C79.08,81.22,53.49,67,61.64,67,70.94,67,79.25,81.17,79.38,81.39Z"/><path class="cls-14" d="M100.42,32.63h0c.26-.1,16.84-7.06,28.11-7.17,0,0-15.73,2-8.77,7.78S161.5,52.59,172,50.2c0,0-2.87,2.4-10.87,10.95-17.4,0-47.14-17.84-47.14-17.84Z"/><path class="cls-15" d="M217.06,117.75l-7.52,5.52-1.85,8.67-5.84-38.4L196,96.89a130.76,130.76,0,0,1-6.44-26.64c-19,11.56-30.11,8.57-30.11,8.57-2.48-1-2.57-4.29-1.84-7.76,0,0,4.27,2.58,15.26-1.26,8.71-3,15-14.8,15-14.8s2.84,3.27,5.29,3.27,2.46-9.44-2.09-15a1.13,1.13,0,0,1-.3-.74c10.09,5.47,18.55,12.45,22.66,21.2C222.92,83.74,217.06,117.75,217.06,117.75Z"/></g></g></g></svg>